<svg xmlns="http://www.w3.org/2000/svg" viewBox="0 0 250 117.25">
 <g transform="translate(-284.31 -515.62)">
  <path d="m285.26 516.44v2.666c7.5276 0 10.193 3.2937 10.193 14.271v56.297c0 11.918-3.9205 13.957-10.193 13.957v2.668h32.305v-2.668c-7.5286 0-10.193-3.1354-10.193-14.27v-25.092c6.5868 0.78377 9.8787 0.94141 13.799 0.94141 20.388 0 31.68-8.3108 31.68-23.209 0-12.389-10.036-25.562-34.814-25.562h-32.775zm22.111 3.4512h11.135c16.466 0 21.799 12.858 21.799 22.424 0 12.232-8.4693 19.447-21.799 19.447-4.7054 0-7.058-0.1574-11.135-1.5684v-40.303zm64.297 29.324c-15.681 0-27.914 13.174-27.914 29.953 0 16.781 12.545 28.855 29.953 28.855 9.7224 0 16.153-3.2919 22.896-11.918v-4.0801c-7.999 8.9411-11.918 11.605-19.604 11.605-7.5273 0-22.425-6.2698-22.113-31.205h40.775c0.78521-12.86-11.134-23.211-23.994-23.211zm42.652 0-17.25 1.7266v2.666c7.5271 0 9.2558 1.4115 9.2558 8.1543v31.207c0 10.035-1.8846 10.662-9.2558 10.662v2.668h29.326v-2.668c-8.3123 0-9.4082-2.1949-9.4082-10.662v-27.131c5.4877-7.3708 10.35-10.82 15.838-10.82 5.9583 0 12.389 3.7646 12.389 12.703v29.012c0 5.1751-2.0406 6.8984-9.5664 6.8984v2.668h29.324 0.31445 29.012v-2.668c-8.311 0-9.4102-2.1949-9.4102-10.662v-27.131c5.4904-7.3708 10.349-10.82 15.84-10.82 5.9583 0 12.389 3.7646 12.389 12.703v29.012c0 5.1751-2.0373 6.8984-9.5644 6.8984v2.668h29.639v-2.668c-7.8419 0-9.4102-2.1938-9.4102-9.4082v-25.092c0-13.33-9.5669-19.916-18.82-19.916-7.0552 0-13.485 3.6072-20.072 11.135v-11.135h-2.6641l-17.252 1.7266v2.666c7.5286 0 9.2539 1.4115 9.2539 8.1543v31.207c0 9.9561-1.8693 10.65-9.0957 10.66-7.6974-0.0306-9.252-2.2423-9.252-9.4062v-25.092c0-13.33-9.565-19.916-18.818-19.916-7.0552 0-13.486 3.6072-20.072 11.135v-11.135h-2.668zm-44.064 3.293c7.0581 0 15.368 5.0181 14.896 17.25h-30.266c0.6279-10.349 6.1184-17.25 15.369-17.25zm35.275 61.678c-0.74709 0-3.878 0.39153-4.8203 4.1816h-1.6738l-0.1582 0.74804h1.6894l-2.5449 12.576h0.80078c1.013-2.704 2.4368-8.344 3.3086-12.576h2.3301l0.42578-0.375 0.0723-0.37304h-2.6133l0.19336-0.85547c0.42851-1.9201 1.2277-2.6504 2.2949-2.6504 0.74724 0 1.3164 0.55375 1.5644 1.0332l0.44532-0.21484 0.21679-1.1738c-0.26849-0.24894-1.123-0.32031-1.5312-0.32031zm-120.34 0.62304v0.46289c1.6015 0.19598 1.5293 0.10639 1.5293 1.7617v5.3027c0 3.218 1.1749 5.1406 4.9648 5.1406 2.2948 0 4.7324-1.4258 4.7324-5.25v-5.0156c0-0.37339 0.0697-0.67503 0.10547-0.96093 0.0886-0.64103 0.67516-0.89122 1.5293-0.97852v-0.46289h-4.1973v0.46289c0.83559 0.0874 1.4407 0.33749 1.5293 0.97852 0.0358 0.2859 0.10742 0.58754 0.10742 0.96093v4.9434c0 2.847-1.2815 4.4844-3.7188 4.4844-2.6511 0-3.3262-1.9049-3.3262-4.3945v-5.2109c0-1.6553-0.0716-1.5657 1.5293-1.7617v-0.46289h-4.7852zm127.29 0v0.46289c1.6014 0.19598 1.5312 0.10639 1.5312 1.7617v8.0059c0 1.6526 0.0701 1.5657-1.5312 1.7617v0.46094h4.7852v-0.46094c-1.6002-0.19598-1.5293-0.1091-1.5293-1.7617v-9.6621h1.084c1.9948 0 2.9531 0.92559 2.9531 2.9199 0 1.9572-1.0307 3.2885-3.2559 3.2539v0.35547c2.7229 0.16158 5.0352-1.2261 5.0352-3.7871 0-2.1374-1.4587-3.3106-4.4121-3.3106h-4.6602zm-59.871 2.6797c-1.5784 0-2.9512 0.97488-2.9512 2.209 0 1.4963 0.92043 2.032 1.6621 2.5274 2.0598 1.3586 2.5371 2.086 2.5371 2.9785 0 1.0012-0.79462 1.7422-1.7695 1.7422-1.0577 0-2.0585-0.60228-2.209-2.125h-0.35938v1.9746c0 0.10861 0.044 0.16426 0.0996 0.19336 0.71326 0.27263 1.4683 0.4375 2.3457 0.4375 1.6489 0 3.3223-0.90561 3.3223-2.5371 0-1.1413-0.46823-1.8406-1.9219-2.9238-1.3737-1.0303-2.334-1.609-2.334-2.5703 0-1.0144 0.71244-1.4258 1.5098-1.4258 1.0969 0 1.6194 0.76989 1.7305 1.7285h0.35547v-1.7988c0-0.0689-0.0129-0.12129-0.0957-0.15039-0.54782-0.1907-1.3321-0.25976-1.9219-0.25976zm109.04 0c-1.5784 0-2.9492 0.97488-2.9492 2.209 0 1.4963 0.91835 2.032 1.6602 2.5274 2.0611 1.3586 2.5391 2.086 2.5391 2.9785 0 1.0012-0.79592 1.7422-1.7695 1.7422-1.0577 0-2.0585-0.60228-2.209-2.125h-0.35938v1.9746c0 0.10861 0.0427 0.16426 0.0957 0.19336 0.71597 0.27263 1.4696 0.4375 2.3496 0.4375 1.6476 0 3.3203-0.90561 3.3203-2.5371 0-1.1413-0.46553-1.8406-1.9219-2.9238-1.3723-1.0303-2.334-1.609-2.334-2.5703 0-1.0144 0.71514-1.4258 1.5098-1.4258 1.0984 0 1.622 0.76989 1.7305 1.7285h0.35743v-1.7988c0-0.0689-0.0129-0.12129-0.0957-0.15039-0.54783-0.1907-1.3326-0.25976-1.9238-0.25976zm37.42 0c-1.139 3.0323-2.7426 7.5208-3.334 8.7285-0.21953 0.4529-0.61621 0.6875-0.98633 0.6875v0.35743h2.4961v-0.35743c-0.60331 0-0.86597-0.45331-0.68555-0.98828l0.62891-1.8379h3.502l0.5918 1.7695c0.21982 0.60378 0.13804 1.0566-0.72852 1.0566v0.35743h3.1992v-0.35743c-0.58994 0-0.81097-0.43834-1.1133-1.209-0.46647-1.221-1.8673-5.4473-2.7988-8.207h-0.77148zm29.363 0c-1.1376 3.0323-2.746 7.5208-3.3359 8.7285-0.22095 0.4529-0.61816 0.6875-0.98828 0.6875v0.35743h2.5v-0.35743c-0.60625 0-0.86521-0.45331-0.6875-0.98828l0.63281-1.8379h3.502l0.58594 1.7695c0.21981 0.60378 0.13923 1.0566-0.72461 1.0566v0.35743h3.1973v-0.35743c-0.59121 0-0.80887-0.43834-1.1113-1.209-0.46775-1.221-1.8666-5.4473-2.8008-8.207h-0.76953zm-229.16 0.16406v0.35742c0.78264 0 1.2091 0.43906 1.5938 0.93164v6.4688c0 0.28605-0.0562 0.51847-0.084 0.73828-0.0681 0.49545-0.52037 0.68946-1.1797 0.75586v0.35743h3.3633v-0.35743c-0.90581-0.0664-1.3724-0.26041-1.4414-0.75586-0.0271-0.2198-0.082-0.45223-0.082-0.73828v-6.0684c2.2373 2.6352 4.5014 5.3404 6.6836 7.9199h0.4668v-7.7559c0-0.28862 0.0562-0.52043 0.084-0.74024 0.0678-0.49516 0.53424-0.68686 1.1797-0.75586v-0.35742h-3.3633v0.35742c0.90582 0.0689 1.3724 0.2607 1.4414 0.75586 0.0271 0.21981 0.082 0.45162 0.082 0.74024v5.6426h-0.0273c-2.0453-2.4845-4.1735-5.0119-6.2188-7.4961h-2.498zm13.385 0v0.35742c1.2352 0.15087 1.1797 0.0829 1.1797 1.3594v6.1758c0 1.2765 0.0556 1.2084-1.1797 1.3594v0.35743h3.6934v-0.35743c-1.2352-0.15102-1.1816-0.0829-1.1816-1.3594v-6.1758c0-1.2766-0.0536-1.2085 1.1816-1.3594v-0.35742h-3.6934zm5.8066 0v0.35742c0.65902 0 1.0846 0.42718 1.5918 1.8945 0.83659 2.3333 1.7708 4.9844 2.6074 7.3574h0.70117c1.1526-2.8126 2.3188-5.6151 3.4727-8.4277 0.28748-0.68614 0.74-0.82422 1.1387-0.82422v-0.35742h-2.9648v0.35742c0.93349 0 1.2904 0.42745 0.94726 1.291-0.85158 2.1001-1.6878 4.2122-2.5664 6.3125-0.71326-2.0871-1.5112-4.4456-2.0469-6.0664-0.45291-1.3163 0.0976-1.5371 0.85157-1.5371v-0.35742h-3.7324zm11.627 0v0.35742c1.2352 0.15087 1.1797 0.0829 1.1797 1.3594v6.1758c0 1.2765 0.0556 1.2084-1.1797 1.3594v0.35743h6.752l0.41211-2.4707h-0.35547c-0.63047 1.4699-0.53605 2.0312-2.5254 2.0312-1.2352 0-1.7715-0.0964-1.7715-1.2617v-3.1035h1.1523c0.91937 0 1.2365 0.48117 1.2637 1.2891h0.35547v-2.9238h-0.35547c-0.0271 0.85285-0.39854 1.1953-1.2637 1.1953h-1.1523v-3.9258h1.8672c0.9886 0 1.2634 0.75448 1.4004 1.7715h0.35547v-2.2109h-6.1348zm9.2656 0v0.35742c1.2354 0.15087 1.1797 0.0829 1.1797 1.3594v6.1758c0 1.2765 0.0557 1.2084-1.1797 1.3594v0.35743h3.6914v-0.35743c-1.2354-0.15102-1.1797-0.0829-1.1797-1.3594v-2.5391h1.2891c1.6612 2.7596 2.1011 4.2559 2.9121 4.2559h1.4141v-0.17774c-0.48003-0.28861-1.2494-1.2508-1.9355-2.252l-1.3457-2.0449c1.0563-0.41322 1.9219-1.3865 1.9219-2.8008 0-1.6049-1.3876-2.334-2.7734-2.334h-3.9941zm18.408 0v0.35742c1.2366 0.15087 1.1797 0.0829 1.1797 1.3594v6.1758c0 1.2765 0.057 1.2084-1.1797 1.3594v0.35743h3.6914v-0.35743c-1.2339-0.15102-1.1777-0.0829-1.1777-1.3594v-6.1758c0-1.2766-0.0562-1.2085 1.1777-1.3594v-0.35742h-3.6914zm6.0117 0-0.37109 2.0996h0.34375c0.4529-0.90567 0.72912-1.6602 1.9238-1.6602h1.2324v7.4531c0 1.2765 0.057 1.2084-1.1797 1.3594v0.35743h3.6953v-0.35743c-1.2366-0.15102-1.1816-0.0829-1.1816-1.3594v-7.4531h1.2344c1.1947 0 1.469 0.75449 1.9219 1.6602h0.34375l-0.37109-2.0996h-7.5918zm9.5566 0v0.35742c0.63061 0 1.0139 0.34185 1.4668 1.2344l2.1152 4.1875v2.1133c0 1.2765 0.0523 1.2084-1.1816 1.3594v0.35743h3.6934v-0.35743c-1.2339-0.15102-1.1816-0.0829-1.1816-1.3594v-1.5352c0-0.34428 0.0277-0.72856 0.16602-1.0039l2.291-4.1582c0.37154-0.65959 0.74117-0.83789 1.125-0.83789v-0.35742h-2.8281v0.35742c0.81078 0 1.2497 0.39766 0.7832 1.2344l-1.8926 3.4453-1.6641-3.4453c-0.34172-0.7124-0.43594-1.2344 0.60547-1.2344v-0.35742h-3.498zm50.68 0v0.35742c1.2366 0.15087 1.1816 0.0829 1.1816 1.3594v6.1758c0 1.2765 0.055 1.2084-1.1816 1.3594v0.35743h6.7539l0.41211-2.4707h-0.35742c-0.63047 1.4699-0.53334 2.0312-2.5254 2.0312-1.2338 0-1.7695-0.0964-1.7695-1.2617v-3.1035h1.1524c0.91938 0 1.2358 0.48117 1.2617 1.2891h0.35742v-2.9238h-0.35742c-0.0258 0.85285-0.39658 1.1953-1.2617 1.1953h-1.1524v-3.9258h1.8672c0.98846 0 1.2596 0.75448 1.3965 1.7715h0.35937v-2.2109h-6.1367zm9.2109 0v0.35742c0.78378 0 1.208 0.43906 1.5918 0.93164v6.4688c0 0.28605-0.0536 0.51847-0.082 0.73828-0.0692 0.49545-0.52143 0.68946-1.1777 0.75586v0.35743h3.3594v-0.35743c-0.90581-0.0664-1.3702-0.26041-1.4395-0.75586-0.0271-0.2198-0.084-0.45223-0.084-0.73828v-6.0684c2.2387 2.6352 4.5036 5.3404 6.6855 7.9199h0.4668v-7.7559c0-0.28862 0.0556-0.52043 0.084-0.74024 0.0665-0.49516 0.53498-0.68686 1.1777-0.75586v-0.35742h-3.3613v0.35742c0.90853 0.0689 1.3736 0.2607 1.4414 0.75586 0.0272 0.21981 0.084 0.45162 0.084 0.74024v5.6426h-0.0312c-2.0436-2.4845-4.1712-5.0119-6.2188-7.4961h-2.4961zm12.299 0v0.35742c0.78377 0 1.2081 0.43906 1.5918 0.93164v6.4688c0 0.28605-0.0521 0.51847-0.082 0.73828-0.0692 0.49545-0.52143 0.68946-1.1777 0.75586v0.35743h3.3613v-0.35743c-0.90582-0.0664-1.3721-0.26041-1.4414-0.75586-0.0258-0.2198-0.082-0.45223-0.082-0.73828v-6.0684c2.2374 2.6352 4.5017 5.3404 6.6836 7.9199h0.4668v-7.7559c0-0.28862 0.0554-0.52043 0.084-0.74024 0.0664-0.49516 0.53552-0.68686 1.1797-0.75586v-0.35742h-3.3633v0.35742c0.90853 0.0689 1.3741 0.2607 1.4434 0.75586 0.0257 0.21981 0.082 0.45162 0.082 0.74024v5.6426h-0.0293c-2.0449-2.4845-4.1712-5.0119-6.2188-7.4961h-2.498zm20.922 0v0.35742c0.6319 0 1.0158 0.34185 1.4688 1.2344l2.1133 4.1875v2.1133c0 1.2765 0.055 1.2084-1.1816 1.3594v0.35743h3.6934v-0.35743c-1.234-0.15102-1.1797-0.0829-1.1797-1.3594v-1.5352c-0.00001-0.34428 0.0257-0.72856 0.16406-1.0039l2.293-4.1582c0.36883-0.65959 0.74042-0.83789 1.127-0.83789v-0.35742h-2.8301v0.35742c0.81109 0 1.2477 0.39766 0.78125 1.2344l-1.8926 3.4453-1.6602-3.4453c-0.34443-0.7124-0.44061-1.2344 0.60351-1.2344v-0.35742h-3.5zm10.746 0v0.35742c1.2379 0.15087 1.1816 0.0829 1.1816 1.3594v6.1758c0 1.2765 0.0563 1.2084-1.1816 1.3594v0.35743h6.7402l0.41406-2.4707h-0.3457c-0.63048 1.4699-0.54701 2.0312-2.5391 2.0312-1.2204 0-1.7559-0.0953-1.7559-1.0566v-6.3965c0-1.2766-0.055-1.2085 1.1816-1.3594v-0.35742h-3.6953zm8.2109 0v0.35742c0.65902 0 1.0834 0.42718 1.5918 1.8945 0.83658 2.3333 1.7728 4.9844 2.6094 7.3574h0.69726c1.1553-2.8126 2.3193-5.6151 3.4746-8.4277 0.28619-0.68614 0.74339-0.82422 1.1406-0.82422v-0.35742h-2.9668v0.35742c0.93638 0 1.2918 0.42745 0.94726 1.291-0.84872 2.1001-1.6904 4.2122-2.5664 6.3125-0.71469-2.0871-1.5086-4.4456-2.0469-6.0664-0.45305-1.3163 0.0983-1.5371 0.85352-1.5371v-0.35742h-3.7344zm20.07 0v0.35742c0.7812 0 1.208 0.43906 1.5918 0.93164v6.4688c0 0.28605-0.0568 0.51847-0.084 0.73828-0.0691 0.49545-0.52067 0.68946-1.1797 0.75586v0.35743h3.3633v-0.35743c-0.90582-0.0664-1.3723-0.26041-1.4414-0.75586-0.0285-0.2198-0.082-0.45223-0.082-0.73828v-6.0684c2.2347 2.6352 4.5038 5.3404 6.6856 7.9199h0.46485v-7.7559c0-0.28862 0.0567-0.52043 0.084-0.74024 0.0678-0.49516 0.53295-0.68686 1.1797-0.75586v-0.35742h-3.3633v0.35742c0.90581 0.0689 1.3723 0.2607 1.4414 0.75586 0.0285 0.21981 0.082 0.45162 0.082 0.74024v5.6426h-0.0273c-2.0449-2.4845-4.1719-5.0119-6.2168-7.4961h-2.498zm12.834 0v0.35742c1.234 0.15087 1.1816 0.0829 1.1816 1.3594v6.1758c0 1.2765 0.0523 1.2084-1.1816 1.3594v0.35743h3.6914v-0.35743c-1.2339-0.15102-1.1816-0.0829-1.1816-1.3594v-6.1758c0-1.2766-0.0523-1.2085 1.1816-1.3594v-0.35742h-3.6914zm-176.44 0.43945h1.0566c1.0022 0 1.8262 0.52308 1.8262 2.0195 0 1.552-0.54957 2.457-1.7441 2.457h-1.1387v-4.4766zm51.191 0.0625c-2.9709 0-4.9805 3.4876-4.9805 5.8184 0 1.6712 0.62163 3.5039 2.8984 3.5039 3.3982 0 4.9629-4.164 4.9629-6.1211 0-1.5996-0.51185-3.2012-2.8809-3.2012zm-0.15821 0.42579c0.28333 0 1.4024 0.0706 1.4024 1.9219 0 3.0934-1.0808 6.4394-3.1094 6.4394-1.3168 0-1.4785-1.6713-1.4785-2.5957 0-2.3148 1.2627-5.7656 3.1855-5.7656zm106.13 0.51367h0.0254l1.459 4.4629h-3.1172l1.6328-4.4629zm29.361 0h0.0293l1.4531 4.4629h-3.1152l1.6328-4.4629z" fill="currentColor"/>
 </g>
</svg>
