<svg fill="none" height="127" viewBox="0 0 451 127" width="451" xmlns="http://www.w3.org/2000/svg"><g fill="#fff"><path clip-rule="evenodd" d="m21.8 125.8h-21.000012l18.700012-96.1h40.3c12.1 0 21 3.2 26.5 9.5 5.6 6.4 7.2 15.2 5 26.7-.9 4.7-2.5 9-4.6 12.9-2.2 3.9-5 7.5-8.5 10.7-4.2 3.9-8.8 6.7-13.9 8.4s-11.6 2.5-19.6 2.5h-18zm45.9-76.6c-2.7-2.9-8-4.4-15.9-4.4h-14.3l-7.8 40.3h12.7c8.4 0 14.7-1.6 18.9-4.8 4.1-3.2 6.9-8.5 8.4-15.9 1.3-7.2.6-12.2-2-15.2z" fill-rule="evenodd"/><path d="m106.6 4.1h20.8l-5 25.6h18.5c11.7 0 19.7 2 24.1 6.1s5.8 10.7 4 19.8l-8.7 44.8h-21.1l8.3-42.6c.9-4.8.6-8.1-1-9.9s-5.1-2.6-10.4-2.6h-16.6l-10.7 55.1h-20.9z"/><path clip-rule="evenodd" d="m185.2 125.8h-21l18.7-96.1h40.4c12.1 0 21 3.2 26.5 9.5 5.6 6.4 7.2 15.2 5 26.7-.9 4.7-2.5 9-4.6 12.9-2.2 3.9-5 7.5-8.5 10.7-4.2 3.9-8.8 6.7-13.9 8.4s-11.6 2.5-19.6 2.5h-18zm46-76.6c-2.7-2.9-8-4.4-15.9-4.4h-14.4l-7.8 40.3h12.7c8.4 0 14.7-1.6 18.9-4.8 4.1-3.2 6.9-8.5 8.4-15.9 1.3-7.2.7-12.2-1.9-15.2z" fill-rule="evenodd"/><path d="m317.5 48.5c-5.7-13.6-10.5-25.4-5.8-33.6 1.8-2.5 3.8-3.8 6-3.8 4.5 0 8.6 4.9 8.6 4.9l5.7 6.9-3.6-8.2c-.2-.3-6.3-14.2-17.2-14.2-3.8 0-7.8 1.7-11.7 5.1l-.1.1c-9.5 11-.2 31.8 8.1 50.1l6.1 14.2c2.8 7.3 5.6 16 3.9 22.4-2.6 10-11.5 16.8-11.6 16.9l-5.7 4.4 6.9-2.2c.7-.2 16-5.2 19.7-18.5 2.3-10.9-.6-21.8-3.5-30.2.4-.3-.4.3 0 0l-5.3-13.7"/></g><path d="m334.4 9.9-7.1-7.8 5.1 9.3c.1.1 6.3 11.7-1.6 25.2-2.9 4.2-7.4 8.4-13.1 12.6l-10.3 6.7c-.1-.1-.1-.2 0 0l-.4.3c-11.5 6.6-22.2 10.6-22.4 10.7-15.9 7.1-25.9 18.1-27.3 30.3-1.1 9.2 3.2 18.2 11.6 24.5l.1.1c5.3 3.2 11 4.8 17 4.8 15.7 0 28-10.9 28.5-11.4l7.7-6.9-9.1 4.8c-.1 0-7.7 4-15.6 4-7.1 0-12.1-3.1-15.1-9.4-3.8-13.4 9.5-22.6 24.8-33.2 2-1.4 4.1-2.9 6.2-4.3l.1-.1 9.1-6.8c.1-.2.4-.4.4-.4 7.5-6.2 17.4-15.9 19.7-29.5 1.8-12.3-7.9-23-8.3-23.5z" fill="#0f0f0f"/><path d="m345.4 83h19.5l-3.5 17.7h-19.5z" fill="#fff"/><path d="m409.875 101c-6.579 0-12.24-1.09-16.983-3.27-4.715-2.2072-8.197-5.2319-10.445-9.0741-2.248-3.8695-2.947-8.3384-2.097-13.4069h20.19c-.274 1.8258-.013 3.4471.782 4.8641.822 1.3898 2.07 2.4797 3.742 3.27 1.7.7902 3.673 1.1853 5.921 1.1853 2.577 0 4.935-.5041 7.073-1.5123 2.166-1.0082 3.948-2.3571 5.346-4.0466s2.262-3.5425 2.591-5.5589c.329-1.962.027-3.6106-.905-4.9458-.932-1.3353-2.358-2.3435-4.277-3.0248-1.891-.6812-4.208-1.0218-6.949-1.0218h-8.595l2.385-14.3879h7.731c2.522 0 4.839-.4632 6.95-1.3897 2.138-.9265 3.906-2.2072 5.305-3.8422 1.398-1.635 2.275-3.5152 2.631-5.6407.275-1.6895.137-3.1609-.411-4.4144-.548-1.2808-1.508-2.2618-2.878-2.943-1.344-.7085-3.098-1.0627-5.264-1.0627-2.303 0-4.523.3951-6.662 1.1853-2.111.7903-3.892 1.9075-5.345 3.3517-1.453 1.4443-2.331 3.1201-2.632 5.0276h-19.327c.849-4.9594 2.933-9.333 6.25-13.1207 3.317-3.815 7.457-6.7988 12.419-8.9515 4.989-2.18 10.417-3.27 16.284-3.27 6.196 0 11.432 1.1581 15.708 3.4743 4.305 2.289 7.443 5.341 9.417 9.1559 2.002 3.7877 2.618 7.9161 1.851 12.385-.795 4.8777-2.961 8.6518-6.497 11.3223-3.537 2.6432-7.937 4.2918-13.2 4.9458v.6131c5.811.7085 10.253 2.9293 13.323 6.6625 3.098 3.706 4.208 8.2294 3.331 13.5704-.74 4.6052-2.81 8.7063-6.21 12.3032-3.399 3.597-7.744 6.4309-13.035 8.5019-5.264 2.0437-11.103 3.0656-17.518 3.0656z" fill="#fff"/></svg>