<svg xmlns="http://www.w3.org/2000/svg" viewBox="0 0 145.984 42.208" fill="currentColor"><path d="M3.547 16.984v16.252h10.172l.561-2.705H6.788v-4.125h6.199l.564-2.928H6.788v-3.793h6.887l.605-2.701zM107.264 26.149c.607.075 1.433.194 1.843.399a3.17 3.17 0 011 .805c.243.297.418.632.524 1.005s.16.749.16 1.13v.229c0 .67-.122 1.244-.365 1.723a3.01 3.01 0 01-1.038 1.164c-.45.297-1.304.535-1.936.673s-1.327.205-2.089.205c-.639 0-1.324-.05-2.054-.147-.731-.1-1.461-.263-2.191-.492l.508-2.228c.715.198 1.362.317 1.94.401s1.157.113 1.735.125c.543.012.892.008 1.253-.032.332-.037.58-.134.762-.255.184-.122.354-.311.407-.499a1.4 1.4 0 00.06-.479c0-.35-.098-.597-.272-.832-.175-.236-.537-.365-1.101-.441l-1.695-.233c-1.188-.151-2.408-.476-2.972-1.038-.563-.563-.845-1.309-.845-2.236v-.229c0-1.201.445-2.104 1.336-2.705s2.521-.982 4.18-.982c.821 0 1.563.061 2.226.183s1.19.259 1.586.411l-.543 2.161a13.074 13.074 0 00-1.586-.305 11.805 11.805 0 00-1.627-.108c-1.05 0-1.728.06-2.101.278-.373.222-.534.431-.534.918 0 .41.135.639.362.813.229.176.594.316 1.171.393l1.896.225zM96.437 21.393c-.87-.221-1.719-.277-2.699-.277-.932 0-2.055.116-2.79.337-.734.22-1.359.559-1.872 1.015-.514.457-.909 1.043-1.185 1.758-.277.715-.415 1.566-.415 2.557v.799c0 1.933.391 3.352 1.173 4.256.782.906 2.231 1.488 3.781 1.488 1.611 0 2.619-.441 3.443-1.234v.519c0 1.263-.214 2.017-.743 2.656s-1.471.918-2.687.864a15.15 15.15 0 01-1.987-.193 14.332 14.332 0 01-1.805-.416l-.531 2.418c.742.258 1.505.445 2.287.559.782.114 1.648.149 2.595.172 1.959.045 3.454-.533 4.489-1.598 1.035-1.066 1.495-2.572 1.495-4.52V22.348c-.71-.38-1.681-.734-2.549-.955m-.563 6.459c0 1.065-.206 1.849-.615 2.351-.411.502-1.066.754-1.964.754-.518 0-.939-.076-1.267-.229a1.73 1.73 0 01-.765-.673 2.897 2.897 0 01-.376-1.085 9.368 9.368 0 01-.104-1.483v-.821c0-1.217.232-2.086.696-2.603s1.198-.776 2.203-.776c.395 0 .791.039 1.187.114.396.076.73.198 1.004.365v4.086z"/><path fill="none" d="M3.547 3.536h138.89v35.135H3.547z"/><path d="M74.496 33.236V21.39h2.892l.182 1.279c.38-.503.871-.888 1.473-1.153.601-.266 1.289-.4 2.065-.4.639 0 1.364.084 1.889.251.525.168.978.423 1.358.765a3.5 3.5 0 01.89 1.29c.214.518.32 1.126.32 1.826v7.988h-3.15V26c0-.958-.175-1.64-.524-2.043-.351-.403-.873-.603-1.695-.603-.897 0-1.563.469-1.962 1.012-.42.572-.479 1.72-.479 2.755v6.114h-3.259zM36.953 24.042a11.43 11.43 0 00-.662-.137 4.669 4.669 0 00-.8-.067c-1.004 0-1.73.262-2.18.786-.449.525-.563 1.095-.563 2.175v6.437h-3.414V21.39h3.049l.183 1.415c.38-.517.853-.909 1.415-1.176.563-.266 1.24-.399 2.031-.399.305 0 .575.019.811.057s.482.103.742.194l-.612 2.561zM27.229 21.39v11.847h-2.891l-.182-1.278c-.38.502-.871.887-1.473 1.152-.601.266-1.29.4-2.065.4-.64 0-1.364-.084-1.89-.252a3.665 3.665 0 01-1.357-.765 3.513 3.513 0 01-.891-1.29c-.213-.517-.319-1.126-.319-1.826V21.39h3.149v7.237c0 .957.176 1.639.525 2.043.35.402.873.602 1.695.602.897 0 1.563-.469 1.962-1.012.42-.572.479-1.721.479-2.754V21.39h3.258zM70.702 16.608c.637 0 1.124.141 1.409.407.285.267.428.678.428 1.165s-.143.898-.428 1.164c-.285.266-.772.391-1.409.391-.635 0-1.14-.125-1.425-.391-.285-.266-.428-.677-.428-1.164 0-.487.143-.898.428-1.165.285-.266.79-.407 1.425-.407m-1.58 4.782h3.215v11.847h-3.215V21.39zM62.567 28.667l1.743-7.277h3.165l-3.493 11.847h-2.888l-2.064-7.164-2.038 7.164h-2.994L50.426 21.39h3.349l1.763 7.353 1.941-6.851h3.15z"/><path fill="none" d="M3.539 3.536h138.898v35.135H3.539z"/><path d="M49.469 24.55a4.471 4.471 0 00-.89-1.803c-.419-.502-.979-.898-1.679-1.187-.699-.289-1.835-.428-2.885-.428s-2.225.178-2.924.467c-.701.289-1.26.685-1.678 1.187a4.568 4.568 0 00-.902 1.803c-.182.7-.329 1.41-.329 2.232v.959c0 .82.132 1.566.308 2.266.175.7.472 1.305.891 1.814.418.511.977.91 1.677 1.199s1.894.467 2.958.467c1.065 0 2.23-.162 2.938-.467.708-.303 1.267-.715 1.678-1.231s.7-1.122.867-1.815c.168-.691.307-1.43.307-2.221v-.959c-.001-.822-.162-1.582-.337-2.283m-2.828 3.413c0 1.233-.193 2.104-.582 2.614-.388.509-1.061.764-2.02.764-.473 0-.875-.053-1.21-.16a1.754 1.754 0 01-.833-.547c-.222-.259-.381-.604-.479-1.039-.1-.434-.148-.978-.148-1.632V26.64c0-1.217.201-2.082.604-2.592.403-.509 1.092-.764 2.066-.764.974 0 1.65.255 2.03.764.382.51.571 1.375.571 2.592v1.323z"/><path d="M122.103 3.589c-2.582-.353-3.893 1.084-5.701 2.405l-6.181 4.854-.002.001 1.19.629.008.005c1.548.761 3.701.501 5.167-.585l2.61-2.074.998-.794 4.974-3.952-3.063-.489z"/><path fill="none" d="M3.547 3.536h138.89v35.135H3.547z"/><path d="M110.221 10.848l1.188.631.008.004c1.548.762 3.702.502 5.168-.585l2.609-2.073.999-.794-9.972 2.817z"/><path d="M132.658 6.587l-3.318-.597s-2.31-.549-4.24.946c0 0-1.425 1.06-2.476 1.88l-2.337 1.851-5.406 4.3-.045.036 1.632.863c1.549.765 3.707.506 5.175-.582l4.834-3.829 3.898-3.07 2.283-1.798z"/><path d="M122.625 8.816c1.049-.82 2.474-1.88 2.474-1.88a4.8 4.8 0 011.118-.646l-6.023 1.741-.999.793-2.608 2.074c-1.466 1.087-3.62 1.347-5.168.585 1.32.791 3.37.973 6.458.052l2.109-.628.303-.24 2.336-1.851zM131.121 10.66c.995-.779 1.746-1.343 2.493-1.678l-6.742 2.162-.396.312-4.834 3.828c-1.468 1.088-3.626 1.348-5.175.582 2.38 1.307 6.045.346 9.127-.75l.184-.149c-.001 0 5.159-4.174 5.343-4.307M139.049 15.003c-2.706-.786-3.518-.289-6.706.67h-.001l-.266.221v-.001l-.003.003.003-.002-.008.005-5.138 4.074c-1.464 1.085-3.752 1.294-5.3.536 1.91.996 3.885.752 7.264-.302l13.542-4.157-3.387-1.047z"/><path d="M139.947 9.385l-3.582-.652c-2.146-.398-3.161.296-5.245 1.927-.184.134-5.343 4.307-5.343 4.307l-5.792 4.673 1.631.863c1.55.766 3.848.558 5.315-.53l5.138-4.074.007-.005-.003.002 7.874-6.511z"/><path d="M119.985 10.907l11.455-3.362-4.569 3.599-12.036 3.859zM125.593 15.115l12.474-4.175-5.724 4.733-12.357 3.967z"/></svg>
