<svg xmlns="http://www.w3.org/2000/svg" viewBox="0 0 640.001 134.115"><path d="M349.92 13.927c5.188-8.984 15.636-13.72 25.758-13.81 9.237-.597 19.685.94 26.156 8.243-3.29 4.338-6.435 8.767-9.725 13.105-3.67-4.212-6.688-10.141-12.617-11.334-5.839-1.808-13.177 1.229-14.696 7.483-2.458 9.924-.976 20.3-1.338 30.422h18.962v11.298h-18.98c0 17.028 0 34.055-.018 51.083-.072 4.827.705 9.599 1.61 14.334 4.337 2.007 9.02 3.037 13.81 3.127-.019 1.175-.037 3.543-.055 4.736-15.509-1.012-31.037-1.32-46.528-.018 0-.994.036-2.982.036-3.976 4.899-.868 10.972-3.146 11.171-9.038 1.898-20.01.615-40.165.994-60.247-3.778 0-7.556 0-11.334-.019.018-1.699.054-3.416.073-5.115 3.832-1.772 7.573-3.742 11.26-5.766 0-11.605-.686-24.15 5.46-34.507zM629.5.099c-10.032 2.314-20.19 4.265-30.494 4.717-.108.94-.308 2.82-.398 3.76 3.832 1.156 10.087.85 10.358 6.201 1.536 10.846.452 21.852.759 32.77-14.768-2.53-31.272-2.368-43.834 6.833-13.756 9.634-18.474 27.603-17.1 43.619.777 12.418 6.995 25.162 18.256 31.217 13.412 7.375 30.567 5.857 43.13-2.64.09 2.514.144 5.026.162 7.538 9.725-2.476 19.668-3.868 29.664-4.446v-4.34c-14.167-2.412-10.25-8.969-11.244-20.117.019-35.03-.524-70.08.741-105.11zm-36.752 56.492c5.982-.063 12.066 1.848 16.977 5.183.018 18.853-.036 37.706.036 56.559-10.52 4.826-24.746 4.482-32.99-4.447-7.067-7.556-8.26-18.618-7.627-28.488.705-8.984 2.586-19.251 10.43-24.82 3.931-2.696 8.522-3.939 13.174-3.988zM33.206 11.613c11.912-.723 23.86.054 35.646 1.717-.705 8.387-.633 16.83.018 25.216-1.139 0-3.416.018-4.555.018-.904-5.242-1.844-11.605-7.43-13.937-8.278-3.488-17.967-3.832-26.553-1.337-11.225 3.326-13.07 19.847-4.718 27.06C36.062 59.496 48.86 65.48 59.56 74.355c16.756 13.34 14.569 44.395-5.315 53.74-16.738 7.736-36.387 5.784-53.668.922.108-8.31-.199-16.62-.579-24.92 1.248-.019 3.76-.073 5.026-.09.885 5.223 1.699 11.64 6.995 14.333 9.472 5.315 21.69 5.748 31.525 1.175 12.274-6.778 10.014-26.373-1.464-32.97-9.96-7.67-21.402-13.34-30.603-22C1.283 55.071.018 38.477 6.58 26.637c5.368-9.436 16.196-14.153 26.626-15.02zM103.9 29.382c.94.054 2.838.145 3.778.199-.018 6.308-.018 12.599-.018 18.908h28.922v10.846H107.66c.108 15.184-.235 30.386.162 45.588.398 5.784.56 12.997 5.966 16.54 6.814 4.049 14.967 1.518 21.782-1.139 2.096 5.134-3.236 8.008-6.942 10.141-8.694 4.212-19.305 4.664-28.289 1.157-7.682-2.874-11.388-11.28-11.786-18.98-.921-17.751 0-35.537.145-53.306H77.4l-.054-3.543C89.62 51.166 97.898 40.591 103.9 29.384zM181.3 45.621c-13.032-.134-26.175 6.34-30.362 19.425 1.139.65 3.453 1.934 4.61 2.584 5.006-8.839 16.701-13.376 25.92-8.278 7.23 3.29 7.846 12.128 7.701 19.052-11.37 3.652-23.138 6.526-33.875 11.877-12.87 6.797-14.533 26.065-5.314 36.495 10.864 9.96 28.994 8.35 39.73-1.067 3.273 6.471 11.009 8.948 17.75 7.05 5.876-1.139 9.762-6.037 13.612-10.177-.669-.76-2.024-2.296-2.692-3.073-2.423.614-5.153 2.53-7.52.668-3.074-2.114-2.695-6.362-2.912-9.634.217-14.027.995-28.089.254-42.134-.362-7.267-3.615-14.697-10.05-18.511-5.028-2.79-10.928-4.216-16.852-4.277zm7.669 43.737c.072 9.454 0 18.907.073 28.361-6.055 2.693-13.25 5.188-19.63 2.097-7.81-4.158-7.484-16.593-1.03-21.817 6.2-4.266 13.556-6.273 20.588-8.64z"/><path d="M430.43 45.976c-9.526.108-19.36 2.477-26.808 8.677-11.081 8.965-15.888 23.788-15.4 37.706-.054 11.912 3.651 24.62 13.033 32.538 11.081 9.652 27.186 10.61 40.978 7.735 14.551-3.199 25.487-15.943 28.578-30.223 3.326-14.822 1.934-32.048-8.26-44.014-7.846-9.182-20.408-12.654-32.12-12.419zm.127 10.117c5.119.1 10.185 2.202 13.466 6.278 5.947 7.285 7.538 17.082 7.971 26.228.073 9.96-1.193 20.714-7.465 28.848-6.164 7.972-19.45 8.858-26.553 1.681-5.441-5.043-7.466-12.544-8.695-19.594-1.284-9.363-.958-19.107 1.989-28.127 2.06-6.037 6.073-12.147 12.436-14.208a19.221 19.221 0 0 1 6.851-1.107zM227.87 51.724c10.105-.163 20.354-1.211 29.681-5.387.325 2.404.578 4.809.777 7.249 10.72-7.014 24.565-9.743 36.84-5.405 8.784 2.947 14.93 11.551 15.707 20.661 1.808 17.335-.813 34.905 1.5 52.204.254 5.441 6.11 6.67 10.359 7.556.018 1.012.018 3.037.036 4.049-14.352-1.139-43.093-.054-43.093-.054l-.055-4.099s10.367-2.915 11.026-5.897c2.368-12.87 1.808-26.174 1.681-39.243-.47-7.81-.27-17.57-7.736-22.324-8.008-4.61-17.823-2.477-26.011.506.054 16.919 0 33.856 0 50.776.235 4.519-.09 9.67 2.856 13.43 2.476 1.717 5.585 2.024 8.423 2.82.018 1.012.036 3.054.036 4.085-14.154-.922-28.343-1.519-42.479-.018 0-1.013.037-3.019.037-4.013 4.302-.994 9.978-2.35 10.79-7.556 1.971-12.472.453-25.216.923-37.797-.181-7.176.614-14.443-.651-21.529-.994-4.844-6.905-4.573-10.63-5.531 0-1.121-.017-3.362-.017-4.483zM480.46 51.344c10.123-.145 20.245-1.518 29.862-4.754l.271 7.447c9.725-7.827 24.385-9.815 34.742-2.06l-10.8 16.484c-5.043-7.773-15.274-9.653-23.354-5.694 0 0-.054 34.218.054 51.318.416 3.814-.18 8.767 3.399 11.26 3.452 2.025 7.646 1.917 11.496 2.531 0 1.175-.018 3.561-.018 4.736-15.527-1.048-31.091-1.265-46.618-.036l-.003-4.7c5.005-.853 10.216-2.585 10.975-5.567 2.15-7.357 1.102-15.148 1.32-22.722-.218-12.057.433-24.132-.29-36.17-.054-5.857-6.688-6.381-10.99-7.23.007-1.66-.03-3.366-.036-4.845z"/></svg>