<svg height="100%" viewBox="0 0 343 126"><path d="M51.063 44.385c7.963 0 13.27 1.47 15.922 4.409 2.651 2.94 3.285 7.984 1.9 15.135-1.45 7.447-4.241 12.762-8.375 15.946-4.134 3.184-10.428 4.776-18.883 4.776H28.879l7.825-40.265 14.359-.001zM0 125.41h20.955l4.972-25.578h17.951c7.92 0 14.438-.833 19.552-2.5a37.03 37.03 0 0013.949-8.37A41.81 41.81 0 0090.54 65.395c2.217-11.404.545-20.287-5.016-26.65-5.56-6.363-14.403-9.544-26.527-9.545h-40.3l-18.7 96.206.003.004zM105.934 3.626h20.792l-4.97 25.578h18.523c11.655 0 19.695 2.033 24.119 6.1 4.424 4.067 5.751 10.654 3.982 19.762l-8.7 44.769h-21.125l8.271-42.568c.941-4.841.595-8.143-1.039-9.906s-5.111-2.644-10.432-2.645h-16.616l-10.711 55.116H87.235l18.7-96.206M214.642 44.385c7.962 0 13.27 1.47 15.922 4.409 2.653 2.94 3.286 7.984 1.9 15.135-1.449 7.447-4.24 12.762-8.375 15.946-4.135 3.184-10.429 4.776-18.883 4.776h-12.751l7.825-40.265m-36.701 81.024h20.958l4.971-25.578h17.947c7.92 0 14.438-.833 19.553-2.5a37.038 37.038 0 0013.949-8.37 41.8 41.8 0 0013.16-23.567c2.218-11.404.546-20.287-5.015-26.65-5.561-6.363-14.404-9.544-26.527-9.545h-40.3l-18.7 96.206M333.909 9.387l-7.135-7.789 5.1 9.253c.063.115 6.257 11.683-1.563 25.209a57.506 57.506 0 01-13.112 12.621l-.231-.557c-5.654-13.605-10.537-25.358-5.765-33.571 1.773-2.492 3.8-3.755 6.022-3.755 4.474 0 8.559 4.894 8.6 4.944l5.7 6.919-3.57-8.225C327.699 13.846 321.57 0 310.57 0c-3.848 0-7.787 1.731-11.71 5.145l-.125.127c-9.51 10.993-.159 31.75 8.091 50.063l.02.044a171.262 171.262 0 01-22.75 10.926c-15.941 7.1-25.877 18.146-27.261 30.314-1.051 9.23 3.168 18.153 11.572 24.481l.11.074a32.607 32.607 0 0016.987 4.779c15.74 0 28.016-10.892 28.532-11.357l7.654-6.892-9.094 4.838c-.076.04-7.65 4.02-15.568 4.02-7.059 0-12.141-3.149-15.1-9.361-3.783-13.449 9.477-22.628 24.826-33.249a605.826 605.826 0 006.215-4.341c2.836 7.27 5.561 16.009 3.859 22.373-2.648 9.976-11.5 16.849-11.592 16.917l-5.736 4.393 6.887-2.184c.651-.206 16.006-5.213 19.685-18.519 2.3-10.89-.6-21.788-3.531-30.232 7.548-6.223 17.414-15.9 19.717-29.482 1.783-12.267-7.935-23.037-8.349-23.49z"/></svg>
