<svg viewBox="0 0 768 768" xmlns="http://www.w3.org/2000/svg"><path stroke="currentColor" fill-opacity=".7" stroke-width="8.227" d="M383.957 750.13c-202.24 0-366.174-163.934-366.174-366.173 0-202.24 163.934-366.174 366.174-366.174 202.226 0 366.16 163.934 366.16 366.174 0 202.24-163.934 366.174-366.16 366.174Zm-.105-16.452c193.36 0 350.091-156.748 350.091-350.108 0-193.346-156.732-350.093-350.091-350.093-193.36 0-350.108 156.747-350.108 350.093 0 193.36 156.748 350.108 350.108 350.108Z"/><path d="M383.67 47.67c-185.546 0-335.666 150.467-335.666 336 0 185.56 150.12 335.667 335.667 335.667 185.546 0 336-150.106 336-335.666 0-185.534-150.454-336-336-336Zm23 21.667 25.667 4 7.667 23c1.333 4.107 2.253 8.28 2.667 12.334l.333.333c1.453-3.293 5.32-9.24 7-11.667l13.667-19 24.666 4-38 46.667-4.666 30.333-22.667-3.666 5-30.334-21.333-56Zm-44 2 38.334 78.667-24 2.667-6.667-16.334-30.666 3.667-3.667 17.333-22.333 2.667 20.333-85.333 28.667-3.334Zm-13.333 18.334c-.28 4.613-1.253 10.08-2 13.666l-4 20 20-2.333-8.666-18.667c-2.187-4.76-3.84-9.613-4.667-12.666h-.667Zm159.334 1.666 51 26.667-8 15-31.334-16.333-7 13.666 29.334 15.334-8 15-29.334-15.334-7.666 14.334 32.333 17-7.667 15-52-27.334 38.334-73Zm-251 5.334c6.858-.879 14.293.98 19.333 10 7.547 13.466-.867 21.066-4 24l.333.666c6.427-2.546 17.467-4.48 25 9 10.84 19.36-9.84 31.134-17.333 35.334l-29.667 16.666-40.333-72.333 30.333-17c3.14-1.76 9.475-5.455 16.334-6.333Zm-3.334 19c-.724-.033-1.493.08-2.333.333-1.12.337-2.3.903-3.667 1.667l-10.666 6 8 14 10.333-6c4.973-2.774 6.707-6.454 4-11.334-1.755-3.135-3.493-4.57-5.667-4.666Zm340.667 27.666 25.667 28c4.24 4.6 18.906 20.12 1.666 36-7.613 7.014-16.253 9.76-26 5.334l-14.333 38.333-17-18.667 14-31.333-6-6.333-23.333 21.333-15.334-16.667 60.667-56Zm-323 .334c-2.228-.3-4.727.353-7.667 2l-10.666 6 8.666 15.666 11.667-6.333c5.067-2.84 6.667-7.907 4-12.667-1.733-3.086-3.772-4.366-6-4.666Zm326.333 27-13.333 12.333 8 8.667c1.96 2.146 6.733 7.36 13.667 1 3.493-3.24 4.693-7.867-.334-13.334l-8-8.666Zm-214.666 2.666c116.04 0 210.333 94.294 210.333 210.334 0 116.053-94.293 210-210.333 210-116.04 0-210-93.947-210-210 0-116.04 93.96-210.334 210-210.334Zm-232 6.334c5.082-.386 9.935.693 14 2.333l-7.667 19.667c-3.893-1.654-11.88-4.294-17.333 4.333-3.28 5.2-4.92 15.813 13.333 27.333 11.493 7.254 24.387 12 31.333 1 4.96-7.853-.32-14.626-4-19l15-15c11.987 12.787 13.92 26.294 4 42-11.226 17.774-31.346 28.374-58.333 11.334-27-17.054-25.133-41.08-14.667-57.667 7.084-11.225 15.863-15.69 24.334-16.333Zm514.666 57.333 8.667 27-32 31.667c-3.973 3.96-9.093 8.453-14.667 12.333l.334 1c3.427-1.84 9.04-3.96 16.333-6.333l38.333-12.667 6.667 20.333-78.667 25.334-9-27 33.667-33.334c4.893-4.866 10.72-9.333 13.333-10.666l-.333-.667c-4.027 1.533-7.36 3.173-12 4.667l-43 13.666-6.333-20 78.666-25.333ZM97.004 255.671l16 6-11.667 32.666 16.334 6 11.333-32 16 5.667-11.333 32 29.333 10.667-7.667 21.333-77.666-28 19.333-54.333Zm61.333 194.333 16 30.333-31.333 30.334c-1.733 1.693-6.533 5.56-10.333 8.333l.333.667c3.76-1.32 10.96-3.094 14.333-3.667l41.667-7.333 15.333 29.666-73.333 38-10-19.333 42-22c5.453-2.853 13.893-6.573 17-7.667l-.667-1.333c-3.146.987-13.213 3.24-19.333 4.333l-48.333 9-7.667-14.666 38.333-38c3.72-3.64 8.974-7.987 11.334-10l-.667-1c-2.68 1.64-12.027 7.226-18 10.333l-40 21-10-18.667 73.333-38.333Zm454.667.667 72.667 39.666-13.667 25-47-1.333c-6.893-.173-14.227-1.333-17-2.333l-.333.666c3.88 1.827 7.386 3.014 11.666 5.334l39.667 21.666-10 18.667-72.667-39.333 13.667-25 45 1.333c5.6.133 12.347.64 19 2l.333-1c-3.706-1.213-8.92-3.693-15.666-7.333l-35.667-19.334 10-18.666Zm-46.333 81 11.333 12.333-25.667 24 10.334 11 24.333-22.333 11.333 12.333-24 22.667 11 12 26.667-24.667 11.667 12.333-43 40-56.334-60.666 42.334-39Zm-353 16.333 18 13.667-32 41.333c-5.334 6.867-6.84 14.147.666 20 8.08 6.267 14.867 2.587 20-4l32-41 17.334 13.333-32 41c-12.68 16.334-29.787 17.894-47.667 4-15.027-11.68-23.026-28-8-47.333l31.667-41Zm23 17.333 11.333 9-20.333 14 9-23Zm273.333 13 39 72.667-20 11-16.667-30.667-24 12.667 16.334 30.667-20 10.666-39-72.666 20-10.667 14.666 27 24-12.667-14.333-27.333 20-10.667Zm-224 20 27 8.334 7.333 44.666c.947 5.534 1.734 12.2 1.667 19l1 .334c.48-3.867 2.053-9.694 4.333-17l12-38.667 20 6.333-24.666 78.667-27-8.333-8-46.667c-1.147-6.8-1.094-14.08-.667-17l-1-.333c-1.067 4.173-1.547 8.026-3 12.666l-13.667 43-20-6.333 24.667-78.667Zm123 16.667c16.219-.962 25.917 8.62 30 18l-19.333 8.667c-1.64-3.907-5.387-11.334-15.334-9-5.973 1.413-14.266 7.653-9.333 28.666 3.12 13.214 8.68 25.654 21.333 22.667 9.04-2.107 9.88-10.627 10.334-16.333h21.333c-.413 17.493-8.253 28.426-26.333 32.666-20.454 4.814-42.694-1.626-50-32.666-7.307-31.08 10.906-47.174 30-51.667 2.583-.608 5.016-.862 7.333-1Z"/><path fill-opacity=".7" d="M383.337 189.67c-75.853 0-141.533 43.494-173.333 107l29 49.667 7.667-90.333 43 73.667 7.333-90 43.333 73.666 7.667-90 43 73.667 7.667-90.333 43 74 6.666-80c-20.306-7.214-42.213-11-65-11Zm58.334 91-7.667 90.334 43 73.333 7.333-90-42.666-73.666Zm-7.667 90.334-43-73.667-7.667 90-43-73.666-7.666 90-43-73.334-7.667 90 43 73.667 7.333-90.333 43.334 74 7.666-90 43 73.333 7.667-90Zm-58.333 106.667-7.667 90.333-43-73.667-6 71.667c20.16 7.093 41.747 11 64.333 11 74.134 0 138.454-41.507 171-102.667l-26.666-46.333-7.667 90.333-43-73.666-7.667 90.333-43-73.667-7.666 90.334-43-74Zm152-49.667 7.333-90.333-42.667-73.334-7.666 90 43 73.667Zm-245.667-7.667-43-73.666-7.333 90.333 42.666 73.333 7.667-90Zm175.333-216 35 59.667 3-38.667a192.255 192.255 0 0 0-38-21Zm83.667 66.334-5.667 67.333 40.334 69c.946-7.773 1.333-15.653 1.333-23.667 0-41.986-13.307-80.933-36-112.666Zm-350.667 95.666c-.48 5.56-.666 11.307-.666 17 0 42.267 13.68 81.494 36.666 113.334l5-60-41-70.334Zm84 144.334-2.666 31c9.706 6.853 20.093 12.653 31 17.666l-28.334-48.666Z"/></svg>