<svg xmlns="http://www.w3.org/2000/svg" xmlns:xlink="http://www.w3.org/1999/xlink" viewBox="0 0 130.108 131.126">
      <path id="Pfad_117" data-name="Pfad 117" d="M0,333.913H6.483c.51,6.921,4.007,11.583,10.418,11.583,4.881,0,7.722-2.7,7.722-6.338,0-4.226-3.715-5.9-10.782-9.107-6.265-2.769-11.729-5.391-11.729-11.729,0-6.047,5.464-9.69,13.186-9.69s13.623,3.789,15.08,10.345H23.895c-.655-5.245-3.351-9.107-8.888-9.107-4.226,0-6.848,2.259-6.848,5.537,0,4.153,3.861,6.193,10.053,8.888,6.7,2.914,12.6,5.755,12.6,12.239,0,6.557-6.047,10.2-13.988,10.2-9.543,0-15.808-5.172-16.828-12.822" transform="translate(0 -241.576)" fill="currentColor"/>
      <path id="Pfad_118" data-name="Pfad 118" d="M158.252,327.648c0-11.583,7.723-19.014,18.723-19.014s18.723,7.431,18.723,19.014-7.722,19.087-18.723,19.087-18.723-7.5-18.723-19.087m18.8,17.921c7.139,0,10.927-6.921,10.927-17.921,0-11.073-3.788-17.849-10.927-17.849-7.358,0-11.073,6.775-11.073,17.849,0,11,3.715,17.921,11.073,17.921" transform="translate(-123.868 -241.576)" fill="currentColor"/>
      <path id="Pfad_119" data-name="Pfad 119" d="M437.209,327.939c0-11.947,8.159-19.306,18.213-19.306s16.173,6.557,16.464,15.153h-27.1a18.441,18.441,0,0,0-.073,2.04c0,9.471,3.715,17.266,12.895,17.266,7.285,0,11.583-4.662,13.7-12.166h1.02c-2.04,9.689-7.8,15.808-17.485,15.808-10.49,0-17.63-7.285-17.63-18.8m27.465-5.61c-.146-6.994-3.206-12.458-9.325-12.458-5.9,0-9.543,5.027-10.418,12.458Z" transform="translate(-342.216 -241.576)" fill="currentColor"/>
      <path id="Pfad_120" data-name="Pfad 120" d="M353.835,318.221V287.693c0-.506,0-.982,0-1.434a19.921,19.921,0,0,1-5.867,1.885,15.121,15.121,0,0,1-1.568.156v29.922c0,6.629-.729,8.523-5.755,9.252v.51H359.3v-.51c-4.808-.729-5.464-2.623-5.464-9.252" transform="translate(-266.635 -224.063)" fill="currentColor"/>
      <path id="Pfad_121" data-name="Pfad 121" d="M201.693,106.316a70.481,70.481,0,0,0-7.87-4.454c-2.228-1.095-3.775-1.733-3.775-1.733a.5.5,0,0,0-.6.2c-.544.928-1.314,2.264-2.33,3.692a23.824,23.824,0,0,1-3.24,3.739l-.036-.132c-.143-.551-.324-1.351-.493-2.328a34.6,34.6,0,0,1-.566-7.1.535.535,0,0,0-.318-.467c-4.535-1.953-11.94-2.469-13.892-2.576a.576.576,0,0,0-.561.265.709.709,0,0,0-.1.32,71.968,71.968,0,0,1-3.811,18.9,71.961,71.961,0,0,1-3.818-18.89.558.558,0,0,0-.664-.6c-5.933.373-10.6,1.165-13.89,2.556a.538.538,0,0,0-.318.47,34.8,34.8,0,0,1-.563,7.119c-.171.975-.35,1.778-.5,2.328l-.034.13a23.722,23.722,0,0,1-3.241-3.737c-1.016-1.43-1.784-2.766-2.328-3.694a.5.5,0,0,0-.6-.2s-1.547.638-3.777,1.731a71.27,71.27,0,0,0-7.87,4.456.539.539,0,0,0-.2.508c2.834,12.625,9.505,27.373,22.986,29.5,5.787.916,11.141-1.65,14.836-5.024,3.692,3.374,9.005,5.941,14.793,5.028,13.481-2.13,20.153-16.876,22.988-29.5a.544.544,0,0,0-.2-.508m-3.584,1.341a45.6,45.6,0,0,1-3.786,12.17c-3.922,8.173-9.759,12.783-16.88,13.333-.318.025-.634.036-.95.036-6.788,0-12.612-5.724-16.891-16.628a88.349,88.349,0,0,1-4.475-16.519l-4.71,1.071c-1.594,10.015-3.274,12.828-3.346,12.945l-.3.48-.533-.181c-3.892-1.329-8.688-6.855-10.087-8.545l-4.044,2.446a32.377,32.377,0,0,0,1.18,4.648l.028.088c1,3.024,6.509,18.152,16.908,18.916,6.007.438,10.512-4.362,10.557-4.411a.707.707,0,0,1,1.041.956c-.192.209-4.571,4.9-10.8,4.9-.3,0-.6-.011-.907-.034-5.006-.367-9.505-3.628-13.367-9.693a47.281,47.281,0,0,1-4.778-10.188l-.028-.083a34.1,34.1,0,0,1-1.313-5.339l-.077-.471,5.922-3.581.388.489c.053.066,5.2,6.524,9.251,8.34.525-1.206,1.782-4.678,2.975-12.369l.075-.474,7.13-1.624.107.76c.049.339,5.015,33.894,20.928,32.661,6.675-.516,11.957-4.723,15.7-12.505a45.412,45.412,0,0,0,3.6-11.332l-4.772-2.941a22.462,22.462,0,0,1-9.622,9.656l-.427.216-.358-.316a7.2,7.2,0,0,1-1.609-2.926,34.133,34.133,0,0,1-1.447-10.659l-5.762-1.628a52.257,52.257,0,0,1-5.689,20.149.707.707,0,0,1-1.259-.642,50.179,50.179,0,0,0,5.565-20.431v-.935l8.557,2.416v.536c0,8.35,1.626,11.673,2.3,12.693a21.32,21.32,0,0,0,8.794-9.415l.318-.764,6.946,4.277Zm-39.626,16.835c-3.073,3.491-5.792,4.035-8.278,3.606-5.454-.879-9.582-8.235-11.739-14.4.51.446,1.146.973,1.891,1.534a26.461,26.461,0,0,0,8.124,4.266.507.507,0,0,0,.568-.246,34.738,34.738,0,0,0,3.212-9.808c1.428,5.472,3.752,11.472,6.223,15.047m11.227,0c2.469-3.574,4.8-9.573,6.223-15.045a34.732,34.732,0,0,0,3.21,9.808.513.513,0,0,0,.57.245,26.407,26.407,0,0,0,8.122-4.268c.745-.559,1.383-1.089,1.891-1.532-2.155,6.165-6.282,13.521-11.739,14.4-2.486.429-5.2-.115-8.276-3.609" transform="translate(-98.849 -74.478)" fill="currentColor"/>
      <path id="Pfad_122" data-name="Pfad 122" d="M261.878,15.736a.706.706,0,0,1-.706-.706v-8.1a1.493,1.493,0,0,1,.561-1.169L268.515.329a1.493,1.493,0,0,1,1.839-.023l6.934,5.267a1.5,1.5,0,0,1,.591,1.193v8.146a.706.706,0,1,1-1.413,0V6.765a.082.082,0,0,0-.034-.066L269.5,1.43a.083.083,0,0,0-.1,0l-6.782,5.433a.089.089,0,0,0-.032.066v8.1a.706.706,0,0,1-.706.706" transform="translate(-204.427 0)" fill="currentColor"/>
      <path id="Pfad_123" data-name="Pfad 123" d="M289.243,43.735a.706.706,0,0,1-.706-.706V39.21l-2.187-1.654L284.3,39.251v3.777a.706.706,0,0,1-1.413,0V38.984a.846.846,0,0,1,.307-.655l2.588-2.145a.854.854,0,0,1,1.061-.023l2.764,2.091a.851.851,0,0,1,.337.676v4.1a.706.706,0,0,1-.706.706" transform="translate(-221.427 -28.168)" fill="currentColor"/>
      <path id="Pfad_124" data-name="Pfad 124" d="M250.144,34.722a.845.845,0,0,0-.38-.706.857.857,0,0,0-.811-.075l-6.191,2.606a.849.849,0,0,0-.518.783v4.129a.706.706,0,1,0,1.413,0V37.705l5.075-2.136V46.115c-3.233-1.323-10.13-2.546-17.642-2.552-7.552.006-14.477,1.236-17.7,2.561V35.464l4.987,2.066v4.2a.706.706,0,1,0,1.413,0V37.283a1.041,1.041,0,0,0-.649-.964L213.45,33.96a1.079,1.079,0,0,0-1.012.1,1.046,1.046,0,0,0-.465.866V47.033a.691.691,0,0,0,.045.241.7.7,0,0,0,1.063.563c1.951-1.15,9.025-2.853,18.009-2.86,8.566,0,15.939,1.665,17.969,2.86a.707.707,0,0,0,.969-.25.721.721,0,0,0,.094-.324.769.769,0,0,0,.023-.175Z" transform="translate(-165.917 -26.513)" fill="currentColor"/>
      <path id="Pfad_125" data-name="Pfad 125" d="M84.1,537.182v-5.317h1.865c1.443,0,2.186.54,2.186,1.451,0,.8-.523,1.351-1.544,1.469v.017c1.148.1,1.823.726,1.823,1.679,0,1.08-.844,1.773-2.49,1.773H84.1Zm1.7-2.625c1.055,0,1.646-.439,1.646-1.156,0-.65-.506-1-1.511-1H84.814v2.152Zm.152,3.156c1.173,0,1.747-.456,1.747-1.283s-.6-1.351-1.873-1.351H84.814v2.633Z" transform="translate(-65.825 -416.306)" fill="currentColor"/>
      <path id="Pfad_126" data-name="Pfad 126" d="M114.936,534.7a3.338,3.338,0,1,1,3.334,3.325,3.155,3.155,0,0,1-3.334-3.325m3.334,2.734a2.726,2.726,0,1,0-2.574-2.726,2.528,2.528,0,0,0,2.574,2.726" transform="translate(-89.964 -415.94)" fill="currentColor"/>
      <path id="Pfad_127" data-name="Pfad 127" d="M158.206,535.689v-3.823h.743v3.857c0,1.494.515,2.085,1.612,2.085,1.114,0,1.62-.625,1.62-2.085v-3.857h.734v3.823c0,1.924-.861,2.709-2.354,2.709-1.443,0-2.355-.718-2.355-2.709" transform="translate(-123.832 -416.306)" fill="currentColor"/>
      <path id="Pfad_128" data-name="Pfad 128" d="M191.374,531.865h4.591v.549c-.785-.017-1.384-.017-1.84-.017h-.093v5.857H193.3V532.4h-.076c-.447,0-1.064,0-1.849.017Z" transform="translate(-149.794 -416.306)" fill="currentColor"/>
      <path id="Pfad_129" data-name="Pfad 129" d="M224.389,537.182v-5.317h.743v6.389h-.743Z" transform="translate(-175.636 -416.305)" fill="currentColor"/>
      <path id="Pfad_130" data-name="Pfad 130" d="M240.7,534.7a3.338,3.338,0,0,1,6.676.008,3.2,3.2,0,0,1-1.359,2.751l1.114,1.443v.1h-.709l-.954-1.249a3.685,3.685,0,0,1-1.435.27A3.174,3.174,0,0,1,240.7,534.7m3.334,2.734a2.789,2.789,0,0,0,1.047-.194l-1.721-2.27h.742l1.511,1.967a2.715,2.715,0,0,0,1-2.237,2.582,2.582,0,1,0-2.583,2.734" transform="translate(-188.403 -415.94)" fill="currentColor"/>
      <path id="Pfad_131" data-name="Pfad 131" d="M283.97,535.689v-3.823h.743v3.857c0,1.494.515,2.085,1.612,2.085,1.114,0,1.62-.625,1.62-2.085v-3.857h.734v3.823c0,1.924-.861,2.709-2.354,2.709-1.443,0-2.355-.718-2.355-2.709" transform="translate(-222.271 -416.306)" fill="currentColor"/>
      <path id="Pfad_132" data-name="Pfad 132" d="M320.015,537.182v-5.317h3.6v.549c-.743-.009-1.359-.009-1.721-.009h-1.139v2.237h.734c.489,0,1,0,1.7-.008v.549c-.709-.008-1.215-.008-1.7-.008h-.734v2.54h1.181c.363,0,1.03,0,1.739-.017v.557h-3.663Z" transform="translate(-250.485 -416.306)" fill="currentColor"/>
      <path id="Pfad_133" data-name="Pfad 133" d="M367.593,537.182v-5.317h.743v2.819h3.241v-2.819h.743v6.389h-.743V535.24h-3.241v3.013h-.743Z" transform="translate(-287.725 -416.305)" fill="currentColor"/>
      <path id="Pfad_134" data-name="Pfad 134" d="M402.238,534.7a3.338,3.338,0,1,1,3.334,3.325,3.155,3.155,0,0,1-3.334-3.325m3.334,2.734A2.726,2.726,0,1,0,403,534.706a2.528,2.528,0,0,0,2.574,2.726" transform="translate(-314.843 -415.94)" fill="currentColor"/>
      <path id="Pfad_135" data-name="Pfad 135" d="M441.078,531.865h4.591v.549c-.785-.017-1.384-.017-1.84-.017h-.093v5.857H443V532.4h-.076c-.447,0-1.064,0-1.849.017Z" transform="translate(-345.244 -416.306)" fill="currentColor"/>
      <path id="Pfad_136" data-name="Pfad 136" d="M474.094,537.182v-5.317h3.6v.549c-.743-.009-1.359-.009-1.721-.009h-1.139v2.237h.734c.489,0,1,0,1.7-.008v.549c-.709-.008-1.215-.008-1.7-.008h-.734v2.54h1.181c.363,0,1.03,0,1.739-.017v.557h-3.663Z" transform="translate(-371.087 -416.306)" fill="currentColor"/>
      <path id="Pfad_137" data-name="Pfad 137" d="M503.3,537.182v-5.317h.743v5.823h1.122c.405,0,1.122,0,1.865-.017v.582H503.3Z" transform="translate(-393.949 -416.306)" fill="currentColor"/>
    </g>
  </g>
  <g id="Gruppe_88" data-name="Gruppe 88" transform="translate(35.898 126.509)">
    <g id="Gruppe_87" data-name="Gruppe 87" clip-path="url(#clip-path-2)">
      <path id="Pfad_138" data-name="Pfad 138" d="M165.221,582.862a.209.209,0,0,1,.211-.211h1.173a1.44,1.44,0,0,1,1.038.371,1.2,1.2,0,0,1,.312.776,1.156,1.156,0,0,1-.312.785.847.847,0,0,1-.127.11,1.429,1.429,0,0,1,.473.3,1.233,1.233,0,0,1,.025,1.739,1.719,1.719,0,0,1-1.275.43h-1.308a.209.209,0,0,1-.211-.211Zm2.312.937a.7.7,0,0,0-.194-.472,1,1,0,0,0-.734-.253h-.962v1.477h1.038a1.058,1.058,0,0,0,.658-.27.675.675,0,0,0,.194-.481m-1.89,2.946h1.1a1.267,1.267,0,0,0,.971-.312.766.766,0,0,0,.228-.548.8.8,0,0,0-.253-.583,1.327,1.327,0,0,0-.92-.329h-1.122Z" transform="translate(-165.221 -582.567)" fill="currentColor"/>
      <path id="Pfad_139" data-name="Pfad 139" d="M188.525,585.568c-.38-.5-1.376-1.983-1.722-2.565a.234.234,0,0,1-.025-.11.2.2,0,0,1,.2-.2.209.209,0,0,1,.178.093c.321.523,1.148,1.764,1.587,2.371.464-.658,1.232-1.857,1.536-2.371a.2.2,0,0,1,.177-.093.191.191,0,0,1,.2.2.26.26,0,0,1-.025.11c-.338.566-1.258,1.983-1.688,2.583v1.4a.209.209,0,0,1-.211.211.22.22,0,0,1-.211-.211Z" transform="translate(-182.094 -582.597)" fill="currentColor"/>
      <path id="Pfad_140" data-name="Pfad 140" d="M226.212,583.09c-.566,1.139-1.173,2.464-1.6,3.485a.2.2,0,0,1-.186.144.218.218,0,0,1-.2-.118c-.5-1.038-1.165-2.448-1.671-3.5-.186,1.19-.389,2.76-.481,3.6a.219.219,0,0,1-.219.186.209.209,0,0,1-.2-.219l.025-.245c.085-.751.338-2.759.549-3.967a.226.226,0,0,1,.219-.177.185.185,0,0,1,.152.068.772.772,0,0,1,.135.2c.464.945,1.131,2.321,1.68,3.443.481-1.106,1.114-2.523,1.7-3.612a.208.208,0,0,1,.194-.109.219.219,0,0,1,.22.169c.27,1.325.54,3.182.6,3.561.085.557.093.642.093.675a.209.209,0,0,1-.211.211.217.217,0,0,1-.211-.186c-.126-.962-.355-2.388-.582-3.6" transform="translate(-209.393 -582.263)" fill="currentColor"/>
      <path id="Pfad_141" data-name="Pfad 141" d="M259.742,585.669h-2.38c-.161.405-.3.777-.414,1.08a.226.226,0,0,1-.211.143.215.215,0,0,1-.2-.219.845.845,0,0,1,.084-.262c.38-1.021,1.105-2.692,1.688-3.983a.226.226,0,0,1,.2-.127h.034a.219.219,0,0,1,.2.118c.608,1.308,1.434,3.157,1.764,3.992a.92.92,0,0,1,.093.27.22.22,0,0,1-.211.211.208.208,0,0,1-.194-.135c-.118-.3-.279-.683-.456-1.089m-2.2-.422h2.026c-.329-.751-.7-1.57-1.038-2.279-.312.718-.675,1.528-.988,2.279" transform="translate(-236.695 -582.293)" fill="currentColor"/>
      <path id="Pfad_142" data-name="Pfad 142" d="M285.292,587.166a.221.221,0,0,1-.211-.211v-4.093a.214.214,0,0,1,.211-.211.209.209,0,0,1,.211.211v4.093a.209.209,0,0,1-.211.211" transform="translate(-259.039 -582.567)" fill="currentColor"/>
      <path id="Pfad_143" data-name="Pfad 143" d="M300.269,585.487h-1.131v1.468a.209.209,0,0,1-.211.211.22.22,0,0,1-.211-.211v-4.094a.209.209,0,0,1,.211-.211h1.241a1.446,1.446,0,0,1,1.612,1.418,1.332,1.332,0,0,1-1.021,1.342l1.207,1.409a.19.19,0,0,1,.051.135.22.22,0,0,1-.211.211.208.208,0,0,1-.16-.076Zm-1.131-.422h1.03c.776,0,1.19-.439,1.19-1,0-.6-.49-1-1.19-1h-1.03Z" transform="translate(-269.711 -582.567)" fill="currentColor"/>
      <path id="Pfad_144" data-name="Pfad 144" d="M334.77,583.09c-.566,1.139-1.173,2.464-1.6,3.485a.2.2,0,0,1-.186.144.218.218,0,0,1-.2-.118c-.5-1.038-1.165-2.448-1.671-3.5-.186,1.19-.388,2.76-.481,3.6a.219.219,0,0,1-.219.186.209.209,0,0,1-.2-.219l.025-.245c.085-.751.338-2.759.549-3.967a.226.226,0,0,1,.219-.177.185.185,0,0,1,.152.068.773.773,0,0,1,.135.2c.464.945,1.131,2.321,1.679,3.443.481-1.106,1.114-2.523,1.7-3.612a.208.208,0,0,1,.194-.109.219.219,0,0,1,.22.169c.27,1.325.54,3.182.6,3.561.085.557.093.642.093.675a.209.209,0,0,1-.211.211.217.217,0,0,1-.211-.186c-.126-.962-.355-2.388-.582-3.6" transform="translate(-294.365 -582.263)" fill="currentColor"/>
      <path id="Pfad_145" data-name="Pfad 145" d="M368.3,585.669h-2.38c-.161.405-.3.777-.414,1.08a.226.226,0,0,1-.211.143.215.215,0,0,1-.2-.219.843.843,0,0,1,.084-.262c.38-1.021,1.105-2.692,1.688-3.983a.226.226,0,0,1,.2-.127h.034a.219.219,0,0,1,.2.118c.608,1.308,1.434,3.157,1.764,3.992a.92.92,0,0,1,.093.27.22.22,0,0,1-.211.211.208.208,0,0,1-.194-.135c-.118-.3-.279-.683-.456-1.089m-2.2-.422h2.026c-.329-.751-.7-1.57-1.038-2.279-.312.718-.675,1.528-.987,2.279" transform="translate(-321.666 -582.293)" fill="currentColor"/>
      <path id="Pfad_146" data-name="Pfad 146" d="M393.85,587.166a.221.221,0,0,1-.211-.211v-4.093a.214.214,0,0,1,.211-.211.209.209,0,0,1,.211.211v4.093a.209.209,0,0,1-.211.211" transform="translate(-344.01 -582.567)" fill="currentColor"/>
      <path id="Pfad_147" data-name="Pfad 147" d="M408.826,585.487H407.7v1.468a.209.209,0,0,1-.211.211.22.22,0,0,1-.211-.211v-4.094a.209.209,0,0,1,.211-.211h1.241a1.446,1.446,0,0,1,1.612,1.418,1.332,1.332,0,0,1-1.021,1.342l1.207,1.409a.19.19,0,0,1,.051.135.22.22,0,0,1-.211.211.208.208,0,0,1-.16-.076Zm-1.131-.422h1.03c.776,0,1.19-.439,1.19-1,0-.6-.489-1-1.19-1H407.7Z" transform="translate(-354.682 -582.567)" fill="currentColor"/>
</svg>
