<svg xmlns="http://www.w3.org/2000/svg" viewBox="0 0 327.82 383.88"><g id="Layer_1-2" data-name="Layer 1"><path d="M144.3 217.56a21.03 21.03 0 0 1 0-6.53l-22.26-12.77a44.393 44.393 0 0 0 .03 32.22l22.23-12.92Zm39.32-2.01c6.26-1.71 12.93-3.38 19.69-4.79 1.57-.31 3.33-.71 5.19-1.11-.43-3.92-1.35-7.79-2.78-11.44l-22.39 12.82c.27 1.1.32 2.1.32 3.22 0 .45-.03.88-.03 1.3m15.11-29.39c-6.98-8.68-16.89-14.43-27.88-16.05l-.07 25.69c2.13.8 3.96 1.78 5.63 3.22l22.32-12.86Zm-34.79-98.68c1.45-1.92 3.31-2.38 4.15-2.47 2.58-.21 4.67 1.19 5.47 4.17.95 3.36.73 6.06-2.95 7.4l-6.67 2.57-1.64.63a31.81 31.81 0 0 1-.33-4.7c-.02-3.75.85-6.11 1.97-7.6m0 29.71c2.13.65 4.28.93 6.22.93 6.62 0 10.71-2.31 13.98-5.85l-2.33-2.96c-1.8 1.42-4.54 3.55-9.02 3.43-4.18-.09-7.15-2.79-8.85-6.75-.26-.6-.49-1.23-.69-1.88l.69-.26 20.32-7.61c-.65-6.92-3.04-10.97-6.35-13.27-2.62-1.79-5.74-2.6-9.04-2.6-1.58 0-3.25.25-4.93.75-6.35 1.88-12.61 7.53-12.43 18.66.16 10.5 6.21 15.53 12.43 17.41m97.83-12.8c.54 4.74.99 9.1.92 13.41h11.37c-1.02-4.31-1.53-8.67-2.06-13.41l-4.17-33.82-10.48-1.74c1.03 4.44 1.46 7.96 2.01 12.67l2.41 22.88Zm-72.92 0c.24 4.74.12 9.1-.27 13.41h11.68c-.72-4.31-.95-8.67-1.1-13.41l-.29-10.27c-.15-3.64 2.6-5.92 5.38-5.99 3.26-.04 4.85 2.09 4.95 5.37l.36 10.9c.24 4.74.3 9.1-.11 13.41h11.26c-.67-4.31-.93-8.67-1.08-13.41l-.64-12.1c-.21-6.46-3.87-10.23-10.08-10.23-3.41 0-7.41 1.06-10.85 5.43-.14-.92-.67-3.96-1.3-5.31l-9.28-.42c.83 4.47 1.1 9 1.22 13.74l.14 8.89Zm55.16-5.55.44 6.15c.15 2.18.22 3.69.5 5.76-1.12 1.27-2.94 2.18-4.96 2.28-3.28.18-6.18-1.52-6.24-5.79-.12-3.83 2.48-7.12 10.26-8.4m-19.69 10.42c.51 6.58 5.48 9.48 11.72 9.48 4.72 0 8.06-2.46 9.85-4.31.3 1.22.78 2.45 1.32 3.36h9.66c-1.39-3.46-2.04-8.03-2.46-12.8l-.64-7.28c-.59-8.63-4.27-14.55-18.56-14.55-2.42 0-6.04.45-8.93 1.07l.5 6.62c2.84-1.78 5.81-3.07 9.51-3.07s7.1 1.58 7.42 7.24c-3.67.38-7.12 1.06-10.98 2.77-4.37 1.97-8.83 5.47-8.42 11.45M77.68 163.56c-6.37 0-11.75 5.02-13.86 12.01h-5.38c-1.39 0-3.38 1.7-3.38 6.72s1.98 6.69 3.38 6.69h5.38c2.11 6.99 7.49 11.97 13.86 11.97s14.81-.22 26.11-.62c3.56-15.15 12.65-28.23 25.12-36.77H77.67Zm86.16 56.22c3.04 0 5.45-2.5 5.45-5.5s-2.41-5.43-5.45-5.43-5.47 2.41-5.47 5.43 2.45 5.5 5.47 5.5M73.58 80.17l4.43 21.17-11.92.36 7.49-21.52Zm-22.9 37.63h10.34c.49-3.02 1.4-6.12 2.87-10.09l15.26-.41c.65 3.02 1.68 7.8 1.87 10.5h13.6c-1.6-3.92-3.84-12.21-5.16-17.95l-7.03-31.63L66.1 70.5c.41 2.35-.21 6.43-1.99 11.62-3.46 10.02-8.99 26.19-13.42 35.69m106.23 52.24c-11 1.68-20.96 7.43-27.9 16.11l22.26 12.86c1.63-1.43 3.54-2.52 5.67-3.26l-.04-25.72Zm-57.75-66.53c-.28 4.81-.55 9.97-1.35 14.28h11.73c-.38-4.35-.22-9.62.03-14.38.36-5.77 1.75-9.12 3.97-11.44a9.052 9.052 0 0 1 7.9-2.74l.4-7.26c-3.23-.16-7.62 1.36-12.07 8.05.1-2.55-.14-4.86-.61-6.53L99 84.1c.73 4.36.73 8.83.43 13.62l-.26 5.8Zm21.34 90.32 27.27 15.69c-.9 3.16-.9 6.48.06 9.54l-22.91 13.34-4.28 2.49c-.41-.84-.78-1.69-1.14-2.55a47.874 47.874 0 0 1 .99-38.51m39.46-27.27v31.48c-3.21.76-6.03 2.46-8.26 4.79l-27.27-15.77c7.98-11.5 20.79-19.31 35.53-20.5m12.36 47.7c0 4.71-3.78 8.56-8.48 8.56s-8.51-3.85-8.51-8.56 3.79-8.5 8.51-8.5 8.48 3.79 8.48 8.5m-4.56-47.7c14.67 1.19 27.56 9 35.54 20.5l-27.28 15.77a16.658 16.658 0 0 0-8.26-4.79v-31.48Zm39.38 27.22c6.54 13.59 5.52 28.52.73 39.41-.23.54-.48 1.08-.73 1.59l-2.82-1.62-24.45-14.1c.94-3.25.9-6.7 0-9.54l27.27-15.74Zm-39.38 68.23v-31.54c3.18-.75 5.95-2.43 8.2-4.72l12.49 7.25 14.75 8.57c-7.89 11.43-20.78 19.26-35.44 20.43m-7.8.04c-13.54-1.07-25.52-7.83-33.52-17.87-.66-.88-1.32-1.75-2.01-2.59l15.59-9.04 11.72-6.78c.48.43.84.85 1.31 1.23a17.33 17.33 0 0 0 6.91 3.49v31.57Zm3.88 10.78c25.7 0 47.52-16.51 55.42-39.51a58.007 58.007 0 0 0 3.19-19c0-32.29-26.24-58.56-58.6-58.56s-58.53 26.27-58.53 58.56c0 6.27.99 12.29 2.81 17.93 7.58 23.56 29.66 40.58 55.73 40.58m-34.9-172.24c2.64 1.31 5.07 2.58 6.61 3.44 2.13 1.05 3.97 2.42 3.82 4.83-.24 2.49-2.54 4.17-6.48 4.17-3.13 0-7.84-1.9-11.05-4.82l-.16 7.63c2.77 1.39 7.33 2.24 11.43 2.24 7.14 0 15.95-3.3 16.13-11.6.1-5.96-4.26-8.44-6.79-9.58-2.59-1.21-5.34-2.53-6.61-3.19-1.15-.51-3.63-1.43-3.43-4.14.21-2.62 3.13-3.85 6.32-3.85 2.64 0 5.28.8 7.24 1.86l.13-5.71c-1.51-.53-3.93-1.03-7.52-1.03-3.03 0-6.8.56-9.83 2.27-3.38 1.93-5.86 5.09-6.08 8.34-.33 4.85 2.43 7.24 6.27 9.13m162.89 62.98c.73-11.7.7-23.59-.07-35.83-1.62-23.73-7.89-59.62-15.58-92.86-2.47-.87-4.91-1.71-7.3-2.51 7.92 32.83 15.99 79.79 16.5 107.71.14 6.5.26 13.45.08 19.68v.21c0 .17-.01.35-.03.52-.05.89-.14 1.69-.19 2.48-.01.18-.03.39-.05.59h-86.42c13.86 9.6 23.68 24.77 26.07 42.33l21.47-5.08c4.73-1.11 6.79-4.35 7.27-7.27l28.77-1.95c-.19 1.36-.4 2.62-.6 3.69-.04.2-.09.4-.14.6-.24 1.33-.5 2.63-.78 3.96-2.32 11.42-5.47 22.85-9.45 33.98-4.04 11.35-8.94 22.38-14.67 32.83-2.25 4.08-4.65 8.1-7.12 12.08l-.02.02c-1.03 1.65-2.08 3.29-3.15 4.93v.01c-3.69 5.61-7.64 11.12-11.81 16.49l-.04.04c-1.83 2.37-3.72 4.7-5.64 7l-.03.03c-1.26 1.52-2.54 3.03-3.86 4.52 0 .01-.01.01-.03.02-3.52 4.03-7.16 7.98-10.99 11.84-14.22 14.39-30.62 27.61-48.54 39.42-.52.35-1.03.7-1.55 1.03-18.67-12.06-35.4-25.61-50.19-40.41-3.8-3.83-7.43-7.74-10.94-11.73-.02-.02-.05-.04-.07-.07-1.29-1.47-2.54-2.96-3.8-4.45-.02-.03-.04-.05-.06-.08-.31-.36-.61-.72-.92-1.08 0-.02-.02-.03-.03-.04-5.98-7.22-11.52-14.66-16.59-22.36 0-.03-.03-.05-.04-.07-1-1.52-1.96-3.06-2.92-4.59l-.03-.03-.03-.06-.12-.2s-.04-.05-.05-.08c-1.8-2.87-3.54-5.76-5.22-8.69h.03c-.5-.83-1.02-1.68-1.54-2.59 1.88-.57 3.76-1.18 5.66-1.82l.05-.02c2.38-.81 4.76-1.67 7.15-2.59.02 0 .04-.01.06-.02 9.73-3.75 19.49-8.41 28.89-13.74a61.214 61.214 0 0 1-8.37-17.14c-.67-2.18-1.22-4.4-1.64-6.68a107.66 107.66 0 0 1-5.74 6.62c-3.52 3.73-7.41 7.31-11.62 10.43-6.18 4.64-13.1 9.23-20.51 13.13-.42-.93-.84-1.9-1.25-2.88-3.14-7.02-5.92-14.01-8.39-21.09a244.22 244.22 0 0 1-5.92-19.61c-6.32-25.07-8.62-47.96-7.08-79.56 1.03-21.64 7.95-66.56 16.39-100.53-2.66.87-5.18 1.72-7.55 2.54-7.74 33.33-14.03 69.33-15.57 93.15-1.68 25.24-.12 49.12 4.82 72.78 2.22 10.47 5.14 20.93 8.72 31.17 2.78 7.97 5.95 15.8 9.55 23.38v.02c.49 1.01.98 2.01 1.48 3-1.19.56-2.39 1.1-3.6 1.61a90.992 90.992 0 0 1-8.89 3.27c1.78 3.01 3.62 5.96 5.49 8.84 4.19-.71 8.47-1.66 12.82-2.82a241.479 241.479 0 0 0 6.92 11.5c1.03 1.62 2.1 3.22 3.17 4.8.02.02.04.05.06.08 4.87 7.24 10.16 14.28 15.85 21.1.01.02.02.03.04.04.7.83 1.4 1.69 2.11 2.51l.08.09c1.24 1.44 2.52 2.88 3.8 4.31a.5.5 0 0 0 .07.08c3.12 3.48 6.33 6.91 9.68 10.24 15.46 15.3 33.24 29.25 52.84 41.59 2.17 1.03 3.37 1.54 3.37 1.54.57-.35 1.11-.71 1.67-1.05.2-.13.39-.26.58-.38 19.58-12.31 37.49-26.32 52.91-41.7 3.41-3.4 6.7-6.87 9.88-10.41l.04-.03c1.29-1.45 2.57-2.91 3.83-4.38 0 0 .02 0 .03-.02 2.52-2.94 4.98-5.92 7.34-8.94l.03-.05c3.76-4.8 7.31-9.71 10.68-14.69 0-.01 0-.02.01-.03 1.08-1.62 2.14-3.24 3.19-4.87v-.02c2.79-4.35 5.43-8.76 7.91-13.24 5.86-10.53 10.86-21.7 14.98-33.17 3.93-10.94 7.07-22.15 9.4-33.37.65-3.12 1.24-6.23 1.79-9.36l18.48-1.25c.83-4.39 1.54-8.75 2.13-13.06.59-4.39 1.04-8.83 1.37-13.28h-18.77Z"/><path class="cls-1" d="M311.26 163.56h-.69c-.33 4.46-.77 8.9-1.37 13.28-.58 4.32-1.3 8.67-2.13 13.06l.45-.03c-.55 2.77-1.15 5.53-1.8 8.27-.2.88-.4 1.76-.62 2.64-.16.64-.33 1.28-.49 1.92-.35 1.39-.72 2.76-1.1 4.15-.08.29-.17.59-.24.88-.52 1.83-1.05 3.64-1.6 5.46a240.94 240.94 0 0 1-4.67 13.73c-.9 2.39-1.85 4.76-2.82 7.11-.4.99-.85 1.95-1.27 2.93-13.39 31.8-35.23 63.46-69.2 91.5-.15.12-.29.26-.45.38-.21.17-.42.34-.63.52-.84.69-1.67 1.37-2.53 2.05-6.15 4.96-12.59 9.72-19.3 14.24-10.6 7.16-21.87 13.74-33.69 19.75-.13.06-.26.13-.39.2-.79.4-1.56.81-2.36 1.2 0 0-1.21-.51-3.38-1.54.95.6 1.89 1.22 2.85 1.8-21.79-10.81-41.79-23.6-59.34-38.23a251.92 251.92 0 0 1-13.55-12.02c-.04-.02-.06-.06-.09-.09-1.38-1.3-2.71-2.64-4.06-3.98l-.09-.09c-1.89-1.88-3.74-3.79-5.56-5.7-.02-.02-.03-.03-.05-.04-5.38-5.7-10.47-11.6-15.22-17.67a.55.55 0 0 0-.07-.09c-1.17-1.51-2.34-3.04-3.49-4.57-.02-.03-.04-.05-.06-.08-1.99-2.68-3.93-5.37-5.8-8.11-.59-.87-1.17-1.74-1.75-2.61-.44-.65-.85-1.33-1.28-1.98.05-.02.11-.03.16-.04a220 220 0 0 1-5.49-8.84c-.03 0-.06.02-.08.03-.12-.18-.21-.37-.32-.56-.15-.25-.28-.49-.43-.74-.81-1.4-1.61-2.79-2.39-4.2-.96-1.75-1.9-3.52-2.82-5.29v-.02c-.69-1.3-1.35-2.61-2-3.93-.01-.03-.04-.07-.05-.11-2.7-5.43-5.17-10.95-7.43-16.59-2.41-6-4.56-12.12-6.44-18.32-6.22-20.2-9.73-41.53-10.44-63.52-.1-3.13-.15-6.28-.13-9.46.11-22.68 5.82-64.3 13.99-97.04 0 0 2.15-.97 6.05-2.54.17-.06.33-.14.5-.22 1.06-.43 2.13-.86 3.19-1.28.4-.16.8-.31 1.19-.47.7-.28 1.42-.55 2.12-.82 1.78-.7 3.56-1.36 5.35-2.01 1.23-.44 2.45-.89 3.68-1.32 0 .04-.02.08-.02.12 2.36-.82 4.87-1.67 7.54-2.54 0-.04.03-.1.03-.14l.1-.03c4.73-1.53 9.46-2.94 14.19-4.25v-.02c2.52-.69 5.04-1.33 7.58-1.96h.03c.91-.23 1.8-.49 2.72-.71.47-.11.92-.23 1.39-.34.17-.05.36-.08.53-.12 18.23-4.48 39.28-8.14 60.57-8.64h.4c2.51-.13 5.04-.23 7.58-.3.5-.01.98-.03 1.47-.04 2.72-.06 5.45-.1 8.21-.1 22.61 0 44.88 2.21 66.68 6.57l.25.07c3.1.62 6.18 1.28 9.25 1.98.6.14 1.19.28 1.79.43 1.97.46 3.94.95 5.88 1.45.68.17 1.37.34 2.04.52a353.024 353.024 0 0 1 8.54 2.36c.12.04.25.08.37.11 2.34.67 4.66 1.38 6.96 2.1l.25.08c.94.3 1.87.62 2.81.92.04.14.07.27.1.41 2.39.8 4.83 1.63 7.3 2.51-.03-.15-.07-.3-.1-.45 1.38.48 2.75.99 4.15 1.49 1.66.62 3.34 1.24 4.98 1.88.19.07.38.14.56.2 1.12.44 2.25.87 3.36 1.33.38.14.74.3 1.12.45a329.322 329.322 0 0 1 8 3.35s3.93 14.55 7.48 36.2c3.97 23.18 6.45 46.03 6.48 60.83.05 7.86-.26 15.66-.93 23.35m16.54-22.92c-.16-25.2-5.56-64.25-15.56-104.76l-.9-3.61-3.39-1.53C264.18 11.11 215.96 0 163.95 0 111.87 0 63.58 11.1 19.79 30.76l-3.4 1.53-.88 3.62C5.53 76.41.11 115.46 0 140.64v1.56c0 25.98 3.75 51.41 11.15 75.59l.06.24c.35 1.14.72 2.25 1.09 3.39a245.57 245.57 0 0 0 7.4 20.05v.01c.86 2.04 1.74 4.06 2.65 6.07.52 1.15 1.06 2.3 1.59 3.44 0 .02.02.02.03.04.72 1.54 1.46 3.07 2.22 4.6 0 0 0 .02.01.02.61 1.22 1.28 2.42 1.9 3.63.86 1.66 1.7 3.32 2.59 4.95 1.69 3.1 3.45 6.17 5.27 9.18 0 0 0 .01.01.01.75 1.25 1.54 2.47 2.32 3.7.6.95 1.19 1.92 1.8 2.87s.15.22.15.22c.54.83 1.08 1.65 1.63 2.48.01.02.03.03.04.05.48.71.95 1.44 1.43 2.13.32.49.67.97 1 1.45v.01c1.11 1.6 2.25 3.2 3.4 4.79.02.02.03.04.06.07l.01.02.05.07c.45.62.9 1.24 1.36 1.86.05.06.1.13.15.19.13.18.26.35.39.53l.09.11c.45.61.9 1.21 1.36 1.82.02.03.05.07.07.11.26.34.54.69.81 1.04.41.52.81 1.05 1.22 1.56.04.06.1.14.14.18.55.7 1.14 1.38 1.69 2.09 3.36 4.2 6.84 8.34 10.49 12.37.03.03.06.07.1.1 2.38 2.61 4.8 5.19 7.29 7.73.03.03.07.08.1.11.28.29.57.57.86.86 1 1 2 2 3.01 3 .03.04.06.07.1.1.16.15.32.29.47.44a283.81 283.81 0 0 0 16.45 14.8c18.65 15.44 43.48 32.19 66.88 42.31l3.03 1.3 3.03-1.3c23.34-10.12 48.1-26.88 66.77-42.31 5.73-4.76 11.22-9.72 16.49-14.85.21-.19.43-.38.63-.59.01-.02.04-.03.06-.06.97-.94 1.91-1.89 2.85-2.84.36-.36.71-.71 1.07-1.06.02-.02.04-.04.06-.05 3.48-3.55 6.83-7.18 10.09-10.88.02-.03.05-.05.07-.08 2.95-3.37 5.79-6.81 8.55-10.29.34-.43.68-.84 1.01-1.26.05-.05.08-.11.12-.15.58-.74 1.16-1.49 1.73-2.24.05-.07.11-.13.16-.2.02 0 .03-.03.04-.05.49-.62.96-1.26 1.44-1.9.02-.02.04-.06.05-.09.2-.24.38-.5.57-.75.04-.06.09-.13.14-.18.4-.54.79-1.08 1.18-1.63.02-.01.03-.03.04-.04l.03-.05c1.09-1.51 2.18-3.04 3.24-4.57.02-.03.04-.05.06-.07.34-.49.69-.99 1.03-1.49.41-.6.83-1.23 1.23-1.84.03-.06.07-.11.11-.17.61-.91 1.22-1.84 1.82-2.76.01-.02.04-.06.05-.09 1.38-2.13 2.75-4.31 4.08-6.49 0-.03.03-.06.05-.09 1.48-2.47 2.92-4.97 4.31-7.48.25-.43.49-.88.75-1.31.17-.33.36-.66.54-.97.81-1.51 1.58-3.03 2.36-4.55 1.96-3.77 3.84-7.58 5.59-11.43.02-.03.03-.06.04-.09.91-2 1.78-4.01 2.64-6.04 0-.02.02-.04.03-.06.71-1.7 1.41-3.43 2.1-5.15.33-.83.63-1.66.95-2.49 2.02-5.28 3.87-10.64 5.52-16.07 7.35-24.15 11.2-49.57 11.2-75.55v-1.57"/></g></svg>