<svg viewBox="0 51.6 141.7 38.5" fill="currentColor"><path d="M58 77.4c0-.3-.2-.5-.6-.6v-.2h2.2v.2c-.4.1-.5.3-.5.6V81c0 1.1.6 1.8 2 1.8 1.1 0 2-.5 2-1.7v-3.7c0-.3-.2-.5-.6-.6v-.2h1.8v.2c-.4.1-.6.3-.6.6V81c0 1.6-.9 2.5-2.9 2.5-1.9 0-2.8-.8-2.8-2.3zm7.9 5.8c.4-.1.6-.3.6-.6v-5c0-.4-.2-.6-.6-.7v-.2h1.4l4.4 5.1v-4.4c0-.3-.2-.5-.6-.6v-.2h1.8v.2c-.4.1-.6.3-.6.6v6H72c-.2 0-.5-.2-1-.7l-3.9-4.5v4.4c0 .3.2.5.6.6v.2h-1.8zm34.4-1.4h.2c.1.4.3.7.6.9s.8.3 1.2.3c.9 0 1.4-.4 1.4-1.1s-.7-1.1-1.6-1.5c-.6-.3-1.9-.8-1.9-2 0-1.1.9-1.8 2.2-1.8.9 0 1.3.2 1.9.2v1.4h-.2c-.2-.8-1-1.1-1.8-1.1-.9 0-1.2.5-1.2 1 0 .7.7 1.1 1.5 1.5.9.4 1.9.9 1.9 2.1 0 1.1-.9 1.9-2.4 1.9-.9 0-1.5-.3-2-.3v-1.5zm19.7-1.5v2.3c0 .2.2.5.6.6v.2h-2.2v-.2c.4-.1.6-.4.6-.6v-2.2m0 .2l-1.8-2.8c-.3-.5-.5-.8-.9-.9v-.2h2.2v.2c-.2 0-.3.2-.3.3 0 .2.1.3.2.5s1.3 2.2 1.3 2.2l1.3-2.2c.1-.2.2-.4.2-.6 0-.1-.1-.2-.3-.3v-.2h1.7v.2c-.5.2-.8.6-1.1 1.1l-1.6 2.7m-33.8-3.9h4.2c.1 0 .4 0 .5-.1h.2v1.3h-.2c-.2-.4-.3-.8-1.1-.8h-1.8v2.4h1.4c.2 0 .5 0 .6-.1.3-.1.5-.2.5-.5h.2v1.6h-.2c-.1-.3-.2-.5-.5-.5-.1 0-.4-.1-.6-.1h-1.4v2.8h2c.9 0 1.1-.4 1.3-.9l.2.1-.4 1.5c-.6-.1-1-.1-1.8-.1H86v-.2c.4-.1.6-.3.6-.6v-5.1c0-.3-.2-.5-.6-.6v-.1zm-10.7.8c0-.3-.2-.5-.6-.6v-.2h2.3v.2c-.4.1-.6.3-.6.6v5.1c0 .3.2.5.6.6v.2h-2.3v-.2c.4-.1.6-.3.6-.6zm31.6 0c0-.3-.2-.5-.6-.6v-.2h2.3v.2c-.4.1-.6.3-.6.6v5.1c0 .3.2.5.6.6v.2h-2.3v-.2c.4-.1.6-.3.6-.6zm5.8-.8c-2.3 0-2.6-.1-3.1-.1V78h.2c.2-.6.5-.8.9-.8h1.4v5.3c0 .4-.2.5-.6.6v.2h2.3v-.2c-.4-.1-.6-.3-.6-.6v-5.3h1.4c.5 0 .8.2 1 .8h.2v-1.4c-.5.1-.9.1-3.1.1m-18.2 3.1c.2 0 .5.1.8.1 1.2 0 1.6-.7 1.6-1.4 0-.9-.6-1.5-1.7-1.5-.2 0-.6 0-.8.1v2.7zm0 2.7c0 .3.2.5.6.6v.2h-2.3v-.2c.4-.1.6-.3.6-.6v-5.1c0-.3-.2-.5-.6-.6v-.2H94c.3 0 1.2-.1 1.6-.1 1.6 0 2.5.7 2.5 1.8 0 .9-.7 1.5-1.7 1.7 0 0 .2.1.5.4s1 1.4 1.4 1.8c.3.4.7.8 1.1.8v.2c-.2.1-.5.1-.8.1-.5 0-1-.2-1.4-.7-.4-.4-1-1.4-1.3-1.8-.2-.3-.5-.5-1-.6-.1 0-.2 0-.3-.1v2.4zm-15.9-5c-.2-.3-.4-.6-.8-.6v-.2h2.3v.2c-.2 0-.5.2-.5.4s.1.4.3.8l1.7 3.9 1.6-3.9c.1-.3.2-.6.2-.8s-.2-.4-.5-.4v-.2h1.9v.2c-.4.1-.7.3-.9.9l-2.4 5.7h-.5zm6.2-17.8c-.3-.6-.7-1.1-1.4-1.2v-.4c.5 0 1.9.1 2.3.1.3 0 1.8-.1 2.2-.1v.4c-.4.1-.9.3-.9.7 0 .3.2.7.5 1.5l3.3 7.4 3.1-7.4c.2-.6.4-1.1.4-1.4 0-.4-.4-.7-.9-.8v-.4c.4 0 1.4.1 1.7.1s1.5-.1 1.9-.1v.3c-.8.2-1.2.7-1.7 1.6l-4.5 10.7h-1zm-44 10.7c.6-.1 1-.4 1-1.1v-9.8c0-.6-.4-.9-1-1.1V58c.3 0 1.6.1 2 .1s1.8-.1 2.1-.1v.4c-.6.1-1 .4-1 1.1v4.1h7.3v-4.1c0-.7-.4-.9-1-1.1V58c.3 0 1.7.1 2.1.1.3 0 1.7-.1 2-.1v.4c-.6.1-1 .4-1 1.1v9.8c0 .6.4.9 1 1.1v.3h-4.1v-.3c.6-.1 1-.4 1-1.1v-4.6H44v4.6c0 .7.4.9 1 1.1v.3h-4.1v-.3zm87.9-.6c.5.1 1.3.1 2 .1 3.8 0 5.8-2.3 5.8-5.5 0-3.3-2.1-5.6-5.6-5.6-.7 0-1.6.1-2.1.1zm-3.2.6c.8-.1 1.2-.4 1.2-1.1v-9.8c0-.7-.4-.9-1.1-1.1V58c.4 0 1.8.1 2.2.1.6 0 2.3-.1 3.7-.1 4.5 0 7.2 2.5 7.2 6.3 0 3.7-2.8 6.5-7.5 6.5-1.3 0-2.9-.1-3.6-.1-.4 0-1.7.1-2.1.1zm-51-6.3c.4.1 1 .1 1.6.1 2.4 0 3.1-1.4 3.1-2.6 0-1.7-1.1-2.8-3.2-2.8-.4 0-1 .1-1.5.1zm0 5.1c0 .7.4 1 1.2 1.2v.4c-.4 0-1.8-.1-2.2-.1-.3 0-1.7.1-2.1.1v-.4c.7-.1 1.1-.5 1.1-1.2v-9.7c0-.6-.3-1-1.1-1.1V58c.4 0 1.8.1 2.1.1.6 0 2.4-.1 3.1-.1 3 0 4.7 1.2 4.7 3.4 0 1.7-1.3 2.8-3.2 3.3 0 0 .4.3.9.8.5.6 2 2.7 2.6 3.5.6.7 1.4 1.5 2.2 1.6v.3c-.4.1-1 .2-1.5.2-1 0-1.9-.4-2.6-1.3-.7-.8-1.9-2.6-2.6-3.5-.4-.6-1-1-2-1.2-.2 0-.4-.1-.6-.1zm39.9-5.1c.4.1 1 .1 1.6.1 2.4 0 3.1-1.4 3.1-2.6 0-1.7-1.1-2.8-3.2-2.8-.4 0-1 .1-1.5.1zm0 5.1c0 .7.4 1 1.2 1.2v.4c-.4 0-1.8-.1-2.2-.1-.3 0-1.7.1-2.1.1v-.4c.7-.1 1.1-.5 1.1-1.2v-9.7c0-.6-.3-1-1.1-1.1V58c.4 0 1.8.1 2.1.1.6 0 2.4-.1 3.1-.1 3 0 4.7 1.2 4.7 3.4 0 1.7-1.3 2.8-3.2 3.3 0 0 .4.3.9.8.5.6 2 2.7 2.6 3.5.6.7 1.4 1.5 2.2 1.6v.3c-.4.1-1 .2-1.5.2-1 0-1.9-.4-2.7-1.3-.7-.8-1.9-2.6-2.6-3.5-.4-.6-1-1-1.9-1.2-.2 0-.4-.1-.6-.1zm-50.2-3.5l-2-4.7-1.9 4.7zm-8 4.7c.8-.2 1.2-.7 1.5-1.4l4.1-9.7c.2-.4.4-1.2.4-1.2h1.1s.2.8.4 1.2L68 69c.3.7.6 1.2 1.5 1.4v.3h-4.4v-.3c.6-.2.8-.5.8-.8s-.1-.6-.2-.9l-.9-2.1H60l-.8 2.1c-.1.3-.2.6-.2.9 0 .4.2.6.9.8v.3h-3.6v-.3zm48.2-4.7l-2-4.7-1.9 4.7zm-8.1 4.7c.8-.2 1.2-.7 1.5-1.4l4.1-9.7c.2-.4.4-1.2.4-1.2h1.1s.2.8.4 1.2l4.3 9.8c.3.7.6 1.2 1.5 1.4v.3h-4.4v-.3c.6-.2.8-.5.8-.8s-.1-.6-.2-.9l-.9-2.1h-4.7l-.8 2.1c-.1.2-.2.6-.2.8 0 .4.2.6.9.8v.3h-3.6zM3.5 54.1h28.3v10.7c0 4.9-1.8 15.3-14 23 0 0-13.2-5.5-14.2-23-.1 0-.1-10.7-.1-10.7z"/><path d="M24.9 67.9s-.3.8-1.4 0l-3.9-.1s-.5.2-.6-.4l.1-1.1s0-.3-.5-.3c0 0-.8.1-.8-.6 0 0-.1-.7.9-.7 0 0 .3.2.4-.3 0 0-.1-3 0-3.2 0 0 .1-.3-.4-.3 0 0-.8.2-.8-.3 0 0-.1-.8.5-.8 0 0 .6.1.7-.1 0 0 .1.1.1-.5v-.9s.1-.3.5-.2c0 0 .7.1.8 0 0 0 .2-.2.2-.3 0 0 .4 0 .4.1 0 0 .6.4 2.6.2 0 0 .3 0 .4.1 0 0 .4.3.6 0 0 0 .3-.1 1.4-.1 0 0 1.1.3 1.9-.3l.3.1s.3.5.6.4c0 0 .7-.1.8.1 0 0 .2.3.1 1.2 0 0-.1.4.5.4 0 0 .8-.1.7.6 0 0 .2.8-1.1.7 0 0-.2.2-.1.4 0 0 0 2.6-.1 2.9 0 0 0 .4.5.4 0 0 .7-.1.8.6 0 0 .1.9-1 .7 0 0-.3.1-.4.3l-.1 1.1s0 .6-.6.4c-.1 0-3.6.1-3.9 0 .1-.3-.1-.3-.1-.2m-7.4 3.8s.2-.1.2-.2c0 0 .5-.1.6-.1l1.5.1s1.5.1 2.1-.4c0 0 .2 0 .4.1 0 0 .3.1.4.2h.9s.5.2.5.5v.4s-.1.8.1.9h.7s.6.3.5.6c0 0 0 .5-.5.6 0 0-.5.1-.6.1 0 0-.2.2-.2.5l-.1 3s-.1.3.4.3c0 0 .7-.1.9.3 0 0 .2.7-.2.8l-.3.1-.6.1s-.3 0-.3.5v.8s0 .6-.4.6l-.6.1s-.2.1-.5.1c0 0-3.9.1-4 0l-.4-.2s-.5.5-.9.1l-.3-.3s-.2.1-.3 0c-.1 0-4.3.1-4.3.1s-.9.1-1-.2c0 0-.1-1.2-.1-1.3 0 0 0-.3-.2-.4l-.9-.1s-.5-.3-.3-.7c0 0 .2-.5.6-.5 0 0 .7.1.7-.1 0 0 .1-.1.1-.4 0 0 .1-2.7 0-2.9 0 0 .1-.3-.2-.3 0 0-.3.1-.5-.1 0 0-.6 0-.7-.4 0 0-.1-.3.1-.5 0 0 .3-.5 1-.3 0 0 .4.1.5-.2v-1.1s-.1-.3.5-.5c0 0 .7.2 1-.2 0 0 .3-.5.5-.2 0 0 .4.4 1.6.4 0 0 2.1-.2 2.1-.1-.2.1.3.2.5.4zm-6.2-3.8s-.3.8-1.4 0L6 67.8s-.5.2-.6-.4l.1-1.1s0-.3-.5-.3c0 0-.8.1-.8-.6 0 0-.1-.7.9-.7 0 0 .3.2.4-.3 0 0-.1-3 0-3.2 0 0 .1-.3-.4-.3 0 0-.8.2-.8-.3 0 0-.1-.8.5-.8 0 0 .6.1.7-.1 0 0 .1.1.1-.5v-.9s.1-.3.5-.2c0 0 .7.1.8 0 0 0 .2-.2.2-.3 0 0 .4 0 .4.1 0 0 .6.4 2.6.2 0 0 .3 0 .4.1 0 0 .4.3.6 0 0 0 .3-.1 1.4-.1 0 0 1.1.3 1.9-.3l.3.1s.3.5.6.4c0 0 .7-.1.8.1 0 0 .2.3.1 1.2 0 0-.1.4.5.4 0 0 .8-.1.7.6 0 0 .2.8-1.1.7 0 0-.2.2-.1.4 0 0 0 2.6-.1 2.9 0 0 0 .4.5.4 0 0 .7-.1.8.6 0 0 .1.9-1 .7 0 0-.3.1-.4.3v.8s0 .6-.6.4c-.1 0-3.6.1-3.9 0 0 0-.2 0-.2.1" fill="#fff"/><path d="M24.9 67.9s-.3.8-1.4 0l-3.9-.1s-.5.2-.6-.4l.1-1.1s0-.3-.5-.3c0 0-.8.1-.8-.6 0 0-.1-.7.9-.7 0 0 .3.2.4-.3 0 0-.1-3 0-3.2 0 0 .1-.3-.4-.3 0 0-.8.2-.8-.3 0 0-.1-.8.5-.8 0 0 .6.1.7-.1 0 0 .1.1.1-.5v-.9s.1-.3.5-.2c0 0 .7.1.8 0 0 0 .2-.2.2-.3 0 0 .4 0 .4.1 0 0 .6.4 2.6.2 0 0 .3 0 .4.1 0 0 .4.3.6 0 0 0 .3-.1 1.4-.1 0 0 1.1.3 1.9-.3l.3.1s.3.5.6.4c0 0 .7-.1.8.1 0 0 .2.3.1 1.2 0 0-.1.4.5.4 0 0 .8-.1.7.6 0 0 .2.8-1.1.7 0 0-.2.2-.1.4 0 0 0 2.6-.1 2.9 0 0 0 .4.5.4 0 0 .7-.1.8.6 0 0 .1.9-1 .7 0 0-.3.1-.4.3l-.1 1.1s0 .6-.6.4c-.1 0-3.6.1-3.9 0 .1-.3-.1-.3-.1-.2"/><path d="M24.9 67.9s-.3.8-1.4 0l-3.9-.1s-.5.2-.6-.4l.1-1.1s0-.3-.5-.3c0 0-.8.1-.8-.6 0 0-.1-.7.9-.7 0 0 .3.2.4-.3 0 0-.1-3 0-3.2 0 0 .1-.3-.4-.3 0 0-.8.2-.8-.3 0 0-.1-.8.5-.8 0 0 .6.1.7-.1 0 0 .1.1.1-.5v-.9s.1-.3.5-.2c0 0 .7.1.8 0 0 0 .2-.2.2-.3 0 0 .4 0 .4.1 0 0 .6.4 2.6.2 0 0 .3 0 .4.1 0 0 .4.3.6 0 0 0 .3-.1 1.4-.1 0 0 1.1.3 1.9-.3l.3.1s.3.5.6.4c0 0 .7-.1.8.1 0 0 .2.3.1 1.2 0 0-.1.4.5.4 0 0 .8-.1.7.6 0 0 .2.8-1.1.7 0 0-.2.2-.1.4 0 0 0 2.6-.1 2.9 0 0 0 .4.5.4 0 0 .7-.1.8.6 0 0 .1.9-1 .7 0 0-.3.1-.4.3l-.1 1.1s0 .6-.6.4c-.1 0-3.6.1-3.9 0 .1-.3-.1-.3-.1-.2z" fill="none" stroke="#000" stroke-width=".01"/><path d="M20.6 58.4s.1.5.1.6-.1 6.6-.1 6.6.1.5-.4.8c0 0-.1.1-.1-.3l.1-6.9c-.1 0-.1-.8.4-.8" fill="#fff"/><path d="M20.6 58.4s.1.5.1.6-.1 6.6-.1 6.6.1.5-.4.8c0 0-.1.1-.1-.3l.1-6.9c-.1 0-.1-.8.4-.8z" fill="none" stroke="#000" stroke-width=".012"/><path d="M19.8 66.4s.1-6.5 0-6.6v.1s-.1-1.1.2-1.6c0 0-.1-.4-.6.1v.9s0 .5-.5.5c0 0-.6 0-.8.2 0 0-.1.5.4.4 0 0 .8 0 .9.3v3.4s.2.6-.5.6c0 0-.8-.1-.8.4 0 0 .2.4.8.3 0 0 .5.1.5.6v.9s-.1.4.4.4h3.6s.2 0 .2-.2c0 0 0-.2-.3-.2l-3-.1c0 .2-.5.3-.5-.4" fill="#fff"/><path d="M20.5 66.4s-.1.3.3.3h2.4l.6.1s.7-.2 0-.5h-2.3s-.4-.1-.5-.1c-.1-.1-.3-.2-.5.2" fill="#fff"/><path d="M20.5 66.4s-.1.3.3.3h2.4l.6.1s.7-.2 0-.5h-2.3s-.4-.1-.5-.1c-.1-.1-.3-.2-.5.2z" fill="none" stroke="#000" stroke-width=".012"/><path d="M24.4 66.7s-.4 0-.4.6c0 0 .1.4.5.4 0 0 .4-.1.4-.5 0 0-.3-.5-.5-.5m.3-.2s.2-.2.3-.2c0 0 2.3.2 2.7-.1 0 0 .4-.1.4 0 0 0 .3.3.3.4 0 0 0 .2-.4.1h-2.7c.1.1-.7.2-.6-.2" fill="#fff"/><path d="M24.7 66.5s.2-.2.3-.2c0 0 2.3.2 2.7-.1 0 0 .4-.1.4 0 0 0 .3.3.3.4 0 0 0 .2-.4.1h-2.7c.1.1-.7.2-.6-.2z" fill="none" stroke="#000" stroke-width=".012"/><path d="M25 67.3s0-.2.3-.2h3.2s.3.2.3-.4c0 0 .1-2.5.1-5.3v-2.5s-.1-.3-.2-.4c0 0 0-.4.4-.2 0 0 .3 0 .3.6v.8s-.1.4.6.3c0 0 .6.1.6.3 0 0 .2.5-.6.4h-.5s-.2.1-.2.4l-.1 3.3s-.1.6.5.6c0 0 .6 0 .7.2 0 0 .4.6-.5.5 0 0-.5 0-.6.1 0 0-.1.1-.2 1.2 0 0 .1.6-.4.6 0 0-3.2.1-3.5 0 .2-.2-.1-.1-.2-.3m-4.1-9.1l-.1 7.4s0 .3.6.4c0 0 .7.1.8 0h1.6s.3.3.3-.1c0 0 .2-6 .1-7.2 0 0 0-.5-.4-.6 0 0-1.7.1-1.9 0l-.8-.1s-.2 0-.2.2" fill="#fff"/><path d="M24.5 58.6s-.1 3.5-.1 3.6l-.1 2.9-.1 1s.1.2.3.1c0 0 .7-.2 1.2-.1 0 0 1.5.1 1.8-.1 0 0 .2.1.3-.3 0 0 .1-6.4.1-6.5 0 0 .1-.9.1-1 0 0 0-.2-.4 0 0 0 .1.2-2.1.1-.1-.1-.9-.1-1 .3m3.7-.1v7.2s.2.6.5.6c0 0 .1-.1.1-.4l.1-6.9c-.1 0-.3-1.1-.7-.5" fill="#fff"/><path d="M28.2 58.5v7.2s.2.6.5.6c0 0 .1-.1.1-.4l.1-6.9c-.1 0-.3-1.1-.7-.5z" fill="none" stroke="#000" stroke-width=".012"/><path d="M25.4 60.6c-.1-.2.4-.2.4-.2l.2.1c.2 0 .3.1.3.1.2.3-.1.4-.1.4l-.1.3v2.4c.1.1.2.3.2.3 0 .2-.3.2-.3.2h-.7c-.2 0-.1-.3-.1-.3.2-.1.3-.5.3-.5v-2.3zm-3.1.4v1.2c.4.3.7-.2.7-.2.6-.6 0-1.1-.1-1.2s-.6 0-.6 0zm0 1.8l-.1.7.2.3c.1.2-.1.3-.1.3l-.7-.1c-.1-.1 0-.3 0-.3.2-.1.2-.4.2-.4V61c0-.1-.2-.3-.2-.3-.2 0-.1-.2-.1-.2.1-.1.4-.1.4-.1h1c.9.3.8 1 .8 1 .1.7-.6.9-.6.9l-.1.4.7 1c.1.1.1.2.1.2-.1.3-.5 0-.5 0l-.8-1.3c-.1 0-.2.2-.2.2m-4.8 8.9s.2-.1.2-.2c0 0 .5-.1.6-.1l1.5.1s1.5.1 2.1-.4c0 0 .2 0 .4.1 0 0 .3.1.4.2h.9s.5.2.5.5v.4s-.1.8.1.9h.7s.6.3.5.6c0 0 0 .5-.5.6 0 0-.5.1-.6.1 0 0-.2.2-.2.5l-.1 3s-.1.3.4.3c0 0 .7-.1.9.3 0 0 .2.7-.2.8l-.3.1-.6.1s-.3 0-.3.5v.8s0 .6-.4.6l-.6.1s-.2.1-.5.1c0 0-3.9.1-4 0l-.4-.2s-.5.5-.9.1l-.3-.3s-.2.1-.3 0c-.1 0-4.3.1-4.3.1s-.9.1-1-.2c0 0-.1-1.2-.1-1.3 0 0 0-.3-.2-.4l-.9-.1s-.5-.3-.3-.7c0 0 .2-.5.6-.5 0 0 .7.1.7-.1 0 0 .1-.1.1-.4 0 0 .1-2.7 0-2.9 0 0 .1-.3-.2-.3 0 0-.3.1-.5-.1 0 0-.6 0-.7-.4 0 0-.1-.3.1-.5 0 0 .3-.5 1-.3 0 0 .4.1.5-.2v-1.1s-.1-.3.5-.5c0 0 .7.2 1-.2 0 0 .3-.5.5-.2 0 0 .4.4 1.6.4 0 0 2.1-.2 2.1-.1-.2.1.3.2.5.4z"/><path d="M17.5 71.7s.2-.1.2-.2c0 0 .5-.1.6-.1l1.5.1s1.5.1 2.1-.4c0 0 .2 0 .4.1 0 0 .3.1.4.2h.9s.5.2.5.5v.4s-.1.8.1.9h.7s.6.3.5.6c0 0 0 .5-.5.6 0 0-.5.1-.6.1 0 0-.2.2-.2.5l-.1 3s-.1.3.4.3c0 0 .7-.1.9.3 0 0 .2.7-.2.8l-.3.1-.6.1s-.3 0-.3.5v.8s0 .6-.4.6l-.6.1s-.2.1-.5.1c0 0-3.9.1-4 0l-.5.1s-.5.5-.9.1l-.3-.3s-.2.1-.3 0c-.1 0-4.3.1-4.3.1s-.9.1-1-.2c0 0-.1-1.2-.1-1.3 0 0 0-.3-.2-.4l-.9-.1s-.5-.3-.3-.7c0 0 .2-.5.6-.5 0 0 .7.1.7-.1 0 0 .1-.1.1-.4 0 0 .1-2.7 0-2.9 0 0 .1-.3-.2-.3 0 0-.3.1-.5-.1 0 0-.6 0-.7-.4 0 0-.1-.3.1-.5 0 0 .3-.5 1-.3 0 0 .4.1.5-.2v-1.1s-.1-.3.5-.5c0 0 .7.2 1-.2 0 0 .3-.5.5-.2 0 0 .4.4 1.6.4 0 0 2.1-.2 2.1-.1 0 0 .5.1.6.2z" fill="none" stroke="#000" stroke-width=".01"/><path d="M18.1 80.7s.3-.1.5-.1c.2.1 2.9 0 2.9 0s1.2.1 1.3-.1l.3-.1s.1-.1.1-.3v-.8l.1-.2v-6.3s.1-.5-.2-.8c0 0 0-.2.1-.2h.1s.4-.1.5.1c0 0 .2.6 0 .9 0 0-.1.7.3.7 0 0 .1.1.4.1 0 0 .6.1.6.3 0 0 0 .4-.4.3l-.7-.1s-.4.1-.3.5 0 3.6 0 3.6 0 .4.6.3c0 0 .7 0 .7.2 0 0 .2.5-.3.5 0 0-1 0-.9.3 0 0-.1.6-.1.8 0 0 .1.5 0 .6 0 0-.1.3-.7.3h-4.6c-.1-.2-.4-.2-.3-.5m-.7-.5s.4.1.4.4 0 .6-.2.6c-.2.1-.5 0-.5-.3-.2-.2 0-.6.3-.7" fill="#fff"/><path d="M17.8 80.1s.4-.3.6-.2c0 0 2.1.1 2.7 0s.3 0 .3 0 .6 0 .7-.2c0 0 .2-.1.3.1l.3.4s0 .2-.4.2h-3.9c.1-.1-.6 0-.6-.3" fill="#fff"/><path d="M17.8 80.1s.4-.3.6-.2c0 0 2.1.1 2.7 0s.3 0 .3 0 .6 0 .7-.2c0 0 .2-.1.3.1l.3.4s0 .2-.4.2h-3.9c.1-.1-.6 0-.6-.3z" fill="none" stroke="#000" stroke-width=".012"/><path d="M12.4 71.9s.2 0 .1.3l-.1 6.9s.1.5-.3.8c0 0-.2.3-.2-.1l.1-7.1c.1 0 .1-.5.4-.8" fill="#fff"/><path d="M12.4 71.9s.2 0 .1.3l-.1 6.9s.1.5-.3.8c0 0-.2.3-.2-.1l.1-7.1c.1 0 .1-.5.4-.8z" fill="none" stroke="#000" stroke-width=".012"/><path d="M12 72s-.3.5-.3.6v7.5s-.1.6.4.4c0 0 4-.1 4.3 0 0 0 .4.1.2.3 0 0 0 .2-.3.1 0 0-1.9.2-3.6.1 0 0-1.1.1-1.2-.1 0 0-.2 0-.2-.7 0 0 0-.6-.1-.7 0 0 .1-.3-.5-.4 0 0-.8.1-.8-.3 0 0 .1-.3.9-.3 0 0 .6.1.5-.4l.1-3.4s.1-.6-.3-.6h-.5s-.7 0-.6-.4c0 0 .2-.4.9-.3 0 0 .5.1.5-.5 0 0 0-1.2.3-1.2-.1.1.5.1.3.3" fill="#fff"/><path d="M12.7 79.6s.3.3.8.3l3.1.1s.4 0 .3.2c0 0-.1.3-.5.2l-3.8-.1h-.4s-.3-.1.2-.6z" fill="#fff"/><path d="M12.7 79.6s.3.3.8.3l3.1.1s.3 0 .3.2c0 0-.1.3-.5.2h-4.2s-.3-.1.2-.6z" fill="none" stroke="#000" stroke-width=".012"/><path d="M22.3 79.2s.3.5.4.6c0 0 .3.3.2-.2L23 73s-.1-.2 0-.6l-.3-.5s-.3-.2-.3.1l-.1 7z" fill="#fff"/><path d="M22.3 79.3s.3.5.4.6c0 0 .3.3.2-.2L23 73s-.1-.2 0-.6l-.3-.5s-.3-.2-.3.1l-.1 7z" fill="none" stroke="#000" stroke-width=".012"/><path d="M17.3 76.1s0 .6-.1 1.1c0 .3.1 1.6 0 2.3 0 0 0 .2-.5 0 0 0-2.9.1-3 0 0 0-.8 0-.9-.4 0 0 .1-3.1.1-3.2 0 0-.1-1.7 0-1.9 0 0 .1-1.6 0-1.8 0 0 0-.4-.1-.6 0 0 0-.2.4-.1 0 0 .1.3.9.1 0 0 .6.1 1.1 0 0 0 1.2-.1 1.5 0 0 0 .5-.1.6.4v1.4l.1.5.2-.1.1-.3V72s.1-.3.5-.3c0 0 .6-.1.7 0s1.3.1 1.7.1.4.2 1.4-.3c0 0 .3 0 .3.2 0 0-.1 2 0 2.3 0 0 0 3.6-.1 3.8l.1 1.1s.1.5-.8.6c0 0 .5.1-2.7 0 0 0-.5 0-1.1.2 0 0-.1 0-.1-.3 0 0 .1-1.1 0-2.1l-.1-1.2z" fill="#fff"/><path d="M15.2 74.5s.1 1.7 0 1.9v.4s.1.3.2.3c0 0 .1.3-.2.3 0 0-.6-.1-.7 0 0 0-.3 0 0-.4 0 0 .1-.2.1-.6 0 0 0-1.9.1-2 0 0 .1-.3-.1-.3h-.3l-.3.3s-.1.3-.2 0v-.2l.2-.6h.1l.4.2h1.1l.4-.2s.2 0 .1.2c0 0 .1.5-.2.6 0 0-.2-.1-.3-.3-.1 0-.4-.1-.4.4m5.1-.6s-.9-.1-.9.9c0 0-.1.6.9 1.1 0 0 .7.3.7.8 0 0-.1.8-.8.4 0 0-.4-.2-.3-.4 0 0-.1-.3-.3-.2 0 0-.2.1-.1.8 0 0 0 .3.3 0l.2.1s.6.5 1.1-.1c0 0 .6-.5.2-1.2 0 0-.3-.5-.8-.7 0 0-.5-.2-.6-.6 0 0 .2-.7.8-.3 0 0 .2.3.4.3 0 0 .2 0 .1-.4l-.2-.5s-.1-.3-.4 0c0 0-.3.1-.3 0m-3.2 1c0 .1-.2.8-.2.8l.1.2h.5c.1 0 .2-.1.2-.2s-.3-.8-.3-.8l-.1-.1zm.4-1.5c.2.1.2.3.2.3.5 1.2.8 3 .8 3 .1.2.3.4.3.4.4.1 0 .3 0 .3-.2.1-.7 0-.7 0-.3-.1-.2-.1-.2-.1.1-.1 0-.6 0-.6 0-.2-.2-.5-.2-.5-.1-.1-.3.2-.3.2s-.3.1-.3 0-.2-.2-.2-.2c-.3 0-.4.7-.4.7.2.6 0 .5 0 .5-.1.2-.6.1-.6.1-.2-.1-.1-.2-.1-.2.3-.1.3-.3.3-.3.1-.2.8-3.1.8-3.1.4-.3.4-.6.6-.5m-6.2-5.5s-.3.8-1.4 0L6 67.8s-.5.2-.6-.4l.1-1.1s0-.3-.5-.3c0 0-.8.1-.8-.6 0 0-.1-.7.9-.7 0 0 .3.2.4-.3 0 0-.1-3 0-3.2 0 0 .1-.3-.4-.3 0 0-.8.2-.8-.3 0 0-.1-.8.5-.8 0 0 .6.1.7-.1 0 0 .1.1.1-.5v-.9s.1-.3.5-.2c0 0 .7.1.8 0 0 0 .2-.2.2-.3 0 0 .4 0 .4.1 0 0 .6.4 2.6.2 0 0 .3 0 .4.1 0 0 .4.3.6 0 0 0 .3-.1 1.4-.1 0 0 1.1.3 1.9-.3l.3.1s.3.5.6.4c0 0 .7-.1.8.1 0 0 .2.3.1 1.2 0 0-.1.4.5.4 0 0 .8-.1.7.6 0 0 .2.8-1.1.7 0 0-.2.2-.1.4 0 0 0 2.6-.1 2.9 0 0 0 .4.5.4 0 0 .7-.1.8.6 0 0 .1.9-1 .7 0 0-.3.1-.4.3v.8s0 .6-.6.4c-.1 0-3.6.1-3.9 0 0 0-.2 0-.2.1"/><path d="M11.3 67.9s-.3.8-1.4 0L6 67.8s-.5.2-.6-.4l.1-1.1s0-.3-.5-.3c0 0-.8.1-.8-.6 0 0-.1-.7.9-.7 0 0 .3.2.4-.3 0 0-.1-3 0-3.2 0 0 .1-.3-.4-.3 0 0-.8.2-.8-.4 0 0-.1-.8.5-.8 0 0 .6.1.7-.1 0 0 .1.1.1-.5v-.9s.1-.3.5-.2c0 0 .7.1.8 0 0 0 .2-.2.2-.3 0 0 .4 0 .4.1 0 0 .6.4 2.6.2 0 0 .3 0 .4.1 0 0 .4.3.6 0 0 0 .3-.1 1.4-.1 0 0 1.1.3 1.9-.3l.3.1s.3.5.6.4c0 0 .7-.1.8.1 0 0 .2.3.1 1.2 0 0-.1.4.5.4 0 0 .8-.1.7.6 0 0 .2.8-1.1.7 0 0-.2.2-.1.4 0 0 0 2.6-.1 2.9 0 0 0 .4.5.4 0 0 .7-.1.8.6 0 0 .1.9-1 .7 0 0-.3.1-.4.3v.9s0 .6-.6.4c-.1 0-3.6.1-3.9 0 0 0-.2 0-.2.1z" fill="none" stroke="#000" stroke-width=".01"/><path d="M6.9 58.4s.1.5.1.6-.1 6.6-.1 6.6.1.5-.4.8c0 0-.1.1-.1-.3l.1-6.9c-.1 0 0-.8.4-.8" fill="#fff"/><path d="M6.9 58.4s.1.5.1.6-.1 6.6-.1 6.6.1.5-.4.8c0 0-.1.1-.1-.3l.1-6.9c-.1 0 0-.8.4-.8z" fill="none" stroke="#000" stroke-width=".012"/><path d="M6.2 66.4s.1-6.5 0-6.6v.1s-.1-1.1.2-1.6c0 0-.1-.4-.6.1v.9s0 .5-.5.5c0 0-.6 0-.8.2 0 0-.1.5.4.4 0 0 .8 0 .9.3l-.1 3.5s.2.6-.5.6c0 0-.8-.1-.8.4 0 0 .2.4.8.3 0 0 .5.1.5.6v.9s-.1.3.4.4h3.6s.2 0 .2-.2c0 0 0-.2-.3-.2H6.7s-.5.1-.5-.6" fill="#fff"/><path d="M6.8 66.5s-.1.3.3.3h2.4l.6.1s.7-.2 0-.5H7.8s-.4-.1-.5-.1c-.1-.1-.3-.2-.5.2" fill="#fff"/><path d="M6.8 66.5s-.1.3.3.3h2.4l.6.1s.7-.2 0-.5H7.8s-.4-.1-.5-.1c-.1-.1-.3-.2-.5.2z" fill="none" stroke="#000" stroke-width=".012"/><path d="M10.7 66.8s-.4 0-.4.6c0 0 .1.4.5.4 0 0 .4-.1.4-.5 0 0-.3-.6-.5-.5m.3-.2s.2-.2.3-.2c0 0 2.3.2 2.7-.1 0 0 .3-.1.4 0 0 0 .3.3.3.4 0 0 0 .2-.4.1h-2.7c.1 0-.6.2-.6-.2" fill="#fff"/><path d="M11 66.6s.2-.2.3-.2c0 0 2.3.2 2.7-.1 0 0 .4-.1.4 0 0 0 .3.3.3.4 0 0 0 .2-.4.1h-2.7c.1 0-.6.2-.6-.2z" fill="none" stroke="#000" stroke-width=".012"/><path d="M11.4 67.3s0-.2.3-.2h3.2s.3.2.3-.4c0 0 .1-2.5.1-5.3v-2.5s-.1-.3-.2-.4c0 0 0-.4.4-.2 0 0 .3 0 .3.6v.8s-.1.3.6.3c0 0 .6.1.6.3 0 0 .2.5-.5.4H16s-.2.1-.2.4l-.1 3.3s-.1.6.5.6c0 0 .6 0 .7.2 0 0 .4.6-.5.5 0 0-.5 0-.6.1 0 0-.1.1-.2 1.2 0 0 .1.6-.4.6 0 0-3.2.1-3.5 0 .1-.2-.3-.1-.3-.3m-4.1-9.1l-.1 7.4s0 .3.6.4c0 0 .7.1.8 0h1.5s.3.3.3-.1c0 0 .2-6 .1-7.2 0 0 0-.5-.4-.6 0 0-1.7.1-1.9 0l-.7-.1s-.2 0-.2.2" fill="#fff"/><path d="M14.5 58.5v7.2s.2.6.5.6c0 0 .1-.1.1-.4l.1-6.9s-.3-1.1-.7-.5" fill="#fff"/><path d="M14.5 58.5v7.2s.2.6.5.6c0 0 .1-.1.1-.4l.1-6.9s-.3-1.1-.7-.5" fill="none" stroke="#000" stroke-width=".012"/><path d="M14.5 58.5v7.2s.2.6.5.6c0 0 .1-.1.1-.4l.1-6.9s-.3-1.1-.7-.5z" fill="none" stroke="#000" stroke-width=".012"/><path d="M10.9 58.5s-.1 3.5-.1 3.6V65l-.1 1s.1.2.3.1c0 0 .7-.2 1.2-.1 0 0 1.5.1 1.8-.1 0 0 .2.1.3-.3 0 0 .1-6.4.1-6.5 0 0 .1-.9.1-1 0 0 0-.2-.4 0 0 0 .1.2-2.1.1-.2 0-1.1 0-1.1.3" fill="#fff"/><path d="M10.2 60.7l-.2.4s-.5 2.2-.8 2.7c0 0-.1.5-.4.1 0 0-.9-2.8-.9-2.9l-.3-.2s-.2-.3.1-.3h.8s.3.2-.1.5c0 0 .1.4.5 1.8 0 0 .1.5.3.1l.5-1.6-.1-.5s-.1-.2.1-.3c-.1 0 .4 0 .5.2m1.3.3v2.4l-.1.2s-.2.3-.1.3c0 0-.2.1 1.5.2 0 0 .6.1.5-.7 0 0-.1-.3-.3.1 0 0-.1.4-.9.3 0 0-.2-.2-.2-.3v-1s0-.3.4-.2c0 0 .4.3.5.2 0 0 .2-.4 0-.6 0 0-.2 0-.2.1 0 0-.1.3-.5.1 0 0-.2-.4-.1-.7 0 0-.1-.6.3-.5 0 0 .5.1.5.2 0 0 .1.3.2-.1l-.1-.4s-.1-.2-.2-.1c0 0-.8.1-.9 0l-.6.1s-.1.2.2.3c0 0 .1 0 .1.1"/></svg>
