<svg viewBox="0 0 217 43" fill="none" xmlns="http://www.w3.org/2000/svg">
	<path d="M6.56471 31.2767C6.23039 31.1275 5.85049 31.038 5.54657 30.8292C5.75931 31.5601 5.92647 32.2014 6.33676 32.9621C6.56471 33.3946 6.975 32.3356 6.56471 31.2618M5.53137 19.0016L5.56176 19.0315C5.56176 20.0158 2.7201 21.4477 1.50441 22.089C3.38873 22.7304 5.16667 21.0151 4.95392 21.4328C4.69559 21.925 2.40098 23.8639 1.41324 24.8931C2.18824 25.1019 2.90245 24.4904 3.46471 24.0131C4.08774 23.491 5.10588 22.2084 4.95392 22.8497C3.28235 24.8632 1.97549 29.0693 2.78088 29.3377C3.23676 28.3832 5.16667 23.5358 5.27304 23.5656C5.39461 23.5954 5.12108 24.8483 5.07549 25.6835C4.98431 27.5181 4.96912 28.3683 5.37941 30.173C5.59216 29.8896 5.78971 29.9045 6.10882 29.9194C6.15441 29.7404 6.13922 29.7852 5.92647 29.5167C5.39461 28.8306 6.00245 27.8761 5.74412 27.3093C5.53137 26.832 5.4098 27.2049 5.31863 26.7127C5.47059 26.5785 5.86569 26.5337 6.03284 26.5188C6.2 24.6395 6.85343 23.6849 6.61029 24.8781C6.48873 25.4747 6.30637 26.474 6.38235 26.5039C6.47353 26.5337 6.47353 26.5337 6.54951 26.5785C6.5799 26.5934 9.75588 21.4626 7.99314 25.0273C7.7652 25.4897 6.82304 26.7425 6.82304 26.7425C7.06618 26.9961 7.30931 27.2795 7.33971 27.4584C7.33971 27.5032 11.5946 21.9697 8.70735 26.4293C8.525 26.6978 7.65882 27.6225 7.44608 27.8761C7.41569 27.9059 7.52206 28.9201 7.52206 28.9201C7.96274 28.6218 8.60098 28.0103 8.88971 27.6225C8.84412 27.0557 8.98088 27.1303 9.01127 26.5785C9.14804 26.489 9.33039 26.7276 9.54314 26.9215C9.64951 27.011 12.4608 22.1934 10.698 25.8029C10.4093 26.3846 9.78627 27.0707 9.75588 27.1303C9.87745 27.2496 10.0598 27.6523 10.2574 28.1147C10.2574 28.1296 14.026 22.79 11.7466 26.832C11.5642 27.1452 10.4397 28.4876 10.4549 28.5174C10.7284 29.1886 10.9716 29.8299 10.9716 29.8299C10.9108 29.3079 10.7892 28.2788 11.8985 27.4435C12.0353 28.3683 12.2936 28.413 12.6279 28.6964C12.7647 28.8157 13.0382 29.3526 13.0686 28.9052C13.1598 27.5927 12.7191 27.6225 12.4 27.0557C12.324 26.9215 12.3392 26.6232 12.4 26.6381C15.1049 26.7127 15.0137 29.2035 15.4696 29.2035C15.2569 28.5622 15.2113 27.9506 15.4544 27.4435C14.725 26.9364 14.9074 26.0713 15.0441 25.6985C14.2235 24.8781 14.6946 23.1182 15.0897 22.7453C14.5578 21.9995 15.2113 21.4924 15.0745 21.0301C14.8466 19.4043 13.3725 19.8965 13.0534 18.3454C12.8255 18.6138 12.4 19.5535 12.5975 19.8667C12.8255 20.2247 13.327 20.2545 13.3422 20.508C13.3422 20.6124 13.3877 20.9257 13.3118 21.0002C13.0382 21.045 12.8407 20.8063 12.552 20.687C11.9745 20.4633 10.5917 21.4029 10.5157 20.5677C10.4549 20.0457 10.698 20.4185 10.6676 19.9413C10.6373 19.4491 10.3941 19.7921 10.3941 19.1657C10.3941 18.7033 10.9716 18.5542 11.002 18.3603C11.1083 17.8979 11.9593 19.0464 12.4608 17.8233C12.1721 17.8681 11.5794 17.6593 11.625 17.3759C11.777 16.6152 11.7922 14.7807 10.0294 15.1685C9.40637 15.3176 7.64363 16.2125 7.40049 15.2281C6.76225 16.3318 8.02353 16.1379 8.38824 16.1081C8.23627 16.2125 8.05392 16.3766 7.58284 16.2722C6.5951 16.9135 2.99363 19.1657 1.9451 19.7325C3.34314 20.3738 5.50098 19.0464 5.53137 19.0464M8.9201 28.0998C8.43382 28.5771 8.26667 28.592 8.28186 28.8008C8.38824 29.0991 8.60098 29.3079 8.82892 29.5465C9.11765 29.7852 9.22402 29.9791 9.01127 29.3079C8.87451 28.8605 8.9049 28.5323 8.9049 28.0849M16.7917 17.6145C16.7005 17.4206 16.5637 17.2416 16.351 17.1522C15.4696 16.7495 13.798 17.6294 13.8132 16.3318C13.8132 16.3318 13.2206 16.7644 13.4941 17.2267C14.1172 18.2708 15.8647 16.9732 16.8069 17.6145M3.60147 4.71303C2.12745 4.71303 2.09706 6.92046 3.60147 6.92046C5.10588 6.92046 5.07549 4.71303 3.60147 4.71303ZM3.60147 9.11296C2.06667 9.11296 2.06667 11.3204 3.60147 11.3204C5.13627 11.3204 5.07549 9.11296 3.60147 9.11296ZM5.13627 6.5625H6.44314V5.29472H5.13627V6.5625ZM5.13627 10.9624H6.44314V9.69465H5.13627V10.9624ZM8.70735 9.59024C8.11471 9.9482 8.22108 10.336 8.41863 10.5746C8.525 10.5001 8.9049 10.2465 9.05686 10.0974C8.96569 10.0526 8.76814 9.75431 8.70735 9.59024ZM10.0598 7.63638C10.0598 7.51706 10.0598 7.39774 10.0446 7.33808C10.0598 7.21876 9.84706 6.9652 9.78627 6.9652C9.71029 6.9652 9.57353 7.09944 9.48235 7.21876C9.43676 7.29333 9.43676 7.48723 9.52794 7.59163C9.71029 7.80044 9.80147 7.80044 10.075 7.63638M10.0598 8.24789C10.0598 8.24789 10.0598 8.1584 10.0598 8.09874C10.0598 8.03908 10.0598 7.88993 10.0598 7.74078C9.87745 7.84519 9.80147 7.93468 9.61912 7.83027C9.3152 8.06891 9.78627 8.23298 9.87745 8.30755C9.95343 8.27772 10.0142 8.26281 10.0598 8.24789ZM12.4456 4.71303C12.552 4.63846 12.7951 4.36999 12.9623 4.20592C12.8711 4.14626 12.7039 4.04186 12.6431 3.89271C12.3544 4.11643 12.3088 4.26558 12.4456 4.71303ZM14.5426 4.9815C14.3755 5.11574 14.2235 5.23506 14.1324 5.30963C14.1931 5.42895 14.5882 5.71234 14.8162 5.60793C15.0441 5.50353 15.1353 5.29472 14.9377 5.1754C14.801 5.10082 14.6642 5.04116 14.5426 4.9815ZM14.7098 4.63846C14.8162 4.54897 14.9074 4.47439 14.9377 4.45948C14.7858 4.31033 14.5274 4.17609 14.4059 4.16118C14.2843 4.16118 14.0564 4.25067 14.1475 4.36999C14.2387 4.48931 14.3299 4.62354 14.5123 4.65337C14.573 4.65337 14.6338 4.65337 14.6946 4.65337M15.3176 10.336C15.3176 10.1868 15.3328 10.0228 15.3176 9.9482C15.3328 9.82889 14.9681 9.62007 14.9225 9.62007C14.8466 9.62007 14.8466 9.66482 14.7554 9.79906C14.7098 9.87363 14.7554 10.0974 14.7858 10.1272C14.9833 10.2913 15.1353 10.3509 15.3176 10.3509M14.8466 10.3658C14.5275 10.6194 14.8922 10.858 14.9833 10.9326C15.0897 10.8729 15.2265 10.858 15.3328 10.8133C15.3176 10.7685 15.3025 10.7387 15.3025 10.679C15.3025 10.6194 15.3025 10.5299 15.3176 10.4255C15.1049 10.4404 15.0137 10.4553 14.8466 10.3509M14.1475 10.7685L13.95 10.9773L13.7676 11.1563C13.6309 11.0072 13.5245 10.9923 13.4941 10.8729V9.96312L13.1902 9.81397C13.0534 9.93329 12.9471 9.87363 13.0686 9.78414L13.5093 9.38143H13.6157L13.9044 9.76923V10.6343C14.026 10.7387 13.9196 10.7387 14.1475 10.7685ZM14.0564 7.97942C13.9044 7.57672 14.1779 7.20384 14.3147 7.08452C14.4211 6.99503 14.6642 6.80114 14.8162 6.69673C14.9681 6.78622 15.0897 6.84588 15.1657 6.89063C15.1353 6.9652 15.1049 7.11435 14.9377 7.11435C14.6946 7.11435 14.4971 7.05469 14.3755 7.20384C14.2387 7.33808 14.3451 7.74078 14.5123 7.88993C14.6338 8.00925 14.9681 8.1584 15.0441 8.02417C15.1201 7.84519 15.2417 7.93468 15.1353 8.09874C15.0593 8.20315 14.9074 8.41196 14.8314 8.56111C14.573 8.54619 14.2235 8.41196 14.0716 7.99434M14.4211 10.8282C14.4211 10.6045 14.5426 10.4255 14.6946 10.2614C14.6946 10.2614 14.6794 10.2465 14.6642 10.2316C14.6186 10.1868 14.5426 9.79906 14.6034 9.70957C14.6794 9.60516 15.0441 9.26211 15.2721 9.2472C15.4392 9.23228 15.6824 9.57533 15.8191 9.7394C15.7735 9.78414 15.8647 10.7387 15.8647 10.8282C15.9103 10.9028 16.0774 10.9624 16.1382 10.8879C16.2142 10.7984 16.275 10.8879 16.2142 10.9624C16.1382 11.0221 15.9103 11.216 15.8343 11.3055C15.7279 11.216 15.5456 11.1265 15.424 10.9923C15.1809 11.037 14.9225 11.216 14.725 11.3502C14.5123 11.2607 14.4363 11.037 14.4211 10.8282ZM16.3966 8.38213L16.199 8.59094L15.9559 8.79975C15.8191 8.6506 15.7127 8.62077 15.6975 8.50145V7.5618L15.4544 7.42757C15.3176 7.54689 15.2113 7.48723 15.3328 7.38282L15.7735 6.98012H15.8799L16.0774 7.24859V8.24789C16.1838 8.3523 16.1838 8.33738 16.4118 8.38213M16.1534 5.30963C15.6216 5.24997 15.7583 5.08591 15.8495 5.10082C16.351 5.13065 16.2294 5.32455 16.1534 5.30963ZM16.1686 4.99642C15.6368 5.01133 15.7735 4.77269 15.8647 4.78761C16.3206 4.81744 16.2598 4.99642 16.1686 4.99642ZM15.7279 6.11505L15.9559 6.33877V6.57741L15.7887 6.72656H15.652L15.5152 6.57741V6.29402L15.7431 6.08521L15.7279 6.11505ZM15.5 4.20592C15.5 4.20592 15.2417 4.42965 14.9985 4.62354C15.0289 4.62354 15.0745 4.62354 15.1049 4.65337C15.4848 4.8771 15.6216 5.19031 15.2417 5.48861C15.0289 5.65268 14.6946 5.83166 14.3299 5.84657C14.0868 5.84657 13.6613 5.65268 13.5853 5.56319C13.7828 5.38421 13.9956 5.19031 14.1475 5.05608C13.9044 4.8771 13.6765 4.63846 13.874 4.35507C14.0108 4.14626 14.4363 3.81813 14.8162 3.83305C15.1961 3.84796 15.3632 4.10152 15.5152 4.20592M13.4789 5.42895C13.3725 5.48861 13.1598 5.69742 12.9926 5.69742C12.4912 5.68251 11.8529 5.30963 11.9441 4.65337C12.0505 3.95237 12.5975 3.6839 12.8407 3.6839C13.1142 3.69881 13.175 3.93745 13.3422 4.07169C13.1142 4.26558 12.7191 4.63846 12.4912 4.86218C12.552 4.9815 12.8103 5.41404 13.3725 5.2798C13.6309 5.22014 13.7069 5.32455 13.4941 5.42895M11.8074 4.32524C11.7162 4.41473 11.5034 4.54897 11.4275 4.60863C11.3211 4.54897 11.1843 4.35507 11.1235 4.31033C11.0931 4.34016 11.0324 4.36999 10.9716 4.39982C10.9716 4.51914 10.9716 5.65268 10.9716 5.78691C10.8044 5.78691 10.6676 5.80183 10.5613 5.78691C10.5613 5.62285 10.5613 4.71303 10.5613 4.56388C10.5613 4.3849 10.3789 4.36999 10.1662 4.31033C10.2877 4.16118 10.5157 3.99711 10.6221 3.92254C10.8044 4.07169 10.926 4.07169 11.0172 4.16118C11.1387 4.10152 11.3515 3.96728 11.4426 3.89271C11.5338 3.99711 11.6858 4.16118 11.7466 4.23575C11.8377 4.16118 11.9289 4.23575 11.8377 4.31033M10.0446 6.65199C10.2118 6.63707 10.3485 6.9652 10.4853 7.11435C10.4397 7.1591 10.4397 8.11366 10.4397 8.20315C10.4701 8.26281 10.5917 8.32247 10.6373 8.27772C10.7132 8.20315 10.7588 8.27772 10.698 8.33738C10.6373 8.39704 10.3181 8.66551 10.2422 8.755C10.1358 8.66551 10.0902 8.54619 10.075 8.38213C9.87745 8.42687 9.6951 8.53128 9.58873 8.71026C9.37598 8.60585 9.19363 8.42687 9.19363 8.21806C9.19363 8.00925 9.34559 7.87502 9.49755 7.72587C9.46716 7.71095 9.45196 7.68112 9.42157 7.66621C9.37598 7.62146 9.3152 7.27842 9.36078 7.18893C9.46716 6.95029 9.81667 6.6669 10.0598 6.65199M9.72549 6.15979C9.64951 6.05539 9.63431 5.9659 9.48235 6.01064C9.10245 6.11505 8.70735 6.23436 8.40343 6.05538C8.08431 5.86149 7.81078 5.80183 7.81078 5.10082C7.81078 4.66829 8.19069 4.32524 8.43382 4.19101C8.72255 4.02694 9.20882 4.13135 9.43676 4.19101C9.54314 4.22084 9.61912 4.20592 9.63431 4.07169C9.63431 3.99711 9.75588 4.01203 9.75588 4.07169C9.75588 4.13135 9.75588 4.99642 9.75588 5.07099C9.75588 5.14557 9.60392 5.14557 9.61912 5.07099C9.61912 4.96659 9.58873 4.78761 9.55833 4.62354C9.51274 4.39982 8.9049 3.96728 8.46422 4.53405C8.46422 4.56388 8.28186 4.86218 8.29706 5.08591C8.29706 5.24997 8.34265 5.50353 8.46422 5.65268C8.81373 6.12996 9.3 5.96589 9.55833 5.5781C9.64951 5.42895 9.63431 5.26489 9.64951 5.16048C9.64951 5.10082 9.78627 5.08591 9.78627 5.16048C9.78627 5.23506 9.78627 5.80183 9.78627 5.86149C9.78627 5.95098 9.84706 6.01064 9.89265 6.05538C9.98382 6.18962 9.89265 6.27911 9.75588 6.12996M7.85637 7.08452C8.02353 6.83097 8.43382 6.59233 8.70735 6.50284C8.79853 6.60724 8.9049 6.75639 9.02647 6.92046C8.9049 7.02486 8.76814 7.14418 8.69216 7.23367C8.63137 7.17401 8.29706 6.68182 8.06912 7.02486C7.94755 7.20384 7.81078 7.72587 8.23627 8.054C8.44902 8.20315 8.66176 8.26281 8.95049 8.21806C8.79853 8.39704 8.76814 8.4567 8.69216 8.62077C8.28186 8.69534 8.11471 8.56111 7.90196 8.39704C7.47647 8.054 7.61323 7.4574 7.85637 7.08452ZM8.03872 10.3062C8.1451 9.60516 8.82892 9.32177 9.04167 9.18754C9.07206 9.39635 9.3152 9.7394 9.46716 9.88855C9.23921 10.0824 8.69216 10.515 8.49461 10.6641C8.60098 10.8729 9.02647 11.0072 9.17843 10.858C9.2848 10.7536 9.42157 10.7834 9.3 10.9326C9.14804 11.1116 8.98088 11.3651 8.9049 11.5143C8.60098 11.38 7.94755 10.9923 8.03872 10.3211M9.6799 9.72448C9.87745 9.57533 9.98382 9.45601 10.1206 9.33669C10.2422 9.51567 10.2877 9.69465 10.3941 9.76923C10.5309 9.64991 10.7588 9.51567 10.8652 9.39635C10.9716 9.44109 11.1539 9.5455 11.1539 9.90346C11.1539 10.2614 11.2147 10.8133 11.2147 10.9475C11.2147 11.0072 11.2299 10.9923 11.3363 10.9773C11.4426 10.9475 11.473 10.9923 11.3971 11.0668C11.3211 11.1265 10.9564 11.38 10.8652 11.4845C10.7436 11.2458 10.7132 11.0817 10.774 10.858C10.8196 10.679 10.774 10.157 10.774 10.0377C10.774 9.91838 10.5917 9.88855 10.5157 9.81397C10.4093 9.88855 10.3941 9.90346 10.3029 9.99295C10.3029 10.1421 10.2877 11.216 10.3029 11.3651C10.0598 11.3651 10.075 11.3651 9.93824 11.3651C9.93824 11.1563 9.93824 10.336 9.92304 10.157C9.92304 9.97803 9.75588 9.8438 9.66471 9.75431M11.5794 8.47162C11.473 8.56111 11.2451 8.41196 11.1539 8.27772C11.0172 8.054 11.0627 7.54689 11.0779 7.11435C11.0931 7.11435 11.002 7.00995 10.9108 6.99503C10.8044 6.9652 10.774 6.92046 10.9564 6.8608C11.1691 6.77131 11.5034 6.2642 11.549 6.15979C11.5946 6.05539 11.6554 6.15979 11.5946 6.26419C11.4578 6.51775 11.5186 6.80114 11.5338 6.89063C11.5338 6.93537 11.9593 6.89063 12.0353 6.89063C12.0961 6.89063 12.0809 7.05469 12.0353 7.05469C11.9593 7.05469 11.4275 7.11435 11.4275 7.11435C11.3971 7.12927 11.473 7.94959 11.5186 8.00925C11.5186 8.00925 11.6858 8.1584 11.7618 8.09874C11.8377 8.02417 11.9137 8.09874 11.8225 8.17332C11.777 8.21806 11.6858 8.38213 11.5642 8.47162M11.8074 9.69465C11.9745 9.57533 12.248 9.06822 12.2936 8.96381C12.324 8.84449 12.4 8.88924 12.3848 9.00856C12.3696 9.18754 12.2784 9.59024 12.324 9.66482C12.3392 9.70956 12.5975 9.70957 12.6887 9.70957C12.7495 9.70957 12.7495 9.87363 12.6887 9.87363C12.6127 9.87363 12.324 9.91838 12.324 9.91838C12.2784 9.93329 12.3088 10.5299 12.3544 10.5896C12.476 10.694 12.552 10.7685 12.7191 10.6045C12.7951 10.5299 12.8711 10.6045 12.7799 10.679C12.7343 10.7238 12.5064 10.9773 12.4608 11.1116C12.4152 11.2309 12.1265 11.1414 12.0353 11.0072C11.8833 10.7984 11.9593 10.3658 11.9441 9.93329C11.9745 9.93329 11.6706 9.79906 11.8074 9.69465ZM13.7676 8.91907C13.6309 9.03839 13.5245 9.15771 13.4029 9.29194C13.2966 9.23228 13.1446 9.09805 13.0382 8.99364C13.2358 8.90415 13.3422 8.78483 13.4029 8.66551C13.4789 8.82958 13.6309 8.88924 13.7676 8.91907ZM12.8863 6.83097C13.1902 6.93537 13.6461 6.8608 13.798 7.2635C13.95 7.69604 13.6765 8.23298 13.3118 8.26281C13.0078 8.29264 12.7343 8.18823 12.5672 8.20315C12.4912 8.20315 12.4304 8.23298 12.4152 8.32247C12.4152 8.41196 12.2784 8.4567 12.2632 8.32247C12.2328 8.20315 12.2024 7.72587 12.2024 7.59163C12.2024 7.4574 12.3392 7.44248 12.3544 7.59163C12.3848 7.74078 12.4304 7.84519 12.5368 7.97942C12.6279 8.08383 13.2206 8.21806 13.4333 8.054C13.6005 7.91976 13.5701 7.62146 13.3877 7.50214C13.2054 7.38282 12.476 7.21876 12.3544 7.00995C12.1417 6.65199 12.5216 6.3686 12.6887 6.26419C12.9471 6.11504 13.251 6.15979 13.3574 6.17471C13.4637 6.17471 13.6005 6.20454 13.6005 6.10013C13.6005 5.99573 13.6917 5.99573 13.7069 6.10013C13.7373 6.41335 13.7676 6.21945 13.7676 6.5625C13.7676 6.71165 13.7069 6.71165 13.6461 6.60724C13.6005 6.53267 13.1446 6.15979 12.7799 6.38352C12.476 6.57741 12.5824 6.75639 12.8711 6.83097M14.026 12.3048C15.6368 12.4092 17.0044 13.14 17.0044 13.14V2.96798C17.0044 2.96798 14.649 1.34224 10.8044 2.80391C9.6799 3.23645 6.92941 2.87849 6.92941 2.87849V13.2593C9.33039 13.4234 12.476 12.2004 14.026 12.3048ZM17.8098 15.6457C17.8098 15.78 17.6275 15.9739 17.6275 15.9739L18.2657 15.6607C18.1441 15.5712 17.7794 15.3773 17.6275 15.3325C17.6275 15.3325 17.8098 15.4668 17.8098 15.6457ZM18.7672 15.6308C18.1745 15.7501 17.7338 16.3766 17.0652 16.1081C16.974 16.0484 16.7917 16.0037 16.8221 15.8695C16.9436 15.944 17.126 15.9739 17.2627 16.0037C17.2627 16.0037 16.898 15.7054 17.2172 15.3474C16.8221 15.601 16.6701 15.5264 16.6701 15.3922C16.6701 15.3325 17.202 14.9597 17.7034 15.1386C18.0681 15.2729 18.3721 15.5413 18.7672 15.601V15.6308ZM17.1108 14.4376C16.7765 14.4675 16.3814 14.6614 16.275 15.0044C16.0774 15.1983 16.0775 14.6763 15.6672 14.9C15.5 15.1386 15.9407 15.6457 15.8343 15.6756C15.3936 15.8098 15.4392 15.0193 15.1961 15.0044C14.8314 15.1386 13.9044 15.959 14.8162 16.6152C14.7858 16.1678 15.6368 15.6905 15.9255 16.6749C16.7917 16.6152 17.0804 17.1223 17.1868 17.4057C18.448 17.6294 18.0833 18.4498 18.0529 18.4498C17.9314 18.2708 17.3843 17.4505 16.5029 18.0172C16.2902 18.1515 15.9407 18.2708 15.7583 18.1067C15.7735 18.3752 16.123 18.6287 16.3662 18.5691C17.1564 18.3603 17.3539 19.0762 16.7461 19.285C16.8828 19.4789 17.126 19.464 17.3539 19.3298C17.6882 19.1209 17.7338 18.942 17.8554 18.8226C18.0681 19.8369 16.7613 19.9413 16.351 20.0009C16.4118 20.2097 16.5485 20.2545 16.8221 20.344C15.4392 20.3887 15.1809 21.6565 15.2569 22.3873C15.5608 22.4172 16.0471 21.746 16.0015 22.1338C15.0289 23.148 14.6946 24.5053 15.2113 25.3703C15.4544 25.2659 15.5304 25.0124 15.6216 24.7887C15.652 24.7588 16.1534 24.9825 15.3632 25.9222C15.3025 26.1608 15.0289 26.9066 15.6368 27.0856C15.8647 26.8171 15.8343 26.5785 15.8951 26.2951C16.0774 26.2205 16.199 26.8022 16.123 26.9662C15.3176 27.2944 15.424 29.7106 16.351 31.0231C15.9255 30.0835 15.9711 28.8605 16.351 27.891C16.6397 27.1452 17.2779 25.4598 17.2931 25.4747C17.6578 25.9073 18.1137 27.7717 18.1137 28.5323C18.6152 28.0998 18.7216 27.6374 19.1319 27.3093C19.3294 27.9805 19.4054 28.4279 19.5574 29.0245C19.7549 28.4428 20.2868 27.7866 19.527 25.9073C19.6789 25.773 19.9676 26.5635 20.0588 26.5188C20.1196 26.489 20.226 26.1012 19.9676 25.3554C19.4358 24.8632 19.3142 24.1622 19.4054 24.1026C19.4814 24.0578 19.7093 24.8483 19.998 24.8781C20.0588 24.2666 20.2108 23.6402 20.1652 23.1778C20.1652 23.0585 19.9524 22.4321 19.3598 21.91C19.0255 21.6117 18.8887 20.9853 18.9191 20.8511C19.2534 21.1494 19.1775 21.3582 19.451 21.4775C19.5725 21.224 19.4814 20.2694 19.1471 19.8667C18.9495 19.5535 19.0407 19.5982 19.2838 19.7921C19.5877 20.1501 19.4358 20.1202 19.6941 20.2694C20.2716 18.942 19.7549 18.6884 19.7853 18.5989C19.8157 18.5094 20.226 19.2253 20.5755 18.942C20.0132 18.6437 20.0284 18.2111 19.9676 17.7189C19.9221 17.3311 19.6637 17.1969 19.7701 17.1074C20.3324 17.525 20.4843 17.0627 20.4995 16.9732C20.3931 17.0328 19.8917 17.0925 19.8309 16.3318C19.8005 16.0335 19.3294 15.8993 19.3294 15.8993C19.6181 15.8396 20.5451 15.7949 20.3172 14.8851C20.2108 15.0939 19.9221 15.4369 19.3598 15.3027C19.3598 15.3027 19.7245 15.1983 19.6637 14.8105C18.7672 15.3027 18.0529 14.3034 17.126 14.4376M24.9824 5.07099C25.1343 5.19031 25.5446 5.38421 25.7422 5.45878C25.7422 5.2798 25.7422 5.11574 25.727 5.04116C25.727 4.92184 25.3319 4.71303 25.2559 4.71303C25.1799 4.71303 25.0735 4.83235 24.9824 4.96659C24.9368 5.04116 24.9368 5.05608 24.9824 5.08591M25.4078 6.15979C25.5446 6.10013 25.6358 6.0703 25.7422 6.05538C25.7422 5.99572 25.7422 5.95098 25.7422 5.89132C25.7422 5.84657 25.7422 5.69742 25.7422 5.54827C25.5598 5.48861 25.3319 5.39912 25.1343 5.2798C25.1647 5.29472 25.1951 5.30963 25.2255 5.32455C25.0127 5.71234 25.3015 6.05539 25.4078 6.15979ZM25.423 8.30755C25.5142 8.53128 25.9093 8.82958 26.0157 8.88924C26.1828 8.69534 26.274 8.33738 26.2284 8.03908C26.198 7.81536 25.8941 7.5618 25.6358 7.4574C25.3015 7.65129 25.3015 7.99434 25.423 8.30755ZM20.15 10.4851C19.9524 10.8431 20.1196 10.9177 20.226 11.0072C20.3627 10.9326 20.4843 10.8729 20.5755 10.8133C20.5755 10.7536 20.5755 10.6194 20.5755 10.4851C20.3475 10.515 20.2868 10.5597 20.1348 10.4851M20.5907 10.3807C20.5907 10.2167 20.5907 10.0526 20.5907 9.97803C20.5907 9.85872 20.3475 9.67973 20.2716 9.67973C20.1956 9.67973 20.1348 9.70956 20.0436 9.8438C19.998 9.91838 20.0132 10.2018 20.0436 10.2316C20.2564 10.4106 20.3931 10.3957 20.5907 10.3658M20.9098 11.3204C20.773 11.216 20.6515 11.1862 20.6059 11.0221C20.2412 11.1563 20.1044 11.3651 19.8765 11.5143C19.7397 11.395 19.6333 11.1862 19.6333 10.9624C19.6333 10.7536 19.8461 10.4553 19.9676 10.3509C19.9676 10.3509 19.9373 10.3509 19.9221 10.3211C19.8765 10.2763 19.8005 9.96312 19.8765 9.88855C19.9524 9.76923 20.2868 9.33669 20.5451 9.30686C20.7275 9.29194 20.8642 9.50075 21.0162 9.66482C20.9706 9.70956 21.001 10.4702 20.9858 10.5746C21.1529 10.7536 21.2137 10.7834 21.3201 10.7238C21.4265 10.6641 21.4569 10.7238 21.3961 10.7834C21.3201 10.8431 21.0162 11.2309 20.925 11.3204M21.8064 9.79906C21.8064 9.79906 21.4417 9.6499 21.6088 9.57533C21.8975 9.42618 22.1863 9.14279 22.2319 9.00856C22.2775 8.88924 22.3838 8.9489 22.323 9.06822C22.2623 9.18754 22.2319 9.47092 22.2623 9.56041C22.2623 9.60516 22.4902 9.62007 22.5966 9.62007C22.6574 9.62007 22.6574 9.78414 22.5966 9.78414C22.5206 9.78414 22.2471 9.78414 22.2471 9.78414C22.2015 9.79906 22.2471 10.7387 22.2471 10.8282C22.2775 10.9028 22.5054 10.9624 22.5814 10.8879C22.6725 10.8133 22.7485 10.8879 22.6574 10.9624C22.6118 11.0072 22.4294 11.2756 22.2926 11.3204C22.1559 11.38 21.9431 11.2906 21.852 11.1414C21.7 10.9177 21.7912 10.2167 21.7912 9.78414M22.4446 8.50145C22.2775 8.41196 22.0495 8.18823 21.9279 8.00925C21.7 8.29264 21.6544 8.53128 21.2441 8.63568C21.4873 8.44179 21.7 8.00925 21.6848 7.60655C21.6696 7.23367 21.4569 7.05469 21.2897 6.99503C21.1377 7.06961 21.001 7.17401 20.925 7.20384C20.8338 7.23367 20.8186 7.09944 20.8794 7.08452C21.077 6.99503 21.5176 6.6669 21.5784 6.60724C21.7608 6.63707 21.9887 6.80114 22.0191 6.95029C22.1559 6.8608 22.399 6.60724 22.475 6.54758C22.5662 6.69673 22.8093 6.87571 23.0828 6.9652C22.8245 7.39774 22.2623 7.12927 22.1863 7.02486C22.0951 7.17401 22.0799 7.2635 22.1711 7.4574C22.2926 7.71095 22.7485 7.94959 22.9917 8.00925C22.9157 8.08383 22.5814 8.4567 22.475 8.53128M22.8397 10.0079C23.0069 9.82889 23.1892 9.70957 23.2956 9.60516C23.4779 9.7394 23.5235 9.81397 23.6299 9.96312C23.6299 10.2018 23.5691 10.694 23.5995 10.8729C23.5995 11.037 24.2985 11.1563 24.3289 10.9028C24.3593 10.6492 24.3289 10.336 24.3289 10.1868C24.3289 10.0675 24.0554 10.0228 23.9186 10.0377C24.101 9.8438 24.2529 9.70957 24.3745 9.60516C24.5417 9.72448 24.6936 9.90346 24.8 10.0377C24.8 10.2913 24.7544 10.8729 24.8 11.037C24.8456 11.2011 24.8304 11.216 24.952 11.2906C24.8304 11.4099 24.7392 11.4546 24.648 11.5441C24.5265 11.5143 24.2985 11.3204 24.3137 11.1563C24.1618 11.2607 23.6907 11.4546 23.5235 11.4845C23.3564 11.3204 23.2348 11.2756 23.2196 11.0668C23.2196 10.858 23.2652 10.3062 23.2044 10.1719C23.1284 10.0377 23.0221 10.0079 22.8853 10.0079M25.0127 8.24789C25.0279 7.71095 25.3926 7.2635 25.9701 7.05469C26.426 7.20384 26.6235 7.66621 26.6387 7.96451C26.6387 8.21806 26.4868 8.54619 26.3652 8.755C26.1828 8.87432 26.0005 9.0533 25.8333 9.20245C25.2711 9.20245 24.9975 8.54619 25.0127 8.23298M25.0735 10.3211C25.2103 10.2465 25.5446 9.9482 25.6662 9.87363C25.8485 10.0228 25.9853 10.157 26.0765 10.2614C26.198 10.2018 26.3956 10.0526 26.502 9.97803C26.6691 10.0974 26.8515 10.2465 26.9274 10.3211C27.0186 10.2465 27.125 10.3062 27.0186 10.3957C26.9275 10.4851 26.6995 10.6641 26.6235 10.7387C26.502 10.679 26.2892 10.4404 26.2284 10.3807C26.198 10.4106 26.1221 10.4404 26.0613 10.4702C26.0613 10.6045 26.0613 11.6783 26.0613 11.7977C25.8789 11.7977 25.7422 11.8126 25.6206 11.7977C25.6206 11.6336 25.6206 10.694 25.6206 10.5448C25.6206 10.3658 25.3015 10.2913 25.1039 10.2913M27.277 8.41196C27.1402 8.41196 27.0034 8.38213 26.9274 8.3523C26.8059 8.32247 26.8515 8.18823 26.9578 8.18823C27.049 8.18823 27.201 8.21806 27.277 8.24789C27.3529 8.27772 27.3681 8.42687 27.277 8.41196ZM27.277 8.09874C27.1402 8.09874 27.0034 8.06891 26.9274 8.054C26.8059 8.02417 26.8515 7.88993 26.9578 7.88993C27.0642 7.88993 27.201 7.91976 27.277 7.94959C27.3529 7.97942 27.3833 8.11366 27.277 8.11366M26.4108 6.04047L25.9853 6.48792C25.8637 6.39843 25.7877 6.30894 25.7574 6.15979C25.4382 6.21945 25.2103 6.41335 25.0735 6.51775C24.9368 6.39843 24.7392 6.08522 24.7392 5.86149C24.7392 5.65268 24.9064 5.32455 25.0279 5.22014C25.0279 5.22014 25.0431 5.22014 25.0583 5.23506C24.9824 5.19031 24.9216 5.16048 24.876 5.11574C24.8304 5.07099 24.8152 4.96659 24.876 4.8771C24.952 4.77269 25.2255 4.44456 25.4838 4.41473C25.6206 4.39982 25.8485 4.42965 26.1676 4.71303C26.1221 4.75778 26.1221 5.66759 26.1221 5.75708C26.2284 5.89132 26.426 6.04047 26.426 6.04047M23.6299 7.68112C23.5691 8.00925 23.8578 8.29264 24.0858 8.41196C24.2681 8.50145 24.5721 8.4567 24.6632 8.44179C24.7392 8.44179 24.724 8.41196 24.7696 8.3523C24.8304 8.29264 24.8912 8.3523 24.8456 8.39704C24.8 8.4567 24.3441 8.87432 24.2074 8.96381C24.0858 8.99364 23.8426 8.97873 23.6907 8.79975C23.4172 8.47162 23.2196 8.3523 23.3108 7.74078C23.3716 7.33808 24.0706 6.98012 24.2225 6.89063C24.2833 6.95029 24.6025 7.27842 24.7392 7.38282C24.6784 7.4574 24.5113 7.53197 24.3441 7.53197C24.177 7.53197 24.0554 7.38282 23.9338 7.2635C23.8578 7.33808 23.6755 7.44248 23.6299 7.68112ZM24.5417 4.3849C24.4657 4.3849 23.6755 4.47439 23.6755 4.47439C23.6299 4.48931 23.7211 5.44387 23.7515 5.53336C23.7819 5.60793 23.8578 5.72725 23.9338 5.65268C24.0098 5.5781 24.1162 5.71234 24.0098 5.78691C23.949 5.83166 23.7819 6.15979 23.7059 6.21945C23.5843 6.29403 23.402 6.04047 23.3412 5.89132C23.25 5.63776 23.1892 4.9815 23.1892 4.54897C23.2196 4.54897 22.8245 4.39982 23.0069 4.32524C23.3564 4.17609 23.6907 3.72864 23.7211 3.60932C23.7667 3.49 23.873 3.53475 23.8123 3.65407C23.6907 3.89271 23.7059 4.05677 23.7515 4.20592C23.7667 4.23575 24.4353 4.23575 24.5265 4.23575C24.5873 4.23575 24.5873 4.39982 24.5265 4.39982M22.7029 5.56319L22.3838 5.98081H22.0799C21.9279 5.83166 21.8368 5.71234 21.8064 5.59302V4.59371L21.4113 4.3849C21.3353 4.47439 21.1985 4.47439 21.2593 4.39982L21.776 3.95237H21.8824L22.2167 4.26558V5.29472C22.3686 5.4737 22.475 5.51844 22.7029 5.56319ZM22.2775 3.53475L22.0951 3.6839H21.9431L21.7912 3.53475V3.25136L22.0343 3.04255L22.2775 3.28119V3.53475ZM21.2289 3.51983C21.0466 3.57949 20.925 3.74356 20.8794 3.93745C20.849 4.11643 20.226 5.8764 20.15 5.99572C19.998 5.44387 19.3902 4.14626 19.1926 3.86288C19.0255 3.62424 18.8583 3.66898 18.7064 3.65407C18.5544 3.65407 18.6152 3.50492 18.7368 3.51983C18.9039 3.53475 19.8765 3.62424 20.1652 3.66898C20.2564 3.6839 20.2716 3.77339 20.1348 3.81813C20.074 3.83305 19.9069 3.90762 19.9069 3.9822C19.9069 4.0866 20.2564 4.84727 20.3627 4.99642C20.4387 4.80252 20.773 3.96728 20.7123 3.7883C20.6363 3.60932 20.6059 3.57949 20.4691 3.56458C20.3324 3.54966 20.3324 3.46017 20.4995 3.44526C20.6667 3.41543 21.1225 3.3856 21.2745 3.40051C21.4113 3.40051 21.4265 3.49 21.2441 3.53475M19.0255 6.6669C19.3294 6.50284 20.0132 6.39843 20.2564 6.47301C20.3779 6.50284 20.4995 6.47301 20.4995 6.41335C20.4995 6.33877 20.6059 6.35369 20.6059 6.41335C20.6059 6.47301 20.6059 7.20384 20.6059 7.27842C20.6059 7.35299 20.4995 7.33808 20.4995 7.27842C20.4995 7.17401 20.4995 7.14418 20.4083 6.99503C20.1348 6.59233 19.375 6.54758 18.9951 7.03978C18.8735 7.20384 18.8127 7.48723 18.9647 7.53197C19.1015 7.57672 19.6485 7.53197 19.8157 7.50214C19.9828 7.47231 20.4235 7.39774 20.4691 7.36791C20.5147 7.33808 20.5907 7.29333 20.5907 7.36791C20.5907 7.44248 20.5907 7.74078 20.5907 7.81536C20.5907 7.90485 20.5147 7.8601 20.4691 7.81536C20.4235 7.78553 20.0132 7.74078 19.8309 7.74078C19.5422 7.71095 19.0863 7.62146 18.9495 7.66621C18.7975 7.71095 18.9191 7.93468 19.0407 8.09874C19.4054 8.59094 20.1044 8.60585 20.3779 8.20315C20.4843 8.054 20.4843 8.02417 20.4843 7.91976C20.4843 7.8601 20.5907 7.84519 20.5907 7.91976C20.5907 7.97942 20.5907 8.59094 20.5907 8.6506C20.5907 8.71026 20.4691 8.72517 20.4691 8.6506C20.4691 8.51636 20.3931 8.53128 20.2412 8.57602C19.8461 8.68043 19.299 8.71026 18.9799 8.53128C18.6456 8.33738 18.3417 8.27772 18.3417 7.54689C18.3417 7.09944 18.752 6.75639 19.0255 6.60724M18.4784 8.90415C18.5848 8.90415 18.8887 8.91907 18.9951 8.91907C18.9951 9.14279 18.9951 10.6641 18.9951 10.8282C18.9951 10.9923 19.1471 11.037 19.2838 10.9773C19.3598 10.9475 19.4206 10.9923 19.3294 11.0668C19.1775 11.1862 18.9951 11.4397 18.9039 11.5441C18.7216 11.4248 18.5392 11.2756 18.5544 11.1414C18.5696 10.8879 18.4936 9.11296 18.4936 8.90415M20.7426 12.3048C21.8064 12.3048 26.0005 13.4383 28.0064 13.3041V2.95306C28.0064 2.95306 25.0431 3.37068 22.4598 2.43104C20.3627 1.67037 17.4755 2.99781 17.4755 2.99781C17.4755 3.35577 17.4755 13.14 17.4755 13.14C17.4755 13.14 18.5392 12.3048 20.7275 12.3048M28.3863 9.17262V11.1414C28.3863 11.1414 29.5108 11.1414 30.7417 10.3509C31.1064 10.1123 31.6686 10.2167 31.9422 10.4255C31.9422 10.4255 31.775 9.14279 30.6657 9.29194C28.6142 9.59024 28.3863 9.17262 28.3863 9.17262ZM31.9422 6.32385C31.9574 6.44317 31.9725 6.53267 31.9877 6.59233C31.9877 6.53267 31.9725 6.44317 31.9574 6.32385C31.9574 6.32385 31.8966 5.16048 30.6201 5.16048C30.2098 5.16048 29.7083 5.65268 28.4319 5.10082V7.06961C28.9485 7.21876 30.377 6.42826 30.9392 6.17471C31.3495 5.99572 31.927 6.11505 31.9422 6.30894M30.5593 26.9961C30.4833 23.8788 28.5382 20.4335 29.0549 21.0748C30.377 22.6856 30.8025 26.1608 31.7142 29.1588C31.7142 29.1588 32.2917 29.4571 32.1701 25.6537C32.1397 24.8781 31.8206 23.849 31.4407 23.148C30.6657 21.7311 29.1157 19.3596 29.1613 19.3298C29.5412 19.0315 30.4529 21.0897 31.2431 21.8951C31.7598 22.4172 33.1882 22.9243 33.2946 22.8646C32.1397 20.6721 29.3588 18.6138 29.6475 18.3603C31.699 20.2396 32.3373 20.3291 32.4284 20.2396L30.5897 18.4796C30.073 17.7935 29.374 17.2715 29.4804 17.2864C30.301 17.4654 29.0549 16.6152 28.0824 16.3617C27.9 16.3169 27.6265 16.302 27.6265 16.2125C27.6113 16.0634 27.8544 16.123 28.052 16.0634C28.1887 16.0335 28.3103 15.9291 28.3255 15.7352C27.9608 15.8098 27.5809 15.7352 27.2618 15.5861C26.6083 15.2878 25.4382 14.9447 24.9064 15.1535C24.5873 15.2729 24.5265 15.258 24.1922 15.5115C24.0402 15.4518 23.6299 15.1983 23.0525 15.8844C22.8701 16.0932 22.6574 16.3467 22.6422 16.5257C22.6118 16.9881 22.6422 16.5556 22.7637 16.9881C22.8093 17.1671 22.5966 17.5101 21.7456 17.7935C21.4113 17.8979 21.5024 18.226 21.5024 18.226C21.6696 18.1515 21.9279 17.9576 22.323 18.1515C23.1132 18.5094 23.2652 17.9427 23.7515 17.5399C23.7515 17.5399 23.6147 18.0471 23.7515 18.0769C24.3593 18.1962 24.1618 18.6586 24.0858 18.7182C23.3108 19.3894 23.6451 19.643 23.3716 20.0606C23.1132 20.4484 22.7181 20.5975 22.1255 20.5826C21.3049 20.5528 23.2044 19.3447 21.3809 18.8376C21.6696 19.2999 21.776 19.6728 21.1529 20.0457C20.7578 20.2694 20.9554 21.4328 19.9373 20.8958C19.9373 20.8958 19.8613 21.746 19.7397 21.7907C21.1377 22.9839 20.3475 23.6402 20.4235 25.3554C20.8642 26.4442 20.3779 26.9662 20.2716 27.0259C20.3475 27.7567 20.4083 28.1744 20.8794 28.771C21.2137 29.2035 20.849 29.8747 21.1985 30.337C21.5176 29.2333 21.8672 29.6957 21.9583 28.1445C22.0799 27.891 22.6118 27.4286 22.9157 27.3988C22.9157 28.3235 23.2652 29.1737 23.1892 29.5615C23.1892 29.5615 23.9946 29.4123 24.2377 29.5018C24.4353 29.5615 24.5873 29.815 24.5873 29.9791C24.3137 30.1431 24.3137 30.0835 23.9034 30.3818C23.1892 30.8889 22.8549 31.9329 22.8549 31.9479C22.8549 31.9479 24.5417 30.6204 24.6632 30.3818C24.7544 30.1879 24.8456 29.9045 24.9368 29.6062C24.9368 29.5764 24.0706 29.0693 23.8274 28.6069C23.0676 27.1601 24.9975 29.4571 25.0431 29.2632C25.1495 28.771 25.5142 28.2937 25.5142 28.2937C25.3926 28.1445 25.0887 28.07 24.6328 27.2645C23.5843 25.4449 25.8485 28.0401 25.8485 28.0401C26.4564 27.6971 26.4564 28.1594 26.5324 28.6367C26.5324 28.6815 27.5505 29.4123 27.6113 29.4571C27.9 29.1886 28.0975 28.8455 28.2191 28.592C28.2191 28.5622 26.3804 26.9513 26.0613 26.4144C23.5083 22.1189 28.1279 28.3235 28.3407 28.1445C28.4623 27.8015 28.5078 27.354 28.4926 26.7276C28.4926 26.7127 27.6265 26.131 27.0642 25.2212C24.9216 21.746 28.4623 26.2503 28.4623 26.2205C28.4167 25.4747 27.7936 22.2531 28.2343 23.2226C28.4623 23.7148 29.1461 25.773 29.0245 27.8761C29.2676 27.4883 30.2554 27.1005 30.6201 27.011M26.5324 30.4116C26.5324 30.4116 26.198 30.1581 26.1676 30.2028C26.1069 30.352 26.0461 30.516 25.9397 30.7099C25.8485 30.8889 26.1221 30.7547 26.5324 30.4116ZM26.3956 29.1289C26.35 29.4123 26.35 29.636 26.2588 29.9492C26.2588 29.9791 26.5779 30.1133 26.7299 30.2326C26.9426 30.0387 27.1402 29.9343 27.3529 29.6659C27.3074 29.636 26.4108 28.8754 26.4108 28.9052C26.4108 29.0096 26.4108 28.9947 26.3804 29.114M29.1461 30.9187C29.5412 30.5906 29.7691 30.0387 30.2706 29.8747C29.8907 29.5316 29.5108 30.2177 29.3132 29.9791C29.6627 29.4272 29.8907 29.0245 29.9211 28.3384C29.9363 27.9655 30.377 27.6225 30.4833 27.4286C30.073 27.4883 28.9485 28.1296 28.7206 28.5025C27.976 29.472 28.0064 30.3967 24.8608 31.754C24.7088 31.754 25.4382 31.2319 25.651 30.6204C25.7574 30.337 26.1676 29.0096 25.8789 28.3683C25.2255 29.0096 25.3623 29.2333 25.1799 29.7106C24.7088 30.9784 24.4505 31.0828 23.2804 31.8733C23.1284 31.9777 22.2319 33.335 21.0618 33.4095C21.1833 33.3797 21.1074 33.0963 21.5024 32.8428C22.8093 32.0075 22.3078 30.1879 24.0098 29.8896C23.1588 29.5913 22.5814 30.4116 22.4294 30.3221C23.1132 29.3825 22.5054 28.592 22.6118 27.8313C22.3838 27.9506 22.1559 28.2191 22.1255 28.4577C22.0039 29.815 21.3505 30.0537 21.2897 30.6353C21.4265 31.6048 20.6363 32.3506 20.0588 33.0367C19.9524 32.4699 20.0892 31.9777 20.8186 31.5004C21.2137 31.2469 20.773 30.4713 20.773 30.4713C20.6059 31.3214 20.1196 31.575 19.8309 31.6197C19.5725 31.6496 20.7578 30.4414 20.6211 29.3228C20.5603 28.8306 20.4083 29.0543 20.3324 28.4876C19.3142 29.6062 20.0588 30.2923 19.0103 31.5899C18.5088 32.2014 18.3265 33.2753 18.2657 33.3051C18.2657 31.7092 18.3265 32.1716 19.0559 30.874C19.6485 29.815 19.0255 28.8157 18.9343 28.1744C17.6275 29.0543 17.7338 30.7547 17.7034 30.3818C17.673 30.0238 17.5059 29.3825 17.6882 28.8008C17.977 27.8462 17.3691 26.3846 17.3691 26.3846C15.5456 29.1886 17.0804 32.4699 16.9588 32.4401C16.1686 31.217 15.5912 31.1723 15.424 30.2475C15.3328 29.7404 14.3907 26.9662 12.6583 26.9066C13.5245 27.6374 13.3118 27.7418 13.3725 28.9499C12.8103 31.9628 17.126 32.276 16.8373 33.8421C16.2446 32.9173 15.348 32.5295 13.9956 31.7987C13.3877 31.3363 12.7191 31.1275 12.6735 30.3967C12.7495 29.8598 12.7799 29.9791 12.6735 29.2781C12.6127 28.7859 12.1113 29.0842 11.7466 28.055C10.9716 28.7411 11.2603 29.5167 11.3211 29.9642C11.3363 30.0835 11.4275 30.5608 11.3211 30.8292C11.0475 30.6503 10.85 30.2625 10.5461 29.8747C9.98382 29.1737 9.99902 28.3235 9.71029 27.7269C9.58873 27.4584 9.39118 27.0856 9.2848 27.0706H9.26961C9.13284 28.1744 9.19363 29.1438 9.71029 29.9642C9.71029 29.9642 9.57353 30.2028 9.45196 30.2625C8.96569 30.1431 8.28186 29.7404 8.00833 28.9649C7.41569 29.4571 7.84118 30.0984 7.81078 30.0835C6.45833 29.4123 7.81078 26.7873 5.91127 26.8618C6.38235 27.3689 6.07843 28.0103 6.04804 28.6218C6.04804 29.6062 7.30931 30.3669 7.30931 30.3669C5.89608 29.8896 5.59216 30.5458 5.60735 30.5458C5.60735 30.5458 7.70441 31.4407 11.002 31.7838C11.4275 31.8285 12.0353 32.3207 11.9289 32.3207C11.5034 32.2909 10.6676 31.754 9.45196 32.8129C10.1662 32.8278 10.6525 33.9763 11.8074 33.32C14.801 32.4848 15.9103 33.9465 16.3966 34.3193C16.2902 34.4983 14.102 32.9621 12.3544 33.9912C11.4275 34.5282 9.93824 34.036 8.78333 33.1858C9.25441 34.3641 11.2603 35.6915 11.9137 35.6915C12.7343 35.6915 13.7676 34.6475 14.9377 34.7071C16.8221 34.7966 17.0804 36.4522 16.8828 36.318C16.8828 36.318 15.3936 33.9166 13.4941 36.482C14.3907 36.0793 15.576 36.1837 16.6245 36.661C16.7613 36.7356 16.3662 37.1532 16.0926 37.4664C15.9103 37.6752 15.1201 38.8237 14.2539 37.6901C14.1172 37.5261 13.7069 36.4671 11.0324 36.6908C12.0505 37.1383 13.175 38.3166 13.7221 38.8535C15.1353 40.2257 17.2627 37.1979 17.3387 37.5261C17.3387 38.2122 17.6882 38.5403 17.8858 38.9132C18.3569 39.8379 17.2779 39.6888 16.7005 39.4501C16.7005 39.4501 17.8098 41.1504 18.7368 40.2108C19.7701 39.1667 17.3843 38.3762 18.1441 37.541C18.5696 37.0637 20.0588 38.585 20.7426 38.6C22.5662 38.7939 22.475 37.0935 23.4475 37.1383C22.5358 36.2285 21.5784 36.7207 21.3657 36.9593C20.7578 37.6603 20.0436 37.183 19.5574 36.8102C19.2838 36.4671 18.8431 36.4075 18.448 36.5119C18.2657 36.5268 18.8279 35.8556 19.5725 35.9898C21.2593 36.303 22.9461 35.7214 23.3564 35.4827C24.025 35.1098 24.4049 34.4834 25.1647 33.7675C24.9368 33.8122 23.5235 34.5729 23.0828 34.7966C21.7304 35.4678 20.8946 34.6027 20.7426 34.6027C20.4843 34.6027 20.5451 34.4088 20.9554 34.2895C22.3382 33.9912 23.2956 32.7831 24.6025 32.3207C26.0613 31.6794 27.9 32.1119 29.1309 30.9187M28.6142 33.2306C29.1613 32.455 29.4804 31.6197 29.6627 30.7248C29.3436 31.1275 28.8725 31.5004 28.4015 31.6794C28.0672 32.7085 28.2191 33.7824 28.6142 33.2306ZM33.6289 24.6992C32.2613 39.1966 19.8917 41.6725 17.2627 42.1348C17.126 42.1646 2.37059 40.3301 0.881373 24.6992V1.65545C0.881373 1.65545 14.9681 -0.134348 33.6289 1.65545V24.6992ZM34.4799 24.8334V0.820213C14.8314 -1.02925 0 0.820213 0 0.820213V24.8334C1.5652 41.1057 17.0956 43.0148 17.2475 42.9999C20.0284 42.5077 33.0363 39.9423 34.4951 24.8334"></path>
	<path d="M216.681 3.02765V2.99782V2.96799C216.651 2.44597 216.636 1.77479 216.636 1.07378V0.939548L216.499 0.969378C216.317 1.01412 215.42 1.01412 214.554 1.01412H211.864C211.317 1.01412 210.816 1.01412 210.177 0.969378H210.147H210.117C209.995 1.02904 209.98 1.1931 209.98 1.25276C209.98 1.37208 210.01 1.47649 210.086 1.52123L210.36 1.56598C211.104 1.65547 211.135 1.73004 211.135 3.26629V8.4418C211.135 9.96313 211.104 10.0377 210.36 10.1272L209.95 10.1719L209.919 10.2018C209.843 10.2764 209.828 10.4106 209.843 10.515C209.858 10.6194 209.904 10.7089 209.98 10.7387H210.01H210.041C210.725 10.7089 211.226 10.694 211.864 10.694C212.457 10.694 212.958 10.7089 213.809 10.7387H213.84H213.87C213.961 10.694 214.007 10.5597 214.022 10.4553C214.022 10.336 213.992 10.2316 213.916 10.1869L213.369 10.1272C212.624 10.0675 212.578 9.97805 212.578 8.4418V6.44319C212.578 6.25427 212.7 6.15981 212.943 6.15981H213.931C214.448 6.15981 214.827 6.1598 215.025 6.23438C215.238 6.29404 215.344 6.42828 215.42 6.69675L215.572 7.29335H215.603C215.754 7.4425 216.058 7.42758 216.15 7.29335V7.26352L216.165 7.23369C216.165 7.08454 216.165 6.89064 216.134 6.68183C216.119 6.42828 216.104 6.12998 216.104 5.84659C216.104 5.5632 216.119 5.24999 216.134 4.98152C216.134 4.75779 216.165 4.54898 216.165 4.39983V4.34017C216.074 4.23577 215.922 4.22085 215.861 4.22085C215.739 4.22085 215.633 4.2656 215.572 4.32526L215.42 4.95169C215.344 5.29473 215.238 5.33948 215.131 5.36931C214.979 5.41405 214.524 5.44388 213.931 5.44388H212.943C212.7 5.44388 212.578 5.34942 212.578 5.1605V2.14766C212.578 1.83942 212.685 1.6853 212.898 1.6853H213.794C214.402 1.6853 214.873 1.6853 215.192 1.77479C215.815 1.93885 216.013 2.34156 216.134 3.05748V3.10223L216.165 3.13206C216.226 3.1768 216.301 3.20663 216.393 3.20663C216.499 3.20663 216.636 3.16189 216.697 3.05748M206.865 5.83167C206.865 3.40053 205.239 0.790398 201.668 0.790398C198.628 0.790398 196.349 3.01274 196.349 5.96591C196.349 8.4418 198.173 10.9475 201.668 10.9475C204.631 10.9475 206.865 8.7401 206.865 5.83167ZM205.178 6.26421C205.178 9.2323 203.385 10.2764 201.865 10.2764C198.841 10.2764 198.036 7.27843 198.036 5.50354C198.036 2.50563 199.859 1.44666 201.425 1.44666C204.19 1.44666 205.178 4.04187 205.178 6.26421ZM192.307 30.8143C192.307 37.019 197.018 42.5077 204.813 42.5077C211.591 42.5077 217.001 37.4366 217.001 30.4713C217.001 24.4009 212.928 18.6437 204.813 18.6437C197.58 18.6437 192.307 23.9236 192.307 30.8143ZM195.817 29.7106C195.817 22.1636 200.558 19.7176 204.205 19.7176C210.907 19.7176 213.475 25.8476 213.475 31.5452C213.475 38.3315 209.463 41.4338 205.254 41.4338C198.34 41.4338 195.802 34.8116 195.802 29.7106M188.964 1.52123C188.964 1.52123 189.07 1.35717 189.07 1.25276C189.07 1.14836 189.009 1.04395 188.918 0.999208H188.888L188.857 0.984293C187.824 1.04395 187.201 1.04395 186.107 0.984293H186.077H186.046C185.97 1.02904 185.909 1.10361 185.894 1.20802C185.879 1.32734 185.909 1.44666 185.985 1.52123L186.016 1.55106L186.32 1.58089C186.608 1.61072 186.776 1.6853 186.836 1.71513C186.791 1.92394 186.274 2.84867 185.97 3.41544L185.909 3.53476C185.56 4.20594 185.15 4.92186 184.633 5.78693C184.253 5.10084 183.873 4.35509 183.508 3.62425C183.372 3.34087 183.22 3.05748 183.083 2.7741C182.977 2.56529 182.642 1.83445 182.642 1.71513C182.642 1.6853 182.703 1.62564 183.159 1.56598L183.387 1.53615L183.417 1.50632C183.493 1.43174 183.524 1.28259 183.493 1.16327C183.463 1.05887 183.402 0.999208 183.326 0.969378H183.311H183.296C182.931 0.999208 182.414 1.01412 181.73 1.01412C181.047 1.01412 180.515 1.01412 180.044 0.969378H180.013H179.983C179.907 1.01412 179.861 1.0887 179.846 1.17819C179.831 1.29751 179.846 1.41683 179.922 1.4914L179.952 1.52123L180.408 1.59581C180.803 1.65547 180.986 1.70021 181.487 2.62495L183.22 5.92116C183.63 6.69675 183.676 6.86081 183.676 7.65131V8.38214C183.676 9.94822 183.645 10.0228 182.901 10.0974L182.399 10.1421L182.369 10.1719C182.293 10.2465 182.277 10.3808 182.293 10.4852C182.308 10.5896 182.353 10.6641 182.429 10.7089H182.46H182.49C183.28 10.6791 183.797 10.6641 184.405 10.6641C185.013 10.6641 185.529 10.6791 186.396 10.7089H186.426H186.456C186.532 10.6791 186.578 10.5896 186.593 10.4852C186.608 10.3808 186.593 10.2465 186.517 10.1719L186.487 10.1421L185.894 10.0974C185.21 10.0526 185.119 9.9333 185.119 8.38214V7.63639C185.119 6.56251 185.15 6.45811 185.788 5.36931L186.715 3.80323C186.791 3.65408 186.882 3.51985 186.958 3.40053C187.535 2.41614 187.946 1.70021 188.569 1.59581L189.009 1.52123H189.04H188.964ZM183.296 19.106C182.703 18.9718 180.834 18.584 178.843 18.584C173.54 18.584 170.06 20.2098 167.704 22.6111C165.531 24.8931 164.544 27.8462 164.544 30.7845C164.544 33.7228 165.668 36.5417 167.78 38.6149C170.485 41.2996 174.315 42.448 178.494 42.448C180.393 42.448 182.916 42.0304 184.785 41.5531C185.453 41.3742 186.077 41.2399 186.502 41.2399C186.639 41.1355 186.639 40.9267 186.532 40.8223C185.894 40.5837 185.697 39.7484 185.697 38.3762V36.4522C185.697 34.6922 185.727 33.7377 187.201 33.5587L187.763 33.4841C188.006 33.2753 187.976 32.7682 187.733 32.619C186.578 32.6936 185.377 32.7235 184.01 32.7235C181.943 32.7235 179.998 32.6936 178.98 32.619C178.737 32.7235 178.706 33.3499 178.98 33.4841L180.53 33.6631C182.703 33.9017 182.809 34.1105 182.809 37.0041V38.3762C182.809 39.48 182.642 40.1064 182.46 40.345C182.065 40.9267 180.773 41.3742 178.6 41.3742C171.549 41.3742 168.069 36.1688 168.069 29.5466C168.069 24.371 171.048 19.6132 177.871 19.6132C181.457 19.6132 184.086 20.7914 185.074 24.5053C185.286 24.7141 185.909 24.6843 186.016 24.4009C185.697 22.3277 185.484 20.5379 185.484 19.4043C185.058 19.4789 183.979 19.2254 183.311 19.0911M177.855 0.805313V0.760568V0.730738C177.795 0.626333 177.658 0.611418 177.582 0.611418C177.552 0.611418 177.491 0.611418 177.445 0.641248H177.415L177.4 0.685993C177.217 0.999208 177.141 1.02904 176.351 1.02904H170.303C169.65 1.02904 169.361 0.999208 169.3 0.671078V0.641248L169.27 0.611418C169.224 0.566673 169.163 0.551758 169.072 0.551758C169.042 0.551758 168.92 0.551758 168.859 0.596503L168.814 0.626333V0.671078C168.707 1.25276 168.495 2.14766 168.252 2.78901V2.83376V2.8785C168.343 3.05748 168.647 3.13206 168.799 3.01274H168.829V2.96799C168.981 2.63986 169.118 2.32665 169.452 2.01343C169.771 1.73004 170.501 1.6853 171.169 1.6853H171.975C172.187 1.6853 172.294 1.79965 172.294 2.02834V8.45672C172.294 10.0079 172.202 10.0825 171.488 10.1421L170.956 10.1869H170.911C170.82 10.2614 170.774 10.3658 170.774 10.4852C170.774 10.5896 170.82 10.694 170.911 10.7536H170.941H170.972C171.868 10.7238 172.4 10.7089 173.008 10.7089C173.616 10.7089 174.056 10.7089 174.923 10.7536H174.953H174.983C175.105 10.694 175.12 10.5299 175.12 10.4852C175.12 10.3658 175.09 10.2614 175.014 10.2167L174.497 10.157C173.768 10.0974 173.722 10.0079 173.722 8.47163V2.01343C173.722 1.86428 173.722 1.73004 173.752 1.70021C173.783 1.67038 173.935 1.67038 174.041 1.67038H175.075C175.865 1.67038 176.397 1.77479 176.701 2.01343C176.837 2.11783 176.959 2.4758 177.02 2.98291V3.01274L177.05 3.04257C177.111 3.10223 177.202 3.14697 177.308 3.14697C177.445 3.14697 177.567 3.08731 177.612 2.99782V2.96799V2.93816C177.567 2.52054 177.673 1.37208 177.825 0.790398M164.513 8.42689V3.31104C164.513 1.74496 164.559 1.64055 165.303 1.58089L165.699 1.55106H165.729C165.729 1.55106 165.835 1.387 165.835 1.26768C165.835 1.22293 165.805 1.04395 165.683 0.999208H165.653H165.623C164.924 1.02904 164.407 1.04395 163.814 1.04395C163.222 1.04395 162.69 1.04395 161.976 0.999208H161.945H161.915C161.793 1.05887 161.778 1.22293 161.778 1.28259C161.778 1.40191 161.808 1.50632 161.884 1.55106H161.915L162.31 1.59581C163.054 1.65547 163.1 1.75987 163.1 3.32595V8.4418C163.1 9.99296 163.07 10.0675 162.31 10.157L161.9 10.2018L161.869 10.2316C161.793 10.3062 161.778 10.4404 161.793 10.5448C161.808 10.6492 161.854 10.7238 161.93 10.7685H161.96H161.991C162.735 10.7387 163.222 10.7238 163.829 10.7238C164.437 10.7238 164.893 10.7238 165.638 10.7685H165.668H165.699C165.82 10.7089 165.835 10.5448 165.851 10.4852C165.851 10.3658 165.82 10.2614 165.744 10.2167L165.334 10.157C164.574 10.0675 164.544 9.99296 164.544 8.4418M161.55 41.0311C160.046 40.8521 159.59 40.345 158.556 37.3769L153.739 23.5209C153.207 21.9996 152.645 20.4186 152.189 18.8972C152.113 18.6586 151.87 18.584 151.657 18.584C151.278 19.0315 150.67 19.6579 149.834 19.8965C149.94 20.4484 149.727 21.1047 149.241 22.3426L145.655 31.6496C144.181 35.5126 143.193 37.7498 142.57 39.3308C142.084 40.5688 141.309 40.9565 140.458 41.0162L139.303 41.1206C139.09 41.2996 139.166 41.8514 139.379 41.9857C140.321 41.9558 141.598 41.8813 142.753 41.8813C144.409 41.9111 145.488 41.9111 146.4 41.9857C146.719 41.8514 146.719 41.2996 146.476 41.1206L145.321 41.0162C144.485 40.9416 144.302 40.7477 144.302 40.3301C144.302 39.9572 144.546 39.0176 145.077 37.4664L146.308 33.8421C146.552 33.1262 146.764 33.0218 147.646 33.0218H152.949C153.998 33.0218 154.134 33.1262 154.393 33.8868L155.943 38.5701C156.216 39.3905 156.399 40.0169 156.399 40.3898C156.399 40.7328 155.912 40.9416 155.168 41.0162L154.15 41.1206C153.906 41.2996 153.937 41.8514 154.226 41.9857C155.244 41.9558 156.581 41.8813 158.268 41.8813C159.848 41.8813 161.079 41.9111 162.523 41.9857C162.705 41.8514 162.766 41.2996 162.523 41.1206L161.58 41.0162L161.55 41.0311ZM152.493 31.6496H148.177C147.19 31.6496 147.159 31.6197 147.448 30.8143L149.667 24.8185C150.047 23.7894 150.396 22.9541 150.502 22.7901H150.578C150.791 23.2077 151.11 24.1324 151.384 24.9676L153.283 30.5906C153.602 31.5153 153.527 31.6645 152.508 31.6645M154.469 2.93816C154.469 2.38631 154.681 1.44666 156.095 1.44666C157.386 1.44666 157.781 2.26699 157.979 2.98291V3.02765C157.979 3.02765 158.131 3.11714 158.222 3.11714C158.328 3.11714 158.48 3.0724 158.541 2.98291V2.95308L158.556 2.92325C158.556 2.34156 158.435 1.52123 158.283 1.13344L158.252 1.05887H158.177C158.07 1.05887 157.873 1.02904 157.69 0.969378C157.341 0.879888 156.794 0.775483 156.307 0.775483C154.453 0.775483 153.207 1.81953 153.207 3.35578C153.207 4.6683 154.226 5.51846 154.833 5.92116L156.216 6.81607C157.219 7.45741 157.371 8.11367 157.371 8.7401C157.371 9.50077 156.839 10.2764 155.654 10.2764C154.18 10.2764 153.527 9.15772 153.238 8.21808V8.18825C153.238 8.18825 153.101 8.08384 152.995 8.08384C152.888 8.08384 152.752 8.11367 152.676 8.21808L152.645 8.24791V8.27774C152.676 8.934 152.858 9.99296 153.055 10.336V10.3658L153.101 10.3808C153.39 10.5448 154.195 10.9326 155.441 10.9326C157.371 10.9326 158.663 9.8289 158.663 8.15842C158.663 7.00996 158.055 6.08523 156.778 5.30965L155.608 4.59373C155.168 4.32526 154.423 3.74357 154.423 2.92325M150.791 10.7835C150.791 10.7835 150.898 10.6492 150.882 10.5597C150.882 10.4852 150.822 10.4106 150.746 10.3957H150.715C150.366 10.3658 150.016 10.2167 149.773 10.0079C148.77 9.17264 147.965 7.96452 146.855 6.21947C146.779 6.10015 146.764 6.04048 146.764 6.02557C147.251 5.83167 148.618 5.11575 148.618 3.53476C148.618 2.32664 147.919 1.73004 147.342 1.43174C146.612 1.04395 145.67 0.984293 144.85 0.984293C143.512 0.984293 142.464 1.01412 141.582 1.10361H141.537C141.446 1.16327 141.4 1.25276 141.385 1.35717C141.385 1.47649 141.415 1.59581 141.506 1.65547H141.537L142.038 1.73004C142.509 1.7897 142.585 1.89411 142.585 3.29612V8.45672C142.585 9.97805 142.555 10.0526 141.81 10.1421L141.4 10.1869L141.37 10.2167C141.294 10.3062 141.278 10.4404 141.294 10.5448C141.309 10.6492 141.37 10.7089 141.43 10.7387H141.461H141.491C142.145 10.7089 142.677 10.694 143.315 10.694C143.923 10.694 144.424 10.7089 145.047 10.7387H145.077H145.108C145.214 10.6791 145.245 10.5448 145.245 10.4852C145.26 10.3509 145.229 10.2465 145.153 10.1869H145.123L144.789 10.1123C144.044 10.0079 144.014 9.94822 144.014 8.42689V6.62217C144.014 6.48296 144.206 6.41336 144.591 6.41336C145.153 6.41336 145.351 6.5476 145.533 6.83098C145.761 7.1442 146.02 7.5469 146.263 7.93469C146.521 8.3374 146.779 8.72519 146.962 8.99366C147.965 10.3957 148.725 10.8431 150.077 10.8431C150.351 10.8431 150.609 10.8133 150.761 10.7685H150.791V10.7835ZM146.369 5.42897C145.944 5.74218 145.381 5.78693 144.926 5.78693C144.272 5.78693 144.059 5.7571 143.999 5.74218C143.983 5.68252 143.983 5.51846 143.983 5.35439V1.9836C143.983 1.65547 143.983 1.64055 144.819 1.64055C146.46 1.64055 147.053 2.7741 147.053 3.74357C147.053 4.53407 146.84 5.08592 146.369 5.44388M138.817 8.68044V8.65061V8.62078C138.756 8.48655 138.604 8.42689 138.467 8.42689C138.391 8.42689 138.33 8.4418 138.285 8.48655L138.254 8.53129C137.829 9.35162 137.449 9.76924 137.267 9.87364C136.948 10.0228 136.507 10.0825 135.443 10.0825C134.227 10.0825 133.908 9.9333 133.756 9.78415C133.544 9.57534 133.513 9.09806 133.513 8.36723V6.33879C133.513 6.14986 133.635 6.0554 133.878 6.0554H134.729C135.23 6.0554 135.626 6.0554 135.823 6.12998C136.021 6.17472 136.127 6.30896 136.188 6.59234L136.325 7.15911L136.355 7.20386C136.355 7.20386 136.507 7.30826 136.628 7.30826C136.765 7.30826 136.872 7.26352 136.917 7.17403V7.1442V7.11437C136.917 6.98013 136.917 6.78624 136.902 6.57743C136.887 6.32387 136.872 6.02557 136.872 5.72727C136.872 5.42897 136.887 5.11575 136.902 4.84728C136.902 4.62356 136.932 4.42966 136.932 4.28051V4.22085C136.872 4.13136 136.765 4.08662 136.628 4.08662C136.507 4.08662 136.416 4.13136 136.355 4.19102L136.218 4.83237C136.157 5.1605 136.066 5.20524 135.945 5.24999C135.793 5.29473 135.352 5.32456 134.744 5.32456H133.893C133.65 5.32456 133.528 5.22513 133.528 5.02626V2.14766C133.528 1.83942 133.64 1.6853 133.863 1.6853H134.911C135.534 1.6853 136.005 1.6853 136.309 1.77479C136.978 1.93885 137.115 2.35648 137.312 2.98291L137.343 3.0724V3.10223C137.343 3.10223 137.495 3.19172 137.601 3.19172C137.707 3.19172 137.844 3.16189 137.905 3.05748V3.02765V2.81884C137.829 1.9836 137.768 1.26768 137.677 1.05887L137.647 0.969378L137.54 0.999208C137.373 1.04395 136.477 1.04395 135.595 1.04395H132.845C132.282 1.04395 131.796 1.04395 131.127 0.999208H131.097H131.067C130.945 1.05887 130.93 1.22293 130.915 1.28259C130.915 1.40191 130.945 1.50632 131.021 1.55106L131.31 1.59581C132.054 1.6853 132.1 1.77479 132.1 3.29612V8.47163C132.1 10.0228 132.009 10.0974 131.295 10.157L130.778 10.2018L130.748 10.2316C130.672 10.3062 130.656 10.4404 130.672 10.5448C130.687 10.6492 130.732 10.7387 130.808 10.7685H130.839H130.869C131.72 10.7387 132.222 10.7238 132.86 10.7238H134.182C135.458 10.7238 136.735 10.7238 138.102 10.7685H138.178L138.209 10.7089C138.406 10.3062 138.771 9.18755 138.877 8.68044M128.772 1.52123C128.848 1.44666 128.863 1.29751 128.848 1.20802C128.848 1.10361 128.787 1.02904 128.711 0.984293H128.681H128.651C128.164 1.01412 127.708 1.02904 127.237 1.02904C126.66 1.02904 126.113 1.02904 125.718 0.984293H125.687L125.657 0.999208C125.581 1.04395 125.52 1.13344 125.505 1.25276C125.505 1.37208 125.535 1.47649 125.611 1.53615L125.642 1.56598L125.946 1.59581C126.462 1.65547 126.508 1.75987 126.508 1.75987C126.508 1.84936 126.508 1.99851 126.386 2.2819C126.128 2.90833 125.444 4.54898 125.019 5.48863C124.912 5.72727 124.776 6.0554 124.624 6.39845C124.35 7.03979 124.016 7.83029 123.727 8.4418C123.028 6.87573 122.39 5.30965 121.752 3.71374C121.326 2.68461 121.083 1.93885 121.037 1.74496C121.052 1.70021 121.189 1.64055 121.63 1.58089L121.888 1.55106H121.919C121.995 1.46157 122.025 1.35717 122.025 1.25276C122.025 1.13344 121.964 1.04395 121.873 0.999208H121.843L121.812 0.984293C121.159 1.01412 120.642 1.02904 120.05 1.02904C119.457 1.02904 118.971 1.02904 118.53 0.984293H118.5L118.469 0.999208C118.378 1.05887 118.332 1.14836 118.317 1.25276C118.317 1.35717 118.348 1.46157 118.424 1.52123L118.454 1.55106L118.758 1.58089C119.32 1.64055 119.518 1.90902 119.852 2.68461L122.435 8.91908C122.739 9.66483 122.967 10.3062 123.104 10.8133V10.873L123.165 10.8879C123.256 10.9177 123.332 10.9326 123.423 10.9326C123.499 10.9326 123.59 10.9177 123.651 10.873H123.681V10.8133C123.94 10.0377 124.639 8.35231 125.201 7.06962L125.991 5.30965C126.675 3.80323 127.237 2.65478 127.617 2.01343C127.8 1.71513 127.997 1.59581 128.286 1.56598L128.772 1.53615L128.802 1.50632L128.772 1.52123ZM119.214 21.5223C116.539 23.5507 114.792 26.832 114.792 30.6503C114.792 35.0949 116.965 38.2271 119.776 40.1362C122.344 41.8216 125.353 42.448 128.514 42.448C130.763 42.448 133.285 41.926 134.06 41.6576C134.44 41.5233 134.866 41.3891 135.291 41.3145C135.823 40.6582 136.735 38.3912 136.978 36.5864C136.841 36.3478 136.309 36.2732 136.066 36.4522C135.261 38.4807 133.255 41.3891 128.727 41.3891C122.967 41.3891 118.302 37.3919 118.302 30.1581C118.302 22.9243 122.861 19.6728 128.24 19.6728C133.331 19.6728 134.911 22.3575 135.443 24.6992C135.686 24.908 136.218 24.8782 136.385 24.6246C136.112 22.5216 135.929 20.344 135.899 19.5535C135.58 19.5833 135.337 19.5237 134.911 19.4193C133.255 18.9718 130.596 18.5989 128.696 18.5989C125.049 18.5989 121.782 19.5684 119.214 21.5223ZM114.731 8.42689V3.31104C114.731 1.75987 114.777 1.64055 115.521 1.58089L115.916 1.55106H115.947C115.947 1.55106 116.053 1.387 116.053 1.26768C116.053 1.22293 116.023 1.04395 115.916 0.984293H115.886H115.855C115.172 1.01412 114.64 1.02904 114.047 1.02904C113.454 1.02904 112.923 1.02904 112.208 0.984293H112.178H112.148C112.026 1.04395 112.011 1.20802 111.996 1.26768C111.996 1.387 112.026 1.4914 112.102 1.53615H112.132L112.527 1.58089C113.272 1.64055 113.318 1.75987 113.318 3.31104V8.42689C113.318 9.97805 113.287 10.0526 112.527 10.1421L112.117 10.1869L112.087 10.2167C112.011 10.2913 111.996 10.4255 112.011 10.5299C112.026 10.6343 112.072 10.7238 112.148 10.7536H112.178H112.208C112.953 10.7238 113.439 10.7089 114.047 10.7089C114.655 10.7089 115.126 10.7238 115.855 10.7536H115.886H115.916C116.038 10.694 116.053 10.5299 116.053 10.4702C116.053 10.3509 116.023 10.2465 115.947 10.2018L115.536 10.1421C114.777 10.0526 114.746 9.97805 114.746 8.42689M107.391 36.6461V24.371C107.391 20.7169 107.467 20.1352 109.534 19.9562L110.415 19.8816C110.628 19.7474 110.552 19.121 110.339 19.0166C108.592 19.0911 107.391 19.121 105.978 19.121C104.504 19.121 103.303 19.0911 101.556 19.0166C101.343 19.121 101.282 19.7325 101.48 19.8816L102.361 19.9562C104.428 20.1203 104.504 20.7169 104.504 24.371V36.6461C104.504 40.3003 104.428 40.7776 102.361 41.0162L101.48 41.1206C101.267 41.3294 101.343 41.8813 101.556 41.9857C103.303 41.9111 104.504 41.8813 105.978 41.8813C107.452 41.8813 108.577 41.9111 110.339 41.9857C110.552 41.8813 110.613 41.2548 110.415 41.1206L109.534 41.0162C107.467 40.7776 107.391 40.3003 107.391 36.6461ZM109.2 1.52123C109.2 1.52123 109.306 1.34225 109.291 1.22293C109.291 1.11853 109.23 1.02904 109.154 0.984293H109.124L109.093 0.969378C108.607 0.999208 108.227 1.01412 107.589 1.01412C107.072 1.01412 106.586 1.01412 105.872 0.969378H105.841H105.826C105.735 0.999208 105.674 1.07378 105.659 1.17819C105.628 1.31242 105.674 1.43174 105.765 1.50632L105.796 1.53615L106.084 1.56598C106.586 1.62564 106.844 1.70021 106.905 1.80462C107.087 2.07309 107.178 3.13206 107.178 4.71305V7.78554C107.178 7.91978 107.178 8.08384 107.178 8.18825C106.677 7.68114 106.145 7.08454 105.477 6.36862L103.44 4.13136C101.997 2.53546 101.161 1.4914 100.978 1.02904L100.948 0.954463H100.857C100.69 0.999208 100.447 1.01412 100.203 1.01412C99.9451 1.01412 99.1701 1.01412 98.5623 0.969378H98.5319H98.5015C98.4255 0.999208 98.3647 1.0887 98.3496 1.17819C98.3344 1.29751 98.3496 1.41683 98.4407 1.4914L98.4711 1.52123L98.7598 1.55106C99.1549 1.59581 99.4437 1.70021 99.5956 1.86428C99.8692 2.16258 99.8844 2.41614 99.8844 2.81884V7.09945C99.8844 7.80046 99.8844 9.42619 99.702 9.88856C99.6716 9.96314 99.55 10.0675 99.1549 10.1123L98.7143 10.157L98.6839 10.1869C98.6839 10.1869 98.5775 10.3509 98.5927 10.4553C98.5927 10.5597 98.6535 10.6492 98.7295 10.7089L98.7598 10.7387H98.8054C99.3069 10.7089 99.702 10.694 100.325 10.694C100.827 10.694 101.313 10.694 102.027 10.7387H102.057L102.088 10.7238C102.164 10.6791 102.209 10.6045 102.225 10.515C102.225 10.4106 102.225 10.3062 102.149 10.2167L102.118 10.1719L101.617 10.1272C101.267 10.0974 101.024 10.0228 100.963 9.90347C100.811 9.635 100.72 8.56112 100.72 6.98013V3.84798C100.72 3.59442 100.72 3.31104 100.751 3.11714C100.978 3.3707 101.374 3.81815 101.723 4.22085C101.966 4.50424 102.179 4.75779 102.331 4.92186L105.72 8.71027C106.844 9.97805 107.391 10.6045 107.589 10.873L107.619 10.9177H107.68C107.877 10.9177 108.014 10.8282 108.06 10.6791V10.6492V10.6194C108.045 10.4553 108.014 9.88856 108.014 8.11367V4.48932C108.014 3.75849 108.014 2.22224 108.227 1.77479C108.242 1.74496 108.425 1.61072 108.956 1.53615L109.2 1.50632L109.23 1.47649L109.2 1.52123ZM96.0701 1.50632C96.1309 1.43174 96.1613 1.31242 96.1461 1.20802C96.1461 1.11853 96.0853 1.04395 96.0094 0.999208H95.979L95.9486 0.984293C95.4319 1.01412 95.052 1.02904 94.4138 1.02904C93.8515 1.02904 93.3045 1.02904 92.7574 0.984293H92.727L92.6966 0.999208C92.6358 1.04395 92.575 1.11853 92.575 1.22293C92.575 1.32734 92.575 1.43174 92.651 1.50632L92.6814 1.53615L93.0917 1.56598C93.426 1.59581 93.654 1.6853 93.7299 1.81953C93.8971 2.11783 93.9883 3.14697 93.9883 4.74288V6.39845C93.9883 8.08384 93.502 10.1123 91.177 10.1123C89.2319 10.1123 88.3201 8.934 88.3201 6.38353V3.28121C88.3201 1.75987 88.3657 1.64055 89.0951 1.58089L89.475 1.55106H89.5054C89.5054 1.55106 89.6118 1.387 89.6118 1.26768C89.6118 1.16327 89.5662 1.04395 89.4598 0.999208H89.4295H89.3991C88.7 1.02904 88.2138 1.04395 87.6059 1.04395C86.9981 1.04395 86.4814 1.04395 85.7976 0.999208H85.7672H85.7368C85.6456 1.04395 85.6 1.16327 85.5848 1.26768C85.5848 1.387 85.6152 1.4914 85.6912 1.53615H85.7216L86.1167 1.58089C86.8461 1.64055 86.8917 1.75987 86.8917 3.28121V6.66692C86.8917 8.41197 87.2564 9.47094 88.077 10.1421C88.7152 10.6791 89.6726 10.9624 90.8883 10.9624C92.0432 10.9624 93.1373 10.5448 93.7603 9.87364C94.4746 9.12789 94.8089 7.97944 94.8089 6.36862V4.74288C94.8089 4.01204 94.8089 2.31173 95.0064 1.86428C95.0672 1.71513 95.3255 1.61072 95.6446 1.58089L96.0397 1.55106L96.0701 1.52123V1.50632ZM79.2633 19.8965C79.476 19.7623 79.4 19.1359 79.1873 19.0315C77.6829 19.106 76.4824 19.1359 75.1147 19.1359C73.6103 19.1359 72.4098 19.0613 70.6927 19.0315C70.4799 19.1359 70.4192 19.7474 70.6167 19.8965L71.5285 19.9711C73.352 20.1053 73.5951 20.7019 73.5951 24.3114V36.7207C73.5951 40.345 73.5192 40.6881 71.5589 41.0311L70.9662 41.1355C70.7535 41.3443 70.8295 41.8962 71.0422 42.0006C72.4098 41.9708 73.6103 41.8962 75.1147 41.8962C76.4824 41.8962 77.6829 41.926 79.5672 42.0006C79.7799 41.8962 79.8407 41.2698 79.6432 41.1355L78.625 41.0311C76.6648 40.8223 76.4824 40.345 76.4824 36.7207V31.8584C76.4824 30.8292 76.5584 30.7547 78.2451 30.7547H88.2897C89.9765 30.7547 90.0525 30.8292 90.0525 31.8584V36.7207C90.0525 40.345 90.0525 40.6881 87.9098 41.0311L87.2412 41.1355C87.0285 41.3443 87.1045 41.8962 87.3172 42.0006C88.8672 41.926 90.1285 41.8962 91.5721 41.8962C93.0157 41.8962 94.1402 41.926 95.827 42.0006C96.0397 41.8962 96.1005 41.2698 95.903 41.1355L95.0672 41.0311C93.0309 40.7925 92.9549 40.345 92.9549 36.7207V24.3114C92.9549 20.687 93.0309 20.1799 95.0672 19.9711L95.8118 19.8965C96.0246 19.7623 95.9486 19.1359 95.7358 19.0315C94.1554 19.106 92.9549 19.1359 91.5873 19.1359C90.1437 19.1359 88.9584 19.106 87.3324 19.0315C87.1197 19.1359 87.0589 19.7474 87.2564 19.8965L87.925 19.9711C89.9917 20.1799 90.0677 20.7019 90.0677 24.3114V28.2788C90.0677 29.3527 89.9917 29.3825 88.3049 29.3825H78.2603C76.5736 29.3825 76.4976 29.3527 76.4976 28.2788V24.3114C76.4976 20.687 76.5736 20.1799 78.6098 19.9711L79.2785 19.8965H79.2633ZM77.8349 8.68044V8.65061V8.62078C77.7741 8.48655 77.6221 8.42689 77.4853 8.42689C77.4094 8.42689 77.3486 8.4418 77.303 8.48655L77.2726 8.53129C76.8471 9.35162 76.4824 9.76924 76.2848 9.87364C75.9657 10.0228 75.525 10.0825 74.4613 10.0825C73.2456 10.0825 72.9265 9.9333 72.7746 9.78415C72.5618 9.57534 72.5314 9.09806 72.5314 8.36723V6.33879C72.5314 6.14986 72.653 6.0554 72.8961 6.0554H73.7471C74.2638 6.0554 74.6437 6.0554 74.8412 6.12998C75.0388 6.17472 75.1451 6.30896 75.2211 6.59234L75.3579 7.15911V7.20386C75.4339 7.26352 75.5402 7.30826 75.6618 7.30826C75.7986 7.30826 75.9049 7.26352 75.9505 7.17403V7.1442V7.11437C75.9505 6.98013 75.9505 6.78624 75.9201 6.57743C75.9049 6.32387 75.8897 6.02557 75.8897 5.72727C75.8897 5.42897 75.9049 5.11575 75.9201 4.84728C75.9201 4.62356 75.9505 4.42966 75.9505 4.28051V4.22085C75.8897 4.13136 75.7834 4.08662 75.6466 4.08662C75.525 4.08662 75.4339 4.13136 75.3731 4.19102L75.2363 4.83237C75.1755 5.1605 75.0844 5.20524 74.9628 5.24999C74.8108 5.29473 74.3701 5.32456 73.7471 5.32456H72.8961C72.653 5.32456 72.5314 5.22513 72.5314 5.02626V2.14766C72.5314 1.83942 72.6378 1.6853 72.8505 1.6853H73.8991C74.5221 1.6853 74.9932 1.6853 75.2971 1.77479C75.9657 1.93885 76.1025 2.35648 76.3 2.98291L76.3304 3.0724V3.10223C76.3304 3.10223 76.4824 3.19172 76.5888 3.19172C76.6951 3.19172 76.8319 3.16189 76.8927 3.05748L76.9231 3.02765V2.81884C76.8319 1.9836 76.7559 1.26768 76.6799 1.05887L76.6496 0.969378L76.5432 0.999208C76.376 1.04395 75.4795 1.04395 74.5981 1.04395H71.8476C71.2853 1.04395 70.7991 1.04395 70.1304 0.999208H70.1H70.0697C69.9481 1.05887 69.9329 1.22293 69.9177 1.28259C69.9177 1.40191 69.9481 1.50632 70.0241 1.55106L70.3128 1.59581C71.0574 1.6853 71.103 1.77479 71.103 3.29612V8.47163C71.103 10.0228 71.0118 10.0974 70.2976 10.157L69.7809 10.2018L69.7505 10.2316C69.6746 10.3062 69.6594 10.4404 69.6746 10.5448C69.6897 10.6492 69.7353 10.7238 69.8113 10.7685H69.8417H69.8721C70.7231 10.7387 71.2246 10.7238 71.8628 10.7238H73.1848C74.4613 10.7238 75.7378 10.7238 77.1054 10.7685H77.1814L77.2118 10.7089C77.4094 10.3062 77.7741 9.18755 77.8804 8.68044M65.6172 8.45672V3.28121C65.6172 1.74496 65.6628 1.65547 66.3922 1.58089L66.6961 1.55106H66.7569C66.7569 1.55106 66.8633 1.387 66.8633 1.26768C66.8633 1.22293 66.8329 1.04395 66.7265 0.984293H66.6961H66.6657C65.9515 1.01412 65.4804 1.02904 64.9486 1.02904C64.3103 1.02904 63.8089 1.01412 63.1858 0.984293H63.1554H63.125C63.0035 1.04395 62.9883 1.20802 62.9731 1.26768C62.9731 1.387 63.0035 1.4914 63.0795 1.53615L63.4138 1.58089C64.1584 1.65547 64.204 1.75987 64.204 3.28121V4.93677C64.204 5.16547 63.9963 5.27982 63.5809 5.27982H59.402C58.9866 5.27982 58.779 5.16547 58.779 4.93677V3.28121C58.779 1.74496 58.8246 1.65547 59.554 1.58089L59.8275 1.55106H59.8731C59.8731 1.55106 59.9795 1.387 59.9795 1.25276C59.9795 1.20802 59.9491 1.02904 59.8427 0.969378H59.8123H59.7819C59.1133 0.999208 58.627 1.01412 58.0951 1.01412C57.7152 1.01412 57.3809 1.01412 57.0162 0.999208C56.7883 0.999208 56.5299 0.984293 56.2564 0.984293H56.226H56.1956C56.0741 1.04395 56.0589 1.20802 56.0437 1.25276C56.0437 1.387 56.0741 1.47649 56.15 1.52123H56.1804L56.5907 1.56598C57.229 1.61072 57.3505 1.74496 57.3505 3.26629V8.4418C57.3505 9.9333 57.3201 9.99296 56.5907 10.1272L56.302 10.1719L56.2716 10.2018C56.1956 10.2764 56.1804 10.4106 56.1956 10.515C56.2108 10.6194 56.2716 10.694 56.3324 10.7387H56.3628H56.3932C56.5907 10.7387 56.7883 10.7387 56.9858 10.7238C57.3353 10.7238 57.6848 10.694 58.0951 10.694C58.6422 10.694 59.1133 10.694 59.9491 10.7387H59.9795H60.0099C60.101 10.694 60.1466 10.5597 60.1466 10.4553C60.1466 10.336 60.1162 10.2316 60.0402 10.1869L59.5692 10.1272C58.8701 10.0526 58.779 9.97805 58.779 8.4418V6.41336C58.779 6.18466 58.9866 6.07032 59.402 6.07032H63.5809C63.9963 6.07032 64.204 6.18466 64.204 6.41336V8.4418C64.204 9.96313 64.204 9.99296 63.4138 10.1272L63.0947 10.1719L63.0643 10.2018C62.9731 10.2764 62.9731 10.4106 62.9883 10.515C63.0035 10.6194 63.0643 10.694 63.125 10.7387H63.1554H63.1858C63.8849 10.7089 64.4015 10.694 64.9486 10.694C65.4956 10.694 66.0275 10.7089 66.7113 10.7387H66.7417H66.7721C66.8937 10.6791 66.9089 10.515 66.9241 10.4702C66.9241 10.3509 66.8937 10.2465 66.8177 10.2018L66.4226 10.1421C65.678 10.0526 65.6476 9.97805 65.6476 8.45672M53.5819 0.805313V0.760568V0.730738C53.5211 0.626333 53.3692 0.611418 53.3084 0.611418C53.278 0.611418 53.2172 0.611418 53.1716 0.641248H53.1412L53.126 0.685993C52.9437 0.999208 52.8525 1.02904 52.0775 1.02904H46.0295C45.376 1.02904 45.0873 0.999208 45.0113 0.671078V0.641248L44.9809 0.611418C44.9353 0.566673 44.8746 0.551758 44.7834 0.551758C44.753 0.551758 44.6314 0.551758 44.5706 0.596503L44.525 0.626333V0.671078C44.4187 1.23785 44.2059 2.14766 43.9628 2.78901V2.83376V2.8785C44.054 3.05748 44.3579 3.13206 44.5099 3.01274H44.5402V2.96799C44.6922 2.63986 44.829 2.32665 45.1633 2.01343C45.4824 1.73004 46.2118 1.6853 46.8956 1.6853H47.701C47.9138 1.6853 48.0201 1.79965 48.0201 2.02834V8.45672C48.0201 10.0079 47.929 10.0825 47.2148 10.1421L46.6829 10.1869H46.6373C46.5461 10.2614 46.5005 10.3658 46.5005 10.4852C46.5005 10.5896 46.5461 10.7089 46.6373 10.7536H46.6677H46.6981C47.5947 10.7238 48.1417 10.7089 48.7344 10.7089C49.327 10.7089 49.7829 10.7089 50.6491 10.7536H50.6795H50.7098C50.801 10.7089 50.8466 10.5747 50.8618 10.4702C50.8618 10.3509 50.8314 10.2465 50.7554 10.2018L50.2388 10.1421C49.5094 10.0825 49.4638 9.99297 49.4638 8.45672V2.01343C49.4638 1.86428 49.4638 1.73004 49.479 1.70021C49.5094 1.67038 49.6613 1.67038 49.7677 1.67038H50.801C51.5912 1.67038 52.1231 1.77479 52.427 2.01343C52.5638 2.11783 52.6853 2.4758 52.7461 2.98291V3.01274L52.7765 3.04257C52.8373 3.10223 52.9285 3.14697 53.0349 3.14697C53.1716 3.14697 53.2932 3.08731 53.3388 2.99782V2.96799V2.93816C53.2932 2.52054 53.3996 1.37208 53.5515 0.790398M43.6133 30.6503C43.6133 35.0949 45.7863 38.2271 48.5976 40.1362C51.1657 41.8216 54.1746 42.448 57.3353 42.448C59.5844 42.448 62.1069 41.926 62.8819 41.6576C63.2618 41.5233 63.6873 41.3891 64.1128 41.3145C64.6446 40.6582 65.5564 38.3912 65.7996 36.5864C65.6628 36.3478 65.1309 36.2732 64.8878 36.4522C64.0824 38.4807 62.0765 41.3891 57.5481 41.3891C51.7888 41.3891 47.1236 37.3919 47.1236 30.1581C47.1236 22.9243 51.6824 19.6728 57.0618 19.6728C62.1525 19.6728 63.7329 22.3575 64.2648 24.6992C64.5079 24.908 65.0397 24.8782 65.2069 24.6246C64.9334 22.5216 64.751 20.344 64.7206 19.5535C64.4015 19.5833 64.1584 19.5237 63.7329 19.4193C62.0765 18.9718 59.4172 18.5989 57.5177 18.5989C53.8706 18.5989 50.6035 19.5684 48.0353 21.5223C45.3608 23.5507 43.6133 26.832 43.6133 30.6503Z"></path>
</svg>