<svg height="100%" viewBox="0 0 32 32" fill="currentColor"><path d="M29.735,1.321C29.545,1.116,29.279,1,29,1H3C2.721,1,2.455,1.116,2.265,1.321 C2.076,1.526,1.981,1.802,2.003,2.08l2,25c0.033,0.42,0.327,0.773,0.733,0.885l11,3C15.823,30.988,15.912,31,16,31 s0.177-0.012,0.263-0.035l11-3c0.407-0.111,0.7-0.465,0.733-0.885l2-25C30.019,1.802,29.924,1.526,29.735,1.321z M22.998,22.071 c-0.029,0.403-0.298,0.75-0.681,0.877l-6,2C16.213,24.982,16.107,25,16,25s-0.213-0.018-0.316-0.052l-6-2 C9.275,22.812,9,22.431,9,22v-3h2v2.279l5,1.667l5.05-1.684L21.426,16H9.5c-0.524,0-0.96-0.405-0.998-0.929l-0.5-7 c-0.02-0.277,0.077-0.55,0.266-0.753C8.458,7.115,8.722,7,9,7h15v2H10.074l0.357,5H22.5c0.278,0,0.542,0.115,0.732,0.318 c0.189,0.203,0.285,0.476,0.266,0.753L22.998,22.071z"/></svg>
