<svg viewBox="0 0 764.308 377.5"><g clip-path="url(#clipPath4332)" transform="matrix(1.25 0 0 -1.25 0 683.75)"><path d="M23.075 494.78v36.294h10.264v-35.109c0-13.002 4.867-18.211 15.989-18.211 10.511 0 15.24 6.148 15.24 17.133v36.187h9.444V495.73c0-16.201-8.026-26.48-25.06-26.48-17.823 0-25.877 10.052-25.877 25.53M96.953 531.07h10.275l26.836-36.767c3.446-4.852 6.154-10.045 6.25-10.045h.256s-.491 4.715-.491 9.34v37.471h9.234v-60.763h-9.234l-28.478 39c-2.845 4.149-5.447 9.005-5.447 9.005h-.11s.332-4.043.332-7.82v-40.185h-9.424v60.763M173.42 531.07h10.156v-60.763H173.42v60.763zM200.6 531.07h10.749l15.367-39.847c1.77-4.484 3.561-10.271 3.561-10.392h.226c0 .121 1.777 5.775 3.535 10.392l14.771 39.847h9.824l-23.516-60.763h-9.93L200.6 531.07M275.31 531.07h37.114v-8.273h-26.966v-16.663h24.125v-8.04h-24.125v-19.497h27.55v-8.29h-37.699v60.763M352.49 504.34c8.511 0 12.167 3.222 12.167 9.48 0 6.372-4.004 9.334-12.763 9.334h-8.033V504.34h8.629zm-18.782 26.731h19.016c14.187 0 22.339-5.775 22.339-16.802 0-10.384-7.551-14.989-16.672-15.957v-.218c1.306-.948 3.564-3.21 7.224-8.268l14.428-19.518H368.33l-12.306 17.38c-6.023 8.39-7.443 9.092-11.099 9.092h-1.065v-26.472h-10.153v60.763M391.96 475.27l4.496 7.23c1.653-1.195 6.127-4.99 14.177-4.99 7.218 0 11.933 3.2 11.933 8.52 0 6.372-5.789 8.164-14.641 12.281-7.809 3.555-14.421 7.937-14.421 17.511 0 10.63 9.079 16.42 19.609 16.42 9.94 0 15.014-3.166 17.612-4.958l-4.366-7.21c-2.25 1.537-6.858 3.899-12.89 3.899-5.791 0-10.043-2.492-10.043-7.693 0-5.789 5.083-7.556 11.698-10.527 8.511-3.766 17.254-8.126 17.254-19.26 0-10.641-8.512-17.247-21.616-17.247-10.157 0-16.327 3.774-18.803 6.023M452.37 531.07h10.157v-60.763H452.37v60.763zM498.21 522.67h-18.54v8.406h47.391v-8.406h-18.556v-52.357h-10.296v52.357M559.57 493.37l-21.394 37.699h11.107l15.595-28.859h.242l15.363 28.859h9.931l-20.688-37.699v-23.065H559.57v23.065M19.642 291.73c0 16.917 11.584 31.443 32.15 31.443 8.147 0 13.582-1.775 18.329-4.835l-4.84-7.572c-3.563 2.368-7.82 3.9-13.716 3.9-13.837 0-21.051-9.586-21.051-22.568 0-13.376 6.853-23.427 21.277-23.427 6.867 0 11.47 2.27 15.019 4.847l4.267-7.195c-3.324-2.841-10.41-6.158-19.638-6.158-20.675 0-31.798 14.679-31.798 31.566M120.7 282.74l-7.202 18.562c-2.01 5.324-3.795 11.007-3.795 11.007h-.222s-1.905-5.929-3.786-11.007l-7.088-18.562H120.7zm-15.71 39.24h9.93l24.706-60.75h-10.632l-5.205 13.229H95.54l-4.97-13.229H80.51l24.48 60.75M154.5 321.98h10.417v-52.466h25.641v-8.285H154.5v60.75M207.92 321.98h10.172v-60.75H207.92v60.75zM240.66 321.98h36.527v-8.257h-26.354V296.46h23.282v-8.144h-23.282V261.23H240.66v60.75M343.62 291.5c0 12.538-6.988 23.392-21.04 23.392-14.069 0-21.401-10.757-21.401-23.038 0-12.523 7.12-23.291 21.166-23.291 14.064 0 21.275 10.519 21.275 22.938zm-53.311 0c0 16.66 11.713 31.671 32.036 31.671 20.339 0 32.049-14.654 32.049-31.317 0-16.674-11.475-31.691-31.814-31.691-20.33 0-32.271 14.679-32.271 31.338M388.42 295.26c8.52 0 12.184 3.206 12.184 9.465 0 6.396-4.042 9.337-12.783 9.337h-8.028V295.26h8.627zm-18.823 26.716h19.067c14.178 0 22.333-5.785 22.333-16.781 0-10.398-7.572-14.996-16.683-15.935v-.251c1.322-.944 3.554-3.21 7.227-8.279l14.416-19.504h-11.689l-12.309 17.376c-6.035 8.383-7.455 9.126-11.11 9.126h-1.055v-26.502h-10.197v60.75M430.83 321.98h10.283l26.854-36.761c3.42-4.836 6.152-10.042 6.249-10.042h.235s-.462 4.72-.462 9.336v37.466h9.21v-60.75h-9.21l-28.498 38.985c-2.825 4.178-5.435 9.012-5.435 9.012h-.102s.34-4.028.34-7.81v-40.188h-9.463v60.75M505.66 321.98h10.173v-60.75H505.66v60.75zM571.62 282.74l-7.215 18.562c-2.001 5.324-3.778 11.007-3.778 11.007h-.25s-1.873-5.929-3.77-11.007l-7.094-18.562h22.106zm-15.726 39.24h9.93l24.718-60.75h-10.644l-5.206 13.229h-28.259l-4.953-13.229h-10.043l24.457 60.75M72.958 395.94c0 12.525-6.972 23.412-21.045 23.412-14.056 0-21.4-10.766-21.4-23.054 0-12.544 7.096-23.309 21.164-23.309 14.07 0 21.28 10.535 21.28 22.951zm-53.316 0c0 16.658 11.705 31.681 32.036 31.681 20.332 0 32.042-14.662 32.042-31.323S72.253 364.6 51.914 364.6c-20.326 0-32.271 14.666-32.271 31.34M101.66 426.43h36.532v-8.252h-26.367v-17.275h23.291v-8.138h-23.291v-27.09h-10.164v60.754"/><path d="M0 349.49h164.92v93.344H0V349.49zm6.371 86.973h152.18V355.86H6.371v80.603zM0 453.99h611.45v93.338H0V453.99zm6.371 86.971h598.71v-80.6H6.371v80.6zM0 245h611.45v93.337H0v-93.34zm6.371 86.97h598.71v-80.603H6.371v80.603z"/></g></svg>