<svg viewBox="0 0 340.16 73.09" xml:space="preserve">
	<path d="M339.64 17.24C331.97 5.74 320.23-.6 307-.16c-21.68.73-33.9 15-34.88 28.73l.05.11c-1.34 25.87 4.81 34.89 16.58 42.49l.31.19.32.15c3.58 1.75 8.09 2.9 13.1 2.9 7.13 0 15.29-2.34 23.25-8.62l-7.21-9.13c-11.51 9.09-21.26 5.66-23.74 4.53-7.57-4.94-12.07-9.79-10.93-31.86.64-8.52 8.88-17.39 23.66-17.89 11.33-.37 19.88 6.1 21.7 10.85v50.78h10.96V18.7l-.53-1.46zM171.05 0h-.12c-20.96 0-38.06 15.47-38.13 36.43-.06 21.03 16.99 36.67 38.01 36.67h.12c20.96 0 38.06-15.47 38.13-36.43C209.12 15.64 192.07 0 171.05 0zm-.12 63.96h-.08c-14.61 0-26.46-11.97-26.42-26.58.05-14.57 11.93-26.41 26.5-26.41h.08c14.61 0 26.46 11.97 26.42 26.58-.05 14.56-11.94 26.41-26.5 26.41zM135.5-1.51c-14.62 0-21.26 7.35-27.38 13.26-2.88 2.78-6.15 5.41-9.16 6.95-1.4.72-5.49 1.24-9.15 1.31V0H78.85v73.09h10.96V31.63c3.65-.02 11.4-.95 14.57-2.57 4.55-2.33 8.11-5.69 11.47-8.94 5.55-5.36 10.5-10 19.64-10V-1.51zm115.12 21.52c-3.65-.06-7.37-.59-8.77-1.31-3.01-1.54-6.06-4.17-8.94-6.95-6.11-5.91-15.18-13.26-27.97-13.26v11.63c9.14 0 14.25 4.63 19.8 10 3.36 3.25 7.14 6.61 11.69 8.94 3.17 1.62 10.54 2.55 14.19 2.57v41.46h10.96V0h-10.96v20.01zM58.92 38.98c-2.97-2.43-6.71-4.29-11.29-5.6 8.84-6.04 12.96-13.49 15.81-18.66 1-1.81 2.37-4.29 3.05-4.78-.14.1-.44.19-.61.17l.87-11.6C59.4-2.04 55.99 4.13 53.26 9.09c-4.36 7.9-11.23 19.3-35.06 22.19-2.05.12-5.12.27-6.95.47V0h-4.7L.74-1.44l-.1 74.53H0h11.24V43.46c1.83-.12 5.38-.31 7.62-.56 19.77-1.1 28.67 2.02 32.41 5.08 3.6 2.94 4.34 6.72 4.89 12.61.5 5.27 1.19 11.83 7.47 14.97l5.24-10.39c-.55-.65-.83-3.79-1.01-5.68-.56-6.03-1.33-14.29-8.94-20.51z" fill="currentColor"></path>
	</svg>