<svg xmlns="http://www.w3.org/2000/svg" data-name="Vitality.Swiss Expo 2025"  viewBox="0 0 990.758 162.25"><path d="M124.37 162.25c.388 0 .678-.193.678-.871v-73.15c0-6.192-3.484-9.676-9.676-9.676H15.606c-6.192 0-9.676 3.484-9.676 9.676v47.219c0 6.192 3.484 9.675 9.676 9.675h85.252c3.677 0 6.483.871 9.192 3.485l12.965 12.77c.774.775 1.065.872 1.355.872m35.52-15.861c14.813 0 26.163-6.677 26.163-20.029 0-12.192-6.83-16.74-19.141-19.255l-9.137-1.838c-8.464-1.742-11.351-4.646-11.351-9.29 0-5.32 4.522-9.289 12.697-9.289 7.31 0 11.639 3.774 12.697 9.58q.433 2.322 2.596 2.322h7.406c1.54 0 2.5-.871 2.309-2.516-1.443-11.804-10.868-18.578-25.008-18.578-14.812 0-24.431 7.838-24.431 19.061 0 10.644 5.867 16.45 18.563 18.869l9.524 1.838c8.078 1.548 11.445 4.452 11.445 9.676 0 6.483-5.1 10.256-14.33 10.256-9.234 0-14.43-4.45-15.39-13.062-.193-1.547-1.06-2.323-2.502-2.323h-7.31c-1.54 0-2.5.872-2.308 2.516 1.442 16.45 12.985 22.062 27.51 22.062m51.133-1.162c1.347 0 2.308-.58 2.694-2.031l9.81-34.543h.096l9.714 34.543c.385 1.45 1.348 2.031 2.695 2.031h7.983c1.346 0 2.307-.58 2.693-2.031l12.792-43.058c.48-1.743-.29-2.71-2.02-2.71h-6.828c-1.444 0-2.213.679-2.598 2.129l-8.37 32.802h-.094l-9.426-32.898c-.386-1.451-1.347-2.032-2.693-2.032h-7.887c-1.348 0-2.308.58-2.694 2.032l-9.425 32.898h-.194l-8.27-32.802c-.386-1.354-1.154-2.128-2.598-2.128h-6.83c-1.73 0-2.5.967-2.02 2.709l12.793 43.058c.386 1.45 1.348 2.032 2.694 2.032h7.983zm62.484-53.99c1.538 0 2.404-.872 2.404-2.42v-7.741c0-1.548-.866-2.418-2.404-2.418h-7.118c-1.54 0-2.405.87-2.405 2.418v7.741c0 1.548.865 2.42 2.405 2.42zm-.192 53.99c1.538 0 2.404-.87 2.404-2.419v-42.96c0-1.548-.866-2.42-2.404-2.42h-6.734c-1.54 0-2.405.872-2.405 2.42v42.96c0 1.548.866 2.42 2.405 2.42h6.734zm28.818 1.162c12.407 0 20.39-6.289 20.39-15.482 0-7.934-4.232-11.805-14.235-13.835l-7.983-1.646c-4.618-.968-6.733-2.323-6.733-5.515 0-3.096 2.404-5.322 7.695-5.322 4.713 0 7.213 2.129 8.175 4.935.384 1.355 1.154 2.128 2.597 2.128h6.156c1.636 0 2.502-.967 2.116-2.612-1.924-8.322-8.368-12.773-18.756-12.773-11.35 0-19.14 5.42-19.14 13.837 0 7.353 3.943 11.805 12.503 13.643l7.215 1.548c6.347 1.355 8.849 3.193 8.849 6.386 0 4.065-2.79 6.386-8.658 6.386-5.482 0-9.136-2.128-10.291-7.353-.385-1.451-1.154-2.226-2.597-2.226h-6.252c-1.538 0-2.501.968-2.31 2.516 1.54 11.03 10.196 15.385 21.259 15.385m43.533 0c12.408 0 20.39-6.289 20.39-15.482 0-7.934-4.23-11.805-14.233-13.835l-7.984-1.646c-4.617-.968-6.733-2.323-6.733-5.515 0-3.096 2.404-5.322 7.694-5.322 4.713 0 7.215 2.129 8.176 4.935.385 1.355 1.154 2.128 2.597 2.128h6.157c1.634 0 2.5-.967 2.115-2.612-1.923-8.322-8.368-12.773-18.756-12.773-11.35 0-19.14 5.42-19.14 13.837 0 7.353 3.943 11.805 12.503 13.643l7.214 1.548c6.349 1.355 8.849 3.193 8.849 6.386 0 4.065-2.79 6.386-8.657 6.386-5.482 0-9.138-2.128-10.291-7.353-.385-1.451-1.154-2.226-2.598-2.226h-6.251c-1.54 0-2.501.968-2.308 2.516 1.539 11.03 10.195 15.385 21.256 15.385M48.173 1.25c-1.355 0-2.226.678-2.71 1.936L29.11 51.663 12.66 3.186c-.483-1.258-1.353-1.936-2.708-1.936h-7.74C.469 1.25-.401 2.315.179 4.057l22.449 61.828c.483 1.258 1.354 1.936 2.709 1.936h7.45c1.355 0 2.226-.678 2.71-1.936L57.943 4.057c.582-1.742-.29-2.807-2.031-2.807zm23.51 12.579c1.549 0 2.42-.871 2.42-2.418V3.669c0-1.548-.871-2.419-2.42-2.419h-7.16c-1.547 0-2.418.871-2.418 2.42v7.74c0 1.548.87 2.419 2.42 2.419h7.16zm-.192 53.991c1.548 0 2.42-.871 2.42-2.42V22.44c0-1.548-.872-2.419-2.42-2.419h-6.773c-1.548 0-2.42.871-2.42 2.42v42.96c0 1.548.872 2.419 2.42 2.419zm29.124.58c1.838 0 3.58-.097 5.417-.387 1.453-.193 2.226-1.161 2.226-2.612V61.24c0-1.548-.871-2.323-2.516-2.226h-1.548c-3.773 0-6.095-1.354-6.095-5.322V29.02h7.257c1.548 0 2.419-.871 2.419-2.418v-4.16c0-1.549-.871-2.42-2.42-2.42h-7.256V7.347c0-1.55-.871-2.42-2.42-2.42h-6.773c-1.548 0-2.42.87-2.42 2.42v12.675H80.39c-1.548 0-2.42.871-2.42 2.42v4.16c0 1.547.872 2.418 2.42 2.418h6.096v25.642c0 2.806.193 5.224.969 7.16 1.838 4.644 6.579 6.579 13.159 6.579m26.8.581c6.677 0 11.42-2.71 13.645-5.903h.096v2.323c0 1.548.87 2.419 2.419 2.419h6.095c1.55 0 2.42-.871 2.42-2.42v-29.51c0-11.418-7.161-17.03-19.45-17.03-11.32 0-19.157 5.805-20.61 14.61-.191 1.646.776 2.516 2.325 2.516h6.579c1.45 0 2.225-.774 2.516-2.225 1.064-4.16 4.257-6.677 9.19-6.677 5.42 0 8.032 2.419 8.032 5.806s-2.806 4.547-6.386 5.322l-6.58 1.354c-10.062 2.032-16.642 6-16.642 14.902 0 9.093 7.74 14.513 16.352 14.513m3.194-8.031c-4.646 0-7.838-2.516-7.838-6.289 0-3.387 2.032-5.323 5.515-6.774 3-1.257 6.967-2.225 12.675-3.095v6.192c0 6.192-4.257 9.966-10.352 9.966m39.09 6.87c1.548 0 2.42-.871 2.42-2.42V3.67c0-1.548-.872-2.419-2.42-2.419h-6.773c-1.548 0-2.42.871-2.42 2.42v61.732c0 1.548.872 2.419 2.42 2.419h6.772zm20.608-53.992c1.548 0 2.42-.871 2.42-2.418V3.669c0-1.548-.872-2.419-2.42-2.419h-7.16c-1.548 0-2.42.871-2.42 2.42v7.74c0 1.548.872 2.419 2.42 2.419zm-.193 53.992c1.549 0 2.418-.871 2.418-2.42v-42.96c0-1.548-.87-2.419-2.418-2.419h-6.773c-1.548 0-2.42.871-2.42 2.42v42.96c0 1.548.87 2.419 2.42 2.419zm29.124.58c1.839 0 3.579-.097 5.418-.387 1.45-.193 2.225-1.161 2.225-2.612V61.24c0-1.548-.87-2.323-2.515-2.226h-1.55c-3.772 0-6.094-1.354-6.094-5.322V29.02h7.256c1.548 0 2.42-.871 2.42-2.418v-4.16c0-1.549-.872-2.42-2.42-2.42h-7.256V7.347c0-1.55-.87-2.42-2.42-2.42h-6.772c-1.55 0-2.42.87-2.42 2.42v12.675h-6.095c-1.55 0-2.42.871-2.42 2.42v4.16c0 1.547.87 2.418 2.42 2.418h6.096v25.642c0 2.806.193 5.224.967 7.16 1.838 4.644 6.58 6.579 13.16 6.579m45.186-48.379c-1.355 0-2.42.677-2.806 2.031L251.36 54.47l-10.353-32.416c-.387-1.354-1.452-2.031-2.806-2.031h-7.064c-1.741 0-2.516 1.161-1.934 2.806l16.35 44.412-5.901 15.674c-.58 1.646.193 2.807 1.936 2.807h6.675c1.356 0 2.225-.677 2.71-1.935l22.448-60.958c.58-1.645-.194-2.806-1.935-2.806zm130-18.802h2v161.03h-2zm201.85 87.907c-.09-.76.358-1.163 1.074-1.163h3.4c.672 0 1.075.358 1.164 1.074.448 3.982 2.864 6.041 7.16 6.041s6.668-1.745 6.668-4.743c0-2.417-1.566-3.76-5.325-4.476l-4.43-.85c-5.908-1.119-8.637-3.804-8.637-8.727 0-5.19 4.475-8.816 11.367-8.816 6.578 0 10.963 3.133 11.635 8.593.09.76-.358 1.163-1.074 1.163h-3.446q-1.007 0-1.208-1.074c-.492-2.684-2.506-4.43-5.907-4.43-3.804 0-5.908 1.834-5.908 4.296 0 2.148 1.343 3.49 5.28 4.296l4.253.85c5.728 1.164 8.905 3.267 8.905 8.906 0 6.175-5.28 9.263-12.172 9.263-6.758 0-12.128-2.595-12.8-10.203m66.139-21.122c.805 0 1.163.447.94 1.252L655.7 97.854c-.179.671-.582.94-1.253.94h-3.267c-.627 0-1.074-.269-1.253-.94l-6.355-22.823-6.265 22.823c-.18.671-.626.94-1.253.94h-3.267c-.626 0-1.074-.269-1.253-.94l-7.787-28.597c-.224-.805.134-1.252.94-1.252h3.356c.672 0 1.03.358 1.209.984l5.415 21.57 5.952-21.614c.179-.672.626-.94 1.253-.94h3.356c.627 0 1.074.268 1.253.94l6.041 21.614 5.326-21.57c.134-.626.537-.984 1.208-.984zm7.512 30.789c-.716 0-1.118-.404-1.118-1.12v-28.55c0-.717.402-1.12 1.118-1.12h3.312c.716 0 1.119.403 1.119 1.12v28.55c0 .716-.403 1.12-1.12 1.12zm10.157-9.667c-.089-.76.358-1.163 1.074-1.163h3.401c.672 0 1.075.358 1.164 1.074.448 3.982 2.864 6.041 7.16 6.041s6.669-1.745 6.669-4.743c0-2.417-1.567-3.76-5.326-4.476l-4.43-.85c-5.908-1.119-8.638-3.804-8.638-8.727 0-5.19 4.476-8.816 11.367-8.816 6.579 0 10.965 3.133 11.635 8.593.09.76-.358 1.163-1.074 1.163h-3.446q-1.005 0-1.208-1.074c-.492-2.684-2.506-4.43-5.907-4.43-3.804 0-5.907 1.834-5.907 4.296 0 2.148 1.343 3.49 5.281 4.296l4.251.85c5.728 1.164 8.906 3.267 8.906 8.906 0 6.175-5.28 9.263-12.173 9.263-6.757 0-12.127-2.595-12.799-10.203m28.728 0c-.09-.76.358-1.163 1.074-1.163h3.4c.672 0 1.074.358 1.164 1.074.448 3.982 2.864 6.041 7.16 6.041s6.668-1.745 6.668-4.743c0-2.417-1.566-3.76-5.325-4.476l-4.43-.85c-5.908-1.119-8.637-3.804-8.637-8.727 0-5.19 4.474-8.816 11.366-8.816 6.579 0 10.964 3.133 11.635 8.593.09.76-.358 1.163-1.074 1.163h-3.446q-1.005 0-1.208-1.074c-.492-2.684-2.506-4.43-5.907-4.43-3.804 0-5.907 1.834-5.907 4.296 0 2.148 1.343 3.49 5.28 4.296l4.252.85c5.728 1.164 8.906 3.267 8.906 8.906 0 6.175-5.28 9.263-12.173 9.263-6.758 0-12.128-2.595-12.798-10.203m54.5-21.122c5.953 0 10.294 3.042 10.294 9.218 0 6.668-4.162 9.711-10.607 9.711h-6.31c-.134 0-.268 0-.402-.044v10.784c0 .716-.403 1.12-1.119 1.12H751.9c-.716 0-1.119-.404-1.119-1.12v-28.55c0-.717.403-1.12 1.119-1.12zm-1.073 14.275c3.67 0 5.996-1.253 5.996-4.923 0-3.892-2.864-4.698-6.22-4.698h-5.728v9.666c.134-.045.268-.045.402-.045zm39.781 15.216c.313.806-.09 1.298-.895 1.298h-3.133c-.626 0-1.03-.314-1.253-.896l-2.46-6.623h-12.62l-2.462 6.623c-.224.582-.627.896-1.253.896h-3.178c-.805 0-1.208-.492-.894-1.298l10.918-28.597c.224-.626.672-.894 1.298-.894h3.715c.627 0 1.074.268 1.298.894zm-14.096-23.271-4.61 12.486h9.264zm38.259-6.22c.805 0 1.208.492.939 1.298l-10.382 28.595c-.224.582-.627.896-1.253.896h-3.446c-.627 0-1.029-.314-1.253-.896l-10.382-28.595c-.27-.806.134-1.298.939-1.298h3.58c.627 0 1.03.312 1.253.894l7.608 22.42 7.563-22.42c.224-.582.626-.894 1.254-.894zm6.529 30.789c-.716 0-1.119-.404-1.119-1.12v-28.55c0-.717.403-1.12 1.119-1.12h3.312c.716 0 1.118.403 1.118 1.12v28.55c0 .716-.402 1.12-1.118 1.12zm13.335 0c-.716 0-1.119-.404-1.119-1.12v-28.55c0-.717.403-1.12 1.119-1.12h3.311c.716 0 1.119.403 1.119 1.12V94.14h14.008c.716 0 1.118.402 1.118 1.118v2.416c0 .716-.402 1.12-1.118 1.12zm25.638 0c-.716 0-1.118-.404-1.118-1.12v-28.55c0-.717.402-1.12 1.118-1.12h3.312c.716 0 1.119.403 1.119 1.12v28.55c0 .716-.403 1.12-1.119 1.12zm10.56-15.395c0-8.771 4.073-15.932 13.829-15.932S909.9 74.627 909.9 83.4c0 8.727-4.162 15.931-13.828 15.931-9.756 0-13.828-7.204-13.828-15.93m22.019 0c0-6.534-2.238-11.456-8.19-11.456-6.042 0-8.19 4.922-8.19 11.456s2.148 11.457 8.19 11.457 8.19-4.923 8.19-11.457m35.349-15.394c.716 0 1.118.402 1.118 1.118v28.551c0 .716-.402 1.12-1.118 1.12h-5.236c-.582 0-1.075-.269-1.343-.806l-12.53-23.002v22.688c0 .716-.403 1.12-1.12 1.12h-3.132c-.716 0-1.118-.404-1.118-1.12v-28.55c0-.717.402-1.12 1.118-1.12h5.236c.582 0 1.074.269 1.342.806l12.53 23.002V69.123c0-.716.404-1.118 1.12-1.118z" class="b"></path><path d="M586.363 15.443c-16.24-9.34-34.783-14.275-53.624-14.275-8.266 0-16.317.939-24.053 2.71-.082-.014-.163-.032-.244-.046l-.017.103c-47.73 11.053-83.413 53.918-83.413 104.96 0 11.946 2.163 24.407 6.255 36.035l5.924-2.086c-3.406-9.678-5.392-19.958-5.812-29.969 16.363-43.085 59.174-71.974 106.858-71.974 6.352 0 12.48.45 18.424 1.335a72.8 72.8 0 0 1 11.712 39.588c0 11.215-2.514 21.994-7.214 31.71.12-1.305.2-2.617.2-3.94 0-23.963-19.497-43.458-43.46-43.458s-43.46 19.495-43.46 43.459c0 13.99 6.8 27.21 18.191 35.362l3.656-5.107c-9.747-6.975-15.567-18.286-15.567-30.255 0-20.501 16.68-37.18 37.18-37.18s37.18 16.679 37.18 37.18c0 10.71-4.68 20.897-12.653 27.919a75 75 0 0 1-2.814 2.256l.385.506 3.306 4.584a43 43 0 0 0 3.097-2.483c18.001-15.069 28.253-36.924 28.253-60.553a79.06 79.06 0 0 0-9.79-38.067c11.035 2.49 21.425 6.619 31.364 12.445l3.176-5.418c-12.071-7.076-25.142-11.835-39.037-14.265a79 79 0 0 0-4.737-6.126 79.24 79.24 0 0 0-32.15-22.518c3.051-.277 6.138-.427 9.26-.427 17.744 0 35.204 4.647 50.493 13.439a102.1 102.1 0 0 1 36.269 35.406l5.367-3.26a108.4 108.4 0 0 0-38.505-37.59m-35.5 19.04c.229.266.442.544.667.814a131 131 0 0 0-13.293-.676c-44.841 0-85.618 24.264-106.177 61.793 5.19-42.107 36.281-76.304 76.795-86.118 16.278 2.994 31.152 11.534 42.008 24.187m397.922 33.552v30.707h30.707V68.035zm24.973 18.253h-6.72v6.72h-5.799v-6.72h-6.72v-5.799h6.72v-6.72h5.799v6.72h6.72zm-358.657 54.02c.716 0 1.119.404 1.119 1.12v2.416c0 .716-.403 1.119-1.12 1.119h-17.855c-.716 0-1.119-.403-1.119-1.119v-28.551c0-.716.403-1.12 1.119-1.12h17.14c.716 0 1.119.404 1.119 1.12v2.416c0 .716-.403 1.119-1.12 1.119h-12.709v7.697h11.904c.716 0 1.119.403 1.119 1.119v2.327c0 .716-.403 1.119-1.119 1.119h-11.904v9.218zm30.159 3.312c.492.76.134 1.343-.761 1.343h-3.67c-.582 0-1.029-.269-1.342-.76l-6.892-11.233-6.892 11.232c-.313.492-.76.76-1.342.76h-3.67c-.895 0-1.253-.581-.76-1.342l9.307-14.5.09-.134c-.045-.044-.045-.089-.09-.134l-8.681-13.336c-.492-.76-.18-1.342.716-1.342h3.625c.582 0 1.029.268 1.342.76l6.355 10.383 6.355-10.382c.313-.493.76-.761 1.342-.761h3.625c.895 0 1.208.581.716 1.342l-8.682 13.336-.089.134c.044.045.044.09.09.134zm17.807-29.446c5.951 0 10.292 3.043 10.292 9.218 0 6.668-4.161 9.712-10.605 9.712h-6.31c-.135 0-.27 0-.403-.045v10.785c0 .716-.403 1.119-1.12 1.119h-3.266c-.716 0-1.119-.403-1.119-1.119v-28.551c0-.716.403-1.12 1.12-1.12zm-1.074 14.276c3.67 0 5.996-1.254 5.996-4.923 0-3.894-2.864-4.7-6.22-4.7h-5.728v9.667c.134-.044.268-.044.402-.044zm14.227 1.118c0-8.77 4.073-15.931 13.828-15.931 9.756 0 13.829 7.16 13.829 15.931 0 8.727-4.162 15.932-13.829 15.932-9.755 0-13.828-7.205-13.828-15.932m22.018 0c0-6.534-2.238-11.456-8.19-11.456-6.04 0-8.189 4.922-8.189 11.456s2.148 11.457 8.19 11.457 8.19-4.923 8.19-11.457m22.55 15.395c-.717 0-1.12-.403-1.12-1.119v-2.506c0-.582.18-.984.717-1.342l3.714-2.372c6.4-4.118 11.054-8.1 11.054-14.276 0-3.356-1.656-5.236-4.878-5.236-3.043 0-5.191 1.97-5.191 5.728v.313c0 .761-.313 1.164-1.03 1.164h-3.132c-.716 0-1.074-.358-1.119-1.03-.044-.357-.044-.67-.044-.984 0-5.997 4.519-9.622 10.56-9.622 6.355 0 10.517 3.267 10.517 9.309 0 7.294-5.146 11.948-11.187 15.752l-2.775 1.746v.044h12.933c.716 0 1.119.403 1.119 1.119v2.193c0 .716-.403 1.119-1.119 1.119zm25.326-15.395c0-8.77 3.534-15.931 11.769-15.931 8.19 0 11.725 7.16 11.725 15.931 0 8.772-3.536 15.932-11.725 15.932-8.235 0-11.77-7.16-11.77-15.932m17.855 0c0-6.892-1.745-11.5-6.086-11.5-4.386 0-6.087 4.608-6.087 11.5 0 6.802 1.7 11.546 6.087 11.546 4.341 0 6.086-4.744 6.086-11.546m11.72 15.395c-.715 0-1.118-.403-1.118-1.119v-2.506c0-.582.179-.984.716-1.342l3.715-2.372c6.4-4.118 11.053-8.1 11.053-14.276 0-3.356-1.655-5.236-4.878-5.236-3.043 0-5.191 1.97-5.191 5.728v.313c0 .761-.313 1.164-1.029 1.164h-3.133c-.716 0-1.074-.358-1.119-1.03-.044-.357-.044-.67-.044-.984 0-5.997 4.52-9.622 10.56-9.622 6.355 0 10.517 3.267 10.517 9.309 0 7.294-5.146 11.948-11.187 15.752l-2.775 1.746v.044h12.934c.716 0 1.118.403 1.118 1.119v2.193c0 .716-.402 1.119-1.118 1.119zm47.524-10.695c0 6.89-5.102 11.232-11.368 11.232-6.086 0-10.113-3.043-11.232-8.458-.135-.761.269-1.208 1.03-1.208h3.266c.671 0 1.03.312 1.208.984.85 2.596 2.91 4.296 5.818 4.296 3.49 0 5.638-2.774 5.638-6.712 0-3.58-2.103-5.998-5.414-5.998-2.328 0-4.162 1.388-5.057 2.776-.358.536-.806.805-1.432.67l-2.73-.582c-.672-.134-.985-.536-.94-1.252l1.074-14.768c.045-.671.492-1.074 1.164-1.074H819.9c.716 0 1.118.403 1.118 1.119v2.46c0 .717-.402 1.12-1.118 1.12h-12.352l-.537 7.294h.045c.94-.895 2.954-2.148 6.041-2.148 5.773 0 10.115 3.983 10.115 10.249m16.284-4.7c0-8.77 4.072-15.931 13.828-15.931s13.829 7.16 13.829 15.931c0 8.727-4.162 15.932-13.829 15.932-9.756 0-13.828-7.205-13.828-15.932m22.018 0c0-6.534-2.238-11.456-8.19-11.456-6.041 0-8.19 4.922-8.19 11.456s2.149 11.457 8.19 11.457 8.19-4.923 8.19-11.457m10.557 5.728c-.09-.76.358-1.163 1.074-1.163h3.401c.672 0 1.074.358 1.164 1.074.447 3.983 2.864 6.041 7.16 6.041s6.668-1.745 6.668-4.743c0-2.417-1.566-3.76-5.326-4.475l-4.43-.85c-5.908-1.12-8.637-3.804-8.637-8.727 0-5.191 4.475-8.816 11.367-8.816 6.578 0 10.964 3.132 11.635 8.592.09.76-.358 1.163-1.074 1.163h-3.446q-1.005 0-1.208-1.074c-.492-2.685-2.506-4.43-5.907-4.43-3.804 0-5.908 1.835-5.908 4.296 0 2.148 1.344 3.491 5.282 4.296l4.25.85c5.729 1.164 8.906 3.268 8.906 8.906 0 6.176-5.28 9.264-12.172 9.264-6.758 0-12.128-2.596-12.799-10.204m56.383 8.369c.313.805-.09 1.298-.896 1.298h-3.132c-.626 0-1.03-.313-1.253-.895l-2.461-6.624h-12.62l-2.462 6.624c-.223.582-.626.895-1.253.895h-3.177c-.805 0-1.208-.493-.895-1.298l10.92-28.596c.223-.627.67-.895 1.297-.895h3.714c.627 0 1.074.268 1.298.895zm-14.097-23.271-4.61 12.486h9.264zm23.76-6.22c.715 0 1.118.403 1.118 1.119v28.551c0 .716-.403 1.119-1.119 1.119h-3.311c-.716 0-1.119-.403-1.119-1.119v-28.551c0-.716.403-1.12 1.119-1.12zm21.39 29.402c.627.716.314 1.387-.626 1.387h-4.52c-.582 0-.984-.179-1.342-.627l-13.291-15.08q-.672-.807 0-1.612L951.05 114.8c.358-.447.762-.626 1.343-.626h4.162c.985 0 1.253.671.581 1.387l-11.456 12.351zm31.144.089c.312.805-.09 1.298-.896 1.298h-3.132c-.627 0-1.03-.313-1.254-.895l-2.46-6.624h-12.62l-2.461 6.624c-.224.582-.628.895-1.254.895h-3.178c-.804 0-1.208-.493-.894-1.298l10.919-28.596c.224-.627.671-.895 1.298-.895h3.714c.627 0 1.074.268 1.298.895zm-14.097-23.271-4.61 12.486h9.264z" class="b"></path></svg>