<svg version="1.1" xmlns="http://www.w3.org/2000/svg" xmlns:xlink="http://www.w3.org/1999/xlink" x="0px" y="0px"
     viewBox="0 0 535.3 395.8" style="enable-background:new 0 0 535.3 395.8;" xml:space="preserve">
<g>
	<path class="st0" d="M0.6,97c0,2.4,1.9,4.4,4.3,4.4h26.7c2.4,0,4.3-2,4.3-4.4V65.8c0,0-0.3-1.4,0.9-1.6c0.7-0.2,1.6,1.2,1.6,1.2
		l9.6,15.9c0.8,1.1,2.1,1.8,3.5,1.8h11.6c1.4,0,2.7-0.7,3.5-1.8l9.9-15.9c0,0,0.9-1.3,1.8-1.2c0.9,0.1,0.7,1.7,0.7,1.7v31
		c0,2.4,1.9,4.4,4.3,4.4h26.8c2.4,0,4.3-2,4.3-4.4V4.4c0-2.4-1.9-4.4-4.3-4.4H78.3c-1.4,0-2.8,0.7-3.6,1.9L60.2,33.4
		c-1.4,3.3-4.2,3.4-5.6,0L40,1.9C39.2,0.7,37.9,0,36.4,0H4.9C2.5,0,0.6,1.9,0.6,4.4V97z"></path>
    <path class="st0" d="M243.3,97c0,2.4,1.9,4.4,4.3,4.4h26.2c2.4,0,4.3-2,4.3-4.4V77c0,0-0.4-2.2,0.5-3.1c0.9-0.9,2.5-0.8,2.5-0.8
		h1.7c0,0,7.1-0.9,8.3,3.3l3.4,11.8c1.2,4.4,1.6,9.4,6.2,12.4c0.7,0.5,1.5,0.7,2.4,0.7h29.1c1.8,0,3.4-1.1,4-2.8
		c0.6-1.7,0.2-3.5-1.1-4.8c-2.2-2.1-2.3-3.8-3.4-7.1c-1.1-3.4-2-10.7-4.9-17.2s-8.5-8.6-14.5-10.6c9.5,0,20.5-8.1,20.5-25.4
		C333.1,11,320.3,0,289.7,0h-42.1c-2.4,0-4.3,1.9-4.3,4.4V97z M278.8,29.2c1-0.7,2.5-0.7,2.5-0.7h6.6c7.3,0,9.5,4.4,9.8,8.1
		c0,5.5-2.6,9.6-10,9.6H282c0,0-2.5,0.3-3.2-0.6c-0.7-0.9-0.6-2.8-0.6-2.8v-11C278.1,31.9,277.8,29.8,278.8,29.2z"></path>
    <path class="st0" d="M350.1,97c0,2.4,1.9,4.4,4.3,4.4h26.4c2.4,0,4.3-2,4.3-4.4V67.7c0,0-0.3-3,2.3-3.1c2.6-0.1,4.1,2.4,4.1,2.4
		l17.1,32.5c0.8,1.1,2.1,1.8,3.5,1.8H443c1.6,0,3.1-0.9,3.9-2.4c0.7-1.5,0.6-3.2,0-4.2l-25.7-45.7L440,6.9c0.9-1.3,1-3.1,0.3-4.5
		c-0.7-1.5-2.2-2.4-3.8-2.4h-28.6c-1.4,0-2.7,0.7-3.6,1.9l-11.7,28.9c0,0-1.2,2.6-2.3,3.2c-1.1,0.7-2.4,0.4-2.4,0.4
		s-1.7,0.2-2.3-0.4c-0.6-0.6-0.5-3.1-0.5-3.1V4.4c0-2.4-1.9-4.4-4.3-4.4h-26.4c-2.4,0-4.3,1.9-4.3,4.4V97z"></path>
    <path class="st0" d="M454.1,30.4h17.2c0,0,2.2,0.1,2.7,0.6c0.5,0.5,0.5,2.7,0.5,2.7V97c0,2.4,1.9,4.4,4.3,4.4h26.7
		c2.4,0,4.3-1.9,4.3-4.4V33.6c0,0,0.1-1.2,0.7-2.2c0.6-1,2.3-1,2.3-1H531c2.4,0,4.3-1.9,4.3-4.4V4.4c0-2.4-1.9-4.4-4.3-4.4h-76.9
		c-2.4,0-4.3,1.9-4.3,4.4V26C449.8,28.4,451.7,30.4,454.1,30.4z"></path>
    <path class="st0" d="M123.6,95.4c-0.5,1.3-0.3,2.8,0.5,4c0.8,1.2,2.1,1.9,3.5,1.9h26.1c1.8,0,3.4-1.1,4-2.9l2.1-7.5
		c0,0,0.8-1.9,1.3-2.3c0.5-0.5,2.1-1,2.1-1h28.7c0,0,1.3,0.1,2.2,1c1,1,1.1,2.3,1.1,2.3l2.4,7.6c0.6,1.7,2.2,2.8,4,2.8H229
		c1.4,0,2.7-0.7,3.6-1.9c0.8-1.2,1-2.7,0.4-4L202.8,2.8c-0.6-1.7-2.2-2.8-4-2.8h-40.9c-1.8,0-3.4,1.1-4,2.8L123.6,95.4z M177.4,29.5
		c1,0.1,1.1,0.9,1.1,0.9s4.6,17.9,5.4,21c0.4,1.5,1,5.9,1,5.9s0.6,2.5-0.1,3.2c-0.7,0.7-2.4,0.5-2.4,0.5h-9.9c0,0-2,0.2-2.6-1
		c-0.6-1.1-0.3-2.8-0.3-2.8s0.6-4.4,1-5.7c0.8-2.8,5.6-20.9,5.6-20.9S176.5,29.5,177.4,29.5z"></path>
    <path class="st0" d="M5.8,239.3h30c3.2,0,5.8-2.6,5.8-5.8v-31.7c0,0,0.3-2.9,1.5-4.1c1.2-1.2,3.9-1.2,3.9-1.2h18.4
		c0,0,2.5,0.2,3.6,1.3c1.1,1.1,1.8,4.1,1.8,4.1v31.7c0,3.2,2.6,5.8,5.8,5.8h30c3.2,0,5.8-2.6,5.8-5.8v-108c0-3.2-2.6-5.8-5.8-5.8
		h-30c-3.2,0-5.8,2.6-5.8,5.8v29.9c0,0-0.5,2.9-1.6,4c-1.1,1.1-3.9,1.6-4,1.6H47.2c0,0-2.7,0.1-4.3-1.5c-1.5-1.5-1.3-4.1-1.3-4.1
		v-29.9c0-3.2-2.6-5.8-5.8-5.8h-30c-3.2,0-5.8,2.6-5.8,5.8v108C0,236.7,2.6,239.3,5.8,239.3z"></path>
    <path class="st0" d="M209.4,119.6h-47c-2.4,0-4.6,1.5-5.4,3.7l-35.8,108c-0.7,1.8-0.5,3.8,0.6,5.4c1.1,1.6,2.9,2.5,4.8,2.5H156
		c2.5,0,4.6-1.5,5.5-4.1l2.3-7.8c0,0,0.5-2.3,1.2-3c0.7-0.7,2.9-1,2.9-1c0,0,34.3,0,34.3,0s1.4,0,2.6,1.2c1.2,1.2,1.5,2.9,1.5,2.9
		l2.5,7.9c0.9,2.5,3,4,5.4,4h30.9c1.9,0,3.7-1,4.8-2.6c1.1-1.6,1.3-3.6,0.6-5.4l-35.6-108C213.9,121.1,211.7,119.6,209.4,119.6z
		 M193.8,186.7c0,0,0.9,3.6,0,4.5c-0.9,0.9-3,0.8-3,0.8h-11.7c0,0-2.1,0.4-3.3-0.9c-1.2-1.2,0-4.6,0-4.6s3.2-11.9,4.1-15.6
		c0.8-3.4,3.1-14,3.1-14s0.4-1.3,1.4-1.3c1.1,0,1.6,1.3,1.6,1.3s2.8,11.4,3.4,14.1C190.4,174.1,193.8,186.7,193.8,186.7z"></path>
    <path class="st0" d="M299.3,119.6h-29.7c-3.2,0-5.8,2.6-5.8,5.8v108c0,3.2,2.6,5.8,5.8,5.8h67.1c3.2,0,5.8-2.6,5.8-5.8v-23.8
		c0-3.2-2.6-5.8-5.8-5.8h-25.7c0,0-2.1,0-4.2-2c-2-2-1.7-3.8-1.7-3.8v-72.5C305.1,122.2,302.5,119.6,299.3,119.6z"></path>
    <path class="st0" d="M389,119.6h-29.7c-3.2,0-5.8,2.6-5.8,5.8v108c0,3.2,2.6,5.8,5.8,5.8h67.2c3.2,0,5.8-2.6,5.8-5.8v-23.8
		c0-3.2-2.6-5.8-5.8-5.8h-25.9c0,0-2.9-0.6-4.4-2c-1.4-1.4-1.5-3.8-1.5-3.8v-72.5C394.8,122.2,392.2,119.6,389,119.6z"></path>
    <path class="st0" d="M528.7,119.6h-78c-3.2,0-5.8,2.6-5.8,5.8v108c0,3.2,2.6,5.8,5.8,5.8h78.6c3.2,0,5.8-2.6,5.8-5.8v-21.8
		c0-3.2-2.6-5.8-5.8-5.8h-40.9c0,0-2.1,0.2-2.9-0.6c-0.8-0.8-1-2.6-1-2.6v-6c0,0-0.2-1.5,0.5-2.2c0.8-0.8,3.3-0.5,3.3-0.5h33.9
		c3.2,0,5.8-2.6,5.8-5.8v-17.1c0-3.2-2.6-5.8-5.8-5.8h-33.9c0,0-1.7,0.4-2.8-0.8c-1.2-1.2-1.1-2.4-1.1-2.4v-5.6c0,0-0.2-1.4,0.7-2.2
		c0.8-0.8,3.2-0.6,3.2-0.6s40.2,0,40.2,0c3.2,0,5.8-2.6,5.8-5.8v-22.2C534.5,122.2,531.9,119.6,528.7,119.6z"></path>
    <path class="st0" d="M121,260.1H89.9c-4.2,0-7.6,3.4-7.6,7.6v34.6c0,0,0.1,4.6-1.5,5.2c-2.2,0.8-6.2-5.2-6.2-5.2L42.5,263
		c-1.4-1.8-3.6-2.8-5.9-2.8H7.7c-4.2,0-7.6,3.4-7.6,7.6v118.1c0,4.2,3.4,7.6,7.6,7.6H39c4.2,0,7.6-3.4,7.6-7.6v-34.5
		c0,0-0.5-3.6,1.5-4.5c2.7-1.2,6.5,4.5,6.5,4.5l32.9,39.3c1.4,1.8,3.6,2.8,5.8,2.8H121c4.2,0,7.6-3.4,7.6-7.6V267.7
		C128.6,263.5,125.2,260.1,121,260.1z"></path>
    <path class="st0" d="M242.7,355.6h-39.9c0,0-3,0.1-4.8-0.9c-1.2-0.7-1.4-2.2-1.4-3.1c0-2.6,0-6.2,0-6.2s0-1.2,1.5-1.8
		c1.6-0.7,4.7-0.8,4.7-0.8h32c4.2,0,7.6-3.4,7.6-7.6v-17.5c0-4.2-3.4-7.6-7.6-7.6h-32c0,0-4.5,0.1-5.4-0.8c-0.9-0.9-0.8-3.3-0.8-3.3
		v-5.2c0,0-0.1-1.5,0.7-2.3c0.8-0.7,5.5-0.7,5.5-0.7h38.9c4.2,0,7.6-3.4,7.6-7.6v-22.6c0-4.2-3.4-7.6-7.6-7.6h-85
		c-4.2,0-7.6,3.4-7.6,7.6v118.1c0,4.2,3.4,7.6,7.6,7.6h86c4.2,0,7.6-3.4,7.6-7.6v-22.5C250.3,359.1,246.9,355.6,242.7,355.6z"></path>
    <path class="st0" d="M380.4,260.1h-31c-4.2,0-7.7,3.4-7.7,7.6v69.4c0,16-4.5,18.4-15,18.4c-11.3,0-15.2-3.2-15.2-18v-69.8
		c0-4.2-3.4-7.6-7.7-7.6h-31c-4.2,0-7.7,3.4-7.7,7.6v78.4c0,32.1,21.9,49.7,61.6,49.7c39.6,0,61.4-17.7,61.4-49.7v-78.4
		C388,263.5,384.6,260.1,380.4,260.1z"></path>
    <path class="st0" d="M526.9,260.1h-31.2c-4.2,0-7.6,3.4-7.6,7.6v34.6c0,0,0.1,4.6-1.4,5.2c-2.2,0.8-6.2-5.2-6.2-5.2L448.4,263
		c-1.4-1.8-3.6-2.8-5.9-2.8h-28.9c-4.2,0-7.6,3.4-7.6,7.6v118.1c0,4.2,3.4,7.6,7.6,7.6h31.3c4.2,0,7.6-3.4,7.6-7.6v-34.5
		c0,0-0.5-3.6,1.5-4.5c2.7-1.2,6.5,4.5,6.5,4.5l32.9,39.3c1.4,1.8,3.6,2.8,5.9,2.8h27.7c4.2,0,7.6-3.4,7.6-7.6V267.7
		C534.5,263.5,531.1,260.1,526.9,260.1z"></path>
</g>
</svg>