<svg height="16" viewBox="0 0 16 16" width="16" xmlns="http://www.w3.org/2000/svg"><g fill="#111"><path d="m7.6 15.9-7-3c-.4-.1-.6-.5-.6-.9v-11c0-.7.7-1.2 1.4-.9l6.6 2.8 6.6-2.8c.7-.3 1.4.2 1.4.9v11c0 .4-.2.8-.6.9l-7 3c-.3.1-.5.1-.8 0zm-5.6-4.6 6 2.6 6-2.6v-8.8l-5.6 2.4c-.3.1-.5.1-.8 0l-5.6-2.4z" fill="#111"/><path d="m2.8 6.2h4.4v1h-4.4z" transform="matrix(.9191 .3939 -.3939 .9191 3.0495 -1.4271)"/><path d="m2.8 9.4h4.4v1h-4.4z" transform="matrix(.9191 .3939 -.3939 .9191 4.2872 -1.173)"/><path d="m10.5 4.5h1v4.4h-1z" transform="matrix(.3937 .9192 -.9192 .3937 12.8415 -6.0395)"/><path d="m10.5 7.7h1v4.4h-1z" transform="matrix(.3937 .9192 -.9192 .3937 15.7298 -4.1344)"/></g></svg>