<svg viewBox="0 0 599 208" xmlns="http://www.w3.org/2000/svg">
    <path fill="currentColor" stroke="none" d="M 0 208 L 0 -0.400391 L 599.810547 -0.400391 L 599.810547 208 L 0 208 Z M 44.759766 174.859375 L 64.560547 174.859375 C 72.480545 174.859375 76.230469 171.110382 76.230469 163.400391 L 76.230469 121.300781 L 76.650391 121.300781 L 101.25 163.599609 C 105.839989 171.519592 109.800873 174.859375 116.880859 174.859375 L 141.679688 174.859375 C 147.679688 174.859375 152.679688 172.569534 152.679688 167.769531 C 152.679688 165.89621 151.846359 163.603958 150.179688 160.890625 L 119.75 115.890625 C 139.389984 108.600632 147.929688 94.599434 147.929688 77.939453 C 147.929688 49.799484 131.260193 33.130859 87.490234 33.130859 L 44.759766 33.130859 C 36.999775 33.12085 33.300781 36.880798 33.300781 44.800781 L 33.300781 163.400391 C 33.300781 171.110382 37.049774 174.859375 44.759766 174.859375 Z M 178.160156 174.859375 L 257.150391 174.859375 C 265.070404 174.859375 268.820313 171.110382 268.820313 163.400391 L 268.820313 153.179688 C 268.820313 145.259705 265.070404 141.509766 257.150391 141.509766 L 210.460938 141.509766 L 210.460938 120.25 L 244.640625 120.25 C 252.560608 120.25 256.310547 116.499054 256.310547 108.789063 L 256.310547 98.599609 C 256.310547 90.679619 252.560608 86.929688 244.640625 86.929688 L 210.460938 86.929688 L 210.460938 66.470703 L 250.900391 66.470703 C 258.820404 66.470703 262.570313 62.719757 262.570313 55.009766 L 262.570313 44.800781 C 262.570313 36.880798 258.820404 33.130859 250.900391 33.130859 L 178.160156 33.130859 C 170.450165 33.130859 166.699219 36.880798 166.699219 44.800781 L 166.699219 163.400391 C 166.699219 171.110382 170.450165 174.859375 178.160156 174.859375 Z M 393.880859 174.859375 L 411 174.859375 C 420.799988 174.859375 424.549896 171.110382 426.419922 163.400391 L 453.720703 47.099609 C 454.107941 45.6026 454.318268 44.065491 454.349609 42.519531 C 454.349609 36.269531 450.179596 33.140625 443.349609 33.140625 L 428.689453 33.140625 C 419.51944 33.140625 415.560547 36.470413 414.310547 44.400391 L 402.839844 114 L 402.419922 114 L 388 44.380859 C 386.329987 36.460876 382.369141 33.119141 373.619141 33.119141 L 355.949219 33.119141 C 347.199219 33.119141 343.240295 36.450867 341.570313 44.380859 L 327.390625 114 L 327 114 L 315.509766 44.380859 C 314.259766 36.460876 310.300842 33.119141 301.130859 33.119141 L 284 33.119141 C 276.910004 33.119141 273 36.25 273 42.5 C 273.032257 44.045883 273.244507 45.582901 273.630859 47.080078 L 300.929688 163.380859 C 302.809692 171.090851 306.559601 174.839844 316.349609 174.839844 L 333.439453 174.839844 C 342.189453 174.839844 346.150299 171.500061 347.820313 163.580078 L 363.449219 87.5 L 363.869141 87.5 L 379.5 163.599609 C 381.170013 171.519592 385.130859 174.859375 393.880859 174.859375 Z M 476.210938 174.859375 L 555.210938 174.859375 C 563.13092 174.859375 566.880859 171.110382 566.880859 163.400391 L 566.880859 153.179688 C 566.880859 145.259705 563.13092 141.509766 555.210938 141.509766 L 508.519531 141.509766 L 508.519531 120.25 L 542.699219 120.25 C 550.619202 120.25 554.369141 116.499054 554.369141 108.789063 L 554.369141 98.599609 C 554.369141 90.679619 550.619202 86.929688 542.699219 86.929688 L 508.519531 86.929688 L 508.519531 66.470703 L 549 66.470703 C 556.919983 66.470703 560.669922 62.719757 560.669922 55.009766 L 560.669922 44.800781 C 560.669922 36.880798 556.919983 33.130859 549 33.130859 L 476.210938 33.130859 C 468.500946 33.130859 464.75 36.880798 464.75 44.800781 L 464.75 163.400391 C 464.75 171.110382 468.500946 174.859375 476.210938 174.859375 Z M 76.230469 95.240234 L 76.230469 65.599609 L 85.400391 65.599609 C 97.700371 65.599609 102.910156 70.810394 102.910156 80.400391 C 102.910156 89.990379 97.700371 95.240234 85.400391 95.240234 L 76.230469 95.240234 Z"/>
</svg>
