<svg viewBox="0 0 148 30" style="enable-background:new 0 0 148 30;" xml:space="preserve">
<g>
	<g>
		<path d="M89.31,20.67c-0.81,4.02-3.91,4.22-4.53,4.22c-1.75,0-2.8-1.01-2.8-2.7c0-0.39,0.06-0.91,0.15-1.44l1.92-9.56l0.01-0.04    h-2.27l-1.96,9.8l-0.03,0.14c-0.08,0.44-0.16,0.86-0.16,1.41c0,2.63,1.73,4.4,4.31,4.4c1.89,0,3.4-0.62,4.51-1.84l-0.29,1.62    l-0.01,0.04h2.23l3.09-15.53l0.01-0.04h-2.3L89.31,20.67z"/>
		<path d="M104.77,10.96c-1.75,0-3.3,0.72-4.28,1.97l0.35-1.75l0.01-0.04h-2.24l-3.09,15.53l-0.01,0.04h2.27l1.89-9.52    c0.48-2.44,2.36-4.22,4.47-4.22c0.9,0,1.62,0.36,2.18,1.09l0.02,0.03l1.84-1.65l-0.02-0.02C107.31,11.43,106.2,10.96,104.77,10.96    z"/>
		<polygon points="67.28,13.12 67.28,13.16 75.01,13.16 64.71,24.8 64.71,24.81 64.32,26.71 75.3,26.71 75.69,24.7 67.48,24.7     77.81,13.05 77.82,13.05 78.21,11.14 67.67,11.14   "/>
		<polygon points="108.47,26.67 108.46,26.71 110.73,26.71 113.82,11.14 111.59,11.14   "/>
		<path d="M139.21,10.96c-1.87,0-3.32,0.57-4.44,1.75l1.76-8.67h-2.27l-4.56,22.68h2.27l1.89-9.53c0.81-4.02,3.94-4.22,4.56-4.22    c1.73,0,2.77,1.01,2.77,2.7c0,0.38-0.06,0.91-0.16,1.44l-1.92,9.6h2.27l1.99-9.81c0.1-0.52,0.16-0.96,0.16-1.55    C143.52,12.73,141.78,10.96,139.21,10.96z"/>
		<path d="M124.18,10.96c-4.11,0-7,2.9-7.92,7.95c-0.17,0.85-0.22,1.79-0.22,2.4c0,3.45,2.1,5.6,5.47,5.6    c1.96,0,3.75-0.75,5.18-2.18l0.02-0.02l-1.31-1.6l-0.02-0.03l-0.02,0.03c-1.2,1.27-2.28,1.78-3.72,1.78    c-1.61,0-3.33-0.96-3.33-3.65c0-0.84,0.1-1.54,0.25-2.32c0.24-1.32,0.79-3.16,2-4.45c0.97-1,2.11-1.5,3.41-1.5    c1.35,0,2.2,0.48,3.02,1.71l0.02,0.03l1.66-1.41l0.02-0.02l-0.02-0.03C127.53,11.67,126.14,10.96,124.18,10.96z"/>
		<polygon points="112.43,6.87 114.7,6.87 115.27,4.04 113,4.04   "/>
		<polygon points="90.38,6.87 92.66,6.87 93.22,4.04 90.96,4.04   "/>
		<polygon points="84.34,6.87 86.61,6.87 87.17,4.04 84.91,4.04   "/>
	</g>
	<g>
		<polygon points="54.04,12.82 48.94,12.82 50.73,4.04 7.37,4.04 2.82,26.71 20.11,26.71 21.24,21.05 11.03,21.05 11.65,17.93     21.85,17.93 22.88,12.82 12.67,12.82 13.29,9.71 29.47,9.71 26.06,26.71 33.14,26.71 36.56,9.71 42.51,9.71 39.09,26.71     46.18,26.71 47.93,17.93 53.03,17.93 51.28,26.71 58.37,26.71 62.92,4.04 55.84,4.04   "/>
	</g>
</g>
</svg>