<svg aria-hidden="true" xmlns="http://www.w3.org/2000/svg" overflow="hidden">
  <defs>
    <symbol id="icon-analytics" viewBox="0 0 16 16">
      <path d="M5.249,7.438l.562.45L6.4,6.553,9.4,8.8a1,1,0,0,0,1.432-.245l4.555-6.832L13.723.613,9.754,6.565,6.6,4.2a1,1,0,0,0-1.514.394L4.016,7A2.009,2.009,0,0,1,5.249,7.438Z" />
      <polygon points="3.299 11 2.239 11 0.68 14.508 2.508 15.32 4.132 11.666 3.299 11" />
      <path d="M9,14a1,1,0,0,1-.625-.219L3.649,10H0V8H4a1,1,0,0,1,.625.219l4.457,3.566,5.261-3.157,1.029,1.715L9.515,13.857A1,1,0,0,1,9,14Z" />
    </symbol>
    <symbol id="icon-archive" viewBox="0 0 16 16">
      <path d="M10.5 1l3.5 3.5v10.5h-12v-14h8.5zM7 4h1v-1h-1v1zM6 4v1h1v-1h-1zM7 6h1v-1h-1v1zM6 3h1v-1h-1v1zM7 2h1v-1h-1v1zM6 6v1h1v-1h-1zM7 8h1v-1h-1v1zM6 9.28c-0.615 0.355-0.996 1.010-1 1.72v1h4v-1c0-1.105-0.895-2-2-2v-1h-1v1.28zM8 10v1h-2v-1h2z"></path>
    </symbol>
    <symbol id="icon-audio" viewBox="0 0 16 16">
      <path d="M7.462 3.409v9.181c0.002 0.218-0.128 0.416-0.33 0.5s-0.434 0.036-0.587-0.12l-2.8-2.81h-2.2c-0.299-0.001-0.541-0.241-0.545-0.54v-3.24c0.004-0.296 0.242-0.535 0.538-0.54h2.2l2.8-2.81c0.153-0.158 0.387-0.206 0.59-0.123s0.336 0.282 0.334 0.502v0zM10.692 8c0.001 0.425-0.124 0.84-0.358 1.194-0.224 0.356-0.555 0.633-0.946 0.789-0.066 0.030-0.138 0.044-0.21 0.042-0.142 0.001-0.278-0.055-0.378-0.156-0.105-0.1-0.163-0.239-0.16-0.384-0.004-0.109 0.032-0.215 0.1-0.3 0.069-0.083 0.152-0.155 0.244-0.211 0.095-0.059 0.191-0.124 0.286-0.194 0.103-0.080 0.187-0.183 0.244-0.3 0.134-0.307 0.134-0.655 0-0.962-0.057-0.117-0.141-0.22-0.244-0.3-0.095-0.069-0.191-0.134-0.286-0.193-0.092-0.056-0.175-0.128-0.244-0.211-0.068-0.085-0.104-0.191-0.1-0.3-0.003-0.144 0.055-0.283 0.16-0.383 0.1-0.101 0.237-0.158 0.379-0.156 0.072-0.002 0.144 0.012 0.21 0.042 0.392 0.152 0.724 0.427 0.946 0.785 0.234 0.356 0.358 0.772 0.357 1.198zM12.846 8c0.004 0.848-0.245 1.678-0.715 2.384-0.455 0.71-1.115 1.265-1.893 1.591-0.067 0.027-0.138 0.041-0.21 0.042-0.146 0.003-0.286-0.055-0.387-0.16-0.103-0.099-0.161-0.237-0.16-0.38-0.003-0.218 0.127-0.416 0.328-0.5 0.222-0.108 0.435-0.232 0.639-0.371 0.831-0.609 1.322-1.577 1.322-2.607s-0.491-1.999-1.322-2.607c-0.204-0.139-0.418-0.263-0.639-0.371-0.201-0.084-0.331-0.282-0.328-0.5 0.004-0.296 0.242-0.535 0.538-0.54 0.075 0 0.149 0.014 0.219 0.042 0.778 0.326 1.438 0.881 1.893 1.591 0.471 0.707 0.719 1.538 0.715 2.387zM15 8c-0.002 2.588-1.538 4.928-3.912 5.958-0.070 0.028-0.144 0.042-0.219 0.042-0.296-0.005-0.534-0.244-0.538-0.54 0.006-0.215 0.133-0.408 0.328-0.5 0.061-0.033 0.124-0.063 0.189-0.089s0.128-0.056 0.189-0.089c0.239-0.129 0.469-0.272 0.69-0.43 1.381-1.021 2.196-2.637 2.196-4.354s-0.815-3.333-2.196-4.354c-0.221-0.158-0.451-0.301-0.69-0.43-0.061-0.033-0.124-0.063-0.189-0.089s-0.128-0.056-0.189-0.089c-0.195-0.092-0.322-0.285-0.328-0.5 0.006-0.294 0.244-0.53 0.538-0.535 0.075 0 0.149 0.014 0.219 0.042 2.374 1.030 3.91 3.37 3.912 5.958v0z"/>
    </symbol>
    <symbol id="icon-bolt" viewBox="0 0 16 16">
      <path d="M9.2 0H5.4c-.4 0-.8.3-1 .7l-2 7c-.2.7.3 1.3.9 1.3H7l-1.5 7 7.3-9.4c.5-.6 0-1.6-.8-1.6H9l1.1-3.7C10.3.6 9.8 0 9.2 0z" />
    </symbol>
    <symbol id="icon-book" viewBox="0 0 16 16">
      <path d="M7.6,15.9l-7-3C0.2,12.8,0,12.4,0,12V1c0-0.7,0.7-1.2,1.4-0.9L8,2.9l6.6-2.8C15.3-0.2,16,0.3,16,1v11 c0,0.4-0.2,0.8-0.6,0.9l-7,3C8.1,16,7.9,16,7.6,15.9z M2,11.3l6,2.6l6-2.6V2.5L8.4,4.9C8.1,5,7.9,5,7.6,4.9L2,2.5V11.3z" />
      <rect x="2.8" y="6.2" transform="matrix(0.9191 0.3939 -0.3939 0.9191 3.0495 -1.4271)" width="4.4" height="1" />
      <rect x="2.8" y="9.4" transform="matrix(0.9191 0.3939 -0.3939 0.9191 4.2872 -1.173)" width="4.4" height="1" />
      <rect x="10.5" y="4.5" transform="matrix(0.3937 0.9192 -0.9192 0.3937 12.8415 -6.0395)" width="1" height="4.4" />
      <rect x="10.5" y="7.7" transform="matrix(0.3937 0.9192 -0.9192 0.3937 15.7298 -4.1344)" width="1" height="4.4" />
    </symbol>
    <symbol id="icon-cancel" viewBox="0 0 16 16">
      <polygon points="10.1,4.5 8,6.6 5.9,4.5 4.5,5.9 6.6,8 4.5,10.1 5.9,11.5 8,9.4 10.1,11.5 11.5,10.1 9.4,8 11.5,5.9 " />
      <path d="M8,0C3.6,0,0,3.6,0,8s3.6,8,8,8s8-3.6,8-8S12.4,0,8,0z M8,14c-3.3,0-6-2.7-6-6s2.7-6,6-6s6,2.7,6,6 S11.3,14,8,14z" />
    </symbol>
    <symbol id="icon-cart" viewBox="0 0 16 16">
      <path d="M15,3H4.5L4,0.8C3.9,0.3,3.5,0,3,0H0v2h2.2L4,10.2C4.1,10.7,4.5,11,5,11h8c0.4,0,0.8-0.3,0.9-0.7l2-6 C16.1,3.8,15.8,3,15,3z" />
      <circle cx="5" cy="14" r="2" />
      <circle cx="13" cy="14" r="2" />
    </symbol>
    <symbol id="icon-check" viewBox="0 0 16 16">
      <path d="M8 0C3.589 0 0 3.589 0 8s3.589 8 8 8 8-3.589 8-8-3.589-8-8-8zm0 14c-3.309 0-6-2.691-6-6s2.691-6 6-6 6 2.691 6 6-2.691 6-6 6z" />
      <path d="M7 11.414L3.586 8 5 6.586l2 2 4-4L12.414 6z" />
    </symbol>
    <symbol id="icon-code" viewBox="0 0 16 16">
      <path d="M12.7 11.7l-1.4-1.4L13.6 8l-2.3-2.3 1.4-1.4 3 3c.4.4.4 1 0 1.4l-3 3zM3.3 11.7l-3-3c-.4-.4-.4-1 0-1.4l3-3 1.4 1.4L2.4 8l2.3 2.3-1.4 1.4zM6 15c-.1 0-.2 0-.3-.1-.5-.2-.8-.7-.6-1.3l4-12c.2-.5.7-.8 1.3-.6.5.2.8.7.6 1.3l-4 12c-.2.4-.6.7-1 .7z" />
    </symbol>
    <symbol id="icon-composer" viewBox="0 0 16 16">
      <path d="M7.91857232,1.06174779 C7.85827326,0.998087766 7.90060652,1.001616 5.40948711,2.51790977 L5.1730288,1.87358546 C5.52281943,1.53178442 6.02157268,1.14760005 5.8566777,0.968137026 C5.75259122,0.838732541 4.11998145,1.79540992 3.99183218,1.51447129 C3.65290092,1.158849 3.32687259,2.09493017 2.91955987,2.51790953 C2.8024916,2.42647052 2.46706338,1.73543739 2.29995164,1.5434854 C2.16694382,1.40060616 2.0394096,1.40553319 2,1.55333924 C2.09466027,3.00031138 2.82847973,4.11680126 2.56104099,4.14158535 C2.48222152,4.18099976 2.47729528,4.21056128 2.52655747,4.33865929 C2.56596721,4.44705057 2.60537694,4.47661162 2.66941767,4.45690393 C2.74331088,4.43719625 2.78764682,4.49139166 2.90040243,4.74704123 C3.04326275,5.06181335 3.04326275,5.06674003 2.96444327,5.35249805 C2.92010745,5.51508474 2.88069771,5.65248966 2.88069771,5.65248966 C2.88069771,5.65248966 2.7575424,5.63278198 2.61030333,5.59336758 C2.16256517,5.47512293 2.19212254,5.44063425 2.12808169,6.16926336 C2.09359822,6.52837706 2.0689671,6.85792971 2.0689671,6.90227079 C2.0689671,6.96139336 2.13300795,6.99588108 2.29502553,7.02051544 L2.52108405,7.05007696 C2.47718319,7.42723226 2.42305478,7.60805368 2.53093659,7.72888851 C2.69850645,8.11367702 2.64112155,9.89444065 2.65901816,10.9713125 C2.99840528,11.0571499 3.19771889,11.1771765 3.20035437,11.3452072 C3.20035437,11.4092569 3.27917385,11.5028677 3.41163423,11.5959301 C3.52493712,11.6747599 3.95789672,11.9895325 4.36622509,12.2944508 C5.0794316,12.8210783 5.11391501,12.855566 5.06465279,12.9634094 C5.02031685,13.0668735 5.03016915,13.1013622 5.15332445,13.2239857 C5.27155348,13.3471575 5.28140602,13.3668652 5.20258667,13.3816462 C5.15825048,13.3914995 5.000612,13.3717918 4.85829896,13.3422308 C4.52879007,13.2683277 3.39685542,13.2141323 3.40178181,13.2732544 C3.40178181,13.2978888 3.63769255,13.4358416 3.92833922,13.5781727 C4.21898601,13.7205028 4.4105608,13.7993336 4.35637255,13.7506132 C4.29725803,13.7013445 3.86429831,13.3323765 3.86429831,13.3323765 C4.70070268,13.4129887 6.2399597,13.8529043 6.49653859,14.0166645 C6.57875735,14.0691395 6.53594827,14.0905666 6.22614422,14.0610056 C5.31588907,13.9772482 4.92233939,13.9723215 4.29725743,14.0314436 C3.92341247,14.0659313 3.58897731,14.1102724 3.5544939,14.129981 C3.465822,14.1743221 4.23814292,14.2285185 5.02086359,14.2285185 C6.04901784,14.2404985 7.07740308,14.4935245 8.10576831,14.725584 C7.89759807,15.132925 7.69198491,15.8854885 7.70236619,16 C9.34177762,15.0630856 9.93507828,14.3135538 13.3543764,13.4139433 C13.5912169,13.3785677 13.7698508,13.2555571 12.8967857,13.41887 C12.645336,13.484005 13.617573,12.8718834 13.5120142,12.852828 C13.2761035,12.852828 11.1452423,13.7040806 10.7418408,13.9646568 C10.5891281,14.0631943 10.5792751,14.0582676 10.5792751,13.8464127 C10.5792751,13.6690454 10.5940541,13.6591921 10.9137102,13.4823713 C11.1939562,13.3296394 12.9159435,12.5572157 12.9750578,12.5572157 C12.9587311,12.6409903 12.8207374,12.8487682 12.7238197,13.0241737 C13.005763,12.7737722 13.2636835,12.5318699 13.4764354,12.3059463 C13.4571518,12.2621012 13.0238861,12.4045906 12.9208676,12.3650694 C12.8826809,11.8148909 13.1660087,11.5075788 13.2607771,10.9132862 C13.4036368,10.057107 13.5804332,9.36351394 13.7774821,8.89108181 C14.1956626,7.9018774 14.2350728,7.75461817 14.1710315,7.47871398 C14.0758083,7.12353801 14.197913,7.0905323 14.1217693,6.81960868 C14.0110757,6.51617527 14.3224274,6.71612262 13.9739836,6.30283546 C13.8606801,6.16981029 13.7818617,6.04718637 13.7818617,6.04718637 L14.1464014,5.879673 L14.2399998,4.5362811 C14.2350728,4.5362811 13.245999,4.83189344 13.2115158,4.83189344 C13.1425485,4.83189344 13.0785073,4.70379447 12.8672277,4.11366558 C12.729294,3.7397716 12.7046629,3.62152648 12.729294,3.37573098 C12.8079036,2.60212278 12.3082824,0.853215688 11.4747514,0.0643305724 C11.2600304,-0.0304374088 11.0808615,0.0315919568 11.0902292,0.253044747 C11.0983306,0.444553726 11.2967535,0.766773722 11.4654457,1.200794 C10.4998302,0.411305844 9.86688432,0.0917180943 9.44350931,0.0243683256 C9.03729484,-0.0803676088 9.25851854,0.177760938 8.99577019,0.319980185 C8.93172988,0.339687685 8.90709925,0.393883151 8.90709925,0.531287919 C8.86962957,0.829811344 9.682531,1.36392308 9.87646843,1.68253196 C9.55348395,1.53600884 9.14790693,1.13652421 8.86276306,1.16630615 C8.44950807,1.16630615 8.45936061,1.45151676 8.88246767,1.75205577 C9.19286054,1.97652937 9.55330135,2.35077024 9.91587811,2.73140693 C9.36298549,2.83279753 8.8315253,2.90043283 8.75986041,3.06588627 C8.54184636,3.40234018 9.30767968,3.41051388 9.95528827,3.78411365 C10.7365553,4.38226033 11.014916,4.27330685 11.1802737,4.51274157 C11.3109471,4.74730111 11.420422,4.5914898 11.5448143,5.00488091 C11.5891496,5.15761376 11.5990026,5.3097992 11.5990026,5.3097992 L10.7281574,5.5955577 L11.0872236,6.23495532 C11.4167318,6.83055831 11.4512159,6.87489988 11.5792975,6.86011983 C11.8182968,6.81808425 11.6646696,6.96490337 11.4955512,7.25919582 L11.6088546,7.46612407 C11.7500179,7.70924236 11.6885675,8.0301962 11.5398873,7.65279819 C11.4154512,7.41560365 11.081879,6.83268167 10.5830311,6.55265618 C10.3502995,6.42201377 10.3502995,6.37762643 9.4194265,6.37345506 C8.65008935,5.67512227 8.58974309,5.63928748 7.77626,5.6448269 L7.16103058,5.6448269 C6.23995957,6.07651426 5.59981918,6.56058646 4.82436336,7.85370446 C4.74900777,7.42218638 4.69552205,7.40078927 4.88840438,7.38127376 C5.03126453,7.36649228 5.04111682,7.35171224 5.14401972,6.92362214 C5.31357754,6.16239787 5.44368731,6.33937074 4.8736251,6.16050578 C4.53918994,6.07674886 4.4308132,6.03240682 4.4308132,5.96835757 C4.54549671,5.22008611 4.6874033,5.31796599 4.73569123,5.10232402 C5.01525731,4.68174792 5.19141751,5.07326652 5.69958704,3.97516705 C6.04479492,3.2267325 6.49757688,2.84415914 6.74230174,2.52831126 C6.74230174,2.44455458 6.54032684,2.22339297 6.46698133,2.22339297 C6.05260114,2.24297238 8.2228334,1.12648249 7.91857232,1.06174779 Z"></path>
    </symbol>
    <symbol id="icon-css" viewBox="0 0 16 16">
      <path d="M3.785 3H14l-1.805 9.164L6.738 14 2 12.164l.482-2.447H4.5l-.2 1.01 2.864 1.108 3.3-1.107.46-2.328h-8.2l.396-2.045h8.206l.258-1.313h-8.2"/>
    </symbol>
    <symbol id="icon-download" viewBox="0 0 16 16">
      <path d="M8 12c.3 0 .5-.1.7-.3L14.4 6 13 4.6l-4 4V0H7v8.6l-4-4L1.6 6l5.7 5.7c.2.2.4.3.7.3z" />
      <path d="M14 14H2v-3H0v4c0 .6.4 1 1 1h14c.6 0 1-.4 1-1v-4h-2v3z" />
    </symbol>
    <symbol id="icon-document" viewBox="0 0 16 16">
      <path d="M8 5v-1h-4v1h4zM4 8h7v-1h-7v1zM4 10h7v-1h-7v1zM4 12h7v-1h-7v1zM14 4.5v10.5h-12v-14h8.5l3.5 3.5z" />
    </symbol>
    <symbol id="icon-file" viewBox="0 0 16 16">
      <path d="M14 4.5v10.5h-12v-14h8.5l3.5 3.5zM13 5l-3-3v3h3z"></path>
    </symbol>
    <symbol id="icon-folder-collapsed" viewBox="0 0 16 16">
      <path d="M1 2h7v2h7v10h-14z" />
    </symbol>
    <symbol id="icon-folder-expanded" viewBox="0 0 16 16">
      <path d="M1 2h7v2h7v10h-14v-12zM3 6v2h10v-2h-10z" />
    </symbol>
    <symbol id="icon-font" viewBox="0 0 16 16">
      <path d="M2.61550642,8.85217405 L2.46314308,9.24480266 C2.35375346,9.52218347 2.29905948,9.71751914 2.29905948,9.83081552 C2.29905948,10.0222473 2.36352025,10.1560523 2.49244372,10.2322343 C2.62136719,10.3084164 2.83232971,10.3465068 3.12533761,10.3465068 L3.12533761,10.9969811 L0.5,10.9969811 L0.5,10.3465068 C1.00006681,10.3465068 1.42003849,9.92067509 1.75992765,9.06899881 L4.20360127,2.91000366 L4.88923631,2.91000366 L7.37979096,9.06313868 C7.62591759,9.6725951 7.84860025,10.0388495 8.04784562,10.1619128 C8.24709099,10.2849761 8.43851994,10.3465068 8.62213822,10.3465068 L8.62213822,10.9969811 L4.67827168,10.9969811 L4.67827168,10.3465068 C5.03378793,10.3465068 5.25451723,10.3123231 5.34046621,10.2439546 C5.42641519,10.1755861 5.46938904,10.0886617 5.46938904,9.98317887 C5.46938904,9.88941634 5.43422862,9.76635487 5.36390673,9.61399077 L5.28772506,9.43232678 L5.05918004,8.85217405 L2.61550642,8.85217405 Z M2.86749195,8.17825926 L4.79547425,8.17825926 L3.80511252,5.80490718 L2.86749195,8.17825926 Z M12.167516,10.4871499 C11.8823217,10.6942088 11.5844348,10.8495007 11.2738464,10.9530301 C10.963258,11.0565596 10.6380242,11.1083236 10.298135,11.1083236 C9.84885623,11.1083236 9.5119022,11.006749 9.28726282,10.8035969 C9.06262343,10.6004447 8.95030542,10.3484617 8.95030542,10.0476403 C8.95030542,9.62180214 9.17494144,9.24480431 9.62422021,8.91663546 C10.073499,8.58846662 10.8860954,8.22514228 12.0620337,7.82665155 L12.0620337,7.39300203 C12.0620337,7.08436705 11.9878061,6.88610135 11.8393488,6.79819898 C11.6908915,6.71029661 11.5150894,6.66634609 11.3119372,6.66634609 C10.819684,6.66634609 10.546214,6.8460549 10.4915192,7.20547792 C10.4524515,7.45160455 10.3743173,7.63033668 10.2571141,7.74167968 C10.1399109,7.85302268 9.95824877,7.90869335 9.71212214,7.90869335 C9.48943614,7.90869335 9.31265736,7.84911597 9.1817805,7.72995942 C9.05090364,7.61080288 8.98546619,7.47113788 8.98546619,7.31096023 C8.98546619,6.94763044 9.22572906,6.63900009 9.70626201,6.38505991 C10.186795,6.13111974 10.8294493,6.00415156 11.6342443,6.00415156 C12.0835231,6.00415156 12.4595442,6.03149855 12.7623191,6.08619336 C13.0650939,6.14088816 13.3092635,6.24246271 13.4948351,6.39092004 C13.6804068,6.53937738 13.8034683,6.69564591 13.8640232,6.85973033 C13.9245782,7.02381475 13.9548552,7.24649741 13.9548552,7.52778499 L13.9548552,9.75463385 C13.9548552,10.0906162 14.0564298,10.2586049 14.2595819,10.2586049 C14.4353867,10.2586049 14.546728,10.1492169 14.5936093,9.93043771 L15.0799999,9.93043771 C15.0682796,10.3328352 14.9208012,10.6297454 14.6375602,10.8211773 C14.3543193,11.0126091 14.0154119,11.1083236 13.6208279,11.1083236 C12.9019819,11.1083236 12.4175494,10.9012677 12.167516,10.4871499 Z M12.0620337,9.85425604 L12.0620337,8.48298595 C11.5189924,8.70957872 11.1644582,8.91468117 10.9984204,9.09829945 C10.8323826,9.28191773 10.7493649,9.47139333 10.7493649,9.66673192 C10.7493649,9.81518926 10.7981988,9.94899419 10.8958681,10.0681507 C10.9935374,10.1873073 11.122459,10.2468847 11.2826366,10.2468847 C11.4232804,10.2468847 11.558062,10.2136776 11.6869855,10.1472625 C11.8159089,10.0808473 11.9409238,9.98317951 12.0620337,9.85425604 Z"></path>
    </symbol>
    <symbol id="icon-forms" viewBox="0 0 16 16">
      <path d="M6.3,11.7l-2-2c-0.4-0.4-0.4-1,0-1.4s1-0.4,1.4,0L7,9.6l3.3-3.3c0.4-0.4,1-0.4,1.4,0 s0.4,1,0,1.4l-4,4C7.3,12.1,6.8,12.2,6.3,11.7z" />
      <path d="M15,1h-3v2h2v11H2V3h2V1H1C0.4,1,0,1.4,0,2v13c0,0.6,0.4,1,1,1h14c0.6,0,1-0.4,1-1V2C16,1.4,15.6,1,15,1z" />
      <rect x="5" width="6" height="4" />
    </symbol>
    <symbol id="icon-git" viewBox="0 0 16 16">
      <path d="M14.718 7.356l-6.118-6.115c-0.169-0.17-0.399-0.265-0.638-0.265s-0.469 0.095-0.638 0.265l-1.27 1.27 1.614 1.611c0.387-0.132 0.816-0.032 1.105 0.259s0.386 0.72 0.252 1.106l1.552 1.553c0.478-0.164 1.005 0.028 1.266 0.46s0.184 0.988-0.183 1.334c-0.368 0.346-0.927 0.389-1.343 0.102s-0.575-0.825-0.382-1.292l-1.447-1.445v3.81c0.45 0.227 0.681 0.737 0.555 1.225s-0.576 0.822-1.079 0.802c-0.504-0.020-0.925-0.388-1.013-0.885s0.183-0.986 0.65-1.177v-3.845c-0.264-0.109-0.475-0.318-0.584-0.582s-0.109-0.561 0.001-0.825l-1.583-1.588-4.193 4.192c-0.17 0.169-0.265 0.399-0.265 0.638s0.095 0.469 0.265 0.638l6.115 6.115c0.169 0.17 0.399 0.265 0.638 0.265s0.469-0.095 0.638-0.265l6.086-6.086c0.17-0.169 0.265-0.399 0.265-0.638s-0.095-0.469-0.265-0.638v0z"></path>
    </symbol>
    <symbol id="icon-github" viewBox="0 0 16 16">
      <path d="M8,0.2c-4.4,0-8,3.6-8,8c0,3.5,2.3,6.5,5.5,7.6 C5.9,15.9,6,15.6,6,15.4c0-0.2,0-0.7,0-1.4C3.8,14.5,3.3,13,3.3,13c-0.4-0.9-0.9-1.2-0.9-1.2c-0.7-0.5,0.1-0.5,0.1-0.5 c0.8,0.1,1.2,0.8,1.2,0.8C4.4,13.4,5.6,13,6,12.8c0.1-0.5,0.3-0.9,0.5-1.1c-1.8-0.2-3.6-0.9-3.6-4c0-0.9,0.3-1.6,0.8-2.1 c-0.1-0.2-0.4-1,0.1-2.1c0,0,0.7-0.2,2.2,0.8c0.6-0.2,1.3-0.3,2-0.3c0.7,0,1.4,0.1,2,0.3c1.5-1,2.2-0.8,2.2-0.8 c0.4,1.1,0.2,1.9,0.1,2.1c0.5,0.6,0.8,1.3,0.8,2.1c0,3.1-1.9,3.7-3.7,3.9C9.7,12,10,12.5,10,13.2c0,1.1,0,1.9,0,2.2 c0,0.2,0.1,0.5,0.6,0.4c3.2-1.1,5.5-4.1,5.5-7.6C16,3.8,12.4,0.2,8,0.2z" />
    </symbol>
    <symbol id="icon-globe" viewBox="0 0 16 16">
      <path d="M8 0C3.6 0 0 3.6 0 8s3.6 8 8 8 8-3.6 8-8-3.6-8-8-8zm5.9 7H12c-.1-1.5-.4-2.9-.8-4.1 1.4.9 2.4 2.4 2.7 4.1zM8 14c-.6 0-1.8-1.9-2-5h4c-.2 3.1-1.4 5-2 5zM6 7c.2-3.1 1.3-5 2-5s1.8 1.9 2 5H6zM4.9 2.9C4.4 4.1 4.1 5.5 4 7H2.1c.3-1.7 1.3-3.2 2.8-4.1zM2.1 9H4c.1 1.5.4 2.9.8 4.1-1.4-.9-2.4-2.4-2.7-4.1zm9 4.1c.5-1.2.7-2.6.8-4.1h1.9c-.2 1.7-1.2 3.2-2.7 4.1z" />
    </symbol>
    <symbol id="icon-gulpfile" viewBox="0 0 16 16">
      <path d="M12 3.993c-1.011 0.741-6.417 0.7-7-0.039 0.149-0.246 2.446-0.169 2.333-0.468-0.057-0.561-0.258-1.098-0.583-1.559l-1.439-1.6 0.405-0.327c0 0 0.755 0.765 1 0.991 0.661 0.556 1.101 1.331 1.24 2.184-0.001 0.138 0.059 0.27 0.163 0.36s0.244 0.13 0.381 0.108c1.685 0.12 3.324 0.089 3.5 0.35zM6.245 12.18c-0.274-0.048-0.463-0.304-0.428-0.58l-0.817-7.295c2.289 0.641 4.711 0.641 7 0l-0.7 7.251c-0.019 0.342-0.281 0.622-0.622 0.663-1.46 0.341-2.98 0.327-4.433-0.039zM10.639 13.154c-0.077 0.624-0.117 1.286-0.156 1.949-0.005 0.193-0.129 0.364-0.311 0.429l-1.4 0.468h-0.765c0 0-0.907-0.39-1.257-0.546-0.094-0.066-0.163-0.162-0.194-0.273-0.166-1.4 0.057-2.292-0.428-2.807v-0.074c1.625 0.403 3.327 0.376 4.939-0.078-0.221 0.269-0.368 0.59-0.428 0.932z"></path>
    </symbol>
    <symbol id="icon-heart" viewBox="0 0 16 16">
      <path d="M11.6,0C10.1,0,8.8,0.8,8,2C7.2,0.8,5.9,0,4.4,0C2,0,0,2,0,4.4c0,4.4,8,10.9,8,10.9s8-6.5,8-10.9 C16,2,14,0,11.6,0z"/>
    </symbol>
    <symbol id="icon-html" viewBox="0 0 16 16">
      <path d="M11.631 5.1l0.136-1.531h-7.534l0.4 4.672h5.216l-0.187 2-1.679 0.459-1.67-0.464-0.113-1.221h-1.49l0.19 2.433 3.085 0.875h0.032v-0.009l3.060-0.866 0.423-4.76h-5.486l-0.128-1.588h5.745zM2 1h12l-1.091 12.583-4.926 1.417-4.892-1.417-1.091-12.583z"></path>
    </symbol>
    <symbol id="icon-image" viewBox="0 0 16 16">
      <path d="M7.024 10.829l-1.524-1.829-2.5 3h10l-3.5-4-2.476 2.829zM2 2h12v12h-12v-12z" />
    </symbol>
    <symbol id="icon-info" viewBox="0 0 16 16">
      <path d="M8,0C3.6,0,0,3.6,0,8s3.6,8,8,8s8-3.6,8-8S12.4,0,8,0z M9,12H7V7h2V12z M8,6C7.4,6,7,5.6,7,5s0.4-1,1-1 s1,0.4,1,1S8.6,6,8,6z"/>
    </symbol>
    <symbol id="icon-instagram" viewBox="0 0 16 16">
      <path d="M13.105 3.892a.96.96 0 1 1-1.92 0 .96.96 0 0 1 1.92 0zM8 12c-2.206 0-4-1.794-4-4s1.794-4 4-4 4 1.794 4 4-1.794 4-4 4zm0-6c-1.103 0-2 .897-2 2s.897 2 2 2 2-.897 2-2-.897-2-2-2z" />
      <path d="M12 16H4c-2.056 0-4-1.944-4-4V4c0-2.056 1.944-4 4-4h8c2.056 0 4 1.944 4 4v8c0 2.056-1.944 4-4 4zM4 2c-.935 0-2 1.065-2 2v8c0 .953 1.047 2 2 2h8c.935 0 2-1.065 2-2V4c0-.935-1.065-2-2-2H4z" />
    </symbol>
    <symbol id="icon-integration" viewBox="0 0 16 16">
      <path d="M12,6c1.654,0,3-1.346,3-3s-1.346-3-3-3S9,1.346,9,3c0,0.223,0.029,0.439,0.075,0.649l-3.22,2.012 C5.343,5.254,4.704,5,4,5C2.346,5,1,6.346,1,8s1.346,3,3,3c0.704,0,1.343-0.254,1.855-0.661l3.22,2.012C9.029,12.561,9,12.777,9,13 c0,1.654,1.346,3,3,3s3-1.346,3-3s-1.346-3-3-3c-0.704,0-1.343,0.254-1.855,0.661l-3.22-2.012C6.971,8.439,7,8.223,7,8 S6.971,7.561,6.925,7.351l3.22-2.012C10.657,5.746,11.296,6,12,6z" />
    </symbol>
    <symbol id="icon-javascript" viewBox="0 0 16 16">
      <path d="M3 13h10v-10h-10v10zM2 2h12v12h-12v-12z" />
      <path d="M6.935 7.072h0.967v3.459c0 0.488-0.137 0.874-0.412 1.16s-0.62 0.429-1.037 0.429c-0.451 0-0.808-0.128-1.072-0.383s-0.39-0.631-0.381-1.128l0.010-0.021h0.947c0 0.262 0.046 0.453 0.138 0.574s0.211 0.181 0.357 0.181c0.132 0 0.246-0.072 0.34-0.215s0.142-0.343 0.142-0.598v-3.459zM10.95 10.75c0-0.194-0.050-0.347-0.15-0.46s-0.277-0.224-0.53-0.333c-0.517-0.18-0.905-0.385-1.164-0.614s-0.388-0.55-0.388-0.962c0-0.408 0.15-0.74 0.451-0.996s0.685-0.385 1.152-0.385c0.474 0 0.859 0.143 1.155 0.429s0.44 0.647 0.431 1.082l-0.007 0.021h-0.943c0-0.228-0.057-0.412-0.171-0.554s-0.275-0.212-0.482-0.212c-0.194 0-0.345 0.059-0.453 0.176s-0.162 0.265-0.162 0.443c0 0.164 0.060 0.299 0.181 0.405s0.33 0.224 0.629 0.354c0.472 0.159 0.827 0.362 1.065 0.607s0.357 0.576 0.357 0.993c0 0.431-0.144 0.768-0.431 1.012s-0.669 0.366-1.145 0.366c-0.474 0-0.885-0.138-1.232-0.415s-0.516-0.674-0.504-1.191l0.007-0.021h0.947c0 0.308 0.065 0.529 0.195 0.663s0.326 0.202 0.588 0.202c0.205 0 0.357-0.055 0.456-0.164s0.149-0.257 0.149-0.444z" />
    </symbol>
    <symbol id="icon-loader" viewBox="0 0 16 16">
      <path d="M8 16a7.928 7.928 0 0 1-3.428-.77l.857-1.807A6.006 6.006 0 0 0 14 8c0-3.309-2.691-6-6-6a6.006 6.006 0 0 0-5.422 8.572l-1.806.859A7.929 7.929 0 0 1 0 8c0-4.411 3.589-8 8-8s8 3.589 8 8-3.589 8-8 8z" />
    </symbol>
    <symbol id="icon-lock" viewBox="0 0 16 16">
      <path d="M8,0C5.8,0,4,1.8,4,4v1.5C2.8,6.6,2,8.2,2,10c0,3.3,2.7,6,6,6s6-2.7,6-6c0-1.8-0.8-3.4-2-4.5V4 C12,1.8,10.2,0,8,0z M9,10.7V13H7v-2.3c-0.6-0.3-1-1-1-1.7c0-1.1,0.9-2,2-2s2,0.9,2,2C10,9.7,9.6,10.4,9,10.7z M10,4.4 C9.4,4.1,8.7,4,8,4S6.6,4.1,6,4.4V4c0-1.1,0.9-2,2-2s2,0.9,2,2V4.4z" />
    </symbol>
    <symbol id="icon-markdown" viewBox="0 0 16 16">
      <path d="M14.85 3h-13.7c-0.634 0.004-1.146 0.516-1.15 1.15v7.69c-0.001 0.637 0.513 1.155 1.15 1.16h13.69c0.635 0 1.15-0.515 1.15-1.15v-7.7c0.002-0.304-0.117-0.596-0.331-0.812s-0.505-0.337-0.809-0.338zM9 11h-2v-3l-1.5 1.92-1.5-1.92v3h-2v-6h2l1.5 2 1.5-2h2v6zM11.99 11.5l-2.49-3.5h1.5v-3h2v3h1.5l-2.51 3.5z" />
    </symbol>
    <symbol id="icon-menu" viewBox="0 0 16 16">
      <path d="M15,7H1C0.4,7,0,7.4,0,8s0.4,1,1,1h14c0.6,0,1-0.4,1-1S15.6,7,15,7z" />
      <path d="M15,1H1C0.4,1,0,1.4,0,2s0.4,1,1,1h14c0.6,0,1-0.4,1-1S15.6,1,15,1z" />
      <path d="M15,13H1c-0.6,0-1,0.4-1,1s0.4,1,1,1h14c0.6,0,1-0.4,1-1S15.6,13,15,13z" />
    </symbol>
    <symbol id="icon-panel" viewBox="0 0 16 16">
      <path d="M16,5H0V2c0-0.552,0.448-1,1-1h14c0.552,0,1,0.448,1,1V5z" />
      <path d="M5,15H1c-0.552,0-1-0.448-1-1V7h5V15z" />
      <path d="M15,15H7V7h9v7C16,14.552,15.552,15,15,15z" />
    </symbol>
    <symbol id="icon-performance" viewBox="0 0 16 16">
      <path d="M12.7,0.3c-0.4-0.4-1-0.4-1.4,0s-0.4,1,0,1.4l0.8,0.8l-0.9,0.9C10,2.5,8.6,2,7,2C3.1,2,0,5.1,0,9s3.1,7,7,7 s7-3.1,7-7c0-1.6-0.5-3-1.4-4.2l0.9-0.9l0.8,0.8C14.5,4.9,14.7,5,15,5s0.5-0.1,0.7-0.3c0.4-0.4,0.4-1,0-1.4L12.7,0.3z M7,14 c-2.8,0-5-2.2-5-5s2.2-5,5-5s5,2.2,5,5S9.8,14,7,14z" />
      <polygon points="8,6 6,6 6,10 10,10 10,8 8,8 " />
    </symbol>
    <symbol id="icon-php" viewBox="0 0 16 16">
      <path d="M5.323 11.323c-0.034-0.47-0.34-0.876-0.782-1.039-0.196-0.072-0.365-0.204-0.559-0.284-0.218-0.099-0.443-0.181-0.674-0.244-0.171-0.042-0.349 0.030-0.442 0.179-0.074 0.126-0.051 0.286 0.055 0.386 0.093 0.131 0.2 0.256 0.3 0.378 0.172 0.2 0.355 0.4 0.523 0.607 0.178 0.181 0.276 0.425 0.274 0.679-0.054 0.56-0.326 1.076-0.757 1.437-0.055 0.044-0.124 0.067-0.194 0.066-0.272-0.023-0.53-0.134-0.733-0.317-0.11-0.075-0.168-0.205-0.151-0.336s0.107-0.242 0.233-0.286c0.069-0.035 0.136-0.074 0.2-0.117 0.171-0.113 0.229-0.336 0.135-0.518-0.040-0.092-0.096-0.177-0.167-0.248-0.357-0.313-0.708-0.637-1.090-0.922-0.886-0.632-1.431-1.637-1.48-2.724-0.090-1.212 0.222-2.42 0.886-3.438 0.231-0.423 0.585-0.766 1.016-0.982 0.32-0.123 0.649-0.22 0.984-0.291 0.906-0.277 1.859-0.363 2.8-0.251 0.776 0.067 1.441 0.582 1.7 1.317 0.174 0.505 0.232 1.042 0.168 1.572-0.137 1.094-0.922 1.996-1.986 2.283-0.36 0.157-0.78 0.023-0.982-0.314-0.2-0.265-0.364-0.553-0.542-0.832-0.026-0.041-0.045-0.089-0.067-0.134s-0.045-0.086-0.068-0.13c0.047 0.458 0.197 0.9 0.437 1.293 0.124 0.222 0.347 0.371 0.6 0.4 0.947 0.13 1.891-0.259 2.472-1.019 0.637-0.839 0.868-1.918 0.631-2.944-0.038-0.21-0.103-0.415-0.149-0.623-0.019-0.059-0.012-0.123 0.019-0.176s0.083-0.091 0.143-0.105c0.064-0.019 0.128-0.034 0.194-0.046 0.823-0.175 1.668-0.225 2.506-0.146 0.945 0.070 1.861 0.364 2.67 0.857 1.207 0.766 2.089 1.95 2.478 3.326 0.053 0.204 0.079 0.415 0.076 0.626 0 0.141-0.090 0.178-0.2 0.089-0.122-0.098-0.236-0.205-0.341-0.321-0.1-0.107-0.177-0.23-0.273-0.343-0.074-0.088-0.139-0.075-0.174 0.035-0.022 0.067-0.042 0.133-0.062 0.2-0.204 0.763-0.594 1.463-1.135 2.038-0.084 0.085-0.139 0.194-0.158 0.312-0.031 0.299-0.035 0.6-0.012 0.9 0.062 0.642 0.158 1.281 0.233 1.922 0.037 0.15 0.012 0.309-0.069 0.441s-0.212 0.225-0.363 0.259c-0.25 0.091-0.512 0.148-0.777 0.17-0.418 0.028-0.84 0.008-1.26 0.008 0.096-0.424-0.064-0.865-0.409-1.13 0.085-0.335 0.184-0.653 0.243-0.978 0.062-0.268-0.008-0.55-0.189-0.757-0.142-0.2-0.412-0.263-0.628-0.146-0.607 0.336-1.333 0.382-1.978 0.125-0.123-0.063-0.266-0.075-0.397-0.032s-0.24 0.135-0.303 0.258c-0.18 0.285-0.265 0.62-0.242 0.956 0.026 0.42 0.1 0.835 0.16 1.253 0.032 0.234 0 0.294-0.236 0.354-0.534 0.12-1.083 0.154-1.627 0.1-0.026-0.004-0.052-0.011-0.077-0.019 0.095-0.45-0.12-0.908-0.526-1.123 0.202-0.476 0.245-1.004 0.125-1.507v0 0l-0.002-0.004zM2.087 9.6c0.082-0.078 0.14-0.178 0.166-0.289 0.033-0.292-0.119-0.573-0.381-0.705-0.109-0.057-0.242-0.031-0.322 0.062-0.214 0.237-0.426 0.475-0.637 0.713-0.036 0.042-0.067 0.087-0.093 0.136-0.046 0.057-0.056 0.135-0.025 0.202s0.097 0.109 0.17 0.11c0.109 0.027 0.222 0.032 0.335 0.048 0.285-0.001 0.563-0.096 0.788-0.271v0l-0.001-0.006zM2.111 7c-0.006-0.19-0.162-0.341-0.352-0.342-0.196 0.001-0.355 0.158-0.358 0.354 0.012 0.191 0.172 0.338 0.363 0.333 0.191 0.001 0.347-0.153 0.349-0.344v0l-0.002-0.001z" />
    </symbol>
    <symbol id="icon-readme" viewBox="0 0 16 16">
      <path d="M3 6h4v1h-4v-1zM3 9h4v-1h-4v1zM3 11h4v-1h-4v1zM14 6h-4v1h4v-1zM14 8h-4v1h4v-1zM14 10h-4v1h4v-1zM16 4v9c0 0.552-0.448 1-1 1h-5.5l-1 1-1-1h-5.5c-0.552 0-1-0.448-1-1v-9c0-0.552 0.448-1 1-1h5.5l1 1 1-1h5.5c0.552 0 1 0.448 1 1zM8 4.5l-0.5-0.5h-5.5v9h6v-8.5zM15 4h-5.5l-0.5 0.5v8.5h6v-9z" />
    </symbol>
    <symbol id="icon-search" viewBox="0 0 16 16">
      <path d="M7 14c-3.86 0-7-3.14-7-7s3.14-7 7-7 7 3.14 7 7-3.14 7-7 7zM7 2C4.243 2 2 4.243 2 7s2.243 5 5 5 5-2.243 5-5-2.243-5-5-5zM15.707 14.293L13.314 11.9a8.019 8.019 0 0 1-1.414 1.414l2.393 2.393a.997.997 0 0 0 1.414 0 .999.999 0 0 0 0-1.414z" />
    </symbol>
    <symbol id="icon-star" viewBox="0 0 16 16">
      <path d="M15.144,5.438l-4.316-0.627L8.897,0.9c-0.338-0.683-1.456-0.683-1.794,0l-1.93,3.911L0.856,5.438 C0.039,5.557-0.292,6.565,0.302,7.145l3.124,3.044l-0.737,4.299c-0.139,0.814,0.717,1.439,1.451,1.054L8,13.513l3.861,2.03 c0.728,0.381,1.591-0.234,1.451-1.054l-0.737-4.299l3.124-3.044C16.292,6.565,15.961,5.557,15.144,5.438z"></path>
    </symbol>
    <symbol id="icon-star-outline" viewBox="0 0 16 16">
      <polygon fill="none" stroke="currentColor" stroke-linecap="round" stroke-linejoin="round" stroke-miterlimit="10" points="8,0.867 10.318,5.563 15.5,6.316 11.75,9.971 12.635,15.133 8,12.696 3.365,15.133 4.25,9.971 0.5,6.316 5.682,5.563 " data-cap="butt"></polygon>
    </symbol>
    <symbol id="icon-stop" viewBox="0 0 16 16">
      <path d="M8,0C3.6,0,0,3.6,0,8s3.6,8,8,8s8-3.6,8-8S12.4,0,8,0z M8,2c1.3,0,2.5,0.4,3.5,1.1l-8.4,8.4 C2.4,10.5,2,9.3,2,8C2,4.7,4.7,2,8,2z M8,14c-1.3,0-2.5-0.4-3.5-1.1l8.4-8.4C13.6,5.5,14,6.7,14,8C14,11.3,11.3,14,8,14z" />
    </symbol>
    <symbol id="icon-text" viewBox="0 0 16 16">
      <rect x="2" y="3" width="12" height="1"></rect>
      <rect x="2" y="6" width="8" height="1"></rect>
      <rect x="2" y="9" width="12" height="1"></rect>
      <rect x="2" y="12" width="8" height="1"></rect>
    </symbol>
    <symbol id="icon-twitter" viewBox="0 0 16 16">
      <path d="M16 3c-.6.3-1.2.4-1.9.5.7-.4 1.2-1 1.4-1.8-.6.4-1.3.6-2.1.8-.6-.6-1.5-1-2.4-1-1.7 0-3.2 1.5-3.2 3.3 0 .3 0 .5.1.7-2.7-.1-5.2-1.4-6.8-3.4-.3.5-.4 1-.4 1.7 0 1.1.6 2.1 1.5 2.7-.5 0-1-.2-1.5-.4C.7 7.7 1.8 9 3.3 9.3c-.3.1-.6.1-.9.1-.2 0-.4 0-.6-.1.4 1.3 1.6 2.3 3.1 2.3-1.1.9-2.5 1.4-4.1 1.4H0c1.5.9 3.2 1.5 5 1.5 6 0 9.3-5 9.3-9.3v-.4C15 4.3 15.6 3.7 16 3z" />
    </symbol>
    <symbol id="icon-url" viewBox="0 0 16 16">
      <path d="M11,0C9.7,0,8.4,0.5,7.5,1.5L6.3,2.6C5.9,3,5.9,3.6,6.3,4s1,0.4,1.4,0l1.2-1.2c1.1-1.1,3.1-1.1,4.2,0 C13.7,3.4,14,4.2,14,5s-0.3,1.6-0.9,2.1L12,8.3c-0.4,0.4-0.4,1,0,1.4c0.2,0.2,0.5,0.3,0.7,0.3s0.5-0.1,0.7-0.3l1.2-1.2 C15.5,7.6,16,6.3,16,5s-0.5-2.6-1.5-3.5C13.6,0.5,12.3,0,11,0z" />
      <path d="M8.3,12l-1.2,1.2c-1.1,1.1-3.1,1.1-4.2,0C2.3,12.6,2,11.8,2,11s0.3-1.6,0.9-2.1L4,7.7c0.4-0.4,0.4-1,0-1.4 s-1-0.4-1.4,0L1.5,7.5C0.5,8.4,0,9.7,0,11s0.5,2.6,1.5,3.5C2.4,15.5,3.7,16,5,16s2.6-0.5,3.5-1.5l1.2-1.2c0.4-0.4,0.4-1,0-1.4 S8.7,11.6,8.3,12z" />
      <path d="M9.4,5.2L5.2,9.4c-0.4,0.4-0.4,1,0,1.4c0.2,0.2,0.5,0.3,0.7,0.3s0.5-0.1,0.7-0.3l4.2-4.2 c0.4-0.4,0.4-1,0-1.4C10.4,4.8,9.8,4.8,9.4,5.2z" />
    </symbol>
    <symbol id="icon-video" viewBox="0 0 16 16">
     <path d="M14.3 4.072l-4.55 2.966v-2.223c-0.019-0.466-0.409-0.829-0.875-0.815h-7c-0.466-0.014-0.856 0.349-0.875 0.815v7.355c0.018 0.466 0.409 0.831 0.875 0.817h7c0.466 0.014 0.857-0.351 0.875-0.817v-2.223l4.55 2.966c0.132 0.091 0.302 0.104 0.447 0.035s0.241-0.21 0.253-0.37v-8.171c-0.012-0.16-0.109-0.3-0.253-0.37s-0.315-0.056-0.447 0.035v0z"></path>
    </symbol>
    <symbol id="icon-wand" viewBox="0 0 16 16">
      <path d="M8.046 4.985l2.97 2.97-7.99 7.99-2.97-2.97 7.99-7.99zM12.995 1.591l1.414 1.414-2.404 2.404-1.414-1.414 2.404-2.404zM13 7h3v2h-3V7zM12.243 10.834l2.121 2.121-1.414 1.414-2.121-2.121 1.414-1.414zM7 0h2v3H7V0zM3.05 1.631l2.121 2.121-1.414 1.414-2.121-2.121L3.05 1.631z" />
    </symbol>
    <symbol id="icon-warning" viewBox="0 0 16 16">
      <path d="M15.216,13.529L8.882,1.654c-0.376-0.706-1.388-0.706-1.765,0L0.784,13.529C0.429,14.195,0.912,15,1.667,15 h12.667C15.088,15,15.571,14.195,15.216,13.529z M8,13c-0.552,0-1-0.448-1-1c0-0.552,0.448-1,1-1s1,0.448,1,1 C9,12.552,8.552,13,8,13z M9,10H7V6h2V10z"/>
    </symbol>
    <symbol id="icon-yaml" viewBox="0 0 16 16">
      <path d="M8 15c-3.31 0-6-0.9-6-2v-2c0.015-0.185 0.089-0.36 0.21-0.5 0.67 0.86 3 1.5 5.79 1.5s5.12-0.64 5.79-1.5c0.125 0.138 0.199 0.314 0.21 0.5v2c0 1.1-2.69 2-6 2zM8 11c-3.31 0-6-0.9-6-2v-2c0.005-0.109 0.036-0.215 0.090-0.31 0.033-0.068 0.073-0.131 0.12-0.19 0.67 0.86 3 1.5 5.79 1.5s5.12-0.64 5.79-1.5c0.047 0.059 0.087 0.122 0.12 0.19 0.053 0.095 0.083 0.201 0.090 0.31v2c0 1.1-2.69 2-6 2zM8 7c-3.31 0-6-0.9-6-2v-2c0-1.1 2.69-2 6-2s6 0.9 6 2v2c0 1.1-2.69 2-6 2zM8 2c-2.21 0-4 0.45-4 1s1.79 1 4 1c2.21 0 4-0.45 4-1s-1.79-1-4-1z" />
    </symbol>
    <symbol id="icon-youtube" viewBox="0 0 16 16">
      <path d="M15.8,4.8c-0.2-1.3-0.8-2.2-2.2-2.4C11.4,2,8,2,8,2S4.6,2,2.4,2.4C1,2.6,0.3,3.5,0.2,4.8C0,6.1,0,8,0,8 s0,1.9,0.2,3.2c0.2,1.3,0.8,2.2,2.2,2.4C4.6,14,8,14,8,14s3.4,0,5.6-0.4c1.4-0.3,2-1.1,2.2-2.4C16,9.9,16,8,16,8S16,6.1,15.8,4.8z M6,11V5l5,3L6,11z"/>
    </symbol>
  </defs>
</svg>
