<svg xmlns="http://www.w3.org/2000/svg" height="122.387" width="121.467"><path d="M17.527 49.417c1.845-.13 3.69-.13 5.403-.13 5.8 0 9.752.525 12.257 1.58 3.558 1.713 5.798 5.667 5.798 10.016 0 11.993-12.519 20.294-30.838 20.294-4.217 0-5.93-.129-10.015-.922L4.35 92.511c5.008.66 6.853.66 10.938.66 27.28 0 46.388-12.653 46.388-30.839 0-9.225-5.798-16.737-15.683-20.03 2.373-.924 3.164-1.319 4.877-2.373 5.535-3.69 8.697-9.884 8.697-17 0-13.178-11.991-22.93-28.464-22.93-6.327 0-12.784 1.45-19.241 4.084C7.38 6.06 4.085 7.905 0 11.068L9.224 22.27c3.955-3.295 10.675-7.38 19.505-7.38 7.643 0 11.202 4.216 11.202 9.883 0 6.984-4.876 10.412-14.628 10.412-1.713 0-4.745-.132-8.039-.396l-1.055-.131v14.76h1.318" fill="#1baee4"/><path d="M62.01 109.373l1.267 12.896h1.727c.576-.92 1.267-1.38 1.957-1.38.921 0 1.843.343 3.11.69 1.266.461 2.879.808 5.067.808 8.06 0 14.28-5.644 14.28-13.13 0-14.049-21.42-15.775-21.42-25.91 0-3.8 3.225-6.448 7.025-6.448 4.606 0 8.406 3.686 9.212 9.557h1.958l-.23-10.477c-2.88-1.155-6.104-1.845-9.213-1.845-8.752 0-14.74 5.295-14.74 12.9 0 9.556 9.097 10.363 17.273 18.538 3.11 3.109 3.686 4.607 3.686 7.024 0 4.147-3.57 7.599-8.177 7.599-5.182 0-9.558-3.913-10.94-10.822H62.01M105.006 75.4V64h-1.958c-2.65 7.14-6.564 12.437-11.055 14.624v1.842h5.297v28.56c0 7.716 4.836 13.36 11.631 13.36 5.297 0 9.79-3.458 12.55-9.444l-1.84-1.73c-2.19 3.804-4.492 5.76-7.025 5.76-2.419 0-7.6-2.42-7.6-9.672V80.467h14.625l1.84-5.067h-16.465" fill="#050301"/></svg>