<?xml version="1.0" encoding="UTF-8" standalone="no"?>
<svg
   xmlns:dc="http://purl.org/dc/elements/1.1/"
   xmlns:cc="http://creativecommons.org/ns#"
   xmlns:rdf="http://www.w3.org/1999/02/22-rdf-syntax-ns#"
   xmlns:svg="http://www.w3.org/2000/svg"
   xmlns="http://www.w3.org/2000/svg"
   viewBox="0 0 121.46667 122.38667"
   height="122.38667"
   width="121.46667"
   xml:space="preserve"
   id="svg2"
   version="1.1"><metadata
     id="metadata8"><rdf:RDF><cc:Work
         rdf:about=""><dc:format>image/svg+xml</dc:format><dc:type
           rdf:resource="http://purl.org/dc/dcmitype/StillImage" /></cc:Work></rdf:RDF></metadata><defs
     id="defs6" /><g
     transform="matrix(1.3333333,0,0,-1.3333333,0,122.38667)"
     id="g10"><g
       transform="scale(0.1)"
       id="g12"><path
         id="path14"
         style="fill:#1baee4;fill-opacity:1;fill-rule:nonzero;stroke:none"
         d="m 131.453,547.27 c 13.836,0.984 27.672,0.984 40.524,0.984 43.492,0 73.14,-3.945 91.925,-11.863 26.688,-12.844 43.485,-42.496 43.485,-75.114 0,-89.949 -93.891,-152.207 -231.2854,-152.207 -31.625,0 -44.4688,0.969 -75.109412,6.914 L 32.6172,224.07 c 37.5586,-4.949 51.3984,-4.949 82.0348,-4.949 204.594,0 347.911,94.895 347.911,231.289 0,69.184 -43.485,125.524 -117.622,150.231 17.797,6.922 23.727,9.886 36.575,17.793 41.515,27.679 65.23,74.129 65.23,127.504 0,98.832 -89.937,171.976 -213.484,171.976 -47.446,0 -95.879,-10.875 -144.305,-30.637 C 55.3477,872.449 30.6406,858.613 0,834.887 l 69.1836,-84.012 c 29.6562,24.711 80.0584,55.352 146.2854,55.352 57.324,0 84.011,-31.625 84.011,-74.125 0,-52.383 -36.57,-78.086 -109.71,-78.086 -12.844,0 -35.582,0.988 -60.29,2.964 l -7.91,0.985 V 547.27 h 9.883 v 0" /><path
         id="path16"
         style="fill:#050301;fill-opacity:1;fill-rule:nonzero;stroke:none"
         d="m 465.078,97.6055 9.496,-96.726594 h 12.953 c 4.321,6.902344 9.504,10.359394 14.684,10.359394 6.906,0 13.82,-2.57814 23.32,-5.1758 C 535.027,2.59766 547.125,0 563.535,0 c 60.453,0 107.094,42.3242 107.094,98.4766 0,105.3634 -160.645,118.3084 -160.645,194.3164 0,28.508 24.188,48.367 52.688,48.367 34.547,0 63.047,-27.644 69.09,-71.68 h 14.683 l -1.726,78.579 c -21.594,8.66 -45.778,13.836 -69.094,13.836 -65.641,0 -110.547,-39.715 -110.547,-96.75 0,-71.668 68.227,-77.723 129.547,-139.032 23.32,-23.32 27.641,-34.5583 27.641,-52.6833 0,-31.1055 -26.778,-56.9922 -61.325,-56.9922 -38.867,0 -71.687,29.3438 -82.046,81.168 h -13.817 v 0" /><path
         id="path18"
         style="fill:#050301;fill-opacity:1;fill-rule:nonzero;stroke:none"
         d="m 787.543,352.402 v 85.489 h -14.684 c -19.867,-53.543 -49.23,-93.274 -82.914,-109.676 v -13.82 h 39.727 v -214.2 C 729.672,42.3242 765.945,0 816.91,0 c 39.727,0 73.418,25.9297 94.129,70.8281 L 897.23,83.8008 C 880.805,55.2734 863.539,40.6055 844.547,40.6055 c -18.141,0 -57.004,18.1445 -57.004,72.5395 v 201.25 H 897.23 l 13.809,38.007 H 787.543 v 0" /></g></g></svg>