<?xml version="1.0" encoding="UTF-8" standalone="no"?>
<svg
   xmlns:dc="http://purl.org/dc/elements/1.1/"
   xmlns:cc="http://creativecommons.org/ns#"
   xmlns:rdf="http://www.w3.org/1999/02/22-rdf-syntax-ns#"
   xmlns:svg="http://www.w3.org/2000/svg"
   xmlns="http://www.w3.org/2000/svg"
   viewBox="0 0 793.70667 1122.52"
   height="1122.52"
   width="793.70667"
   xml:space="preserve"
   id="svg2"
   version="1.1"><metadata
     id="metadata8"><rdf:RDF><cc:Work
         rdf:about=""><dc:format>image/svg+xml</dc:format><dc:type
           rdf:resource="http://purl.org/dc/dcmitype/StillImage" /></cc:Work></rdf:RDF></metadata><defs
     id="defs6"><clipPath
       id="clipPath26"
       clipPathUnits="userSpaceOnUse"><path
         id="path24"
         d="M 0,841.89 H 595.28 V 0 H 0 Z" /></clipPath></defs><g
     transform="matrix(1.3333333,0,0,-1.3333333,0,1122.52)"
     id="g10"><g
       transform="translate(162.2538,437.3458)"
       id="g12"><path
         id="path14"
         style="fill:#231f20;fill-opacity:1;fill-rule:nonzero;stroke:none"
         d="m 0,0 -31.974,-64.958 166.876,-2.994 29.066,60.318 4.241,-305.467 85.938,32.977 4.661,258.137 -94.112,19.447 z" /></g><g
       transform="translate(427.0581,410.3615)"
       id="g16"><path
         id="path18"
         style="fill:#231f20;fill-opacity:1;fill-rule:nonzero;stroke:none"
         d="m 0,0 v -39.968 l 19.984,8.991 z" /></g><g
       id="g20"><g
         clip-path="url(#clipPath26)"
         id="g22"><g
           transform="translate(341.4222,643.2082)"
           id="g28"><path
             id="path30"
             style="fill:#231f20;fill-opacity:1;fill-rule:nonzero;stroke:none"
             d="M 0,0 C 0,21.734 6.892,41.308 17.907,55.072 -4.587,48.421 -42.901,33.483 -63.255,4.984 -83.807,-23.79 -77.245,-196.868 -77.245,-196.868 l 41.969,-1.998 c 0,0 -3.981,132.926 3.997,145.892 8.786,14.285 28.368,10.88 44.219,4.923 C 4.857,-34.997 0,-18.255 0,0" /></g><g
           transform="translate(405.1059,573.0793)"
           id="g32"><path
             id="path34"
             style="fill:#231f20;fill-opacity:1;fill-rule:nonzero;stroke:none"
             d="m 0,0 c -26.801,0 -48.522,31.732 -48.522,70.884 0,39.152 21.721,70.889 48.522,70.889 26.801,0 48.522,-31.737 48.522,-70.889 C 48.522,31.732 26.801,0 0,0 m 3.413,145.566 c -31.196,0 -56.483,-33.776 -56.483,-75.437 0,-41.666 25.287,-75.436 56.483,-75.436 31.195,0 56.482,33.77 56.482,75.436 0,41.661 -25.287,75.437 -56.482,75.437" /></g><g
           transform="translate(428.7206,623.5428)"
           id="g36"><path
             id="path38"
             style="fill:#231f20;fill-opacity:1;fill-rule:nonzero;stroke:none"
             d="M 0,0 C -7.061,0 -12.992,4.661 -14.786,10.99 L 0,14.965 -15.144,17.296 c 1.148,7.157 7.485,12.638 15.144,12.638 4.966,0 9.375,-2.316 12.181,-5.887 -3.099,11.107 -12.713,19.207 -24.099,19.207 -13.892,0 -25.156,-12.049 -25.156,-26.909 0,-14.856 11.264,-26.911 25.156,-26.911 9.732,0 18.168,5.922 22.349,14.576 C 7.694,1.528 4.033,0 0,0" /></g><g
           transform="translate(404.9311,709.707)"
           id="g40"><path
             id="path42"
             style="fill:#231f20;fill-opacity:1;fill-rule:nonzero;stroke:none"
             d="m 0,0 c 12.412,0 19.797,-8.864 19.797,-8.864 0,0 -7.215,4.726 -19.203,4.726 -11.994,0 -21.438,-7.414 -21.438,-7.414 0,0 6.852,11.552 20.844,11.552" /></g><g
           transform="translate(391.044,579.1191)"
           id="g44"><path
             id="path46"
             style="fill:#231f20;fill-opacity:1;fill-rule:nonzero;stroke:none"
             d="m 0,0 c 0,0 9.754,-3.845 14.773,-3.845 5.023,0 13.001,2.658 13.001,2.658 0,0 -5.908,-1.183 -12.704,-1.183 C 8.275,-2.37 0,0 0,0" /></g><g
           transform="translate(261.4826,150.6423)"
           id="g48"><path
             id="path50"
             style="fill:#231f20;fill-opacity:1;fill-rule:nonzero;stroke:none"
             d="m 0,0 c -0.727,-3.132 -0.794,-7.207 0.493,-7.647 1.088,-0.346 2.69,1.494 3.908,6.286 C 4.452,-0.068 4.622,1.347 4.83,2.802 4.931,3.678 5.076,4.425 5.303,5.086 4.932,5.435 4.525,5.617 4,5.679 2.028,5.879 0.656,2.847 0,0" /></g><g
           transform="translate(224.7313,158.6344)"
           id="g52"><path
             id="path54"
             style="fill:#231f20;fill-opacity:1;fill-rule:nonzero;stroke:none"
             d="M 0,0 C -1.5,0.498 -2.973,-3.461 -3.617,-6.202 -3.818,-7.195 -3.866,-8.356 -3.769,-9.443 0.513,-6.42 1.316,-0.452 0,0" /></g><g
           transform="translate(193.7393,159.7498)"
           id="g56"><path
             id="path58"
             style="fill:#231f20;fill-opacity:1;fill-rule:nonzero;stroke:none"
             d="M 0,0 C -1.449,0.522 -2.836,-3.36 -3.407,-6.022 -3.626,-7.219 -3.563,-8.584 -3.291,-9.92 0.743,-6.906 1.239,-0.437 0,0" /></g><g
           transform="translate(300.9562,148.9309)"
           id="g60"><path
             id="path62"
             style="fill:#231f20;fill-opacity:1;fill-rule:nonzero;stroke:none"
             d="m 0,0 c -0.781,-3.244 -0.896,-7.465 0.486,-7.923 1.125,-0.36 2.848,1.458 4.162,6.205 C 4.68,0.577 4.837,3.085 5.122,5.675 4.861,5.771 4.6,5.825 4.296,5.88 2.178,6.09 0.703,2.95 0,0" /></g><g
           transform="translate(316.8786,143.1626)"
           id="g64"><path
             id="path66"
             style="fill:#231f20;fill-opacity:1;fill-rule:nonzero;stroke:none"
             d="m 0,0 c -1.532,-4.123 -4.491,-6.979 -7.917,-5.924 -2.187,0.68 -3.107,2.983 -3.357,6.289 -0.805,-2.516 -2.372,-5.552 -5.419,-5.606 -2.197,-0.041 -3.851,1.728 -4.593,4.462 -1.745,-3.095 -4.613,-5.026 -7.014,-4.57 -2.898,0.539 -4.735,4.293 -3.366,9.97 1.22,5.015 0.849,6.564 0.01,6.767 -0.797,0.243 -2.382,-1.352 -4.768,-7.485 -0.809,-7.924 -1.979,-9.046 -5.007,-7.702 0,0 -0.178,0.601 -0.211,2.036 -0.012,0.439 -0.024,0.867 -0.036,1.29 -1.544,-2.593 -3.746,-4.106 -6.266,-3.315 -2.035,0.652 -2.891,2.873 -3.084,6.06 -0.789,-2.427 -2.208,-5.361 -5.085,-5.416 -2.069,-0.044 -3.623,1.699 -4.302,4.387 -1.585,-3.089 -4.11,-5.227 -6.748,-4.377 -2.982,0.982 -3.913,6.204 -1.665,13.459 l -0.349,-0.068 c -0.66,-0.055 -1.244,0.01 -1.752,0.155 -0.604,-2.52 -1.549,-5.266 -2.769,-7.749 -0.078,-0.159 -0.163,-0.291 -0.249,-0.401 -1.45,-3.239 -3.76,-5.554 -6.463,-4.684 -2.834,0.964 -2.795,6.075 -0.635,13.251 l -0.304,-0.028 c -0.569,-0.058 -1.102,0.004 -1.559,0.104 l 0.001,-0.081 c -1.482,-8.411 -6.066,-14.038 -11.879,-12.474 -2.113,0.558 -4.29,2.41 -5.307,5.222 -1.449,-3.168 -3.96,-5.395 -6.157,-4.249 -1.06,0.558 -1.763,2.184 -2.181,4.286 -1.448,-2.948 -3.811,-4.948 -5.89,-3.855 -1.067,0.566 -1.768,2.239 -2.175,4.395 -1.515,-2.707 -4.724,-5.214 -9.06,-4.146 -1.78,0.459 -4.001,2.413 -5.043,5.284 -1.349,-3.191 -3.775,-5.485 -5.862,-4.352 -2.242,1.196 -2.917,7.458 -2.514,12.629 0.154,2.378 0.381,4.6 0.715,6.55 -1.089,-0.001 -1.596,-0.176 -1.596,-0.176 -1.18,1.269 -0.511,3.358 1.81,2.977 l 0.445,-0.052 c 0.318,1.107 0.745,1.942 1.281,2.465 2.518,2.632 4.675,0.019 4.675,0.019 0,0 -0.571,-0.758 -1.188,-2.596 1.444,0.226 2.435,0.815 3.947,1.429 0,0 1.317,-3.073 -0.702,-4.558 -0.921,-0.667 -2.514,-0.455 -4.14,-0.127 -0.378,-1.649 -0.682,-3.568 -0.972,-6.144 -0.436,-3.726 -0.617,-9.853 0.353,-10.289 1.016,-0.504 2.369,1.851 3.215,4.52 -0.091,0.82 -0.086,1.688 0.045,2.599 0.855,5.468 4.393,9.069 8.933,8.011 6.262,-1.521 4.951,-8.425 -3.863,-12.907 0.591,-1.548 1.528,-2.844 2.586,-3.132 3.192,-0.879 5.643,1.749 6.597,4.598 -0.155,1.914 -0.146,3.983 -0.006,5.908 0.446,5.8 1.553,12.333 2.968,14.656 2.291,3.494 5.59,-0.782 5.59,-0.782 0,0 -2.705,-3.325 -4.133,-13.779 -0.528,-3.805 -0.71,-10.383 0.303,-10.828 1.065,-0.504 2.428,1.747 3.315,4.373 -0.164,1.949 -0.156,4.066 -0.011,6.031 0.452,5.845 1.577,12.429 3.014,14.771 2.327,3.521 5.679,-0.789 5.679,-0.789 0,0 -2.749,-3.352 -4.199,-13.887 -0.537,-3.834 -0.722,-10.464 0.308,-10.914 1.086,-0.51 2.478,1.78 3.379,4.442 -0.091,0.898 -0.073,1.861 0.081,2.886 0.869,5.674 4.624,9.38 9.445,8.285 6.614,-1.614 4.65,-8.5 -4.364,-13.122 0.558,-1.792 1.554,-3.248 2.974,-3.522 3.943,-0.85 6.97,5.309 7.674,11.071 -0.001,0.081 0.034,0.201 0.069,0.322 -1.503,1.396 -1.93,3.678 -1.054,5.022 0.11,0.118 0.262,0.112 0.262,0.112 0,0 1.399,-1.753 4.967,-1.641 5.894,0.314 6.098,-0.225 4.943,-3.657 -2.522,-7.443 -3.616,-11.586 -2.462,-11.89 0.835,-0.236 1.816,0.963 2.653,2.662 -0.023,0.034 -0.029,0.064 -0.029,0.064 0.157,0.268 0.307,0.559 0.453,0.868 0.235,0.557 0.454,1.144 0.646,1.739 l 0.038,-0.002 c 0.008,0.002 0.015,0.003 0.022,0.005 0.707,2.01 1.229,4.373 1.495,6.4 -1.42,1.366 -1.778,3.59 -0.881,4.908 0.113,0.118 0.268,0.113 0.268,0.113 0,0 1.432,-1.814 5.042,-1.66 6.07,0.313 6.28,-0.233 5.097,-3.704 -2.58,-7.527 -2.72,-11.768 -1.537,-12.076 1.225,-0.344 3.05,2.273 4.037,5.107 -0.014,0.9 0.047,1.852 0.196,2.84 0.934,6.016 4.987,9.651 9.472,8.114 0.65,-0.232 1.223,-0.63 1.68,-1.191 1.444,2.294 3.72,2.089 5.431,0.261 0,0 -1.513,-3.264 -2.296,-8.147 -0.564,-3.753 -0.402,-7.287 0.823,-7.602 1.219,-0.336 2.736,1.789 3.711,4.492 -0.165,6.925 -0.03,11.277 2.068,12.662 2.72,1.81 5.356,-1.208 5.356,-1.208 0,0 -0.896,-0.688 -1.607,-5.792 2.75,4.859 6.205,6.989 8.356,6.402 1.823,-0.578 2.448,-3.897 1.195,-9.834 -0.834,-3.895 -1.007,-7.347 0.306,-7.713 1.306,-0.347 3.293,1.811 4.392,4.572 -0.039,1.028 0.024,2.125 0.202,3.267 1.003,6.233 5.313,9.994 10.173,8.394 0.218,-0.05 0.48,-0.19 0.743,-0.33 0.582,4.752 1.519,9.151 2.865,11.07 2.701,3.85 6.764,-0.879 6.764,-0.879 0,0 -3.713,-4.521 -5.242,-19.275 -0.388,-3.901 -0.432,-7.553 0.928,-7.884 1.366,-0.376 3.191,2.196 4.217,5.294 L -0.967,1.752 C -0.179,1.979 0.541,1.376 0,0 m -141.219,54.189 9.693,-0.004 0.161,-7.692 c 1.294,0.488 2.629,0.799 3.94,0.79 3.697,-0.027 6.99,-2.678 7.142,-9.844 0.169,-7.961 -4.068,-11.049 -10.091,-10.883 -3.017,0.084 -6.187,0.81 -8.491,1.508 l -0.418,20.117 c -0.041,0.46 -0.233,0.673 -0.765,0.676 l -1.061,0.005 z m 31.758,-7.035 c 6.579,-0.047 8.826,-4.284 8.939,-9.534 l 0.062,-2.864 -9.998,0.191 c 0.137,-1.748 0.659,-2.922 2.852,-2.97 0.933,-0.02 2.267,0.06 2.803,1.621 l 4.201,-0.086 0.133,-6.162 c -0.698,0.678 -1.852,1.575 -3.101,1.606 -1.007,0.025 -1.874,-0.503 -2.577,-1.567 -0.227,-0.369 -0.444,-0.836 -0.652,-1.379 -0.467,-0.033 -0.914,-0.051 -1.334,-0.055 0.11,0.17 0.174,0.252 0.178,0.257 l 0.239,0.297 -0.244,0.317 c -0.072,0.094 -1.783,2.282 -3.723,2.33 -0.991,0.024 -1.845,-0.499 -2.537,-1.555 -0.051,-0.086 -0.103,-0.178 -0.154,-0.273 -2.931,1.628 -4.655,4.717 -4.754,9.334 -0.156,7.392 3.992,10.533 9.667,10.492 m 21.174,-0.597 0.123,-5.609 -1.277,0.016 1.53,-6.855 0.52,-0.01 1.618,6.818 -1.353,0.017 -0.123,5.614 10.208,-0.077 0.126,-5.669 -1.411,0.018 c -0.457,0.006 -0.522,-0.255 -0.617,-0.704 l -6.191,-22.001 -8.962,0.309 -0.061,2.809 3.703,4.625 -3.259,0.089 -4.476,14.873 c -0.072,0.222 -0.243,0.26 -0.48,0.263 l -1.556,0.02 -0.12,5.545 z m 22.329,0.284 c 7,-0.051 11.087,-4.141 11.247,-11.231 0.16,-7.092 -3.746,-11.046 -10.753,-10.852 -6.917,0.192 -10.834,4.169 -10.99,11.232 -0.156,7.061 3.586,10.9 10.496,10.851 m 23.317,-0.632 0.036,-1.589 0.189,-10e-4 c 1.591,1.265 3.956,2.024 6.273,2.008 3.513,-0.026 6.585,-1.694 6.706,-6.91 l 0.204,-8.825 c 0.011,-0.472 0.209,-0.711 0.711,-0.761 l 1.546,-0.034 0.138,-5.937 -11.796,0.321 -0.315,13.77 c -0.021,0.894 -0.294,1.248 -1.088,1.259 -0.454,0.006 -1.238,-0.333 -1.757,-0.713 l 0.192,-8.38 1.586,-0.034 0.133,-5.867 -13.074,0.356 -0.132,5.798 1.256,-0.027 c 0.741,-0.017 0.883,0.288 0.867,0.941 l -0.179,7.924 c -0.015,0.653 -0.17,0.963 -0.91,0.973 l -1.256,0.015 -0.131,5.795 z m 26.533,0.273 c 1.067,-0.007 2.06,-0.213 3.016,-0.419 l -0.049,2.069 -2.295,0.013 -0.141,5.995 12.296,-0.005 0.564,-23.768 c 0.013,-0.562 0.342,-0.81 0.989,-0.825 l 1.378,-0.03 0.145,-6.08 c -0.076,-0.004 -0.154,-0.011 -0.23,-0.017 l 0.158,0.193 -0.291,0.337 c -0.088,0.104 -2.194,2.523 -4.537,2.58 -1.202,0.03 -2.226,-0.548 -3.045,-1.716 -0.245,-0.349 -0.472,-0.775 -0.686,-1.25 -0.984,0.268 -1.874,0.696 -2.608,1.376 -1.644,-0.952 -3.766,-1.569 -6.329,-1.498 -3.53,0.097 -8.124,1.955 -8.346,11.517 -0.195,8.339 4.007,11.572 10.011,11.528 m 21.815,218.238 -16.44,-67.467 -144.889,18.984 7.328,-226.165 160.88,-9.99 z" /></g><g
           transform="translate(251.3008,174.6382)"
           id="g68"><path
             id="path70"
             style="fill:#231f20;fill-opacity:1;fill-rule:nonzero;stroke:none"
             d="M 0,0 C 1.481,-0.032 1.668,1.256 1.601,4.296 1.532,7.337 1.286,8.632 -0.194,8.652 -1.67,8.671 -1.856,7.386 -1.789,4.356 -1.721,1.324 -1.477,0.031 0,0" /></g><g
           transform="translate(208.8357,183.0919)"
           id="g72"><path
             id="path74"
             style="fill:#231f20;fill-opacity:1;fill-rule:nonzero;stroke:none"
             d="m 0,0 c -0.019,0.912 -0.431,1.463 -1.194,1.473 -1.062,0.014 -1.437,-1 -1.421,-1.727 l 2.621,-0.038 z" /></g><g
           transform="translate(302.6465,173.6951)"
           id="g76"><path
             id="path78"
             style="fill:#231f20;fill-opacity:1;fill-rule:nonzero;stroke:none"
             d="M 0,0 C 0.395,-0.008 0.948,0.099 1.494,0.485 L 1.3,8.726 C 0.901,8.85 0.663,8.853 0.306,8.858 -1.71,8.885 -2.055,8.453 -1.956,4.247 -1.88,0.992 -1.227,0.026 0,0" /></g><g
           transform="translate(186.4582,176.4577)"
           id="g80"><path
             id="path82"
             style="fill:#231f20;fill-opacity:1;fill-rule:nonzero;stroke:none"
             d="M 0,0 C 1.627,-0.034 2.025,0.78 1.961,3.816 1.907,6.388 1.7,7.142 0.487,7.159 0.105,7.164 -0.433,7.029 -0.81,6.785 L -0.67,0.086 C -0.414,0.044 -0.191,0.004 0,0" /></g></g></g></g></svg>