<svg width="446" height="795" xmlns="http://www.w3.org/2000/svg" xmlns:xlink="http://www.w3.org/1999/xlink"><defs><path id="a" d="M0 1122.52h793.707V0H0z"/></defs><g fill="none" fill-rule="evenodd"><path d="M42.338 375.392l-42.632 86.61 222.502 3.993 38.754-80.424 5.655 407.29 114.584-43.97 6.215-344.183-125.483-25.93zm353.072 35.979v53.291l26.646-11.988z" fill="#231F20" fill-rule="nonzero"/><g transform="matrix(1 0 0 -1 -174 958.52)"><mask id="b" fill="#fff"><use xlink:href="#a"/></mask><g mask="url(#b)" fill="#231F20" fill-rule="nonzero"><path d="M455.23 857.61c0 28.98 9.189 55.078 23.876 73.43-29.992-8.868-81.078-28.785-108.216-66.784-27.403-38.365-18.654-269.136-18.654-269.136l55.959-2.664s-5.308 177.235 5.33 194.523c11.714 19.047 37.823 14.507 58.958 6.564-10.777 17.405-17.253 39.728-17.253 64.068"/><path d="M540.141 764.106c-35.734 0-64.696 42.309-64.696 94.512 0 52.202 28.962 94.518 64.696 94.518 35.735 0 64.696-42.316 64.696-94.518 0-52.203-28.961-94.512-64.696-94.512m4.55 194.088c-41.594 0-75.31-45.035-75.31-100.583 0-55.555 33.716-100.581 75.31-100.581s75.31 45.026 75.31 100.581c0 55.548-33.716 100.583-75.31 100.583"/><path d="M571.627 831.39c-9.414 0-17.322 6.215-19.714 14.654l19.714 5.3-20.192 3.108c1.531 9.542 9.98 16.85 20.192 16.85 6.622 0 12.5-3.088 16.242-7.849-4.132 14.81-16.95 25.61-32.132 25.61-18.523 0-33.542-16.066-33.542-35.88 0-19.807 15.02-35.88 33.542-35.88 12.976 0 24.224 7.895 29.798 19.434a20.64 20.64 0 00-13.908-5.347m-31.719 114.886c16.55 0 26.396-11.819 26.396-11.819s-9.62 6.302-25.604 6.302c-15.992 0-28.584-9.886-28.584-9.886s9.136 15.403 27.792 15.403m-18.516-174.117s13.005-5.127 19.697-5.127c6.698 0 17.335 3.544 17.335 3.544S550.547 769 541.485 769c-9.06 0-20.093 3.16-20.093 3.16M348.643 200.856c-.969-4.176-1.058-9.609.658-10.196 1.45-.46 3.586 1.992 5.21 8.382.068 1.724.295 3.61.572 5.55.135 1.168.328 2.164.631 3.046-.495.465-1.037.708-1.737.79-2.63.267-4.459-3.776-5.334-7.572m-49.001 10.657c-2 .664-3.964-4.615-4.823-8.27-.268-1.324-.332-2.872-.203-4.321 5.71 4.03 6.78 11.988 5.026 12.59M258.32 213c-1.933.696-3.782-4.48-4.544-8.03-.292-1.596-.208-3.416.155-5.197 5.379 4.019 6.04 12.644 4.388 13.227m142.956-14.425c-1.041-4.326-1.195-9.954.648-10.564 1.5-.48 3.797 1.944 5.55 8.273.042 3.06.251 6.404.631 9.857-.348.128-.696.2-1.101.274-2.824.28-4.79-3.907-5.728-7.84"/><path d="M422.505 190.883c-2.043-5.497-5.988-9.305-10.556-7.898-2.916.906-4.143 3.977-4.476 8.385-1.074-3.355-3.163-7.403-7.226-7.475-2.929-.054-5.134 2.304-6.124 5.95-2.326-4.127-6.15-6.702-9.352-6.094-3.864.72-6.313 5.724-4.488 13.294 1.627 6.686 1.132 8.752.014 9.022-1.063.324-3.176-1.802-6.358-9.98-1.078-10.565-2.638-12.06-6.676-10.269 0 0-.237.801-.28 2.715l-.049 1.72c-2.059-3.458-4.995-5.475-8.355-4.42-2.713.87-3.854 3.83-4.112 8.08-1.052-3.236-2.944-7.148-6.78-7.222-2.758-.058-4.83 2.266-5.736 5.85-2.113-4.119-5.48-6.97-8.997-5.836-3.976 1.31-5.217 8.272-2.22 17.945l-.465-.09a6.499 6.499 0 00-2.336.206c-.806-3.36-2.066-7.021-3.692-10.332a3.03 3.03 0 00-.332-.535c-1.934-4.318-5.014-7.405-8.618-6.245-3.778 1.285-3.726 8.1-.846 17.668l-.406-.037a6.598 6.598 0 00-2.078.138l.001-.108c-1.976-11.214-8.088-18.717-15.839-16.632-2.817.744-5.72 3.214-7.076 6.963-1.932-4.224-5.28-7.193-8.209-5.665-1.413.744-2.35 2.912-2.908 5.714-1.93-3.93-5.081-6.597-7.853-5.14-1.423.755-2.358 2.986-2.9 5.86-2.02-3.609-6.299-6.952-12.08-5.528-2.374.612-5.335 3.218-6.724 7.046-1.799-4.255-5.034-7.314-7.816-5.803-2.99 1.595-3.89 9.944-3.352 16.839.205 3.17.508 6.133.953 8.733-1.452-.001-2.128-.235-2.128-.235-1.573 1.692-.681 4.478 2.413 3.97l.594-.07c.424 1.476.993 2.59 1.708 3.287 3.357 3.51 6.233.025 6.233.025s-.761-1.01-1.584-3.46c1.925.3 3.247 1.086 5.263 1.904 0 0 1.756-4.097-.936-6.077-1.228-.89-3.352-.607-5.52-.17-.504-2.198-.91-4.757-1.296-8.191-.582-4.968-.823-13.138.47-13.719 1.355-.672 3.16 2.468 4.287 6.027a13.67 13.67 0 00.06 3.465c1.14 7.29 5.857 12.092 11.91 10.681 8.35-2.028 6.602-11.233-5.15-17.209.788-2.064 2.037-3.792 3.448-4.176 4.256-1.172 7.524 2.332 8.796 6.13-.207 2.553-.195 5.311-.008 7.878.595 7.733 2.07 16.444 3.957 19.541 3.055 4.66 7.454-1.042 7.454-1.042s-3.607-4.434-5.51-18.372c-.705-5.074-.948-13.844.403-14.438 1.42-.672 3.237 2.33 4.42 5.831-.219 2.599-.208 5.421-.015 8.041.603 7.794 2.103 16.572 4.02 19.695 3.102 4.695 7.571-1.052 7.571-1.052s-3.665-4.47-5.599-18.516c-.716-5.112-.962-13.952.411-14.552 1.448-.68 3.304 2.373 4.505 5.923a15.392 15.392 0 00.108 3.848c1.16 7.565 6.166 12.506 12.594 11.046 8.818-2.152 6.2-11.333-5.819-17.496.744-2.389 2.072-4.33 3.965-4.696 5.258-1.133 9.294 7.08 10.232 14.762 0 .108.046.268.092.43-2.004 1.86-2.573 4.903-1.405 6.695.147.157.35.15.35.15s1.865-2.338 6.622-2.189c7.859.42 8.13-.3 6.59-4.876-3.362-9.924-4.82-15.448-3.282-15.853 1.113-.315 2.421 1.284 3.537 3.55-.03.045-.038.085-.038.085.21.357.41.745.604 1.157.313.743.605 1.525.861 2.319l.05-.003.03.007c.943 2.68 1.639 5.83 1.993 8.533-1.893 1.821-2.37 4.787-1.174 6.544.15.157.357.15.357.15s1.91-2.418 6.723-2.213c8.093.418 8.373-.31 6.796-4.938-3.44-10.036-3.627-15.69-2.05-16.102 1.634-.458 4.067 3.031 5.383 6.81-.019 1.2.063 2.47.261 3.786 1.246 8.022 6.65 12.868 12.63 10.82.866-.31 1.63-.84 2.24-1.589 1.925 3.059 4.96 2.785 7.241.348 0 0-2.017-4.352-3.061-10.863-.752-5.004-.536-9.716 1.097-10.136 1.625-.448 3.648 2.386 4.948 5.99-.22 9.233-.04 15.036 2.757 16.882 3.627 2.414 7.142-1.61 7.142-1.61s-1.195-.918-2.143-7.723c3.667 6.479 8.273 9.319 11.141 8.536 2.431-.77 3.264-5.196 1.594-13.112-1.112-5.193-1.343-9.796.408-10.284 1.741-.463 4.39 2.415 5.856 6.096a22.71 22.71 0 00.27 4.356c1.336 8.31 7.083 13.325 13.563 11.192.29-.067.64-.253.99-.44.777 6.336 2.026 12.201 3.82 14.76 3.602 5.133 9.02-1.172 9.02-1.172s-4.951-6.028-6.99-25.7c-.517-5.201-.576-10.07 1.237-10.512 1.822-.501 4.255 2.928 5.623 7.059l.117-.006c1.051.303 2.011-.5 1.29-2.336zm-188.292 72.252l12.924-.005.214-10.256c1.726.65 3.506 1.065 5.254 1.053 4.93-.036 9.32-3.57 9.522-13.125.226-10.615-5.424-14.732-13.454-14.51-4.023.111-8.25 1.08-11.322 2.01l-.557 26.823c-.055.613-.31.897-1.02.901l-1.415.007-.146 7.102zm42.344-9.38c8.772-.062 11.768-5.712 11.918-12.712l.083-3.818-13.33.254c.182-2.33.878-3.896 3.802-3.96 1.244-.026 3.023.08 3.737 2.162l5.602-.115.177-8.216c-.93.904-2.47 2.1-4.135 2.141-1.342.034-2.498-.67-3.436-2.089-.302-.492-.592-1.115-.869-1.839a29.286 29.286 0 00-1.779-.073c.147.227.232.336.238.343l.318.396-.325.422c-.096.126-2.377 3.043-4.964 3.107-1.321.032-2.46-.665-3.383-2.073a9.872 9.872 0 01-.205-.364c-3.908 2.17-6.207 6.29-6.339 12.445-.208 9.856 5.323 14.044 12.89 13.99zm28.232-.796l.164-7.478-1.703.021 2.04-9.14.693-.013 2.158 9.09-1.804.023-.164 7.485 13.61-.102.168-7.559-1.88.024c-.61.008-.697-.34-.824-.939l-8.254-29.334-11.95.412-.08 3.745 4.936 6.167-4.345.118-5.968 19.831c-.096.296-.324.347-.64.35l-2.075.027-.16 7.394 16.078-.122zm29.772.38c9.333-.069 14.782-5.522 14.996-14.976.213-9.456-4.995-14.728-14.338-14.469-9.222.256-14.445 5.559-14.653 14.976-.208 9.415 4.781 14.533 13.995 14.468zm31.09-.844l.047-2.118.252-.002c2.121 1.687 5.275 2.7 8.364 2.678 4.684-.035 8.78-2.259 8.941-9.214l.272-11.766c.015-.63.28-.948.948-1.015l2.062-.045.184-7.916-15.728.428-.42 18.36c-.028 1.192-.392 1.664-1.45 1.678-.606.008-1.652-.444-2.344-.95l.256-11.174 2.115-.045.177-7.823-17.432.475-.176 7.73 1.675-.035c.988-.023 1.177.384 1.156 1.254l-.239 10.566c-.02.87-.226 1.284-1.213 1.297l-1.675.02-.174 7.727 14.401-.11zm35.376.364c1.423-.009 2.747-.284 4.022-.558l-.066 2.758-3.06.018-.188 7.993 16.395-.007.752-31.69c.017-.75.456-1.08 1.319-1.1l1.837-.04.193-8.107c-.1-.005-.205-.015-.306-.023l.21.258-.388.45c-.117.138-2.925 3.363-6.049 3.44-1.603.04-2.968-.732-4.06-2.289-.327-.465-.63-1.033-.915-1.667-1.312.358-2.498.928-3.477 1.835-2.192-1.27-5.021-2.092-8.439-1.997-4.706.13-10.832 2.606-11.128 15.356-.26 11.118 5.343 15.43 13.348 15.37zm29.087 290.984l-21.92-89.956L215.01 479.2l9.77-301.553 214.507-13.32-9.172 379.517z"/><path d="M335.068 232.85c1.974-.042 2.224 1.676 2.134 5.729-.092 4.055-.42 5.781-2.393 5.808-1.968.025-2.216-1.688-2.127-5.728.091-4.043.416-5.767 2.386-5.808m-56.62 11.272c-.026 1.216-.575 1.95-1.592 1.964-1.416.018-1.916-1.334-1.895-2.303l3.495-.05-.008.389zm125.081-12.53c.526-.01 1.264.132 1.992.647l-.259 10.988c-.532.165-.85.17-1.325.176-2.688.036-3.148-.54-3.016-6.148.101-4.34.972-5.628 2.608-5.663m-154.919 3.684c2.17-.045 2.7 1.04 2.616 5.088-.072 3.43-.348 4.435-1.966 4.457a3.421 3.421 0 01-1.73-.498l.188-8.932c.34-.056.638-.11.893-.115"/></g></g></g></svg>