<?xml version="1.0" encoding="UTF-8"?>
<svg width="446px" height="795px" viewBox="0 0 446 795" version="1.1" xmlns="http://www.w3.org/2000/svg" xmlns:xlink="http://www.w3.org/1999/xlink">
    <!-- Generator: Sketch 54.1 (76490) - https://sketchapp.com -->
    <title>Slice</title>
    <desc>Created with Sketch.</desc>
    <defs>
        <polygon id="path-1" points="0 1122.51997 793.706647 1122.51997 793.706647 0 0 0"></polygon>
    </defs>
    <g id="Page-1" stroke="none" stroke-width="1" fill="none" fill-rule="evenodd">
        <g id="g12" transform="translate(193.671724, 584.725609) scale(-1, 1) rotate(-180.000000) translate(-193.671724, -584.725609) translate(-0.328271, 375.392281)" fill="#231F20" fill-rule="nonzero">
            <polygon id="path14" points="42.6666656 418.666656 0.0346666658 332.055992 222.535994 328.063992 261.29066 408.48799 266.945327 1.19866664 381.529324 45.1679989 387.74399 389.350657 262.261327 415.27999"></polygon>
        </g>
        <g id="g16" transform="translate(408.744119, 438.038013) scale(-1, 1) rotate(-180.000000) translate(-408.744119, -438.038013) translate(395.410786, 411.371347)" fill="#231F20" fill-rule="nonzero">
            <polygon id="path18" points="0 53.333332 0 0.0426666656 26.6453327 12.0306664"></polygon>
        </g>
        <g id="g20" transform="translate(223.500000, 397.020000) scale(-1, 1) rotate(-180.000000) translate(-223.500000, -397.020000) translate(-174.000000, -164.480000)">
            <g id="g22-Clipped">
                <mask id="mask-2" fill="white">
                    <use xlink:href="#path-1"></use>
                </mask>
                <g id="path24"></g>
                <g id="g22" mask="url(#mask-2)">
                    <g transform="translate(213.333328, 163.999996)">
                        <g id="g28" transform="translate(136.562930, 428.277589)">
                            <path d="M105.333331,265.333327 C105.333331,294.311993 114.522664,320.410659 129.20933,338.762658 C99.2173309,329.894658 48.1319988,309.977326 20.9933328,271.97866 C-6.40933317,233.613327 2.33999994,2.8426666 2.33999994,2.8426666 L58.2986652,0.178666662 C58.2986652,0.178666662 52.9906653,177.413329 63.6279984,194.701328 C75.3426648,213.747995 101.451997,209.207995 122.586664,201.265328 C111.809331,218.670661 105.333331,240.993327 105.333331,265.333327" id="path30" fill="#231F20" fill-rule="nonzero"></path>
                        </g>
                        <g id="g32" transform="translate(254.807860, 592.105719)">
                            <path d="M71.9999982,7.9999998 C36.2653324,7.9999998 7.30399982,50.3093321 7.30399982,102.511997 C7.30399982,154.714663 36.2653324,197.030662 71.9999982,197.030662 C107.734664,197.030662 136.695997,154.714663 136.695997,102.511997 C136.695997,50.3093321 107.734664,7.9999998 71.9999982,7.9999998 M76.5506648,202.087995 C34.9559991,202.087995 1.23999997,157.053329 1.23999997,101.505331 C1.23999997,45.9506655 34.9559991,0.923999977 76.5506648,0.923999977 C118.143997,0.923999977 151.859996,45.9506655 151.859996,101.505331 C151.859996,157.053329 118.143997,202.087995 76.5506648,202.087995" id="path34" fill="#231F20" fill-rule="nonzero"></path>
                        </g>
                        <g id="g36" transform="translate(307.627459, 652.723717)">
                            <path d="M50.6666654,14.6666663 C41.251999,14.6666663 33.3439992,20.8813328 30.9519992,29.3199993 L50.6666654,34.6199991 L30.4746659,37.7279991 C32.0053325,47.2706655 40.4546657,54.5786653 50.6666654,54.5786653 C57.2879986,54.5786653 63.1666651,51.4906654 66.9079983,46.7293322 C62.7759984,61.5386651 49.9573321,72.3386649 34.7759991,72.3386649 C16.2533329,72.3386649 1.23466664,56.2733319 1.23466664,36.4599991 C1.23466664,16.6519996 16.2533329,0.578666652 34.7759991,0.578666652 C47.7519988,0.578666652 58.9999985,8.47466645 64.5746651,20.0133328 C60.9253318,16.7039996 56.0439986,14.6666663 50.6666654,14.6666663" id="path38" fill="#231F20" fill-rule="nonzero"></path>
                        </g>
                        <g id="g40" transform="translate(298.574793, 766.275981)">
                            <path d="M27.9999993,15.9999996 C44.5493322,15.9999996 54.3959986,4.18133323 54.3959986,4.18133323 C54.3959986,4.18133323 44.7759989,10.4826664 28.7919993,10.4826664 C12.7999997,10.4826664 0.207999995,0.597333318 0.207999995,0.597333318 C0.207999995,0.597333318 9.34399977,15.9999996 27.9999993,15.9999996" id="path42" fill="#231F20" fill-rule="nonzero"></path>
                        </g>
                        <g id="g44" transform="translate(308.058659, 602.825452)">
                            <path d="M0,5.3333332 C0,5.3333332 13.005333,0.206666661 19.6973328,0.206666661 C26.394666,0.206666661 37.0319991,3.75066657 37.0319991,3.75066657 C37.0319991,3.75066657 29.1546659,2.17333328 20.0933328,2.17333328 C11.0333331,2.17333328 0,5.3333332 0,5.3333332" id="path46" fill="#231F20" fill-rule="nonzero"></path>
                        </g>
                        <g id="g48" transform="translate(133.976797, 26.189733)">
                            <path d="M1.3333333,10.6666664 C0.363999991,6.4906665 0.27466666,1.05733331 1.99066662,0.470666655 C3.44133325,0.0093333331 5.57733319,2.46266661 7.20133315,8.85199978 C7.26933315,10.5759997 7.49599981,12.4626664 7.77333314,14.4026663 C7.9079998,15.5706663 8.10133313,16.5666663 8.40399979,17.4479996 C7.90933314,17.9133329 7.36666648,18.1559995 6.6666665,18.2386662 C4.03733323,18.5053329 2.20799994,14.4626663 1.3333333,10.6666664" id="path50" fill="#231F20" fill-rule="nonzero"></path>
                        </g>
                        <g id="g52" transform="translate(80.975065, 34.179199)">
                            <path d="M5.3333332,13.333333 C3.33333325,13.997333 1.3693333,8.71866645 0.510666654,5.06399987 C0.242666661,3.73999991 0.178666662,2.19199995 0.307999992,0.742666648 C6.01733318,4.77333321 7.08799982,12.7306663 5.3333332,13.333333" id="path54" fill="#231F20" fill-rule="nonzero"></path>
                        </g>
                        <g id="g56" transform="translate(39.652399, 35.666399)">
                            <path d="M5.3333332,13.333333 C3.40133325,14.029333 1.55199996,8.85333311 0.790666647,5.30399987 C0.498666654,3.70799991 0.582666652,1.88799995 0.94533331,0.106666664 C6.32399984,4.12533323 6.98533316,12.7506663 5.3333332,13.333333" id="path58" fill="#231F20" fill-rule="nonzero"></path>
                        </g>
                        <g id="g60" transform="translate(186.608262, 23.907866)">
                            <path d="M1.3333333,10.6666664 C0.291999993,6.34133317 0.138666663,0.713333316 1.98133328,0.102666664 C3.48133325,-0.377333324 5.77866652,2.04666662 7.53066648,8.37599979 C7.57333314,11.4359997 7.78266647,14.7799996 8.16266646,18.2333329 C7.81466647,18.3613329 7.46666648,18.4333329 7.06133316,18.5066662 C4.23733323,18.7866662 2.27066661,14.5999996 1.3333333,10.6666664" id="path62" fill="#231F20" fill-rule="nonzero"></path>
                        </g>
                        <g id="g64" transform="translate(1.171467, 0.216800)">
                            <path d="M207.999995,26.666666 C205.957328,21.1693328 202.011995,17.3613329 197.443995,18.7679995 C194.527995,19.6746662 193.301329,22.7453328 192.967995,27.1533327 C191.894662,23.7986661 189.805329,19.7506662 185.742662,19.6786662 C182.813329,19.6239995 180.607995,21.9826661 179.618662,25.6279994 C177.291996,21.5013328 173.467996,18.9266662 170.266662,19.5346662 C166.402663,20.2533328 163.953329,25.258666 165.778663,32.8279992 C167.405329,39.5146657 166.910662,41.579999 165.791996,41.8506656 C164.729329,42.1746656 162.615996,40.047999 159.434663,31.8706659 C158.355996,21.3053328 156.795996,19.8093328 152.758663,21.6013328 C152.758663,21.6013328 152.52133,22.4026661 152.47733,24.3159994 C152.46133,24.9013327 152.44533,25.4719994 152.42933,26.0359993 C150.370663,22.5786661 147.434663,20.5613328 144.074663,21.6159995 C141.36133,22.4853328 140.219996,25.446666 139.962663,29.6959993 C138.910663,26.4599993 137.018663,22.5479994 133.182663,22.4746661 C130.423997,22.4159994 128.351997,24.7399994 127.446663,28.3239993 C125.33333,24.2053327 121.966664,21.3546661 118.44933,22.4879994 C114.47333,23.7973327 113.231997,30.7599992 116.22933,40.4333323 L115.763997,40.3426657 C114.883997,40.2693323 114.10533,40.355999 113.427997,40.5493323 C112.622664,37.1893324 111.362664,33.5279992 109.735997,30.2173326 C109.631997,30.0053326 109.518664,29.8293326 109.403997,29.6826659 C107.470664,25.3639994 104.390664,22.2773328 100.786664,23.4373327 C97.0079976,24.722666 97.0599976,31.5373325 99.9399975,41.1053323 L99.5346642,41.067999 C98.7759975,40.9906656 98.0653309,41.0733323 97.4559976,41.2066656 L97.4573309,41.0986656 C95.4813309,29.8839993 89.3693311,22.3813328 81.6186646,24.4666661 C78.8013314,25.210666 75.8986648,27.6799993 74.5426648,31.4293325 C72.6106649,27.2053327 69.2626649,24.2359994 66.3333317,25.7639994 C64.9199984,26.5079993 63.9826651,28.6759993 63.4253317,31.4786659 C61.4946651,27.5479993 58.3439985,24.8813327 55.5719986,26.338666 C54.149332,27.0933327 53.2146653,29.3239993 52.6719987,32.1986659 C50.6519987,28.5893326 46.3733322,25.246666 40.591999,26.670666 C38.2186657,27.282666 35.2573325,29.8879993 33.8679992,33.7159992 C32.0693325,29.4613326 28.8346659,26.402666 26.0519993,27.9133326 C23.0626661,29.5079993 22.1626661,37.8573324 22.6999994,44.7519989 C22.9053328,47.9226655 23.2079994,50.8853321 23.6533327,53.485332 C22.2013328,53.4839987 21.5253328,53.2506653 21.5253328,53.2506653 C19.9519995,54.9426653 20.8439995,57.7279986 23.9386661,57.2199986 L24.5319994,57.1506652 C24.9559994,58.6266652 25.5253327,59.7399985 26.2399993,60.4373318 C29.5973326,63.9466651 32.4733325,60.4626652 32.4733325,60.4626652 C32.4733325,60.4626652 31.7119992,59.4519985 30.8893326,57.0013319 C32.8146658,57.3026652 34.1359991,58.0879985 36.1519991,58.9066652 C36.1519991,58.9066652 37.9079991,54.809332 35.2159991,52.829332 C33.9879992,51.9399987 31.8639992,52.2226654 29.6959993,52.6599987 C29.1919993,50.4613321 28.7866659,47.9026655 28.3999993,44.4679989 C27.818666,39.499999 27.5773326,31.3306659 28.8706659,30.7493326 C30.2253326,30.0773326 32.0293325,33.2173325 33.1573325,36.7759991 C33.0359992,37.8693324 33.0426658,39.0266657 33.2173325,40.2413323 C34.3573325,47.5319988 39.0746657,52.333332 45.1279989,50.9226654 C53.477332,48.8946654 51.729332,39.6893323 39.9773323,33.7133325 C40.7653323,31.6493325 42.0146656,29.9213326 43.4253322,29.5373326 C47.6813321,28.3653326 50.9493321,31.8693325 52.221332,35.6679991 C52.0146654,38.219999 52.0266654,40.9786656 52.213332,43.5453322 C52.8079987,51.2786654 54.2839986,59.9893318 56.1706653,63.0866651 C59.2253319,67.7453316 63.6239984,62.0439984 63.6239984,62.0439984 C63.6239984,62.0439984 60.0173318,57.6106652 58.1133319,43.6719989 C57.4093319,38.5986657 57.1666652,29.8279993 58.5173319,29.2346659 C59.9373318,28.562666 61.7546651,31.5639992 62.9373318,35.0653325 C62.7186651,37.6639991 62.7293318,40.4866657 62.9226651,43.1066656 C63.5253317,50.8999987 65.0253317,59.6786652 66.9413317,62.8013318 C70.0439982,67.4959983 74.5133315,61.7493318 74.5133315,61.7493318 C74.5133315,61.7493318 70.8479982,57.2799986 68.9146649,43.2333323 C68.198665,38.1213324 67.9519983,29.2813326 69.3253316,28.6813326 C70.7733316,28.0013326 72.6293315,31.0546659 73.8306648,34.6039991 C73.7093315,35.8013324 73.7333315,37.0853324 73.9386648,38.451999 C75.0973315,46.0173322 80.103998,50.9586654 86.5319978,49.4986654 C95.3506643,47.3466655 92.7319977,38.1653324 80.7133313,32.0026659 C81.4573313,29.6133326 82.7853313,27.6719993 84.6786645,27.306666 C89.9359978,26.1733327 93.9719977,34.3853325 94.9106643,42.0679989 C94.909331,42.1759989 94.9559976,42.3359989 95.0026643,42.4973323 C92.9986643,44.3586656 92.429331,47.4013321 93.597331,49.1933321 C93.7439977,49.3506654 93.9466643,49.3426654 93.9466643,49.3426654 C93.9466643,49.3426654 95.8119976,47.0053322 100.569331,47.1546655 C108.427997,47.5733321 108.699997,46.8546655 107.159997,42.2786656 C103.797331,32.3546659 102.338664,26.830666 103.877331,26.4253327 C104.990664,26.110666 106.298664,27.7093326 107.414664,29.9746659 C107.383997,30.0199992 107.375997,30.0599992 107.375997,30.0599992 C107.585331,30.4173326 107.785331,30.8053326 107.979997,31.2173326 C108.293331,31.9599992 108.585331,32.7426658 108.841331,33.5359992 L108.891997,33.5333325 C108.902664,33.5359992 108.911997,33.5373325 108.921331,33.5399992 C109.863997,36.2199991 110.559997,39.3706657 110.914664,42.0733323 C109.021331,43.8946656 108.543997,46.8599988 109.739997,48.6173321 C109.890664,48.7746654 110.097331,48.7679988 110.097331,48.7679988 C110.097331,48.7679988 112.006664,46.3493322 116.819997,46.5546655 C124.91333,46.9719988 125.19333,46.2439988 123.615997,41.615999 C120.175997,31.5799992 119.98933,25.9253327 121.566664,25.514666 C123.199997,25.0559994 125.63333,28.5453326 126.94933,32.3239992 C126.930663,33.5239992 127.011997,34.7933325 127.210663,36.1106658 C128.455997,44.1319989 133.859997,48.9786654 139.839997,46.9293322 C140.706663,46.6199988 141.470663,46.0893322 142.079996,45.3413322 C144.00533,48.3999988 147.039996,48.1266655 149.32133,45.6893322 C149.32133,45.6893322 147.303996,41.3373323 146.259996,34.8266658 C145.507996,29.8226659 145.723996,25.110666 147.35733,24.690666 C148.982663,24.2426661 151.00533,27.0759993 152.30533,30.6799992 C152.08533,39.9133323 152.26533,45.7159989 155.062663,47.5626655 C158.689329,49.9759988 162.203996,45.9519989 162.203996,45.9519989 C162.203996,45.9519989 161.009329,45.0346655 160.061329,38.2293324 C163.727996,44.7079989 168.334662,47.5479988 171.202662,46.7653322 C173.633329,45.9946655 174.466662,41.5693323 172.795996,33.6533325 C171.683996,28.4599993 171.453329,23.8573327 173.203996,23.3693327 C174.945329,22.9066661 177.594662,25.7839994 179.059996,29.4653326 C179.007996,30.8359992 179.091996,32.2986659 179.329329,33.8213325 C180.666662,42.1319989 186.413329,47.1466655 192.893329,45.0133322 C193.183995,44.9466655 193.533328,44.7599989 193.883995,44.5733322 C194.659995,50.9093321 195.909328,56.7746652 197.703995,59.3333319 C201.305328,64.4666651 206.722661,58.1613319 206.722661,58.1613319 C206.722661,58.1613319 201.771995,52.133332 199.733328,32.4613325 C199.215995,27.2599993 199.157328,22.3906661 200.970662,21.9493328 C202.791995,21.4479995 205.225328,24.8773327 206.593328,29.0079993 L206.710661,29.0026659 C207.761328,29.3053326 208.721328,28.5013326 207.999995,26.666666 L207.999995,26.666666 Z M19.7079995,98.9186642 L32.6319992,98.9133309 L32.8466658,88.6573311 C34.5719991,89.3079978 36.3519991,89.7226644 38.099999,89.7106644 C43.0293323,89.6746644 47.4199988,86.1399978 47.6226655,76.5853314 C47.8479988,65.970665 42.1986656,61.8533318 34.1679991,62.0746651 C30.1453326,62.1866651 25.918666,63.1546651 22.8466661,64.0853317 L22.2893328,90.9079977 C22.2346661,91.521331 21.9786661,91.805331 21.2693328,91.809331 L19.8546662,91.8159977 L19.7079995,98.9186642 Z M62.0519984,89.5386644 C70.8239982,89.4759978 73.8199982,83.8266646 73.9706648,76.8266647 L74.0533315,73.0079982 L60.7226651,73.2626648 C60.9053318,70.9319982 61.6013318,69.3666649 64.5253317,69.3026649 C65.7693317,69.2759983 67.5479983,69.3826649 68.262665,71.4639982 L73.8639982,71.3493315 L74.0413315,63.1333318 C73.1106648,64.0373317 71.5719982,65.2333317 69.9066649,65.274665 C68.5639983,65.3079984 67.4079983,64.6039984 66.470665,63.1853318 C66.1679983,62.6933318 65.878665,62.0706651 65.6013317,61.3466651 C64.978665,61.3026651 64.3826651,61.2786651 63.8226651,61.2733318 C63.9693317,61.4999985 64.0546651,61.6093318 64.0599984,61.6159985 L64.3786651,62.0119984 L64.0533317,62.4346651 C63.9573317,62.5599984 61.6759985,65.4773317 59.0893319,65.5413317 C57.7679986,65.5733317 56.6293319,64.8759984 55.7066653,63.4679984 C55.6386653,63.3533317 55.5693319,63.2306651 55.5013319,63.1039984 C51.593332,65.274665 49.2946654,69.3933316 49.1626654,75.5493314 C48.9546654,85.4053312 54.485332,89.5933311 62.0519984,89.5386644 L62.0519984,89.5386644 Z M90.2839977,88.7426644 L90.4479977,81.263998 L88.7453311,81.2853313 L90.7853311,72.1453315 L91.4786644,72.1319982 L93.6359977,81.2226646 L91.8319977,81.2453313 L91.6679977,88.7306644 L105.278664,88.6279978 L105.446664,81.0693313 L103.565331,81.0933313 C102.955997,81.1013313 102.869331,80.7533313 102.742664,80.1546647 L94.4879976,50.8199987 L82.5386646,51.2319987 L82.4573313,54.977332 L87.3946645,61.1439985 L83.0493313,61.2626651 L77.0813314,81.0933313 C76.9853314,81.3893313 76.7573314,81.439998 76.4413314,81.443998 L74.3666648,81.4706646 L74.2066648,88.8639978 L90.2839977,88.7426644 Z M120.055997,89.1213311 C129.38933,89.0533311 134.838663,83.5999979 135.051997,74.1466648 C135.26533,64.690665 130.05733,59.4186652 120.714664,59.6773318 C111.491997,59.9333318 106.269331,65.2359984 106.061331,74.6533315 C105.853331,84.0679979 110.842664,89.1866644 120.055997,89.1213311 L120.055997,89.1213311 Z M151.14533,88.2786645 L151.19333,86.1599978 L151.44533,86.1586645 C153.566663,87.8453311 156.719996,88.8573311 159.809329,88.8359978 C164.493329,88.8013311 168.589329,86.5773312 168.750662,79.6226647 L169.022662,67.8559983 C169.037329,67.226665 169.301329,66.9079983 169.970662,66.8413317 L172.031996,66.7959983 L172.215996,58.8799985 L156.487996,59.3079985 L156.067996,77.6679981 C156.039996,78.859998 155.675996,79.331998 154.617329,79.3466647 C154.011996,79.3546647 152.966663,78.9026647 152.274663,78.395998 L152.530663,67.222665 L154.645329,67.1773317 L154.822663,59.3546652 L137.390663,59.8293318 L137.214663,67.5599983 L138.88933,67.5239983 C139.87733,67.5013316 140.066663,67.9079983 140.04533,68.7786649 L139.806663,79.343998 C139.786663,80.2146647 139.579997,80.627998 138.59333,80.6413313 L136.918663,80.6613313 L136.743997,88.3879978 L151.14533,88.2786645 Z M186.522662,88.6426645 C187.945329,88.6333311 189.269329,88.3586645 190.543995,88.0839978 L190.478662,90.8426644 L187.418662,90.8599977 L187.230662,98.8533309 L203.625328,98.8466642 L204.377328,67.1559983 C204.394662,66.406665 204.833328,66.0759983 205.695995,66.0559983 L207.533328,66.0159983 L207.726661,57.9093319 C207.625328,57.9039986 207.521328,57.8946652 207.419995,57.8866652 L207.630661,58.1439985 L207.242661,58.5933319 C207.125328,58.7319985 204.317328,61.9573318 201.193328,62.0333318 C199.590662,62.0733318 198.225328,61.3026651 197.133328,59.7453318 C196.806662,59.2799985 196.503995,58.7119985 196.218662,58.0786652 C194.906662,58.4359985 193.719995,59.0066652 192.741329,59.9133318 C190.549329,58.6439985 187.719995,57.8213319 184.302662,57.9159986 C179.595996,58.0453319 173.470662,60.5226652 173.174662,73.2719982 C172.914662,84.3906646 178.517329,88.7013311 186.522662,88.6426645 L186.522662,88.6426645 Z M215.609328,379.626657 L193.689328,289.670659 L0.503999987,314.982659 L10.2746664,13.429333 L224.781328,0.109333331 L215.609328,379.626657 Z" id="path66" fill="#231F20" fill-rule="nonzero"></path>
                        </g>
                        <g id="g68" transform="translate(119.067730, 67.517598)">
                            <path d="M2.6666666,1.3333333 C4.64133322,1.29066663 4.89066654,3.00799992 4.80133321,7.06133316 C4.70933322,11.1159997 4.38133322,12.8426663 2.40799994,12.869333 C0.439999989,12.8946663 0.191999995,11.1813331 0.281333326,7.14133315 C0.371999991,3.09866659 0.697333316,1.37466663 2.6666666,1.3333333" id="path70" fill="#231F20" fill-rule="nonzero"></path>
                        </g>
                        <g id="g72" transform="translate(61.114265, 78.789198)">
                            <path d="M3.9999999,1.3333333 C3.97466657,2.54933327 3.42533325,3.28399992 2.40799994,3.29733325 C0.991999975,3.31599992 0.491999988,1.96399995 0.51333332,0.994666642 L4.0079999,0.943999976 L3.9999999,1.3333333 Z" id="path74" fill="#231F20" fill-rule="nonzero"></path>
                        </g>
                        <g id="g76" transform="translate(187.528662, 67.593465)">
                            <path d="M2.6666666,0 C3.19333325,-0.0106666664 3.93066657,0.131999997 4.65866655,0.64666665 L4.39999989,11.6346664 C3.8679999,11.7999997 3.55066658,11.8039997 3.07466659,11.8106664 C0.386666657,11.8466664 -0.0733333315,11.2706664 0.0586666652,5.66266653 C0.159999996,1.32266663 1.03066664,0.0346666658 2.6666666,0" id="path78" fill="#231F20" fill-rule="nonzero"></path>
                        </g>
                        <g id="g80" transform="translate(33.944266, 69.943598)">
                            <path d="M1.3333333,1.3333333 C3.50266658,1.28799997 4.03333323,2.37333327 3.9479999,6.42133317 C3.8759999,9.85066642 3.59999991,10.8559997 1.98266662,10.8786664 C1.4733333,10.8853331 0.755999981,10.7053331 0.253333327,10.3799997 L0.439999989,1.44799996 C0.781333314,1.39199997 1.07866664,1.33866663 1.3333333,1.3333333" id="path82" fill="#231F20" fill-rule="nonzero"></path>
                        </g>
                    </g>
                </g>
            </g>
        </g>
    </g>
</svg>