<?xml version="1.0" encoding="UTF-8"?>
<svg width="222px" height="135px" viewBox="0 0 222 135" version="1.1" xmlns="http://www.w3.org/2000/svg" xmlns:xlink="http://www.w3.org/1999/xlink">
    <!-- Generator: Sketch 54.1 (76490) - https://sketchapp.com -->
    <title>Untitled</title>
    <desc>Created with Sketch.</desc>
    <g id="Page-1" stroke="none" stroke-width="1" fill="none" fill-rule="evenodd">
        <g id="uberspace" fill-rule="nonzero">
            <path d="M221.3,26.7 C221.2,25.9 220.9,25.1 220.7,24.4 C220.7,24.3 220.6,24.2 220.6,24 C220.2,23 219.9,22.2 219.5,21.5 C219,20.5 218.4,19.6 217.6,18.4 C217.6,18.3 217.5,18.3 217.5,18.2 C215.9,16 214.1,15.1 212.8,14.6 C212,14.4 211.1,14.2 210.3,14.2 C208.9,14.2 207.4,14.6 205.9,15.2 L205.5,15.3 C205.5,15.3 205.4,15.3 205.4,15.4 C202.6,16.6 199.9,17.8 197.2,19.2 C194.6,20.5 191.9,22 189.4,23.4 C186.9,24.8 184.5,26.3 182.2,27.7 C179.9,29.1 177.8,30.5 175.8,31.7 C175.2,32.1 174.6,32.7 174.2,33.4 L173.4,34.8 C173,35.4 172.8,36.1 172.8,36.7 L167.9,90.1 C167.9,90.2 167.9,90.3 167.9,90.3 C167.9,91.4 167.9,92.5 168.1,93.5 C168.5,95.5 169.1,97.2 170.1,98.5 C171.1,99.7 172.3,100.8 173.6,101.6 C173.7,101.7 173.8,101.7 174.1,101.8 C174.9,102.3 175.7,102.8 176.4,103.2 C177.5,103.8 178.6,104.3 179.5,104.6 C180.8,105.1 182.1,105.3 183.5,105.3 C183.6,105.3 183.7,105.3 183.7,105.3 C185.1,105.3 186.6,104.9 188.3,104.3 C189.4,103.9 190.6,103.3 191.9,102.5 C192.1,102.4 192.3,102.3 192.5,102.1 C195.5,100.3 198.6,98.4 201.9,96.3 C205.1,94.4 208.3,92.3 211.3,90.5 C213.2,89.3 214.5,88.2 215.4,87 C216.2,85.8 217.2,83.8 216.7,80.8 C216.3,79 215.7,77.2 214.8,75.5 C214,74.1 213,72.7 212,71.5 L211.9,71.4 C210.7,69.7 209.3,68.9 208.1,68.5 C209.4,67.8 210.6,67.1 211.7,66.3 C213,65.3 214.1,64.3 214.8,63.1 C216,61.3 216.4,59.4 216.1,57.3 C216,56.7 215.7,56 215.5,55.3 C215.4,55.1 215.4,54.8 215.3,54.6 C214.9,53.6 214.5,52.8 214.1,51.8 C213.5,50.5 212.7,49.2 211.6,48 C211.5,47.9 211.4,47.8 211.4,47.6 C209.6,45.6 207.6,44.8 206.2,44.7 C205.8,44.7 205.5,44.6 205.1,44.6 C203.9,44.6 202.7,44.8 201.4,45.2 C201.5,44.8 201.5,44.4 201.6,44 C203.8,42.8 205.9,41.7 208,40.8 C210.6,39.5 213.2,38.2 215.7,37 L215.8,37 C218.2,35.8 219.8,34.5 220.7,33 C221.3,31.4 221.8,29.2 221.3,26.7 Z" id="Path" fill="#E2001A"></path>
            <path d="M175.3,44.6 C174.9,42.2 174.3,39.9 173.3,38.1 C172,35.7 169.8,33.9 166.8,32.7 C165.6,32.2 164.4,31.9 163,31.6 C161.7,31.4 160.4,31.2 158.9,31.2 C158.7,31.2 158.5,31.2 158.3,31.2 C157.1,31.2 155.8,31.3 154.6,31.4 C153.3,31.5 152.1,31.8 150.9,32 C150.4,32.1 149.8,32.2 149.3,32.4 L148.6,32.6 C145.2,33.8 142,35.8 139.2,38.7 C136.7,41.3 134.3,44.5 132.4,48.1 C130.5,51.6 128.8,55.3 127.4,59.4 C126,63.4 124.9,67.4 123.9,71.5 C123.1,75.6 122.5,79.5 122.2,83.3 C122,87.1 122,90.7 122.4,93.7 C122.6,95.7 123,97.7 123.6,99.5 C124.2,101.4 124.9,103.2 125.9,104.7 C126,104.8 126.1,105.1 126.3,105.2 C126.8,106 127.4,106.8 128.1,107.5 C128.9,108.5 130,109.2 131.1,109.9 C132.2,110.6 133.4,111.1 134.6,111.5 C135.7,111.9 136.8,112 137.8,112 L137.8,112 L137.9,112 C139.1,112 140.4,112.1 141.9,112.1 L142.7,112.1 C144.6,112.1 146.8,111.9 148.9,111.4 C149.4,111.3 150,111.2 150.5,111 L150.6,111 L151.4,110.8 C156.6,109 160.9,106 164.2,101.9 C167.4,97.9 169.7,93.5 171.3,88.5 L171.3,88.5 C171.5,87.5 171.8,86.6 172,85.6 C172.4,84.3 172.4,83 172.2,81.8 C172,79.6 170.9,77.8 169.3,76.5 C167.9,75.3 166.1,74.8 163.8,74.8 C163.7,74.8 163.6,74.8 163.4,74.8 C162.4,74.8 161.5,74.9 160.6,75 C159.6,75.1 158.8,75.4 157.8,75.7 C154,77 150.7,79.7 148.2,83.6 C148.2,83.2 148.2,82.9 148.2,82.5 C148.3,79.9 148.7,77.2 149.2,74.6 C149.7,72.6 150.2,70.3 151,67.8 C151.5,66.1 152,64.6 152.6,63.1 C153.4,64.5 154.5,65.6 155.8,66.6 C157.1,67.6 158.8,68.2 160.6,68.4 C161.3,68.5 162.2,68.5 162.9,68.5 C163.7,68.5 164.7,68.4 165.8,68.3 C166.5,68.3 167.1,68.1 167.8,67.9 L168.2,67.8 L168.7,67.7 C171,66.9 172.7,65.8 173.5,64.1 C174,63.3 173.1,62.3 173.5,61.1 C173.6,60.9 173.7,60.5 173.7,60.3 C173.9,59.2 174.2,57.9 174.3,56.6 C174.4,55.3 174.5,54 174.5,52.8 C174.5,51.5 174.5,50.2 174.5,48.8 C174.4,47 175.4,45.6 175.3,44.6 Z" id="Path" fill="#E2001A"></path>
            <path d="M50.3,72.4 C49.8,70.1 48.6,68.1 46.8,66.4 C45.7,65.4 44.5,64.5 43.1,63.8 C41.8,63.1 40.3,62.5 38.9,62.1 C37.5,61.7 36,61.4 34.7,61.3 C34.2,61.3 33.6,61.2 33.1,61.2 C32.1,61.2 31.2,61.3 30.2,61.4 C28.4,61.8 26.7,62.4 25.2,63.2 C23.8,64 22.6,65 21.5,66 C20.2,67.2 18.7,68.6 17.3,70.2 C15.9,71.9 14.4,73.7 13.1,75.6 C11.8,77.5 10.6,79.4 9.6,81.5 C8.5,83.5 7.7,85.6 7.2,87.4 C7.2,87.5 7.2,87.6 7.1,87.6 C6.1,90.5 5.5,93.2 5.5,95.8 C5.5,98.4 5.9,100.8 6.7,102.9 C7.4,104.7 8.4,106.3 9.5,107.7 C9.3,107.7 9.1,107.8 8.9,107.8 C6.7,108.3 4.7,109.1 2.9,110.4 L2.8,110.5 L2.7,110.6 L2.6,110.7 C0.4,112.5 0.4,114.9 0.3,117.5 C0.3,117.6 0.3,117.7 0.3,117.7 L0.3,117.8 C0.3,120.2 0.2,122.7 2.6,125.2 C5.7,128.9 9.1,131.4 12.6,132.8 C14.9,133.6 17.2,134.1 19.6,134.1 C21,134.1 22.5,134 23.9,133.6 L24.6,133.5 C24.6,133.5 24.6,133.5 24.7,133.5 C27.7,132.9 30.3,131.8 32.5,130.4 C34.7,129.1 36.5,127.6 38,126 C39.6,124.4 40.8,122.6 41.7,121 C42.4,119.7 43.1,118.4 43.6,117 C43.7,116.9 43.7,116.8 43.7,116.6 C44.5,114.7 44.9,112.8 44.9,111 C44.9,108 44.1,105.5 42.4,103.3 C42,102.8 41.6,102.3 41.1,101.7 C42.2,101.2 43,100.6 43.7,99.7 C44.3,99 45,98 45.6,96.8 C45.6,96.7 45.7,96.6 45.7,96.4 C46.2,95.2 46.8,93.9 47.3,92.2 C47.8,90.8 48.3,89.2 48.6,87.6 C49.1,86 49.4,84.5 49.7,82.9 C50.1,81.5 50.3,80 50.4,78.9 C50.4,78.7 50.4,78.4 50.4,78.2 L50.4,76.6 C50.9,75.6 50.7,74.1 50.3,72.4 Z" id="Path" fill="#E2001A"></path>
            <path d="M91,67.1 C90.5,65.5 90,64 89.3,62.7 C88.6,61.4 87.9,60.2 87,59 C86.3,57.9 85.4,57.1 84.7,56.2 C84.7,56.2 84.7,56.1 84.6,56.1 C82.9,54.3 80.9,53.2 78.5,52.9 C77.7,52.8 76.8,52.7 76,52.7 C74.8,52.7 73.6,52.8 72.3,53.1 C70.3,53.5 68.2,54.2 66.1,55.1 C64.2,55.9 62.1,57 60.1,58.1 C58.2,59.3 56.3,60.5 54.5,61.7 C52.7,62.9 51,64.1 49.5,65.3 C49.5,65.3 49.4,65.3 49.4,65.4 C48,66.5 47.1,68.3 46.2,71.6 C45.6,73.9 44.9,76.6 44.3,79.8 C43.7,83 43,86.4 42.4,90 C41.7,93.6 41.1,97.1 40.5,100.4 C39.9,103.6 39.3,106.6 38.7,109.3 C38,112.4 37.5,113.7 37.3,114.2 C37.2,114.4 37.2,114.6 37.1,114.8 C36.6,116.4 36.4,117.6 36.4,118.8 C36.4,121 36.9,122.8 38,124.2 C39,125.5 40.2,126.5 41.6,127.2 C42.7,127.7 43.9,128.2 45.3,128.4 L45.9,128.5 L48.1,128.9 C48.3,128.9 48.5,128.9 48.7,129 C48.9,129 49.2,129 49.3,129 C50,129 50.7,128.9 51.5,128.8 C54,128.3 55.5,127 56.2,126 C56.9,125 57.5,124 58,122.6 C58.1,122.4 58.1,122.1 58.2,121.9 C58.8,119.4 59.4,116.7 60,114.2 C60.5,112.2 61,110.1 61.6,108.1 C63.4,107 65.3,105.9 67.1,104.7 C69.5,103.1 71.9,101.3 74.2,99.5 C76.5,97.7 78.6,95.8 80.7,93.9 C82.7,91.9 84.5,89.9 86,87.9 C86,87.9 86,87.9 86.1,87.8 C87.7,85.6 89,83.5 90.2,81.2 C91.6,78.6 92.4,75.6 92.4,72.6 C91.7,70.7 91.5,68.8 91,67.1 Z" id="Path" fill="#E2001A"></path>
            <path d="M128.4,89.7 C128.3,84.9 128.3,80.1 128.2,75.4 C128.2,70.7 128.2,66.3 128.2,62.2 C128.2,58.2 128.3,54.8 128.6,51.9 C128.6,51.4 128.7,50.9 128.6,50.5 L128.6,50.3 L128.6,49.8 C128.5,47.5 127.8,45.7 126.7,44.3 C125.4,42.6 123.3,41.7 120.7,41.4 C120.6,41.4 120.5,41.4 120.3,41.4 L119.3,41.4 C117.9,41.3 116.3,41.2 114.5,41.2 C114.3,41.2 113.9,41.2 113.7,41.2 C111.3,41.2 108.4,41.7 105.1,42.6 C102.5,43.3 100.3,44.5 98.7,46.3 C97.5,47.7 96.4,49.3 95.5,51.1 C93.7,54.8 91.8,59.3 89.7,64.2 C87.6,69.1 85.6,74.2 83.6,79.3 C81.6,84.5 79.6,89.6 77.8,94.5 C76,99.4 74.4,104 73.1,107.8 L73.1,107.9 C72.7,109 72.5,110.1 72.4,110.9 C72.3,111.7 72.3,112.6 72.3,113.4 C72.4,115.1 73,116.6 74,118 C74.7,119 75.7,119.7 76.8,120.4 C77.6,120.9 78.6,121.4 79.7,121.7 C80.5,121.9 81.3,122.2 82.1,122.4 L82.9,122.6 C83,122.6 83.1,122.6 83.3,122.7 C83.9,122.8 84.5,122.8 85.1,122.8 C85.9,122.8 86.8,122.7 87.6,122.4 C88.9,122 91,121.1 92.5,118.4 C93.2,117.2 93.9,115.8 94.5,114.1 C95.1,112.7 95.7,111 96.3,109.2 C96.7,108.2 96.9,107.4 97.3,106.4 C99,105.6 100.8,104.7 102.7,103.8 C103.4,103.4 104.3,103.1 105,102.7 C105.1,103.5 105.1,104.4 105.2,105.2 C105.4,108 106.2,110 107.5,111.4 C108.9,113 111,113.9 113.6,114 C113.7,114 113.8,114 113.8,114 C114.4,114.1 114.9,114.1 115.5,114.1 C116.3,114.1 117.2,114 117.9,113.9 C119.1,113.7 120.3,113.4 121.6,113.1 C124.4,112.4 126.2,111.2 127.4,109.6 C128.5,108 129,106 128.8,103.5 C128.6,99 128.5,94.5 128.4,89.7 Z" id="Path" fill="#E2001A"></path>
            <path d="M177.6,36 C179.5,34.8 181.6,33.5 183.8,32 C186,30.5 188.5,29.2 190.9,27.8 C193.4,26.4 195.9,25 198.6,23.7 C201.3,22.4 203.8,21.2 206.4,20 L206.8,19.9 C208.4,19.3 209.7,19.2 210.6,19.4 C211.6,19.8 212.4,20.4 213,21.4 L213,21.3 C213.7,22.3 214.2,23 214.4,23.7 C214.8,24.3 215,25 215.4,25.9 L215.3,25.9 C215.7,26.5 215.8,27.1 215.9,27.7 C216.1,29 216,30.1 215.4,30.8 C214.9,31.5 213.8,32.4 212.3,33.2 C209.8,34.4 207.1,35.7 204.5,37 C201.9,38.3 199,40 196,41.6 C195.6,43.4 195.3,45.4 195,47.5 C194.6,49.7 194.3,51.7 193.9,53.9 C195.9,52.8 198.1,51.9 200.3,51 L200.8,50.8 C202.2,50.2 203.4,50.1 204.3,50.2 C205.3,50.3 206,50.9 206.8,51.9 L206.8,51.8 C207.5,52.6 208.1,53.6 208.6,54.4 C209,55.4 209.4,56.2 209.8,57.2 L209.7,57.2 C210.1,57.8 210.2,58.4 210.3,58.9 C210.4,59.7 210.3,60.5 209.8,61.2 C209.3,61.9 208.6,62.6 207.8,63.2 C207,63.8 205.9,64.5 204.7,65.1 C203.5,65.7 202.3,66.4 201.1,67 L201.2,67 C199.4,68.1 197.6,69.2 195.9,70.1 C194.2,71 192.4,72.1 190.9,73.1 C190.7,74.2 190.4,75.4 190.2,76.7 C190,78 190,79.1 190,80.1 C191.8,79 193.7,77.9 195.6,77 C197.5,75.9 199.7,75 201.8,74.1 C203.1,73.6 204.2,73.4 205.2,73.6 C206,73.8 206.9,74.4 207.5,75.4 L207.5,75.3 C208.3,76.3 209.1,77.3 209.8,78.5 C210.5,79.7 211,81 211.1,82.2 C211.3,83.3 211.1,84.2 210.6,84.8 C210.1,85.4 209.2,86.2 207.8,87.1 C204.8,89 201.6,90.9 198.4,92.9 C195.2,94.8 192,96.7 189,98.7 L189.1,98.6 C187.8,99.4 186.7,100 185.7,100.4 C184.6,100.8 183.7,101 182.8,101 C182,101 181.1,100.9 180.3,100.6 C179.5,100.4 178.7,99.9 177.9,99.4 C177.1,98.9 176.1,98.3 175.1,97.7 L175.1,97.8 C174.3,97.3 173.7,96.7 173.1,96 C172.6,95.3 172.1,94.3 172,93 C171.9,92.3 171.9,91.6 171.9,90.7 L176.8,37.3 L177.6,36 Z" id="Path" fill="#FFFFFF"></path>
            <path d="M5.3,114.9 C6.6,113.9 8.1,113.3 9.5,113.1 C10.5,112.9 11.4,112.9 12.3,113 C13.1,113.1 13.9,113.4 14.6,113.8 C16.5,115 18.3,116 19.9,116.4 C21.5,116.8 22.9,117 24,116.8 C24.8,116.7 25.6,116.3 26,115.7 C25.9,115.2 25.4,114.6 24.3,113.8 C23.2,113 22,112.1 20.6,111.2 C19.3,110.4 18,109.4 16.6,108.6 C15.2,107.8 14.2,106.7 13.1,105.6 C12.1,104.5 11.3,103.2 10.7,101.6 C10.1,100 9.9,98.4 9.9,96.3 C9.9,94.1 10.4,91.7 11.3,89.1 L11.3,89.2 C11.8,87.6 12.5,86 13.5,84.2 C14.5,82.4 15.5,80.6 16.7,78.9 C17.9,77.2 19.2,75.5 20.5,74 C21.8,72.5 23.3,71.1 24.6,69.9 L24.5,70 C25.2,69.3 26.1,68.6 27.1,68 C28.2,67.4 29.4,66.9 30.7,66.7 C31.5,66.6 32.6,66.5 33.7,66.6 C34.8,66.7 35.9,67 37.1,67.2 C38.2,67.6 39.3,67.9 40.3,68.5 C41.3,69.1 42.2,69.7 42.9,70.4 C44,71.5 44.7,72.7 45.1,74 C45.3,75.3 45.5,76.5 45.5,77.7 L45.5,79.3 C45.4,80.4 45.1,81.6 44.8,83 C44.6,84.4 44.2,85.9 43.7,87.4 C43.3,88.8 42.9,90.4 42.4,91.8 C41.9,93.2 41.4,94.4 41,95.5 C40.6,96.3 40.2,96.9 39.8,97.4 C39.4,97.9 38.8,98.2 38.2,98.4 C37.7,98.5 37.1,98.5 36.4,98.3 L36.4,98.3 C31.7,97.2 29.4,94.9 29.6,91.3 C29.6,90.8 29.7,90.2 30,89.3 C30.3,88.4 30.5,87.4 30.7,86.3 C30.9,85.2 31.2,84.1 31.5,83.1 C31.7,82 32,81.1 32,80.3 L31.9,80.4 L31.9,80.5 C31.2,81 30.5,81.8 29.6,82.8 C28.7,83.8 28,85 27.2,86.2 C26.5,87.4 25.9,88.7 25.3,90 C24.8,91.3 24.6,92.6 24.6,93.8 C24.6,95.1 25,96.2 25.6,96.9 L25.6,96.8 C26.9,98.1 28.4,99.4 30,100.4 C31.7,101.5 33.2,102.4 34.7,103.5 C36.2,104.6 37.3,105.7 38.4,107 C39.4,108.2 39.8,109.8 39.8,111.6 C39.8,112.8 39.4,114.1 39,115.6 L39,115.5 C38.5,116.7 37.9,118 37.1,119.3 C36.4,120.7 35.3,122.1 34,123.4 C32.7,124.7 31.2,125.9 29.4,127.1 C27.6,128.2 25.6,129 23,129.6 L22.3,129.7 C19.3,130.3 16.3,130.1 13.7,129.1 C10.9,128 8.3,126 5.7,122.9 C4.1,121.2 3.4,119.9 3.4,118.7 L3.4,118.6 C3.4,117 4,115.9 5.3,114.9 L5.3,114.9 Z" id="Path" fill="#FFFFFF"></path>
            <path d="M76.1,90.9 C74.3,92.7 72.3,94.5 70.1,96.2 C67.9,97.9 65.7,99.6 63.4,101.1 C61,102.7 58.7,104.1 56.4,105.3 C55.7,108.1 55.1,110.7 54.4,113.5 C53.7,116.1 53.1,118.8 52.5,121.4 C52.1,122.4 51.8,123.1 51.4,123.6 C51,124.1 50.4,124.4 49.6,124.6 C49.1,124.7 48.6,124.7 48,124.7 C47,124.6 46.2,124.3 45.2,124.2 C44.2,124.1 43.5,123.8 42.8,123.5 C42.1,123.2 41.5,122.7 41.1,122.1 C40.6,121.5 40.5,120.7 40.5,119.6 C40.5,119 40.6,118 41,117 C41.5,115.8 42.1,113.9 42.7,111.2 C43.3,108.5 43.9,105.6 44.5,102.1 C45.1,98.7 45.8,95.3 46.4,91.5 C47.1,87.9 47.7,84.5 48.3,81.4 C48.9,78.3 49.5,75.6 50.2,73.5 C50.8,71.3 51.4,70 51.9,69.7 C53.3,68.6 55,67.4 56.7,66.2 C58.4,65 60.2,63.9 62.1,62.8 C63.9,61.7 65.8,60.8 67.6,60 C69.4,59.2 71.2,58.7 72.8,58.3 C74.5,57.9 75.9,57.9 77.2,58.2 C78.5,58.5 79.7,59 80.7,60.1 C81.3,60.8 81.9,61.5 82.6,62.4 C83.3,63.3 83.9,64.3 84.4,65.4 C85,66.5 85.4,67.7 85.7,69 C86,70.3 86.2,71.8 86.2,73.2 C86.2,75.5 85.6,77.6 84.6,79.7 C83.5,81.7 82.3,83.7 80.9,85.7 C79.6,87.2 78,88.9 76.1,90.9 Z M62.9,81.6 C62.3,83.8 61.6,85.9 61,88.3 C63,87 64.8,85.5 66.5,84.1 C68.1,82.7 69.4,81.2 70.5,79.8 C71.6,78.5 72.4,77.2 73,76 C73.6,74.8 73.8,73.8 73.8,73 C73.8,72.9 73.8,72.8 73.9,72.6 C73.9,72.5 73.9,72.4 73.8,72.2 C73.7,72 73.4,72.1 73.2,72.1 C73,72.1 72.4,72.2 71.6,72.3 C70.6,72.5 69.6,72.9 68.4,73.4 C67.2,73.9 66,74.6 64.7,75.4 C64.1,77.6 63.5,79.6 62.9,81.6 Z" id="Shape" fill="#FFFFFF"></path>
            <path d="M108.6,97.3 L108.4,96 C105.5,97.2 102.8,98.5 100,99.7 C97.2,100.9 94.8,102.1 92.7,103.3 C92.1,104.7 91.5,106.3 91,108 C90.5,109.7 89.9,111.1 89.3,112.6 C88.7,114 88.1,115.2 87.5,116.2 C86.9,117.2 86.2,117.8 85.5,118 C84.8,118.2 84.1,118.2 83.2,118.1 L82.4,117.9 C81.7,117.8 81,117.5 80.2,117.3 C79.4,117.1 78.9,116.8 78.3,116.5 C77.7,116.1 77.2,115.8 76.9,115.3 C76.5,114.8 76.3,114.2 76.3,113.5 C76.3,113 76.3,112.4 76.4,111.8 C76.5,111.2 76.6,110.5 76.9,109.6 C78.1,105.8 79.7,101.4 81.5,96.5 C83.3,91.6 85.2,86.5 87.3,81.4 C89.4,76.3 91.4,71.2 93.4,66.4 C95.4,61.5 97.4,57.3 99,53.6 C99.6,52.3 100.4,51 101.4,50 C102.4,48.9 103.7,48.2 105.5,47.7 C108.5,46.9 110.9,46.5 112.9,46.5 C114.9,46.5 116.6,46.5 118.2,46.6 L119.4,46.6 C120.7,46.7 121.7,47.1 122.2,47.7 C122.7,48.3 123,49.3 123,50.3 C123,50.5 123,50.8 123,51 C123,51.2 123,51.5 123,51.7 L123,51.6 C122.9,54.7 122.8,58.3 122.6,62.5 C122.6,66.7 122.6,71.1 122.6,75.8 C122.6,80.5 122.7,85.3 122.8,90.1 C122.9,94.9 123,99.6 123.2,103.9 C123.3,105.3 123.1,106.4 122.6,107.1 C122.1,107.8 121,108.3 119.5,108.8 C118.3,109.2 117.2,109.4 116.1,109.5 C115,109.7 113.9,109.7 112.9,109.5 L113,109.5 C111.7,109.4 110.7,109 110.2,108.4 C109.7,107.8 109.4,106.6 109.1,104.8 C109,102.9 108.9,100.2 108.6,97.3 Z M104.1,75 C102.8,78.1 101.5,81.2 100.1,84.6 C101.4,84 102.7,83.5 103.9,83 C105.2,82.5 106.4,82 107.7,81.6 C107.7,79 107.7,76.4 107.7,73.8 C107.7,71.3 107.7,68.8 107.7,66.2 C106.7,69 105.4,71.9 104.1,75 Z" id="Shape" fill="#FFFFFF"></path>
            <path d="M165.7,80.1 C166.3,80.6 166.7,81.3 166.8,82.1 C166.9,82.7 166.8,83.4 166.7,84.3 C166.5,85.1 166.3,86 166,86.8 C164.7,91.2 162.5,95.2 159.8,98.7 C157,102.2 153.4,104.6 149.1,106.1 C148.7,106.2 148.4,106.3 148.1,106.5 C147.8,106.7 147.6,106.6 147.4,106.7 L147.5,106.7 C145.5,107.2 143.5,107.4 141.9,107.4 C140.3,107.4 138.7,107.4 137.3,107.4 L137.4,107.4 C136.7,107.4 136,107.4 135.2,107.2 C134.4,107 133.6,106.6 132.9,106.1 C132.2,105.6 131.5,105.1 130.9,104.4 C130.3,103.8 129.8,103.1 129.5,102.4 L129.5,102.5 C128.8,101.4 128.2,100 127.7,98.5 C127.2,96.9 126.9,95.3 126.6,93.6 C126.2,90.8 126.2,87.6 126.5,84.1 C126.7,80.5 127.3,76.8 128.1,72.9 C128.9,69.1 130,65.2 131.3,61.5 C132.6,57.7 134.2,54.2 136.1,50.9 C137.9,47.7 139.9,44.9 142.2,42.5 C144.5,40.1 147,38.5 149.6,37.6 C149.8,37.5 150.1,37.5 150.3,37.4 C150.5,37.3 150.8,37.3 151,37.2 L151,37.2 C152.2,37 153.4,36.7 154.6,36.6 C155.8,36.5 157.1,36.4 158.2,36.4 C159.4,36.4 160.5,36.5 161.6,36.6 C162.7,36.7 163.6,37.1 164.4,37.3 C166.4,38.1 167.8,39.2 168.6,40.5 C169.3,41.8 169.8,43.5 170,45.3 C170.1,46.3 170.2,47.3 170.2,48.5 C170.2,49.7 170.3,50.9 170.2,52.1 C170.2,53.3 170.1,54.5 170,55.6 C169.9,56.8 169.8,57.8 169.5,58.7 C169.4,58.8 169.4,58.9 169.4,59.1 C169.3,59.9 168.9,60.7 168.7,61.3 C168.3,61.9 167.6,62.4 166.4,62.7 C166.2,62.8 165.9,62.8 165.7,62.9 C165.5,63 165.1,63 164.9,63 C163.3,63.2 162,63.2 160.9,63.1 C159.8,63 158.9,62.6 158.1,62 C157.4,61.5 156.7,60.8 156.2,60 C155.7,59.2 155.4,58.1 155,56.9 C154.9,56.1 154.8,55.1 154.8,54.3 C154.8,53.3 154.7,52.6 154.6,51.9 C154.5,51.4 154.5,50.9 154.2,50.6 C154.1,50.2 153.8,50 153.6,49.9 C152.9,50.1 152.2,51.1 151.2,52.8 C150.2,54.5 149.4,56.5 148.4,58.8 C147.4,61.1 146.6,63.6 145.9,66.2 C145.1,68.8 144.5,71.2 144,73.5 C143.4,76.4 143,79.3 142.9,82 C142.8,84.8 142.8,87.2 143,89.2 C143.1,90.5 143.5,91.6 143.7,92.4 C144.1,93.2 144.5,93.6 145,93.7 L145.2,93.6 C146.6,93.1 148.7,90.6 151.3,86.2 C153.2,83.1 155.7,81 158.6,80 C159.2,79.8 159.9,79.6 160.5,79.5 C161.2,79.4 161.8,79.4 162.7,79.3 C164.2,79.3 165.1,79.6 165.7,80.1 Z" id="Path" fill="#FFFFFF"></path>
            <path d="M41.3,27.5 C40.6,26.4 39.6,25.6 38.3,25 C38.2,25 38.1,24.9 37.9,24.9 C37.5,24.8 37.1,24.7 36.7,24.4 C36.1,24.2 35.5,24 34.9,23.9 C34.3,23.8 33.7,23.7 33.1,23.7 C32.9,23.7 32.6,23.7 32.3,23.7 C31.6,23.7 31,23.8 30.3,23.9 C29,24.3 27.7,25 26.7,26.1 C26.1,26.7 25.6,27.5 25.3,28.4 C24.3,27.9 23.3,27.6 22.2,27.4 C21.7,27.3 21.1,27.3 20.6,27.3 C19.9,27.3 19,27.4 18.3,27.5 C16.9,27.9 15.7,28.7 14.7,29.8 C14.1,30.6 13.5,31.6 13.1,32.8 C12.4,34.8 11.8,37 11.1,39.3 C10.5,41.6 9.8,43.9 9.3,46.1 C8.7,48.4 8.3,50.7 8,52.8 C7.6,55.1 7.4,57.2 7.4,59 C7.4,61.4 7.8,63.3 8.4,65.1 L8.4,65.2 C10,69.3 12.7,70.8 14.8,71.6 C16,72 17.2,72.2 18.5,72.2 C19.9,72.2 21.5,72 23.1,71.6 C24.3,71.2 25.5,70.8 26.6,70.3 C27.7,69.7 28.6,69 29.6,68.1 C29.7,68 29.7,68 29.8,67.9 C31.4,66.3 32.8,64.3 34,61.8 C35,59.6 36,56.9 37,54 C37.8,51.1 38.8,48 39.5,44.5 C40.2,41.1 41.1,37.5 41.8,33.7 C41.9,33.2 42,32.9 42,32.5 C42,32.1 42.1,31.8 42.1,31.4 C42.4,29.9 42,28.6 41.3,27.5 Z" id="Path" fill="#E2001A"></path>
            <path d="M61.8,39.9 C63,38.5 64,36.8 64.8,35 C65.8,33 66.2,30.8 66.2,28.6 C66.2,27.5 66.1,26.3 65.8,25.4 C65.6,24.3 65.2,23.5 64.7,22.5 C64.3,21.7 63.9,20.9 63.3,20.2 C62.8,19.6 62.3,19 61.9,18.5 L61.8,18.4 C60.7,17.4 58.9,16.2 56,16.1 C55.9,16.1 55.6,16.1 55.4,16.1 C54,16.1 52.4,16.3 50.8,16.7 C49.6,17.1 48.3,17.5 47,18 C45.7,18.6 44.5,19.2 43.3,19.8 C42.1,20.5 40.9,21.2 39.8,22 C38.6,22.8 37.5,23.6 36.7,24.4 C35.7,25.2 35.1,26.3 35,27.5 C34.8,29.5 34.4,31.7 34,34 C33.6,36.3 33.2,38.7 32.7,41 C32.2,43.4 31.7,45.7 31.4,47.8 C30.9,50.1 30.6,52.2 30.3,54.3 C30.3,54.7 30.2,54.9 30.2,55.3 C30.1,55.8 30.1,56.3 30.1,56.7 C30.1,58.1 30.3,59.3 30.9,60.4 C31.1,60.9 31.5,61.4 31.9,61.8 C31.9,61.8 31.9,61.9 32,61.9 C33,63.2 34,64.3 35.4,65 C36.2,65.5 37.1,65.8 37.9,66.1 C38.6,66.5 39.3,66.7 39.9,66.8 C40.3,66.9 40.7,66.9 41.2,66.9 C41.8,66.9 42.5,66.8 43.1,66.7 C44.2,66.5 45.3,65.9 46.6,65 C46.6,65 46.7,65 46.7,64.9 C47.5,64.4 48.5,63.7 49.5,63.1 C50.6,62.4 51.7,61.5 52.7,60.7 C53.8,59.9 54.9,58.9 55.8,57.9 C56.9,56.8 57.8,55.7 58.6,54.7 C58.6,54.6 58.7,54.6 58.7,54.5 C59.7,53.2 60.5,51.9 61.1,50.5 C61.8,48.8 62.2,47 62.2,45.1 C62.2,43.4 61.8,41.7 61.1,40.2 C61.6,40.2 61.7,40.1 61.8,39.9 C61.8,40 61.8,39.9 61.8,39.9 Z" id="Path" fill="#E2001A"></path>
            <path d="M88.6,15.8 C88.6,15.7 88.6,15.7 88.6,15.6 C88.5,15 88.4,14.5 88.2,13.9 C88,13.3 87.8,12.6 87.5,11.7 C87.5,11.7 87.5,11.6 87.4,11.6 C86.7,9.7 85.5,8.7 84.5,8.1 C83.5,7.5 82.5,7.3 81.3,7.3 C80.6,7.3 79.9,7.4 79.1,7.7 L78.9,7.7 C78.8,7.7 78.8,7.7 78.7,7.7 C77.3,8.2 75.8,8.7 74.4,9.3 C73,9.9 71.6,10.5 70.3,11.1 C69,11.7 67.8,12.3 66.5,13 C65.3,13.6 64.2,14.2 63.3,14.8 C62.6,15.2 62.1,15.8 61.6,16.4 L61,17 C60.6,17.5 60.4,18.1 60.3,18.7 L53.9,48.2 C53.9,48.3 53.9,48.3 53.9,48.4 C53.8,49.1 53.8,49.8 53.8,50.4 C53.8,51.8 54,53 54.5,54 C55,55.1 55.6,55.9 56.4,56.8 C56.5,56.9 56.5,56.9 56.6,57 C57,57.4 57.2,57.7 57.6,58 C58.1,58.5 58.7,59 59.3,59.3 C60.3,59.9 61.2,60.4 62.4,60.5 C62.8,60.5 63.1,60.6 63.5,60.6 C64.2,60.6 64.9,60.5 65.8,60.2 C66.5,60.1 67.2,59.7 68,59.4 C68.1,59.3 68.4,59.3 68.5,59.2 C70.1,58.4 71.6,57.6 73.2,56.8 C74.9,56 76.4,55.1 78,54.3 C79.3,53.7 80.3,53 81,52.1 C82,50.9 82.6,49.3 82.6,47.5 C82.6,46.3 82.4,45.1 82,43.9 C81.6,42.9 81.3,42 80.9,41.1 L80.9,41.1 C80.8,40.9 80.7,40.6 80.5,40.4 C81.3,39.8 82.1,39.2 82.7,38.4 C83.7,37.2 84.1,35.8 84.1,34.2 C84.1,33.7 84.1,33.4 84,32.8 C84,32.6 84,32.4 83.9,32.2 L83.5,30.5 C83.3,29.5 82.9,28.6 82.4,27.7 C82.4,27.6 82.3,27.6 82.3,27.5 C81.9,26.8 81.5,26.2 81,25.7 C82,25.3 82.9,25 83.9,24.6 L84,24.6 C85.7,23.9 86.9,23 87.6,22 C88.6,20.8 89,19.2 89,17.4 C88.7,16.8 88.7,16.2 88.6,15.8 Z" id="Path" fill="#E2001A"></path>
            <path d="M113.9,11.3 C113.5,10.1 113.2,8.9 112.7,7.9 C112.2,6.9 111.6,6 111,5.3 C110.5,4.7 109.9,4 109.4,3.5 C109.4,3.5 109.4,3.5 109.3,3.4 C107.9,1.8 105.9,0.9 103.9,0.6 C103.4,0.6 102.9,0.5 102.5,0.5 C101.4,0.5 100.2,0.6 99.1,1 C97.9,1.4 96.7,1.8 95.4,2.4 C94.3,3 93.1,3.6 92,4.3 C90.9,5 89.7,5.7 88.6,6.6 C87.5,7.3 86.6,8.2 85.6,8.9 C84.4,9.9 83.4,11.4 82.5,13.9 C81.9,15.6 81.3,17.5 80.7,19.8 C80.1,22 79.6,24.4 79.1,26.9 C78.6,29.4 78.1,31.8 77.7,34.2 C77.2,36.5 76.9,38.6 76.5,40.6 L76.3,42 L75.8,44.9 L75.8,45 C75.6,45.7 75.6,46.4 75.6,47 C75.6,48.7 76,50.1 76.7,51.3 C77.5,52.6 78.6,53.5 80.1,54.1 C80.9,54.5 82,54.6 83,54.7 C83.5,54.7 84.1,54.7 84.6,54.8 C84.8,54.8 85,54.8 85.2,54.8 C85.8,54.8 86.5,54.7 87.1,54.6 C88.7,54.2 90,53.3 90.8,52.1 C91.4,51.3 91.9,50.2 92.2,49 C92.2,49 92.2,49 92.2,48.9 C92.3,48.4 92.4,47.9 92.6,47.6 L92.6,47.6 C93.3,48.2 93.9,48.7 94.6,49.2 C94.7,49.3 95,49.4 95.1,49.4 C96.3,50 97.5,50.5 98.7,50.6 C99.1,50.6 99.3,50.6 99.7,50.6 C100.5,50.6 101.3,50.5 102,50.4 C102.7,50.2 103.3,49.9 103.9,49.7 C104,49.6 104.1,49.6 104.4,49.5 L104.4,49.5 C105,49.3 105.5,48.9 106.2,48.5 C106.8,48.1 107.3,47.7 107.8,47.2 C108.5,46.6 109,45.9 109.5,45 C110.2,43.8 110.6,42.5 110.6,41.2 C110.6,39.2 109.6,37.2 108.1,35.9 C108,35.8 107.9,35.8 107.9,35.7 C107.5,35.3 107.2,35.1 106.8,34.6 C106.2,34 105.7,33.5 105.1,32.8 C105,32.7 104.9,32.6 104.9,32.4 C106.2,31.1 107.5,29.8 108.6,28.4 C110.8,26 112.3,23.5 113.4,20.8 C113.5,20.7 113.5,20.4 113.6,20.3 C113.8,19.6 114.1,18.7 114.3,18 C114.5,17.2 114.5,16.2 114.5,15.2 C114.4,14 114.3,12.5 113.9,11.3 Z" id="Path" fill="#E2001A"></path>
            <g id="Group" transform="translate(12.000000, 5.000000)" fill="#FFFFFF">
                <path d="M0.6,54.2 C0.6,52.5 0.7,50.7 1.1,48.7 C1.5,46.7 1.8,44.5 2.4,42.3 C2.9,40.1 3.5,37.9 4.2,35.7 C4.8,33.5 5.5,31.4 6.1,29.3 C6.3,28.6 6.6,28.1 6.8,27.7 C7,27.3 7.4,27.1 7.9,27 C8.4,26.9 9,26.9 9.7,27 C10.3,27.1 11,27.4 11.6,27.6 C12.2,28 12.7,28.3 13,28.8 C13.3,29.3 13.6,29.9 13.6,30.6 C13.6,31.1 13.5,31.7 13.2,32.3 L13.2,32.3 C12.7,33.9 12.1,35.7 11.5,37.7 C10.9,39.6 10.4,41.7 9.9,43.6 C9.4,45.5 8.9,47.4 8.7,49.1 C8.3,50.9 8.2,52.3 8.2,53.4 C8.2,54 8.2,54.5 8.3,54.8 C8.4,55.1 8.5,55.3 8.8,55.2 C9.3,55.1 9.8,54.5 10.4,53.4 C11,52.3 11.5,50.9 12.1,49.2 C12.7,47.5 13.2,45.6 13.8,43.6 C14.4,41.6 14.9,39.4 15.4,37.2 C15.9,35 16.4,33 16.7,31 C17.1,29 17.4,27.3 17.8,25.8 L17.8,26 C17.9,25.3 18.2,24.7 18.5,24.3 C18.8,23.9 19.2,23.7 19.7,23.6 C20.1,23.5 20.4,23.5 20.8,23.5 C21.2,23.5 21.6,23.6 22,23.7 C22.4,23.8 22.8,23.9 23.2,24.1 C23.6,24.3 24,24.3 24.4,24.6 C24.9,24.8 25.2,25.1 25.4,25.3 C25.6,25.5 25.6,25.9 25.6,26.4 C25.6,26.5 25.6,26.8 25.6,27 C25.6,27.2 25.5,27.5 25.5,27.7 C24.8,31.5 23.9,35.1 23.2,38.5 C22.5,41.9 21.6,45 20.8,47.6 C20,50.4 19,52.8 18,54.8 C17,56.8 15.8,58.5 14.6,59.7 C13.9,60.3 13.2,60.9 12.4,61.3 C11.6,61.7 10.8,62 10,62.3 C7.8,62.9 5.9,62.9 4.5,62.4 C3.1,61.9 1.9,60.7 1.1,58.9 C0.9,57.6 0.6,56 0.6,54.2 Z" id="Path"></path>
                <path d="M44.9,33.4 C44.4,33.9 43.9,34.5 43.5,35 C44.2,35.5 44.8,36.2 45.2,37.2 C45.7,38.2 45.8,39.2 45.8,40.2 C45.8,41.5 45.6,42.6 45.1,43.7 C44.6,44.8 43.9,45.9 43.1,46.9 L43.1,46.9 C42.5,47.7 41.7,48.7 40.8,49.5 C40,50.3 39,51.2 38,52 C37,52.8 36.1,53.6 35,54.2 C34,54.9 33.1,55.5 32.2,56 L32.2,56 C31.4,56.5 30.6,56.8 30.2,57.1 C29.8,57.2 29.4,57.2 29.1,57.2 C28.7,57.1 28.4,57 28,56.7 C27.3,56.5 26.7,56.2 26,55.9 C25.4,55.5 24.8,54.9 24.2,54.2 L24.2,54.2 C23.8,53.8 23.6,53.4 23.5,53.1 C23.3,52.7 23.3,52.3 23.3,51.7 C23.3,51.5 23.3,51.2 23.3,50.9 C23.3,50.7 23.4,50.3 23.4,50.1 C23.6,48.2 24,46.1 24.5,43.9 C25,41.7 25.5,39.3 25.8,36.9 C26.3,34.5 26.8,32.2 27.1,29.8 C27.6,27.4 27.8,25.2 28.1,23.1 C28.9,22.4 29.9,21.7 30.9,21.1 C32,20.4 32.9,19.8 34,19.2 C35.1,18.6 36.2,18 37.2,17.5 C38.3,17 39.4,16.7 40.4,16.4 C41.7,16 42.9,15.9 44,15.9 C45.1,15.9 46,16.3 46.6,16.9 C47,17.3 47.3,17.7 47.7,18.1 C48.1,18.6 48.3,19.1 48.7,19.5 C48.9,20.1 49.2,20.7 49.3,21.3 C49.4,21.9 49.5,22.6 49.5,23.5 C49.5,24.9 49.1,26.4 48.5,27.8 C47.8,29.2 46.9,30.6 46,31.8 C45.8,32.4 45.4,33 44.9,33.4 Z M32.4,42.4 C32.2,43.4 31.9,44.3 31.7,45.2 C31.5,46.1 31.2,47 31,47.8 C32,47.2 32.8,46.6 33.6,45.9 C34.4,45.3 35,44.6 35.6,44 C36.2,43.4 36.6,42.8 36.9,42.3 C37.2,41.8 37.4,41.3 37.4,40.9 C37.4,40.7 37.2,40.5 36.8,40.5 C36.4,40.5 36,40.5 35.5,40.6 C34.8,41.1 33.8,41.6 32.4,42.4 Z M34.8,33.2 C35.9,32.4 37,31.5 37.8,30.7 C38.6,29.9 39.5,29 40.1,28.3 C40.7,27.6 41.2,26.9 41.5,26.3 C41.8,25.7 42,25.2 42,24.9 C42,24.7 41.6,24.7 40.8,24.9 C40.2,25 39.6,25.4 38.9,25.7 C38.2,26 37.3,26.7 36.4,27.4 C36.2,28.1 35.9,29 35.7,29.8 C35.5,30.6 35.2,31.5 35,32.4 C35,32.6 35,32.8 34.8,33.2 Z" id="Shape"></path>
                <path d="M53.7,13.8 C54.7,13.3 55.7,12.7 56.9,12.1 C58.1,11.5 59.3,10.9 60.5,10.3 C61.7,9.7 63,9.1 64.3,8.6 C65.6,8 66.9,7.6 68.1,7.2 L68.3,7.2 C69,7 69.6,7 70.1,7.3 C70.6,7.5 70.8,8 71.1,8.6 L71.1,8.6 C71.3,9.2 71.5,9.7 71.6,10 C71.7,10.3 71.8,10.8 71.8,11.3 L71.8,11.3 C71.9,11.5 71.9,11.9 71.9,12.3 C71.9,13 71.8,13.6 71.4,14 C71.2,14.4 70.6,14.7 69.7,15.1 C68.4,15.6 67.2,16.1 65.9,16.7 C64.6,17.2 63.1,17.8 61.7,18.5 C61.5,19.5 61.1,20.5 60.7,21.7 C60.3,22.9 60.1,24 59.7,25.2 C60.8,24.8 61.7,24.4 62.8,24.1 L63,24 C63.7,23.8 64.3,23.8 64.7,23.9 C65.1,24 65.4,24.4 65.7,25.1 L65.7,25.1 C65.9,25.7 66.2,26.2 66.3,26.8 C66.4,27.4 66.5,27.9 66.7,28.5 L66.7,28.5 C66.8,28.9 66.8,29.2 66.8,29.5 C66.8,30 66.7,30.3 66.4,30.8 C66.2,31.2 65.8,31.5 65.3,31.8 C64.8,32 64.3,32.4 63.7,32.6 C63.1,32.8 62.5,33.1 61.9,33.4 L61.9,33.4 C60.9,33.9 60.1,34.4 59.3,34.7 C58.5,35 57.6,35.5 56.7,36 C56.5,36.6 56.3,37.3 56.1,37.9 C55.9,38.6 55.7,39.2 55.7,39.7 C56.7,39.2 57.6,38.9 58.6,38.4 C59.6,37.9 60.6,37.6 61.7,37.3 C62.3,37.2 62.9,37.2 63.3,37.3 C63.7,37.5 64,37.9 64.3,38.5 L64.3,38.5 C64.5,39.1 64.9,39.8 65.1,40.5 C65.3,41.2 65.5,41.9 65.5,42.7 C65.5,43.3 65.4,43.8 65.1,44.1 C64.8,44.4 64.4,44.8 63.7,45.1 C62.1,45.9 60.6,46.8 58.9,47.6 C57.2,48.4 55.7,49.3 54.1,50.1 L54.1,50.1 C53.4,50.5 52.9,50.7 52.4,50.8 C51.9,50.9 51.4,51 51,50.9 C50.6,50.9 50.3,50.7 49.9,50.4 C49.5,50.2 49.2,49.9 48.8,49.6 C48.4,49.2 48.1,48.9 47.6,48.4 L47.6,48.4 C47.2,48 47,47.7 46.8,47.2 C46.8,46.7 46.7,46.1 46.7,45.4 C46.7,45 46.7,44.6 46.8,44.1 L53.2,14.6 L53.7,13.8 Z" id="Path"></path>
                <path d="M83.9,38.8 C83.3,38.3 82.6,37.7 82,37 C81.3,36.4 80.7,35.7 80.1,35 C79.5,34.3 78.9,33.6 78.3,32.8 C77.8,34.6 77.5,36.3 77.1,37.8 C76.7,39.5 76.3,41 75.9,42.7 C75.8,43.3 75.5,43.8 75.3,44.1 C75.1,44.5 74.7,44.7 74.2,44.8 C73.8,44.9 73.6,44.9 73.2,44.9 C72.6,44.9 72,44.8 71.5,44.8 C70.9,44.8 70.4,44.7 70.1,44.6 C69.6,44.5 69.4,44.1 69.1,43.8 C68.8,43.5 68.7,42.8 68.7,42 C68.7,41.6 68.7,41.2 68.8,40.7 C68.9,39.7 69.3,38.3 69.6,36.4 C70,34.5 70.3,32.3 70.8,30 C71.3,27.7 71.8,25.3 72.2,22.8 C72.6,20.3 73.3,18 73.8,15.8 C74.3,13.6 74.9,11.8 75.5,10.3 C76.1,8.7 76.6,7.8 77.1,7.4 C78.1,6.7 79,6 80,5.2 C81,4.4 82,3.8 83,3.2 C84,2.6 85,2 86,1.5 C87,1 87.9,0.7 88.9,0.4 C90,0.2 90.9,6.66133815e-15 91.9,0.2 C92.9,0.4 93.7,0.7 94.4,1.5 C94.9,2 95.2,2.5 95.7,3.1 C96.2,3.7 96.5,4.3 96.9,5 C97.3,5.7 97.5,6.6 97.7,7.4 C97.9,8.2 98.1,9.3 98.1,10.4 C98.1,11 98.1,11.6 98,12.2 C97.9,12.7 97.8,13.3 97.5,13.8 L97.5,13.8 C96.7,16 95.2,18.2 93.3,20.4 C91.4,22.6 89.1,24.7 86.5,27 C87,27.6 87.6,28.3 88.2,29 C88.8,29.7 89.4,30.3 90,31 C90.6,31.7 91.2,32.3 91.8,32.9 C92.4,33.5 93,34 93.5,34.5 L93.5,34.5 C94.1,35 94.3,35.5 94.3,36.2 C94.3,36.7 94.2,37 93.9,37.5 C93.6,38 93.3,38.3 92.9,38.7 C92.5,39.1 92.2,39.3 91.8,39.5 C91.4,39.7 91.2,40 91,40 L91,40 C90.8,40.1 90.4,40.4 90.2,40.5 C90,40.6 89.6,40.7 89.4,40.9 C88.9,41 88.4,41 87.8,41 C87.2,41 86.7,40.8 86.1,40.4 C85.1,39.8 84.5,39.3 83.9,38.8 Z M86.1,11 C85.4,11.4 84.7,11.8 83.8,12.4 C83.4,13.5 83.1,14.7 82.7,15.9 C82.3,17.1 82,18.4 81.6,19.7 L81.6,19.7 C81.6,19.9 81.5,20.1 81.5,20.3 C81.5,20.5 81.4,20.7 81.4,20.9 C82.7,19.9 83.8,18.9 84.9,17.9 C86,16.8 86.8,15.9 87.5,14.9 C88.2,13.9 88.7,13.1 89.2,12.3 C89.6,11.5 89.8,10.9 89.8,10.5 L89.8,10.5 C89.7,10.1 89.1,10.1 88.1,10.4 C87.4,10.4 86.8,10.6 86.1,11 Z" id="Shape"></path>
            </g>
        </g>
    </g>
</svg>