<svg width="222" height="135" xmlns="http://www.w3.org/2000/svg"><g fill="none"><path d="M221.3 26.7c-.1-.8-.4-1.6-.6-2.3 0-.1-.1-.2-.1-.4-.4-1-.7-1.8-1.1-2.5-.5-1-1.1-1.9-1.9-3.1 0-.1-.1-.1-.1-.2-1.6-2.2-3.4-3.1-4.7-3.6-.8-.2-1.7-.4-2.5-.4-1.4 0-2.9.4-4.4 1l-.4.1s-.1 0-.1.1c-2.8 1.2-5.5 2.4-8.2 3.8-2.6 1.3-5.3 2.8-7.8 4.2-2.5 1.4-4.9 2.9-7.2 4.3s-4.4 2.8-6.4 4c-.6.4-1.2 1-1.6 1.7l-.8 1.4c-.4.6-.6 1.3-.6 1.9l-4.9 53.4v.2c0 1.1 0 2.2.2 3.2.4 2 1 3.7 2 5 1 1.2 2.2 2.3 3.5 3.1.1.1.2.1.5.2.8.5 1.6 1 2.3 1.4 1.1.6 2.2 1.1 3.1 1.4 1.3.5 2.6.7 4 .7h.2c1.4 0 2.9-.4 4.6-1 1.1-.4 2.3-1 3.6-1.8.2-.1.4-.2.6-.4 3-1.8 6.1-3.7 9.4-5.8 3.2-1.9 6.4-4 9.4-5.8 1.9-1.2 3.2-2.3 4.1-3.5.8-1.2 1.8-3.2 1.3-6.2-.4-1.8-1-3.6-1.9-5.3-.8-1.4-1.8-2.8-2.8-4l-.1-.1c-1.2-1.7-2.6-2.5-3.8-2.9 1.3-.7 2.5-1.4 3.6-2.2 1.3-1 2.4-2 3.1-3.2 1.2-1.8 1.6-3.7 1.3-5.8-.1-.6-.4-1.3-.6-2-.1-.2-.1-.5-.2-.7-.4-1-.8-1.8-1.2-2.8-.6-1.3-1.4-2.6-2.5-3.8-.1-.1-.2-.2-.2-.4-1.8-2-3.8-2.8-5.2-2.9-.4 0-.7-.1-1.1-.1-1.2 0-2.4.2-3.7.6.1-.4.1-.8.2-1.2 2.2-1.2 4.3-2.3 6.4-3.2 2.6-1.3 5.2-2.6 7.7-3.8h.1c2.4-1.2 4-2.5 4.9-4 .6-1.6 1.1-3.8.6-6.3z" fill="#E2001A"/><path d="M175.3 44.6c-.4-2.4-1-4.7-2-6.5-1.3-2.4-3.5-4.2-6.5-5.4-1.2-.5-2.4-.8-3.8-1.1-1.3-.2-2.6-.4-4.1-.4h-.6c-1.2 0-2.5.1-3.7.2-1.3.1-2.5.4-3.7.6-.5.1-1.1.2-1.6.4l-.7.2c-3.4 1.2-6.6 3.2-9.4 6.1-2.5 2.6-4.9 5.8-6.8 9.4-1.9 3.5-3.6 7.2-5 11.3-1.4 4-2.5 8-3.5 12.1-.8 4.1-1.4 8-1.7 11.8-.2 3.8-.2 7.4.2 10.4.2 2 .6 4 1.2 5.8.6 1.9 1.3 3.7 2.3 5.2.1.1.2.4.4.5.5.8 1.1 1.6 1.8 2.3.8 1 1.9 1.7 3 2.4s2.3 1.2 3.5 1.6c1.1.4 2.2.5 3.2.5h.1c1.2 0 2.5.1 4 .1h.8c1.9 0 4.1-.2 6.2-.7.5-.1 1.1-.2 1.6-.4h.1l.8-.2c5.2-1.8 9.5-4.8 12.8-8.9 3.2-4 5.5-8.4 7.1-13.4.2-1 .5-1.9.7-2.9.4-1.3.4-2.6.2-3.8-.2-2.2-1.3-4-2.9-5.3-1.4-1.2-3.2-1.7-5.5-1.7h-.4c-1 0-1.9.1-2.8.2-1 .1-1.8.4-2.8.7-3.8 1.3-7.1 4-9.6 7.9v-1.1c.1-2.6.5-5.3 1-7.9.5-2 1-4.3 1.8-6.8.5-1.7 1-3.2 1.6-4.7.8 1.4 1.9 2.5 3.2 3.5 1.3 1 3 1.6 4.8 1.8.7.1 1.6.1 2.3.1.8 0 1.8-.1 2.9-.2.7 0 1.3-.2 2-.4l.4-.1.5-.1c2.3-.8 4-1.9 4.8-3.6.5-.8-.4-1.8 0-3 .1-.2.2-.6.2-.8.2-1.1.5-2.4.6-3.7.1-1.3.2-2.6.2-3.8v-4c-.1-1.8.9-3.2.8-4.2zm-125 27.8c-.5-2.3-1.7-4.3-3.5-6-1.1-1-2.3-1.9-3.7-2.6-1.3-.7-2.8-1.3-4.2-1.7-1.4-.4-2.9-.7-4.2-.8-.5 0-1.1-.1-1.6-.1-1 0-1.9.1-2.9.2-1.8.4-3.5 1-5 1.8-1.4.8-2.6 1.8-3.7 2.8-1.3 1.2-2.8 2.6-4.2 4.2-1.4 1.7-2.9 3.5-4.2 5.4-1.3 1.9-2.5 3.8-3.5 5.9-1.1 2-1.9 4.1-2.4 5.9 0 .1 0 .2-.1.2-1 2.9-1.6 5.6-1.6 8.2 0 2.6.4 5 1.2 7.1.7 1.8 1.7 3.4 2.8 4.8-.2 0-.4.1-.6.1-2.2.5-4.2 1.3-6 2.6l-.1.1-.1.1-.1.1c-2.2 1.8-2.2 4.2-2.3 6.8v.3c0 2.4-.1 4.9 2.3 7.4 3.1 3.7 6.5 6.2 10 7.6 2.3.8 4.6 1.3 7 1.3 1.4 0 2.9-.1 4.3-.5l.7-.1h.1c3-.6 5.6-1.7 7.8-3.1 2.2-1.3 4-2.8 5.5-4.4 1.6-1.6 2.8-3.4 3.7-5 .7-1.3 1.4-2.6 1.9-4 .1-.1.1-.2.1-.4.8-1.9 1.2-3.8 1.2-5.6 0-3-.8-5.5-2.5-7.7-.4-.5-.8-1-1.3-1.6 1.1-.5 1.9-1.1 2.6-2 .6-.7 1.3-1.7 1.9-2.9 0-.1.1-.2.1-.4.5-1.2 1.1-2.5 1.6-4.2.5-1.4 1-3 1.3-4.6.5-1.6.8-3.1 1.1-4.7.4-1.4.6-2.9.7-4v-2.3c.5-1 .3-2.5-.1-4.2z" fill="#E2001A"/><path d="M91 67.1c-.5-1.6-1-3.1-1.7-4.4-.7-1.3-1.4-2.5-2.3-3.7-.7-1.1-1.6-1.9-2.3-2.8 0 0 0-.1-.1-.1-1.7-1.8-3.7-2.9-6.1-3.2-.8-.1-1.7-.2-2.5-.2-1.2 0-2.4.1-3.7.4-2 .4-4.1 1.1-6.2 2-1.9.8-4 1.9-6 3-1.9 1.2-3.8 2.4-5.6 3.6-1.8 1.2-3.5 2.4-5 3.6 0 0-.1 0-.1.1-1.4 1.1-2.3 2.9-3.2 6.2-.6 2.3-1.3 5-1.9 8.2-.6 3.2-1.3 6.6-1.9 10.2-.7 3.6-1.3 7.1-1.9 10.4-.6 3.2-1.2 6.2-1.8 8.9-.7 3.1-1.2 4.4-1.4 4.9-.1.2-.1.4-.2.6-.5 1.6-.7 2.8-.7 4 0 2.2.5 4 1.6 5.4 1 1.3 2.2 2.3 3.6 3 1.1.5 2.3 1 3.7 1.2l.6.1 2.2.4c.2 0 .4 0 .6.1h.6c.7 0 1.4-.1 2.2-.2 2.5-.5 4-1.8 4.7-2.8.7-1 1.3-2 1.8-3.4.1-.2.1-.5.2-.7.6-2.5 1.2-5.2 1.8-7.7.5-2 1-4.1 1.6-6.1 1.8-1.1 3.7-2.2 5.5-3.4 2.4-1.6 4.8-3.4 7.1-5.2 2.3-1.8 4.4-3.7 6.5-5.6 2-2 3.8-4 5.3-6l.1-.1c1.6-2.2 2.9-4.3 4.1-6.6 1.4-2.6 2.2-5.6 2.2-8.6-.7-1.9-.9-3.8-1.4-5.5z" fill="#E2001A"/><path d="M128.4 89.7c-.1-4.8-.1-9.6-.2-14.3V62.2c0-4 .1-7.4.4-10.3 0-.5.1-1 0-1.4v-.7c-.1-2.3-.8-4.1-1.9-5.5-1.3-1.7-3.4-2.6-6-2.9h-1.4c-1.4-.1-3-.2-4.8-.2h-.8c-2.4 0-5.3.5-8.6 1.4-2.6.7-4.8 1.9-6.4 3.7-1.2 1.4-2.3 3-3.2 4.8-1.8 3.7-3.7 8.2-5.8 13.1-2.1 4.9-4.1 10-6.1 15.1-2 5.2-4 10.3-5.8 15.2-1.8 4.9-3.4 9.5-4.7 13.3v.1c-.4 1.1-.6 2.2-.7 3-.1.8-.1 1.7-.1 2.5.1 1.7.7 3.2 1.7 4.6.7 1 1.7 1.7 2.8 2.4.8.5 1.8 1 2.9 1.3.8.2 1.6.5 2.4.7l.8.2c.1 0 .2 0 .4.1.6.1 1.2.1 1.8.1.8 0 1.7-.1 2.5-.4 1.3-.4 3.4-1.3 4.9-4 .7-1.2 1.4-2.6 2-4.3.6-1.4 1.2-3.1 1.8-4.9.4-1 .6-1.8 1-2.8 1.7-.8 3.5-1.7 5.4-2.6.7-.4 1.6-.7 2.3-1.1.1.8.1 1.7.2 2.5.2 2.8 1 4.8 2.3 6.2 1.4 1.6 3.5 2.5 6.1 2.6h.2c.6.1 1.1.1 1.7.1.8 0 1.7-.1 2.4-.2 1.2-.2 2.4-.5 3.7-.8 2.8-.7 4.6-1.9 5.8-3.5 1.1-1.6 1.6-3.6 1.4-6.1-.2-4.5-.3-9-.4-13.8z" fill="#E2001A"/><path d="M177.6 36c1.9-1.2 4-2.5 6.2-4s4.7-2.8 7.1-4.2c2.5-1.4 5-2.8 7.7-4.1 2.7-1.3 5.2-2.5 7.8-3.7l.4-.1c1.6-.6 2.9-.7 3.8-.5 1 .4 1.8 1 2.4 2v-.1c.7 1 1.2 1.7 1.4 2.4.4.6.6 1.3 1 2.2h-.1c.4.6.5 1.2.6 1.8.2 1.3.1 2.4-.5 3.1-.5.7-1.6 1.6-3.1 2.4-2.5 1.2-5.2 2.5-7.8 3.8-2.6 1.3-5.5 3-8.5 4.6-.4 1.8-.7 3.8-1 5.9-.4 2.2-.7 4.2-1.1 6.4 2-1.1 4.2-2 6.4-2.9l.5-.2c1.4-.6 2.6-.7 3.5-.6 1 .1 1.7.7 2.5 1.7v-.1c.7.8 1.3 1.8 1.8 2.6.4 1 .8 1.8 1.2 2.8h-.1c.4.6.5 1.2.6 1.7.1.8 0 1.6-.5 2.3-.5.7-1.2 1.4-2 2-.8.6-1.9 1.3-3.1 1.9-1.2.6-2.4 1.3-3.6 1.9h.1c-1.8 1.1-3.6 2.2-5.3 3.1-1.7.9-3.5 2-5 3-.2 1.1-.5 2.3-.7 3.6-.2 1.3-.2 2.4-.2 3.4 1.8-1.1 3.7-2.2 5.6-3.1 1.9-1.1 4.1-2 6.2-2.9 1.3-.5 2.4-.7 3.4-.5.8.2 1.7.8 2.3 1.8v-.1c.8 1 1.6 2 2.3 3.2.7 1.2 1.2 2.5 1.3 3.7.2 1.1 0 2-.5 2.6-.5.6-1.4 1.4-2.8 2.3-3 1.9-6.2 3.8-9.4 5.8-3.2 1.9-6.4 3.8-9.4 5.8l.1-.1c-1.3.8-2.4 1.4-3.4 1.8-1.1.4-2 .6-2.9.6-.8 0-1.7-.1-2.5-.4-.8-.2-1.6-.7-2.4-1.2-.8-.5-1.8-1.1-2.8-1.7v.1c-.8-.5-1.4-1.1-2-1.8-.5-.7-1-1.7-1.1-3-.1-.7-.1-1.4-.1-2.3l4.9-53.4.8-1.3zM5.3 114.9c1.3-1 2.8-1.6 4.2-1.8 1-.2 1.9-.2 2.8-.1.8.1 1.6.4 2.3.8 1.9 1.2 3.7 2.2 5.3 2.6 1.6.4 3 .6 4.1.4.8-.1 1.6-.5 2-1.1-.1-.5-.6-1.1-1.7-1.9-1.1-.8-2.3-1.7-3.7-2.6-1.3-.8-2.6-1.8-4-2.6s-2.4-1.9-3.5-3c-1-1.1-1.8-2.4-2.4-4-.6-1.6-.8-3.2-.8-5.3 0-2.2.5-4.6 1.4-7.2v.1c.5-1.6 1.2-3.2 2.2-5 1-1.8 2-3.6 3.2-5.3 1.2-1.7 2.5-3.4 3.8-4.9 1.3-1.5 2.8-2.9 4.1-4.1l-.1.1c.7-.7 1.6-1.4 2.6-2 1.1-.6 2.3-1.1 3.6-1.3.8-.1 1.9-.2 3-.1s2.2.4 3.4.6c1.1.4 2.2.7 3.2 1.3 1 .6 1.9 1.2 2.6 1.9 1.1 1.1 1.8 2.3 2.2 3.6.2 1.3.4 2.5.4 3.7v1.6c-.1 1.1-.4 2.3-.7 3.7-.2 1.4-.6 2.9-1.1 4.4-.4 1.4-.8 3-1.3 4.4-.5 1.4-1 2.6-1.4 3.7-.4.8-.8 1.4-1.2 1.9-.4.5-1 .8-1.6 1-.5.1-1.1.1-1.8-.1-4.7-1.1-7-3.4-6.8-7 0-.5.1-1.1.4-2 .3-.9.5-1.9.7-3 .2-1.1.5-2.2.8-3.2.2-1.1.5-2 .5-2.8l-.1.1v.1c-.7.5-1.4 1.3-2.3 2.3-.9 1-1.6 2.2-2.4 3.4-.7 1.2-1.3 2.5-1.9 3.8-.5 1.3-.7 2.6-.7 3.8 0 1.3.4 2.4 1 3.1v-.1c1.3 1.3 2.8 2.6 4.4 3.6 1.7 1.1 3.2 2 4.7 3.1s2.6 2.2 3.7 3.5c1 1.2 1.4 2.8 1.4 4.6 0 1.2-.4 2.5-.8 4v-.1c-.5 1.2-1.1 2.5-1.9 3.8-.7 1.4-1.8 2.8-3.1 4.1-1.3 1.3-2.8 2.5-4.6 3.7-1.8 1.1-3.8 1.9-6.4 2.5l-.7.1c-3 .6-6 .4-8.6-.6-2.8-1.1-5.4-3.1-8-6.2-1.6-1.7-2.3-3-2.3-4.2v-.1c0-1.6.6-2.7 1.9-3.7zm70.8-24c-1.8 1.8-3.8 3.6-6 5.3-2.2 1.7-4.4 3.4-6.7 4.9-2.4 1.6-4.7 3-7 4.2-.7 2.8-1.3 5.4-2 8.2-.7 2.6-1.3 5.3-1.9 7.9-.4 1-.7 1.7-1.1 2.2-.4.5-1 .8-1.8 1-.5.1-1 .1-1.6.1-1-.1-1.8-.4-2.8-.5-1-.1-1.7-.4-2.4-.7-.7-.3-1.3-.8-1.7-1.4-.5-.6-.6-1.4-.6-2.5 0-.6.1-1.6.5-2.6.5-1.2 1.1-3.1 1.7-5.8.6-2.7 1.2-5.6 1.8-9.1.6-3.4 1.3-6.8 1.9-10.6.7-3.6 1.3-7 1.9-10.1.6-3.1 1.2-5.8 1.9-7.9.6-2.2 1.2-3.5 1.7-3.8 1.4-1.1 3.1-2.3 4.8-3.5 1.7-1.2 3.5-2.3 5.4-3.4 1.8-1.1 3.7-2 5.5-2.8 1.8-.8 3.6-1.3 5.2-1.7 1.7-.4 3.1-.4 4.4-.1 1.3.3 2.5.8 3.5 1.9.6.7 1.2 1.4 1.9 2.3.7.9 1.3 1.9 1.8 3 .6 1.1 1 2.3 1.3 3.6.3 1.3.5 2.8.5 4.2 0 2.3-.6 4.4-1.6 6.5-1.1 2-2.3 4-3.7 6-1.3 1.5-2.9 3.2-4.8 5.2zm-13.2-9.3c-.6 2.2-1.3 4.3-1.9 6.7 2-1.3 3.8-2.8 5.5-4.2 1.6-1.4 2.9-2.9 4-4.3 1.1-1.3 1.9-2.6 2.5-3.8.6-1.2.8-2.2.8-3 0-.1 0-.2.1-.4 0-.1 0-.2-.1-.4s-.4-.1-.6-.1c-.2 0-.8.1-1.6.2-1 .2-2 .6-3.2 1.1-1.2.5-2.4 1.2-3.7 2-.6 2.2-1.2 4.2-1.8 6.2zm45.7 15.7l-.2-1.3c-2.9 1.2-5.6 2.5-8.4 3.7-2.8 1.2-5.2 2.4-7.3 3.6-.6 1.4-1.2 3-1.7 4.7-.5 1.7-1.1 3.1-1.7 4.6-.6 1.4-1.2 2.6-1.8 3.6-.6 1-1.3 1.6-2 1.8-.7.2-1.4.2-2.3.1l-.8-.2c-.7-.1-1.4-.4-2.2-.6-.8-.2-1.3-.5-1.9-.8-.6-.4-1.1-.7-1.4-1.2-.4-.5-.6-1.1-.6-1.8 0-.5 0-1.1.1-1.7.1-.6.2-1.3.5-2.2 1.2-3.8 2.8-8.2 4.6-13.1 1.8-4.9 3.7-10 5.8-15.1 2.1-5.1 4.1-10.2 6.1-15 2-4.9 4-9.1 5.6-12.8.6-1.3 1.4-2.6 2.4-3.6 1-1.1 2.3-1.8 4.1-2.3 3-.8 5.4-1.2 7.4-1.2s3.7 0 5.3.1h1.2c1.3.1 2.3.5 2.8 1.1.5.6.8 1.6.8 2.6v1.4-.1c-.1 3.1-.2 6.7-.4 10.9v13.3c0 4.7.1 9.5.2 14.3.1 4.8.2 9.5.4 13.8.1 1.4-.1 2.5-.6 3.2-.5.7-1.6 1.2-3.1 1.7-1.2.4-2.3.6-3.4.7-1.1.2-2.2.2-3.2 0h.1c-1.3-.1-2.3-.5-2.8-1.1-.5-.6-.8-1.8-1.1-3.6-.1-1.9-.2-4.6-.5-7.5zM104.1 75c-1.3 3.1-2.6 6.2-4 9.6 1.3-.6 2.6-1.1 3.8-1.6 1.3-.5 2.5-1 3.8-1.4V66.2c-1 2.8-2.3 5.7-3.6 8.8zm61.6 5.1c.6.5 1 1.2 1.1 2 .1.6 0 1.3-.1 2.2-.2.8-.4 1.7-.7 2.5-1.3 4.4-3.5 8.4-6.2 11.9-2.8 3.5-6.4 5.9-10.7 7.4-.4.1-.7.2-1 .4-.3.2-.5.1-.7.2h.1c-2 .5-4 .7-5.6.7h-4.6.1c-.7 0-1.4 0-2.2-.2-.8-.2-1.6-.6-2.3-1.1-.7-.5-1.4-1-2-1.7-.6-.6-1.1-1.3-1.4-2v.1c-.7-1.1-1.3-2.5-1.8-4-.5-1.6-.8-3.2-1.1-4.9-.4-2.8-.4-6-.1-9.5.2-3.6.8-7.3 1.6-11.2.8-3.8 1.9-7.7 3.2-11.4 1.3-3.8 2.9-7.3 4.8-10.6 1.8-3.2 3.8-6 6.1-8.4 2.3-2.4 4.8-4 7.4-4.9.2-.1.5-.1.7-.2.2-.1.5-.1.7-.2 1.2-.2 2.4-.5 3.6-.6 1.2-.1 2.5-.2 3.6-.2 1.2 0 2.3.1 3.4.2s2 .5 2.8.7c2 .8 3.4 1.9 4.2 3.2.7 1.3 1.2 3 1.4 4.8.1 1 .2 2 .2 3.2 0 1.2.1 2.4 0 3.6 0 1.2-.1 2.4-.2 3.5-.1 1.2-.2 2.2-.5 3.1-.1.1-.1.2-.1.4-.1.8-.5 1.6-.7 2.2-.4.6-1.1 1.1-2.3 1.4-.2.1-.5.1-.7.2-.2.1-.6.1-.8.1-1.6.2-2.9.2-4 .1s-2-.5-2.8-1.1c-.7-.5-1.4-1.2-1.9-2s-.8-1.9-1.2-3.1c-.1-.8-.2-1.8-.2-2.6 0-1-.1-1.7-.2-2.4-.1-.5-.1-1-.4-1.3-.1-.4-.4-.6-.6-.7-.7.2-1.4 1.2-2.4 2.9s-1.8 3.7-2.8 6c-1 2.3-1.8 4.8-2.5 7.4-.8 2.6-1.4 5-1.9 7.3-.6 2.9-1 5.8-1.1 8.5-.1 2.8-.1 5.2.1 7.2.1 1.3.5 2.4.7 3.2.4.8.8 1.2 1.3 1.3l.2-.1c1.4-.5 3.5-3 6.1-7.4 1.9-3.1 4.4-5.2 7.3-6.2.6-.2 1.3-.4 1.9-.5.7-.1 1.3-.1 2.2-.2 1.5 0 2.4.3 3 .8z" fill="#FFF"/><path d="M41.3 27.5c-.7-1.1-1.7-1.9-3-2.5-.1 0-.2-.1-.4-.1-.4-.1-.8-.2-1.2-.5-.6-.2-1.2-.4-1.8-.5-.6-.1-1.2-.2-1.8-.2h-.8c-.7 0-1.3.1-2 .2-1.3.4-2.6 1.1-3.6 2.2-.6.6-1.1 1.4-1.4 2.3-1-.5-2-.8-3.1-1-.5-.1-1.1-.1-1.6-.1-.7 0-1.6.1-2.3.2-1.4.4-2.6 1.2-3.6 2.3-.6.8-1.2 1.8-1.6 3-.7 2-1.3 4.2-2 6.5-.6 2.3-1.3 4.6-1.8 6.8-.6 2.3-1 4.6-1.3 6.7-.4 2.3-.6 4.4-.6 6.2 0 2.4.4 4.3 1 6.1v.1c1.6 4.1 4.3 5.6 6.4 6.4 1.2.4 2.4.6 3.7.6 1.4 0 3-.2 4.6-.6 1.2-.4 2.4-.8 3.5-1.3 1.1-.6 2-1.3 3-2.2l.2-.2c1.6-1.6 3-3.6 4.2-6.1 1-2.2 2-4.9 3-7.8.8-2.9 1.8-6 2.5-9.5.7-3.4 1.6-7 2.3-10.8.1-.5.2-.8.2-1.2 0-.4.1-.7.1-1.1.3-1.5-.1-2.8-.8-3.9z" fill="#E2001A"/><path d="M61.8 39.9c1.2-1.4 2.2-3.1 3-4.9 1-2 1.4-4.2 1.4-6.4 0-1.1-.1-2.3-.4-3.2-.2-1.1-.6-1.9-1.1-2.9-.4-.8-.8-1.6-1.4-2.3-.5-.6-1-1.2-1.4-1.7l-.1-.1c-1.1-1-2.9-2.2-5.8-2.3h-.6c-1.4 0-3 .2-4.6.6-1.2.4-2.5.8-3.8 1.3-1.3.6-2.5 1.2-3.7 1.8-1.2.7-2.4 1.4-3.5 2.2-1.2.8-2.3 1.6-3.1 2.4-1 .8-1.6 1.9-1.7 3.1-.2 2-.6 4.2-1 6.5s-.8 4.7-1.3 7c-.5 2.4-1 4.7-1.3 6.8-.5 2.3-.8 4.4-1.1 6.5 0 .4-.1.6-.1 1-.1.5-.1 1-.1 1.4 0 1.4.2 2.6.8 3.7.2.5.6 1 1 1.4 0 0 0 .1.1.1 1 1.3 2 2.4 3.4 3.1.8.5 1.7.8 2.5 1.1.7.4 1.4.6 2 .7.4.1.8.1 1.3.1.6 0 1.3-.1 1.9-.2 1.1-.2 2.2-.8 3.5-1.7 0 0 .1 0 .1-.1.8-.5 1.8-1.2 2.8-1.8 1.1-.7 2.2-1.6 3.2-2.4 1.1-.8 2.2-1.8 3.1-2.8 1.1-1.1 2-2.2 2.8-3.2 0-.1.1-.1.1-.2 1-1.3 1.8-2.6 2.4-4 .7-1.7 1.1-3.5 1.1-5.4 0-1.7-.4-3.4-1.1-4.9.5 0 .6-.1.7-.3 0 .1 0 0 0 0z" fill="#E2001A"/><path d="M88.6 15.8v-.2c-.1-.6-.2-1.1-.4-1.7-.2-.6-.4-1.3-.7-2.2 0 0 0-.1-.1-.1-.7-1.9-1.9-2.9-2.9-3.5-1-.6-2-.8-3.2-.8-.7 0-1.4.1-2.2.4h-.4c-1.4.5-2.9 1-4.3 1.6-1.4.6-2.8 1.2-4.1 1.8-1.3.6-2.5 1.2-3.8 1.9-1.2.6-2.3 1.2-3.2 1.8-.7.4-1.2 1-1.7 1.6l-.6.6c-.4.5-.6 1.1-.7 1.7l-6.4 29.5v.2c-.1.7-.1 1.4-.1 2 0 1.4.2 2.6.7 3.6.5 1.1 1.1 1.9 1.9 2.8l.2.2c.4.4.6.7 1 1 .5.5 1.1 1 1.7 1.3 1 .6 1.9 1.1 3.1 1.2.4 0 .7.1 1.1.1.7 0 1.4-.1 2.3-.4.7-.1 1.4-.5 2.2-.8.1-.1.4-.1.5-.2 1.6-.8 3.1-1.6 4.7-2.4 1.7-.8 3.2-1.7 4.8-2.5 1.3-.6 2.3-1.3 3-2.2 1-1.2 1.6-2.8 1.6-4.6 0-1.2-.2-2.4-.6-3.6-.4-1-.7-1.9-1.1-2.8-.1-.2-.2-.5-.4-.7.8-.6 1.6-1.2 2.2-2 1-1.2 1.4-2.6 1.4-4.2 0-.5 0-.8-.1-1.4 0-.2 0-.4-.1-.6l-.4-1.7c-.2-1-.6-1.9-1.1-2.8 0-.1-.1-.1-.1-.2-.4-.7-.8-1.3-1.3-1.8 1-.4 1.9-.7 2.9-1.1h.1c1.7-.7 2.9-1.6 3.6-2.6 1-1.2 1.4-2.8 1.4-4.6-.3-.6-.3-1.2-.4-1.6z" fill="#E2001A"/><path d="M113.9 11.3c-.4-1.2-.7-2.4-1.2-3.4S111.6 6 111 5.3c-.5-.6-1.1-1.3-1.6-1.8l-.1-.1c-1.4-1.6-3.4-2.5-5.4-2.8-.5 0-1-.1-1.4-.1-1.1 0-2.3.1-3.4.5-1.2.4-2.4.8-3.7 1.4-1.1.6-2.3 1.2-3.4 1.9s-2.3 1.4-3.4 2.3c-1.1.7-2 1.6-3 2.3-1.2 1-2.2 2.5-3.1 5-.6 1.7-1.2 3.6-1.8 5.9-.6 2.2-1.1 4.6-1.6 7.1s-1 4.9-1.4 7.3c-.5 2.3-.8 4.4-1.2 6.4l-.2 1.4-.5 2.9v.1c-.2.7-.2 1.4-.2 2 0 1.7.4 3.1 1.1 4.3.8 1.3 1.9 2.2 3.4 2.8.8.4 1.9.5 2.9.6.5 0 1.1 0 1.6.1h.6c.6 0 1.3-.1 1.9-.2 1.6-.4 2.9-1.3 3.7-2.5.6-.8 1.1-1.9 1.4-3.1v-.1c.1-.5.2-1 .4-1.3.7.6 1.3 1.1 2 1.6.1.1.4.2.5.2 1.2.6 2.4 1.1 3.6 1.2h1c.8 0 1.6-.1 2.3-.2.7-.2 1.3-.5 1.9-.7.1-.1.2-.1.5-.2.6-.2 1.1-.6 1.8-1 .6-.4 1.1-.8 1.6-1.3.7-.6 1.2-1.3 1.7-2.2.7-1.2 1.1-2.5 1.1-3.8 0-2-1-4-2.5-5.3-.1-.1-.2-.1-.2-.2-.4-.4-.7-.6-1.1-1.1-.6-.6-1.1-1.1-1.7-1.8-.1-.1-.2-.2-.2-.4 1.3-1.3 2.6-2.6 3.7-4 2.2-2.4 3.7-4.9 4.8-7.6.1-.1.1-.4.2-.5.2-.7.5-1.6.7-2.3.2-.8.2-1.8.2-2.8-.1-1.2-.2-2.7-.6-3.9z" fill="#E2001A"/><path d="M12.6 59.2c0-1.7.1-3.5.5-5.5s.7-4.2 1.3-6.4c.5-2.2 1.1-4.4 1.8-6.6.6-2.2 1.3-4.3 1.9-6.4.2-.7.5-1.2.7-1.6.2-.4.6-.6 1.1-.7.5-.1 1.1-.1 1.8 0 .6.1 1.3.4 1.9.6.6.4 1.1.7 1.4 1.2.3.5.6 1.1.6 1.8 0 .5-.1 1.1-.4 1.7-.5 1.6-1.1 3.4-1.7 5.4-.6 1.9-1.1 4-1.6 5.9-.5 1.9-1 3.8-1.2 5.5-.4 1.8-.5 3.2-.5 4.3 0 .6 0 1.1.1 1.4.1.3.2.5.5.4.5-.1 1-.7 1.6-1.8.6-1.1 1.1-2.5 1.7-4.2.6-1.7 1.1-3.6 1.7-5.6.6-2 1.1-4.2 1.6-6.4s1-4.2 1.3-6.2c.4-2 .7-3.7 1.1-5.2v.2c.1-.7.4-1.3.7-1.7.3-.4.7-.6 1.2-.7.4-.1.7-.1 1.1-.1.4 0 .8.1 1.2.2.4.1.8.2 1.2.4.4.2.8.2 1.2.5.5.2.8.5 1 .7.2.2.2.6.2 1.1v.6c0 .2-.1.5-.1.7-.7 3.8-1.6 7.4-2.3 10.8-.7 3.4-1.6 6.5-2.4 9.1-.8 2.8-1.8 5.2-2.8 7.2-1 2-2.2 3.7-3.4 4.9-.7.6-1.4 1.2-2.2 1.6-.8.4-1.6.7-2.4 1-2.2.6-4.1.6-5.5.1-1.4-.5-2.6-1.7-3.4-3.5-.2-1.3-.5-2.9-.5-4.7zm44.3-20.8c-.5.5-1 1.1-1.4 1.6.7.5 1.3 1.2 1.7 2.2.5 1 .6 2 .6 3 0 1.3-.2 2.4-.7 3.5-.5 1.1-1.2 2.2-2 3.2-.6.8-1.4 1.8-2.3 2.6-.8.8-1.8 1.7-2.8 2.5-1 .8-1.9 1.6-3 2.2-1 .7-1.9 1.3-2.8 1.8-.8.5-1.6.8-2 1.1-.4.1-.8.1-1.1.1-.4-.1-.7-.2-1.1-.5-.7-.2-1.3-.5-2-.8-.6-.4-1.2-1-1.8-1.7-.4-.4-.6-.8-.7-1.1-.2-.4-.2-.8-.2-1.4v-.8c0-.2.1-.6.1-.8.2-1.9.6-4 1.1-6.2.5-2.2 1-4.6 1.3-7 .5-2.4 1-4.7 1.3-7.1.5-2.4.7-4.6 1-6.7.8-.7 1.8-1.4 2.8-2 1.1-.7 2-1.3 3.1-1.9 1.1-.6 2.2-1.2 3.2-1.7 1.1-.5 2.2-.8 3.2-1.1 1.3-.4 2.5-.5 3.6-.5s2 .4 2.6 1c.4.4.7.8 1.1 1.2.4.5.6 1 1 1.4.2.6.5 1.2.6 1.8.1.6.2 1.3.2 2.2 0 1.4-.4 2.9-1 4.3-.7 1.4-1.6 2.8-2.5 4-.2.6-.6 1.2-1.1 1.6zm-12.5 9c-.2 1-.5 1.9-.7 2.8-.2.9-.5 1.8-.7 2.6 1-.6 1.8-1.2 2.6-1.9.8-.6 1.4-1.3 2-1.9.6-.6 1-1.2 1.3-1.7.3-.5.5-1 .5-1.4 0-.2-.2-.4-.6-.4-.4 0-.8 0-1.3.1-.7.5-1.7 1-3.1 1.8zm2.4-9.2c1.1-.8 2.2-1.7 3-2.5.8-.8 1.7-1.7 2.3-2.4.6-.7 1.1-1.4 1.4-2 .3-.6.5-1.1.5-1.4 0-.2-.4-.2-1.2 0-.6.1-1.2.5-1.9.8-.7.3-1.6 1-2.5 1.7-.2.7-.5 1.6-.7 2.4-.2.8-.5 1.7-.7 2.6 0 .2 0 .4-.2.8zm18.9-19.4c1-.5 2-1.1 3.2-1.7l3.6-1.8c1.2-.6 2.5-1.2 3.8-1.7 1.3-.6 2.6-1 3.8-1.4h.2c.7-.2 1.3-.2 1.8.1.5.2.7.7 1 1.3.2.6.4 1.1.5 1.4.1.3.2.8.2 1.3.1.2.1.6.1 1 0 .7-.1 1.3-.5 1.7-.2.4-.8.7-1.7 1.1-1.3.5-2.5 1-3.8 1.6-1.3.5-2.8 1.1-4.2 1.8-.2 1-.6 2-1 3.2-.4 1.2-.6 2.3-1 3.5 1.1-.4 2-.8 3.1-1.1l.2-.1c.7-.2 1.3-.2 1.7-.1.4.1.7.5 1 1.2.2.6.5 1.1.6 1.7.1.6.2 1.1.4 1.7.1.4.1.7.1 1 0 .5-.1.8-.4 1.3-.2.4-.6.7-1.1 1-.5.2-1 .6-1.6.8-.6.2-1.2.5-1.8.8-1 .5-1.8 1-2.6 1.3-.8.3-1.7.8-2.6 1.3-.2.6-.4 1.3-.6 1.9-.2.7-.4 1.3-.4 1.8 1-.5 1.9-.8 2.9-1.3s2-.8 3.1-1.1c.6-.1 1.2-.1 1.6 0 .4.2.7.6 1 1.2.2.6.6 1.3.8 2 .2.7.4 1.4.4 2.2 0 .6-.1 1.1-.4 1.4-.3.3-.7.7-1.4 1-1.6.8-3.1 1.7-4.8 2.5-1.7.8-3.2 1.7-4.8 2.5-.7.4-1.2.6-1.7.7-.5.1-1 .2-1.4.1-.4 0-.7-.2-1.1-.5-.4-.2-.7-.5-1.1-.8l-1.2-1.2c-.4-.4-.6-.7-.8-1.2 0-.5-.1-1.1-.1-1.8 0-.4 0-.8.1-1.3l6.4-29.5.5-.8zm30.2 25c-.6-.5-1.3-1.1-1.9-1.8-.7-.6-1.3-1.3-1.9-2-.6-.7-1.2-1.4-1.8-2.2-.5 1.8-.8 3.5-1.2 5-.4 1.7-.8 3.2-1.2 4.9-.1.6-.4 1.1-.6 1.4-.2.4-.6.6-1.1.7-.4.1-.6.1-1 .1-.6 0-1.2-.1-1.7-.1-.6 0-1.1-.1-1.4-.2-.5-.1-.7-.5-1-.8-.3-.3-.4-1-.4-1.8 0-.4 0-.8.1-1.3.1-1 .5-2.4.8-4.3.4-1.9.7-4.1 1.2-6.4.5-2.3 1-4.7 1.4-7.2.4-2.5 1.1-4.8 1.6-7s1.1-4 1.7-5.5c.6-1.6 1.1-2.5 1.6-2.9 1-.7 1.9-1.4 2.9-2.2 1-.8 2-1.4 3-2 1-.6 2-1.2 3-1.7s1.9-.8 2.9-1.1c1.1-.2 2-.4 3-.2s1.8.5 2.5 1.3c.5.5.8 1 1.3 1.6.5.6.8 1.2 1.2 1.9.4.7.6 1.6.8 2.4.2.8.4 1.9.4 3 0 .6 0 1.2-.1 1.8-.1.5-.2 1.1-.5 1.6-.8 2.2-2.3 4.4-4.2 6.6-1.9 2.2-4.2 4.3-6.8 6.6.5.6 1.1 1.3 1.7 2 .6.7 1.2 1.3 1.8 2 .6.7 1.2 1.3 1.8 1.9.6.6 1.2 1.1 1.7 1.6.6.5.8 1 .8 1.7 0 .5-.1.8-.4 1.3-.3.5-.6.8-1 1.2-.4.4-.7.6-1.1.8-.4.2-.6.5-.8.5-.2.1-.6.4-.8.5-.2.1-.6.2-.8.4-.5.1-1 .1-1.6.1-.6 0-1.1-.2-1.7-.6-1-.6-1.6-1.1-2.2-1.6zM98.1 16c-.7.4-1.4.8-2.3 1.4-.4 1.1-.7 2.3-1.1 3.5-.4 1.2-.7 2.5-1.1 3.8 0 .2-.1.4-.1.6 0 .2-.1.4-.1.6 1.3-1 2.4-2 3.5-3 1.1-1.1 1.9-2 2.6-3 .7-1 1.2-1.8 1.7-2.6.4-.8.6-1.4.6-1.8-.1-.4-.7-.4-1.7-.1-.7 0-1.3.2-2 .6z" fill="#FFF"/></g></svg>