<svg xmlns="http://www.w3.org/2000/svg" viewBox="0 0 123 58" width="123" height="58" fill="currentColor" role="img" aria-label="muenchenticket" class="header__logo-icon"><g><path d="M1.72,0h22.35c.94.01,1.71.78,1.72,1.72v3.22c-.01.94-.78,1.71-1.72,1.72h-9.74c-.13,0-.24.09-.29.22,0,.14.07.22.14.22l10.46,4.08c.65.26,1.07.88,1.08,1.58v.36h0c.02.7-.42,1.33-1.08,1.58l-10.39,3.94c-.14.05-.2.2-.15.34,0,0,0,.01,0,.02.07.07.14.14.22.14h9.74c.94.01,1.71.78,1.72,1.72v3.22c-.01.94-.78,1.71-1.72,1.72H1.72c-.94-.01-1.7-.77-1.72-1.72h0v-2.79c.01-1.62,1-3.06,2.51-3.65l11.82-4.44c.14-.05.2-.2.15-.34,0,0,0-.01,0-.02,0-.08-.07-.14-.14-.14L2.51,8.24C.99,7.66,0,6.21,0,4.59V1.72C.01.78.78.01,1.72,0Z"></path><path d="M1.72,32.21h22.35c.94.01,1.71.78,1.72,1.72h0v1.08c0,2.13-1.71,3.86-3.84,3.87-.01,0-.02,0-.03,0h-4.22c-.46-.02-.84.34-.86.79,0,.02,0,.04,0,.07h0v16.55c-.01.94-.78,1.71-1.72,1.72h-4.37c-.94-.01-1.71-.78-1.72-1.72h0v-16.55c.02-.46-.34-.84-.79-.86-.02,0-.04,0-.07,0H3.87C1.74,38.88.01,37.17,0,35.04c0-.01,0-.02,0-.04v-1.08c.01-.94.78-1.71,1.72-1.72Z"></path><g class="mt-logo-text"><path d="M38.97,34.63h-2.44c-.79,0-1.43-.64-1.43-1.43v-.65c0-.23.17-.42.4-.43.01,0,.02,0,.03,0h10.53c.23,0,.42.17.43.4,0,.01,0,.02,0,.03v.65c0,.79-.64,1.43-1.43,1.43h-2.44c-.15.01-.28.13-.29.29h0v10.89c0,.23-.17.42-.4.43-.01,0-.02,0-.03,0h-2.15c-.23,0-.42-.17-.43-.4,0-.01,0-.02,0-.03v-10.89c-.06-.15-.2-.26-.36-.29h0Z"></path><path d="M48.71,32.05h1.65c.23,0,.42.17.43.4,0,.01,0,.02,0,.03v1.65c0,.23-.17.42-.4.43-.01,0-.02,0-.03,0h-1.72c-.23,0-.42-.17-.43-.4,0-.01,0-.02,0-.03v-1.65c.03-.25.25-.44.5-.43ZM48.5,36.27h2.01c.23,0,.42.17.43.4,0,.01,0,.02,0,.03v9.03c0,.23-.17.42-.4.43-.01,0-.02,0-.03,0h-2.01c-.23,0-.42-.17-.43-.4,0-.01,0-.02,0-.03v-8.96c-.01-.25.18-.47.43-.5h0Z"></path><path d="M58.95,39.86c-.15-.01-.28-.13-.29-.29-.07-.57-.29-1.58-1.22-1.58-1.36,0-1.5,2.08-1.5,3.15-.06,1.05.19,2.1.72,3.01.21.22.49.35.79.36.29,0,1.15-.14,1.29-1.65.01-.15.13-.28.29-.29h2.08c.23,0,.42.17.43.4,0,.01,0,.02,0,.03v.07c-.08.94-.51,1.81-1.22,2.44-.79.64-1.78.97-2.79.93-1.26.1-2.5-.37-3.37-1.29-.9-1.11-1.36-2.51-1.29-3.94,0-4.51,3.3-5.16,4.66-5.16,1.98-.17,3.75,1.25,4.01,3.22,0,.29-.14.5-.43.5h-.07l-2.08.08Z"></path><path d="M63.97,32.05h2.01c.23,0,.42.17.43.4,0,.01,0,.02,0,.03h0v7.59q0,.07.07.07s.07-.03.07-.07c0,0,0,0,0,0l2.72-3.72c.07-.13.21-.22.36-.22h2.58c.1-.01.2.06.21.16,0,.02,0,.04,0,.05,0,.07,0,.14-.07.14l-2.87,3.66c-.14.13-.14.35-.01.49,0,0,0,0,.01.01l3.22,5.01c.07.14.07.29-.07.36-.07,0-.07.07-.14.07h-2.72c-.17-.01-.32-.09-.43-.22l-2.72-4.87c0-.07-.07-.07-.14,0l-.07.07v4.58c0,.23-.17.42-.4.43-.01,0-.02,0-.03,0h-2.01c-.23,0-.42-.17-.43-.4,0-.01,0-.02,0-.03h0v-13.18c.02-.23.2-.41.43-.43Z"></path><path d="M76.87,42.01c-.15.01-.28.13-.29.29-.16,1.14.64,2.19,1.78,2.35.07.01.15.02.22.02.75.07,1.45-.41,1.65-1.15.07-.14.14-.22.29-.22h1.86c.23,0,.42.17.43.4,0,.01,0,.02,0,.03v.07c-.14.59-.44,1.14-.86,1.58-.94.83-2.19,1.24-3.44,1.14-1.28.06-2.54-.38-3.51-1.22-.93-1.07-1.39-2.46-1.29-3.87-.12-1.8.66-3.54,2.08-4.66.82-.56,1.8-.86,2.79-.86,1.68-.06,3.25.86,4.01,2.36.44.99.63,2.07.57,3.15-.02.23-.2.41-.43.43l-5.87.15ZM80.01,40.21c.15-.01.28-.13.29-.29h0c-.07-.65-.29-1.86-1.72-1.86-1.02.02-1.84.84-1.86,1.86,0,.14.07.36.29.36h3.01v-.07Z"></path><path d="M91.7,45.73c.02.22-.14.41-.36.43-.63.14-1.28.21-1.93.22-2.94,0-2.94-1.86-2.94-2.65v-5.51c-.01-.15-.13-.28-.29-.29h-1.15c-.23,0-.42-.17-.43-.4,0-.01,0-.02,0-.03h0v-1c0-.23.17-.42.4-.43.01,0,.02,0,.03,0h1.15c.15-.01.28-.13.29-.29h0v-2.08c0-.38.23-.72.57-.86l1.65-.72c.22-.09.47.02.56.24,0,.02.01.03.02.05v3.37c.01.15.13.28.29.29h1.58c.23,0,.42.17.43.4,0,.01,0,.02,0,.03h0v1c0,.23-.17.42-.4.43-.01,0-.02,0-.03,0h-1.58c-.15.01-.28.13-.29.29h0v4.51c0,.93,0,1.5,1.29,1.5h.64c.16.03.3.14.36.29h0l.14,1.22Z"></path><path d="M67.12,17.86v-1.36c0-.29.14-.5.43-.5h1.86c.23.02.41.2.43.43v.57c0,.08.07.14.14.14q.07,0,.14-.07c.69-.91,1.79-1.42,2.94-1.36,1.31-.13,2.54.64,3.01,1.86.27.95.37,1.95.29,2.94v4.87c0,.23-.17.42-.4.43-.01,0-.02,0-.03,0h-2.08c-.23,0-.42-.17-.43-.4,0-.01,0-.02,0-.03h0v-5.73c.02-.36-.03-.73-.14-1.08-.28-.53-.83-.86-1.43-.86-.6,0-1.15.3-1.5.79-.26.46-.38.98-.36,1.5v5.37c0,.23-.17.42-.4.43-.01,0-.02,0-.03,0h-2.01c-.23,0-.42-.17-.43-.4,0-.01,0-.02,0-.03h0v-7.52Z"></path><path d="M84.96,19.58c-.15-.01-.28-.13-.29-.29-.07-.57-.29-1.58-1.22-1.58-1.36,0-1.5,2.08-1.5,3.15-.06,1.05.19,2.1.72,3.01.21.22.49.35.79.36.29,0,1.15-.14,1.29-1.65.01-.15.13-.28.29-.29h2.08c.23,0,.42.17.43.4,0,.01,0,.02,0,.03v.07c-.08.94-.51,1.81-1.22,2.44-.77.67-1.78,1-2.79.93-1.26.1-2.5-.37-3.37-1.29-.9-1.11-1.36-2.51-1.29-3.94,0-4.51,3.3-5.16,4.66-5.16,1.98-.17,3.75,1.25,4.01,3.22,0,.29-.14.5-.43.5h-.07l-2.08.07Z"></path><path d="M90.47,11.77h1.93c.23,0,.42.17.43.4,0,.01,0,.02,0,.03h0v4.73c0,.08.07.14.14.14q.07,0,.14-.07c.63-.77,1.59-1.2,2.58-1.15,1.12-.05,2.2.46,2.87,1.36.49.82.71,1.77.65,2.72v5.59c0,.23-.17.42-.4.43-.01,0-.02,0-.03,0h-1.93c-.23,0-.42-.17-.43-.4,0-.01,0-.02,0-.03h0v-5.52c0-.57,0-2.15-1.65-2.15-.99-.04-1.83.73-1.87,1.72,0,.1,0,.19.01.29v5.59c0,.23-.17.42-.4.43-.01,0-.02,0-.03,0h-2.01c-.23,0-.42-.17-.43-.4,0-.01,0-.02,0-.03v-13.19c-.06-.21.07-.43.28-.49.05-.01.1-.02.15-.01Z"></path><path d="M104.94,21.73c-.15.01-.28.13-.29.29h0c-.16,1.14.64,2.19,1.78,2.35.07.01.15.02.22.02.75.07,1.45-.41,1.65-1.15.07-.14.14-.22.29-.22h1.86c.23,0,.42.17.43.4,0,.01,0,.02,0,.03v.07c-.14.59-.44,1.14-.86,1.58-.94.83-2.19,1.24-3.44,1.14-1.28.06-2.54-.38-3.51-1.22-.93-1.06-1.39-2.46-1.29-3.86-.12-1.8.66-3.54,2.08-4.66.82-.56,1.8-.86,2.79-.86,1.68-.06,3.25.86,4.01,2.36.44.99.63,2.07.57,3.15-.02.23-.2.41-.43.43l-5.88.14ZM107.95,19.94c.15-.01.28-.13.29-.29h0c-.07-.65-.29-1.86-1.72-1.86-1.02.02-1.84.84-1.86,1.86,0,.17.12.32.29.36h3.01v-.07Z"></path><path d="M113.76,17.86v-1.36c0-.29.14-.5.43-.5h1.86c.23.02.41.2.43.43v.57c0,.08.07.14.14.14q.07,0,.14-.07c.69-.91,1.79-1.42,2.94-1.36,1.31-.13,2.54.64,3.01,1.86.27.95.37,1.95.29,2.94v4.87c0,.23-.17.42-.4.43-.01,0-.02,0-.03,0h-2.08c-.23,0-.42-.17-.43-.4,0-.01,0-.02,0-.03h0v-5.73c.02-.36-.03-.73-.14-1.08-.28-.53-.83-.86-1.43-.86-.6,0-1.15.3-1.5.79-.26.46-.38.98-.36,1.5v5.37c0,.23-.17.42-.4.43-.01,0-.02,0-.03,0h-2.01c-.23,0-.42-.17-.43-.4,0-.01,0-.02,0-.03h0v-7.52Z"></path><path d="M57.16,16.07c.23,0,.42.17.43.4,0,.01,0,.02,0,.03v5.44c0,.86,0,2.15,1.58,2.15,1.86,0,1.86-1.36,1.86-3.08v-4.51c0-.23.17-.42.4-.43.01,0,.02,0,.03,0h2.08c.23,0,.42.17.43.4,0,.01,0,.02,0,.03v6.09c.07,2.08.07,2.36.07,2.65h0v.22c0,.29-.14.5-.43.5h-1.93c-.23-.02-.41-.2-.43-.43l-.07-.5c0-.08-.07-.14-.14-.14q-.07,0-.14.07c-.65.79-1.63,1.24-2.65,1.22-1.16.02-2.26-.48-3.01-1.36-.49-.8-.71-1.72-.64-2.65v-5.74c0-.23.17-.42.4-.43.01,0,.02,0,.03,0h2.15v.07ZM56.87,11.92h1.07c.23,0,.42.17.43.4,0,.01,0,.02,0,.03v1.43c0,.23-.17.42-.4.43-.01,0-.02,0-.03,0h-1.07c-.23,0-.42-.17-.43-.4,0-.01,0-.02,0-.03h0v-1.36c-.01-.25.18-.47.43-.5ZM60.88,11.92h1.07c.29,0,.43.22.43.5h0v1.43c0,.23-.17.42-.4.43-.01,0-.02,0-.03,0h-1.08c-.23,0-.42-.17-.43-.4,0-.01,0-.02,0-.03h0v-1.43c-.01-.25.18-.47.43-.5h0Z"></path><path d="M35.95,11.77h3.51c.65,0,1.22.44,1.36,1.08l2.58,8.81c0,.07.07.14.22.07.04,0,.07-.03.07-.07,0,0,0,0,0,0l2.79-8.81c.19-.59.74-1,1.36-1h3.37c.19-.01.35.13.36.32,0,.01,0,.03,0,.04v13.4c.01.19-.13.35-.32.36-.01,0-.03,0-.04,0h-2.22c-.19.01-.35-.13-.36-.32,0-.01,0-.03,0-.04h0v-10.82c0-.08-.06-.14-.14-.14s-.14.06-.14.14l-3.22,10.24c-.21.57-.75.97-1.36,1h-.36c-.63,0-1.18-.4-1.36-1l-3.3-10.32c0-.07-.07-.14-.14-.07-.08,0-.14.07-.14.14v10.82c.01.19-.13.35-.32.36-.01,0-.03,0-.04,0h-2.07c-.19.01-.35-.13-.36-.32,0-.01,0-.03,0-.04h0v-13.4c-.06-.16.02-.35.18-.41.03-.01.07-.02.11-.02h0Z"></path></g></g></svg>