<svg viewBox="0 0 435 109" xmlns="http://www.w3.org/2000/svg">
<path d="M85.5709 62.1385C85.5709 83.7231 68.1829 101.288 46.8017 101.288C25.4204 101.288 8.04143 83.7231 8.04143 62.1385V1.02832H0.785156V62.1385C0.785156 87.698 21.4272 108.486 46.8017 108.486C72.1761 108.486 92.8182 87.6891 92.8182 62.1385V1.21632H85.5619V62.1385H85.5709Z" fill="currentColor"></path>
<path d="M195.869 0C185.226 0 176.571 8.07407 176.571 18.0052V91.0666C176.571 96.9696 171.214 101.778 164.627 101.778C158.041 101.778 152.683 96.9786 152.683 91.0666V17.9244C152.683 8.07407 144.1 0.0627984 133.548 0.0627984C122.995 0.0627984 114.412 8.07407 114.412 17.9244V107.816H121.685V17.9244C121.685 12.0573 127.007 7.28461 133.557 7.28461C140.107 7.28461 145.428 12.0573 145.428 17.9244V91.0756C145.428 100.962 154.048 109 164.645 109C175.243 109 183.862 100.962 183.862 91.0756V18.0052C183.862 12.0573 189.256 7.22181 195.887 7.22181C202.519 7.22181 207.913 12.0573 207.913 18.0052V107.816H215.186V18.0052C215.168 8.07407 206.512 0 195.869 0Z" fill="currentColor"></path>
<path d="M428.731 84.7205C428.159 85.3908 427.569 86.0433 426.969 86.6778C417.989 96.0982 405.879 101.291 392.865 101.291C366.9 101.291 345.782 80.1801 345.782 54.2429C345.782 28.3057 366.909 7.19485 392.865 7.19485C405.36 7.19485 417.122 12.0301 425.994 20.8159L431.057 15.7035C420.825 5.56819 407.265 0 392.865 0C362.937 0 338.582 24.3284 338.582 54.2429C338.582 84.1574 362.928 108.486 392.865 108.486C407.873 108.486 421.835 102.507 432.184 91.6383C432.881 90.9054 433.561 90.1457 434.214 89.386L428.731 84.7205Z" fill="currentColor"></path>
<path d="M282.852 0C278.685 0 275.026 2.48841 273.528 6.35128L234.725 107.972H242.533L280.355 8.92053C280.973 7.34844 282.425 7.22267 282.852 7.22267C283.288 7.22267 284.741 7.34844 285.349 8.90257L323.063 107.972H330.871L292.167 6.34229C290.678 2.48841 287.019 0 282.852 0Z" fill="currentColor"></path>
</svg>