<svg viewBox="0 0 2000 454" xmlns="http://www.w3.org/2000/svg"><path d="M338.006 308.573s.13.056-.263.087c-2.869 6.147-5.345 12.265-7.822 18.382-.648 1.888-1.297 3.777-2.346 6.109-2.824 5.677-5.433 10.834-7.633 16.16-4.754 11.514-9.298 23.115-13.928 34.68-5.377 13.02-10.753 26.039-16.467 39.642-1.43 2.533-2.523 4.482-3.616 6.431 0 0 .002-.134-.255.096-10.385 2.43-20.513 4.63-30.64 6.829-.3.066-.6.132-1.312.175-.412-.024-.037-.068-.037-.068-4.572.65-9.143 1.846-13.716 1.86-21.95.069-43.902-.182-66.643-.413-8.814-1.318-16.865-2.395-24.857-3.804-11.925-2.104-23.808-4.442-35.71-6.68-13.34-4.03-27.045-7.156-39.933-12.321-16.14-6.469-31.608-14.611-47.672-22.629-3.958-2.426-7.61-4.256-11.262-6.086 0 0 .1-.012.103-.326-1.697-1.1-3.398-1.885-5.099-2.67 0 0 .086-.005.143-.274-1.137-1.044-2.333-1.82-3.529-2.595-1.104-.644-2.209-1.289-3.632-2.634.409-2.698 1.129-4.698 1.864-6.693A3046.919 3046.919 0 0 1 10 354.957c.012.059-.105.083.235-.027 1.16-2.39 1.982-4.671 3.001-7.245 1.726-3.773 3.253-7.254 4.97-11.016a1162.04 1162.04 0 0 0 9.585-22.4c5.78-14.702 11.496-28.989 17.63-43.292 1.506-.004 2.595.006 3.626.022-.058.005-.068-.11-.017.242 1.057.816 2.064 1.28 3.016 1.752-.054.007-.068-.101-.022.248 1.056.818 2.066 1.286 3.018 1.762-.057.007-.072-.107-.008.243 1.732 1.144 3.4 1.938 5.019 2.737-.05.005-.06-.094-.056.253 1.995 1.473 3.986 2.599 6.223 3.965 14.697 7.545 28.858 15.51 43.666 21.998 20.99 9.198 42.938 15.727 65.81 20.21 11.323 1.308 22.33 2.452 33.801 3.57 10.874-.123 21.351.562 31.449-2.921 6.555-2.262 12.246-5.724 13.736-12.97 1.436-6.987-3.182-11.404-8.2-15.69-2.44-1.326-4.748-2.36-7.084-3.329-.028.065-.165.029-.135-.346-6.053-2.462-12.015-5.053-18.24-6.55-26.108-6.275-52.301-12.192-78.446-18.314-6.259-1.465-12.45-3.213-19.042-4.881-11.667-4.421-23.454-7.854-34.137-13.409-12.447-6.472-24.51-14.038-35.67-22.536-11.535-8.785-20.447-20.255-25.847-34.464-3.089-11.568-7.363-22.616-8.783-34.018-2.878-23.1.511-45.753 8.958-67.842 4.91-13.021 11.763-24.548 21.268-34.692 4.788-4.72 9.233-9.423 13.678-14.07 0 .057-.111.058.227.073.478-.368.618-.751.753-1.092-.004.043-.09.034.246.16 1.477-.943 2.618-2.012 4.038-3.269 9.432-5.734 18.585-11.28 28.095-16.799 1.161-.676 1.965-1.38 2.87-2.105.1-.022.27.098.687.18C127.432 7.878 155.824 2.611 185 1h27.94c21.759 2.315 42.827 3.576 63.46 7.27 17.015 3.047 33.514 8.976 50.241 13.628 10.168 3.938 20.534 7.443 30.439 11.96 7.198 3.282 13.787 7.902 21.165 12.41.194 2.362.107 4.318-.497 6.1-1.793 5.296-3.79 10.522-5.707 15.776-6.62 16.263-13.212 32.539-19.873 48.785-4.715 11.501-9.535 22.959-14.284 34.446-1.085 2.626-2.363 4.579-5.805 1.688-8.971-4.736-17.592-8.906-26.213-13.077-3.47-1.45-6.941-2.9-10.794-4.942-2.98-1.401-5.579-2.213-8.177-3.024 0 0 .111-.02.037-.314-.963-.733-1.821-1.25-2.743-1.601-26.976-10.26-54.838-16.508-83.69-17.79-6.086-.27-12.241 1.024-18.364 1.598-4.071 1.262-8.142 2.524-12.881 3.934-.866.52-1.064.892-1.262 1.265 0 0 .012-.103-.289-.192-7.684 5.338-8.784 14.758-2.762 20.988 6.49 6.78 15.233 9.136 24.344 12.386 5.467 1.53 10.26 2.81 15.089 3.926 27.235 6.298 54.519 12.395 81.7 18.923 8.48 2.037 16.69 5.203 25.025 7.853 0 0-.121.026-.006.293 4.906 2.082 9.697 3.898 14.487 5.714 0 0 .097-.126.174.247.5.503.922.632 1.345.762 0 0-.129.017-.013.28 3.415 1.74 6.716 3.218 10.016 4.695 0 0-.112.015-.05.3 2.393 1.425 4.723 2.564 7.053 3.704 0 0-.108.01-.098.304 1.009.771 2.007 1.249 3.005 1.726 7.76 6.197 15.672 12.217 23.152 18.734 1.529 1.332 2.623 5.004 1.907 6.792-8.678 21.678-17.732 43.205-26.702 64.766-.188.452-.537.837-1.381 1.668-1.364 2.985-2.158 5.555-2.952 8.124 0 0-.02-.099-.345-.046-1.112 2.54-1.899 5.027-2.685 7.514ZM963.007 44.996c7.233-11.854 14.467-23.708 22.37-35.814 46.997-.235 93.325-.225 139.653-.19 2.493.001 4.986.205 7.522.762.053 139.985.064 279.522.07 419.06 0 .665-.057 1.33-.52 2.092-2.426.182-4.42.342-6.415.342-41.663.015-83.325.014-124.987.01-7.713-.002-7.725-.015-7.725-7.59-.003-64.493 0-128.986-.012-193.479 0-1.826-.151-3.651-.232-5.477l-1.748.463c-21.092 32.886-42.18 65.775-63.284 98.653-1.252 1.951-2.628 3.822-4.555 6-1.447 1.937-2.285 3.607-3.122 5.277 0 0-.01-.099-.314-.109-1.433 2.03-2.563 4.069-3.694 6.108 0 0-.011-.108-.3-.084-3.76 5.71-7.229 11.397-10.698 17.084 0 0-.014-.11-.312-.065-.773 1.077-1.247 2.11-1.722 3.144-1.874 3.015-3.5 6.234-5.74 8.946-.924 1.117-3.165 1.146-5.437 1.65-.925-.495-1.22-.971-1.514-1.448-.346-.49-.691-.978-1.101-2.108-.806-1.513-1.547-2.385-2.289-3.257 0 0 .115.018.17-.282-.69-1.095-1.438-1.888-2.185-2.681 0 0 .096.009.196-.303-1.33-2.107-2.76-3.903-4.19-5.699 0 0 .097.009.192-.308-1.67-2.776-3.434-5.236-5.199-7.695 0 0 .099.01.202-.292-.664-1.104-1.433-1.906-2.2-2.707 0 0 .094.012.211-.29-.635-1.13-1.387-1.96-2.14-2.79-.02-.169-.04-.337-.263-.888a8.333 8.333 0 0 1-.308-1.842c-2.098-2.489-4.47-4.797-6.244-7.498-7.32-11.146-14.47-22.403-21.658-33.636-4.085-6.385-8.119-12.803-12.29-19.87-1.51-2.51-2.905-4.356-4.301-6.202 0 0 .107.014.182-.287-.678-1.103-1.433-1.905-2.187-2.706 0 0 .103.012.2-.292-.668-1.104-1.433-1.903-2.198-2.703 0 0 .1.012.195-.304-1.736-2.783-3.567-5.25-5.399-7.716-.103-.666-.205-1.333-.188-2.283.12-.284.162-.305.162-.305-2.077-2.45-4.418-4.723-6.177-7.382-4.27-6.454-8.268-13.088-12.686-20.226-.837-.968-1.365-1.36-1.893-1.753 0 0 .078-.007.162-.358-.586-.435-1.256-.52-1.926-.605-.065 1.66-.185 3.32-.185 4.98-.01 64.468-.008 128.936-.009 193.404 0 1.5-.054 3-.007 4.498.094 2.955-1.204 3.982-4.023 3.011 0 0 .133-.014 0-.151a14.842 14.842 0 0 1-.716-1.497c-4.374-10.038-8.864-20.028-13.087-30.13-3.568-8.531-6.827-17.192-10.426-26.489-4.207-10.322-8.176-19.967-12.26-29.562-.52-1.22-1.648-2.183-2.494-3.264 0 0-.05-.163.122-.641-1.594-4.408-3.359-8.338-5.124-12.268 0 0 .109.026.086-.182a10.526 10.526 0 0 1-.024-.73c-1.575-3.367-3.15-6.734-4.757-10.812-2.456-5.93-4.88-11.15-7.303-16.368 0 0-.047-.163.062-.638-1.298-3.397-2.704-6.319-4.11-9.24 0 0 .103.018.226-.312-2.28-5.763-4.684-11.197-7.088-16.63-7.563-17.798-15.225-35.555-22.657-53.408-6.048-14.528-11.81-29.176-17.73-43.757-.686-1.69-1.575-3.298-2.415-5.66-2.793-6.598-5.542-12.48-8.29-18.36 0 0-.051-.159.141-.631-1.596-4.405-3.385-8.337-5.173-12.27 0 0 .118.025.187-.303-1.558-4.3-3.185-8.273-4.811-12.244-2-4.235-4-8.47-6.092-13.5-.098-32.79-.02-64.786-.2-96.78-.026-4.782 1.417-6.262 6.242-6.245 46.993.17 93.987.12 140.98.131.664.42 1.593.68 1.95 1.282 6.992 11.772 13.917 23.584 21.171 35.627.649.724.982 1.207 1.316 1.69.082.266.165.533.5 1.366.715.963 1.178 1.36 1.64 1.757.053.181.105.363.187 1.197 2.398 4.132 4.767 7.61 7.136 11.088 0 0-.109-.013-.19.288 1.011 1.773 2.102 3.244 3.193 4.715 0 0-.113-.015-.187.285.68 1.097 1.434 1.895 2.188 2.693 0 0-.095-.012-.208.277.324.78.762 1.271 1.199 1.762 0 0-.122-.02-.161.289 1.695 2.77 3.43 5.233 5.163 7.696 0 0-.11-.015-.187.287 1.013 1.772 2.103 3.24 3.193 4.71 0 0-.113-.015-.185.281.977 1.762 2.026 3.228 3.075 4.694 7.978 12.928 16 25.829 23.907 38.8 2.561 4.202 4.816 8.591 7.48 13.073.588.692.907 1.205 1.227 1.718.092.28.184.559.6 1.416a120.774 120.774 0 0 0 2.335 3.533c.103.294.207.588.653 1.382.733.918 1.125 1.337 1.516 1.755.343.495.685.99 1.097 2.103.607.974 1.146 1.33 1.685 1.687l.487-1.566s.019.113.311.031c.42-.732.548-1.383.675-2.033 0 0 .014.097.325.09.772-1.034 1.233-2.06 1.694-3.087 0 0 .017.112.309.05 1.088-1.725 1.885-3.39 2.682-5.054 0 0 .02.11.346.05.778-1.215 1.231-2.372 1.684-3.528 0 0-.13-.085.252-.16.5-.504.616-.934.733-1.363 0 0 .008.115.294.075 1.761-2.716 3.236-5.39 4.711-8.066 0 0 .021.119.294.017 1.078-1.741 1.882-3.381 2.686-5.022 0 0 .014.106.293.069.746-1.005 1.213-1.973 1.68-2.94 11.278-18.625 22.551-37.254 33.847-55.868.853-1.405 1.874-2.708 3.29-4.566.613-1.239.752-1.97.89-2.702 0 0 .012.104.312.104 1.76-2.7 3.22-5.402 4.681-8.102 0 0 .014.102.319.075 1.097-1.71 1.89-3.392 2.683-5.075 0 0 .011.1.308.099.772-1 1.247-2 1.722-2.998Z"/><path d="M454 384.445s-.113-.151.292-.327c.488-.855.57-1.536.652-2.216 0 0 .02.081.338.045.446-.706.575-1.377.704-2.047 0 0 .038.12.353-.07.425-1.262.536-2.334.647-3.406 0 0-.12-.108.297-.191.837-1.502 1.258-2.92 1.68-4.339 0 0 .002.073.423.216 48.728.104 97.036.1 145.343-.02 5.436-.013 10.853-.675 12.13 6.651.038.218.805.308 1.232.458 0 0 .049.144-.2.572.235 1.381.72 2.335 1.206 3.288 0 0-.122-.038-.2.288 1.352 3.446 2.781 6.566 4.21 9.686 0 0-.109-.025-.22.295.661 1.504 1.432 2.69 2.203 3.874 0 0 .045.143-.17.573.584 2.042 1.384 3.654 2.184 5.266 0 0-.11-.03-.225.294.665 1.523 1.445 2.721 2.226 3.92 0 0 .037.132-.202.54.576 2.016 1.391 3.626 2.207 5.235 0 0-.094-.032-.26.228.166 1.377.5 2.495.835 3.613 1.408 2.746 2.816 5.492 4.221 8.974.395.95.793 1.166 1.19 1.381 0 0 .046.135-.25.577.018 5.176-3.645 3.724-5.873 3.726-62.493.08-124.986.067-187.479.046-1.777-.001-3.554-.263-5.569-.423l1.06-7.256s.03.12.327-.02c.404-1.083.512-2.027.62-2.97 0 0 .028.076.38-.007.795-1.88 1.237-3.678 1.679-5.476 0 0-.124-.082.34-.31.524-1.046.585-1.862.646-2.68 0 0-.128-.04.274-.09.518-.515.634-.98.75-1.446 0 0 .032.13.338-.072.421-1.265.535-2.329.65-3.392 0 0-.116-.124.262-.208.502-.5.625-.915.749-1.33 0 0 .03.13.34-.065.421-1.264.533-2.334.645-3.404 0 0-.118-.122.294-.227.842-1.503 1.272-2.901 1.702-4.3 0 0 .04.118.361-.073.428-1.26.534-2.33.64-3.398 0 0-.123-.086.33-.19.86-1.674 1.268-3.244 1.676-4.814 0 0-.121-.111.316-.25.856-1.668 1.275-3.198 1.695-4.729ZM1246.02 331.039l27.945 42.786c3.545-5.286 6.73-9.81 9.683-14.48 7.055-11.153 13.992-22.38 21.009-33.557.524-.835 1.3-1.51 2.49-2.643.622-1.005.71-1.626.799-2.247 0 0 .01.065.437.2 7.403.141 14.38.149 21.396.608.07 36.403.1 72.355.128 108.307 0 .5.182 1.178-.07 1.467-1.123 1.282-2.318 3.423-3.585 3.494-5.297.295-10.628-.043-15.978-.605-.03-26.67-.03-52.883-.03-80.503l-3.228 4.067c-4.591 7.286-9.13 14.605-13.79 21.848a295.999 295.999 0 0 1-11.1 16.079c-.769.952-.93 1.599-1.092 2.246 0 0-.01-.087-.33-.127-.778 1.016-1.233 2.072-1.689 3.128 0 0-.011-.101-.333-.118-.759 1.027-1.197 2.07-1.636 3.115 0 0-.01-.08-.339-.107-.775 1.019-1.222 2.064-1.669 3.11 0 0-.001-.07-.358-.215-1.166-.045-1.975.056-2.785.157 0 0 .063-.01.231-.325-.636-1.108-1.44-1.9-2.244-2.69 0 0 .066.001.262-.3-.623-1.107-1.441-1.912-2.26-2.716 0 0 .078.008.233-.303-.362-.79-.88-1.27-1.397-1.748-9.132-13.665-18.263-27.33-27.494-41.665-.812-.729-1.524-.786-2.236-.844-.052 1.495-.148 2.99-.149 4.486-.012 22.795-.126 45.59.083 68.383.042 4.66-1.508 6.266-6.015 5.907-4.465-.355-8.964-.295-13.486-.873-.047-36.157-.05-71.858-.08-107.56 0-1.979-.22-3.958-.34-5.937 0 0-.002.112.408.21 7.839.02 15.266-.057 22.694-.133 0 0-.064.012-.168.368.323.568.75.78 1.178.992 0 0 .009.113-.194.504.598 1.324 1.398 2.258 2.197 3.191 0 0-.087-.015-.221.29.65 1.107 1.433 1.908 2.217 2.708 0 0-.083-.012-.235.277.28.782.71 1.275 1.14 1.768ZM1906.123 356.916c-10.197 15.152-20.403 30.298-30.586 45.46-4.588 6.832-4.568 6.847-9.145.016-9.043-13.497-18.085-26.996-27.246-41.16-.5-.85-.881-1.032-1.262-1.215 0 0 .072.013.242-.293-.635-1.103-1.44-1.9-2.245-2.698 0 0 .083.006.203-.324-3.564-1.745-2.022 1.39-2.028 2.459-.098 20.804-.073 41.609-.073 62.413 0 14.843.003 14.78-14.759 13.935-2.889-.166-4.155-1.048-4.15-4.109.064-35.45.066-70.902-.007-106.353-.007-3.067 1.114-4.068 4.098-4.005 5.978.128 11.963-.028 17.945-.068 0 0-.08 0-.19.315.658 1.111 1.426 1.907 2.193 2.702 0 0-.08-.012-.228.256.263.747.675 1.226 1.087 1.705l24.94 38.366c1.955 3.006 3.908 6.014 6.306 9.706 4.108-6.207 7.676-11.494 11.138-16.85 6.068-9.388 12.58-18.541 17.914-28.333 3.337-6.124 7.222-8.825 14.11-7.996 4.103.494 8.318.052 12.888.168.406.138.362.42.366.924-.03 38.015-.065 75.525-.537 113.077-4.598.085-8.78-.123-12.914.235-4.852.42-6.255-1.482-6.211-6.247.21-22.64.097-45.282.082-67.923-.001-1.492-.145-2.983-.222-4.474l-1.71.311ZM1433.007 218.576s.122.018-.282.071c-.504.523-.604.993-.704 1.463 0 0-.008-.104-.292-.084-.401.65-.518 1.28-.635 1.909-4.593 6.106-10.458 10.532-17.624 13.176-3.2 1.18-2.417 2.702-.87 4.848a1984.367 1984.367 0 0 1 25.249 35.85c.53.82.896 1.01 1.262 1.199 0 0-.083-.019-.288.296-1.633.786-3.052 1.632-4.49 1.665-6.479.147-12.963.063-19.444.063 0 0 .07.005.21-.303-.341-.791-.822-1.275-1.303-1.76-7.844-11.022-15.689-22.044-23.652-33.728-.5-.853-.88-1.044-1.26-1.234 0 0 .102.005.151-.311-.348-.432-.746-.548-1.144-.664 0 0 .082-.001.165-.396-1.386-.866-2.843-1.704-4.323-1.746-5.639-.161-11.291.098-16.926-.124-3.698-.145-4.942 1.234-4.875 4.905.184 9.956.076 19.917.046 29.876-.005 1.739-.191 3.476-.301 5.345-6.61 0-12.574 0-18.572-.46-.06-38.12-.084-75.777.339-113.587 22.496.306 44.544.763 66.592 1.22 2.223.938 4.445 1.876 7.23 3.19 1.318.486 2.074.596 2.83.707 0 0-.095.025-.042.343.718.431 1.382.545 2.046.658 0 0-.086.011-.11.294.355.442.733.601 1.111.76 0 0-.122.006-.067.302 1.061.74 2.066 1.186 3.07 1.63 0 0-.073.01-.125.32.345.443.74.576 1.136.71 0 0-.093 0-.149.304.346.433.748.562 1.149.69 0 0-.073-.007-.21.3.975 1.448 2.088 2.59 3.201 3.731 0 0-.095-.01-.197.283.33.779.76 1.264 1.192 1.75 0 0-.116-.02-.17.29.677 1.145 1.407 1.978 2.137 2.812 0 0 .057.16-.163.658 1.979 8.338 2.987 16.241 1.083 24.306-.666 2.823-1.32 5.648-1.981 8.473M1411 190l-.073-.704c-.501-.1-1.003-.2-1.741-.31 0 0-.173-.404-.184-1.162-.368-.287-.736-.573-.962-.868 0 0 .008.142-.32-.63-.763-.105-1.527-.21-2.347-.184 0 0-.137-.043-.33-.861-.538-.098-1.075-.196-1.76-.172 0 0-.183-.057-.331-.805-.735-.366-1.461-1.03-2.208-1.054-11.96-.396-23.922-.808-35.885-.852-.949-.003-2.7 2.66-2.733 4.114-.24 10.321-.165 20.651-.078 30.977.01 1.184.72 2.361 1.644 3.528.176.037.352.073 1.273.343 11.002-.097 22.003-.195 33.487-.857 4.182-2.167 8.364-4.334 13.311-6.68.409-1.131.818-2.264 1.097-3.452 0 0 .042-.136.885-.32.087-.54.173-1.081.126-1.702 0 0 .04-.152.86-.263 1.758-4.535 2.717-9.021-.853-13.395 0 0 .123-.11.299-.901-.762-.936-1.524-1.871-2.168-2.799 0 0-.008.118.023-.565-.382-.138-.763-.277-1.032-.426ZM1870.958 75.286s.12.294-.188.765c-.457 5.929-.769 11.39-.695 16.845.051 3.72.642 7.434.992 11.151 0 0-.122.005.109.315 21.746.396 43.26.482 64.775.567.026 5.722.051 11.444-.4 17.504-28.347.337-56.216.337-84.535.337v-6.98c0-23.943-.028-47.887.01-71.83.02-11.965.16-23.93.697-35.89 26.25.006 52.051.1 77.85-.089 4.428-.032 5.984 1.376 5.661 5.707-.284 3.807-.065 7.652-.531 11.611-19.712.172-38.96.165-58.208.329-1.85.015-3.69 1.087-5.536 1.669 0 0 .12.288-.19.756-.113 8.66.082 16.852.277 25.044 0 0 .045.233-.084.757.298.72.726.915 1.154 1.11 0 0-.1.022.043.388 19.041.46 37.94.552 56.84.645-.03 5.741-.058 11.482-.554 17.624-18.39.35-36.312.272-54.234.306-1.085.002-2.169.886-3.253 1.359Z"/><path d="M1339.973 75.146s.05.484-.18 1.078c-.102 9.287.025 17.98.152 26.672 0 0 .086.331.144.896 2.104.938 4.147 1.624 6.195 1.636 15.635.09 31.272-.024 46.907.074 13.142.083 11.544-1.889 11.7 12.206.035 3.134-1.076 4.514-4.336 4.5-26.944-.124-53.888-.16-80.921-.682-.117-37.006-.148-73.552-.15-110.099 0-1.141.29-2.283.917-3.397 28.51.001 56.546-.026 84.582-.053-.029 5.445-.058 10.89-.576 16.88-20.094.59-39.699.596-59.301.751-1.716.014-3.424 1.011-5.135 1.551 0 0 .052.478-.178 1.068-.104 8.947.022 17.304.147 25.662 0 0 .076.394.18 1.03 1.891.844 3.676 1.228 5.463 1.234 14.777.049 29.555.028 44.333.028h7.106v17.93s-.008-.123-.419-.2c-17.532-.07-34.653-.1-51.774-.004-1.621.009-3.238.807-4.856 1.239Z"/><path d="M1238.996 256.304c-2.76 6.385-5.518 12.77-8.88 19.545-.75 1.343-.9 2.296-1.048 3.249 0 0-.022-.06-.45-.189-6.777-.129-13.125-.129-19.713-.129l3.089-11.36s-.12-.11.285-.259c.517-.633.628-1.118.74-1.603 0 0-.104-.25.272-.426 2.153-4.688 3.93-9.202 5.707-13.715 0 0-.118-.13.265-.198.83-1.116 1.278-2.164 1.726-3.212 7.14-16.932 14.187-33.905 21.468-50.777 3.154-7.311 6.793-14.413 10.394-22.194.175-.767.166-.948.158-1.13 0 0 .025.11.327.007.74-1.74 1.18-3.378 1.618-5.015 0 0 .032.098.38-.012.453-.893.557-1.676.661-2.458 0 0-.134-.06.297-.134 2.123-.826 3.792-2.158 5.511-2.226 5.419-.214 10.857.045 16.287.121 0 0 .042.149-.13.602.927 2.435 2.027 4.417 3.127 6.398 0 0 .045.15-.122.59.27 1.049.706 1.655 1.142 2.261 0 0-.104-.034-.244.247.592 1.716 1.325 3.152 2.058 4.587 6.636 14.83 13.354 29.625 19.886 44.5 7.4 16.854 14.633 33.782 22.024 51.392.48.969.875 1.223 1.27 1.477 0 0 .048.13-.291.493-1.785 1.007-3.212 2.152-4.68 2.208-5.697.217-11.406.087-17.11.087-3.243-8.285-6.487-16.57-9.882-25.129-.152-.274-.348-.619-.348-.619l.32-.227c-.32-.076-.593-.234-1.275-.937-1.256-.644-2.055-.981-2.854-.983-15.25-.037-30.5-.052-45.748.001-1.086.004-2.17.57-3.255.874 0 0-.236.065-.732-.004-.732.313-.968.695-1.204 1.076 0 0-.016-.06-.36.07-.457 1.136-.572 2.144-.686 3.151m43.89-32.556-14.914-33.216-1.47.442c-5.84 13.688-11.682 27.376-18.208 41.406.13.44.254 1.265.388 1.266 12.08.138 24.161.214 36.242.293.002-1.03.003-2.06-.045-3.247 0 0 .12-.112.338-.863-.652-1.817-1.305-3.635-2.33-6.081ZM1421.001 116.425s-.12-.132.29-.26c1.174-2.332 1.938-4.538 2.702-6.744 0 0-.122-.109.279-.17 1.51-2.986 2.62-5.91 3.73-8.834 0 0-.123-.117.287-.23 1.175-2.33 1.94-4.549 2.706-6.767 0 0-.122-.113.276-.184 1.509-2.986 2.619-5.902 3.728-8.817 0 0-.12-.127.212-.126 1.039-1.169 1.746-2.339 2.454-3.509 2.706-6.728 5.27-13.517 8.146-20.172 7.242-16.754 14.624-33.448 22.381-50.703.536-1.352.64-2.165.743-2.98 0 0 .06.039.496.08 6.855.11 13.274.18 19.692.25 0 0-.002.136-.029.5.273.968.572 1.574.871 2.18 0 0 .072.398.077.977 1.01 2.123 2.016 3.668 3.022 5.213 0 0 .05.187-.12.67.923 2.425 2.018 4.37 3.113 6.314 0 0 .05.18-.021.658.301.79.675 1.103 1.048 1.416 0 0 .047.147-.138.6.918 2.421 2.021 4.39 3.124 6.36 0 0 .051.159-.134.625.923 2.439 2.03 4.411 3.138 6.384 0 0 .048.156-.12.624 1.268 3.128 2.706 5.787 4.144 8.446 0 0 .039.14-.151.574.915 2.406 2.02 4.378 3.125 6.35 0 0 .05.156-.115.627 1.267 3.121 2.7 5.771 4.132 8.421 0 0 .046.144-.165.588.915 2.436 2.042 4.428 3.168 6.42 0 0 .037.15-.07.604.284.768.676 1.083 1.069 1.398 0 0 .045.14-.182.56.568 2.041 1.362 3.662 2.156 5.282 0 0-.104.06.092-.037.508.068.642.325.596.675a22435.874 22435.874 0 0 0 16.117 37.293c.14.263.46.503.46.503l-.224.202s.09.167.309.088c.317.02.498.12.496.217-.005.23-.097.46-.153.69.066.159.132.318.035 1.136-1.474 1.328-2.747 2.463-4.105 2.575-3.434.284-6.937-.176-10.356.187-4.32.459-6.892-1.211-8.116-5.252-1.669-3.484-3.338-6.968-5.028-11.096-.447-1.185-.871-1.726-1.296-2.267 0 0 .11.027.225-.287-.657-1.495-1.428-2.675-2.2-3.855 0 0-.043-.157.08-.636-.286-.803-.694-1.127-1.102-1.45 0 0-.026-.133.122-.561-.279-.677-.705-.926-1.132-1.175 0 0 .129-.02-.057-.352-1.823-.494-3.46-.794-5.1-.798-14.458-.036-28.917-.034-43.376-.014-5.872.009-6.65.815-7.32 7.268 0 0-.018-.1-.326-.061-1.436 3.045-2.565 6.053-3.694 9.06 0 0-.024-.118-.318-.005-.75 1.743-1.206 3.373-1.661 5.003 0 0-.034-.108-.356.027-.44.907-.56 1.679-.68 2.45 0 0 .128.1-.292.212-2.04 1.3-3.563 3.31-5.298 3.511-4.274.498-8.649.066-12.977.203-2.68.084-3.39-1.37-3.464-3.609 0 0 .031.108.364-.017.446-.9.558-1.677.671-2.453m63.251-71.959a82.112 82.112 0 0 0-1.532-2.936l-3.987-8.33c-5.11 11.627-9.755 22.198-15.117 32.926l-5.128 10.865h40.75c-2.528-4.065-4.42-7.105-6.367-10.3 0 0 .117-.114.506-.892-1.153-1.992-2.306-3.984-3.51-6.125 0 0 .123-.099.469-.878-1.146-2.278-2.292-4.556-3.326-6.809 0 0-.026.112.19-.634-1.1-2.132-2.2-4.265-3.195-6.366 0 0-.031.107.247-.52ZM1766.808 432.085s-.152.035-.607-.058c-.77.291-1.083.675-1.397 1.06 0 0-.144.043-.608-.152-6.29 1.498-12.116 3.192-17.943 4.886-6.844-.29-13.688-.58-21.116-1.201-4.803-1.758-9.02-3.185-13.238-4.612 0 0 .114-.015.046-.305-1.728-1.083-3.388-1.876-5.048-2.669 0 0 .09-.01.101-.278-.347-.44-.706-.61-1.064-.78 0 0 .101-.057-.175-.013-.658-.594-1.04-1.233-1.422-1.872-1.029-.814-2.058-1.63-3.37-2.953a15.173 15.173 0 0 0-1.746-1.875c-7.674-9.063-8.484-20.162-9.199-32.178.01-22.985-.054-45.059.215-67.395 4.797-.376 9.28-.261 13.716-.668 4.501-.413 5.992 1.093 5.93 5.747-.247 18.557-.133 37.12-.049 55.679.009 1.828.731 3.653 1.123 5.48.45 10.485 3.384 19.88 12.319 27.054l2.805 1.059s-.115.012.036.294c6.802 3.885 13.928 2.5 20.932 2.167.745-.036 1.444-1.039 2.165-1.593 0 0 .139-.049.558.206 2.362-.907 4.304-2.068 6.245-3.229 0 0-.01.115.304.162.415-.354.517-.756.619-1.158 0 0 .029.106.255.338 1.065-.575 1.905-1.383 2.745-2.19 2.644-5.803 5.289-11.607 7.922-18.215.287-6.584.799-12.362.84-18.144.12-16.281-.018-32.564.149-48.844.016-1.565 1.41-4.436 2.228-4.46 5.742-.165 11.5.258 17.181.966-.137 22.57-.202 44.668-.268 66.765-.668 6.126-.607 12.445-2.173 18.332-2.38 8.942-7.04 16.747-16.053 21.843-.964.773-1.343 1.3-1.722 1.828 0 0-.008-.076-.334-.159-.518.323-.71.73-.902 1.135ZM1502.188 319.917s.148-.05.657.161c9.074.146 17.64.081 26.205.016 9.047 1.841 17.255 5.499 24.81 10.851 2.875 2.037 3.143 3.822 1.149 6.428-1.809 2.363-3.532 4.79-5.911 7.493-.756.947-.893 1.592-1.03 2.236 0 0-.03-.064-.317-.213-2.476-.394-4.665-.64-6.853-.885 0 0 .114-.015.051-.327-1.886-1.101-3.708-1.89-5.53-2.68 0 0-.115.124-.21-.252-.52-.505-.943-.634-1.366-.762-8.98-3.535-18.134-5.358-27.707-2.692-4.631 1.29-8.15 3.82-8.877 8.94-.856 6.042.427 11.246 6.274 14.408 1.46.79 2.94 1.543 5.039 2.62 8.9 2.46 17.17 4.611 25.44 6.763 8.543 2.972 16.53 6.608 22.174 14.293 7.377 10.046 6.063 27.976-2.22 37.447-11.742 13.428-26.967 15.41-43.12 13.937-12.59-1.148-24.068-6.006-34.487-13.289-6.042-4.223-6.24-5.958-.994-10.931 1.167-1.106 1.898-2.67 3.47-4.226 1.12-1.25 1.599-2.299 2.078-3.348 0 0 .058.06.446.203 1.84.038 3.295-.067 4.749-.173 0 0-.062.015-.163.336.322.452.745.582 1.168.712 0 0-.102.002-.11.328 1.028.766 2.064 1.205 3.1 1.645 0 0-.076.01-.148.322.338.444.748.577 1.158.709 0 0-.104.002-.118.312 1.026.772 2.065 1.234 3.104 1.695 0 0-.116.022-.02.314.739.407 1.38.523 2.022.639 0 0-.082.019-.072.363.697.444 1.384.542 2.072.64 0 0-.086.02-.07.362.7.44 1.385.54 2.069.64 0 0-.088.02-.05.337.711.44 1.382.563 2.054.686 0 0-.116.037.059.364 1.252.434 2.33.54 3.407.646 0 0 .059-.127.187.294 5.174 1.21 10.218 2.573 15.266 2.587 3.331.01 6.668-1.918 10.002-2.978 0 0-.025.102.26.233.773-.322 1.26-.774 1.748-1.227 0 0-.012.126.279.128.408-.377.525-.755.642-1.134 0 0 .003.068.342.183.441-.318.543-.75.645-1.183 0 0 .01.064.351.18.442-.315.543-.747.644-1.179 0 0 .015.062.358.185.446-.313.549-.75.651-1.186 0 0 .006.065.353.181 3.79-4.948 3.87-9.435.583-13.072 0 0 .083.021.253-.264-.31-.775-.792-1.265-1.273-1.756-1.157-.752-2.314-1.505-3.722-2.856-.916-.767-1.58-.935-2.245-1.104 0 0 .11-.02.046-.335-1.723-.762-3.383-1.209-5.042-1.655 0 0 .114-.038-.062-.357-1.254-.433-2.332-.548-3.411-.663 0 0-.086.126-.227-.28-4.861-1.508-9.58-2.61-14.3-3.712 0 0 .12-.035-.055-.317-1.43-.41-2.685-.535-3.94-.662 0 0 .105-.037-.037-.352-2.24-.766-4.338-1.217-6.437-1.668 0 0-.026.123-.044-.281-2.175-1.167-4.333-1.931-6.49-2.695 0 0 .082-.008.13-.324-2.012-1.434-4.072-2.553-6.133-3.672 0 0 .07-.003.177-.32-.655-.784-1.417-1.25-2.178-1.717 0 0 .108-.004.116-.28-.366-.428-.742-.579-1.117-.73 0 0 .113 0 .118-.278-.37-.424-.745-.568-1.12-.712 0 0 .09.009.204-.296-.66-1.105-1.434-1.906-2.208-2.707 0 0 .103.004.166-.322-.343-.53-.749-.734-1.155-.938 0 0-.036-.133.182-.55-.475-2.897-1.168-5.375-1.861-7.854-.712-8.665-.882-17.233 4.982-25.248.574-1.022.645-1.597.716-2.173 0 0 .041.054.36.143.447-.333.574-.755.7-1.177 0 0 0 .088.314.158.433-.34.553-.749.673-1.158 0 0 .012.09.381.077.467-.521.565-1.029.663-1.537 0 0 .176-.416.666-.23 1.441-.646 2.393-1.477 3.345-2.308 0 0-.01.117.29.143.42-.363.54-.752.66-1.142 0 0 0 .064.293.284.772-.284 1.251-.788 1.73-1.292 0 0-.01.091.347.191.604-.329.85-.758 1.096-1.187 0 0 .043.057.408.25.973-.286 1.583-.765 2.193-1.244 0 0-.033.102.29.257 2.17-.64 4.018-1.435 5.865-2.23Z"/><path d="M1383.002 411.004c2.151 1.57 4.303 3.14 6.905 5.198 9.444 3.456 18.388 4.726 27.146-.299 0 0-.028.123.277.176 2.43-1.693 4.555-3.438 6.681-5.183 0 0 0 .116.268.114.423-.373.578-.745.733-1.117 0 0 .004.122.309.09.75-1.049 1.195-2.067 1.64-3.084 0 0 .006.078.272.138.424-.3.581-.66.738-1.02 1.32-3.672 2.64-7.344 4.165-11.737.22-1.478.237-2.236.334-3.411.102-8.584.1-16.749.15-24.914.093-14.987.218-29.974.8-44.926 6.398.035 12.325.035 19.067.035-2.16 30.243 2.913 59.775-3.523 88.957-2.843 9.905-9.515 16.615-18.824 21.8-6.793 2.073-12.876 4.066-18.96 6.058-5.136.015-10.272.03-16.028-.24-2.282-.406-3.945-.525-5.608-.645 0 0-.251.093-.476-.28-5.539-2.487-10.852-4.603-16.165-6.72 0 0 .12-.016.033-.295-1.07-.744-2.055-1.21-3.04-1.676 0 0 .09-.004.143-.302-1.31-1.437-2.672-2.575-4.034-3.714-1.561-2.048-3.122-4.097-4.779-6.809-1.18-2.268-2.265-3.874-3.35-5.48 0 0-.008-.123.196-.572-1.026-7.015-2.255-13.583-3.48-20.618 0-21.398.012-42.328-.037-63.259-.005-2.123-.388-4.246-.596-6.37 0 0 .007.075.433.188 6.675.113 12.923.113 19.525.113v6.725c0 19.482-.207 38.968.148 58.444.09 4.91 1.977 9.787 3.039 14.68 0 0-.117-.032-.212.262.345.761.785 1.228 1.224 1.695 0 0-.104-.012-.191.315.334.524.755.722 1.175.92 0 0 .042.132-.243.544.23 1.022.742 1.631 1.256 2.24 0 0-.12-.019-.155.284.36.418.757.534 1.154.65 0 0-.066.01-.296.266.576 1.097 1.38 1.938 2.186 2.78Z"/><path d="M1230.17 10.92s.154-.047.623.099c10.574-4.055 21.044-5.69 31.9-4.006 5.165.8 10.273 1.97 15.407 2.971 0 0-.112.023-.03.29.717.452 1.35.637 1.983.821 4.223 2.46 8.538 4.779 12.631 7.439 2.18 1.417 2.882 3.388.74 5.8-1.951 2.199-3.797 4.596-5.17 7.182-2.435 4.589-5.347 4.658-9.56 1.459-.608-.456-.638-.762-.669-1.067 0 0 .087.07-.071-.226-.79-.406-1.423-.517-2.055-.627 0 0 .083-.02.05-.348-.705-.444-1.377-.56-2.05-.676 0 0 .108-.032-.022-.376-.904-.443-1.679-.542-2.453-.641 0 0 .007.094-.142-.347-.718-.517-1.288-.593-1.857-.67 0 0-.069.135-.128-.27-4.494-1.593-8.882-3.433-13.38-3.76-3.597-.263-7.328 1.316-11 2.077 0 0-.222.057-.74-.043-.82.3-1.123.702-1.426 1.102 0 0-.132.046-.523-.235-1.342.56-2.292 1.4-3.242 2.241 0 0 .009-.115-.307-.135-1.082 1.362-1.848 2.744-2.615 4.126 0 0-.02-.076-.373-.039-2.38 3.75-2.43 7.355.233 10.813 3.678 5.145 9.06 7.387 14.913 9.01 13.76 3.817 28.011 6.405 40 15.979.57.782.922.965 1.274 1.149 0 0-.117-.003-.13.272.367.424.747.571 1.127.719 0 0-.114 0-.108.277.376.418.746.559 1.115.7 0 0-.072-.01-.247.301 1.282 2.826 2.738 5.34 4.195 7.855 0 0 .059.16-.153.709-.775 8.45-1.339 16.352-1.902 24.253 0 0-.024-.113-.303-.025-.415.736-.553 1.383-.69 2.03 0 0-.021-.111-.33-.04-.413.726-.518 1.382-.622 2.038 0 0-.014-.064-.32-.13-.454.333-.603.732-.752 1.131 0 0-.008-.123-.311-.048-.74 1.062-1.177 2.05-1.613 3.037 0 0-.02-.061-.35-.147-.449.333-.567.75-.685 1.169 0 0 0-.08-.327-.176-.441.329-.556.752-.67 1.175 0 0-.001-.063-.284-.277-1.107.618-1.93 1.45-2.754 2.28 0 0 .005-.109-.301-.152-.419.355-.532.752-.645 1.15 0 0-.013-.066-.301-.265-.786.287-1.282.772-1.78 1.257 0 0 .022-.112-.307-.19-1.202.68-2.077 1.439-2.951 2.197 0 0-.12.018-.547-.207-12.128 3.66-24.031 4.208-36.108 1.947-3.375-.632-6.755-1.241-10.134-1.86-6.706-3.883-13.527-7.583-20.061-11.736-2.588-1.644-3.575-3.934-.477-6.886 3.183-3.033 5.551-6.923 8.653-10.924 3.75 2.616 7.103 4.954 10.894 7.74 1.014.564 1.59.68 2.166.796 0 0-.114.033.035.352.914.434 1.678.548 2.443.663 0 0 .107-.124.184.254.498.503.92.629 1.34.755 0 0-.125.017-.018.275.742.413 1.378.567 2.014.72 0 0-.12.03.026.298 7.627 1.327 15.086 2.641 22.602 3.277 2.042.173 4.257-1.701 6.393-2.636 0 0 .17-.055.63.083 1.394-.621 2.328-1.38 3.262-2.138 0 0-.008.114.28.144.421-.362.556-.753.69-1.144 0 0 0 .094.3.14.435-.348.57-.743.706-1.138 0 0 .015.113.333.048.444-.547.57-1.028.696-1.51 0 0-.14-.044.303-.197.525-.697.607-1.24.69-1.784 0 0-.123-.134.292-.268 1.791-4.143 2.609-8.06-1.414-11.176 0 0 .12-.007.077-.346-.542-.448-1.04-.555-1.54-.662 0 0-.406-.176-.367-.693-.363-.784-.764-1.051-1.165-1.319 0 0 .126.007.096-.281-1.053-.762-2.077-1.237-3.101-1.711-12.345-3.795-24.729-7.473-37.006-11.477-2.751-.897-5.13-2.933-8.258-4.456-.76-.639-.945-1.267-1.13-1.896-1.076-.85-2.152-1.699-3.5-3.087a11.747 11.747 0 0 0-1.799-1.837c-.049-.179-.097-.358-.194-1.208-4.786-11.805-4.878-22.74 1.274-33.447.444-.773.473-1.785.694-2.685 0 0 .01.09.288.102.439-.36.6-.732.76-1.104 0 0-.002.116.248.128.416-.334.581-.68.746-1.025.227-.053.454-.106.853-.45.523-.724.874-1.157 1.225-1.59 0 0-.043.11.214.06.409-.406.561-.761.713-1.116 0 0 .001.118.262.088.415-.388.569-.745.723-1.101 0 0-.01.088.292.23 1.103-.648 1.903-1.44 2.704-2.23 0 0-.004.102.302.154.496-.34.684-.73.873-1.121Z"/><path d="M512.079 224.959c.92-2.23 1.842-4.461 3.167-7.261 1.517-4.469 2.63-8.368 3.742-12.266 0 0-.129-.066.27-.11 1.843-4.17 3.287-8.295 4.731-12.42 0 0 .031.118.314-.014 1.087-2.91 1.891-5.69 2.695-8.468 0 0-.122-.11.27-.2 1.838-4.167 3.284-8.242 4.73-12.318 0 0 .029.122.292-.007 1.547-3.017 2.831-5.904 4.498-9.65l4.297 6.814s-.118-.033-.176.281c.68 1.471 1.415 2.628 2.152 3.784 0 0 .05.19-.14.681.925 2.78 2.04 5.071 3.156 7.362 0 0 .05.152-.155.62a321.912 321.912 0 0 0 7.066 20.538c1.144 2.989 2.735 5.806 4.123 8.702 0 0-.11-.022-.221.304.998 2.785 2.109 5.243 3.22 7.701 0 0-.11-.024-.23.304 1.079 2.783 2.277 5.24 3.475 7.696 1.22 3.334 2.44 6.668 3.57 10.774 2.553 7.847 5.195 14.923 7.837 22 .12.124.239.248.734.456.625.834.874 1.584 1.123 2.335.447 1.115.893 2.23 1.245 3.949.272 1.892.638 3.18.993 4.896-1.28.91-2.55 1.81-3.82 1.812-26.608.042-53.216-.017-79.84-.285-.1-.525-.158-.827-.188-1.134 3.284-9.097 6.568-18.194 10.252-27.856.835-2.404 1.27-4.243 1.706-6.082 0 0 .023.103.328.04 1.798-4.367 3.291-8.673 4.784-12.978Z"/><path d="M1544.968 164.994c.13 5.767.261 11.534-.256 17.558-10.978.23-21.31.142-31.639.247-1.376.014-2.743 1.008-4.114 1.548 0 0 .135.223-.193.653-.484 2.732-.769 5.034-.774 7.338-.07 28.85-.1 57.701-.598 86.6-6.401.05-12.345.05-18.692.05-.142-2.6-.356-4.714-.358-6.828-.023-27.74.011-55.481-.072-83.222-.006-1.994-.814-3.986-1.713-6.066-11.873-.017-23.283.051-34.692.12 0 0 .116.004.201-.406.04-4.074-.039-7.738-.04-11.401-.004-6.654.015-6.687 6.525-6.69 26.988-.014 53.976-.016 80.964.015 1.817.002 3.634.315 5.45.484ZM1771.396 104.03s.299-.081.782.196c15.457.413 30.432.467 45.404.708 14.306.23 11.928-2.517 12.297 12.432.093 3.771-1.412 4.893-4.99 4.878a9827.352 9827.352 0 0 0-69.942-.015c-3.27.01-4.83-.934-4.82-4.535.085-35.137.08-70.275.004-105.412-.007-3.33 1.332-4.337 4.473-4.251 5.154.141 10.317-.023 15.476-.058 0 0-.073.009-.178.437-.138 30.8-.194 61.17-.133 91.542.003 1.36 1.06 2.718 1.627 4.077ZM1670 7.903h60.662v18.044h-35.936v7.048c-.001 27.656-.103 55.312.092 82.967.034 4.907-1.245 6.734-6.43 6.657-13.361-.197-13.365.034-13.365-13.467 0-25.657-.113-51.314.099-76.969.04-4.84-1.434-6.366-6.238-6.174-8.65.345-17.325-.015-25.985.144-3.165.058-4.385-1.151-4.778-4.217-1.636-12.748-.613-14.032 11.887-14.032H1670Z"/><path d="M1533.46 26.036c-.55-4.522-.532-9.017-.745-13.502-.17-3.563 1.5-4.507 4.822-4.496 27.639.087 55.278.11 82.916-.02 3.882-.019 4.921 1.572 4.757 5.055-.188 3.988-.093 7.989-.176 12.449-10.049.501-20.053.81-30.033.46-4.988-.175-6.073 1.587-6.04 6.262.2 27.985-.047 55.974.228 83.958.052 5.225-1.591 6.462-6.495 6.391-13.769-.2-13.772-.008-13.772-13.98 0-25.654-.097-51.31.092-76.962.032-4.36-1.144-5.796-5.603-5.654-9.818.313-19.654.08-29.951.04Z"/><path d="M1604.405 386.832c-.825.237-1.181.41-1.447.885-.26 2.327-.908 4.353-.912 6.38-.013 7.46.186 14.92.649 22.633.486.558.628.863 1.064 1.159 21.296.033 42.298.074 63.769.129.468 5.485.468 10.956.468 17.298-28.256 0-56.248 0-84.616-.159-.395-37.535-.414-74.91-.496-112.756 1.522-.751 3.106-1.275 4.692-1.278 24.779-.052 49.559.057 74.337-.126 4.222-.031 5.616 1.315 5.258 5.398-.333 3.797-.2 7.636-.377 11.898-19.401.439-38.698.425-57.994.454-1.81.002-3.618.266-5.587.818-.513 2.771-1.153 5.132-1.165 7.495-.036 6.8.183 13.6.64 20.66 2.169.665 3.997 1.416 5.83 1.427 15.156.096 30.312.055 45.468.055h5.952c0 5.887 0 11.16-.032 16.868-18.366.522-36.699.61-55.5.762Z"/></svg>