<svg viewBox="0 0 1900 1000" xmlns="http://www.w3.org/2000/svg"><path fill-opacity=".8" fill-rule="evenodd" d="M122.801 745.621h81.593v-35.783H75.267v215.207h47.534v-93.058h60.517v-36.691h-60.517V745.62Z"/><path fill-opacity=".8" fill-rule="evenodd" d="M231.293 759.512h-33.617v146.286h33.617V759.512Zm24.656 8.054c-8.521 7.6-12.555 16.537-12.1 26.822-.455 13.423 7.625 27.301 23.306 42.956 15.252 14.318 22.866 24.59 23.32 31.309-.454 8.054-4.929 12.087-14.799 12.087-6.731 0-17.042-5.37-30.492-16.108v32.217c13.45 7.6 26.004 11.193 36.77 11.62 11.66-.427 21.957-4.033 30.491-11.62 8.067-8.508 12.101-18.34 12.555-29.973-.454-12.996-8.521-27.769-23.76-43.423-17.03-15.655-25.551-25.94-25.551-30.427 0-6.693 4.928-9.831 14.798-9.831l28.236 9.83v-27.741c-11.206-5.37-21.958-8.483-32.27-8.055-12.113-.402-22.424 3.165-30.504 10.337Zm151.552 51.451h-37.665v-59.505h-33.19v146.286h33.19v-60.841h37.665v60.841h33.63V759.512h-33.63v59.505Zm132.265-34.46v-25.045h-85.639v146.286h88.778V880.74h-55.16v-37.56h48.87v-24.163h-48.87v-34.46h52.021Zm62.761-25.045h-47.975v146.286h32.736V843.18c7.172 0 12.1 2.23 15.239 6.251l19.273 56.367h34.526l-15.24-44.279c-5.382-15.226-10.31-24.162-15.693-26.393 16.588-8.054 24.655-19.688 24.655-35.369 0-26.821-15.68-40.245-47.521-40.245Zm-15.24 59.505V784.57h10.765c12.996 0 19.274 5.37 19.274 16.108-.454 12.062-6.278 18.34-18.379 18.34h-11.66Z"/><path fill-opacity=".7" fill-rule="evenodd" d="M963.009 905.798v-85.899h.882l42.151 85.899h29.13V759.512h-31.386v83.214h-.882l-39.895-83.214h-31.4v146.286h31.4Zm167.232-122.577c5.37 0 14.798 3.138 28.248 9.83V765.31c-11.219-5.37-21.958-8.483-31.387-8.055-12.568-.428-22.425 3.139-30.933 10.311-8.08 6.693-12.567 15.655-12.114 26.822 0 13.423 7.627 27.301 22.853 42.956 15.253 14.318 22.879 24.59 23.333 31.309-.454 8.054-4.942 12.087-13.904 12.087-7.626 0-18.39-5.37-31.387-16.108v32.217c14.332 7.6 26.9 11.193 35.875 11.62 12.114-.427 22.425-4.033 30.505-11.62 8.508-8.508 12.541-18.34 12.541-29.973 0-12.996-8.054-27.769-23.76-43.423-16.135-15.655-23.76-25.94-23.76-30.427-.014-6.667 4.474-9.805 13.89-9.805Zm204.001-73.383h-135.858v215.207h47.067v-93.058h61.438v-36.691h-61.438V745.62h84.304l4.487-35.783Z"/><path fill-opacity=".7" fill-rule="evenodd" d="M1320.793 759.512v146.286h32.722V843.18c7.173 0 12.114 2.23 14.799 6.251l18.819 56.367h35.433l-15.252-44.279c-5.396-15.226-10.765-24.162-16.135-26.393 16.563-7.173 25.11-18.793 25.11-35.369 0-26.821-15.706-40.258-47.521-40.258h-47.975v.013Zm28.248 59.505V784.57h8.962c12.996 0 19.273 5.37 19.273 16.108 0 12.062-5.823 18.34-17.483 18.34h-10.752ZM1469.18 905.798V759.512h-34.5v146.286h34.5Zm104.925-121.241v-25.045h-87.416v146.286h88.765V880.74h-55.147v-37.56h49.777v-24.163h-49.777v-34.46h53.798Zm117.921-25.045h-32.269v83.214l-40.361-83.214h-31.387v146.286h31.387v-85.899h1.348l41.231 85.899h30.051V759.512Zm18.365 0v146.286h44.863c21.504 0 37.638-8.054 49.298-24.137 8.534-13.877 13.021-30.427 13.021-50.556 0-47.871-21.075-71.593-63.68-71.593h-43.502Zm28.275 24.137h9.856c20.169 0 30.038 16.562 30.038 49.674-.453 32.217-11.218 48.338-32.268 48.338h-7.626V783.65ZM881.857 757.71H846.89l-38.105 148.088h31.841l7.172-29.506h33.618l7.172 29.506h32.723l-39.454-148.089Zm-5.836 94.847h-23.774l13.009-54.136 10.765 54.136ZM1061.19 750.109c-.454 13.424-4.942 23.255-13.45 29.973v6.718c27.794-7.6 41.698-23.254 41.698-46.535 0-19.688-8.054-29.078-22.879-29.078-13.45 0-20.168 6.718-19.714 19.247-.44 8.936 4.488 15.654 14.345 19.675Zm-295.464 61.736h.894v93.953h31.387V759.512H767.97l-34.525 60.387-33.63-60.387h-30.48v146.286h31.387v-93.953l29.584 56.82h7.185l28.236-56.82Z"/><path fill-rule="evenodd" d="m1378.31 335.674-8.055-.895-255.115-233.106c-1.349-.895-2.257-2.685-2.257-4.928l-1.349-4.034-6.277-1.336-6.718 2.231v-.428c-.454-.454-.882-.895-.454-2.23l2.256-2.232 6.719-4.474c1.349-1.35 1.803-3.126.908-5.37-.908-3.58-2.257-5.81-4.047-6.264l-8.508-1.336-13.45 2.23c-2.23-.453-3.566.896-4.487 2.686l-.882 6.264 5.37 8.495-4.034 6.265-40.803 50.115-4.034 2.23h-5.395l-3.139 1.35-3.566-.455-3.14 1.35-3.138 2.243-3.138.895-3.567 3.126-3.593 4.033-169.476 73.824-32.281 3.139-7.627 1.79-33.617 12.516-21.53-9.844-4.929-.895-4.033 3.138-4.929 7.6-.895 20.584 2.698 10.298 4.488 4.474 5.382 4.034 4.034 4.474c.894 1.79.894 3.567.454 6.252-.454.895-4.034 3.138-11.206 5.37-7.173 2.684-11.206 4.474-11.66 6.264l-1.349 5.81-1.349 43.85-1.349 4.034-2.697 1.79h-.441l.895-10.285-4.488-24.603-8.962-6.265-76.664-34.007 1.348-1.348 4.047-1.35 3.139-2.23a6.122 6.122 0 0 0-1.803-5.824l-4.475-4.474-.895-5.37-2.697-1.348h-.895c-3.126-.441-6.265 1.802-9.416 6.264l-4.034 11.18.895 6.264c.895 1.79.454 3.126-.454 4.475l-52.904 45.64-25.11 6.719-.453 7.6-1.349 4.02v4.475l3.139 3.14 4.033 2.23 2.244 7.16.441 7.145-10.765 4.034c-7.172 1.79-11.206 3.139-12.1 4.475l-.895 4.915c0 2.231 0 4.034-.454 4.916l-39 66.21 10.751 36.692 2.244 1.79 2.244.454 4.034 4.02 12.554 5.824 58.727 12.528 46.186 6.265h14.798l-.895-1.79v-.454l47.068 3.139 177.997 3.566 107.169-8.495 44.382-.895 14.799-2.684-13.45 2.684h-1.349l-21.957 4.034-10.765 2.23 417.419-65.315.882-.895.908-.895 5.369-10.285 29.584-65.316 4.942-4.474 4.94-5.37v-1.348c.883-7.6-1.348-12.53-6.277-15.668l-3.138-1.349-3.139-2.23c-.882-1.35-.882-4.916 0-9.845 0-4.915.454-8.054 1.803-9.844l2.685-4.474-.454-2.244-2.231-4.916-.454-6.264c-.454-3.126-1.803-4.02-4.034-3.58l-39.506 6.719Zm-147.96-116.767 5.85 4.033 117.467 107.377 3.567 4.916-4.034 3.58-44.382 6.264h-6.278l-8.962 2.244-8.962.894a9.066 9.066 0 0 1-5.824-1.79l-65.912-61.295v-1.348l1.35-7.6 16.12-57.275Zm149.75 123.926v-.454l23.306-3.139.454.454-2.685 3.58-3.592 3.126-9.858 1.349c-3.138 0-5.369-1.777-7.626-4.916Zm-17.043 1.79 4.942-.895 2.684 2.244 2.71 2.684v.454h.429l-6.718 1.79c-1.803-.44-3.14-.895-3.593-1.79l-.454-4.487Zm51.114 11.18-3.139 2.244H1407l2.256-3.14 3.113-2.684 1.803 3.58Zm-7.613 10.298 1.348-.454 4.488.895-.882 4.033h-.454l-4.033-4.033h-.454v-.441h-.013Zm-11.66 7.6v-.441l2.257-2.685 3.566 2.685-5.823.441Zm-24.215-17.003 9.43-.895 6.744 4.915-3.593 2.231-15.252 1.349c-2.231 0-3.14-1.349-3.14-4.02-.012-1.79 1.778-3.126 5.811-3.58Zm7.626 12.982.908.895-4.941 4.916c-2.685 3.126-4.942 3.58-6.277 2.23l-.882-3.579c0-1.79 1.348-3.126 4.033-3.567l7.16-.895Zm7.173 3.126 4.046-4.034-5.823 6.719 1.777-2.685Zm-28.248-23.255-2.231 3.14-52.009 5.369.428-4.929 6.277-1.79 45.745-5.37 1.79 3.58Zm.908 9.39.427 6.706-3.112.895-26.9 2.684-4.487-.894-3.139-2.685-7.626 1.79-7.626 3.58h-.454l-.428-2.685.882-2.685 4.941-1.349 45.719-5.37h1.803v.014Zm-10.765 16.109 1.348 3.138v2.685l-3.138.441c-1.803-.44-2.685-1.336-2.685-3.126l.882-3.579 3.593.44Zm-174.859-126.624-4.487-5.37-5.824-75.613v-11.18l62.32 56.367-18.365 65.328v.441l-.454-.44-33.19-29.533Zm-3.58 6.277c1.803 0 3.567 1.336 5.824 3.58l29.13 27.742-.882 1.79v.441l-32.269-29.973-1.802-3.58Zm29.13 37.12 3.14 4.033-.883 8.055-17.042 56.82-.882 1.35-1.803 1.348-3.138-.454-1.803-9.844-5.37-86.794 27.782 25.486Zm13.45 4.033-.882-3.125c2.231.454 5.37 3.125 9.404 6.705l51.113 49.674.454.441c-1.349 0-3.138-.895-4.941-1.79l-55.148-51.905Zm-3.592 6.265 7.626 5.81 45.744 42.956-.908.454-.882.895-18.39 2.23h-5.37l-5.396 1.79-38.559 4.93v-.455h-.428l16.563-58.61Zm32.294 65.316v-6.265l27.795-3.58 5.823 4.916v.895h-.428l-33.19 4.034Zm-7.159-4.021v3.58l-2.257 2.23-40.79 5.37h-1.802l.454-3.58 1.777-2.684 5.823-1.336 34.98-4.034 1.815.454Zm-20.622 29.973v4.475l1.777 2.684-.882.882-1.349.895-29.156 3.58h-1.777l-.454-.454 2.231-8.495v-.454l26.018-3.126h3.592v.013Zm-1.803-15.2h2.231c0 3.58.908 5.81 2.685 7.6l-31.815 3.58.882-3.58 2.257-3.58 23.76-4.02Zm20.168 4.915 1.803-7.6c2.257 1.336 3.139 3.58 3.139 6.705l-4.942.895Zm10.765-5.823 1.35-3.139 4.94-.882 31.815-4.034 8.08 5.81-2.23.896-39.921 4.915h-2.685a5.007 5.007 0 0 1-1.349-3.566Zm-4.487 16.108-.882 4.475-4.942.44 1.803-3.138 2.231-5.37 1.79 3.593Zm9.857 3.139-2.231-.895-1.349-3.58.882-4.02c.908-.895 2.685-1.35 5.395-1.79l41.698-4.916.882-.44c2.685.44 5.37 2.684 8.08 6.705l-1.802 1.349-51.555 7.587Zm-65.887-25.953-2.256 4.916h-.454l-.428-5.37 3.138.454Zm-10.31-16.99v9.39l-1.803.895-46.186 6.718-.454-.895-17.483-153.912c-.454-3.58-.454-6.705.428-9.844l6.277 4.916 50.66 48.325 2.257 9.844 6.303 84.563Zm-5.396 46.069.454 8.495-2.685 1.349-31.84 4.474-3.14-.895-.881-4.474c0-1.79.428-3.139.882-3.58a6.784 6.784 0 0 1 3.592-1.79l32.27-3.58h1.348Zm141.228-18.78 5.823 5.369-.882.895c-1.349 0-2.684-.895-3.566-1.79l-1.375-4.475Zm-11.66-26.848.908 2.685-.454 3.58h-.908l-5.823-5.37v-.454l6.277-.441Zm-10.311 7.6-4.488-1.349-2.684-4.033c2.23.454 4.941 2.244 7.172 5.382Zm5.395 6.706 4.034 1.348 3.567 3.58h.454c-3.14 0-5.824-1.79-8.055-4.928Zm-309.821-135.12h-2.685l.454-2.23 62.32-75.614 40.349-16.55v24.604l-21.076 8.936v2.685l.882 4.034v.44l-2.231 4.034-3.593 3.14-.428 6.704-.908 1.35-4.033 4.474-3.567 4.915c-.908 2.685-1.362 6.265-1.803 11.18l.428 11.634-1.803.895-62.306 5.37Zm101.32-129.295.453 17.898-.454 4.02c-.881 1.35-2.684 3.14-6.251 4.475l-2.257 1.35h-3.566l-3.14-2.232c-1.36-.894-3.138-.894-4.046 0l-1.802 2.685-1.35 3.126c-.881 2.244-3.138 4.033-6.25 4.915l1.776-4.02 26.886-32.217Zm17.509 2.23 3.138 1.79 5.37.896h.454v.44a8.794 8.794 0 0 0-7.198 3.58c-2.231 2.231-1.777 4.475 1.361 6.251 2.231 1.79 4.916 1.35 8.055-.881l2.684-3.139 2.257-1.349 39.441 35.797.908 8.054 4.916 78.298h-.428l-44.383-41.153c-2.257-2.23-3.593-3.58-4.047-4.915l4.047-4.929c1.777-1.79 1.777-4.033 0-7.6l-4.513-6.264-3.113-5.37 2.685-3.126 2.684-4.033-2.256-4.475h-.428l1.348-1.79v-1.79l-1.348-4.033.881-4.02c0-3.14-1.802-4.034-4.915-4.034l-7.198 2.697c0 3.58.908 5.37 3.138 6.706v.895c-1.802-.454-2.684.895-2.684 3.125 0 1.35.454 3.14.882 4.475h-2.698c-.882-1.349-.882-4.034-.428-7.6l1.388-42.502Zm-75.342 57.275-.454.882-58.26 70.698-3.139.895-94.16 9.844c-3.139 0-5.823-.895-8.962-2.243l-8.067-4.475h.454l1.79-1.349 170.357-74.265h.441v.013Zm41.698 27.743 1.803-3.58 4.487 5.37 2.231 4.474 5.396 3.139v9.844l-1.803 8.936-3.593 2.685-3.113 1.79-3.592-.454c-.454-.895-.454-4.034 0-8.95V203.68l-4.034-9.403 2.218-3.112Zm-14.344 34.447v-3.138l4.487.895 4.034-2.685c.882 1.349.882 3.138-.882 4.915h-7.64v.013Zm.466 8.95 1.777-1.35h7.173l-.882 38.923-.882 5.823-5.824 6.706c-.454 0-.454-.895-.454-1.79l-.908-48.313Zm17.017-2.244 1.803-.895 3.566.895 4.047 2.23c1.349 2.244.882 5.81-.908 11.193l-6.718 17.899-4.034 4.915h-.908l.908-29.986.882-5.37 1.362-.881Zm18.39-88.584.429 4.462-.428 4.033v-8.495Zm.429 31.763h1.362v.454l-1.803 7.6c-1.323-1.336-1.323-4.02.44-8.054Zm13.45 16.562.453-.894 60.543 55.484-.908 2.231-1.348-.895-58.74-55.926Zm-13.878 17.899-1.803 8.495.882-17.444.92 8.949ZM688.746 343.287l-21.958-12.529 26.9 12.529.454 2.244-5.396-2.244Zm17.042 8.054-.44 6.265-4.047.894-4.488-.44-.895-1.35 4.929-11.633v-.441l4.033.895c.467.44.908 2.218.908 5.81Zm-13.903 0-2.244 1.79-5.823 5.823c-1.35 2.685-2.244 5.37-1.35 8.496l1.35 5.823c.44 2.23.44 4.02-.895 5.37l-13.01-2.231-3.125.895-7.626-.895.454-2.244v-2.23c-.895-1.35-4.488-4.034-11.206-6.72-7.172-3.579-11.219-5.823-12.114-7.158l-3.138-7.173-9.857-37.573 60.97 33.099 7.614 4.928Zm4.928 21.919-.44 5.37h-.442v.453l-2.244-4.474.455-6.265c1.79 1.336 2.671 2.672 2.671 4.916Zm-69.933-17.003h-.895l-20.622-7.6-15.239-2.685-9.87 1.349-12.996-.895v-.441h.454v-.441l43.047-36.692 2.685 1.79 12.113 39.376 1.323 6.239Zm470.777-54.577 2.684 1.79 2.685 35.796-.454 1.35c-.69.417-1.443.72-2.23.894-2.257.441-3.593 0-4.047-.895v-7.16l1.362-31.775Zm-.454-8.054.454-2.244 1.349.454v1.349c-.454.44-.908.44-1.35.44h-.453Zm-13.45 38.909.454 4.475 1.349 4.033.882 4.916-1.349 7.159-2.257 76.963 1.803 13.864-4.915 4.929-.454-4.475 3.138-115.885 1.35 4.021Zm-41.698-97.533c2.231 0 3.593 1.79 3.593 5.37l1.349 45.64-.908 7.16-2.23 4.033-70.855 85.004-2.23-1.336h-3.593c-4.034-.895-6.277-1.79-6.718-3.138l.882-41.607-.882-4.916-7.186-5.823-22.424-9.844-5.824-5.37-.44-7.16.894-7.159 36.328-44.745 4.488-4.02c1.777-.455 2.685.44 3.567 2.23l1.349 8.495c.907 1.349 1.802 1.79 3.138 1.349l3.139-1.79-.454-4.033-1.777-2.685-.908-3.58 4.047-2.697 5.37-.895 7.172-3.58 51.113-4.903Zm4.034 69.804.908 5.823 2.23 106.482-.881-.454-13.904-9.39-12.114-4.034-4.033-2.685-2.685 5.37-4.487 3.58-4.942 5.37-11.219 17.443h-.428L938.48 468.55l-6.731 3.58-4.034-3.58v-3.126l-1.349-2.244-5.382-3.125v-.454l1.348-1.79 1.35-1.79 11.646-2.685c4.047-.894 7.626-2.243 12.114-4.474l9.87-8.054 2.23-22.827 2.257-2.231 6.252-2.685 3.139-2.23 2.71-11.634v-4.034l.882-4.02 71.308-86.34Zm7.16-8.95 2.684-3.125 3.139-3.139.454 6.264-4.034 117.221v-.895l-2.244-116.326Zm108.063 76.95h1.803v3.58l-2.71 2.684-36.757 4.034.908-4.916 4.488-1.79 32.268-3.592Zm-35.861 21.037.428-3.126 4.513-1.348 31.815-3.58h2.257l-.908 5.81-1.349.895-3.138.895-33.618 4.034v-3.58Zm-28.248-38.04 7.626.895 3.139 32.217-1.803 1.348-1.349.454-8.534-1.79.92-33.124Zm-.908 42.074v-1.35l12.568 1.35v.44l-6.278.455-6.29-.895Zm18.391-15.214v8.054h-.454l-.882-16.108 1.336 8.054Zm4.02 32.658c-1.776 0-2.684-2.698-3.112-8.95l-.454-11.192 1.803 15.213 2.685 3.126-.921 1.803Zm-8.508-9.844.454 6.264-1.802 5.37-7.173.895c-3.592 0-5.395-1.35-6.277-4.02v-4.476l.882-4.915 13.916.882ZM952.836 244.406h3.58c0 2.243-5.823 9.402-16.134 22.372-9.43 11.634-15.694 19.234-19.727 23.268l-22.412-11.634-4.488-3.58h-3.58l-18.831 2.231-2.231-1.349 1.349-21.024 7.626-3.138 74.848-7.146Zm124.173 23.267.908 7.16-6.278 181.2h-.882v.441l-8.08-24.604 2.231-143.627.454-6.718 4.942-7.6 6.705-6.252Zm6.29 38.468-.454-6.718.908-26.393-.454 33.111Zm6.278 206.272-6.278 2.23-10.31.895-4.942 1.35-4.488 2.684-2.23.44-23.761.455-.454.895 3.139 1.79h11.218l5.824 1.348 9.857-.453-2.685 1.348-28.248 4.929 3.567-.454 2.256-2.685-1.802-1.79h-1.803l-42.126 3.58 1.349-1.349 6.718-1.79 23.307-1.79c0-1.79-2.23-2.684-7.172-2.684v-.441l3.138-.895c1.803-.895 2.685-1.336 3.139-1.336l19.273-.895c0-2.685-1.349-4.02-3.139-4.915h-5.823l-9.43 1.79-5.369-.441v-.442l11.647-3.138 42.152-4.916c3.593.441 5.37.895 5.823 2.231l1.35 2.23 6.277 1.35v.869h.026Zm9.857-412.517.907.454v.441h-.453l-.454-.895Zm-39.895 88.584 1.348.454-.453.895-1.35-1.35h.455ZM773.49 285.558l-.454-4.033.454-3.567 33.177-9.403 11.647-.44 34.525 3.125 11.206 5.81-1.348 8.95-14.799-3.14-23.76-2.684-2.698-2.685c-.895-1.349-1.79-2.23-2.698-2.23l-7.172-.454c-11.22-1.79-19.286-.895-24.215 2.684l-3.58 7.6-7.172.896-3.113-.429Zm-17.042 1.803.454.454v2.231l-1.349 2.23 1.35 4.93h2.243v.44h-.454l-2.244 2.231-3.58 1.79-3.138-1.349-3.593-13.865-1.79-.895-1.79-.894-8.961-7.16h-.454v-.454h.454l2.684-1.349-.895-1.79-2.697 1.35v.44h-.895l-.454-.428.454-4.474h8.52l4.93 2.23c1.348.442 3.138-.44 5.382-2.23h.454l-.454 3.126 2.244 4.474 2.243 3.126v.895l-4.487 2.685V286l2.698.894 3.125.467Zm340.755-13.877.454 9.403h-.454v-9.403Zm-304.88 11.634 4.941-4.929 5.382-.441 9.417.895c1.79 1.349 2.684 4.034 2.684 8.054 0 3.126-.44 4.916-.895 4.916-1.79 1.79-3.138 1.349-4.487-1.79l-1.349-6.705-10.752 1.348.441 12.97 4.034.454 60.53 4.034 62.32 15.667 26.899 11.18c2.23 2.244 3.125 4.475 2.23 7.16h-.44l-16.135-8.055v-.454c3.58 0 4.475-.895 3.139-2.244l-11.66-4.474-12.996-3.126h-.454c0 1.336 1.349 2.685 3.139 3.58l4.487 1.349.895 4.474 21.971 9.844-1.79 2.244-6.731-2.685c-4.941-2.23-7.626-3.58-7.626-4.033l-6.731-.895c-1.79.44-3.14 2.685-3.58 6.718v-8.949l-.454-4.06c-.454-3.125-3.139-4.02-7.172-3.125l.894 2.244h.454v.882l-1.348.454h-1.79l-9.416-1.35-8.067.883-.454 27.288 11.205 3.58 12.555 1.335 2.23-1.79 1.35-3.138 1.349 7.16 9.87 3.125 9.87 1.349 3.58-1.349 4.033-.895 3.139-2.23 1.802-8.509v-10.285l1.35 2.23c.44 2.686.894 8.055.44 15.214-.44 6.719-.895 11.634-1.79 14.319l-27.807-6.718c-1.349-.454-2.243 0-2.243.895l.894 3.138 1.79 2.685 25.55 9.844 2.244 2.23v4.035l-.894 4.474-.441 3.139v.454l-6.732-.895-7.172-3.139-13.45-1.336.441 1.336.454.895 8.08 2.685 9.416 2.243 2.244 1.79 1.79 2.231 5.836 3.58-.454.895h-.44v.44h-.442c0-2.23-4.487-4.474-13.462-6.718l-16.588-3.58-1.35.494.442 1.79 22.865 6.718v.454l-15.239-2.685v1.79l24.655 9.39v.895l-9.87-3.126-19.727-3.58-2.23.454.454 1.336 4.033 1.79 26.459 8.054-.895.441v.454l-29.584-8.054-2.711-.454-5.824.895c-.895 2.244.895 4.034 6.278 5.37l6.277 1.348 4.034 1.79 2.685 3.139-69.493-8.055-94.588-3.58-63.228.896 20.181-1.35v-2.697l-25.55-.454v-.44l20.622-2.244v-.441c-.454-1.35-2.698-2.231-7.626-2.231h-9.857v-.454l26.458-1.79v-.441l-1.349-1.349-4.047-1.349-24.655.895v-.44l5.382-5.824 24.656-3.126h.895l-1.803-1.349h-2.244l-13.45 1.35-8.961-1.35v-.882l4.928-1.349 20.181-3.125c0-1.35-3.593-1.79-10.31-1.79h-12.997v-.441l21.971-4.475c0-1.79-1.79-2.697-5.836-2.697h-7.614v-.454l10.765-8.495-1.79-2.685 4.93-1.79-1.804-2.23-2.684-.896-.454-.44 7.613-3.14v-.453l-1.349-2.231 4.488-1.79-.895-1.349-2.244-.454-7.173.454v-.44h.442l3.592-1.79 4.034-3.58 2.685.44 5.382-.44 5.823-5.824 7.627-2.684.894-1.35c0-1.348-1.348-1.79-3.58-2.23l-4.046-.895-3.138-5.37-4.488-4.02 5.382-1.349v3.139c4.93 0 7.627-.895 8.068-2.244.454-.895 0-1.349-1.35-1.79h-4.487l-.895-2.685h-.44l4.487-2.243 7.172-2.231v-.441l-1.349-.895-6.277.895-6.731 2.685.454 2.243-7.173 2.685a4.799 4.799 0 0 1-1.349 2.244l-1.348-1.349 2.697-1.79 2.698-1.349-1.803-1.348h-3.138l-4.034.453h-.895l2.244-1.348 3.58-1.79c3.592-1.79 4.487-3.126 2.697-4.02v-.455l5.824-1.79v1.79l4.928.454 5.383-2.23-1.35-2.245v-.44l33.177-6.265 3.58-1.349.454-.44 1.79-4.916 1.829-7.613Zm619.63 54.59.428-.455.454.454-.882.454v-.454Zm-85.652 37.132 1.803.454v.894l-1.35.895-.453-2.243Zm-598.996-45.187v-.44l-.454-.455.895.454v.441h-.44Zm-3.58 8.495.454-.454.895.895h-1.79l.441-.44Zm-79.362 32.658h-1.79l-2.243.454h-25.11l-47.975-7.16-18.832-5.369v-.44l22.412-4.916 20.635-2.244 20.168 5.37 32.735 14.305ZM542.59 374.61h1.803l-.454 4.02h-.454l-.895-4.02Zm540.255-46.977-.428-.894.428-12.97v13.864Zm-164.093-25.511 2.244.895-.454.895h-2.698l.908-1.79Zm-19.727-2.685 7.613 4.034v.454l-4.034-1.79-3.58-2.698Zm7.626 34.007v.895l-1.349 1.349-6.277-1.35c-1.79-.894-2.698-2.23-2.698-4.033l10.324 3.139Zm-37.223-48.766.454-.895 16.147-1.35h1.79v.442l-17.937 3.138-.454-.454v-.881Zm17.496 4.915h1.79c0 1.349-.895 2.685-2.244 3.58l-4.033.895-14.799 1.79c0-2.685 2.698-4.475 7.626-4.916l11.66-1.349Zm-45.29-3.126 4.487 1.777 1.35 4.475c0 2.23-.442 3.58-1.35 4.474-3.138.882-4.928 0-5.836-3.138v-4.034l1.349-3.554Zm47.975 15.214c0 .895-1.79 1.349-4.034.895l-4.487-1.79 8.52.895Zm514.264 76.95h6.744l4.916-1.35c3.138.455 4.941 1.79 5.823 4.475h-.428l-.454.441-5.37-.44-18.39.894-128.686 21.465-156.934 23.722-4.916.895a15.436 15.436 0 0 0-4.034 2.685l-6.744 12.528c-7.172 11.634-16.588 21.478-27.353 29.986l-15.227 8.95-40.349 16.549-28.702 6.718-16.588 6.265-6.718-3.58-54.266 8.054-105.807 6.265-110.736-4.916-41.698-4.033-73.98-15.668-21.516-7.6a776.374 776.374 0 0 1-44.837-17.445l-17.483-8.054-1.349-.454 4.475-9.844 24.214-40.712 3.139-3.58h1.79l57.832 12.088 30.038.895c0 2.23-.454 3.58-2.244 4.916l-30.492 5.37a4.72 4.72 0 0 0-4.046 2.243l-18.378 44.292-1.803 7.16 1.803 1.789 9.857 3.58 75.328 17.444 143.018 8.508 74.874-3.139 89.673-8.495 31.387-7.16 11.193-1.348a152.846 152.846 0 0 0 34.98-10.285l30.478-14.76c11.219-6.718 20.194-13.864 27.353-21.919l9.883-13.864 2.231-7.16c1.349-3.138 2.685-4.928 3.593-5.382 1.777-1.349 4.033-1.79 8.054-2.23l296.852-44.76Zm-783.724 9.844 9.416-4.034 8.962-6.264c.908.44 1.349 2.23.908 4.915l-4.047 7.16-6.718 3.138-15.693 3.58-20.181 1.79-17.484-2.685-22.865-5.824-4.929-2.23-3.138-7.6.44.453 4.488.895 4.929-1.79 4.487-1.348c1.79.453 3.139 2.243 4.034 4.474l3.138 5.37 17.938 3.566c0-1.336-4.929-3.566-13.904-6.251v-.895l3.139-1.79 4.487-.44 3.139 2.684c1.79 1.79 3.139 2.23 4.487 2.23l9.87-4.474 3.58 3.58 4.034 2.23 11.206-5.369 6.277 4.929Zm766.695 34.006-7.199 3.126-2.684-1.349-1.803-1.79v-.454l17.042-4.033h.882l-6.238 4.5ZM675.296 391.6l-1.79-3.58 2.698-4.034 5.824 1.349c1.802.454 2.697 2.23 2.697 4.034l-.895 3.58-4.046.894-4.488-2.244Zm19.727.907v.441h-.895l.441-7.16c1.803.896 2.244 3.127.454 6.72ZM633.6 398.76l5.836-1.35c15.24.455 23.307 1.79 24.656 3.58v4.034l-1.35 3.58-30.491-1.35-.895-4.033c.013-2.659.454-4.007 2.244-4.461Zm24.227-15.655 7.172 1.79c1.35 1.349 1.35 3.139-1.348 5.823l-4.047 1.336-5.823-.882h-.454l4.5-8.067Zm-11.673 8.054-.44-.454 5.382-4.474c0 2.244-1.79 3.58-4.929 4.474v.454h-.013Zm9.87 29.973 1.35 4.929 10.31 2.244 10.765.882v.454l-4.047.882-12.554.453c-3.58 0-4.929.895-4.929 2.231 0 1.336 1.349 2.231 4.929 2.685l4.033.454 3.139.882.895.895-3.58 34.007h-.454v-.454l-7.613-27.289c-2.698-7.6-6.277-13.423-10.31-17.444l-15.24-12.088v-1.79l30.038 1.79-6.732 6.277Zm-26.004 2.231-6.277-.44-3.58 7.6-3.139 8.054-4.033.454c-1.35 0-3.139.895-5.383 2.23l-1.803 1.79-.44.441.44-1.79 1.803-1.79 4.929-4.915 2.697-6.705 1.35-7.614-.455-7.159 4.034-9.403 1.349-1.79 3.592 2.685.895.895.895 8.495 2.244 4.916 10.311 7.613c4.475 3.567 8.067 8.054 10.765 12.97 2.685 4.033 4.487 9.403 6.264 15.667l2.244 5.81.895 6.719v4.474l-.895 3.14h-1.79l-1.349-4.475-.454-4.475c-1.348-12.529-3.58-20.142-7.172-22.827l-2.685-6.718-7.172-7.6-8.08-6.252ZM628.67 444.4l-2.698-4.033-1.348-4.475.453-3.126 1.79-3.58c4.488.896 9.416 4.93 13.89 11.635 4.048 5.37 6.732 10.739 8.081 16.549l1.349 15.655-4.047.453-15.24-2.23-13.903-4.475 1.79-3.58 6.731-5.369c1.79-2.685 3.14-5.37 3.14-8.495v-4.929h.012Zm42.139-36.691v-4.475l1.349-4.915 12.113 2.243c0 4.916-.44 8.055-1.348 9.39l-6.278.454-5.836-2.697Zm-.441 9.403-.454-2.231 6.277.895-5.823 1.336Zm37.664 17.003c-4.034 0-6.264-1.349-5.382-4.033l14.798.44-9.416 3.593Zm-15.24-2.685v-.907.907Zm322.364-8.067v.454l-9.429 25.499-1.349 1.79c-.454-.441.908-4.916 4.034-12.97l6.744-14.773Zm12.996-5.37-4.034-1.348 4.034 1.349Zm-10.765 12.089c1.349.894 1.349 3.58 0 6.718l-3.567 6.264-.908 3.139-1.349 2.23v.455h-.428v-.467l6.252-18.34Zm10.31 0-.881-6.265c3.593.441 6.277 1.79 8.508 4.916l4.942 8.495v.454l-5.824-4.475-6.744-3.125Zm-67.234-33.553v-3.58l.882-3.139 2.23-1.335 2.711 2.23v7.16l-2.257 6.251v.454l-3.566-8.041Zm-280.225 40.27h.895l-.895.896v-.895Zm8.508.883v-.454l49.324 5.37-.454 40.27-.895 5.811-.454.467-50.66-5.37v-8.054l1.803-7.6-.454-20.13 1.79-10.31Zm62.32-6.706v.442l-8.067 2.684-7.627.895h-.454l.454-.454c.895-1.336 2.698-2.685 5.383-4.033h9.857v.454h.454v.012Zm-4.475 12.53c.454 2.243.454 5.823.454 9.843l-2.244 56.38h-.454l1.35-67.119.894.895Zm41.244-12.076-9.416 4.021-8.08 1.349c-1.79 0-2.231-1.349-1.79-3.139l3.139-3.58 16.134.895v.454h.013Zm10.765 5.81.895-2.684 1.79-3.126 13.903 1.79-16.588 4.02Zm-191.9 17.9-1.35-3.127 3.14 4.034v.441h-.455l-1.336-1.349Zm-10.312-5.37 1.79-5.81 2.698 13.864 4.487 5.823c.441 1.35 0 2.231-1.348 2.231-4.034 1.35-6.719.441-7.614-1.349l-.895-8.949.882-5.81Zm21.517 7.16-7.613.894h-.895v-.454l8.08-.895c1.79-.895 3.126-3.126 4.488-5.81-.013 2.684-.908 4.915-4.06 6.264Zm426.381-7.614 4.488 4.474c1.803 4.475 1.349 7.6-.882 9.39l-8.962 2.685-18.82 2.231c-2.71 0-5.395-1.79-8.533-5.37l-.429-.44 2.231-1.35c1.35-.453 2.257-.894 3.593-.894l9.403 1.336c2.71.454 5.823-.895 9.429-3.126l8.482-8.936Zm6.278-8.495 4.941 12.074 2.23 13.878h-1.348l-.882-4.033-.454-4.916-4.487-17.003Zm-229.098 4.928h1.79l.453 3.58 5.824 1.349v.44h-.441l-5.383 1.79h-.454l2.698 2.685v.895l-.454.882c-1.349.895 0 2.23 4.034 3.126l7.626.454-9.87 2.23c-1.349-.454-2.244 0-2.244.895-.895 1.79 3.14 3.139 11.66 4.034l-3.58 1.79-8.962 1.349c-1.803 0-2.697.44-1.803 1.79l2.698 1.79v.894c-1.79-.44-3.138.895-3.58 2.685h-1.348l1.336-32.658Zm-8.975.882v8.95c0 4.02-.895 6.264-2.244 7.159v.453l-1.35-7.6.896-9.39 2.698.428Zm81.605-8.495.454-.454h4.488v.454l-5.383.44v-.44h.441Zm25.11 1.79v.454l-1.35.895-1.348.453c-2.698 0-4.034-.894-4.034-2.684l6.732.882Zm17.937 3.125-.454-.894.454-1.336 2.244.44 1.349.896-1.35.894h-2.243Zm26.886 27.289-3.138 2.685c-3.139 1.348-4.488 3.138-4.916 4.928v4.916h-16.588l-4.488-2.244 2.244-4.02 53.799-33.113-3.567 12.088-3.139 1.79-18.39 5.81.453 4.475-2.27 2.685Zm-40.336-4.903v6.252l-3.58 6.264-3.138 8.054h-2.698l-3.138-.454 1.349-7.6 2.697-8.95h.895l.895 1.35h.895l3.593-5.37 2.23.454Zm83.837.882v.454l-4.034-4.033 4.034 3.58Zm-398.587 6.718 3.139.454 2.244 1.35c.44.894.894 4.033.894 9.843 0 5.824-.453 8.95-1.348 8.95-3.58.894-5.824-1.35-6.278-7.6l1.35-12.997Zm352.402 4.021 1.348.441-.882.454h-1.348l.882-.895Zm-55.148-2.685-1.79-1.79 2.685.454h.454v.895l-.895.895h-.454v-.454Zm-43.928 4.475-.895 1.79-8.975-1.349-6.278-6.252c-3.138 0-5.382.895-6.277 2.685l-2.244 7.16c-.454 4.915 0 8.495 1.349 11.18l2.698 2.684 3.138 1.79-5.836-3.139-3.58-6.705-.454-8.054 1.79-6.265 3.58-2.685 4.046-1.348c2.244 1.349 4.488 2.23 5.824 3.58l3.58 4.033 8.534.895Zm110.735 13.424c.908 2.243-1.348 4.033-7.172 5.37l-11.219 2.684-56.483 6.718-24.669.895c2.244-.454 4.047-.895 4.488-1.79l2.244-4.915v-5.824l2.684-14.76 3.593 7.601v.454l.454-.454c.895 0 1.79-1.349 2.23-4.02l.455-6.265 2.244 7.16 2.697 5.81 1.35-.441.894-1.35.895-4.033 3.58 5.37 4.487.895h4.488v.454l-5.383 1.336-4.033 3.138 12.995 1.79-5.823.454-5.383 1.79h-.44c0 2.23 1.348 3.126 5.382 2.684l8.962-1.348c4.488-.895 6.718-2.244 7.172-4.034l.895-4.916v-5.823h.441c0 8.95.895 13.424 2.698 13.424.454 0 1.349-1.79 1.79-6.265l.454-8.054h.454l1.79 15.214h2.243l30.505-5.37 4.034-1.349 1.802-4.033 2.205 1.803Zm-376.616.453-.895-2.23 4.475 1.79v.454l-1.79.44-1.79-.454Zm3.593-7.613v.441h-2.244l-2.685-1.79 4.929 1.35Zm153.329 21.932.894-3.58 48.43 5.37v3.139l-47.976-1.79-1.348-3.139Zm-17.043-6.264c.895.454.895 1.79.454 4.474l-.454 4.034h-.44l-2.244.454-35.875-1.79-4.928-.895-1.803-3.139-.454-3.58.454-5.81 11.66.882 33.63 5.37Zm16.148 30.414 3.138 1.336 4.929 2.685-27.807-2.685-3.58-2.231-.454-.454.454-.454 2.698-.895h3.58l4.033-.454-.441-.895-4.047-1.349-18.378.454-1.349.441-1.348 1.35-4.488-.455v-4.02l49.765 3.58-4.942 1.348-4.033.441 2.27 2.257Zm-42.593-39.817h.44l-1.348 1.348-10.765-.453-9.403-3.126 21.076 2.23Zm-67.248-4.475v.454l-2.244-.454h2.244Zm10.752 16.55-.454-1.79 3.138-18.793 4.047 2.23v1.79l-2.244 17.003h-4.487v-.44Zm-8.963-.441h-.453l-1.35-.454 1.803.454Zm20.181 17.444v.895l-1.79-.895h1.79Zm298.603-30.868c.882.454.882 1.349-1.349 2.685l-24.668 3.125-2.244-1.79v-2.684l.441-2.685 23.76.454 4.06.895Zm-60.53-11.18 2.698 2.23-2.244 4.916-.454-7.146Zm18.833 40.271 3.58 2.23c-1.35.896-2.686.442-4.488-1.348l.908-.882Zm-5.383.882V520l-3.139 1.79-3.592 1.349h-2.698l-8.067-.895v-.454h-.441v-.454l16.134-1.79h1.803v.013Zm57.391-2.685v-.454l23.307-2.684.908.882-2.71.894-2.232.441-19.273.921Zm-112.084-29.973c1.335.895 1.79 2.244 1.335 3.58l-.894 4.915h-.441v-.44l-.908-3.58.908-4.475Zm-13.463 1.336c2.244 1.79 2.698 3.139 1.79 4.034-2.685 1.79-4.488 1.349-5.383-1.35l-1.348-6.705 4.941 4.02Zm21.517 11.634c0 2.685-.895 6.264-3.139 9.844l-2.244-.895 5.383-8.95Zm-49.311-11.18v-4.915l.44.453v.895l.455 1.35 1.79 2.23h-2.685v-.013Zm-11.66 4.033 1.79-3.138c.895.895 1.349 4.034 1.349 9.844l-1.35 10.298-.894.882-1.349-8.054.454-9.832Zm12.1 12.97.455-5.37 9.416 1.35v3.125l-2.698 1.35-2.244.453-4.928-.908Zm18.392 5.81h-3.139l-3.58-.894 6.719.895Zm4.928 14.32v-.455l41.698-3.125h2.244l-1.349 3.125-4.033-.881-38.56 1.335Zm201.771-22.814h-.908v-.454l15.68-2.685 4.047 1.79v.454l-6.277 1.336-6.719.453-5.823-.894Zm-42.606 15.213 1.35.895-6.278.895-6.278-.441v-.895l8.08-.895 3.126.441Zm66.367 1.79 1.777-1.79v-.454l6.277.454-8.054 1.79Zm-120.165 13.865-4.034-.895v-.895l8.962-.895c4.488-.454 6.719-1.349 6.719-2.685l-.428-.454-11.673-2.685 37.664-1.348-.882 4.033-3.593 1.79-32.735 4.034Zm-237.178-.895c7.613-.454 9.857-1.336 6.277-3.58h1.79l4.034.895-1.35 1.349.454 1.79c2.244 2.23 6.732 3.58 13.45 4.474l43.942.895 2.243-.895 2.244-1.336 8.962-.454c1.79 0 2.685-.895 2.244-2.243l-14.344-3.567-.454-.454 1.348-1.349c.895-.895 1.35-1.349 2.244-.895l4.929 1.349 17.937 2.244-4.034.895c-1.802.44-2.243 1.349-1.348 2.685l12.1 3.125 1.35 3.139 11.659.895 12.114-1.35-.454 1.79-118.816-.894-59.635-3.58v-2.23l28.702.453.44-.895c0-.882-.894-1.348-2.684-1.79l-17.042-1.79c-8.962-1.348-13.45-3.138-13.45-5.823l.454-.454h5.837l1.348 3.14 8.08 1.348 7.614-.454c.895-.454.895-1.349.454-2.685v-.44l16.588.894v.441l-.454 1.79.895 1.79 14.332 1.777Zm-160.06-4.916 1.349.454v.441l-1.35-.895Zm374.813 0 8.08 1.349 6.719 2.685v.44l-2.685 1.35-42.152 1.348v-.882l5.382-1.348 12.555-2.685 4.488-1.79 7.613-.467-83.396 5.37-.453-1.35-.895-1.789 7.613.895 3.139 1.79 3.58.895 26.03-.895v.454l-2.685 2.23-8.08 3.14-4.488-.896h-11.66c-.44-2.23-1.79-3.567-4.928-4.033l-7.173-.441 83.396-5.37Z"/><path fill-opacity=".8" fill-rule="evenodd" d="m773.036 281.538.454 4.02 3.14.454 7.171-.894 3.58-7.6c4.929-3.58 12.996-4.475 24.215-2.685l7.172.453c.895 0 1.79.895 2.698 2.231l2.697 2.685 23.76 2.685 14.8 3.138 1.348-8.949-11.218-5.823-34.526-3.126-11.647.441-33.19 9.39-.454 3.58Z"/><path fill-rule="evenodd" d="m791.869 390.704 5.823 4.916 2.685 11.634 1.79.454 1.802-1.35c1.35-.894 2.244-2.243 3.14-4.474l1.802-4.02 4.928-2.698c2.244-.895 3.593-2.23 4.047-4.02v-3.14l-6.277-12.074c-2.244-1.803-4.929-2.685-8.522-2.685l-2.243.441c-4.047 0-7.173 2.244-8.962 6.264a9.455 9.455 0 0 0-.013 10.752Zm10.31-7.159h.455l5.382-.44.895.894-.895 1.79-2.698 2.685c-1.349.895-2.684.44-3.138-.895v-4.034l8.975 9.403-1.35 1.336c-1.348.441-2.243 0-2.697-1.349l-.44-4.033h1.348l4.488-.895 1.348 1.348-.454.442-.44-.895-2.244 4.033h.454l-8.988-9.39ZM891.853 376.84c-2.244-1.336-5.824-2.231-9.858-2.231l-4.487 2.685-4.047 3.138c-.894 2.244-.894 4.916 0 8.495l2.698 8.055 1.803 8.495 4.928 2.685c.454 0 1.79-1.35 2.244-4.475l1.349-5.37 4.929-2.684 4.046-3.58c.441-.882.895-3.126.441-6.705a10.428 10.428 0 0 0-4.046-8.508Zm-.895 12.075v.894h-.454v-.44l-.441-2.685.44-3.139c1.35.895 1.35 2.685.455 5.37ZM771.7 315.545l-11.66-1.79-1.348 18.352 1.349 17.003c.895.895 2.244 1.35 4.928 1.79h10.765l4.929-1.349c1.349-.44 1.79-5.37 2.243-15.213.442-9.39 0-14.76-.894-16.109l-10.311-2.684Zm16.135 2.684-.895 25.953 3.593.882 20.18-1.349c.896-.882 1.35-4.916 1.79-12.075l-.44-13.865-6.732-1.79-14.344 1.35-3.152.894Zm14.799 12.075.894-10.739h4.488c.895 1.336 1.349 4.916.895 9.844l-.454 11.18h-1.349c-2.244 0-3.58-.44-4.034-.895l-.44-9.39ZM837.16 317.334h-15.24l-.895 28.638 14.344 2.23c7.614.895 12.101.895 13.45 0l1.349-6.705v-14.319l-.454-6.264c-1.349-1.79-5.383-3.139-12.555-3.58Zm21.97 4.475-1.349 13.424.895 12.97c.895 1.348 5.382 2.243 13.903 4.033l14.345.454c.895-.895 1.79-2.685 1.336-5.37l-.441-6.264.44-7.16-.44-6.718c-.895-1.79-5.382-3.125-12.996-4.02l-15.693-1.349Z"/><path fill-opacity=".8" fill-rule="evenodd" d="M642.574 372.806h1.79l-32.723-14.318-20.181-5.37-20.622 2.244-22.425 4.928v.441l18.832 5.37 47.975 7.159h25.11l2.244-.454Z"/><path fill-rule="evenodd" d="M569.943 433.66a5.473 5.473 0 0 0-.454-5.37c-1.349-1.348-5.823-3.138-13.904-5.369l-15.239-3.138-13.45 23.267-9.416 21.92c.454.894 2.698 2.23 7.627 3.579l17.483 6.264 8.52 1.79 4.035-3.58 14.798-39.363ZM1340.645 531.647c-1.776.44-4.915 1.79-9.857 4.474-5.37 2.685-7.626 4.916-7.626 6.265.454.895 1.349 1.349 3.139 1.349h1.803l6.277-.895h.428l5.395.44 7.173-2.684 6.277 2.244-1.803 4.915-1.349 3.126-7.626-2.685-2.257-.454h-1.348l-13.45-1.79-4.488-.453h-4.915l-3.139.454h-2.685a8.533 8.533 0 0 0 .882 5.81l1.35 1.349 2.684 2.244 3.139 1.348 4.487-1.348a7.652 7.652 0 0 1 6.277 0l2.685 2.23.454.441.454.454 1.349 1.79 3.139.895 2.23.895 3.593 1.349-6.744.882c-.882 0-1.803.454-2.685 1.349l-.882 3.125.428 1.79.454 1.349 2.257 1.349h.428l8.962-2.685 4.033.895 2.257.454h.882l4.942-1.349 3.592.441h6.252l7.198-2.685s.428-.454.428-.895c.454-1.79-.428-3.138-2.685-4.474l-6.718-2.23h-.454v-.455l18.391 2.685 6.718.895h2.685l1.803.895.454.454 2.685.895h.454l4.487-.895c1.349-1.35 2.685-1.79 4.034-2.244l3.138.895h3.139l3.139-3.58 3.138-4.915h.882l2.685-.895 3.593-.441 4.487-3.139 2.685-4.475c.882-2.684-.882-4.474-5.395-5.37h-17.912l-9.883-4.033-8.962-2.23-8.508-3.58-4.941-3.58-5.37-2.685v.441h-.882l-.454.454-.907 2.231v2.244l-.429 1.79-4.046.895v.895l1.349 4.474c.454 3.58 1.803 5.824 3.592 6.706l7.627-1.336h.454l-3.593 2.684h-4.034l-4.046-.895-6.252-2.23-1.803-4.02-.453-8.51v-3.138c-3.567 0-6.278.454-8.055 2.244l-3.138 2.685-7.173-.895Z"/><path fill-opacity=".8" fill-rule="evenodd" d="m1340.645 547.755 2.257.454h2.685l1.803-.895c0-1.79-.882-2.684-4.034-2.684h-5.395c-.428 1.348 0 2.23 1.348 3.138h1.336v-.013ZM1349.607 545.965h-.428l.428.441.908 1.35h1.35l1.79-4.93-4.048 3.14ZM589.216 591.593l-2.698.895-6.731 4.475 1.803.454c6.277-1.35 11.206-3.14 15.24-5.824v-.44l-2.698-.455-4.916.895Z"/><path fill-rule="evenodd" d="M1451.848 552.67h-.454v-.44l4.488-2.685c1.803-2.244 2.256-3.58 1.349-4.034l-7.6-1.335-8.535.44v1.79l-.454 2.244 1.803 4.034v.44h.454l-7.172 4.034.428.882.908.454 2.684.895 4.488 1.349 8.08 1.79 6.718 3.58.908.453 3.113-.894 7.626-6.719 4.942.895 4.033-1.349a7.081 7.081 0 0 0-1.349-4.033 7.731 7.731 0 0 0-2.23-1.79c-2.685-1.79-4.942-2.685-7.199-2.685-2.23 0-4.461.454-6.718 1.349-1.803.44-3.593.895-4.941 1.79l-3.139-.441h-2.231v-.013Z"/><path fill-opacity=".8" fill-rule="evenodd" d="M1451.848 552.67h4.02l-3.566-.44-.454.44ZM1481.432 550.881l-4.034-.44-1.802-3.58-8.08 1.79c-2.231.894-4.034 1.348-5.37 2.684 2.257-.895 4.488-1.349 6.719-1.349 2.256 0 4.513.895 7.198 2.685a7.731 7.731 0 0 1 2.23 1.79l1.35.454.907-1.79.882-2.244Z"/><path fill-rule="evenodd" d="m1228.574 562.515-3.593.44-24.642.455-19.274 3.126-9.429 1.348h-1.349l-17.483-.454-4.941-.894-9.43.894-45.264-1.348-52.462 4.474h-4.047v-.44l-1.349-1.79-2.23-.896-21.958-.44-3.593.44-5.37 3.14-91.021 5.81-5.383.453-5.823-.453-20.181-.895-4.488-.895-.895.44v-.44l-.454-2.244v-1.79c0-.895 0-1.349-.454-1.349l-5.823-1.79-6.264-.894-5.383 3.138-7.172.895-111.19-2.23-19.727 1.79-11.206-2.245-4.928-2.23c-1.35-.454-2.244-.895-3.139-.895l-1.803-.895h-.44l-4.047.44-4.034 1.35-45.731.895-11.647-1.35-5.383-4.033-26.899-3.139-8.067.895-2.698 1.35-1.79 2.684-2.697.895-46.186-6.265-4.487-3.138-.454-1.35-1.35-1.348-7.612-.856-9.416-3.126c-4.034-1.349-7.173-1.349-9.416 0h-15.694l-14.344 1.35-4.942-1.79-4.474-3.58a11.22 11.22 0 0 0-6.732 4.915l.454 1.79 1.349 2.685-4.941-.882-6.719 1.79c-3.138.895-5.382 1.79-5.836 3.138v2.685l.454 3.126 11.647 1.349 11.206-.882 6.73-.895 22.426 3.138 12.554-6.718 14.799 4.02h12.555l8.067.896 39.454 5.37 4.928.894h7.173l3.138.882 3.139.895 10.765-.454h2.244l.895.454 6.73 2.23 1.804.455h4.487l.454.44 34.072-1.348 22.865-.895 8.068.454c.454.44.895.44 1.348.895.454 0 .454 0 .454.454l3.593 5.81c.44.441.44.895.895 1.79h-1.79l-59.181 7.613-13.45-1.349c0-1.349-3.138-4.033-9.857-7.159-6.277-3.139-10.31-4.475-12.554-3.58l-13.45 1.35-7.613 2.243-17.043-2.244-5.823-2.23c-1.79-1.35-4.034-1.35-6.277 0h-10.765v.453h-.454l.895.441 3.138 3.126 6.278 2.244v.895l-34.526 3.138-5.836.895-12.996 2.231-6.277 1.349-10.765 3.58-8.521 2.684-6.745 6.68-.894 7.6c1.79 0 4.033-.895 6.277-2.685l5.823-4.033 8.962-2.685 9.857-1.349 4.034-1.349c1.349-.882 2.698-1.79 4.488-1.79l1.348-.453h.895c1.35 0 2.698 0 3.593.894h1.349l-.454 1.803v1.336h.454l12.114.895 13.45-2.23 3.579 2.684h27.794c.895.454 2.698.895 5.383 2.23l4.928.896 3.139-2.231c.454-1.79.454-2.698 0-3.58a12.97 12.97 0 0 0-4.475-2.697v-.441l4.929-2.231 4.487-3.139 2.244-.454 4.928-.895 2.698.454h5.824v.895l-2.698.895-2.244 1.79c-5.382 1.349-8.962 3.126-10.31 4.915-1.804 1.79-1.804 4.916-.896 8.496.454.894.454 2.243 1.35 3.125l1.348.454h.895c1.349-.454 2.244-.895 3.139-1.349.454-.895.454-1.79.454-2.243 0-.895 0-1.79-.454-2.685a2.893 2.893 0 0 1 0-2.685c.454-1.349 2.243-2.685 4.928-2.685l20.168-3.125 5.383-1.79 14.798 3.126 29.597-1.35 22.425.896v.454l-2.698.894-32.723 3.126a7.47 7.47 0 0 0-2.243.895l-2.698 1.4-6.277 1.35c-1.35.895-1.35 2.684 1.348 4.915h1.35l.44-.44v.44c0 1.349.441 2.244 1.803 3.126a3.371 3.371 0 0 1 1.79.454l3.58.44 5.836.455h2.23c1.35 0 1.79-.895 1.79-2.231l-1.348-4.034v-.454l2.684-.454 1.803.454 3.139.895h1.79l14.798-4.033 3.58 1.349 14.798-1.79 5.824.44 26.899-2.684 2.698 4.929 4.928 2.684 5.824.882.44.454 4.047 1.349 4.488.882 11.206-4.916 2.243-2.684 3.14-1.35 20.621-1.348v.454l-7.172 1.336-6.278 2.243-1.348 3.567h-.454v.454l18.378-2.685 14.344 2.685h13.904c2.685.441 4.474 1.349 4.474 2.685l-.44 2.685v3.125l.44 2.685.895-.454 6.732-.895 8.962-2.685c-.454-.894-.895-2.23-2.244-3.58l-.454-.453s-1.349-1.349-4.487-3.126h8.08l9.416-3.58 8.962-4.915.454-1.349.454-.454c-.895-1.349-2.244-1.79-4.929-1.79l-30.492-2.23-1.79-1.79-.453-.441-1.79-3.139c-.454-.895-.895-1.79-1.349-2.23-1.349-1.35-2.685-1.35-4.034-.896l-5.382 1.79-41.244 3.139-24.669-3.139h-4.928l-43.5-4.474-1.79-2.244 8.962-.895 5.836 1.349h6.264l9.43-3.126 12.1-4.034 3.593-1.348 4.033.895 4.488 1.348h1.79l14.798-.454 2.244.895.895.441 2.685 1.35 8.067 1.348h.454l.895-.44 4.487-1.35 53.358-1.79 2.244.895.454 4.475 3.58 3.58 4.033 3.125 1.349-.44h3.139c1.79-1.35 3.138-1.79 4.487-1.79l6.731 2.23 1.35 1.79 2.243 1.336 12.542 1.349 12.554.895 10.765-2.685c.895-.441 1.803-.895 2.698-.895 0-.454.454-.454.454-.454 3.58-1.349 5.824-2.23 7.626-2.23l6.732-1.35 5.823.454 23.76-4.928 26.472.454 12.088-3.58c4.941-1.79 8.962-2.685 11.672-2.685h1.777c.454.454 1.362.895 2.257 1.79l2.23 4.475.455.454c.882 2.685 1.803 4.474 3.592 5.37l.429.894 2.684.454 12.568 1.349 24.214 4.034h.882l7.199-1.35 5.37 1.79 3.138 1.79 1.349.454h.882v.882l-20.622 4.929-5.37 1.79c-2.685 1.348-2.685 2.684 0 4.033h1.336l7.172-.44h7.627l14.798-1.79 9.857 1.348 5.823-1.79 11.673-.44 11.193-3.58 19.727.895 3.139-3.139-2.257-4.033 2.257-4.475 4.033-3.567-.453-.454v-.895h-2.231l-2.257.895-.882.454-1.803-.454-3.566-.454-4.047.454-1.349.454h-11.193v-.454l12.114-11.18 26.9-.895 3.566.895 4.034.454 7.198-1.349h5.37l5.369-.894 9.429-7.16h6.277l5.37.895 22.878-5.382v-.454c-.013-1.336-.92-1.777-2.697-1.777Z"/><path fill-opacity=".8" fill-rule="evenodd" d="m1260.388 564.746 3.593-4.475 3.139-2.244 2.684-2.684 2.257-3.58a8.599 8.599 0 0 1 7.173-4.02l8.508 3.579.454.895 1.802.882 4.034-1.349 6.718 1.79 4.942 4.033h.454c0-3.138 1.349-4.033 3.112-4.033l4.942 2.685h.454v-.895l-1.803-2.244-1.349-1.349a8.47 8.47 0 0 1-.882-5.81h2.685c.882-.454 1.349-.454 2.23-.454h5.824l4.488.454c4.046 0 7.198-1.35 8.962-3.126l-7.172 1.79-1.35-.895c-1.802 0-2.684-.454-3.138-1.35 0-1.348 2.257-3.579 7.626-6.263 4.942-2.685 8.08-4.034 9.857-4.475l7.199.882 3.138-2.685c1.777-1.79 4.488-2.244 8.054-2.244v3.14l.454.894v4.02l5.824-1.79h.882v-.842l4.046-.895.428-1.79v-2.244l.908-2.23h-1.349l.882-4.916 2.257-4.475 12.088-33.111 2.257-4.034-.454-2.231-.882.895-417.42 65.316 10.766-2.231-104.03 9.403c-56.938 2.23-104.46 3.126-142.123 2.685l-47.08-1.79c-39.896-1.349-75.33-4.475-106.716-9.844l-9.416-.895c-23.774-3.58-51.568-9.844-82.955-18.34l.895 5.811 4.047 12.97 2.685 6.718h9.416c2.244-1.349 5.382-1.349 9.416 0l9.416 3.126 7.626.895 1.349 1.349.454 1.349 4.487 3.138 46.186 6.265 2.697-.895 1.79-2.685 2.698-1.349 8.067-.895 26.9 3.139 5.382 4.034 11.647 1.348 45.731-.895 4.034-1.348 4.046-.441h.441l1.803.895c.895 0 1.79.454 3.139.894l4.928 2.231 11.206 2.244 19.727-1.79 111.19 2.231 7.172-.895 5.383-3.139 6.264.895 5.824 1.79c.453 0 .453.454.453 1.35.454.44.454.894.454 1.789v2.685l.895-.441 4.488.895 20.18.894h11.207l91.021-5.81 5.37-3.139 3.593-.44 21.957.44 2.231.895 1.349 1.79.454.441h3.593l52.462-4.475 45.265 1.35 9.429-.896 4.941.895 17.484.454 10.764-1.349 19.273-3.125 24.643-.454 3.593-.441c1.777 0 2.684.44 2.684 1.79l29.17.402Zm39.013-16.55-1.348-4.474 7.626-1.79 2.257 2.244-2.711 3.58-4.916.894-.908-.454Z"/><path fill-rule="evenodd" d="m1298.053 543.722 1.348 4.474.908.454 4.916-.895 2.71-3.58-2.256-2.243-7.626 1.79Zm-34.072 16.562-3.593 4.475-2.23 1.79-4.034 2.684c0 .895.428 1.79 1.777 2.231.908.454 3.139.454 5.823 0 .454-.454.908-.454 1.362-.454l.882-.44 6.277-1.79 4.916-.896 4.488 3.126 1.361 1.349 2.231 2.685-.454.454h-1.349l-4.487 2.23-3.567 2.244-.454.441-4.941 1.79-4.916 1.79-1.803.454-17.509 1.349h-5.823c-2.231 0-3.567-1.79-4.488-5.81l-.428-2.686-.908-6.718-.428-.44-24.214 9.39-7.173 4.02-7.626 2.244-12.567 2.23c-1.803 0-4.034 1.35-6.278 3.14l-5.37 4.915-9.428 6.705-.882 2.244.454.895.428.454h8.962l6.744-1.79 4.942-1.349 4.915-1.349 30.933-3.58h13.022l8.054-2.684 31.387-5.37 5.395 1.35 4.034 1.789.882.454 3.138.44 33.644 4.93 5.37 1.348 5.823.882 9.429-3.58 3.567-1.79.907-.894.882-.895 1.803-1.349-2.257-2.685-12.541-1.79-22.425-.454-16.588-2.684v-4.475l.454-.44 9.429.894 5.823.882 4.462.454 6.277-.895 6.744 1.349 7.627-.454 2.684-2.23-1.349-.896-2.684-1.79-4.047-1.79-.428-.44v-1.35c-.454 0-.454-.453-.454-.894l-.454-4.034-3.567-.454c-1.348-.895-.908-2.23.882-3.58l2.257-4.915-2.257-2.244-4.941-.882-1.349-.895-4.941-2.684c-1.777 0-3.113.895-3.113 4.033-.454 0-.454.441-.454.441l-1.349.454-4.034 1.79-4.046 2.685c0 1.79.908 3.139 3.139 4.474v.454h-.428l-5.85-2.23-4.915-3.58 2.684-1.79 2.685-2.685-5.37-5.37-.453-.894-8.508-3.58a8.625 8.625 0 0 0-7.173 4.02l-2.256 3.58-2.685 2.685-3.113 2.231Z"/><path fill-opacity=".8" fill-rule="evenodd" d="m1334.381 560.284-1.349-1.79-.454-.454-4.487 4.034c-.454.882 0 2.23.882 3.126l2.71 2.23.882 3.14-4.034.894h-4.94v1.803c0 .44 0 .895.453.895 0 .895 0 1.349.428 1.79l4.047 1.79 2.684 1.79 2.231.894v.441l-1.777 1.79-6.744 1.79-8.054-2.244-7.198.895-4.916-.895-5.823-.882c-1.362.441-2.257.882-1.803 1.79l1.349.895 9.857.454 22.424 3.138 14.332-.895-.428-.894v.454-.454c-1.803-2.685-2.685-5.81-2.685-9.845v-.894h1.777l1.803-.441 4.941 2.23c2.231 1.35 2.685 3.14 2.231 4.475h-.428l.428.441-3.138 1.79c-1.777.895-3.113 1.79-3.567 2.244h-.454v.454c8.08 0 12.114-1.35 12.568-4.034l-.454-1.79h11.647l4.046-1.79 7.172-.895-.908-2.684-.881-.441a4.747 4.747 0 0 1-.454-5.37l9.428.454c4.034.454 5.824 1.79 5.824 3.58v.44a11.31 11.31 0 0 0-8.08 3.58h-.428v.441l11.647.895a6.24 6.24 0 0 1-.882-2.697v-1.79l9.857-1.35 2.23-.453c4.047 1.349 6.278 3.58 7.627 5.37 0 .453.454.894.454 1.79l10.765-1.79.882-.442c0-.894.882-1.79 2.684-2.684 2.257-1.79 4.047-2.685 5.396-2.685v-.454c1.349.895 1.803 1.349 1.803 2.23h.428c.453.896-.882 2.232-3.139 3.58l.454.441 16.134-3.58 14.358-6.718c2.23-1.349 2.684-2.684 1.349-4.02l-2.685 2.23-3.593 1.35-.882-.454-.908-.455-6.718-3.138-8.08-1.79-4.488-1.79-2.684-.895-.908-.454-.428-.881 7.172-4.034h-.454v-.441l-1.803-4.034.454-2.243-4.487 1.348c-1.35-.454-3.14.454-4.034 2.231l-1.349.895-2.71 2.685-3.567 1.349-3.593.454h-.882c-.882.44-2.23 1.79-3.138 4.033l-3.139 4.475-3.567.44-4.046-.881-3.567 2.23-2.685.896-1.803-.455h-.454l-2.684-.894-.454-.454-1.803-.895h-2.685l-6.718-.895-17.937-2.23 6.718 2.23c2.257 1.349 3.139 2.698 2.685 4.475 0 .453 0 .894.454 1.79l-4.942 1.79h-9.39l-6.744.894h-2.685l-2.257-.454-4.033-.454-3.567.895-2.71.895c-.883.454-1.777.454-2.685.454h-.428l-2.257-1.349c0-.454 0-.454-.454-.454v-.895l-.428-1.79.882-3.125c.882-.895 1.803-1.35 2.685-1.35l6.744-.881-3.593-1.349-1.802-.454-.428-.454-3.165-.83Zm104.018 5.37 5.369-1.79 2.71 2.684.429 4.034-1.35 2.23-4.033-.453c-1.349-.441-2.257-1.79-2.685-4.02l-.44-2.685-7.627-4.475 2.257.895c1.349 2.685.428 5.37-1.803 8.495-1.803 2.685-4.487 3.58-7.626 3.126l-1.349-2.685c2.23-5.37 4.942-8.936 8.508-9.844l7.64 4.488Z"/><path fill-rule="evenodd" d="m1443.768 563.85-5.37 1.79.454 2.685c.428 2.231 1.35 3.58 2.685 4.02l4.034.455 1.349-2.23-.428-4.034-2.724-2.685Zm-10.739-1.776-2.257-.895c-3.566.895-6.277 4.475-8.508 9.844l1.349 2.685c3.139.454 5.823-.441 7.626-3.126 2.218-3.152 3.126-5.836 1.79-8.508Zm-91.022 13.865c0 4.033.882 7.159 2.685 9.844.428-.454 1.803-1.35 3.593-2.244l4.033-2.23h.428c.454-1.35 0-3.14-2.23-4.476l-4.942-2.23-1.803.44h-1.777l.013.896Zm93.707-4.475v.454c-1.35 0-3.139.895-5.396 2.685-1.802.895-2.684 1.79-2.684 2.684-.428.895 0 1.35.453 1.79h2.685l4.034-1.79c1.803-1.348 3.139-2.243 2.71-3.58-.012-.907-.466-1.348-1.802-2.243Zm-20.194 6.705v-.454a15.02 15.02 0 0 0-7.626-5.37l-2.231.455-9.857 1.349v1.79c.087.954.388 1.876.882 2.697a5.641 5.641 0 0 0 4.033 1.79l8.534.441 2.231.895h1.803l2.23-1.79v-1.803Zm6.277 7.16c-.454-.454-.454-.454-.882-.454-.454-.895-1.802-.895-3.139-1.35l-5.823-.44-6.277.44-6.744-.44-12.088 1.79c0 .895 0 1.79.428 2.698 0 .44.453.894.453 1.335.883.895 1.803 1.79 3.14 2.685v.454h.453l7.6 1.336h.908l.882-.441 2.257-1.79c.882-.895 1.777-1.349 3.139-.895l.882.454 4.487 3.58.454-.441 5.37-3.58 4.941-4.474-.441-.467ZM1431.226 580.854v.454l-4.487 1.79c-.908 0-1.35.44-1.35.895-.453.895-.453 1.79.429 2.685l3.138 1.348c.908-.44 1.35-.44 1.803-.44l1.35-1.35.907-2.697-1.79-2.685Zm-37.664-7.6c0-1.79-1.803-3.126-5.823-3.58l-9.43-.454a4.8 4.8 0 0 0 .454 5.37l.882.44 3.14 2.685 4.94-2.684 5.37-1.79h.467v.013ZM1370.255 580.413h-12.554l.453 1.79 2.231 4.928 2.685.454 2.71-.894 5.824.894 5.37-2.243 2.256-2.231c.415-1.803-2.723-2.698-8.975-2.698ZM480.27 565.654l-8.067-1.803-7.626 3.139c-3.58 1.348-4.929 3.138-4.475 5.81l1.349 1.349 6.277 1.79 6.278 3.58 6.277 2.23 8.067-1.349c2.244-1.349 3.139-3.125 3.139-4.915v-2.231l-6.278-2.685-1.79-2.23-3.151-2.685Z"/><path fill-opacity=".8" fill-rule="evenodd" d="m528.686 562.956-26.9.454-4.487 4.915h-2.243l-10.311-.895-1.336.895 1.79 2.231 6.277 2.685v2.23c.895.896.895 1.35.895 1.79 0 .895-1.349 2.231-4.488 3.126l7.173 1.79c0-2.685 1.348-4.474 4.033-6.705l2.698.895s.44 0 .895.454l.908.454c1.336.894 1.336 2.23 0 3.566l-.908 1.35-2.698.453h-.44v.454h10.31l-.44-.454-.896-.454c1.35-2.685 4.034-4.02 7.613-4.02l4.488-1.35c6.277 0 9.416.895 8.521 2.685.454 1.79-1.349 2.685-4.487 3.58l-7.173 2.23v.896l-.44.894 34.525-3.138v-.454c-2.698-.441-5.824-1.79-9.416-4.475v-1.31l-.895-.44h.454v-.455h10.765c2.244-1.348 4.487-1.348 6.277 0l5.823 2.231 17.043 2.244 7.613-2.244 13.45-1.349c2.243-.894 6.277.454 12.554 3.58 6.732 3.126 9.857 5.81 9.857 7.16l13.45 1.348 59.181-7.613h1.79c-.454-.882-.454-1.349-.895-1.79l-3.593-5.81c0-.454 0-.454-.454-.454l-5.823-.895-26.458.44-34.059 1.363-.454-.441-2.698.44-1.79-.44-1.802-.454-6.731-2.231c-.895-.454-1.35-.454-2.244-.454h-.895a3.853 3.853 0 0 0-2.698.895l-9.416-.441-5.836-1.349-4.488-.44h-1.79l-4.928-.896-24.656-2.23-14.798-3.14-14.319-.907Zm-2.23 7.172.44 1.79c-.44.895-2.243 1.79-4.928 1.79l-11.66 1.349-6.277-3.126-4.047-4.916 3.593-1.79 8.067 2.685 14.811 2.218Z"/><path fill-rule="evenodd" d="m526.896 571.918-.44-1.79-14.8-2.244-8.066-2.684-3.593 1.79 4.047 4.915 6.277 3.126 11.66-1.35c2.672.014 4.474-.881 4.915-1.763Zm2.244 7.6c.895-1.79-2.244-2.685-8.521-2.685l-4.488 1.35c-3.58 0-6.277 1.348-7.613 4.02l.895.454 2.23.895 8.963.454 8.067-3.58c.467-.013.467-.454.467-.908Zm-25.55-2.23-.908-.455-.895-.453-2.698-.895c-2.698 2.23-4.033 4.033-4.033 6.705h4.487l3.58-1.349h.454c1.349-1.323 1.349-2.672.013-3.554Z"/><path fill-opacity=".8" fill-rule="evenodd" d="m495.069 585.783-7.627-.454-7.172-1.79-6.277 2.244-6.732-1.35-.44.442-.896.454c.441.454.441 1.349 0 2.684l-.44.454-4.047 5.37 1.349 1.349h5.382l6.278-1.803 6.718 1.803 10.765-3.58 6.277-1.349h-2.697l.894-1.349.454-1.79-1.79-1.335Z"/><path fill-rule="evenodd" d="m1233.061 609.945-4.046 1.336-3.14 1.803c-.427 1.349.455 2.685 3.594 4.474a7.525 7.525 0 0 1 2.256.895l15.227.454 1.349-.894v-.467l-5.37-3.126-9.87-4.475Zm18.82 4.02 1.348.455 3.139.895 4.487-2.231h2.685l2.257-.895 3.138-7.6-.907-.895c-.428-.895-1.35-1.349-1.803-.895l-10.311-.441-.428 5.37-5.396 2.23 1.79 4.008Zm22.865-4.02c-.908.895-.908 1.79-.454 2.685.454 0 .454.454.882.454l3.593 2.23h4.941l3.139-2.23c0-.454 0-.895-.454-1.349-.454-.895-2.257-1.349-4.034-1.349l-7.613-.44ZM687.851 609.491c-2.685 0-4.033.454-3.139 2.244l3.14 3.58h4.94-.453l-4.929 1.79h-6.277l-4.488 5.37c-3.138 2.23-4.033 3.579-3.138 4.474h.453l.441.44 1.803.896h3.58l22.866-8.95c.454-.895.895-1.348.895-1.79 0-.894-.441-1.348-1.35-2.23l-4.033-1.35h-.454v-.44l4.488-1.79c0-2.244-1.35-3.58-4.488-4.033l-9.857 1.79ZM892.307 600.555l-11.206-2.697-8.522 1.79c0 .44 0 .894.895 1.79 0 0 .454 0 .454.453l3.593.895c3.139.895 7.172.895 12.555 1.349l22.865-.895 4.034-.895 5.823-4.475.441-2.684v-.454c-.44-1.79-2.684-2.231-6.264-2.231l-9.87 5.37-14.798 2.684ZM887.819 613.07v.442l2.244 2.23.44.896.455.454h.44l10.765-.454 10.311-3.58 8.963-5.37c0-1.79-.895-2.684-3.593-3.138l-2.685.895c-2.698 0-7.626 1.79-16.147 5.37l-3.58.894-7.613 1.362Z"/><path fill-opacity=".8" fill-rule="evenodd" d="M1233.061 577.287h.882l2.257-1.79 3.113-1.79c3.138-.894 4.941.455 4.941 4.034l-.882 4.475v3.139l.428.454 17.51-1.35 1.802-.453 4.916-1.79 5.395-2.23 3.567-2.245 4.487-2.23h1.35l.453-.454-2.23-2.685-2.711-1.79-11.193-.44-3.139.44-.882.441c-.454 0-.908 0-1.362.454l-5.37 1.349-.453-1.35c-1.35-.453-1.777-1.335-1.777-2.23l4.034-2.685-8.08-.453-2.231.453-31.841 4.034-12.542.441a10.584 10.584 0 0 0-4.046 2.685l-4.034 3.138-4.034.895-13.45 2.685-12.567-.895-3.567-.895h-4.046l-7.627.895c-3.112 0-6.251.454-9.403 2.231l-8.534 4.916c0 1.348.908 2.23 3.139 2.684l4.046-.454 3.567.454h2.685l2.257-.895h2.23v.895l.454.454-.453.441-.429.895 1.35 5.81 6.718 3.126-3.567 7.16-8.08-.454-6.719 1.79-1.361-.895-1.777-.895-4.942-.441-6.718 1.348-6.277-.454-17.043 1.79-5.823 1.35-4.942-.455h-9.857l-8.08.895-9.403-.44-5.395.881-3.139-.44h-.428c-2.685-1.35-2.685-2.685 0-4.034l5.37-1.79 20.621-4.929v-.44l-.881-.442-1.35-.454-2.684-1.335-6.277-1.35-6.278.454h-1.336l-24.214-4.033-11.193-.895-1.362-.44-2.685-.455-.428-.895c-1.803-.895-2.71-2.684-3.592-5.37l-.454-.453a497.226 497.226 0 0 0-2.231-4.475l-20.194 2.685-7.172 2.244-27.328-.454-22.424 4.474-9.416.441-11.647 2.685s-.454 0-.454.454l-4.929 2.685-4.033 1.349-4.579-.441-12.554-.895-12.101-.895-12.555-5.37-3.58 2.685-2.243-1.349-1.35.441-4.033-3.125-3.58-3.58-.453-4.475-56.043 1.35-4.033.894-.895.441h-.454l-6.718-.44c-1.79-.896-3.14-1.35-4.034-2.245l-.895-.44-5.823-.896-8.963.895-2.243-.454h-1.79l-4.488-1.348-3.58-.454-4.033.894-12.1 4.034-9.43 3.567-3.138.454-8.962-1.79-4.929.454-2.685.895.441 1.349 43.5 4.474h4.93l24.668 3.139 41.244-3.139 5.382-1.79c1.349-.44 2.698-.44 4.034.895l1.349.441 2.243 5.37 1.79 1.79 30.492 2.23c2.698 0 4.034.441 4.929 1.79l-.454.454.895 1.349h-.454v.454l8.52.454v-.895l-1.348-.454-3.593-.895-.895-.454h.441c-.895-.882-.895-1.349-.895-1.79l8.522-1.79 11.205 2.698 14.799-2.697 9.87-5.37c3.58 0 5.823.441 6.264 2.23v.455c1.35 1.79.454 3.567-2.23 5.37l-6.278 2.684v.895l17.483-3.139 4.942-2.685 5.823-1.348 31.841-4.034a27.575 27.575 0 0 1 13.904-4.034l11.193-1.335c3.138-.454 4.941.44 5.823 2.684.454 0 .908.454 1.803.895l-.882 2.685 1.349 3.58-2.685 3.138h-1.803l-.454.441v1.79l-7.172 2.685-2.724-.87h-.454l-7.172-1.789-5.823-.895-23.333 2.244-40.79 8.054-2.243.895-10.312 4.034-9.416.882-2.243-.882h-.441l-.454-.454h-.441v-.895l-2.244-2.231v-.441l7.626-1.349-9.416-.895-17.937 2.244H857.78l-9.87 1.79h-.454l.454.454c1.349 1.349 1.79 2.685 2.244 3.58l-14.799 4.915-.895-1.349-.894.454-.442-2.685-.453-1.79c-.441-2.684-2.698-4.02-5.824-3.58l-14.344.896-3.58.895-1.349 3.138-11.66-4.033c-2.23-.441-6.731.454-12.996 2.684h-1.802v.454l.454.895 4.033 2.231v.895l-4.033 2.23-2.231 2.232-2.698 1.348-1.349-.44h-.454c-1.349-.455-3.138-1.79-5.382-3.58l-1.803-2.685-.44-.454-2.245-3.58c-1.349-1.335-4.033-2.684-7.185-4.033l-1.79-.882-4.046-1.349-3.58-.454-2.244.454-4.928-1.349-4.021-2.697c-3.139-2.685-5.823-3.58-8.962-2.244h-11.206l-9.857 4.033a12.622 12.622 0 0 0-4.928 2.244 13.934 13.934 0 0 0-4.034 2.23l4.034 1.35c.895.895 1.348 1.349 1.348 2.23l.454.442c0 .894-.895 1.802-2.697 2.243l-7.173 2.685-13.903 5.81-1.349-.44h-2.685l-1.803-.895h-.44v-.441h-.454c-.895-.895 0-2.244 3.138-4.475l4.488-5.37h6.277l4.929-1.79-4.929.896-4.487-2.685-4.488-3.126-3.139-.895-3.138.454-1.79-.454-3.139-.895-4.487.454.895 2.685c.44.895.44 1.79.44 3.126l-1.348.895-2.685-.441-5.836-.454h-2.685c-1.35-.441-2.244-.895-2.685-.895-1.349-.882-1.803-1.79-1.803-3.126h-1.79c-2.697-2.23-2.697-4.033-1.348-4.915l6.277-1.35-7.626-3.579-14.332-.454-3.592-1.349-3.58-.895h-6.731l-6.732 2.244-9.87.882h-2.685l-1.802 1.349c-.44.84-.44 1.844 0 2.685.37.844.525 1.766.454 2.685.454 1.348 0 2.684-.895 4.033l-2.698-.441h-.895l-1.349-.454c-.895-.882-.895-2.23-1.349-3.126l-21.97-2.684-30.492 1.349-5.824-.441-4.474-.895H507.61v-.921l3.58-1.79h.454v-.895h-.454v-1.336c0-.895-.441-1.349-.895-1.803-.895-.894-2.244-.894-3.593-.894h-.895c-.453 0-.894 0-1.348.453-1.79 0-3.14.895-4.488 1.79-.895.454-1.79.895-2.685 1.79l-9.87 1.349c-1.79 0-2.697.454-3.138 1.349l.454.895 14.344 1.79v1.348l-1.349 1.79-12.1 7.6c-.454 2.244 2.697 4.929 9.416 7.16l13.903 1.349 13.89-.895 14.8 1.79 10.764 2.243 12.101.895h4.929l4.928-1.349 15.24-1.335 14.344 2.684h21.97l13.45-2.23 4.929 1.79 4.929 2.23 14.798 3.58 37.21 1.803 26.005-4.929 15.24 2.244 17.923-4.475 30.492 3.58 29.597.454 16.148 2.23 20.622-1.79h8.52l13.45-4.474 30.038 2.231 11.206 2.685 41.698.44 60.089-4.02 29.584-4.474-20.194-5.37-4.488-1.349-1.348-.44c-.428 0-.882-.442-2.231-.896-.908-.44-.908-1.348.454-3.125l7.6-1.79 8.08.44 2.257-.44 19.273-1.79 50.206 3.58c1.349.454 2.685.895 2.685 2.23l.454.454c0 1.79-2.257 2.231-6.278 2.231l-17.042 1.35 40.349.453 36.328-2.685h30.038v-.44h-.908l-2.23-.455-4.942-1.349-8.962.895c-2.685 0-4.034-.454-5.37-.895-.881-.882-1.348-1.335-1.348-2.684-.454-1.35.881-2.231 2.684-2.231l20.168-.895 4.488 3.139.908 1.79 2.23 1.79 5.396.894 5.37-.895v-.454h-3.14c-.881-.454-2.23-.895-3.138-1.336l-1.349-.453-1.349-2.698h10.311c4.942.454 7.627.895 7.627 2.244l-4.488 1.79 1.803.453 12.542-.454h-.428l-.454-.44c-3.139-1.79-4.034-3.126-3.593-4.475l3.139-1.803 4.046-1.336 9.857 4.475 4.488 1.79 4.941.454c1.803-.454 2.231-1.35.882-2.231l-1.349-.454-1.802-4.02 5.395-2.232.428-5.37 10.311.442c.454-.441 1.362 0 1.803.895l.908.895h.428l-3.567 9.39-7.172.454 1.777.44 13.903-1.348v-.895c-.454-.895-.454-1.79.454-2.685l7.626.454c1.777 0 3.567.441 4.034 1.349l4.034.441 54.265-4.475 18.365.441 21.53-2.684 16.134.454 6.745 2.684h4.915l4.942-.895h6.744l6.718-1.348 4.034-3.58-.428-5.37 16.134-8.054c0-1.349-1.348-1.79-4.033-1.349l-15.707-.44a3.503 3.503 0 0 0-1.803.44l-3.138-1.349c-.882-.894-.882-1.79-.428-2.684l-.908.454-3.567.44c.428 0 .428 0 .882.455h.882l-.428.454-4.034 4.474-5.395 4.034-.882-.441-.454.44-4.487-3.579c-1.35-.454-2.257-.454-3.139 0l-3.139 2.23-.882.442h-.908l-1.776.454-4.488-.895-1.349-.895h-.454c0-.454-.907-.895-2.684-1.79l-.454-1.349c0-.44-.454-.895-.454-1.336h-.428l-2.71 1.336h-6.226l-9.883 1.79-6.719-.895-16.588 1.79c-.908 0-1.349.454-1.349 1.349h-.454l-1.803 1.349-.882.895-.907.895-3.567 2.23-8.08 3.58-7.173-1.336-39.013-6.264-3.138-.441-.882-.454-7.627-2.685-13.903 3.58-15.68 1.349-11.22 2.684-43.928 4.034-5.37.895-4.941 1.349-6.277 2.684h-9.857v-1.348l-.454-.895.882-2.244 9.429-6.706 5.37-4.915c2.256-1.79 4.487-3.139 6.276-3.139l12.568-2.23 7.627-2.244 7.172-4.021 24.214-9.39.428.44.908 6.654Zm-450.608 8.042 5.382-2.231 3.139.895c1.79.895 2.244 1.79 1.79 3.138l-4.929 4.034c-3.139.441-5.382 0-7.172-1.349-1.336-1.349-.895-2.697 1.79-4.487Zm55.601 7.613c-3.593-2.23-4.929-4.475-4.047-7.6l2.698-1.35 3.139-.894 8.067 8.054-1.349 2.23-3.592.896-4.916-1.336Zm529.945 4.475-3.14 2.23-3.566-2.23c0-1.79.882-2.685 2.685-2.231l3.567-1.35c.908.896 1.361 1.79.454 3.58ZM720.133 614.42l-4.047.895a3.372 3.372 0 0 1-3.138-2.231v-4.488l9.87.895v.454h.453l-3.138 4.475Zm218.8 2.685v-.895l11.66-3.58 13.45-1.79 8.08 1.79.427 1.79-1.348.895-15.227 3.125-15.693-.453-1.35-.882Zm106.715-12.088 3.567 2.685-11.647 2.684-22.879 1.79-4.487-1.349-2.685-1.79v-1.349l5.37-1.79 5.395-.453 7.626-1.79 13.45-1.79 6.29 3.152Zm-61.425 10.298-.454-4.034 4.942-1.336 10.739-1.79 3.592.454v.454c-.882 2.231-2.256 3.58-5.369 4.034l-13.45 2.218Zm144.367 3.125-8.08-.453-1.35-2.231v-1.336l4.034-1.35 12.114-.894 1.803 2.244-.467 2.685-8.054 1.335Zm-419.663 11.634v-1.349l1.79-2.684v-.895l-1.79-2.231 8.962-4.034 8.067.895 4.488-.895 3.139-1.348c4.033 0 5.823.894 5.823 2.684l-1.349 2.685-16.147 8.495-12.983-1.323Zm36.315-9.403 5.837.454 5.836-1.79c3.139 0 4.488 1.35 3.58 3.58l-4.488 4.916-4.046.894h-6.732l-3.58-4.915c-.44-1.79.455-3.139 3.593-3.139Zm47.08 6.719-.44-1.35 7.613-4.915 6.731-.895 1.79-.44c4.488 0 6.731.881 6.731 3.125h-.44l-5.383 3.126-8.962 1.349h-7.64Zm82.047-12.97 2.244-.895c2.698 0 4.488.895 5.824 1.79l.894 2.23 2.244 1.79 11.206 3.58 1.79 2.23-8.08 2.686-6.719.454-2.243-3.14-2.698-2.23h-.895l-8.521 3.58-13.45-4.475c.441-1.79 2.685-3.139 7.173-4.915l9.416-2.244 1.815-.441Zm29.143 7.6h.895l9.416-2.698c2.244.895 2.244 2.698.454 4.034a22.775 22.775 0 0 1-5.836 2.244H908l-4.034-3.139-.454-.44 260.485-6.72c.454 1.79-.882 3.126-3.592 3.126l-11.193.454c-5.824 0-8.509-1.348-8.509-3.138a2.438 2.438 0 0 1 2.231-1.336l17.043-1.79 4.033 2.685-260.498 6.718Z"/><path fill-rule="evenodd" d="m777.524 613.525-8.962 1.79-4.034 1.79 3.14 4.915 1.802 2.685c2.244 1.79 4.033 3.139 5.382 3.58.895.44 1.35.44 2.244 0l4.034-3.14h.454l4.033-2.23v-.895l-4.033-2.23-.895-.455.895-4.02c-.026-.895-1.375-1.35-4.06-1.79Z"/><path fill="#fff" fill-rule="evenodd" d="m779.327 627.39 2.23-2.231h-.453l-4.034 3.138c-.895.441-1.349.441-2.244 0h.454l1.35.441 2.697-1.348Zm257.787-12.53.908-.44-2.244.44h1.336Z"/><path fill-rule="evenodd" d="m1038.022 614.42-.908.44h-1.349l-8.08-.44-7.6 1.79c-1.362 1.79-.908 2.684 1.348 4.033.428 0 .882.441 1.777.441l4.488 1.35 21.076 4.915 22.424-4.034 31.841-2.244 7.627-.882c-.454-.454-.454-.895-.454-1.349 0-1.335-1.35-1.79-2.685-2.23l-50.206-3.58-19.3 1.79Z"/><path fill="none" stroke="#000" stroke-width="3.813" stroke-opacity=".8" stroke-linecap="round" stroke-linejoin="round" d="M1170.603 924.137H157.313m1608.68.908H1278.64"/></svg>