<svg xmlns="http://www.w3.org/2000/svg" viewBox="0 0 132.11 52.7">
  <title>IFLA 2025</title>
  <g>
    <path class="cls-1" d="M57.99,24.79V2.91h4.13v21.88h-4.13Z"></path>
    <path class="cls-1" d="M66.24,24.79V2.91h13.75v3.75h-9.63v5.28h8.88v3.75h-8.88v9.1h-4.13Z"></path>
    <path class="cls-1" d="M82.93,24.79V2.91h4.13v18.13h10v3.75h-14.13Z"></path>
    <path class="cls-1" d="M98.37,24.79l5.75-21.88h7.19l5.75,21.88h-4.25l-1.19-4.81h-7.81l-1.19,4.81h-4.25ZM104.78,16.16h5.88l-2.66-10.66h-.56l-2.66,10.66Z"></path>
    <path class="cls-1" d="M55.86,49.79v-2.63c0-1.52.25-2.79.75-3.8.5-1.01,1.22-1.84,2.17-2.5.95-.66,2.11-1.19,3.49-1.61l2.09-.66c.77-.25,1.42-.56,1.94-.92s.92-.81,1.2-1.33c.28-.52.42-1.11.42-1.78v-.12c0-1.04-.36-1.87-1.06-2.49-.71-.61-1.68-.92-2.91-.92s-2.18.33-2.92.98c-.74.66-1.11,1.6-1.11,2.83v.56h-4v-.5c0-1.58.35-2.93,1.06-4.03.71-1.1,1.67-1.95,2.89-2.53,1.22-.58,2.58-.88,4.08-.88s2.86.29,4.06.86c1.21.57,2.16,1.38,2.86,2.41s1.05,2.25,1.05,3.64v.31c0,1.4-.29,2.58-.86,3.55-.57.97-1.35,1.76-2.33,2.38-.98.61-2.09,1.12-3.34,1.52l-2,.62c-.9.27-1.59.57-2.09.89-.5.32-.85.68-1.05,1.06-.2.39-.3.85-.3,1.39v.12h11.78v3.56h-15.88Z"></path>
    <path class="cls-1" d="M83.25,50.23c-2.58,0-4.66-.71-6.22-2.14-1.56-1.43-2.34-3.59-2.34-6.49v-5.5c0-2.81.78-4.95,2.34-6.42,1.56-1.47,3.64-2.2,6.22-2.2s4.68.73,6.24,2.2c1.55,1.47,2.33,3.61,2.33,6.42v5.5c0,2.9-.78,5.06-2.33,6.49-1.55,1.43-3.63,2.14-6.24,2.14ZM83.25,46.67c1.56,0,2.71-.43,3.45-1.28.74-.85,1.11-2.07,1.11-3.66v-5.81c0-1.6-.41-2.82-1.24-3.64s-1.93-1.23-3.33-1.23-2.56.43-3.36,1.28c-.8.86-1.2,2.05-1.2,3.59v5.81c0,1.65.38,2.88,1.14,3.7s1.9,1.23,3.42,1.23Z"></path>
    <path class="cls-1" d="M94.69,49.79v-2.63c0-1.52.25-2.79.75-3.8.5-1.01,1.22-1.84,2.17-2.5.95-.66,2.11-1.19,3.49-1.61l2.09-.66c.77-.25,1.42-.56,1.94-.92s.92-.81,1.2-1.33c.28-.52.42-1.11.42-1.78v-.12c0-1.04-.36-1.87-1.06-2.49-.71-.61-1.68-.92-2.91-.92s-2.18.33-2.92.98c-.74.66-1.11,1.6-1.11,2.83v.56h-4v-.5c0-1.58.35-2.93,1.06-4.03.71-1.1,1.67-1.95,2.89-2.53,1.22-.58,2.58-.88,4.08-.88s2.86.29,4.06.86c1.21.57,2.16,1.38,2.86,2.41s1.05,2.25,1.05,3.64v.31c0,1.4-.29,2.58-.86,3.55-.57.97-1.35,1.76-2.33,2.38-.98.61-2.09,1.12-3.34,1.52l-2,.62c-.9.27-1.59.57-2.09.89-.5.32-.85.68-1.05,1.06-.2.39-.3.85-.3,1.39v.12h11.78v3.56h-15.88Z"></path>
    <path class="cls-1" d="M121.41,50.23c-1.71,0-3.18-.3-4.42-.91s-2.19-1.46-2.86-2.56c-.67-1.1-1-2.39-1-3.84v-.31h4.06v.28c0,1.04.35,1.93,1.05,2.67.7.74,1.74,1.11,3.11,1.11s2.43-.37,3.17-1.11c.74-.74,1.11-1.7,1.11-2.89v-.31c0-1.17-.37-2.09-1.11-2.78s-1.66-1.03-2.77-1.03c-.61,0-1.11.08-1.5.25-.4.17-.72.38-.97.62s-.46.5-.62.75h-4.84v-12.25h14.94v3.63h-10.94v5.35h.56c.21-.27.49-.53.84-.78s.81-.46,1.38-.62c.56-.17,1.23-.25,2-.25,1.29,0,2.47.27,3.53.81,1.06.54,1.91,1.34,2.55,2.39.63,1.05.95,2.35.95,3.89v.38c0,1.54-.33,2.88-.98,4s-1.6,2-2.83,2.61c-1.23.61-2.7.92-4.41.92Z"></path>
  </g>
  <g>
    <path class="cls-1" d="M46.81,9.25V2.47c-11.32,0-20.62,8.75-21.51,19.85h-3.23c-.06,0-6.09.13-9.79-3.46-2.04-1.98-3.03-4.74-3.03-8.43H2.48c0,5.57,1.73,10.06,5.14,13.34,5.22,5.02,12.64,5.33,14.35,5.33.01,0,.02,0,.03,0h0s24.81,0,24.81,0v-6.78h-14.69c.86-7.34,7.12-13.07,14.69-13.07Z"></path>
    <path class="cls-1" d="M27.96,31.14h0s-25.49-.01-25.49-.01v6.78h24.73c.06,0,6.09-.13,9.79,3.46,2.04,1.98,3.03,4.74,3.03,8.43h6.78c0-5.57-1.73-10.06-5.14-13.34-4.72-4.54-11.24-5.23-13.71-5.32Z"></path>
  </g>
</svg>