<svg viewBox="0 0 814 287" xmlns="http://www.w3.org/2000/svg">
    <path id="path45" fill="currentColor" stroke="none" d="M 566.192078 252.009872 C 567.517273 262.393616 577.729126 267.62323 581.392883 269.182007 L 624.500732 269.182007 L 642.819641 251.456711 C 645.080261 266.944397 661.13855 269.15686 661.13855 269.15686 L 686.239258 269.15686 L 704.012573 251.456711 C 706.89679 266.944397 724.046448 269.15686 724.046448 269.15686 L 797.24408 269.15686 L 797.24408 240.922165 L 742.365295 240.922165 L 770.350403 163.961838 L 694.89209 163.961838 C 671.428345 164.540085 663.399231 190.537155 663.399231 190.537155 L 644.534668 240.922165 L 604.466919 240.922165 L 623.331482 188.324631 L 646.249573 188.324631 L 654.824402 162.302414 L 633.621216 162.302414 L 647.340942 125.770798 L 611.326721 125.770798 L 595.89209 163.408676 L 573.597595 163.408676 L 564.39917 188.877792 L 587.862915 188.877792 L 567.907043 241.475266 L 527.839355 241.475266 L 555.824402 163.408676 L 520.979492 163.408676 L 490.110291 241.751816 L 459.162964 242.028427 L 451.757477 213.240585 L 502.11496 163.961838 L 460.332306 163.961838 L 420.264557 202.177963 L 447.158295 125.770798 L 412.313385 125.770798 L 368.270111 241.475266 L 339.661407 241.475266 L 367.1008 163.961838 L 289.849609 163.961838 C 269.815735 163.961838 261.240936 185.559006 261.240936 185.559006 L 238.946426 240.922165 L 210.337799 240.922165 L 238.400757 163.961838 L 177.207901 163.961838 L 184.067734 144.60228 L 123.420502 144.60228 L 129.734619 125.770798 L 17.716528 125.770798 L 17.716528 157.877426 L 81.63781 157.877426 L 39.543308 269.15686 L 76.181091 269.15686 L 111.961418 175.602707 L 135.97084 175.602707 L 102.373253 269.15686 L 139.011032 269.15686 L 167.463776 193.327927 L 193.733856 193.327927 L 164.2677 269.15686 L 213.92366 269.15686 C 213.92366 269.15686 222.810242 262.971863 238.089005 251.733322 C 238.089005 251.733322 241.285034 264.455322 251.340958 269.15686 L 278.702362 269.182007 C 280.105499 267.824341 284.860626 263.650757 300.139374 251.180161 C 300.139374 251.180161 300.996826 263.751343 312.767731 269.182007 L 344.104736 269.207214 C 345.429932 267.874634 350.029144 263.600464 364.840149 251.305893 L 357.902374 269.15686 L 394.774048 269.15686 L 415.11972 216.00621 L 431.567749 269.207214 L 470.076385 269.15686 L 488.317352 251.456711 C 490.811829 264.052979 498.763031 267.97522 503.128357 269.182007 L 547.249573 269.207214 L 566.192078 252.009872 Z M 321.108643 193.327927 L 301.698425 242.028427 L 277.065369 242.028427 L 296.553558 193.327927 L 321.108643 193.327927 Z M 723.734558 193.327927 L 704.324402 242.028427 L 679.691345 242.028427 L 699.101563 193.327927 L 723.734558 193.327927 Z M 534.075562 125.569687 L 523.785767 154.357529 L 558.708618 154.357529 L 568.998413 125.569687 L 534.075562 125.569687 Z M 755.461365 96.178421 C 759.35907 96.178421 763.022766 97.686935 765.829102 100.45256 C 768.557495 103.1931 770.038574 106.863876 770.038574 110.76091 C 770.038574 114.657944 768.557495 118.32872 765.829102 121.094345 C 763.022766 123.834824 759.35907 125.368515 755.461365 125.368515 C 751.563782 125.368515 747.899963 123.834824 745.171692 121.094345 C 742.365295 118.32872 740.884277 114.657944 740.884277 110.76091 C 740.884277 102.715408 747.432251 96.178421 755.461365 96.178421 Z M 746.184998 120.063522 C 748.679504 122.552597 751.953491 123.910263 755.461365 123.910263 C 762.710999 123.910263 768.635376 118.027023 768.635376 110.76091 C 768.635376 107.241013 767.2323 103.947342 764.737793 101.458298 C 762.321289 98.969193 758.969299 97.611526 755.461365 97.611526 C 751.953491 97.611526 748.679504 98.969193 746.184998 101.458298 C 743.690552 103.947342 742.287354 107.241013 742.287354 110.76091 C 742.287354 114.280807 743.690552 117.574448 746.184998 120.063522 Z M 762.39917 113.878525 L 762.555054 116.694443 C 762.555054 117.574448 762.710999 117.876144 763.490479 118.253281 L 763.490479 118.60527 L 760.450378 118.60527 C 760.13855 117.649887 760.060608 115.286484 760.060608 114.708237 C 760.060608 113.425949 759.748779 111.917465 756.78656 111.917465 L 750.940186 111.917465 L 750.940186 118.60527 L 748.52356 118.60527 L 748.52356 102.991959 L 756.78656 102.991959 C 759.748779 102.991959 762.710999 103.897079 762.710999 107.19072 C 762.710999 109.503769 761.385803 110.358627 760.294495 110.936874 C 761.307861 111.314011 762.321289 111.716293 762.39917 113.878525 Z M 750.940186 110.107224 L 756.552795 110.107224 C 758.345703 110.107224 760.216492 109.730087 760.216492 107.416977 C 760.216492 105.003342 758.189758 104.8022 757.020508 104.8022 L 750.940186 104.8022 L 750.940186 110.107224 Z"/>
</svg>
