<svg viewBox="0 0 101 57" xmlns="http://www.w3.org/2000/svg">
    <g id="Group">
        <path id="Path" fill="currentColor" stroke="none" d="M 70.099998 3.799999 C 70.800003 3.799999 71.300003 4.400002 71.300003 5.299999 C 71.300003 6.200001 70.699997 6.799999 70.099998 6.799999 C 69.5 6.799999 68.900002 6.200001 68.900002 5.299999 C 68.900002 4.400002 69.400002 3.799999 70.099998 3.799999 M 72.599998 9 C 72.300003 8.700001 71.900002 8.5 71.400002 8.400002 C 70.5 8.200001 68.800003 8.299999 68.800003 7.900002 C 68.800003 7.599998 69.300003 7.400002 69.300003 7.400002 C 69.5 7.5 69.699997 7.5 70 7.5 C 71 7.5 72.300003 6.700001 72.300003 5.299999 C 72.300003 4.900002 72.199997 4.400002 72 4.200001 C 72.300003 4.099998 72.699997 3.700001 72.599998 2.900002 C 72.300003 3.200001 71.900002 3.299999 71.5 3.299999 L 71.099998 3.299999 C 71.099998 3.299999 70.699997 3.099998 70.099998 3.099998 C 69 3.099998 67.800003 3.900002 67.800003 5.299999 C 67.800003 6.299999 68.400002 6.799999 68.800003 7.099998 C 68.400002 7.5 68 7.799999 68 8.200001 C 68 8.5 68.199997 8.700001 68.300003 8.799999 C 69 9.5 70.699997 9.099998 71.800003 9.5 C 72.400002 9.700001 72.400002 9.900002 72.400002 10 C 72.400002 10.099998 72.300003 10.299999 72.199997 10.400002 C 72.099998 10.5 71.5 11 70.400002 11 C 69.300003 11 68.699997 10.599998 68.699997 10.200001 C 68.699997 9.799999 69 9.599998 69.699997 9.700001 C 69.5 9.5 69.199997 9.299999 68.800003 9.299999 C 68.099998 9.299999 67.599998 9.900002 67.599998 10.5 C 67.599998 11 68.099998 11.900002 70.099998 11.900002 C 72 11.900002 73.199997 10.900002 73.199997 9.900002 C 73 9.599998 72.800003 9.200001 72.599998 9 Z"/>
        <path id="path1" fill="currentColor" stroke="none" d="M 34 8.5 C 33.400002 8.900002 33.400002 8.5 33.400002 8.299999 C 33.400002 8.200001 33.400002 8.099998 33.400002 8.099998 L 33.400002 5 C 33.400002 3.700001 32.700001 3.099998 31.299999 3.099998 C 29.799999 3.099998 29 4 29 4.099998 L 28.9 4.200001 L 29.200001 4.400002 L 29.299999 4.299999 C 29.799999 3.900002 30.4 3.700001 30.9 3.700001 C 31.4 3.700001 32.299999 4 32.299999 4.799999 L 32.299999 5.200001 C 31.200001 5.400002 28.799999 5.900002 28.799999 7.599998 C 28.799999 8.900002 29.9 9.200001 30.5 9.200001 C 30.9 9.200001 31.6 9 32 8.400002 L 32 7.900002 L 31.799999 8.099998 C 31.6 8.200001 31.299999 8.5 30.799999 8.5 C 30.299999 8.5 29.799999 8.299999 29.799999 7.599998 C 29.799999 7 30.700001 6.400002 32.099998 6.099998 L 32.099998 8.099998 C 32.099998 9.099998 32.5 9.299999 32.799999 9.299999 C 33.099998 9.299999 33.400002 9.099998 33.799999 8.799999 L 33.900002 8.700001 L 34 8.5"/>
        <path id="path2" fill="currentColor" stroke="none" d="M 50.400002 8.5 C 49.799999 8.900002 49.799999 8.5 49.799999 8.299999 C 49.799999 8.200001 49.799999 8.099998 49.799999 8.099998 L 49.799999 5 C 49.799999 3.700001 49 3.099998 47.700001 3.099998 C 46.200001 3.099998 45.400002 4 45.400002 4.099998 L 45.299999 4.200001 L 45.599998 4.400002 L 45.700001 4.299999 C 46.200001 3.900002 46.799999 3.700001 47.299999 3.700001 C 47.799999 3.700001 48.700001 4 48.700001 4.799999 L 48.700001 5.200001 C 47.599998 5.400002 45.200001 5.900002 45.200001 7.599998 C 45.200001 8.900002 46.299999 9.200001 46.900002 9.200001 C 47.299999 9.200001 48 9 48.400002 8.400002 L 48.400002 7.900002 L 48.200001 8.099998 C 48 8.200001 47.700001 8.5 47.200001 8.5 C 46.700001 8.5 46.200001 8.299999 46.200001 7.599998 C 46.200001 7 47.099998 6.400002 48.5 6.099998 L 48.5 8.099998 C 48.5 9.099998 48.900002 9.299999 49.200001 9.299999 C 49.5 9.299999 49.799999 9.099998 50.200001 8.799999 L 50.299999 8.700001 L 50.400002 8.5"/>
        <path id="path3" fill="currentColor" stroke="none" d="M 58.700001 0.099998 C 58.5 0.599998 58 0.799999 58 1.400002 C 58 1.900002 58.700001 2.200001 58.700001 2.400002 C 58.700001 2.200001 59.400002 1.900002 59.400002 1.400002 C 59.400002 0.799999 58.900002 0.599998 58.700001 0.099998"/>
        <path id="path4" fill="currentColor" stroke="none" d="M 61 3.099998 L 61 3.400002 L 61.299999 3.400002 C 61.5 3.400002 61.599998 3.5 61.599998 3.700001 L 61.599998 9.299999 L 62.700001 9.299999 L 62.700001 5.5 C 62.700001 5.099998 63.099998 4 64 4 C 64.699997 4 65.099998 4.400002 65.099998 5.299999 L 65.099998 9.299999 L 66.800003 9.299999 L 66.800003 9 L 66.5 9 C 66.300003 9 66.199997 8.900002 66.199997 8.700001 L 66.199997 5.299999 C 66.199997 4.200001 65.699997 3.099998 64.400002 3.099998 C 63.700001 3.099998 63.099998 3.400002 62.599998 4 L 62.599998 3.099998 L 61 3.099998"/>
        <path id="path5" fill="currentColor" stroke="none" d="M 58.200001 9.299999 L 59.900002 9.299999 L 59.900002 9 L 59.700001 9 C 59.5 9 59.400002 8.900002 59.400002 8.700001 L 59.400002 3.099998 L 59 3.099998 L 57.799999 3.5 L 57.799999 3.799999 L 58.099998 3.799999 C 58.299999 3.799999 58.400002 3.900002 58.400002 4.099998 L 58.400002 9.299999"/>
        <path id="path6" fill="currentColor" stroke="none" d="M 56.400002 7.900002 L 56.400002 7.900002 C 56.200001 8.299999 56 8.5 55.400002 8.5 C 55.400002 8.5 54.099998 8.5 53 8.5 L 56.299999 3.599998 L 56.299999 3.099998 L 52 3.099998 L 51.700001 4.400002 L 51.900002 4.5 L 51.900002 4.400002 C 52.099998 4 52.299999 3.799999 52.900002 3.799999 C 52.900002 3.799999 53.900002 3.799999 54.799999 3.799999 L 51.5 8.599998 L 51.5 9.200001 L 56.299999 9.200001 L 56.599998 7.900002 L 56.400002 7.900002"/>
        <path id="path7" fill="currentColor" stroke="none" d="M 43.900002 9 C 43.700001 9 43.599998 8.900002 43.599998 8.700001 L 43.599998 5.299999 C 43.599998 4.200001 43.099998 3.099998 41.799999 3.099998 C 41.099998 3.099998 40.5 3.400002 40 4 C 40 4.099998 39.900002 4.099998 39.900002 4.200001 C 39.599998 3.599998 39.099998 3.099998 38.299999 3.099998 C 37.599998 3.099998 37 3.400002 36.5 4 L 36.5 3.099998 L 34.900002 3.099998 L 34.900002 3.400002 L 35.200001 3.400002 C 35.400002 3.400002 35.5 3.5 35.5 3.700001 L 35.5 9.299999 L 36.599998 9.299999 L 36.599998 5.5 C 36.599998 5.099998 36.900002 4 37.900002 4 C 38.599998 4 39 4.400002 39 5.299999 L 39 9.299999 L 40.099998 9.299999 L 40.099998 5.5 L 40.099998 5.5 C 40.099998 5.099998 40.5 4 41.400002 4 C 42.099998 4 42.5 4.400002 42.5 5.299999 L 42.5 9.299999 L 44.200001 9.299999 L 44.200001 9 L 43.900002 9"/>
        <path id="path8" fill="currentColor" stroke="none" d="M 26.200001 26.800001 C 25.6 26.800001 25.4 26.300001 25.4 25.800001 L 25.4 13.5 L 23.1 13.5 L 23.1 19.299999 L 17.5 19.299999 L 17.5 13.5 L 15.2 13.5 L 15.2 25.700001 C 15.2 26.300001 15 26.700001 14.4 26.700001 L 13.9 26.700001 L 13.9 27.1 L 17.5 27.1 L 17.5 21.099998 L 23.1 21.099998 L 23.1 27.200001 L 26.700001 27.200001 L 26.700001 26.800001 L 26.200001 26.800001"/>
        <path id="path9" fill="currentColor" stroke="none" d="M 42.799999 13.5 L 42.799999 27.200001 L 46.400002 27.200001 L 46.400002 26.800001 L 45.900002 26.800001 C 45.299999 26.800001 45.099998 26.300001 45.099998 25.800001 L 45.099998 13.5 L 42.799999 13.5"/>
        <path id="path10" fill="currentColor" stroke="none" d="M 57.5 24.099998 C 57.400002 24.399998 57.200001 24.599998 57.099998 24.799999 C 56.900002 25 56.799999 25.1 56.599998 25.200001 C 56.400002 25.300001 56.200001 25.4 55.900002 25.4 C 55.599998 25.4 55.299999 25.5 55 25.5 L 51.799999 25.5 C 51.200001 25.5 51 25.300001 51 24.899998 L 51 13.5 L 48.700001 13.5 L 48.700001 25.700001 C 48.700001 26.300001 48.5 26.700001 47.900002 26.700001 L 47.400002 26.700001 L 47.400002 27.1 L 57.099998 27.1 L 57.799999 24 L 57.5 24.099998"/>
        <path id="path11" fill="currentColor" stroke="none" d="M 82.900002 13.599998 L 82.900002 23.5 L 76.199997 13.599998 L 74.099998 13.599998 L 74.099998 25.800001 C 74.099998 26.4 73.900002 26.800001 73.300003 26.800001 L 72.800003 26.800001 L 72.800003 27.200001 L 76.400002 27.200001 L 76.400002 17.5 L 83 27.200001 L 85.199997 27.200001 L 85.199997 13.599998 L 82.900002 13.599998"/>
        <path id="Rectangle" fill="currentColor" fill-rule="evenodd" stroke="none" d="M 66 97 L 90 97 L 90 73 L 66 73 Z"/>
        <g id="g1">
            <clipPath id="clipPath1">
                <path d="M 29.200001 26.1 L 76.800003 26.1 L 76.800003 56.1 L 29.200001 56.1 Z"/>
            </clipPath>
            <g id="g2" clip-path="url(#clipPath1)">
                <clipPath id="clipPath2">
                    <path d="M 65.199999 29.1 C 67.900003 26 73.800005 30.2 76.699999 28.2 C 76.1 29.399999 74.199999 30.2 73.400003 30.800001 C 70.199999 33.300001 70.6 39.399999 67.699999 44.6 C 64.300005 50.699998 56.5 56.1 46.799999 54.000001 C 38.099998 52.1 34.599998 45.500001 33 41.300001 C 31.6 37.699998 31.200001 36.800001 29.1 34.899999 C 33.599998 36.399999 35.599998 42.399999 43.799999 44.199998 C 50.400002 45.6 58.400002 43.800001 62.799997 38.399999 C 66.500002 33.800001 66.900003 31.399999 69.400003 29.899999 C 68.500002 29.5 67.300005 28.5 65.199999 29.1"/>
                </clipPath>
                <path id="path12" fill="currentColor" stroke="none" clip-path="url(#clipPath2)" d="M 29.200001 26.1 L 76.800003 26.1 L 76.800003 56.099998 L 29.200001 56.099998 Z"/>
            </g>
        </g>
        <path id="path13" fill="currentColor" stroke="none" d="M 34.299999 16.399998 L 35.700001 19.899998 C 36.700001 20 37.700001 20.099998 38.5 20.599998 L 35.599998 13.5 L 33.900002 13.5 L 31 20.5 C 31.5 20.200001 32.200001 20 32.900002 19.899998 L 34.299999 16.399998"/>
        <path id="path14" fill="currentColor" stroke="none" d="M 64.5 16.399998 L 65.900002 19.899998 C 66.900002 20 67.900002 20.099998 68.699997 20.599998 L 65.800003 13.5 L 64.099998 13.5 L 61.200001 20.5 C 61.700001 20.200001 62.400002 20 63.099998 19.899998 L 64.5 16.399998"/>
        <path id="path15" fill="currentColor" stroke="none" d="M 13.7 13.5 L 3 13.5 L 2.9 16.5 L 3.2 16.5 C 3.3 16 3.4 15.5 3.7 15.399998 C 3.8 15.200001 4.2 15.099998 4.7 15.099998 L 7.2 15.099998 L 7.2 27.300001 L 10.8 27.300001 L 10.8 26.9 L 10.3 26.9 C 9.7 26.9 9.5 26.4 9.5 25.9 L 9.5 15.099998 L 11.9 15.099998 C 12.4 15.099998 12.7 15.200001 12.9 15.399998 C 13.1 15.599998 13.3 16.099998 13.4 16.599998 L 13.7 16.599998 L 13.7 13.5"/>
        <path id="path16" fill="currentColor" stroke="none" d="M 89.900002 15.099998 L 89.900002 25.800001 L 90.400002 25.800001 C 92.300003 25.800001 93.900002 25.4 95.199997 24.299999 C 96.5 23.200001 96.599998 21.299999 96.599998 20.399998 C 96.599998 19.599998 96.5 17.799999 95.199997 16.5 C 93.900002 15.299999 91.699997 15 90.800003 15 L 89.900002 15 M 91.199997 13.599998 C 93.300003 13.599998 98.900002 14 98.900002 20.5 C 98.900002 27.1 92.900002 27.300001 90.599998 27.300001 C 88.5 27.300001 87.300003 27.300001 86.099998 27.300001 L 86.099998 26.9 L 86.599998 26.9 C 87.199997 26.9 87.400002 26.4 87.400002 25.800001 L 87.400002 13.599998 L 91.199997 13.599998 Z"/>
        <path id="path17" fill="currentColor" stroke="none" d="M 34.700001 21.899998 C 35.5 21.899998 36.599998 22 37.200001 23.700001 L 37.700001 25.4 C 38 26.300001 38.700001 26.800001 39.299999 27 C 39.900002 27.200001 40.599998 27.200001 41 27.200001 L 41.599998 27.200001 L 41.599998 26.800001 C 40.900002 26.800001 40.400002 26.5 39.900002 25.300001 L 39.099998 23 C 38.5 21.399998 37.099998 20.899998 34.5 20.899998 C 31.9 20.899998 30.5 21.399998 29.9 23 L 29.1 25.300001 C 28.700001 26.5 28.200001 26.800001 27.4 26.800001 L 27.4 27.200001 L 28 27.200001 C 28.4 27.200001 29.200001 27.200001 29.700001 27 C 30.299999 26.800001 31 26.300001 31.299999 25.4 L 31.799999 23.700001 C 32.799999 22 33.900002 21.899998 34.700001 21.899998"/>
        <path id="path18" fill="currentColor" stroke="none" d="M 65 21.899998 C 65.800003 21.899998 66.900002 22 67.5 23.700001 L 68 25.4 C 68.300003 26.300001 69 26.800001 69.599998 27 C 70.199997 27.200001 70.900002 27.200001 71.300003 27.200001 L 72 27.200001 L 72 26.800001 C 71.300003 26.800001 70.800003 26.5 70.300003 25.300001 L 69.5 23 C 68.900002 21.399998 67.5 20.899998 64.900002 20.899998 C 62.299999 20.899998 60.900002 21.399998 60.299999 23 L 59.5 25.300001 C 59.099998 26.5 58.599998 26.800001 57.799999 26.800001 L 57.799999 27.200001 L 58.400002 27.200001 C 58.799999 27.200001 59.599998 27.200001 60.099998 27 C 60.700001 26.800001 61.400002 26.300001 61.700001 25.4 L 62.200001 23.700001 C 63.099998 22 64.199997 21.899998 65 21.899998"/>
    </g>
</svg>
