<svg viewBox="0 0 370 500" version="1.1" xmlns="http://www.w3.org/2000/svg" xmlns:xlink="http://www.w3.org/1999/xlink">
    <g id="signet" stroke="none" stroke-width="1" fill="none" fill-rule="evenodd">
        <path d="M166.118348,76.138388 C166.118348,76.138388 167.892337,115.090875 168.566452,154.631094 L168.614332,157.560496 C168.744046,165.860243 168.822187,174.144152 168.822187,182.057555 C168.822187,211.835305 154.457231,274.043766 147.905714,326.350309 C142.006035,373.510775 143.860275,412.615402 143.860275,412.615402 C143.860275,417.792681 139.655476,421.997479 134.473878,421.997479 L34.3559892,421.997479 C29.1705508,421.997479 24.9657522,417.792681 24.9657522,412.615402 C24.9657522,412.615402 26.8199916,373.510775 20.9241534,326.350309 C19.2208836,312.750608 16.9888413,298.481537 14.6181292,284.287135 L14.0687578,281.013168 C7.45102307,241.749596 -4.26325641e-14,203.497535 -4.26325641e-14,182.057555 C-4.26325641e-14,174.144152 0.0781409514,165.860243 0.207854931,157.560496 L0.255734515,154.631094 C0.929850284,115.090875 2.70383915,76.138388 2.70383915,76.138388 Z M146.757925,97.138388 L22.0642616,97.138388 C22.0642616,97.138388 20.0010935,142.44055 20.0010935,177.960153 C20.0010935,193.86552 25.3751319,221.896573 30.314136,250.973736 L30.7362783,253.468368 C32.7000394,265.119527 34.5676393,276.887414 35.9672973,288.062936 C40.4661246,324.048793 45.0512447,394.955212 45.0512447,394.955212 C45.0512447,398.905741 48.2597221,402.114219 52.2164779,402.114219 L116.611569,402.114219 C120.565395,402.114219 123.773872,398.905741 123.773872,394.955212 C123.773872,394.955212 128.358992,324.048793 132.86075,288.062936 C134.26051,276.887414 136.127696,265.119527 138.090807,253.468368 L138.512807,250.973736 C143.450106,221.896573 148.821093,193.86552 148.821093,177.960153 C148.821093,142.44055 146.757925,97.138388 146.757925,97.138388 Z" id="Combined-Shape" fill="currentColor"></path>
        <path d="M252.541331,205.460427 L245.108039,205.460427 C238.393782,205.460427 238.393782,200.576429 238.393782,200.576429 L238.393782,81.7419063 C238.393782,76.143668 243.112702,76.143668 243.112702,76.143668 L254.103174,76.143668 C258.393782,76.143668 258.393782,81.7419063 258.393782,81.7419063 L258.393782,200.576429 C258.393782,205.460427 252.541331,205.460427 252.541331,205.460427" id="Fill-1" fill="currentColor"></path>
        <path d="M326.849559,205.460427 L319.416267,205.460427 C312.70201,205.460427 312.70201,200.576429 312.70201,200.576429 L312.70201,81.7419063 C312.70201,76.143668 317.42093,76.143668 317.42093,76.143668 L328.411402,76.143668 C332.70201,76.143668 332.70201,81.7419063 332.70201,81.7419063 L332.70201,200.576429 C332.70201,205.460427 326.849559,205.460427 326.849559,205.460427" id="Fill-2" fill="currentColor"></path>
        <path d="M282.262153,213.810025 C275.547896,213.810025 275.547896,208.926506 275.547896,208.926506 L275.547896,43.5982382 C275.547896,38 280.266816,38 280.266816,38 L291.257864,38 C295.547896,38 295.547896,43.5982382 295.547896,43.5982382 L295.547896,208.926506 C295.547896,213.810025 289.695445,213.810025 289.695445,213.810025 L282.262153,213.810025 Z" id="Fill-3" fill="currentColor"></path>
        <g id="Group" transform="translate(201.180000, 114.348296)" fill="currentColor">
            <path d="M0.00431999864,181.006503 L0.00431999864,152.054352 C0.00431999864,152.054352 1.47743954,148.131313 10.7999966,152.054352 C20.1182337,155.980751 62.5900603,180.410823 71.6423775,196.217218 C76.1169361,204.031136 76.0577078,210.939294 76.0577078,210.939294 L76.0577078,234.980566 C76.0577078,234.980566 76.1922961,241.420244 70.6617378,239.887605 C64.0430199,238.053525 32.4148698,218.753211 21.5913532,209.958654 C3.46655891,195.216419 0.00431999864,181.006503 0.00431999864,181.006503" id="Fill-4"></path>
            <path d="M168.820747,181.006503 L168.820747,152.054352 C168.820747,152.054352 167.347627,148.131313 158.02507,152.054352 C148.706353,155.980751 106.235007,180.410823 97.1826895,196.217218 C92.7076509,204.031136 92.7668792,210.939294 92.7668792,210.939294 L92.7668792,234.980566 C92.7668792,234.980566 92.6322909,241.420244 98.1633292,239.887605 C104.782047,238.053525 136.410197,218.753211 147.233714,209.958654 C165.358508,195.216419 168.820747,181.006503 168.820747,181.006503" id="Fill-5"></path>
            <path d="M25.724923,90.4540516 C25.661563,90.4180516 25.621723,90.3863716 25.558363,90.3546916 C20.6268446,87.8534124 20.2020447,81.9849342 20.1703647,80.5478147 L20.1742047,5.60207824 C20.1742047,5.60207824 20.1742047,-1.42108547e-14 16.6010859,-1.42108547e-14 L3.93071877,-1.42108547e-14 C3.93071877,-1.42108547e-14 0,-1.42108547e-14 0,5.60207824 L0.00431999864,113.478684 C0.00431999864,113.478684 3.46655891,127.6886 21.5951932,142.426995 C32.4148698,151.225392 64.0430199,170.525226 70.6617378,172.359786 C76.1922961,173.892425 76.0577078,167.452267 76.0577078,167.452267 L76.0577078,143.411475 C76.0577078,143.411475 76.1169361,136.502837 71.6423775,128.68892 C64.7380597,116.630843 41.9637979,99.6138887 25.724923,90.4540516 Z" id="Fill-6"></path>
            <path d="M143.293819,90.4540516 C143.357179,90.4180516 143.397019,90.3863716 143.460379,90.3546916 C148.391898,87.8534124 148.816697,81.9849342 148.848377,80.5478147 L148.844537,5.60207824 C148.844537,5.60207824 148.844537,0 152.417656,0 L164.890508,0 C164.890508,0 168.821227,0 168.821227,5.60207824 L168.816907,113.478684 C168.816907,113.478684 165.355148,127.6886 147.226034,142.426995 C136.406837,151.225392 104.778207,170.525226 98.1594892,172.359786 C92.6289309,173.892425 92.7632292,167.452267 92.7632292,167.452267 L92.7632292,143.411475 C92.7632292,143.411475 92.7042909,136.502837 97.1788495,128.68892 C104.083647,116.630843 127.054944,99.6138887 143.293819,90.4540516 Z" id="Fill-7"></path>
            <path d="M0.00431999864,248.534322 L0.00431999864,219.582171 C0.00431999864,219.582171 1.47743954,215.659612 10.7999966,219.582171 C20.1182337,223.50905 62.5900603,247.939122 71.6423775,263.745037 C76.1169361,271.558955 76.0577078,278.467593 76.0577078,278.467593 L76.0577078,302.508385 C76.0577078,302.508385 76.1922961,308.948543 70.6617378,307.415903 C64.0430199,305.581344 32.4148698,286.28151 21.5913532,277.486953 C3.46655891,262.744717 0.00431999864,248.534322 0.00431999864,248.534322" id="Fill-8"></path>
            <path d="M168.820747,248.534322 L168.820747,219.582171 C168.820747,219.582171 167.347627,215.659612 158.02507,219.582171 C148.706353,223.50905 106.235007,247.939122 97.1826895,263.745037 C92.7076509,271.558955 92.7668792,278.467593 92.7668792,278.467593 L92.7668792,302.508385 C92.7668792,302.508385 92.6322909,308.948543 98.1633292,307.415903 C104.782047,305.581344 136.410197,286.28151 147.233714,277.486953 C165.358508,262.744717 168.820747,248.534322 168.820747,248.534322" id="Fill-9"></path>
        </g>
        <path d="M129.127699,145.929161 L40.4271109,145.929161 C40.4271109,145.929161 40.0010935,177.422155 40.0010935,202.114544 C40.0010935,217.91031 47.6253887,250.909117 51.1004215,278.6554 C54.2279,303.671918 57.4153673,385.423618 57.4153673,385.423618 C57.4153673,388.169933 59.645825,390.400391 62.3964682,390.400391 L107.162416,390.400391 C109.911022,390.400391 112.14148,388.169933 112.14148,385.423618 C112.14148,385.423618 115.328947,303.671918 118.458462,278.6554 C121.93375,250.909117 129.553716,217.91031 129.553716,202.114544 C129.553716,177.422155 129.127699,145.929161 129.127699,145.929161 Z" id="Path" fill="currentColor"></path>
    </g>
</svg>