<svg viewBox="0 0 260 260" xmlns="http://www.w3.org/2000/svg" xml:space="preserve" style="fill-rule:evenodd;clip-rule:evenodd;stroke-linejoin:round;stroke-miterlimit:2"><path style="fill:#111" d="M0 0h260v260H0z"/><path d="m130 33.9 41.186 24.02v48.06L130 130l-41.186-24.02V57.92L130 33.9ZM93.39 60.655v42.59L130 124.598l36.61-21.353v-42.59L130 39.3 93.39 60.655Z" style="fill:#f7f7f7;fill-rule:nonzero"/><path d="m148.305 81.95-11.441 5.926v.938h11.441v9.153h-36.61v-9.153h11.441v-1l-11.441-5.864V70.509L130 80.341l18.305-9.832" style="fill:#f7f7f7;fill-rule:nonzero"/><path d="M.629-.241a.249.249 0 0 1-.143.22.36.36 0 0 1-.151.031.28.28 0 0 1-.221-.092.377.377 0 0 1-.08-.257v-.036c0-.069.012-.13.036-.182a.265.265 0 0 1 .105-.121.286.286 0 0 1 .158-.043c.086 0 .156.023.208.068a.27.27 0 0 1 .089.188H.459C.458-.509.447-.54.427-.559.406-.577.375-.587.333-.587c-.043 0-.074.016-.094.048a.308.308 0 0 0-.031.153v.05c0 .076.01.13.029.163.019.032.051.048.098.048a.134.134 0 0 0 .09-.027C.446-.171.457-.2.458-.241h.171Z" style="fill:#f7f7f7;fill-rule:nonzero" transform="translate(63.194 184.342) scale(33.3334)"/><path d="M.302.01a.27.27 0 0 1-.197-.073.25.25 0 0 1-.075-.188v-.014c0-.054.01-.102.03-.143a.214.214 0 0 1 .087-.096.263.263 0 0 1 .137-.034.23.23 0 0 1 .176.069c.043.046.064.11.064.193v.064H.197a.119.119 0 0 0 .039.069c.02.017.045.026.077.026a.146.146 0 0 0 .122-.055l.075.089a.209.209 0 0 1-.087.068.308.308 0 0 1-.121.025ZM.283-.411c-.048 0-.077.032-.086.096h.166v-.013C.364-.354.357-.375.343-.389.329-.404.309-.411.283-.411Z" style="fill:#f7f7f7;fill-rule:nonzero" transform="translate(85.07 184.342) scale(33.3334)"/><path d="M.366-.379.312-.383c-.052 0-.085.016-.1.049V0H.047v-.528h.155l.005.068c.028-.052.066-.078.116-.078a.16.16 0 0 1 .046.006l-.003.153Z" style="fill:#f7f7f7;fill-rule:nonzero" transform="translate(103.218 184.342) scale(33.3334)"/><path d="M.238-.66v.132h.087v.114H.238v.242c0 .019.003.033.011.041.007.008.021.012.042.012.016 0 .03-.001.041-.003v.118A.322.322 0 0 1 .239.01C.183.01.141-.004.114-.03.087-.057.073-.097.073-.152v-.262H.006v-.114h.067V-.66h.165Z" style="fill:#f7f7f7;fill-rule:nonzero" transform="translate(116.662 184.342) scale(33.3334)"/><path d="M.22 0H.055v-.528H.22V0ZM.045-.665c0-.023.008-.042.025-.057a.096.096 0 0 1 .066-.023c.027 0 .049.008.066.023a.073.073 0 0 1 .026.057.074.074 0 0 1-.026.058.096.096 0 0 1-.066.023.096.096 0 0 1-.066-.023.073.073 0 0 1-.025-.058Z" style="fill:#f7f7f7;fill-rule:nonzero" transform="translate(128.104 184.342) scale(33.3334)"/><path d="M.084 0v-.414H.008v-.114h.076v-.018a.205.205 0 0 1 .07-.162.278.278 0 0 1 .18-.052c.048 0 .106.009.172.028l-.023.13-.027-.007a.41.41 0 0 0-.112-.015c-.063 0-.094.029-.094.086v.01h.103v.114H.25V0H.084Zm.498 0H.416v-.528h.166V0Z" style="fill:#f7f7f7;fill-rule:nonzero" transform="translate(137.268 184.342) scale(33.3334)"/><path d="M.302.01a.27.27 0 0 1-.197-.073.25.25 0 0 1-.075-.188v-.014c0-.054.01-.102.03-.143a.214.214 0 0 1 .087-.096.263.263 0 0 1 .137-.034.23.23 0 0 1 .176.069c.043.046.064.11.064.193v.064H.197a.119.119 0 0 0 .039.069c.02.017.045.026.077.026a.146.146 0 0 0 .122-.055l.075.089a.209.209 0 0 1-.087.068.308.308 0 0 1-.121.025ZM.283-.411c-.048 0-.077.032-.086.096h.166v-.013C.364-.354.357-.375.343-.389.329-.404.309-.411.283-.411Z" style="fill:#f7f7f7;fill-rule:nonzero" transform="translate(158.458 184.342) scale(33.3334)"/><path d="M.025-.268c0-.084.018-.15.055-.198a.178.178 0 0 1 .151-.072c.047 0 .087.018.119.056V-.75h.165V0H.367L.359-.057A.155.155 0 0 1 .23.01a.175.175 0 0 1-.149-.073.33.33 0 0 1-.056-.205Zm.165.01c0 .094.027.141.082.141A.081.081 0 0 0 .35-.163v-.201C.335-.396.309-.411.273-.411c-.051 0-.078.041-.083.123v.03Z" style="fill:#f7f7f7;fill-rule:nonzero" transform="translate(176.606 184.342) scale(33.3334)"/><path d="m.295-.265-.07.077V0H.054v-.711h.171v.314l.06-.091.153-.223H.65l-.24.315L.65 0H.447L.295-.265Z" style="fill:#f7f7f7;fill-rule:nonzero" transform="translate(28.803 226.009) scale(33.3334)"/><path d="M.22 0H.055v-.528H.22V0ZM.045-.665c0-.023.008-.042.025-.057a.096.096 0 0 1 .066-.023c.027 0 .049.008.066.023a.073.073 0 0 1 .026.057.074.074 0 0 1-.026.058.096.096 0 0 1-.066.023.096.096 0 0 1-.066-.023.073.073 0 0 1-.025-.058Z" style="fill:#f7f7f7;fill-rule:nonzero" transform="translate(50.125 226.009) scale(33.3334)"/><path d="M.366-.379.312-.383c-.052 0-.085.016-.1.049V0H.047v-.528h.155l.005.068c.028-.052.066-.078.116-.078a.16.16 0 0 1 .046.006l-.003.153Z" style="fill:#f7f7f7;fill-rule:nonzero" transform="translate(59.288 226.009) scale(33.3334)"/><path d="M.537-.26a.322.322 0 0 1-.054.2.181.181 0 0 1-.151.07.158.158 0 0 1-.13-.064L.195 0H.047v-.75h.165v.264a.15.15 0 0 1 .119-.052c.065 0 .116.024.152.071a.32.32 0 0 1 .054.199v.008ZM.372-.27a.21.21 0 0 0-.021-.109C.338-.4.317-.411.289-.411c-.037 0-.063.014-.077.042v.21c.014.028.04.042.078.042.039 0 .063-.019.074-.056A.422.422 0 0 0 .372-.27Z" style="fill:#f7f7f7;fill-rule:nonzero" transform="translate(71.918 226.009) scale(33.3334)"/><path d="m.257-.23.088-.298h.176L.306.088.297.111a.164.164 0 0 1-.162.102.277.277 0 0 1-.068-.009V.086h.021a.109.109 0 0 0 .053-.01A.057.057 0 0 0 .168.04L.182.005l-.184-.533h.176l.083.298Z" style="fill:#f7f7f7;fill-rule:nonzero" transform="translate(90.506 226.009) scale(33.3334)"/><path d="M.225-.241V0H.054v-.711h.283c.055 0 .103.01.145.03a.226.226 0 0 1 .131.211c0 .07-.025.125-.074.167a.313.313 0 0 1-.205.062H.225Zm0-.133h.112c.034 0 .059-.008.076-.024.018-.017.026-.04.026-.071a.113.113 0 0 0-.026-.079.1.1 0 0 0-.074-.031H.225v.205Z" style="fill:#f7f7f7;fill-rule:nonzero" transform="translate(116.076 226.009) scale(33.3334)"/><path d="M.344 0a.211.211 0 0 1-.016-.047.152.152 0 0 1-.127.057.188.188 0 0 1-.127-.045.145.145 0 0 1-.052-.114c0-.057.021-.101.063-.13A.328.328 0 0 1 .27-.323h.051v-.028C.321-.399.3-.423.258-.423c-.039 0-.059.019-.059.057H.035c0-.051.021-.092.065-.124a.272.272 0 0 1 .166-.048c.067 0 .121.016.16.049a.172.172 0 0 1 .06.135v.234c0 .049.008.086.022.112V0H.344ZM.241-.107a.093.093 0 0 0 .08-.043v-.085H.273c-.057 0-.086.026-.086.077a.05.05 0 0 0 .015.037c.01.009.023.014.039.014Z" style="fill:#f7f7f7;fill-rule:nonzero" transform="translate(137.592 226.009) scale(33.3334)"/><path d="M.366-.379.312-.383c-.052 0-.085.016-.1.049V0H.047v-.528h.155l.005.068c.028-.052.066-.078.116-.078a.16.16 0 0 1 .046.006l-.003.153Z" style="fill:#f7f7f7;fill-rule:nonzero" transform="translate(155.284 226.009) scale(33.3334)"/><path d="M.238-.66v.132h.087v.114H.238v.242c0 .019.003.033.011.041.007.008.021.012.042.012.016 0 .03-.001.041-.003v.118A.322.322 0 0 1 .239.01C.183.01.141-.004.114-.03.087-.057.073-.097.073-.152v-.262H.006v-.114h.067V-.66h.165Z" style="fill:#f7f7f7;fill-rule:nonzero" transform="translate(168.728 226.009) scale(33.3334)"/><path d="m.197-.528.006.062a.178.178 0 0 1 .151-.072c.055 0 .096.016.123.049.027.033.041.083.042.149V0H.354v-.333C.354-.36.349-.38.338-.392.327-.405.308-.411.279-.411a.077.077 0 0 0-.071.038V0H.043v-.528h.154Z" style="fill:#f7f7f7;fill-rule:nonzero" transform="translate(180.17 226.009) scale(33.3334)"/><path d="M.302.01a.27.27 0 0 1-.197-.073.25.25 0 0 1-.075-.188v-.014c0-.054.01-.102.03-.143a.214.214 0 0 1 .087-.096.263.263 0 0 1 .137-.034.23.23 0 0 1 .176.069c.043.046.064.11.064.193v.064H.197a.119.119 0 0 0 .039.069c.02.017.045.026.077.026a.146.146 0 0 0 .122-.055l.075.089a.209.209 0 0 1-.087.068.308.308 0 0 1-.121.025ZM.283-.411c-.048 0-.077.032-.086.096h.166v-.013C.364-.354.357-.375.343-.389.329-.404.309-.411.283-.411Z" style="fill:#f7f7f7;fill-rule:nonzero" transform="translate(198.97 226.009) scale(33.3334)"/><path d="M.366-.379.312-.383c-.052 0-.085.016-.1.049V0H.047v-.528h.155l.005.068c.028-.052.066-.078.116-.078a.16.16 0 0 1 .046.006l-.003.153Z" style="fill:#f7f7f7;fill-rule:nonzero" transform="translate(217.118 226.009) scale(33.3334)"/></svg>