<svg xmlns="http://www.w3.org/2000/svg" viewBox="0 0 440 200"><title>Certified Kirby Partner</title><path fill="#111" d="M0 0h440v200H0z"/><path fill="#f7f7f7" d="m107.186 51.976 41.185 24.02v48.06l-41.185 24.02L66 124.056v-48.06zm-36.61 26.755v42.59l36.61 21.353 36.609-21.353v-42.59l-36.609-21.355zm54.915 21.295-11.441 5.926v.938h11.441v9.153h-36.61v-9.153h11.44v-1l-11.44-5.864V88.585l18.305 9.832 18.305-9.832zm76.673-8.059a8.34 8.34 0 0 1-4.767 7.333 13.3 13.3 0 0 1-5.033 1.033 9.34 9.34 0 0 1-7.367-3.066 12.67 12.67 0 0 1-2.667-8.567v-1.2q0-3.466 1.2-6.067a9 9 0 0 1 3.5-4.033 10 10 0 0 1 5.267-1.433q4.333 0 6.933 2.266a9 9 0 0 1 2.967 6.267h-5.7q-.066-2.2-1.067-3.133-1.033-.9-3.133-.934-2.133 0-3.133 1.6a10 10 0 0 0-1.034 5.1V88.8q0 3.8.967 5.433.933 1.6 3.267 1.6a4.33 4.33 0 0 0 3-.9q1.033-.933 1.1-2.966zm10.975 8.366a9 9 0 0 1-6.567-2.433 8.34 8.34 0 0 1-2.5-6.267v-.466q0-2.7 1-4.767a6.67 6.67 0 0 1 2.9-3.2 8.66 8.66 0 0 1 4.567-1.133 7.66 7.66 0 0 1 5.866 2.3q2.134 2.3 2.134 6.433v2.133h-10.9c.16.892.618 1.703 1.3 2.3q1 .867 2.566.867a5 5 0 0 0 4.067-1.833l2.5 2.966a6.67 6.67 0 0 1-2.9 2.267 10 10 0 0 1-4.033.833m-.634-14.033q-2.4 0-2.866 3.2h5.533v-.433q.033-1.334-.667-2.034-.7-.733-2-.733m20.915 1.067-1.8-.134q-2.6 0-3.333 1.634V100h-5.5V82.4h5.166l.167 2.267q1.4-2.6 3.867-2.6a6.7 6.7 0 0 1 1.533.2zM242.596 78v4.4h2.9v3.8h-2.9v8.067q0 .967.367 1.366.366.4 1.4.4.8 0 1.367-.1v3.934a10 10 0 0 1-3.1.466q-2.8 0-4.167-1.333t-1.367-4.067V86.2h-2.233v-3.8h2.233V78zm10.842 22h-5.5V82.4h5.5zm-5.833-22.167q0-1.166.833-1.9a3.34 3.34 0 0 1 2.2-.766q1.334 0 2.2.766c.572.461.893 1.166.867 1.9a2.34 2.34 0 0 1-.867 1.934 3.33 3.33 0 0 1-2.2.766 3.34 3.34 0 0 1-2.2-.766 2.34 2.34 0 0 1-.833-1.934M258.07 100V86.2h-2.533v-3.8h2.533v-.6a6.67 6.67 0 0 1 2.333-5.4 9.34 9.34 0 0 1 6-1.733q2.434 0 5.734.933l-.767 4.333-.9-.233a13.3 13.3 0 0 0-3.733-.5q-3.134 0-3.134 2.867v.333h3.434v3.8h-3.434V100zm16.6 0h-5.533V82.4h5.533zm11.858.333a9 9 0 0 1-6.567-2.433 8.34 8.34 0 0 1-2.5-6.267v-.466q0-2.7 1-4.767a6.67 6.67 0 0 1 2.9-3.2 8.66 8.66 0 0 1 4.567-1.133 7.66 7.66 0 0 1 5.866 2.3q2.134 2.3 2.134 6.433v2.133h-10.9c.16.892.618 1.703 1.3 2.3q1 .867 2.566.867a5 5 0 0 0 4.067-1.833l2.5 2.966a6.67 6.67 0 0 1-2.9 2.267 10 10 0 0 1-4.033.833m-.634-14.033q-2.4 0-2.866 3.2h5.533v-.433q.033-1.333-.667-2.034-.7-.733-2-.733m9.546 4.767q0-4.2 1.834-6.6a6 6 0 0 1 5.033-2.4q2.334 0 3.967 1.866V75h5.5v25h-4.934l-.266-1.9a5.33 5.33 0 0 1-4.3 2.233 6 6 0 0 1-4.967-2.433 11 11 0 0 1-1.867-6.833m5.5.333q0 4.7 2.734 4.7a2.67 2.67 0 0 0 2.6-1.533v-6.7q-.767-1.567-2.567-1.567-2.533 0-2.767 4.1zm-109.91 41.434-2.333 2.566v6.267h-5.7v-23.7h5.7v10.467l2-3.034 5.1-7.433h7.067l-8 10.5 8 13.2h-6.767zm18.821 8.833h-5.5v-17.6h5.5zm-5.833-22.167q0-1.166.833-1.9a3.34 3.34 0 0 1 2.2-.766q1.334 0 2.2.766c.572.461.893 1.166.867 1.9a2.34 2.34 0 0 1-.867 1.934 3.33 3.33 0 0 1-2.2.766 3.34 3.34 0 0 1-2.2-.766 2.34 2.34 0 0 1-.833-1.934m19.863 9.534-1.8-.134q-2.6 0-3.333 1.634v11.133h-5.5v-17.6h5.166l.167 2.267q1.4-2.6 3.867-2.6a6.7 6.7 0 0 1 1.533.2zm18.33 3.966a10.67 10.67 0 0 1-1.8 6.667 6 6 0 0 1-5.033 2.333 5.34 5.34 0 0 1-4.334-2.133l-.233 1.8h-4.933v-25h5.5v8.8a5 5 0 0 1 3.966-1.733q3.267 0 5.067 2.366a10.67 10.67 0 0 1 1.8 6.634zm-5.5-.333a6.67 6.67 0 0 0-.7-3.633q-.666-1.067-2.067-1.067-1.867 0-2.566 1.4v7q.7 1.4 2.6 1.4 1.933 0 2.466-1.867c.221-1.063.31-2.148.267-3.233M251.467 134l2.933-9.933h5.867L253.1 144.6l-.3.767a5.34 5.34 0 0 1-5.4 3.4 10 10 0 0 1-2.267-.3v-3.933h.7a3.34 3.34 0 0 0 1.767-.334 2 2 0 0 0 .9-1.2l.467-1.166-6.134-17.767h5.867zm24.503-.366v8.033h-5.7v-23.7h9.433q2.734 0 4.834 1a7.68 7.68 0 0 1 4.366 7.033q0 3.467-2.466 5.567a10 10 0 0 1-6.834 2.067zm0-4.434h3.733q1.667 0 2.534-.8.9-.833.866-2.366a3.34 3.34 0 0 0-.866-2.634 3.34 3.34 0 0 0-2.467-1.033h-3.8zm25.482 12.467a6.7 6.7 0 0 1-.534-1.567 5 5 0 0 1-4.233 1.9 6.66 6.66 0 0 1-4.233-1.5 4.67 4.67 0 0 1-1.734-3.8q0-2.866 2.1-4.333a11 11 0 0 1 6.167-1.467h1.7v-.933q0-2.4-2.1-2.4-1.967 0-1.967 1.9h-5.466q0-2.534 2.166-4.133a9 9 0 0 1 5.534-1.6q3.366 0 5.333 1.633a5.67 5.67 0 0 1 2 4.5v7.8q0 2.433.733 3.733v.267zm-3.434-3.567a3.34 3.34 0 0 0 2.667-1.433v-2.833h-1.6q-2.867 0-2.867 2.566c-.011.463.17.91.5 1.234q.5.466 1.3.466m21.859-9.066-1.8-.134q-2.6 0-3.333 1.634v11.133h-5.5v-17.6h5.166l.167 2.267q1.4-2.6 3.867-2.6a6.7 6.7 0 0 1 1.533.2zm9.177-9.367v4.4h2.9v3.8h-2.9v8.067q0 .966.367 1.366.366.4 1.4.4.8 0 1.367-.1v3.934a10 10 0 0 1-3.1.466q-2.8 0-4.167-1.333t-1.367-4.067v-8.733h-2.233v-3.8h2.233v-4.4zm10.076 4.4.2 2.067a6 6 0 0 1 5.033-2.4q2.733 0 4.1 1.633 1.334 1.667 1.4 4.967v11.333h-5.5v-11.1q0-1.333-.533-1.967-.534-.666-1.967-.633a2.67 2.67 0 0 0-2.367 1.267v12.433h-5.5v-17.6zM361.43 142a9 9 0 0 1-6.567-2.433 8.34 8.34 0 0 1-2.5-6.267v-.466q0-2.7 1-4.767a6.67 6.67 0 0 1 2.9-3.2 8.66 8.66 0 0 1 4.567-1.133 7.66 7.66 0 0 1 5.866 2.3q2.134 2.3 2.134 6.433v2.133h-10.9c.16.892.618 1.703 1.3 2.3q1 .867 2.566.867a5 5 0 0 0 4.067-1.833l2.5 2.966a6.67 6.67 0 0 1-2.9 2.267 10 10 0 0 1-4.033.833m-.634-14.033q-2.4 0-2.866 3.2h5.533v-.433q.033-1.334-.667-2.034-.7-.733-2-.733m20.915 1.067-1.8-.134q-2.6 0-3.333 1.634v11.133h-5.5v-17.6h5.166l.167 2.267q1.4-2.6 3.867-2.6a6.7 6.7 0 0 1 1.533.2z"/></svg>
