<svg xmlns="http://www.w3.org/2000/svg" viewBox="0 0 440 200"><path fill="#111" d="M0 0h440v200H0z"/><path fill="#f7f7f7" d="m107.186 51.976 41.185 24.02v48.06l-41.185 24.02L66 124.056v-48.06zm-36.61 26.755v42.59l36.61 21.353 36.609-21.353v-42.59l-36.609-21.355zm54.915 21.295-11.441 5.926v.938h11.441v9.153h-36.61v-9.153h11.44v-1l-11.44-5.864V88.585l18.305 9.832 18.305-9.832zm64.966.096-2.344 2.572v6.25H182.4V85.246h5.713v10.449l1.986-3.011 5.11-7.438h7.064l-8.008 10.482 8.008 13.216h-6.771zm18.798 8.822h-5.501V91.333h5.501zm-5.826-22.152q0-1.171.846-1.921.847-.748 2.197-.748t2.198.748q.846.75.846 1.921t-.846 1.921q-.847.748-2.198.748t-2.197-.748q-.846-.75-.846-1.921m19.856 9.505-1.806-.13q-2.587 0-3.321 1.628v11.149h-5.485V91.333h5.144l.179 2.262q1.383-2.588 3.857-2.588.879 0 1.53.196zm18.327 3.988q0 4.329-1.79 6.657-1.791 2.327-5.046 2.327-2.685 0-4.329-2.132l-.228 1.807h-4.915v-25h5.485v8.805q1.53-1.742 3.955-1.742 3.287 0 5.078 2.361 1.79 2.36 1.79 6.64zm-5.501-.342q0-2.54-.676-3.621-.675-1.083-2.075-1.083-1.856 0-2.571 1.416v6.999q.699 1.4 2.604 1.4 1.936 0 2.458-1.888.26-.928.26-3.223m14.779 1.318 2.929-9.928h5.876l-7.178 20.557-.309.748q-1.53 3.418-5.404 3.418-1.074 0-2.262-.325v-3.923h.716q1.155 0 1.766-.333.61-.335.903-1.197l.44-1.172-6.12-17.773h5.859zm24.495-.358v8.041h-5.713V85.246h9.457q2.718 0 4.809 1.001t3.239 2.848q1.147 1.848 1.147 4.191 0 3.467-2.482 5.542-2.48 2.076-6.811 2.075zm0-4.41h3.744q1.66 0 2.53-.831.871-.83.871-2.343 0-1.66-.895-2.653-.896-.994-2.441-1.009h-3.809zm25.472 12.451q-.293-.538-.521-1.579-1.514 1.904-4.232 1.904-2.49 0-4.231-1.505-1.742-1.505-1.742-3.785 0-2.864 2.116-4.329t6.152-1.465h1.693v-.928q0-2.424-2.1-2.425-1.953 0-1.953 1.921h-5.485q0-2.556 2.173-4.15 2.173-1.596 5.542-1.596c3.369 0 4.02.548 5.322 1.644q1.954 1.644 2.002 4.509v7.796q.033 2.425.749 3.711v.277zm-3.434-3.581q1.024 0 1.701-.439.675-.44.968-.993v-2.816h-1.595q-2.865 0-2.865 2.572 0 .748.505 1.212.504.464 1.286.464m21.859-9.066-1.807-.13q-2.588 0-3.32 1.628v11.149h-5.485V91.333h5.143l.179 2.262q1.383-2.588 3.857-2.588.879 0 1.53.196zm9.179-9.342v4.378h2.897v3.809h-2.897v8.056q0 .993.358 1.384.358.392 1.416.39.815 0 1.367-.097v3.922q-1.48.472-3.092.472-2.832 0-4.183-1.334t-1.351-4.053v-8.74h-2.246v-3.809h2.246v-4.378zm10.091 4.378.179 2.067q1.824-2.393 5.03-2.393 2.75 0 4.109 1.644 1.36 1.644 1.408 4.948v11.345h-5.501V97.827q0-1.335-.537-1.961t-1.953-.627q-1.611 0-2.393 1.27v12.435h-5.485V91.333zm22.282 17.936q-4.053 0-6.559-2.417t-2.507-6.29v-.456q0-2.702 1.001-4.769 1.002-2.067 2.922-3.198 1.92-1.132 4.557-1.132 3.71 0 5.86 2.304 2.148 2.302 2.148 6.42v2.133h-10.905q.293 1.48 1.286 2.327.993.846 2.572.846 2.604 0 4.069-1.822l2.506 2.962q-1.025 1.416-2.905 2.254t-4.045.838m-.618-14.03q-2.409 0-2.865 3.19h5.534v-.423q.033-1.319-.667-2.042-.7-.725-2.002-.725m20.898 1.058-1.806-.13q-2.587 0-3.321 1.628v11.149h-5.485V91.333h5.143l.179 2.262q1.385-2.588 3.858-2.588.879 0 1.53.196z"/></svg>