<svg viewBox="0 0 440 200" xmlns="http://www.w3.org/2000/svg" xml:space="preserve" style="fill-rule:evenodd;clip-rule:evenodd;stroke-linejoin:round;stroke-miterlimit:2"><path style="fill:#111" d="M0 0h440v200H0z"/><path d="m107.186 51.976 41.185 24.02v48.06l-41.185 24.02L66 124.056v-48.06l41.186-24.02Zm-36.61 26.755v42.59l36.61 21.353 36.609-21.353v-42.59l-36.609-21.355-36.61 21.355Z" style="fill:#f7f7f7;fill-rule:nonzero"/><path d="m125.491 100.026-11.441 5.926v.938h11.441v9.153h-36.61v-9.153h11.44v-1l-11.44-5.864V88.585l18.305 9.832 18.305-9.832m64.966 11.537-2.344 2.572v6.25H182.4V85.246h5.713v10.449l1.986-3.011 5.11-7.438h7.064l-8.008 10.482 8.008 13.216h-6.771l-5.045-8.822Zm18.798 8.822h-5.501V91.333h5.501v17.611Zm-5.826-22.152c0-.781.282-1.421.846-1.921.564-.499 1.297-.748 2.197-.748.901 0 1.633.249 2.198.748.564.5.846 1.14.846 1.921 0 .781-.282 1.421-.846 1.921-.565.499-1.297.748-2.198.748-.9 0-1.633-.249-2.197-.748-.564-.5-.846-1.14-.846-1.921Zm19.856 9.505-1.806-.13c-1.725 0-2.832.543-3.321 1.628v11.149h-5.485V91.333h5.144l.179 2.262c.922-1.725 2.208-2.588 3.857-2.588.586 0 1.096.066 1.53.196l-.098 5.094Zm18.327 3.988c0 2.886-.597 5.105-1.79 6.657-1.194 1.551-2.876 2.327-5.046 2.327-1.79 0-3.233-.711-4.329-2.132l-.228 1.807h-4.915v-25h5.485v8.805c1.02-1.161 2.338-1.742 3.955-1.742 2.192 0 3.884.787 5.078 2.361 1.193 1.573 1.79 3.786 1.79 6.64v.277Zm-5.501-.342c0-1.693-.225-2.9-.676-3.621-.45-.722-1.142-1.083-2.075-1.083-1.237 0-2.094.472-2.571 1.416v6.999c.466.933 1.334 1.4 2.604 1.4 1.291 0 2.11-.63 2.458-1.888.173-.619.26-1.693.26-3.223Zm14.779 1.318 2.929-9.928h5.876l-7.178 20.557-.309.748c-1.02 2.279-2.821 3.418-5.404 3.418-.716 0-1.47-.108-2.262-.325v-3.923h.716c.77 0 1.359-.111 1.766-.333.407-.223.708-.622.903-1.197l.44-1.172-6.12-17.773h5.859l2.784 9.928Zm24.495-.358v8.041h-5.713V85.246h9.457c1.812 0 3.415.333 4.809 1.001 1.394.667 2.474 1.616 3.239 2.848.765 1.232 1.147 2.629 1.147 4.191 0 2.311-.827 4.159-2.482 5.542-1.654 1.384-3.925 2.075-6.811 2.075h-3.646Zm0-4.41h3.744c1.106 0 1.95-.277 2.53-.831.581-.553.871-1.334.871-2.343 0-1.107-.298-1.991-.895-2.653-.597-.662-1.411-.999-2.441-1.009h-3.809v6.836Zm25.472 12.451c-.195-.358-.369-.885-.521-1.579-1.009 1.269-2.42 1.904-4.232 1.904-1.66 0-3.07-.502-4.231-1.505-1.161-1.004-1.742-2.265-1.742-3.785 0-1.909.705-3.352 2.116-4.329 1.411-.976 3.461-1.465 6.152-1.465h1.693v-.928c0-1.616-.7-2.425-2.1-2.425-1.302 0-1.953.641-1.953 1.921h-5.485c0-1.704.725-3.087 2.173-4.15 1.449-1.064 3.296-1.596 5.542-1.596s4.02.548 5.322 1.644c1.302 1.096 1.97 2.599 2.002 4.509v7.796c.022 1.617.272 2.854.749 3.711v.277h-5.485Zm-3.434-3.581c.683 0 1.25-.147 1.701-.439.45-.293.773-.624.968-.993v-2.816h-1.595c-1.91 0-2.865.857-2.865 2.572 0 .499.169.903.505 1.212.336.309.765.464 1.286.464Zm21.859-9.066-1.807-.13c-1.725 0-2.832.543-3.32 1.628v11.149h-5.485V91.333h5.143l.179 2.262c.922-1.725 2.208-2.588 3.857-2.588.586 0 1.096.066 1.53.196l-.097 5.094Zm9.179-9.342v4.378h2.897v3.809h-2.897v8.056c0 .662.12 1.123.358 1.384.239.26.711.39 1.416.39.543 0 .999-.032 1.367-.097v3.922c-.987.315-2.018.472-3.092.472-1.888 0-3.282-.445-4.183-1.334-.901-.89-1.351-2.241-1.351-4.053v-8.74h-2.246v-3.809h2.246v-4.378h5.485Zm10.091 4.378.179 2.067c1.216-1.595 2.892-2.393 5.03-2.393 1.833 0 3.203.548 4.109 1.644.906 1.096 1.376 2.746 1.408 4.948v11.345h-5.501V97.827c0-.89-.179-1.543-.537-1.961-.358-.418-1.009-.627-1.953-.627-1.074 0-1.872.423-2.393 1.27v12.435h-5.485V91.333h5.143Zm22.282 17.936c-2.702 0-4.888-.805-6.559-2.417-1.671-1.611-2.507-3.708-2.507-6.29v-.456c0-1.801.334-3.391 1.001-4.769.668-1.378 1.642-2.444 2.922-3.198 1.28-.754 2.799-1.132 4.557-1.132 2.474 0 4.427.768 5.86 2.304 1.432 1.535 2.148 3.675 2.148 6.42v2.133h-10.905c.195.987.624 1.763 1.286 2.327.662.564 1.519.846 2.572.846 1.736 0 3.092-.607 4.069-1.822l2.506 2.962c-.683.944-1.652 1.695-2.905 2.254-1.253.559-2.602.838-4.045.838Zm-.618-14.03c-1.606 0-2.561 1.064-2.865 3.19h5.534v-.423c.022-.879-.201-1.56-.667-2.042-.467-.483-1.134-.725-2.002-.725Zm20.898 1.058-1.806-.13c-1.726 0-2.832.543-3.321 1.628v11.149h-5.485V91.333h5.143l.179 2.262c.923-1.725 2.209-2.588 3.858-2.588.586 0 1.096.066 1.53.196l-.098 5.094Z" style="fill:#f7f7f7;fill-rule:nonzero"/></svg>