<svg xmlns="http://www.w3.org/2000/svg" viewBox="0 0 674.7051 675.2502"><path d="M431.5977,376.1204c-3.1099,19.1038-7.7748,26.4343-17.3267,36.2084,15.3275,1.1107,29.1,1.3328,39.8765,1.3328,29.1243,0,50.0452-8.3221,67.951-25.5585,20.6464-19.8745,31.897-44.3814,31.897-69.5068,0-35.2961-20.5744-56.6971-58.8665-57.5432-8.3354-.1842-16.5699-.2033-24.7227-.1497,.3199-2.023,.6304-4.0479,.954-6.0702,.6705-4.2463,1.4611-8.1187,2.3682-11.6368,3.6788,.6337,7.3314,.9742,10.9601,.9742,21.2774,0,36.8748-10.4111,36.8748-23.1023,0-7.5707-5.9797-12.4397-17.9931-12.4397-16.223,0-30.3731,8.6662-40.9655,24.7628-8.2418-2.7935-16.7012-6.8553-25.4086-11.7159,4.6486-7.0215,7.0632-15.2272,7.0632-23.9316,0-15.7762-9.6735-34.4698-26.6995-49.9755,28.7366,.1171,49.0894,12.712,49.0894,29.4506,0,6.2255-3.075,9.4078-8.9254,9.4078-1.4946,0-3.0344-.2639-4.4428-.6664l-.4443,.8885c4.3733,3.4014,10.3132,5.3522,16.3369,5.3522,9.5082,0,15.5756-5.1134,15.5756-12.9775,0-19.8758-32.285-37.9027-67.5907-37.9027-2.3571,0-4.7227,.0709-7.0933,.2008-19.3204-14.7326-45.8983-25.3023-77.3189-25.3023-32.3999,0-53.7573,12.5988-53.7573,31.3214,0,.4627,.0157,.926,.0423,1.3896-1.1954-.0334-2.3932-.0568-3.5965-.0568-47.9439,0-77.7481,18.8946-77.7481,45.9825,0,2.1589,.2043,4.2772,.5791,6.3497-17.4841,12.6832-30.9136,33.491-37.084,60.0851-13.7872,.973-23.6215,4.9563-34.8013,14.2011-11.1719,9.103-15.7718,16.1261-15.7718,23.3245,0,5.9005,2.299,10.1903,7.5527,13.7725,5.0032-4.6189,10.6419-8.6254,16.8825-11.9954-4.3779-2.8456-6.6642-6.9292-6.6642-11.5512,0-7.4965,5.9455-11.519,16.6604-11.9954,4.3409-.1929,8.8186-.295,13.3969-.3438-4.538,31.1205-9.8457,67.4845-14.9519,98.9727-3.2854,20.26-6.8863,27.1008-16.216,37.097,9.1076,.4443,19.9923,.8886,28.6557,.8886,9.3298,0,13.7998-1.8282,19.1038-6.6642,4.5283-4.1286,8.8855-9.1076,13.3283-14.8832l-.8886-.8885c-3.332,3.1099-7.1084,4.887-14.661,4.887-2.8251,0-5.8806-.0578-8.9901-.1436,1.8719-17.1443,3.9784-34.2424,6.3055-51.3043,6.428,.3868,12.8299,.5769,19.1309,.5065,11.0102,22.4976,22.97,45.3282,38.0112,71.6002,4.5542,7.9547,9.4699,15.4715,14.7176,22.5421-35.9911,9.1161-57.6241,26.8317-57.6241,44.7656,0,17.9931,19.5481,31.9879,56.8672,31.9879,3.7881,0,7.6215-.1982,11.488-.5544,9.7681,23.5099,45.9375,42.7605,88.696,42.7605,48.7709,0,83.7541-20.7893,87.2164-46.829,36.9468-7.7483,57.8395-26.2837,57.8395-43.1367,0-11.7733-10.2184-23.1023-36.8749-23.1023-16.9914,0-35.1234,5.1295-54.0544,12.4317-22.3015-14.4568-55.4973-24.6493-98.7762-24.6493-11.755,0-22.8127,.7637-33.0643,2.1584-.9949-1.5866-1.9713-3.1924-2.9221-4.824-17.431-29.9127-34.0251-62.7451-49.5864-95.8696,20.4399-14.563,30.0383-29.7699,30.0383-44.5213,0-17.7099-13.2113-28.4772-36.5381-28.8759-7.2625-.1241-14.567-.1532-21.7205-.1299,.5377-3.2154,1.068-6.4309,1.6135-9.6462,3.0955-18.2468,8.6381-31.7154,16.6078-40.9595,7.8446,16.7209,27.952,28.5198,50.6999,28.5198,16.768,0,35.0794-6.4964,53.8487-19.7433,22.6394,12.5045,47.7136,25.0746,81.6552,25.0746,20.6331,0,36.1298-6.7729,45.695-17.2443,8.841,5.0272,17.4957,9.2966,25.9966,12.3312-3.5455,6.4728-6.6017,13.9006-9.0858,22.2493-11.4707,1.4205-21.1431,6.2347-31.2845,14.8738-11.4647,9.7662-15.1053,15.668-15.1053,23.7687,0,4.2892,2.9495,9.539,6.8862,12.4397,5.0599-4.6645,10.9954-8.8193,17.771-12.4397-4.2661-3.1026-6.6641-7.2784-6.6641-11.5512,0-7.1208,5.5086-11.1228,16.216-11.5511,2.8925-.1157,5.7041-.2003,8.4854-.2701-.6942,3.5958-1.3101,7.3045-1.8212,11.1548-3.3321,25.1016-7.7748,56.6451-12.884,88.1887Zm-186.3734,131.0611c-23.5466,0-35.542-11.1069-35.542-25.3237,0-15.0844,13.0767-28.0816,37.8544-35.4126,7.757,9.5716,16.1667,18.2305,25.1771,25.9137-13.9005,7.3306-22.6026,18.2452-22.6026,30.602,0,1.3749,.0952,2.7445,.2792,4.1064-1.7222,.0684-3.4443,.1143-5.1661,.1143Zm161.0497-3.11c0,1.1337-.0676,2.2517-.1654,3.3621-4.8337,.3668-10.0143,.5903-15.6064,.6365-4.3315,.037-8.6407-.149-12.9229-.5158,.0254-.4177,.0389-.8381,.0389-1.2613,0-10.5389-5.1481-20.0793-13.7654-27.5287,8.7993-3.798,17.3661-7.4261,25.5995-10.6262,11.4027,10.9102,16.8216,23.7077,16.8216,35.9334Zm-45.9825-4.4427c0,1.832-.2388,3.5586-.6518,5.1916-10.7936-2.3749-21.2899-6.0272-31.3169-10.872,8.6397-3.5406,17.196-7.2366,25.5839-10.8752,4.1012,4.683,6.3848,10.3266,6.3848,16.5556Zm-39.8329-9.7705c-8.4898-4.7542-16.5869-10.3886-24.1777-16.845,5.9064-2.3176,12.8663-3.5952,20.6938-3.5952,12.8467,0,23.6846,3.2206,31.3068,8.614-9.1743,4.0803-18.4592,8.1156-27.8229,11.8262Zm-14.0482,5.2683c-10.4724,3.6793-21.0214,6.7759-31.6023,8.9112-.0131-.4331-.0395-.8621-.0395-1.2991,0-8.5844,3.1719-16.0535,8.91-21.7331,7.2551,5.2914,14.8356,10.0162,22.7318,14.121Zm35.2216,56.0381c-35.1794,0-60.7354-16.03-65.8896-39.5054,12.9643-3.0382,26.1271-7.4163,39.2021-12.4061,12.9559,5.8659,26.6664,10.1649,41.0196,12.8036-3.9913,4.7507-10.5287,7.5644-18.7749,7.5644-8.3833,0-14.8575-2.6596-19.1038-7.3306l-1.1107,.8886c7.3192,11.1901,17.8348,17.1046,31.3214,17.1046,12.9927,0,23.545-6.5065,27.5675-15.6674,4.8217,.3599,9.6977,.5621,14.6386,.5621,4.9204,0,9.6578-.1808,14.2426-.4958-6.2067,21.2446-30.916,36.4821-63.1127,36.4821Zm96.4077-95.0749c16.8824,0,23.9908,7.5527,23.9908,18.2153,0,12.2707-8.933,23.8655-33.2289,29.7497-1.1378-13.8832-9.8056-28.5507-25.5715-40.9333,12.8138-4.2957,24.572-7.0317,34.8095-7.0317Zm-141.2795-15.9939c40.2062-.2351,68.5258,9.1746,86.282,22.5963-8.4241,3.5472-16.9869,7.3851-25.6609,11.2728-11.0313-6.9986-25.7328-11.2111-41.9615-11.2111-9.5539,0-18.5653,1.2205-26.6786,3.4105-7.4391-7.2055-14.2943-15.2618-20.451-24.0967,8.6014-1.2031,18.0962-1.8902,28.4701-1.9719Zm-105.2932-163.0489c18.2439,.4054,27.5451,9.0357,27.5451,25.3237,0,16.5683-10.1027,27.1007-25.9901,27.1007-6.9435,0-13.7429-.3177-20.6329-.9189,2.4802-17.2643,5.1528-34.5015,7.9558-51.7291,3.6539,.0636,7.357,.14,11.1221,.2236Zm235.4658-86.8558c0,7.4243-2.1083,14.8719-6.6578,21.3741-8.2324-5.1722-16.686-10.7488-25.3843-16.37,5.4783-4.86,8.4956-11.3272,8.4956-18.7766,0-9.9532-4.9005-18.4929-13.2114-24.4678,5.2903-1.8659,10.7808-3.0644,16.7381-3.682,12.751,11.9202,20.0199,26.9877,20.0199,41.9222Zm-126.5715-32.7134c11.8265,2.2191,23.2801,6.0311,34.4032,10.8473-6.3667,4.4483-12.5426,9.4358-18.4562,14.9798l-.4365,.4092c-9.0892-6.895-15.0461-16.1049-15.5105-26.2363Zm47.9348,23.6058c1.4849-1.4121,2.937-2.7688,4.3652-4.0801,7.9578,4.2443,15.7458,8.8644,23.3788,13.6343-5.1028,3.5733-12.3581,5.5511-21.524,5.5511-6.615,0-13.1007-.9995-19.1631-2.7966l12.9432-12.3088Zm9.1957-8.4117c7.4071-6.4662,14.1775-11.5154,20.9282-15.3293,4.0252,4.3989,6.3067,9.8623,6.3067,15.9662,0,5.0132-1.3848,9.3541-4.0342,12.8713-7.5475-4.6827-15.2761-9.2562-23.2007-13.5082Zm-15.1934-48.0112c23.2507,0,43.0405,7.0466,57.6321,17.8105-6.624,.8746-13.2601,2.2523-19.8539,4.1301-6.3284-2.3965-13.6923-3.7253-21.7843-3.7253-6.7505,0-12.0601,.8293-17.1046,2.4435l.2221,1.3328c2.2612-.2825,4.7067-.4442,7.3306-.4442,7.601,0,14.3938,1.4982,19.9813,4.1393-9.5572,3.5968-18.95,8.2703-28.0049,14.0125-12.8281-5.7856-26.1597-10.4022-40.0411-13.0435,2.4666-16.5472,17.7012-26.6557,41.6227-26.6557Zm-64.642,30.655c.8541,0,1.7034,.0237,2.5537,.0424,3.7048,12.1028,15.5009,24.0077,30.6196,33.0831l-16.8903,15.8347c-16.7511-9.1097-33.6041-16.9724-53.6021-16.9724-7.3145,0-14.4235,1.1326-21.2081,3.2864,5.5949-22.2239,27.1806-35.2742,58.5272-35.2742Zm-32.8764,75.9711c-15.3275,0-27.1008-10.8848-27.1008-28.6558,0-1.4901,.0754-2.942,.1932-4.3718,6.3594-2.5918,13.5465-3.8473,21.5762-3.8473,17.5413,0,33.0049,6.6527,48.8644,15.0908-18.3728,16.688-29.6204,21.7841-43.5331,21.7841Zm125.7299,.4442c-22.6075,0-40.9897-8.1248-58.3444-17.4247,4.477-3.5109,8.9724-7.3958,13.4726-11.6754l4.9501-4.7074c11.312,4.2116,23.233,6.7066,34.3682,6.7066,9.7724,0,18.0208-2.0007,24.3444-5.5064,9.1282,5.9509,18.0385,11.913,26.7586,17.4664-8.9254,8.9579-23.6824,15.1409-45.5495,15.1409Zm126.8405-15.3275c5.2569,0,8.6634,3.349,8.6634,8.2191,0,7.6249-7.9983,12.884-20.881,12.884-3.1204,0-6.2726-.2854-9.4548-.7976,4.8065-13.7756,12.0282-20.3055,21.6724-20.3055Zm-15.1054,60.6436c33.1021,1.2491,49.5367,19.094,49.5367,53.0909,0,39.3183-21.103,64.8642-55.3122,65.3084-8.2152,.3572-16.4304-.0163-24.6454-1.0949,4.7877-39.3627,10.1242-78.5911,16.1219-117.6828,4.7166,.0711,9.4466,.1953,14.2991,.3784Zm-178.1543,19.5481c-5.7208,33.0537-10.6258,66.1099-14.9227,99.3564,3.3161,.095,6.5847,.1611,9.5914,.1611,7.5527,0,11.3291-1.7771,14.6611-4.887l.8886,.8885c-4.4428,5.7756-8.8,10.7546-13.3283,14.8832-5.304,4.836-9.774,6.6642-19.1038,6.6642-8.6634,0-17.1046-.4443-25.5458-.8886,6.2332-6.9011,9.6169-14.2222,12.4397-30.655,5.8945-34.3141,10.9807-68.8303,15.2792-103.5433-3.0929-.1097-6.1863-.1949-9.2814-.1949-6.9374,0-10.8256,1.2924-14.439,4.6649l-1.1106-.8886c3.9425-4.8703,8.0167-9.6383,12.5749-13.938,5.8438-5.5121,10.7811-7.3872,21.4666-7.3872,9.0531,0,18.1608,.4443,27.4906,.8886-9.7741,9.3298-13.6582,17.5297-16.6604,34.8756Zm47.7596-2.2214c0,7.149,2.6332,12.5825,10.645,21.2034l18.8573,20.2908c9.5696,10.297,13.3703,18.8791,13.3703,30.0341,0,24.0851-25.9995,48.8703-52.6466,48.8703-8.8855,0-15.9939-2.2214-21.3252-5.3313,7.1084-8.8855,11.9954-17.771,15.7717-28.4336h1.1107c.4443,10.4404,7.3305,16.4381,18.8817,16.4381,12.1172,0,19.7702-7.4765,19.7702-19.2022,0-7.2666-2.6167-13.0641-10.4012-21.4415l-15.6913-16.8865c-12.1506-13.0761-16.5579-22.1129-16.5579-33.324,0-25.7731,27.9012-47.3521,58.2001-46.871,8.4647,.2063,12.8839,2.3117,12.8839,5.9977,0,2.4435-.6664,3.7763-3.7763,7.3305-8.6634,10.2183-9.9962,12.884-10.6626,19.326h-1.3328c0-9.1077-5.5535-15.3275-17.771-15.3275-11.8315,0-19.326,6.7521-19.326,17.3267Zm-44.2224,314.2035c-14.2559-1.5898-23.8633,5.5645-25.0635,16.3398-.7207,6.4648,1.4512,11.8242,6.9482,15.9609-8.041,2.8809-11.5693,7.4375-12.0957,12.1621-1.0156,9.1172,5.2441,17.7031,21.4893,19.5117,15.582,1.7363,25.9814-5.748,27.21-16.7715,.7939-7.127-2.4736-13.1973-9.9043-17.2988,7.2939-2.207,10.9512-6.4141,11.542-11.7188,.9883-8.8691-5.7041-16.5801-20.126-18.1855Zm4.4434,48.9961c-.499,4.4746-4.4141,7.2266-10.8789,6.5059-7.625-.8496-10.8652-5.6562-10.2285-11.375,.3887-3.4824,1.4941-5.875,3.9727-8.5352l.4785,.2207,10.2119,4.7441c5.5059,2.543,6.8037,5.207,6.4443,8.4395Zm2.8262-29.8945c-.332,2.9844-1.3926,5.7188-3.9434,8.2891l-7.9014-3.6504c-5.6631-2.6445-7.0713-5.0664-6.6562-8.7969,.4902-4.3926,3.9727-7.0254,9.4424-6.418,5.9678,.666,9.751,4.3594,9.0586,10.5762Zm296.7705-95.332c-6.5967,6.5977-12.3213,13.9805-17.0713,22.0117-1.0918-6.7578-3.2314-9.5781-11.4775-16.502-6.6494-5.5781-13.3867-10.9102-20.291-16.1582-7.6309-5.8125-10.2803-7.0215-17.3174-7.2031,6.1006-5.8242,11.2109-12.4121,15.334-19.7715,1.9258,6.7715,3.7568,9.0371,11.2861,14.9805,6.8018,5.3809,13.6406,10.5801,20.6992,15.6328,8.7568,6.2617,12.0215,7.6328,18.8379,7.0098Zm49.9922-104.709c-2.4424,5.3262-4.3877,10.7422-6.502,16.6309-3.292,8.9199-6.3604,18.4531-9.4971,28.6719-4.5898-3.5098-9.8018-6.2676-15.9209-7.4902l.0576-1.3965c6.3252-.8301,9.584-3.7383,14.8174-19.0508-4.1279-1.8359-8.5732-3.5215-15.2461-5.918-4.4248,12.3242-4.7725,16.0117-3.8672,21.3867-4.6807-3.0078-9.8047-5.0254-15.3467-6.1289,3.9434-2.8398,6.4678-5.9199,10.8643-18.166-6.5703-2.1836-10.8164-3.4414-14.4902-4.3164-7.2451,17.959-6.9639,20.6289-2.6562,24.9238l-.7646,1.1426c-5.2871-3.0508-10.2168-6.5938-14.9287-10.5,2.748-5.9258,5.3389-11.9082,7.5361-18.0312,2.7627-7.6934,4.6377-14.6406,6.0908-21.6523,3.1992,5.4023,5.6035,7.5957,15.7803,11.3379,9.1572,3.377,17.4336,5.9941,25.7168,8.3457,9.959,2.8691,13.4492,2.5254,18.3564,.2109Zm-222.7656,187.207l13.2173,5.9785-5.9775,13.2168-13.2183-5.9766,5.9785-13.2188Zm128.4229-76.0508c13.1396,14.0859,11.5645,33.916-4.6562,49.0469-6.2217,5.8008-10.9609,8.0547-14.9248,11.7539-1.2207,1.1367-2.083,2.1699-3.1475,3.9609-2.124-6.8008-5.0186-11.7402-10.9082-17.1953l.7412-.9199c6.8555,3.0723,14.7285,2.3418,22.0469-4.4824,8.7812-8.1914,8.9834-19.0996-.4053-29.0449-11.1523-11.8359-23.4805-11.9688-31.6523-4.3457-1.1582,1.0801-2.1426,2.2266-2.8955,3.4961,1.6426,2.0059,3.4053,3.8965,5.2266,5.8477,5.4033,5.793,7.0322,6.4395,14.6484,8.0039-8.4521,5.4883-14.1914,11.0703-17.7988,16.373-1.3926-5.7715-3.2168-9.3164-10.3828-17-2.5039-2.6836-5.3145-4.9648-8.4961-6.7871,4.0908-5.6387,8.7207-11.5547,14.0889-16.5625,16.4648-15.3555,35.4902-16.1094,48.5156-2.1445Zm-165.1797,65.5273c6.8193-1.6035,13.6816-3.3887,19.9717-6.1543-1.9688,7.6602-2.5469,12.8516-3.0967,23.2617-.4482,7.5586-.5352,15.2051-1.2334,24.6211-.918,13.582-6.166,20.043-18.668,22.9844-2.7607,.6484-5.6172,.8906-8.3906,1.1152l-.2236-1.3164c6.7803-1.7656,10.5195-5.9023,12.1826-20.6875,.9502-8.7051,1.1709-21.6094,.8086-34.8027-12.3506,3.5898-15.3867,6.7031-17.7559,14.1152l-1.251-.2207c.1152-8.252-.5391-13.5801-2.0283-19.9141,6.8047-.5723,13.1084-1.4551,19.6846-3.002Zm-45.6758,7.0742c6.9912-.4395,14.0557-1.0508,20.7197-2.7246-3.2227,7.2227-4.6621,12.2422-6.9463,22.4141-1.708,7.377-3.0732,14.9004-5.3379,24.0684-3.1777,13.2363-9.4336,18.7266-22.252,19.5352-2.8291,.1777-5.6865-.0605-8.459-.3047v-1.3379c6.9805-.6055,11.3594-4.0566,15.4736-18.3535,2.3945-8.4238,4.7725-21.1094,6.624-34.1777-12.7764,1.4727-16.293,4.0352-19.8682,10.9434l-1.1973-.4258c1.4951-8.1152,1.7422-13.4805,1.334-19.9727,6.8047,.5762,13.166,.7598,19.9092,.3359Zm179.4775-3.5312l.7881,1.375c-6.751,3.4844-12.1982,7.5664-16.6406,11.5566-15.6582-4.6797-31.3691-8.9414-47.3457-12.668,2.2607,4.2812,4.5527,8.4473,6.916,12.5723,4.6455,8.1055,8.3311,11.1836,16.8164,13.2422-9.7402,3.4668-16.2324,6.8984-21.959,11.334,.3037-5.8457-.9023-10.6328-5.5381-19.8984-6.3672-12.7871-12.8086-25.5352-19.4658-38.1582l1.21-1.0781c18.7002,5.625,37.6689,10.7129,56.752,15.1582-3.2246-5.459-6.5947-10.834-10.1074-16.127-6.7168-10.377-11.167-12.4414-18.1006-14.1406,8.5195-3.9199,14.8965-8.0547,21.3975-13.3184-.9336,6.5918-.1934,11.0684,5.7061,20.8594,3.752,6.2129,7.7637,12.373,11.5576,17.9844,6.7988,10.5234,11.6543,13.125,18.0137,11.3066Zm92.0928-100.2129c-3.2344,5.6445-5.6797,7.8965-7.5029,11.0801-1.2441,2.1719-1.6191,3.4961-1.9629,5.6055-3.0469-3.5723-8.1729-8.0488-15.4824-11.5645l.4365-1.0957c6.8877,1.0625,12.4678-1.7949,16.4482-8.7422,3.4834-6.0781,2.5371-10.4668-1.0088-12.498-2.8213-1.6172-5.3047-1.3105-9.4688,2.2637l-6.9893,5.9922c-8.1719,7.0449-14.9277,7.5938-22.3076,3.3652-9.6973-5.5566-12.6514-18.0156-4.6064-32.0527,3.2344-5.6465,5.7725-7.5566,10.4375-16.0332,3.8105,5.2598,8.7305,8.752,15.8545,11.584l-.4043,1.2109c-8.8232-1.2109-14.5898,2.3086-18.5293,9.1836-3.3594,5.8613-2.2461,9.959,1.4434,12.0742,2.75,1.5762,5.4619,1.207,9.2305-2.0156l7.2285-6.2402c8.2119-7.1172,15.1445-7.4707,22.4521-3.2832,9.4072,5.3906,12.7764,17.127,4.7314,31.166ZM12.4346,246.0751c1.6914-6.2812,3.4819-9.082,4.4365-12.625,.6509-2.418,.6758-3.793,.4712-5.9199,3.856,2.6797,9.9517,5.7031,17.9155,7.2441l-.1421,1.1699c-6.9326,.7246-11.6006,4.9082-13.6826,12.6406-1.8228,6.7637,.2095,10.7656,4.1558,11.8281,3.1411,.8477,5.4639-.082,8.5806-4.5996l5.2354-7.5723c6.1084-8.8926,12.5015-11.1445,20.7163-8.9316,10.7915,2.9062,16.8184,14.2031,12.6113,29.8262-1.6919,6.2812-3.6592,8.7754-6.0132,18.1602-5.0244-4.1172-10.6704-6.2422-18.2812-7.168l.0835-1.2734c8.8408-1.0742,13.521-5.9473,15.5811-13.5977,1.7568-6.5215-.3618-10.2031-4.4688-11.3086-3.0601-.8242-5.5879,.2227-8.4131,4.2988l-5.4023,7.873c-6.1309,8.9727-12.7437,11.0781-20.8779,8.8887-10.4692-2.8184-16.7129-13.3105-12.5059-28.9336Zm630.8965,73.2036l10.2598,10.2598-10.2598,10.2598-10.2598-10.2598,10.2598-10.2598Zm5.1992-52.2817c10.1055-2.2969,12.998-4.2793,16.1777-8.6758,.4307,5.8438,1.3418,11.5254,2.332,17.7012,1.4229,9.4023,3.5518,20.041,5.9834,30.4629-5.7109-.8574-11.7607-.6484-17.79,1.248l-.624-1.252c4.8213-3.6445,6.3838-8.1191,3.5645-24.6445-6.4883,.6191-12.9375,1.4844-19.1963,2.4883,2.0801,14.0254,3.6367,17.4082,7.1338,21.8301-5.5508-.377-11.0117,.3301-16.3984,2.0391,2.3115-5.6074,2.6924-9.5547,.5625-22.3047-1.6338,.3457-3.1992,.5977-4.833,.9434-8.0039,1.707-12.5283,4.0371-17.9746,9.0488-.5771-8.8613-2.1279-17.4805-4.7764-26.0938,5.4092,3.1875,8.5732,3.9473,19.291,2.3125,9.6475-1.4629,18.1582-3.166,26.5479-5.1035ZM22.6904,216.6357c4.7568-8.6426,8.5-17.4785,10.9141-25.8301,2.5967,6.084,5.0693,9.0742,14.3052,13.7402,7.4165,3.6328,14.8975,6.9297,22.5249,10.1113,2.6821,1.1543,5.5098,2.1953,8.3672,2.9746,6.4209-11.8242,6.189-16.0723,1.6328-21.502l.9414-1.0352c5.1489,3.959,9.8198,8.1562,14.0571,12.8867-2.9058,5.4551-5.8066,11.0977-8.4805,16.8438-2.9551,6.3535-4.8481,12.0039-6.5146,17.7578-3.3179-6.5098-5.7046-9.0918-15.0405-13.3438-7.5977-3.4414-15.3403-6.7695-23.1489-9.7598-10.1475-3.8906-13.856-4.4199-19.5581-2.8438Zm568.8047,21.666c7.3477,18.9766,24.5898,26.7852,42.3994,19.8906,17.8867-6.9258,25.1299-23.3242,17.7822-42.3008-7.3477-18.9746-24.5918-26.7852-42.4004-19.8887-17.8867,6.9258-25.1299,23.3242-17.7812,42.2988Zm51.2969-19.9531c3.3721,8.7109-1.3359,18.4922-16.8896,24.5156-13.998,5.4199-22.3604,1.1465-25.5215-7.0195-3.4043-8.7871,1.335-18.4922,16.8877-24.5156,13.998-5.4199,22.3301-1.2227,25.5234,7.0195ZM22.855,394.3603c-10.2041,1.8086-13.1875,3.6504-16.5762,7.8887-.1494-5.8574-.7861-11.5762-1.478-17.7949-1.0342-10.0391-2.5474-20.6113-4.3008-31.8301,6.0054,1.1797,11.8911,1.2793,17.6748-.2891l.5625,1.2793c-5.397,3.5391-7.2842,6.9375-4.792,25.543,4.5127-.168,9.2466-.6113,16.2925-1.3945-1.4224-14.2773-2.8506-18.0605-6.1216-22.5645,5.5264,.6445,11.0156,.1992,16.4771-1.248-2.5317,5.1504-3.0742,9.3223-1.5786,22.75,6.8618-.9316,11.3096-1.6797,14.9937-2.5078-1.3042-23.7734-3.0737-26.8477-9.3467-29.6738l.3589-1.2988c6.6313,.7715,12.9043,2.0879,18.2378,4.0117,.1587,8.2051,.5562,16.3008,1.4609,24.4238,.9048,8.125,2.2788,15.1875,4.0581,22.123-5.2505-3.4434-8.373-4.3535-19.1582-3.2363-9.707,.9961-18.2905,2.2871-26.7642,3.8184Zm632.5513-39.9414c-8.7744-.4922-17.5039-1.3164-26.1611-2.6348-10.4736-1.5762-13.5176-3.2734-17.7412-7.9199,.1904,5.166,.002,9.4355-.5859,13.5645-.8711,6.1094-2.085,9.8965-2.9092,15.6758-3.0137,22.3164,9.6357,37.5977,27.6348,40.1641,16.8428,2.4023,31.2656-5.9883,34.4434-28.2812,1.0361-7.2656,.6211-12.043,2.3047-23.8496,.5537-3.8809,1.1543-6.9121,1.8135-10.3555-4.2207,3.0195-8.1006,4.2363-18.7988,3.6367Zm6.1523,25.9824c-1.6836,11.8066-11.8486,17.5176-25.2246,15.6113-13.293-1.8945-21.3262-9.9492-19.8682-20.1875,.46-3.2188,1.8496-6.4746,4.3496-9.2344,13.8369,1.0449,27.6709,2.6816,41.4131,4.9766-.082,2.9355-.2471,5.8613-.6699,8.834Zm-100.0547-231.6348c6.7988-4.8301,13.5703-9.8438,20.083-15.084,8.4736-6.8066,10.7979-9.7441,12.3047-15.4648,5.0713,8.4609,10.8203,16.1445,16.8203,22.4336-6.2422-.9414-10.1172-.3789-19.0723,5.4395-7.1465,4.7695-14.1504,9.7402-20.9648,14.9863-2.3691,1.8535-4.1426,3.3906-5.8906,5.1133,10.1562,16.5039,13.7725,18.0527,20.3057,17.3691l.3506,1.3809c-5.9287,1.9902-11.9805,3.6602-18.043,4.7266-3.9912-6.4688-8.459-13.6211-12.9336-20.0586-4-5.75-7.9268-10.2305-12.0605-14.5684,7.2949,.4141,10.7266-.3477,19.1006-6.2734Zm36.1271,18.3703l14.1121,3.3612-3.3622,14.113-14.1121-3.3632,3.3622-14.111ZM382.9014,22.5126c1.6875-10.1465,1.3545-14.4336-1.374-19.8145,8.9404,2.7695,18.6445,4.8633,26.3965,5.4551-4.9951,2.9102-6.9902,6.8887-9.4277,16.9395-.5693,2.3496-1.1582,4.7812-1.6475,7.1523,9.0361,2.0195,18.1963,4.2402,27.1543,6.582,.6504-2.3301,1.2402-4.7617,1.8105-7.1133,2.4355-10.0508,2.4844-14.5-.624-19.373,7.1611,3.0234,16.748,5.6035,25.9639,7.2383-4.8896,3.5332-7.1504,7.1914-10.2969,16.9844-2.4736,7.7246-4.8457,15.3867-6.9697,23.7988-2.499,9.9492-2.293,13.3457,.7285,20-8.3584-3.3984-16.9531-5.8262-26.3086-7.2363,5.9004-3.8047,8.1816-7.1992,10.9443-16.8262,.7891-2.9004,1.6387-5.6973,2.4082-8.5137-8.9189-2.5059-17.7529-4.6484-26.8105-6.5859-.626,2.9375-1.1514,5.8145-1.7773,8.752-1.9531,9.8242-1.4785,13.8867,2.0225,19.9707-8.9619-3.0312-17.7139-4.8086-26.7012-5.6152,5.7324-4.5312,7.4727-7.457,9.8086-17.4453,1.9629-8.4492,3.3633-16.3496,4.7002-24.3496Zm80.5273,72.7793c18.0156,9.4629,36.1445,4.0059,45.0244-12.9043,8.9189-16.9824,3.5898-34.0996-14.4268-43.5625-18.0156-9.4609-36.1436-4.0039-45.0244,12.9043-8.9189,16.9844-3.5889,34.1016,14.4268,43.5625Zm1.6768-37.2715c6.9795-13.291,16.0156-15.6094,23.8438-11.498,8.2695,4.3418,11.1582,14.8066,3.4014,29.5762-6.9795,13.291-16.0908,15.5703-23.8428,11.498-8.3447-4.3809-11.1582-14.8086-3.4023-29.5762Zm-298.2656,9.6699c4.6733,7.4453,9.0508,15.041,12.9824,22.8672,4.7715,9.457,5.147,12.9219,3.7998,19.0527,4.1045-3.1406,7.6958-5.459,11.4043-7.3652,5.4878-2.8242,9.2788-4.0234,14.4707-6.6953,19.9482-10.4492,25.0996-29.6055,16.7822-45.7734-7.7837-15.1309-22.9702-22.043-42.9941-11.7422-6.5264,3.3574-10.1836,6.459-20.7891,11.9141-3.4858,1.793-6.3062,3.0566-9.498,4.5117,4.9067,1.6953,8.1426,4.1582,13.8418,13.2305Zm17.6372-20.0449c10.6055-5.457,21.1445-.4668,27.3252,11.5469,6.1426,11.9414,4.2197,23.1543-4.9761,27.8848-2.8931,1.4863-6.353,2.2363-10.0513,1.793-7.1489-11.8906-13.8174-24.125-19.8926-36.6621,2.4438-1.6328,4.9248-3.1895,7.5947-4.5625Zm333.5776,85.332c15.209,13.5215,34.1162,12.5898,46.8076-1.6836,12.7461-14.3379,11.6953-32.2344-3.5137-45.7559s-34.1172-12.5879-46.8076,1.6855c-12.7441,14.3359-11.6943,32.2324,3.5137,45.7539Zm10.6006-35.7715c9.9756-11.2207,19.3047-11.2949,25.9121-5.4199,6.9805,6.2051,7.2627,17.0586-3.8203,29.5254-9.9736,11.2188-19.3662,11.2383-25.9102,5.4199-7.0439-6.2617-7.2637-17.0605,3.8184-29.5254ZM89.0488,455.0244c-2.4902-4.5293-4.2412-8.4297-5.5698-12.3809-1.9663-5.8516-2.5835-9.7793-4.4438-15.3125-7.3335-21.291-25.4985-29.2617-42.7319-23.4688-16.127,5.4219-25.2432,19.3984-18.0674,40.7422,2.3384,6.9551,4.8545,11.0371,8.6553,22.3418,1.2485,3.7148,2.0737,6.6934,3.0317,10.0664,2.415-4.5957,5.335-7.4258,15.1611-11.6953,8.062-3.502,16.2295-6.6875,24.5562-9.3984,10.0664-3.2969,13.5483-3.1484,19.4087-.8945Zm-57.7627-1.9629c-1.2466-2.6602-2.4141-5.3477-3.3706-8.1914-3.8003-11.3047,2.7153-20.9746,15.5225-25.2793,12.7271-4.2812,23.5229-.6934,26.8188,9.1074,1.0356,3.084,1.2559,6.6172,.2637,10.207-12.8311,5.2812-25.9268,10.0352-39.2344,14.1562ZM69.6411,162.2646c5.8555,7.2559,13.4917,17.877,20.5825,28.8203,2.7251,4.0488,4.9038,8.4219,6.519,13.0039,3.2119-6.5332,7.2817-12.5449,11.4551-17.1406-4.665-.8184-8.8262-2.6113-13.5801-8.5508,3.7578-5.7227,7.7349-11.1836,11.9146-16.4941,7.7603,2.6602,11.0127,6.2676,11.7017,11.4141,4.623-8.1895,9.9194-14.75,15.9888-20.957-3.9727-.2109-7.8833-.7891-11.7334-1.7383-18.1934-4.4844-36.5518-10.0176-54.6704-16.3047-2.7021,5.9746-6.3989,12.4648-11.5244,19.3574,4.3228,.1562,8.3735,2.3867,13.3467,8.5898Zm27.979-3.1406c-2.8975,3.9766-5.7451,7.8848-8.5083,11.9609l-14.3916-19.0488,22.8999,7.0879ZM263.7666,27.5224c-1.7764-10.6934,5.1797-20.7246,21.1396-23.377,6.417-1.0664,9.7061-.5977,13.3262-1.1992,2.4678-.4082,3.7295-.957,5.5811-2.0254-.8389,4.6191-1.0615,11.4199,.8389,19.3027l-1.124,.3574c-3.5342-6.0078-9.2764-8.5195-17.1738-7.207-6.9102,1.1465-9.709,4.6562-9.04,8.6855,.5332,3.209,2.3418,4.9375,7.7432,5.9004l9.0605,1.623c10.624,1.8691,15.3242,6.7539,16.7168,15.1445,1.832,11.0234-5.9473,21.1914-21.9072,23.8418-6.416,1.0664-9.501,.3105-19.0156,2.0605,1.6621-6.2793,1.2539-12.2969-1.0586-19.6055l1.1934-.4512c4.6426,7.5977,11.0166,9.834,18.832,8.5371,6.6631-1.1074,9.1328-4.5605,8.4365-8.7559-.5195-3.127-2.5205-4.9922-7.4004-5.873l-9.4043-1.6504c-10.7061-1.8555-15.3643-7-16.7441-15.3086Zm53.5586,4.9297c.376-19.0957,14.0674-32.3418,34.2471-31.9434,6.9219,.1367,11.0635,1.6348,15.3164,1.7188,1.668,.0332,3.0059-.1074,5.0176-.6523-3.2109,6.3613-4.5723,11.9238-4.1465,19.9414l-1.1699,.1426c-3.1836-7.8203-7.4424-11.8262-15.2812-11.9805-9.7568-.1914-16.9004,6.7578-17.1768,20.7676-.3184,16.1777,8.123,23.8516,18.9658,23.8984,6.7568,.0508,11.4766-2.3594,15.1885-8.709l.9922,.4355c-.8096,2.9883-1.7842,5.8867-2.8369,8.5371-1.6738,4.4707-3.1289,6.3613-6.0771,7.8047-2.7793,1.3633-6.1318,2.1309-10.6357,2.127-19.6035-.0527-32.8027-11.8242-32.4033-32.0879Zm-68.0449,21.957l-12.8359-6.7598,6.7617-12.8359,12.835,6.7598-6.7607,12.8359ZM1.3906,309.4736c2.2944-9.0449,3.4395-18.3164,3.416-27.6465,4.3936,5.248,7.6748,6.5781,18.3013,8.3105,8.5674,1.3945,17.083,2.5312,25.7017,3.5137,9.5288,1.0918,12.4253,.7773,18.5654-2.6641-2.2646,8.123-3.2871,16.4004-3.0684,24.8301-5.1172-4.834-7.8496-5.8438-17.3584-7.1016-8.5981-1.1484-17.1338-2.1191-25.7837-2.8516-10.7285-.9043-14.2349-.4121-19.7739,3.6094Zm262.9727,337.8887c-2.0908,9.625-1.9893,13.1855,.1143,18.6523-7.6318-3.1211-16.6465-5.5684-24.5693-6.2637,4.4531-3.834,6.1094-7.1953,9.168-16.5664,2.5557-7.7793,4.8311-15.8047,6.6602-23.7754,1.9775-8.5352,.4238-12.4766-3.9268-15.9434l.5195-1.3301c9.2441,1.9043,17.3945,2.0566,25.4131,1.3984-3.291,6.6387-4.6279,10.4277-7.6182,20.8516-2.2119,7.7832-4.1172,15.3887-5.7607,22.9766ZM20.5765,329.5385l10.2596-10.2598,10.2598,10.2598-10.2598,10.2598-10.2596-10.2598Zm212.0699,285.3062l5.9785,13.2188-13.2183,5.9766-5.9775-13.2168,13.2173-5.9785Zm-4.8418-25.8203c-8.3882-3.3284-16.2729-7.5198-24.6533-13.3516,1.6885,7.0564,1.7021,11.0193-3.0884,20.0996-.8496,1.6289-1.7407,3.3301-2.6621,4.916-2.5547-1.5803-5.1812-3.2012-7.8921-4.6777,.3403-7.2305,.3799-14.4397-.0708-20.9707-.3848-6.5671-2.2073-9.2878-7.7036-12.4785-2.8276-1.6426-6.5657-3.574-9.668-5.7063-7.0886-4.8726-13.1797-10.6687-19.0483-17.3428-.021,7.0217-1.6494,10.7737-8.2666,18.2932-2.0151,2.2285-3.9131,4.4529-5.9282,6.6797-6.8623-6.2188-13.4321-12.5022-19.8916-19.1445,2.0786-2.053,4.2168-4.0452,6.353-6.1562,7.2197-6.9453,10.897-8.7363,17.9092-9.0703-7.3862-5.9121-13.6045-12.3225-19.1309-19.457-.7241,7.2734-2.25,10.3164-9.4014,17.6719-6.0566,6.2087-11.9531,11.6501-17.9683,17.0916-7.6343,6.8948-11.4233,8.9241-17.4277,9.5293,7.1543,6.0374,14.1533,13.0784,18.8335,19.2874-.2461-5.7754,2.0283-9.6016,9.1777-17.0762,1.6724-1.7461,3.4023-3.5547,5.1343-5.2444,6.5747,6.5198,13.3857,13.0354,20.1899,19.3147-1.6113,1.8047-3.3408,3.6133-5.0132,5.3613-7.1494,7.4727-10.8711,9.9141-16.6519,9.9258,6.4097,4.4004,13.7549,11.0801,20.1011,17.959,.3384-6.0254,2.1992-9.9004,8.7485-17.832,5.1709-6.25,10.3442-12.3809,16.2803-18.707,5.9672-6.3394,9.0106-8.4934,14.2147-9.5435,.9996,1.5923,1.7217,4.1335,2.38,8.8303,1.3276,9.8362,1.9209,18.2832,2.1416,26.7053-9.5005-1.0803-15.3887,2.252-18.6147,7.8047-4.6904,8.0781-2.7437,18.1797,12.4028,26.9746,7.4292,4.3145,13.0645,6.2361,20.9258,10.8025,2.7407,1.5901,5.4395,3.2542,8.0127,5.135-1.0864-5.9355-.188-10.1389,4.3145-19.3889,3.6416-7.4336,7.272-14.6814,11.5977-22.2966,5.0801-8.9121,7.5781-11.2227,14.3638-13.9375Zm-40.1797,29.3281c-1.9683,3.3906-3.6206,5.9043-5.1958,7.7849-1.7842-.7458-3.6714-1.6501-5.4746-2.697-7.4287-4.3145-9.1455-10.3262-5.6274-16.3848,3.4351-5.9141,9.4609-6.6582,15.5918-3.0977,2.0913,1.2148,4.3159,2.6992,6.3003,4.4294-1.854,3.3596-3.667,6.6487-5.5942,9.9651Zm-90.3325-90.0527c16.2095-10.2598,20.1416-27.752,9.2588-44.9473-10.8833-17.1953-29.3149-21.5215-45.4536-11.3066-16.2095,10.2578-20.1421,27.75-9.2583,44.9473,10.8828,17.1953,29.3145,21.5215,45.4531,11.3066Zm-37.21-15.4395c-4.9956-7.8926-2.2705-18.4004,11.8242-27.3223,12.686-8.0293,21.7178-5.4551,26.4019,1.9453,5.04,7.9648,2.27,18.4043-11.8252,27.3242-12.6855,8.0273-21.6733,5.5254-26.4009-1.9473ZM90.605,109.2158l-1.0337-1.2031c5.9702-4.6973,10.5464-9.7344,14.1558-14.4902,16.2583,1.6328,32.4883,2.8496,48.8799,3.4883-3.0283-3.7734-6.0659-7.4336-9.166-11.0352-6.0923-7.082-10.2939-9.4082-19.0142-9.8242,8.9087-5.2441,14.6348-9.8418,19.4185-15.2793,.8071,5.7969,2.8965,10.2715,9.1982,18.4902,8.6694,11.3535,17.4014,22.6543,26.3237,33.7891l-.9839,1.2871c-19.4243-1.9902-39.0107-3.4004-58.5864-4.1582,4.1968,4.75,8.5205,9.3906,12.9702,13.9238,8.5562,8.9199,13.3164,10.1055,20.4453,10.4629-7.6245,5.459-13.105,10.7266-18.4932,17.123-.3296-6.6484-1.9023-10.9062-9.5439-19.4043-4.8584-5.3906-9.9609-10.6816-14.7461-15.4746-8.665-9.0469-13.9233-10.6836-19.8242-7.6953Z"></path></svg>