<svg viewBox="0 53.7 141.7 33.3" xmlns="http://www.w3.org/2000/svg" fill="currentColor"><path d="M15.6 70.7l.6-.3 8 5.4zm-.5-.3l-.5-.3.6-10.4zm-.7 0l-2.6 2.2 3.2-1.9z"/><path d="M15.3 56.6c-7.8 0-14.1 6.3-14.1 14.1s6.3 14.1 14.1 14.1 14.1-6.3 14.1-14.1c.1-7.8-6.2-14.1-14.1-14.1zm0 27.6c-3.2 0-6.2-1.1-8.5-3.1-2.2-1.9-3.9-5-4.3-8.2 1 6.2 6.4 10.9 12.9 10.9 7.2 0 13-5.8 13-13 0-2.9-1.1-5.9-2.8-8.1 1.7 1.3 3.2 5.1 3.2 8.1-.1 7.3-6.1 13.4-13.5 13.4zm-1.2-14.4L15.3 58h.1l.1 12.3 2-1.2-2-11.1c7 .1 12.6 5.7 12.6 12.7 0 2.3-.6 4.3-1.6 6.2l-8.8-7.4-.9.5 9.6 7.1c0 .1-.1.1-.1.1L15.5 71v2.2l10.7 4.1c-2.2 3.7-6.3 6.2-11 6.2-4.7.1-8.7-2.4-11-6.1l10.7-4.2V71L4.3 77.2c0-.1-.1-.1-.1-.1l9.6-7-.8-.4L4.1 77c-1-1.8-1.5-3.9-1.5-6.2 0-6.9 5.5-12.6 12.4-12.7l-1.7 11.2zm1.2-12.4c-7.4 0-13.4 6-13.4 13.4 0 3 1.1 5.8 2.7 8.3.6 1 1.2 1.7 2 2.6-3.2-2.6-5.2-6.5-5.2-10.9 0-7.7 6.2-13.9 13.9-13.9s14 6.5 13.7 13.9c-.1-7.3-6.4-13.4-13.7-13.4zm62.2 14.3c0-2.5-1.1-4.5-3.5-4.5-2.2 0-3.5 2-3.5 4.5s1 4.5 3.5 4.5c2.4 0 3.1-1.2 3.5-3.1h-.8c-.1.7-.5 2.3-2.3 2.3-2 .1-2.1-2.5-2.1-3.7V71c0-.7-.1-3 1.8-3 1.5 0 1.7 1.9 1.7 3h-3.5v.7zm-41.3-7.6v.6h.5c.4 0 .9 0 .9.5l-.1 9.5c0 .4-.1.7-.9.7H36v.6h3.5v-.6H39c-.4 0-.7-.1-.7-.7v-9.1l3.7 9.8h.4l3.8-9.9.1 9.2c0 .3-.3.7-.8.7h-.7v.6h4.4v-.6h-.5c-.4 0-.8-.2-.8-.7l-.1-9.3c0-.3.4-.7.7-.7h.7v-.6H46l-3.3 8.6-3.3-8.6zm24.5 11.8v-.4h-.4c-.3 0-.9-.1-.9-.7v-4.6c0-1.4.7-2 1.5-2 .3 0 .4.1.4.7s.4.9.7.8c.4 0 .9-.1.8-1.1s-.7-1.4-1.6-1.4c-.7 0-1.4.5-1.5.7-.2.3-.4.1-.5-.1 0-.3-.1-.7-.5-.5-.7.2-1.5.4-2.1.4v.3c1.5-.1 1.3.7 1.3 1v5.7c0 .7-.6.7-.9.7h-.4v.4zm7.8-8.1c-.5-.4-1.2-.6-2-.6-2.2 0-3.5 2-3.5 4.5s1 4.5 3.5 4.5c2.1 0 2.7-1.2 3.1-3.1h-.8c-.1.7-.3 2.3-1.9 2.4-2 .1-2.1-2.5-2.1-3.7 0-.7.1-3.8 1.8-3.8 1.4 0 2.3 1 2.3 2.1h.4V67H69zm50.5 7.6c-2 .1-2.1-2.5-2.1-3.7h5.2c0-2.5-1.1-4.5-3.5-4.5-2.2 0-3.5 2-3.5 4.5s1 4.5 3.5 4.5c2.4 0 3.1-1.2 3.5-3.1h-.8c-.1.7-.6 2.3-2.3 2.3zm-.3-7.4c1.5 0 1.7 1.9 1.7 3H117c0-.7-.1-3 1.7-3zm-28.4 7.4c-2 .1-2.1-2.5-2.1-3.7h5.2c0-2.5-1.1-4.5-3.5-4.5-2.2 0-3.5 2-3.5 4.5s1 4.5 3.5 4.5c2.4 0 3.1-1.2 3.5-3.1h-.8c-.1.7-.6 2.3-2.3 2.3zM90 68c1.5 0 1.7 1.9 1.7 3h-3.5c0-.7-.1-3 1.8-3zm-36.8 7.4c-2 .1-2.1-2.5-2.1-3.7h5.2c0-2.5-1.1-4.5-3.5-4.5-2.2 0-3.5 2-3.5 4.5s1 4.5 3.5 4.5c2.4 0 3.1-1.2 3.5-3.1h-.8c-.1.7-.5 2.3-2.3 2.3zm-.3-7.4c1.5 0 1.7 1.9 1.7 3h-3.5c.1-.7 0-3 1.8-3zm32.2 6.2v-9.8c0-.4-.2-.7-.6-.7-.7.2-1.5.4-2.1.4v.4c1-.1 1.1.2 1.1.6v3c-.4-.4-1-.8-1.9-.8-1.2 0-3.4 1-3.4 4.3 0 4.3 2.6 4.6 3.3 4.6s1.8-.7 2-1c0-.1.1-.1.1 0 0 .3.3.8.6.7.7-.2 1.5-.4 2.1-.4v-.4c-1.4.1-1.2-.6-1.2-.9zm-1.5-1.1c0 1.9-1 2.5-1.9 2.5-1.9 0-1.8-2.9-1.8-4.1s.1-3.6 1.8-3.5c1.7.2 1.8 2.1 1.8 3.1zm22-2.2v-.7h-4.7v.7zm-11 2.1v2.9h.4l.4-.7c.4.3 1.1.8 2.1.8s2.3-.5 2.8-1.5.3-2.6-.9-3.1c-1-.4-2-1-2.6-1.3-.7-.3-.8-.8-.8-1.1.1-.6.6-1.2 1.7-1.2s1.7.9 1.8 2h.4V67h-.4l-.4.7c-.7-.5-1-.6-1.7-.6s-1.8.4-2.4 1.3c-.7 1-.4 2.5 1 3.2 1.5.7 2.2 1 2.6 1.2s.7 1 .4 1.5-.8 1-1.6 1-2.1-.6-2.5-2.4h-.3zm17.5-3.5c.8-.2 1.7-1.7 1.7-2.7s-.4-2.7-2.8-2.7h-5.2v.4c.5 0 1.4.1 1.4 1v8.6c0 .5 0 1.3-1.4 1.3v.5h4.3c1.3 0 4.3-.1 4.3-3.5-.1-1.1-.6-2.5-2.3-2.9zm-3.5-4.8h1.8c1.3 0 1.8 1 1.8 2.1 0 1.5-.4 2.6-1.8 2.6h-1.8zm1.8 10.7h-1.8V70h2c1.2 0 2.1.8 2.1 2.6.1 1.8-1 2.8-2.3 2.8zm18.2-5.8v5.1c0 .7-.6.7-.9.7h-.2v.4h3.8v-.4h-.4c-.3 0-.9-.1-.9-.7v-5.1c0-2.4-2.1-2.4-2.9-2.4s-1.6.5-1.8.7c-.2.3-.4.1-.5-.1 0-.3-.1-.7-.5-.5-.7.2-1.5.4-2.1.4v.3c1.5-.1 1.3.7 1.3 1v5.7c0 .7-.6.7-.9.7h-.5v.4h4.1v-.4h-.2c-.3 0-.9-.1-.9-.7v-4.6c0-.7.3-2 1.7-2.1 1.6 0 1.8 1 1.8 1.6zm3.5.2l.7-2.4h6l-5.1 8.1h2.7c.7 0 1.1-.2 1.8-1.8h.3l-.6 2.4h-6.1l5.1-8.1h-2.3c-.6 0-1.2 0-2.1 1.9z"/></svg>
