<svg xmlns="http://www.w3.org/2000/svg" viewBox="0 0 313.9 196.4"><path class="st0" d="M44.3 184c-1.2 0-1.5.8-1.5 1.8 0 1.6-.2 3-1.3 4.3-1.4 1.8-3.7 2.6-5.9 2.6-6.6 0-8.6-6.1-8.6-11.5s2-11.4 8.6-11.4c2.2 0 4.5.9 5.7 2.8.9 1.4 1 2.8 1 4.2 0 1.9.2 2.4 1.5 2.4.9 0 1.5-.5 1.5-1.5 0-1.2-.3-2.5-.3-4.1 0-1.6.3-3.2.3-4.8 0-.9-.4-1.7-1.4-1.7-.8 0-1.3.6-1.3 1.3 0 .6.1 1.2.2 1.8l-.1.1c-1.8-2.3-4.3-3.3-7.3-3.3-3.7 0-7.1 1.7-9.3 4.7-2 2.8-2.7 6.6-2.7 9.8 0 7.2 3.8 13.8 12 13.8 5.9 0 10.6-3.8 10.6-9.7-.1-.9-.6-1.6-1.7-1.6zM69.6 187c-1.4 0-1.3 1.3-1.3 2.3 0 1.1.3 3.6-1.4 3.6-1.9 0-1.5-3.1-1.5-4.3l.2-7.1c0-2.3-.2-4.5-2.2-5.9-1.5-1.1-3.5-1.6-5.4-1.6-1.7 0-3.8.5-5.2 1.4-1.3.9-2.4 2.3-2.4 4 0 1.4 1.1 2.5 2.4 2.5 1.1 0 2.1-.7 2.1-1.8 0-1.4-.9-1.4-.9-1.6 0-.4.6-.8.9-1 .9-.5 2-.9 3-.9 2.3 0 4.4.9 4.4 3.5 0 2.9-3.1 2.9-5.4 3.1-1.9.2-3.5.4-5.2 1.4-1.8 1.1-2.7 2.8-2.7 5 0 2 1 3.6 2.6 4.7 1.4.9 3.1 1.1 4.7 1.1 2.5 0 5-.8 6.3-3 .4 2 2.1 2.8 4 2.8 1.3 0 2.7-.3 3.4-1.4.8-1.1.8-2.4.8-5.4.1-.7-.1-1.4-1.2-1.4zm-7.3 0c0 1.4-.1 2.6-1 3.8-1.2 1.5-3.1 2.1-4.9 2.1-2.1 0-4.1-.9-4.1-3.3 0-2.7 2.5-3.2 4.6-3.4 1.9-.2 4-.3 5.5-1.7-.1.8-.1 1.7-.1 2.5zM84.9 174.1c-2.3 0-4.3.9-5.5 2.9h-.1c0-1.6-.1-2.4-1.1-2.4-.7 0-1.3.4-2.2.4-.9 0-1.5-.4-2.3-.4-.9 0-1.8.5-1.8 1.4 0 .7.5 1.3 1.3 1.3 1 0 1.6-.2 2.3-.2.9 0 1.2.6 1.2 3.3v8.8c0 2.7-.2 3.3-1.1 3.3-.7 0-1.3-.2-1.8-.2-.8 0-1.3.5-1.3 1.3 0 .9.9 1.4 1.8 1.4 1.6 0 2.5-.4 4.1-.4 1.6 0 2.7.4 4 .4.8 0 1.7-.5 1.7-1.4 0-.7-.5-1.3-1.3-1.3-.5 0-1.1.2-1.8.2s-1.3-.4-1.3-3.3V184c0-5.7 2-7.4 4.9-7.4 1.6 0 3.5 1 3.5 2.7 0 .4-.1.6-.2.9-.2 0-.4-.1-.5-.1-.9 0-1.6.8-1.6 1.7 0 1.1 1.1 1.9 2.1 1.9 2.4 0 3.3-2 3.3-4 0-3.7-3-5.6-6.3-5.6zM105.4 184.8c-1.1 0-1.6.7-1.6 2.5v1.3c0 1.9-.4 3.9-2.8 3.9-2.1 0-2.9-1.1-2.9-4.7v-9.5c0-.7.1-.8 1-.8h3.4c1.8 0 2.1-.7 2.1-1.4 0-.9-.4-1.4-2-1.4h-3.9c-.5 0-.7 0-.7-.6v-3.9c0-1-.2-2-1.5-2s-1.5.9-1.5 2v3.2c0 1.1-.1 1.3-.8 1.3H93c-.8 0-1.5.7-1.5 1.4 0 1.2.7 1.4 2.3 1.4 1.2 0 1.4.2 1.4 1.4v8.6c0 3.2.2 4.1.8 5.3.9 1.7 2.8 2.3 4.6 2.3 5.5 0 6.3-3.9 6.3-8.5 0-.9-.4-1.8-1.5-1.8zM118 174.1c-6.3 0-9.3 5-9.3 10.8 0 5.7 3.1 10.7 9.3 10.7 6.3 0 9.7-4.9 9.7-10.8 0-2.7-.7-5.6-2.5-7.7-1.8-2.3-4.4-3-7.2-3zm0 18.8c-4.6 0-6.1-4.3-6.1-8.1 0-1.7.4-3.8 1.3-5.3 1.1-1.9 2.8-2.7 5-2.7 1.9 0 3.7.6 4.7 2.3 1 1.6 1.4 3.8 1.4 5.6.1 4-1.5 8.2-6.3 8.2zM153.8 192.3c-.5 0-1.1.2-1.8.2-.9 0-1.1-.9-1.1-3.3v-7.3c0-2.2-.1-4.1-1.8-5.7-1.6-1.4-3.6-2.1-5.7-2.1-2.4 0-5 .9-6.5 2.9h-.1c0-1.5 0-2.3-.9-2.3-1 0-1.3.4-2.5.4-1 0-1.3-.4-2.1-.4-.7 0-1.4.7-1.4 1.4s.5 1.3 1.3 1.3c.5 0 1.1-.2 1.8-.2.9 0 1.1.6 1.1 3.3v8.7c0 2.5-.2 3.3-1.1 3.3-.7 0-1.3-.2-1.8-.2-.8 0-1.3.5-1.3 1.3 0 .9.6 1.4 1.7 1.4 1.4 0 2.3-.4 4.2-.4 1.8 0 2.7.4 4 .4 1.1 0 1.7-.5 1.7-1.4 0-.7-.5-1.3-1.3-1.3-.5 0-1.1.2-1.8.2-.9 0-1.1-.9-1.1-3.3v-4.6c0-3.9.5-4.8 1-5.5 1-1.5 3-2.3 4.8-2.3 1.6 0 3.5.6 4.3 2.2.6 1.2.6 2 .6 4.5v5.8c0 2.5-.2 3.3-1.1 3.3-.7 0-1.3-.2-1.8-.2-.8 0-1.3.5-1.3 1.3 0 .9.6 1.4 1.7 1.4 1.4 0 2.3-.4 4.2-.4 1.8 0 2.7.4 4 .4 1.1 0 1.7-.5 1.7-1.4-.3-.9-.8-1.4-1.6-1.4zM192.3 192.2c-.5 0-1.1.2-1.8.2-.8 0-1.1-.6-1.1-3.3V169c0-1.4-.2-1.7-.7-1.7-.8 0-1.3.4-2.3.4-1.1 0-1.7-.4-2.8-.4-.7 0-1.5.6-1.5 1.4 0 .7.5 1.3 1.3 1.3.5 0 1.1-.2 1.8-.2s1.1.4 1.1 3.3v3.8h-.1c-1.4-2.2-3.6-2.9-6.1-2.9-6.1 0-8.9 5.1-8.9 10.6 0 5.7 2.9 10.8 9.1 10.8 2.3 0 4.8-.8 6-2.8h.1v.4c0 1.5.4 1.9 1.4 1.9.9 0 1.3-.4 2.1-.4.9 0 1.6.4 2.3.4.7 0 1.3-.5 1.3-1.4.1-.7-.4-1.3-1.2-1.3zm-6.9-2c-.9 1.8-2.8 2.7-4.8 2.7-4.3 0-6.1-4.1-6.1-8 0-3.8 1.3-8.1 5.8-8.1 1.9 0 3.6.7 4.7 2.2 1.1 1.6 1.3 3.8 1.3 5.7 0 1.8-.1 3.9-.9 5.5zM204.3 174.1c-2.8 0-5.4 1.2-7.2 3.4-1.6 2.1-2.3 5-2.3 7.6 0 5.8 3.2 10.4 9.3 10.4 2.2 0 4.7-.7 6.4-2.3 1.1-1.1 2.3-2.9 2.3-4.5 0-.9-.7-1.5-1.6-1.5-1.1 0-1.3.9-1.5 1.7-.7 2.5-2.7 3.9-5.4 3.9-4.3 0-6.5-3.6-6.3-7.6h13.3c1.9 0 1.9-.2 1.9-2.1 0-5.2-3.6-9-8.9-9zm-5.9 8.3c.3-3.3 2.7-5.7 6-5.7 3.5 0 5.3 2.5 5.5 5.7h-11.5zM247.9 181.2c-1.8-1.1-4.1-1.4-6.2-1.8-4.9-.8-6.9-1.8-6.9-4.7 0-3.3 2.9-4.8 5.8-4.8 3.3 0 6.2 1.5 6.2 5.2 0 .7-.1 1.3-.1 2 0 .9.6 1.6 1.6 1.6 1.2 0 1.5-1 1.5-2s-.3-2.2-.3-3.4c0-1.3.3-2.6.3-4 0-.9-.4-1.8-1.4-1.8-.9 0-1.2.8-1.2 1.6v.5c-1.6-1.8-4-2.5-6.4-2.5-2.3 0-4.7.5-6.5 2-1.8 1.5-2.8 3.6-2.8 6 0 2.3 1.3 4.6 3.6 5.7 1.9.9 4.7 1.4 6.8 1.8 3.1.5 5.8 1.2 5.8 4.9 0 1.6-.8 3.3-2.2 4.2-1.2.8-3.1 1.1-4.5 1.1-3.9 0-7.1-2.3-7.1-6.5 0-.6.1-1.2.1-1.8 0-1-.5-1.7-1.6-1.7s-1.6.8-1.6 1.8c0 1.2.3 2.5.3 3.9 0 1.3-.3 2.4-.3 4.3 0 2.1.5 2.7 1.6 2.7.9 0 1.4-.5 1.4-1.4l-.1-1.4.1-.1c1.9 2.1 4.7 2.9 7.6 2.9 5.1 0 9.7-3 9.7-8.5-.1-2.3-1-4.5-3.2-5.8zM263.5 192.2c-.6 0-1.1.2-1.6.2-.7 0-1-.7-1-1.6v-14.6c0-.8-.2-1.7-1.1-1.7-.7 0-1.3.4-2.2.4-.9 0-1.5-.4-2.6-.4-.7 0-1.4.5-1.4 1.4 0 .7.5 1.3 1.3 1.3.5 0 1.1-.2 1.8-.2.9 0 1.1.5 1.1 3.3v8.8c0 2.4-.2 3.3-1.1 3.3-.7 0-1.3-.2-1.8-.2-.8 0-1.3.5-1.3 1.3 0 .7.7 1.4 1.3 1.4 1.4 0 2.5-.4 4.1-.4 1.7 0 2.7.4 4 .4.8 0 1.7-.5 1.7-1.4.2-.7-.4-1.3-1.2-1.3zM256.5 170.4c0 1.3 1 2.3 2.2 2.3 1.3 0 2.3-1 2.3-2.3s-1-2.2-2.3-2.2c-1.1-.1-2.2.9-2.2 2.2zM284.4 179.3c1.8-2 2.2-2.3 3-2.3.3 0 .6.1.9.2.3.1.6.2.9.2.6 0 1.4-.5 1.4-1.4 0-.7-.5-1.3-1.3-1.3-1.3 0-2.7.4-4 .4-1.4 0-2.8-.4-4.1-.4-.8 0-1.4.5-1.4 1.3s.6 1.4 1.4 1.4c.2 0 .3-.1.5-.2s.3-.2.4-.2c.2 0 .3 0 .3.2s-.2.5-.5.9l-2.7 3.1c-.4.4-.6.7-.9.7s-.5-.4-.8-.7l-2.8-3.4c-.4-.4-.5-.5-.5-.6 0-.1.2-.2.5-.2.2 0 .3.1.4.2.2.1.3.2.5.2.8 0 1.4-.8 1.4-1.4 0-.7-.5-1.3-1.3-1.3-1.3 0-2.5.4-4 .4-1.6 0-2.8-.4-4.2-.4-.8 0-1.3.5-1.3 1.3 0 .9.7 1.4 1.4 1.4.4 0 .7-.1 1-.2.3-.1.5-.2.8-.2.6 0 .9.3 1.6 1.1l4.7 5.5c.3.4.5.6.5.8 0 .2-.5.7-.6.8l-4.5 5.2c-1.3 1.5-1.8 2-2.4 2-.5 0-1.1-.2-1.6-.2-.8 0-1.3.6-1.3 1.3 0 .9.5 1.4 1.5 1.4 1.1 0 2.4-.4 3.8-.4s2.7.4 4 .4c.8 0 1.7-.5 1.7-1.4 0-.7-.5-1.3-1.3-1.3-.6 0-1.2.2-1.8.2-.2 0-.4 0-.4-.2s.5-.7.6-.9l3.5-4c.2-.2.5-.6.7-.6.2 0 .6.5.7.6l3.8 4.5c.1.1.2.2.2.3 0 .2-.2.3-.5.3-.4 0-1.1-.2-1.7-.2-.8 0-1.3.6-1.3 1.3 0 .9.6 1.4 1.6 1.4 1.1 0 2.5-.4 3.9-.4s2.7.4 4 .4c.8 0 1.7-.5 1.7-1.4 0-.7-.5-1.3-1.3-1.3-.6 0-1.1.2-1.6.2-.6 0-1.1-.4-1.6-1.1l-5.2-6.1c-.2-.2-.6-.6-.6-.9 0-.3.2-.5.6-.9l3.6-4.1zM122.5 138.2h68.9v4.8h-68.9zM154.8 94.4h4.8v36.2h-4.8zM129.7 0h55.1v4.8h-55.1zM199.9 31.4h4.8c-.8-15.4-6.5-28.3-7.9-31.4h-5.3l.7 1.4c.1.2 6.8 13.8 7.7 30zM122 1.4l.7-1.4h-5.3c-1.4 3.1-7.1 16-7.9 31.4h4.8c.9-16.1 7.6-29.8 7.7-30zM4.8 47.5c0-22.4 17.2-40.8 39-42.7V0C19.3 2 0 22.5 0 47.5v20.1h4.8V47.5zM43.8 138.2c-21.9-2-39.1-20.4-39.1-42.7V75.3H0v20.2c0 25 19.3 45.5 43.8 47.5v-4.8zM95.4 95.5v-2.4h-4.8v2.4c0 22.4-17.2 40.8-39.1 42.7v4.8c24.5-2 43.9-22.5 43.9-47.5zM90.6 47.5v2.4h4.8v-2.4C95.4 22.5 76 2 51.6 0v4.8c21.8 1.9 39 20.3 39 42.7zM270.2 52.7c20.6 1.8 37 18.3 38.9 38.9h4.8C312 68.4 293.5 49.8 270.3 48v4.7zM262.5 143v-4.8c-20.6-1.9-37-18.3-38.9-38.9h-4.8c1.9 23.2 20.5 41.8 43.7 43.7zM218.8 91.6h4.8c1.8-20.6 18.3-37 38.9-38.9v-4.8c-23.2 1.9-41.8 20.5-43.7 43.7zM309.1 99.3c-1.8 20.6-18.3 37-38.9 38.9v4.8c23.2-1.9 41.8-20.4 43.7-43.7h-4.8zM223.4 47.5c0-22.4 17.2-40.8 39.1-42.7V0c-24.5 2-43.8 22.5-43.8 47.5v13.7h4.8V47.5zM300 13.8C292.3 6 281.8.9 270.2 0v4.8c10.3.9 19.5 5.5 26.5 12.4l3.3-3.4zM204.2 45.5c-1.5-.1-3.1-.3-4.6-.4-1-.1-2-.4-3-.5-2.6-.2-5-.7-7.5-1.4-1.1-.3-1-.3-2.1-.6-.8-.3-1.2-.1-1.9-.5-.2-.1-1.2-.7-1.7-1-.7-.3-1.3 0-1.9-.3-.3-.1-.9.2-1.3.1s-.2-.7-2.2-1c-.8-.1-1.4-.5-2-.8h-8.5c.7.3 1.4.6 1.6.7.4.2.8.3 1.2.4 1.2.4 3 .8 3.6 1.4.3.3 1.4-.2 4.2.9.7.3 1.4.2 2 .5.5.3 1.1.3 1.7.2.5-.1 1.1-.1 1.6 0 1.9.5 3.7 1.1 5.7 1.3 2.4.3 4.7 1.4 7.1 1.6 2.4.2 5.1.5 7.6.7.3-.3.4-.8.4-1.3zM139.9 76.8c.7.2 1.4.4 2.1.5.2 0 .5 0 .6-.3.2-.4-.1-.5-.3-.6-.3-.2-.7-.4-1.1-.4-1-.1-.9-.2-1.3-.3-.2-.1-.7-.2-.9-.1-.1 0-.4.1-.4.3 0 .1.2.3.3.4.1.1 0 .1.2.3.1.1.5.2.8.2zM189.4 71.8l-4.8.3c-1.6.1-3.2.3-4.8.2-2.7-.2-5.4-.1-8-.5-1.3-.2-1.4-.1-2.7-.2-.3 0-1.2-.3-2.2-.3l-2.5-.3c-1.2-.1-2.5-.3-3.7-.4-1.2-.2-2.3-.4-3.5-.5-1.1-.1-1.4-.4-2.5-.6 0 0-1 .1-2-.2-.4-.1-1.3-.2-1.7-.3-1.5-.3-2.4-.5-3.9-.8-1.9-.4-1.9-.1-3.7-.8-1.3-.5-3.6-.6-4-.7-.5-.2-.8-.5-1.4-.7-1.1-.3-2.6-.8-3.4-1.1-.6-.3-1.2-.5-1.8-.6-1.1-.2-2-.6-2.9-1.2-1.6-1.1-3.4-1.9-5.4-2.2-.5-.1-.6-.1-1-.4-.2-.2-.4-.5-.4-.5-1.7-.2-3.4-1.2-4.9-1.8-.3-.1-.7-.2-1-.2-.5 0-.9-.1-1.3-.4-1.1-.7-2.2-1.6-3.4-2.1 1.6 4.5 3.9 8.7 6.7 12.5.2.1.4.3.7.4 1.2.3 2.1.2 2.9.6.2.1.6 0 .9.1.3 0 .6.1.8.2.5.3 1 .5 1.7.5.2 0 .4.1.5.2.4.7 1.1.8 1.8.8.3 0 .6.2 1 .4.6.3 1.2.7 1.9.9.8.3 1.6.3 2.4.5 1.7.4 3.5.8 5.2 1.2.4.1.7.3 1 .6.4.3.8.6 1.3.4.7-.2 1.2.3 1.8.5.6.2 1.3-.1 1.6-.1.3.1.7.3.8.5 1 .9 2.2.5 3.3 1 1.7-.1 3.1-.2 4.7.2.2.1.9.2 1.2.2 1.1.1 1.2.6 2.3.7 0 0 1.5-.1 3.6.4 1.8.2.7-.2 2.6 0 .4 0 .8 0 1.2-.1 1.6-.3 3.2-.7 4.8-.3.3.1.7.1 1.1 0 .9-.3 3.9 0 4.8 0 .5 0 3.3.2 3.9.2.9 0 2.9-.3 3.8-.4 1-.1 2-.1 3 0 .9-.7 1.7-1.4 2.6-2.1-.4.1-.7.2-.9.2-1.4.3-2.8.4-4.2.3-1.7-.1-3.2-.2-5 0-3.1.4-6 0-6.2 0-1.2-.1-1.3-.2-1.9.1 0 0-.8-.6-1.7-.5-.1 0-2 .2-2.5-.1-.8-.1-.9-1-.9-1.1 1.3.2 2.4.1 2.4.1 1.4 0 1.2.3 2.4.4.8.1 3.1.2 4 .2 4 .3 5.2 0 8.5-.1 1.6-.1 3.3-.3 4.9-.3.8 0 1.7-.3 2.5-.4l2.1-2.1c-.9-.5-1.7-.5-2.5-.4z"/><path class="st0" d="M123.6 58.5c1.2.8 2.4 1.6 3.9 2 .1 0 1 .3.9-.1-.3-1.1-1.1-1-2.3-1.7-.3-.1-1.8-1-2.2-1.1-.1 0-.5 0-.5.1-.1.1.1.3.1.5-.1.2 0 .3.1.3zM147.7 77.6l-1.2-.2c-.4-.1-.8 0-1.3-.1-.2 0-.6-.1-.6.3-.1.4.1.5.3.6.6.3 2.8.3 2.8-.6zM132.3 62.2c-.4-.9-.8-1.3-1.7-1.5-.1 0-.5 0-.5.3 0 .6 1.7 1.4 2.2 1.2zM121.3 57.8c.1 0 .2-.1.3-.2s.1-.3 0-.3c-.1-.1-.2-.3-.4-.4-1.7-1.1-2.6-1.5-4.2-2.2-.9-.5-2.8-1.6-3.7-2.2-.8-.5-1.5-1-2.3-1.5l.3 1.2c.3.2.6.3.9.5l8 4.9c.4.1.7.1 1.1.2zM188.9 40.5c.4.3.8.4 1.3.5 1.4.2 2.8.3 4.2.5 2.7.4 5.3 1 8.1 1.2.7 0 1.4.1 2.1.1.1-1.2.2-2.4.2-3.6H185c.4.3.8.4 1.7.5.8.1 1.5.3 2.2.8zM135.8 74.3c-.4-.1-.8-.2-1-.2-1-.1-1.4-.2-2.2-.7-.1-.1-.3-.2-.5-.1-1.2-.2-1.6-.1-2.2-.5-.7-.5-1.5-.2-2.2-.4-.1 0-.2-.1-.3-.1-.8-.6-1.7-.8-2.6-1-.6-.1-1-.3-1.6-.6-.7-.3-1.5-.6-2.3-.9.5.6 1.1 1.3 1.7 1.9.5.2.9.4 1.4.6 1.5.6 2.2.4 3.2 1 .3.1.7.2.9.3 1.5.4 2.7.4 4.1 1.1 1.4.6 1.6-.1 2.9.8 0 0 .8.3.9.3 1 .1 1.1 0 1.7 0-.9-.7-1.2-1.3-1.9-1.5z"/><path class="st0" d="M136.2 78.2c-.7-.4-1.4-.8-1.5-.8-1.1-.3-2.1-.9-3.2-1-.9-.1-1.6-.2-2.3-.6-.5-.2-.4-.5-1.3-.8-1-.5-.9-.3-2-.7-.3-.2-.7-.3-1.1-.4l2.4 2.1c8.2 6.6 18.6 10.6 29.9 10.6 8.1 0 15.6-2 22.3-5.5-1.4.2-1.7.5-4.5.3-.8-.1-1.4.2-2.2.4-.5.1-.9.3-2.4.1 0 0-.6.2-1.9.3-1.3.1-1.5-.2-2.8-.1-.9.1-1.3.1-2 .1-2.3 0-2.3-.4-3.7-.3-.3 0-.7-.2-1-.3-.8-.2-.9-.4-2.5-.2-.8.1-1.7.3-2.5.2-2.4-.2-1.9-.4-7.1-.9-.6-.1-3.2-.7-3.9-.7-2.8-.1-3.4-1-6.1-1.6-.1-.1-.4-.2-.6-.2zM141.9 45.4c.1.1.3.1.4.1l-.4-.1z"/><path class="st0" d="M196.6 55.9c.4 0 .3-.3.5-.3 2 .3 3.5.1 4.6.1.9-2.3 1.5-4.7 2-7.1-1.7.1-3.5.2-5.2.1-1.7-.1-3.5-.6-5.2-.8-1.7-.2-3.3-.1-5-.5-1.3-.4-1.3-.5-2.4-.7-.5-.1-1.8 0-2.4-.3-.6-.3-2.1-.2-2.8-.3-.6-.2-1-.3-2.3-.6-.2-.1-1.8-.5-2.1-.5-1.4-.3-2.3-1.4-2.8-1.5-.4-.1-.9.6-2.2.1-1.1-.6-1.3-1.2-1.8-1.3-.5-.1-1.2.4-1.6.3-.4 0-.6-.7-1.2-1.2-1.2-.9-1.7-1-2-1-.2 0-1.9-.6-2.3-1h-15.6c.8.4 1.5.8 2.3 1.3.3.2.5.5.7.7.2.2.1.8-.5.6-.3-.1-.7-.2-1-.3-1.4-.8-2.7-1.5-4.1-2.3h-3l2.7 1.5c.6.3 1.3.6 1.9 1 .5.3.8.7 1.3.9.8.3.9.7 1.3.8.3.1 1 0 1.3.2.6.3 1.3.6 1.9.9.2.1.4.1.5.3.1.2.3.4.2.6-.1.3-.4.3-.6.2-.9-.5-1.9-.7-2.8-1.1-1.2-.4-2.3-1-3.4-1.5-.8-.4-1.6-1-2.5-1.2-2-.5-3.8-1.4-5.6-2.4h-3.1c.6.4 1.2.7 1.8 1.1.4.3 1 .4 1.5.7.4.2.5.4.9.6 1.3.7 2.6 1.4 3.9 2.2.5.3 1.1.5 1.7.6 1.4.2 2.6.8 3.8 1.5 1 .5 2 1 3.1 1.2.5.1 1 .3 1.5.6 1 .5 2 1 3.2 1 .5 0 1 .3 1.5.6.7.4 1.3 1 2.1.8.6-.1 1 .2 1.5.4s1.1.2 1.6.2c1.1 0 2 .2 2.8 1 .6-.4 1.1-.2 1.7.1.5.2 1.1.4 1.7.4 2 .3 1.9.7 2.2.8.4.1 1-.2 1.5.1 1.1.6 2.5 0 3.7.5 2.1 0 3.9.6 6 .8 1.1.1 2.4.5 3.5.7.4 0 4.4.4 4.8.4.6 0 4.8 0 4.7.3-.3 1.3-6.7.5-7.2.3-.4.1-3.3.6-5 0-1.9-.3-3.4-.8-4.6-.7-1.6-.5-3.4-.3-4.4-.9-.1-.1-.4-.1-.5-.1-1.2.6-2.3-.5-2.5-.5-.2-.1-.8.2-1.6-.1-.6-.3-1.2-.4-1.8-.4-.4 0-.6-.5-1-.5-1 .1-1-.3-1.3-.3-.9-.2-1.5 0-1.9-.2-1.3-.4-1.9-.9-3.2-1.1-1.6-.2-3-.7-4.5-1.2-3-.8-5.9-2.1-8.7-3.2-.7-.2-1.6-.4-2.1-.8-.3-.2-.3-.3-.5-.4-.1 0-.1-.1-.2-.1-.3-.1-.9-.1-1.4-.2-.2 0-.3-.1-.4-.1-1.2-.7-2.8-1.5-4-2.2-.7-.4-1.3-.9-2-1.4-.9-.6-1.9-1-2.9-1.2-.9-.1-1.7-.5-2.3-1.2l-.3-.3h-11.6c2.3 1.7 3.7 2.4 5.7 3.5 1.2.6 2.2.9 4.8 2.7.8.4 2 1.3 2.5 1.6.8.4 4.2 2 4.2 2.1 0 .6-2.4-.2-2.9-.4-.8-.2-1.1-.5-1.5-.6-.4 0-1.2-.4-1.5-.6-1.3-.7-1.1-1.2-2.5-1.6-.3-.1-1.3-.7-1.5-.9-.2-.2-1.7-.7-1.9-.8-1.5-.5-2.4-1.3-2.5-1.6-1.5-.1-2.2-1.1-2.6-1.2-1.6-.4-2.5-.7-3.6-2-.1-.1-.2-.2-.4-.3h-5.5c0 1 0 1.9.1 2.9.5.2 1 .5 1.4.8 1 .7 2.3 1 3.5 1.6 1.1.6 2.3 1.1 3.4 1.8.5.3 1.1.8 1.2 1.1 1.8-.1 3.1 1.3 4.6 2.1.5.3 1.1.7 1.7.8 1.3.2 2.4.8 3.4 1.7.4.3 1.9.9 3.2 1.3l2.1.6c.8.2.9.9 2.3 1 1.9.5 2.8 1.1 4.6 2.4-.7.8-1.5.4-1.8.2-1.7-1-2.8-1.2-5-1.5-1.4-1.3-3.3-1.2-3.3-1.2-1.6-1.2-2-1.4-4-1.9-1.5-.4-2.8-1.7-4.2-2.2-1.5-.6-3.2-1-4.3-2.2-.3-.3-.7-.5-1.2-.7-2.4-.7-4.7-1.8-6.8-3l-.6-.3c.2 1.7.5 3.4.8 5 1 .6 1.9 1.3 2.9 1.9 2.4 1.4 4.9 2.6 7.3 3.9 1.9 1 3.9 1.9 5.8 3 .9.5 1.7 1 2.8 1.1.4 0 .8.3 1.1.4 1.6.8 2.2 1.5 4 1.9.5.1.8.4 1.3.6 1.6.3 1.8 1.3 2.4 1.4.6.1 2.1.2 3.4.6 1.1.3 2.1.8 3.3.9 1 .1 2 .4 2.9.7 1 .3 2 .8 3 1.1.3.1.7.1 1 .1 1.5.2 3.2.1 4.5.8 1.2.6 2.6.8 3.7.4 0 0 .5.7.9.6 1.3-.3 2.1.5 3.4.5h2.8c1.1.1 2 .2 3 .7.6.3 1 .3 1 .3s.8.2 1.2-.2c.5-.6 1-.1 1.7-.1 1.5.1 3.1 0 4.7 0h.7c1.5.6 3.2 0 4.8.2.8.1 1.7 0 2.5-.2.9-.3 1.6.4 2.4.3.3 0 .6-.1.9-.1 1.1-.1 2.1-.3 3.2-.3 1-1.2 1.9-2.4 2.8-3.6-.9.1-1.7.3-2.5.4-1.1.1-2.2 0-3.4.1h-2c-.4 0-.6.3-1.2-.4-.4-.4-2.1-.1-2.7-.8.6-.4 1.9-.3 2.3-.1 1.1-.5 1.9-.1 2.9.1.7-.2 1.8 0 2.2 0 2.6-.1 1.6-.3 3.3-.4.6 0 1.1-.1 1.8-.1 1.7-2.6 3.2-5.5 4.3-8.4-.8.1-1.6.1-2.4.1-.3 0-2.1 0-2.4-.1-.4-.2-.9-.1-.9-.3-.2-.8.4-.7.9-.7zm-28.8-6.7c-.8-.1-1.5-.7-1.5-.7-.8-.7-2.5-.8-3.9-.9-.7 0-2.8-.8-3.3-1.2-.2-.2-1.5-.1-1.5-.1-.3-.5-1.5-1.6-2.8-1.8-1-.1-1.9-.9-2.5-1.8-.2-.5.3-.8.6-.7.4.1.9.3 1.3.5 1.1.5 2.2 1.1 3.5 1.3.5.1.9.3 1.3.5.9.3 1.8.6 2.6 1 .5.2 1.1.4 1.6.7.6.4 2.4 1.1 3.2 1.1.3 0 1.4.7 2.5 1.1 0 .5-.3 1.1-1.1 1zm19.2 3.1c-1.5.1-2.1-.1-3.5-.4-.1 0-4-.7-5.5-.9-.7-.1-1.1 0-1.2 0-1.5 0-2.9-.5-4.3-.9-.1 0-.4-.1-.5-.2-.1-.1-.1-.3 0-.4 0-.1.4-.2.5-.2.3 0 2.1.4 2.4.4.9.2 1.6 0 2 .3.1.1.2.2.4.2h.3c1.4-.2 7.9 1.1 8.2 1.1 1.4.2 2.9-.1 3.5.9.3.1-2.1 0-2.3.1zm-33.1-.6c.4-.4.8-.2 1.2-.1 1.9.6 3.8 1.2 5.8 1.7.6.2 1.3.1 1.9.3.8.2 1.6.5 2.3.7.3.1.5.2.8.4 0 0 .2.1 0 .2-1.7.3-2.4.1-3.1-.2-.4-.1-.6-.2-1-.3-.4 0-.7-.1-1-.2-.3-.1-.7-.4-1-.4-1.4.1-2.6-.7-4-.8-.7-.1-1.2-.4-1.7-.9-.1.1-.3 0-.2-.4zm-8.2-2.9c.8 0 1.4.2 2 .6.6.4 1.2.6 2 .6 1.2 0 2.9 1.1 3 1.6 0 .3-.6.5-.6.4-1.1-.5-2.3-.9-3.5-1.1-1.4-.2-5.1-2.5-2.9-2.1zm-7.7-2.7c-.2-.2.1-.7.5-.5 1.5.7 2 1 2 1 .1.1 2.8 1.2 2.7 1.5-.6 1-4.7-1.4-5.2-2zm16.7 16.7c-.1.1-.6.2-1 .2-1.2 0-2.9-.4-3.3-1.3-.2-.1-2.7-.6-3.3-1-.5-.2-1.1-.9-1.5-1-1.8-.6-1.5-1.4-1.5-1.4.2 0 .7.1 1.2.2s2 .8 2.1.9c.6.2.9.5 1.6.6.2 0 .8.3 1.1.4.5.2 1 .2 1.6.4.4.1.9.2 1.4.3.5.1 1 .1 1.4.4.1.1.6.5.6.7-.1.3-.2.3-.4.6zm10.6 3.2c-1.7-1-3.8-.4-5.4-1.5-.1-.1-.4-.2-.3-.6.2-.2.5-.4.7-.3 1.4.6 2.9.9 4.5.9.6 0 4.2.2 4.1 1.3 0 .3-1.1.6-3.6.2zm13.5-5.5c-.4.1-.9.1-1.3.2s-1.3-.1-1.7-.2c-1.4-.2-1.9-.2-3.4-.1-.3 0-1.3.2-1.6.1-.3-.1-.5-.4-.8-.3-1.5 0-2.2-.6-3.8-.9-.7.1-2.5-.5-2.9-.4-1.6.2-2.5.4-4-.4-.3-.2-.7-.2-1-.2-1.1 0-1.9-.5-2.6-1.1 0 0-1.3-.2-1.9-.4-.9-.4-2-.4-3-.5-1.5-.4-2.9-1.7-2.5-2.7 0 0 2.3.7 2.4.7 3.6 1 3.6 1.2 7.3 2 1.1.2 5.2 1.3 6.4 1.3 1.4 0 3.1.6 4.4.8 3.1.5 5.6.2 8.7 1.1.8.1.7.2 1.2.2.9.1 1.2.2 1.9.2-.4.6-1.3.7-1.8.6z"/></svg>