<svg xmlns="http://www.w3.org/2000/svg" viewBox="0 0 800 295.499"><path d="m679.232 81.036-16.187 22.313 6.78 3.781 20.782-20.906-11.375-5.188zm-383.594 32.469-2.187 4.781-45.125 102.438h12.5L273.2 191.66h43.75l12.094 29.063H341.7l-43.969-102.438-2.094-4.781zm-234.812 2.688c-33.3 0-54.125 24.871-54.125 53.718 0 28.85 20.985 52.875 54.125 52.875 10.76 0 21.504-3.614 30.25-9.937V199.13c-8.105 8.104-19.144 13.344-30.625 13.344-24.889 0-41.313-20.549-41.313-42.969s16.127-42.969 41.063-42.969c11.751 0 22.77 4.972 30.875 13.344v-13.719c-9.01-6.727-18.95-9.968-30.25-9.968zm75.219 2.093v102.438h11.437v-50.281h34.75v-10.594h-34.75v-41.563h-11.437zm61.78 0v102.438h11.407V118.286h-11.406zm181.345 0v102.438h11.406v-44.969h15.406l23.25 44.969h13.25l-24.906-46.531c10.604-3.12 20.97-11.28 20.969-27.594 0-20.626-15.455-28.313-32.313-28.313H379.17zm110.562 0v102.438h11.406V118.286h-11.406zm54.5 0v10.594h24.75v91.844h11.406V128.88h25v-10.594h-61.156zm102.438 0v102.438h55.437V210.13h-44.031v-40.219h37.781v-10.593h-37.781V128.88h42.344v-10.594h-53.75zM390.576 128.88h14.156c11.804 0 22.376 4.706 22.375 17.719 0 13.02-9.06 19.094-22.25 19.094h-14.281V128.88zm-95.219 11.125 17.125 41.031h-34.656l17.531-41.031z" style="fill:currentColor;fill-opacity:1;fill-rule:evenodd;stroke:none" transform="translate(97.143 -21.756)"/><path d="M-97.143 169.504c0-81.602 65.737-147.748 149.008-147.748 36.464-.001 69.84 13.207 95.606 35.096V79.6c-23.78-25.232-57.512-40.978-94.92-40.978-72.977 0-130.01 58.391-130.01 130.424 0 72.033 57.06 130.428 130.01 130.428 37.408 0 71.14-15.748 94.92-40.98v23.66c-25.766 21.893-59.143 35.1-95.606 35.1-83.203 0-149.008-66.149-149.008-147.75zM364.45 251.693a2.362 2.362 0 0 0-2.343 2.343c0 1.246 1.064 2.313 2.344 2.313 1.246 0 2.312-1.067 2.312-2.313 0-1.28-1.066-2.343-2.312-2.343zm6.75 0c-.16 0-.316-.001-.468.03a2.385 2.385 0 0 0-1.875 2.313c0 1.246 1.063 2.313 2.344 2.313 1.245 0 2.312-1.067 2.312-2.313 0-1.28-1.066-2.344-2.312-2.344zm-59.624 5.843c-.837 0-1.621.076-2.375.25-.252.058-.51.143-.75.219-.24.076-.461.156-.688.25a8.03 8.03 0 0 0-.656.313c-2.124 1.118-3.5 3.102-3.5 5.718 0 1.892.449 3.186 1.406 4.188a7.34 7.34 0 0 0 1.5 1.156c.394.225.838.424 1.313.625.95.402 2.063.776 3.344 1.156.506.152.98.293 1.406.438 2.984 1.016 4.062 1.927 4.062 3.562 0 1.765-.924 2.872-2.812 3.313-.315.073-.662.12-1.031.156-.37.037-.764.063-1.188.063-2.282 0-4.653-1.11-6.281-2.875l-2.594 2.53a11.146 11.146 0 0 0 7.313 3.845c.425.046.87.062 1.312.062 6.192 0 8.938-2.984 8.938-7.344 0-1.351-.268-2.425-.813-3.312-.109-.178-.246-.337-.375-.5-1.291-1.63-3.577-2.56-6.562-3.469-1.047-.311-1.902-.595-2.594-.875-.346-.14-.637-.298-.906-.437-1.347-.697-1.782-1.41-1.782-2.47 0-.202.024-.4.063-.593.039-.193.077-.383.156-.562.474-1.076 1.686-1.844 3.813-1.844 2.089 0 3.679.561 5.062 1.75.198.17.404.368.594.562l2.562-2.593c-2.145-2.076-4.65-3.282-7.937-3.282zm100.656 0c-4.463 0-7.969 2.564-7.969 6.75 0 4.325 2.442 5.603 7.563 7.125 4.048 1.212 5.47 2.132 5.469 4 0 1.765-.925 2.872-2.813 3.313-.314.073-.662.12-1.031.156-.369.037-.764.063-1.188.063-2.285 0-4.657-1.11-6.28-2.875l-2.595 2.53a11.147 11.147 0 0 0 7.313 3.845c.425.046.871.062 1.312.062 6.193 0 8.938-2.984 8.938-7.344 0-1.351-.267-2.425-.813-3.312-.109-.178-.245-.337-.375-.5-1.291-1.63-3.579-2.56-6.562-3.469-1.047-.311-1.901-.595-2.594-.875-.346-.14-.637-.298-.906-.437-1.347-.697-1.781-1.41-1.781-2.47 0-.202.024-.4.062-.593.039-.193.078-.383.156-.562.474-1.076 1.684-1.844 3.813-1.844 2.089 0 3.678.561 5.062 1.75.198.17.404.368.594.562l2.563-2.593c-2.145-2.076-4.652-3.282-7.938-3.282zm-240.281.375v14.032c0 6.678 3.108 10.562 9.094 10.562 6.02 0 9.312-3.687 9.312-10.469v-14.125h-3.656V272.1c0 4.429-1.786 6.781-5.594 6.781-3.633 0-5.531-2.464-5.531-7.031V257.91h-3.625zm25.094 0v24.219h3.53v-12.562c0-1.35-.03-4.695-.03-5.594.38.623 1.224 2.069 1.812 2.969l9.656 15.187h3.438v-24.219h-3.531v12.5c0 1.35.062 4.788.062 5.688a120.76 120.76 0 0 0-2.031-3.406l-9.188-14.782h-3.718zm25.468 0v24.219h3.657v-24.219h-3.657zm9.188 0 8.406 24.219h3.844l8.281-24.219h-3.875l-4.969 15.407c-.225.709-.526 1.607-.78 2.437-.256.83-.46 1.567-.563 2-.208-.865-.894-2.988-1.344-4.406l-5.063-15.438h-3.937zm25.906 0v24.219h16.125v-3.531h-12.5v-7.656h6.969v-3.532h-6.969v-5.968h11.969v-3.532h-15.594zm21.875 0v24.219h3.563v-9.594h5.468l4.813 9.594h4.187l-4.968-9.906c3.288-.831 5.343-3.219 5.343-7.094 0-4.983-3.557-7.219-7.78-7.219h-10.626zm47.031 0v24.219h3.625v-24.219h-3.625zm9.157 0v3.563h7.062v20.656h3.625v-20.656h7.063v-3.563h-17.75zm30.312 0-8.719 24.219h3.782l2-5.75h9.687l2.031 5.75h3.875l-8.812-24.219h-3.844zm16.5 0v3.563h7.063v20.656h3.625v-20.656h7.062v-3.563h-17.75zm44.5 0v24.219h3.438v-12.812c0-1.454-.06-3.558-.094-4.25a215.4 215.4 0 0 0 1.562 3.812l5.813 13.625 5.875-13.625c.59-1.384 1.284-3.12 1.562-3.812-.034.692-.062 2.796-.062 4.25v12.812h3.562v-24.219h-3.875l-5.312 12.907c-.294.709-.616 1.483-.906 2.218a49.86 49.86 0 0 0-.72 1.938c-.309-1.004-1.099-2.772-1.687-4.156l-5.406-12.907h-3.75zm28.531 0v24.219h16.125v-3.531H459.17v-7.656h6.937v-3.532h-6.937v-5.968h11.968v-3.532h-15.625zm21.875 0v24.219h6.625c6.334 0 11.782-3.578 11.782-12.125 0-8.546-5.277-12.094-11.782-12.094h-6.625zm24.25 0v24.219h3.657v-24.219h-3.657zm10.313 0v3.344h9c1.419 0 3.906-.028 4.875-.062-.623.622-1.957 2.19-2.719 3.125l-11.844 14.28v3.532h18.407v-3.344h-9.532c-1.418 0-3.906.028-4.875.063.623-.623 1.957-2.191 2.72-3.125l11.687-14.281v-3.532h-17.72zm24.125 0v24.219h3.625v-24.219h-3.625zm10.687 0v24.219h3.532v-12.562c0-1.35-.031-4.695-.032-5.594.383.623 1.226 2.069 1.813 2.969l9.656 15.187h3.438v-24.219h-3.532v12.5c0 1.35.063 4.788.063 5.688-.346-.623-1.41-2.403-2.031-3.406l-9.188-14.782h-3.719zm35.22 0v24.219h9.624c.331 0 .656-.011.969-.031 4.693-.296 7.344-2.8 7.344-7.406 0-3.357-2.19-5.138-4.094-5.657 1.764-.865 3.094-2.387 3.094-4.843 0-4.084-2.748-6.282-6.97-6.282h-9.968zm23.968 0v24.219h16.125v-3.531h-12.5v-7.656h6.969v-3.532h-6.97v-5.968h11.97v-3.532H605.95zm21.844 0v24.219h3.562v-9.594h5.469l4.812 9.594h4.188l-4.938-9.906c3.29-.831 5.313-3.219 5.313-7.094 0-4.983-3.558-7.219-7.781-7.219h-10.625zm24.625 0v24.219h15.687v-3.562h-12.062V257.91h-3.625zm21.343 0v24.219h3.625v-24.219h-3.625zm10.688 0v24.219h3.531v-12.562c0-1.35-.03-4.695-.031-5.594.38.623 1.194 2.069 1.781 2.969l9.656 15.187h3.47v-24.219h-3.532v12.5c0 1.35.031 4.788.031 5.688a112.487 112.487 0 0 0-2-3.406l-9.219-14.782h-3.687zm-99.031 3.313h6.5c2.421 0 3.375 1.388 3.375 3.187 0 1.592-.988 3.094-3.375 3.094h-6.5v-6.281zm-302.375.125h7.062c2.457 0 4.094 1.38 4.094 3.906 0 2.63-1.67 3.875-4.094 3.875h-7.062v-7.781zm348.312 0h7.063c2.456 0 4.125 1.38 4.125 3.906 0 2.63-1.702 3.875-4.125 3.875h-7.063v-7.781zm-150.312.093h2.968c5.744 0 8.095 3.477 8.094 8.563 0 5.087-2.35 8.594-8.094 8.594h-2.968v-17.157zm-113.188.563c.277 1.038 1.226 3.832 1.813 5.563l1.937 5.562h-7.469l1.938-5.531c.623-1.8 1.505-4.556 1.781-5.594zm217.563 8.781h6.562c2.735 0 4.313 1.509 4.313 4 0 2.388-1.188 4.032-4.407 4.032h-6.468v-8.032z" style="fill:currentColor;fill-opacity:0.45;fill-rule:evenodd;stroke:none" transform="translate(97.143 -21.756)"/></svg>