<svg xmlns="http://www.w3.org/2000/svg" viewBox="0 0 500 458"><g id="Layer_2" data-name="Layer 2"><g id="Layer_1-2" data-name="Layer 1"><path id="Path_5" data-name="Path 5" d="M0,91.68,31.87,0H45.51L77.38,91.68H62.66L55.11,68.92H22.34L14.72,91.68ZM26.62,55.3H50.75l-12-37.08ZM.71,213.45V121.77h17l22.78,61.05,22.79-61.06H80.4v91.68H65.93V151.62L45.64,205.07H35.4L15.11,151.62v61.82Zm101.83-33V121.77h14.4v59.32q0,9.54,4.77,14.64t13.86,5.12q9.09,0,13.85-5.12t4.77-14.64V121.77h14.4v58.69q0,15.4-9,24.71t-24,9.3q-14.65,0-23.88-9t-9.15-25Zm80.84,8.5,11.77-7.48q4.88,19.36,18.5,19.37A13.78,13.78,0,0,0,223.73,197a13.25,13.25,0,0,0,3.94-9.88,10.46,10.46,0,0,0-2.15-6.48,18.3,18.3,0,0,0-5.6-4.83q-3.45-2-7.62-3.9T204,167.64a51.55,51.55,0,0,1-7.61-5.18,20.94,20.94,0,0,1-5.6-7.35,23.55,23.55,0,0,1-2.15-10.26,23.81,23.81,0,0,1,23.52-24.1h.48q16.71,0,25.29,15.47L226.26,144q-5.38-10.11-13.64-10.1a9.11,9.11,0,0,0-6.94,2.81,10,10,0,0,0-2.66,7.1q0,8.44,13.89,15c2.09.94,3.74,1.68,4.93,2.24s2.82,1.38,4.87,2.49a36.35,36.35,0,0,1,4.92,3.1,48.6,48.6,0,0,1,4.16,3.68,19.68,19.68,0,0,1,3.56,4.51,25.51,25.51,0,0,1,2.11,5.33,24,24,0,0,1,.86,6.52q0,12.35-8.1,20.11t-20.58,7.77q-11.64,0-19.71-7A32.87,32.87,0,0,1,183.38,189Zm76.8,24.48V121.77h54.34v13.61H274.58V158h32.26v13.62H274.58v28.26h41.28v13.62Zm71.94-33V121.77h14.4v59.32q0,9.54,4.77,14.64t13.86,5.12q9.08,0,13.85-5.12t4.77-14.64V121.77h14.4v58.69q0,15.4-9,24.71t-24,9.3q-14.67,0-23.88-9T332.12,180.46Zm88.2,33V121.77h17l22.79,61.05,22.78-61.06H500v91.68H485.54V151.62l-20.29,53.45H455l-20.29-53.45v61.82ZM.71,335.21V243.53H56.27v13.62H15.11v23.72H48.27v13.62H15.11v40.72Zm78.34-11.12Q67,311.63,67,289.37t12.1-34.52q12.17-12.34,30-12.34T139,254.85q12.16,12.15,12.16,34.52T139,324.09q-12,12.15-29.89,12.14t-30-12.14Zm10.37-59.46q-7.74,8.5-7.74,24.74t7.74,24.74a25.78,25.78,0,0,0,19.65,8.5,25.27,25.27,0,0,0,19.52-8.5q7.88-8.43,7.87-24.74t-7.87-24.74a25.27,25.27,0,0,0-19.52-8.5A25.84,25.84,0,0,0,89.42,264.63Zm80.71,70.58V243.53h32.06q12.81,0,20,6.75t7.17,18.57q0,9.47-4.61,15.73a22.93,22.93,0,0,1-13.18,8.5L238,335.21H221l-25.8-41.11H184.53v41.11Zm14.4-54.72h18.05c3.8,0,6.76-1,8.9-2.95s3.2-4.85,3.2-8.69-1.07-6.75-3.2-8.73-5.1-3-8.9-3H184.53ZM.71,457V365.3H16.14l37.63,66v-66h14.4V457H52.75L15.11,391.26V457Zm98.5-11.13q-12.09-12.47-12.09-34.71t12.1-34.52q12.16-12.35,30-12.34t29.89,12.34q12.15,12.13,12.16,34.52t-12.17,34.71Q147.15,458,129.23,458t-30-12.15Zm10.37-59.45q-7.74,8.49-7.74,24.74t7.74,24.74a25.78,25.78,0,0,0,19.65,8.5,25.27,25.27,0,0,0,19.52-8.5q7.88-8.43,7.87-24.74t-7.87-24.74a25.27,25.27,0,0,0-19.52-8.5,25.78,25.78,0,0,0-19.65,8.5ZM181,365.3h15.23L213,436.58,231.12,375h13.12l18.24,61.57,16.77-71.29h15.24L270.23,457H255.51l-17.79-58.12L219.86,457H205.2Z"></path></g></g></svg>