<svg viewBox="0 0 135 24" fill="none" xmlns="http://www.w3.org/2000/svg">
<path fill-rule="evenodd" clip-rule="evenodd" d="M6.93499 3.40046C6.88982 3.59895 6.85213 3.76455 6.82773 3.90453C6.54598 3.91234 6.37904 3.9423 6.26398 4.05736C6.1084 4.21294 6.1084 4.46333 6.1084 4.96412V7.08878C6.1084 7.21471 6.1084 7.3248 6.11088 7.42154L5.43182 7.98249C5.18753 8.18431 5.04607 8.48464 5.04607 8.80151V9.89096C5.04607 10.2078 5.18753 10.5082 5.43182 10.71L5.84282 11.0495V12.4004C5.84282 13.2503 4.91328 13.7283 4.51491 13.7283H0.531165C0.237811 13.7283 0 13.9662 0 14.2595V15.3219C0.880063 15.3219 1.5935 16.0353 1.5935 16.9154V17.659C1.5935 17.7083 1.5935 17.733 1.59186 17.7538C1.57136 18.0142 1.36448 18.2211 1.10401 18.2416C1.0832 18.2433 1.05854 18.2433 1.00921 18.2433H0V19.5712C0 19.8645 0.237813 20.1023 0.531167 20.1023H1.5935C2.86829 20.1023 5.84282 21.2497 5.84282 23.2893C5.84282 23.5397 5.84282 23.6649 5.92061 23.7427C5.99839 23.8205 6.12359 23.8205 6.37398 23.8205H9.82656C10.077 23.8205 10.2022 23.8205 10.2799 23.7427C10.3577 23.6649 10.3577 23.5397 10.3577 23.2893V21.4302C10.3577 20.5804 11.2873 20.1023 11.6856 20.1023H17.2629C17.6613 20.1023 18.5908 20.5804 18.5908 21.4302V23.2893C18.5908 23.5397 18.5908 23.6649 18.6686 23.7427C18.7464 23.8205 18.8716 23.8205 19.122 23.8205L19.3875 23.8205L22.5745 23.8205L22.596 23.8205H23.1057V23.2893V23.2823C23.1057 21.2596 25.8603 20.1094 27.0673 20.1024H23.1057V20.1023H28.4174C28.7107 20.1023 28.9485 19.8645 28.9485 19.5712V18.2433H27.9393C27.89 18.2433 27.8653 18.2433 27.8445 18.2417C27.584 18.2212 27.3772 18.0143 27.3567 17.7538C27.355 17.733 27.355 17.7083 27.355 17.659V16.9154C27.355 16.0353 28.0685 15.3219 28.9485 15.3219L28.9485 14.2595C28.9485 13.9662 28.7107 13.7283 28.4173 13.7283H24.4336C24.0352 13.7283 23.1057 13.2503 23.1057 12.4004V11.0495L23.5167 10.71C23.761 10.5082 23.9024 10.2078 23.9024 9.89096V8.80151C23.9024 8.48464 23.761 8.1843 23.5167 7.98249L22.8376 7.42154C22.8401 7.3248 22.8401 7.21471 22.8401 7.08878V4.96412C22.8401 4.46333 22.8401 4.21294 22.6845 4.05736C22.5712 3.94404 22.4076 3.91326 22.1335 3.90491C22.1114 3.76839 22.0772 3.60748 22.0364 3.41548L21.902 2.78262C21.5084 0.929605 21.3116 0.00309751 20.8846 7.72684e-06C20.4576 -0.00308206 20.2474 0.920481 19.827 2.76761L19.683 3.40046C19.6378 3.59895 19.6001 3.76455 19.5757 3.90453C19.294 3.91234 19.127 3.9423 19.0119 4.05736C18.8564 4.21294 18.8564 4.46333 18.8564 4.96412V7.08878C18.8564 7.21471 18.8564 7.3248 18.8588 7.42154L18.1798 7.98249C17.9355 8.18431 17.794 8.48464 17.794 8.80151V9.89096C17.794 10.2078 17.9355 10.5082 18.1798 10.71L18.5908 11.0495V12.4004C18.5908 13.2503 17.6613 13.7283 17.2629 13.7283H11.6856C11.2873 13.7283 10.3577 13.2503 10.3577 12.4004V11.0495L10.7687 10.71C11.013 10.5082 11.1545 10.2078 11.1545 9.89096V8.80151C11.1545 8.48464 11.013 8.1843 10.7687 7.98249L10.0897 7.42154C10.0921 7.3248 10.0921 7.21471 10.0921 7.08878V4.96412C10.0921 4.46333 10.0921 4.21294 9.93657 4.05736C9.82325 3.94404 9.65962 3.91327 9.38556 3.90491C9.3634 3.7684 9.32922 3.60748 9.28844 3.41548L9.15401 2.78262C8.7604 0.929605 8.5636 0.00309751 8.1366 7.72684e-06C7.70959 -0.00308206 7.4994 0.920481 7.07902 2.76761L6.93499 3.40046ZM4.7805 15.3219C3.90043 15.3219 3.187 16.0353 3.187 16.9154V17.659C3.187 17.7083 3.187 17.733 3.18864 17.7538C3.20914 18.0143 3.41602 18.2212 3.67649 18.2417C3.6973 18.2433 3.72196 18.2433 3.77128 18.2433H5.78971C5.83904 18.2433 5.8637 18.2433 5.8845 18.2417C6.14497 18.2212 6.35186 18.0143 6.37236 17.7538C6.37399 17.733 6.37399 17.7083 6.37399 17.659V16.9154C6.37399 16.0353 5.66056 15.3219 4.7805 15.3219ZM24.168 15.3219C23.288 15.3219 22.5745 16.0353 22.5745 16.9154V17.659C22.5745 17.7083 22.5745 17.733 22.5762 17.7538C22.5967 18.0143 22.8036 18.2212 23.064 18.2417C23.0848 18.2433 23.1095 18.2433 23.1588 18.2433H25.1772C25.2266 18.2433 25.2512 18.2433 25.272 18.2417C25.5325 18.2212 25.7394 18.0143 25.7599 17.7538C25.7615 17.733 25.7615 17.7083 25.7615 17.659V16.9154C25.7615 16.0353 25.0481 15.3219 24.168 15.3219ZM18.9968 17.4601C19.1414 17.8757 18.7653 18.2433 18.3253 18.2433H14.4743H10.6232C10.1832 18.2433 9.80626 17.8768 9.94182 17.4581C10.2927 16.3747 11.5103 15.5875 14.4743 15.5875C17.3378 15.5875 18.6193 16.3756 18.9968 17.4601Z" fill="currentColor"/>
<path d="M56.4805 19.0885C57.0626 19.0885 57.5374 18.6137 57.5374 18.0316C57.5374 17.4495 57.0626 16.9746 56.4805 16.9746H51.9617V14.9373H56.4805C57.0626 14.9373 57.5374 14.4625 57.5374 13.8804C57.5374 13.2983 57.0626 12.8234 56.4805 12.8234H51.9617V10.97H56.4805C57.0626 10.97 57.5374 10.4951 57.5374 9.91301C57.5374 9.33093 57.0626 8.85607 56.4805 8.85607H50.7209C50.1388 8.85607 49.664 9.33093 49.664 9.91301V18.0316C49.664 18.6137 50.1388 19.0885 50.7209 19.0885H56.4805Z" fill="currentColor"/>
<path d="M73.0912 9.89769C73.0912 9.28497 72.5704 8.76416 71.9424 8.76416C71.6207 8.76416 71.2837 8.8867 71.0999 9.13179L68.9094 12.0422L66.7649 9.13179C66.5811 8.87139 66.2441 8.76416 65.953 8.76416C65.2943 8.76416 64.7735 9.28497 64.7735 9.89769C64.7735 10.2347 64.9267 10.4951 65.1105 10.7249L67.5155 13.8651L64.8042 17.3882C64.6663 17.572 64.605 17.8018 64.605 18.0316C64.605 18.6596 65.1258 19.1804 65.7539 19.1804C66.1675 19.1804 66.4892 18.9507 66.7189 18.6443L68.9094 15.7185L71.1458 18.6443C71.3756 18.9507 71.6973 19.1804 72.1109 19.1804C72.7389 19.1804 73.2597 18.6596 73.2597 18.0316C73.2597 17.8018 73.1985 17.572 73.0606 17.3882L70.3033 13.8804L72.7542 10.7249C72.938 10.4951 73.0912 10.2347 73.0912 9.89769Z" fill="currentColor"/>
<path d="M85.1678 10.97C86.1022 10.97 86.5158 11.1385 86.5158 11.8584V12.1188C86.5158 12.8081 86.1022 13.0226 85.1678 13.0226H82.6795C82.1127 13.0226 81.6225 13.4974 81.6225 14.0795C81.6225 14.6616 82.0974 15.1365 82.6795 15.1365H85.3363C87.971 15.1365 88.8135 13.7119 88.8135 12.0729V11.6899C88.8135 9.54538 87.3583 8.85607 85.2444 8.85607H81.8132C81.1851 8.85607 80.6643 9.37688 80.6643 10.0049V18.0316C80.6643 18.6596 81.1851 19.1804 81.8132 19.1804C82.4412 19.1804 82.962 18.6596 82.962 18.0316V10.97H85.1678Z" fill="currentColor"/>
<path d="M104.49 17.4954L100.951 9.48411C100.722 8.96329 100.354 8.76416 99.9251 8.76416H99.8944C99.4502 8.76416 99.0673 8.94798 98.8222 9.48411L95.2837 17.4954C95.2071 17.6486 95.1458 17.8478 95.1458 18.0316C95.1458 18.6596 95.6513 19.1804 96.2794 19.1804C96.7542 19.1804 97.1372 18.9966 97.367 18.4452L99.8638 12.3026L101.059 15.1977H97.5521C96.97 15.1977 96.5718 15.6573 96.5718 16.2394C96.5718 16.8214 96.97 17.1584 97.5521 17.1584H101.87L102.407 18.4452C102.621 18.9507 103.019 19.1804 103.494 19.1804C104.122 19.1804 104.628 18.6596 104.628 18.0316C104.628 17.8478 104.566 17.6486 104.49 17.4954Z" fill="currentColor"/>
<path d="M118.68 10.97C119.262 10.97 119.737 10.4951 119.737 9.91301C119.737 9.33093 119.262 8.85607 118.68 8.85607H112.048C111.466 8.85607 110.991 9.33093 110.991 9.91301C110.991 10.4951 111.466 10.97 112.048 10.97H114.207V18.0316C114.207 18.6596 114.728 19.1804 115.356 19.1804C115.984 19.1804 116.505 18.6596 116.505 18.0316V10.97H118.68Z" fill="currentColor"/>
<path d="M135 9.91301C135 9.28497 134.479 8.76416 133.851 8.76416C133.223 8.76416 132.702 9.28497 132.702 9.91301V12.9153H128.949V9.91301C128.949 9.28497 128.429 8.76416 127.801 8.76416C127.172 8.76416 126.652 9.28497 126.652 9.91301V18.0316C126.652 18.6596 127.172 19.1804 127.801 19.1804C128.429 19.1804 128.949 18.6596 128.949 18.0316V15.0292H132.702V18.0316C132.702 18.6596 133.223 19.1804 133.851 19.1804C134.479 19.1804 135 18.6596 135 18.0316V9.91301Z" fill="currentColor"/>
</svg>
