<svg xmlns="http://www.w3.org/2000/svg" viewBox="0 0 121.49 60.96"><path d="M44.68 2.84c0 .29-.04.53-.11.75s-.17.4-.29.55c-.12.16-.26.28-.43.38-.16.09-.33.17-.51.21v.02c.21.04.42.11.6.23.38.23.67.58.82 1 .08.23.12.48.12.74 0 .33-.06.62-.17.89s-.28.5-.52.7-.53.35-.89.46-.78.17-1.27.17h-1.68V.75h1.58c.48 0 .9.05 1.24.15.35.1.63.24.85.42s.38.4.48.66c.1.26.15.55.15.86Zm-1.05.04c0-.38-.14-.69-.4-.94s-.69-.37-1.27-.37h-.55V4.4h.54c.56 0 .98-.14 1.26-.41s.43-.64.43-1.12Zm.15 3.78c0-.44-.14-.8-.43-1.05s-.7-.39-1.24-.39h-.7V8.1h.64c.61 0 1.05-.12 1.33-.36s.41-.6.41-1.08Zm6.38 2.3h-.88v-.64h-.02c-.12.19-.27.35-.46.47a1.808 1.808 0 0 1-1.03.31c-.23 0-.46-.03-.68-.11-.2-.08-.38-.2-.52-.36s-.25-.38-.33-.65c-.08-.32-.12-.65-.11-.98V3.25h.96v3.68c0 .48.08.82.23 1.02.15.2.39.3.72.3.28 0 .51-.07.7-.21.19-.14.34-.27.45-.41V3.24h.96v5.71Zm4.59 0V5.28c0-.48-.08-.83-.24-1.04-.16-.21-.41-.32-.74-.32-.29 0-.52.07-.71.21s-.34.28-.45.42v4.4h-.96V3.24h.88v.64h.02c.12-.19.28-.35.46-.47.13-.08.28-.16.45-.22s.37-.09.6-.09c.25 0 .48.04.69.11.21.08.38.2.52.36s.25.38.33.65c.08.27.12.59.12.98v3.75h-.97Zm2.15-2.78c0-.58.08-1.06.23-1.45s.35-.7.58-.94.51-.41.81-.51a2.831 2.831 0 0 1 1.38-.11c.14.03.25.06.33.1V.54l.96-.11v8.52h-.88v-.61h-.02a1.374 1.374 0 0 1-.81.66c-.17.06-.36.09-.58.09-.27 0-.53-.05-.77-.16-.25-.11-.47-.29-.64-.51-.18-.23-.33-.54-.43-.9s-.16-.82-.16-1.34Zm2.26 2.06c.25 0 .5-.07.71-.21.14-.09.26-.21.36-.35V4.16c-.1-.06-.2-.11-.3-.14-.14-.04-.29-.06-.43-.06-.22 0-.43.04-.62.11-.19.08-.36.2-.51.37s-.26.4-.34.68-.12.62-.12 1.02.03.73.1.99c.07.27.16.48.28.64.12.16.25.28.4.35s.31.11.48.11Zm7.17-3.07c0 .25 0 .46-.02.64s-.03.33-.05.47h-2.92c.03.67.18 1.17.43 1.49.26.32.63.48 1.11.48a1.694 1.694 0 0 0 1.2-.5l.36.68-.18.17c-.08.08-.19.15-.32.23-.14.08-.3.14-.5.2s-.43.08-.7.08c-.36 0-.68-.06-.97-.18-.29-.12-.54-.3-.74-.55s-.36-.57-.47-.95c-.11-.38-.17-.85-.17-1.39 0-.51.06-.95.17-1.32.11-.37.27-.67.47-.91s.43-.42.69-.53.54-.17.85-.17c.55 0 .98.17 1.29.52s.46.86.46 1.55Zm-1.81-1.28c-.34 0-.61.14-.82.43s-.33.7-.36 1.24h2.08s.01-.1.02-.17v-.24c0-.4-.08-.7-.24-.92-.16-.22-.39-.33-.69-.33Zm5.56.51c-.11-.11-.22-.21-.35-.29-.17-.12-.38-.18-.65-.18-.25 0-.45.06-.58.18s-.2.26-.2.43c0 .21.06.39.18.53s.31.29.57.45l.36.21c.39.23.69.48.92.74.22.27.33.61.33 1.03 0 .45-.16.83-.47 1.14-.31.31-.76.46-1.35.46-.23 0-.43-.02-.61-.07s-.33-.1-.46-.17c-.12-.05-.23-.12-.33-.21-.08-.06-.15-.13-.21-.21l.46-.76s.11.1.17.17c.16.15.36.26.57.33.12.04.26.06.42.06.29 0 .5-.06.65-.19s.23-.28.23-.47c0-.14-.02-.25-.05-.35-.04-.1-.09-.19-.16-.27s-.16-.15-.26-.23-.22-.15-.36-.24l-.36-.23c-.32-.19-.6-.44-.84-.73-.2-.25-.3-.58-.3-.98a1.311 1.311 0 0 1 .47-1.05c.15-.13.33-.23.53-.31.2-.08.42-.11.65-.11s.41.02.57.07c.26.07.5.19.7.37.07.07.14.12.18.17l-.42.69Zm4.7 4.56V5.28c0-.47-.07-.81-.2-1.01s-.35-.31-.65-.31c-.26 0-.53.07-.75.21-.1.06-.18.12-.25.2s-.13.14-.18.19v4.4h-.96V3.24h.88v.64h.03c.04-.06.1-.14.18-.23a1.613 1.613 0 0 1 1.25-.55c.65 0 1.11.25 1.38.76a1.836 1.836 0 0 1 1.51-.76c1.16 0 1.74.67 1.74 2.02v3.83h-.96V5.27c0-.47-.08-.81-.25-1.01s-.41-.31-.74-.31c-.27 0-.49.07-.67.2-.18.13-.32.26-.42.38.02.09.03.18.04.28 0 .1.01.2.01.32v3.83h-.96Zm6.37 0h-.96V3.24h.96v5.71Zm-.48-7.1c-.2 0-.36-.06-.48-.19s-.18-.29-.18-.5.06-.36.18-.49.28-.19.48-.19.35.06.46.19.18.29.18.49-.06.37-.18.5-.27.19-.46.19Zm5.07 7.1V5.28c0-.48-.08-.83-.24-1.04-.16-.21-.41-.32-.74-.32-.29 0-.52.07-.71.21s-.34.28-.45.42v4.4h-.96V3.24h.88v.64h.03c.12-.19.28-.35.46-.47.13-.08.28-.16.45-.22s.37-.09.6-.09c.25 0 .48.04.69.11.21.08.38.2.52.36s.25.38.33.65c.08.27.12.59.12.98v3.75h-.96Zm3.37 0h-.96V3.24h.96v5.71Zm-.48-7.1c-.2 0-.36-.06-.48-.19s-.18-.29-.18-.5.06-.36.18-.49.28-.19.48-.19.35.06.46.19.18.29.18.49-.06.37-.18.5-.27.19-.46.19Zm4.42 2.54c-.11-.11-.22-.21-.35-.29-.17-.12-.38-.18-.65-.18-.25 0-.45.06-.58.18s-.2.26-.2.43c0 .21.06.39.18.53s.31.29.57.45l.36.21c.39.23.69.48.92.74.22.27.33.61.33 1.03 0 .45-.16.83-.47 1.14-.31.31-.76.46-1.35.46-.23 0-.43-.02-.61-.07s-.33-.1-.46-.17c-.12-.05-.23-.12-.33-.21-.08-.06-.15-.13-.21-.21l.46-.76s.11.1.17.17c.16.15.36.26.57.33.12.04.26.06.42.06.29 0 .5-.06.65-.19s.23-.28.23-.47c0-.14-.02-.25-.05-.35-.04-.1-.09-.19-.16-.27s-.16-.15-.26-.23-.22-.15-.36-.24l-.36-.23c-.32-.19-.6-.44-.84-.73-.2-.25-.3-.58-.3-.98a1.311 1.311 0 0 1 .47-1.05c.15-.13.33-.23.53-.31.2-.08.42-.11.65-.11s.41.02.57.07c.26.07.5.19.7.37.07.07.14.12.18.17l-.42.69Zm4.14-.37h-1.25v3.16c0 .41.05.68.15.83s.28.22.52.22c.14 0 .26-.02.37-.06s.18-.08.23-.11l.13.77s-.13.08-.29.15c-.15.07-.35.1-.61.1-.49 0-.86-.14-1.11-.41-.25-.27-.37-.73-.37-1.36v-3.3h-.69v-.64l.69-.14.11-1.59h.86v1.59h1.37l-.12.78Zm4.68 1.14c0 .25 0 .46-.02.64s-.03.33-.05.47h-2.92c.03.67.18 1.17.43 1.49.26.32.63.48 1.11.48a1.694 1.694 0 0 0 1.2-.5l.36.68-.18.17c-.08.08-.19.15-.32.23-.14.08-.3.14-.5.2s-.43.08-.7.08c-.36 0-.68-.06-.97-.18-.29-.12-.54-.3-.74-.55s-.36-.57-.47-.95c-.11-.38-.17-.85-.17-1.39 0-.51.06-.95.17-1.32.11-.37.27-.67.47-.91s.43-.42.69-.53.54-.17.85-.17c.55 0 .98.17 1.29.52s.46.86.46 1.55Zm-1.81-1.28c-.34 0-.61.14-.82.43s-.33.7-.36 1.24h2.08s.01-.1.02-.17v-.24c0-.4-.08-.7-.24-.92-.16-.22-.39-.33-.69-.33Zm5.6.2s-.08-.03-.15-.06-.19-.04-.32-.04c-.3 0-.54.08-.71.24-.17.16-.29.34-.36.53v4.19h-.96V3.24h.88v.77h.02c.04-.11.09-.22.15-.33s.14-.2.24-.29.21-.15.34-.2c.15-.05.31-.08.47-.07.13 0 .24.01.33.04s.15.04.2.06l-.12.86Zm1.92 4.87h-.96V3.24h.96v5.71Zm-.48-7.1c-.2 0-.36-.06-.48-.19s-.18-.29-.18-.5.06-.36.18-.49.28-.19.48-.19.35.06.46.19.18.29.18.49-.06.37-.18.5-.27.19-.46.19Zm5.95 7.1h-.88v-.64h-.02c-.12.19-.27.35-.46.47a1.808 1.808 0 0 1-1.03.31c-.23 0-.46-.03-.68-.11-.2-.08-.38-.2-.52-.36s-.25-.38-.33-.65c-.08-.32-.12-.65-.11-.98V3.25h.96v3.68c0 .48.08.82.23 1.02.15.2.4.3.72.3.28 0 .51-.07.7-.21s.34-.27.45-.41V3.24h.96v5.71Zm4.48 0V5.28c0-.47-.07-.81-.2-1.01s-.35-.31-.65-.31c-.26 0-.53.07-.75.21-.1.06-.18.12-.25.2s-.13.14-.18.19v4.4h-.96V3.24h.88v.64h.02c.04-.06.1-.14.18-.23a1.613 1.613 0 0 1 1.25-.55c.65 0 1.11.25 1.38.76a1.836 1.836 0 0 1 1.51-.76c1.16 0 1.74.67 1.74 2.02v3.83h-.96V5.27c0-.47-.08-.81-.25-1.01s-.41-.31-.74-.31c-.27 0-.49.07-.67.2-.18.13-.32.26-.42.38.02.09.03.18.04.28 0 .1.01.2.01.32v3.83h-.96ZM39.9 18.18c0-.58.08-1.06.23-1.45s.35-.7.58-.94c.24-.24.51-.41.81-.51a2.831 2.831 0 0 1 1.38-.11c.14.03.25.06.33.1v-2.74l.96-.11v8.52h-.88v-.61h-.03c-.1.18-.23.33-.39.45a1.723 1.723 0 0 1-1 .3c-.27 0-.53-.05-.77-.16-.25-.11-.47-.29-.64-.51-.18-.23-.33-.54-.43-.9s-.16-.82-.16-1.34Zm2.26 2.06c.25 0 .5-.07.71-.21.14-.09.26-.21.36-.35v-3.52c-.1-.06-.2-.11-.3-.14-.14-.04-.29-.06-.43-.06-.22 0-.43.04-.62.11-.19.08-.36.2-.51.37s-.25.4-.34.68-.12.62-.12 1.02.03.73.1.99c.07.27.16.48.28.64.12.16.25.28.4.35s.31.11.48.11Zm7.18-3.07c0 .24 0 .46-.02.64s-.03.33-.05.47h-2.92c.03.67.18 1.17.43 1.49.26.32.63.48 1.11.48a1.694 1.694 0 0 0 1.2-.5l.36.68-.18.17c-.08.08-.19.15-.32.23-.14.08-.3.14-.5.2s-.43.08-.7.08c-.36 0-.68-.06-.97-.18-.29-.12-.54-.3-.74-.55s-.36-.57-.47-.95c-.11-.38-.17-.85-.17-1.39 0-.51.06-.95.17-1.31s.27-.67.47-.91.43-.42.69-.53c.26-.12.54-.17.85-.17.55 0 .98.17 1.29.52s.46.86.46 1.55Zm-1.81-1.28c-.34 0-.61.14-.82.43s-.33.7-.36 1.24h2.08s.01-.1.02-.17v-.24c0-.4-.08-.7-.24-.92-.16-.22-.39-.33-.69-.33Zm5.61.2s-.08-.03-.15-.06-.19-.04-.32-.04c-.3 0-.54.08-.71.24-.17.16-.29.34-.36.53v4.19h-.96v-5.71h.88v.77h.02c.04-.11.09-.22.15-.33s.14-.2.24-.29.21-.15.34-.2c.15-.05.31-.08.47-.07.14 0 .24.01.33.04s.15.04.2.06l-.12.86Zm4.87 3.02c0 .36-.04.66-.13.91s-.21.45-.36.61-.34.27-.57.33c-.24.07-.49.1-.74.1-.26 0-.51-.05-.74-.18l.17-.86s.11.06.2.1.19.05.33.05c.27 0 .47-.08.61-.25s.2-.47.2-.92v-6.26h1.04v6.37Zm5.63 1.85h-.88v-.64h-.02c-.12.19-.27.35-.46.47-.12.08-.27.16-.45.22s-.37.1-.58.1c-.23 0-.46-.03-.68-.11-.2-.08-.38-.2-.52-.36s-.25-.38-.33-.65c-.08-.32-.12-.65-.11-.98v-3.75h.96v3.68c0 .48.08.81.23 1.02s.39.3.72.3c.28 0 .51-.07.7-.21s.34-.28.45-.41v-4.38h.96v5.71Zm3.94-4.56c-.11-.11-.22-.21-.35-.29-.17-.12-.39-.18-.65-.18-.25 0-.45.06-.58.18s-.2.26-.2.43c0 .21.06.39.18.53s.31.29.57.45l.36.21c.39.23.69.48.92.74.22.27.33.61.33 1.03 0 .45-.16.83-.47 1.14-.31.31-.76.46-1.35.46-.23 0-.43-.02-.61-.07s-.33-.1-.46-.17c-.12-.05-.23-.12-.33-.21-.08-.06-.15-.13-.21-.21l.46-.76s.11.1.17.17c.16.15.36.26.57.33.12.04.26.06.42.06.29 0 .5-.06.65-.19s.23-.28.23-.47c0-.13-.02-.25-.05-.35-.04-.1-.09-.19-.16-.27s-.16-.15-.26-.23-.22-.15-.36-.24l-.36-.23c-.32-.2-.6-.44-.84-.73-.2-.25-.3-.58-.3-.98a1.311 1.311 0 0 1 .47-1.05c.15-.13.33-.23.53-.31.2-.08.42-.11.65-.11s.41.02.57.06c.26.07.5.19.7.37.08.07.14.12.18.17l-.42.69Zm4.14-.37h-1.25v3.17c0 .4.05.68.16.83.1.15.28.22.52.22a1.025 1.025 0 0 0 .59-.17l.13.77s-.14.08-.29.15c-.15.07-.35.1-.61.1-.49 0-.86-.14-1.11-.41s-.37-.73-.37-1.36v-3.3h-.69v-.64l.69-.14.11-1.6h.86v1.6h1.37l-.12.78Zm2.06 4.93h-.96v-5.71h.96v5.71Zm-.47-7.1c-.2 0-.36-.06-.48-.19s-.18-.29-.18-.5.06-.36.18-.49.28-.19.48-.19.35.06.46.19.18.29.18.49-.06.37-.18.5-.27.19-.46.19Zm5.14 2-2.31 4.25v.02h2.46l-.08.82h-3.63v-.62l2.38-4.28v-.02h-2.25v-.78h3.43v.62ZM14.1 8.3c.03-.22.04-.45.04-.69 0-.13 0-.28-.01-.45 1.99-.03 3.74-1.46 3.74-3.11 0-.84-.55-1.47-.86-1.85l.21-.05c.29.25 1.12 1.16 1.12 2.3 0 1.98-1.98 3.82-4.24 3.86M12.09 1.4c-.03-.21-.12-.42-.25-.59 0-.2.09-.4.42-.24-.18.18-.04.5-.04.5s.36-.17.28-.41c.53.13.15.84-.41.74m-.46 1.01c-.07-.3-.22-.59-.42-.83-.18-.21-.47-.45-.86-.45-.18 0-.48.08-.67.17-.07-.13-.21-.44-.21-.58s.24-.29.71-.29c1.03 0 1.65.47 1.65 1.25 0 .27-.11.52-.21.75m2.66 13.28c.08 0 .17.01.25.04.3.81 1.44 2.33 1.49 2.4s.02 0 .02 0c.28-.04 1-.15 1.6-.15h.01c.06 0 .14 0 .19.05.04.04.06.11.06.2 0 .15-.06.4-.14.51-.21-.23-.55-.33-1.1-.33-.16 0-.36.05-.46.08h-.04l-.05.02.31.31c.49.49.91.9.91 1.18 0 .17-.16.39-.31.48-.03-.51-.55-1.19-1.05-1.58l-.04-.03v.18c-.01.12-.03.31-.03.5 0 .97-.1 1.12-.44 1.12-.06 0-.12-.01-.18-.03.19-.24.26-.54.26-1.09v-.45c0-.22.02-.39.04-.52v-.08h-.04c-.22-.03-.45-.06-.67-.06-.48 0-.81.04-1.04.27-.16-.13-.32-.34-.32-.48 0-.2.13-.22.29-.22.08 0 .16.01.27.03.21.03.52.08 1.16.08h.04v-.04c-.17-.47-.62-1.14-1.34-2.01.06-.23.13-.38.35-.38m-6.18 2.4v.04h.03c.64 0 .95-.05 1.16-.08.11-.01.19-.03.27-.03.17 0 .29.02.29.22 0 .14-.16.35-.31.48-.24-.22-.56-.27-1.04-.27-.23 0-.52.04-.68.06h-.05v.08c.03.13.05.3.05.52v.45c0 .54.08.85.27 1.09-.06.02-.12.03-.18.03-.34 0-.44-.15-.44-1.12 0-.2-.01-.38-.02-.5v-.18l-.05.03c-.5.38-1.02 1.07-1.05 1.58-.15-.1-.32-.32-.32-.48 0-.28.42-.7.91-1.18l.32-.31-.09-.02c-.15-.04-.31-.07-.46-.08-.55 0-.89.1-1.1.33-.08-.11-.14-.36-.14-.51 0-.1.02-.17.06-.2.05-.05.12-.05.19-.05h.01c.6 0 1.32.11 1.6.15h.03c.05-.06 1.19-1.59 1.49-2.4.08-.03.16-.05.25-.04.22 0 .29.15.35.38-.72.87-1.16 1.54-1.32 2.01M5.01 4.43c0-1.14.83-2.04 1.12-2.3l.21.05c-.31.38-.86 1.01-.86 1.85 0 1.67 1.78 3.12 3.8 3.12-.01.14-.02.29-.02.45 0 .25.01.48.04.69-2.28-.01-4.29-1.87-4.29-3.86m15.31 3.52c1.02 1.62 1.83 1.59 3.03 1.59-1-.77-1.66-1.75-1.98-2.25L19.5 4.3c-.18-.94-.67-1.79-1.38-2.43.24-.09.44-.19.56-.28-1.22 0-2.43-.62-3.1-.62-.43 0-.7.26-.7.59.03.38.42.76 1.13.76.16 0 .37-.02.6-.06.39.54.7 1.03.7 1.73 0 1.31-1.57 2.33-3.15 2.33-.09 0-.17 0-.26-.01-.14-.33-.62-.87-.62-1.49 0-1.04.68-1.89.68-2.92 0-.64-.31-1.04-.43-1.2.19-.18.41-.4.46-.55-.11.05-.25.06-.44.06-.76 0-1.38-.2-1.98-.2-.34 0-.44.11-.44.21 0 .04 0 .08.01.09a1.9 1.9 0 0 0-.39-.11c-.19-.03-.38-.05-.57-.05-.73 0-.99.31-.99.57 0 .22.17.63.37.94.28-.14.63-.24.78-.24.39 0 .73.37.92.81-.26.03-.31.04-.58.04-.71 0-1.2-.25-1.3-.25 0 0-.03 0-.03.02 0 .1.2.36.6.51.53.19 1.31.27 1.44.29 0 .02-.13.27-.28.32-.03.01-.06.01-.09 0-.55-.11-.7-.15-1.4-.42-.02 0-.03 0-.03.03 0 .27.71.88 1.35 1.11-.53.68-1.2 1.38-1.51 2.44-.09 0-.17.01-.26.01-1.58 0-3.15-1.02-3.15-2.33 0-.7.31-1.19.7-1.73.23.04.43.06.6.06.72 0 1.1-.38 1.13-.76 0-.34-.27-.59-.7-.59-.67 0-1.88.62-3.1.62.12.09.32.19.56.28-.71.64-1.19 1.49-1.38 2.43L1.96 7.3c-.32.5-.98 1.49-1.98 2.25 1.21 0 2.01.03 3.04-1.59l.96-1.53c.07.2.16.39.26.58l-1.91 3.05c-.32.51-.98 1.48-1.98 2.25 1.21 0 2.01.03 3.04-1.59l1.64-2.63c.12.13.25.26.39.38L3.1 12.18c-.32.51-.97 1.48-1.98 2.25 1.21 0 2.01.03 3.03-1.59l2.26-3.61c.15.09.3.18.46.27l-2.76 4.41c-.32.51-.97 1.48-1.98 2.25 1.21 0 2.01.03 3.04-1.59l2.84-4.54c.17.06.34.13.51.18l-3.21 5.13c-.31.5-.98 1.49-1.98 2.25 1.21 0 2.01.03 3.03-1.59l3.42-5.47s.07.01.1.02c.09.3.16.57.16.85 0 1.72-1.13 3.24-2.48 4.41.09.04.24.05.38.05.28 0 .46-.01.59-.04-.31.71-.99 1.63-1.33 2.11-.5-.09-1-.13-1.51-.14-.44 0-.49.26-.49.49 0 .4.19.72.41.9.08-.21.25-.48 1.06-.48h.08c-.24.27-.99.87-.99 1.36 0 .32.35.81.82.81-.03-.1-.02-.2-.02-.27 0-.39.35-.85.64-1.18v.2c0 .93.08 1.36.67 1.36.29 0 .49-.16.56-.21-.38-.35-.4-.63-.4-1.15v-.45c0-.13 0-.26-.02-.39.21-.03.3-.03.46-.03 0 0 .84-.07 1.04.37.23-.21.56-.5.56-.83 0-.22-.1-.46-.53-.46-.16 0-.68.1-1.11.1.12-.26.63-1.01 1.08-1.56.07.21.17.44.41.63.03-.35.24-1.47.79-2.12.06.44.15.89.15 1.84 0 2.31-.56 4.02-1.74 4.35.15.27.48.51.82.51.43 0 .67-.49.91-.95.12.34.47 1.17.82 1.17s.69-.83.82-1.17c.24.46.47.95.91.95.34 0 .66-.24.82-.51-1.18-.33-1.74-2.03-1.74-4.35 0-.95.09-1.4.15-1.84.55.65.76 1.76.79 2.12.2-.16.34-.38.41-.63.45.55.96 1.3 1.08 1.56-.43 0-.95-.1-1.11-.1-.43 0-.53.24-.53.46 0 .33.33.62.56.83.2-.44 1.04-.37 1.04-.37.16 0 .25 0 .46.03-.02.11-.02.27-.02.39v.45c0 .52-.02.8-.4 1.15.07.05.27.21.56.21.59 0 .68-.43.68-1.36v-.2c.29.32.64.78.64 1.18 0 .07 0 .17-.03.27.47 0 .82-.48.82-.81 0-.49-.75-1.09-.99-1.35h.08c.82 0 .98.27 1.06.47.22-.18.41-.5.41-.9 0-.23-.05-.49-.49-.49s-1.07.06-1.51.14c-.34-.48-1.01-1.4-1.33-2.11.13.02.31.04.59.04.14 0 .29-.01.38-.05-1.35-1.17-2.48-2.69-2.48-4.41 0-.28.06-.55.16-.85.03 0 .07-.01.1-.02L16.98 16c1.02 1.62 1.83 1.59 3.03 1.59-1-.76-1.67-1.75-1.98-2.25l-3.21-5.13c.17-.06.35-.12.51-.18l2.84 4.54c1.02 1.62 1.83 1.59 3.04 1.59-1.01-.77-1.66-1.74-1.98-2.25L16.47 9.5c.16-.09.31-.18.46-.27l2.26 3.62c1.02 1.62 1.83 1.59 3.03 1.59-1.01-.77-1.66-1.74-1.98-2.25l-2.32-3.71c.14-.12.27-.25.39-.38l1.64 2.63c1.02 1.62 1.83 1.59 3.03 1.59-1.01-.77-1.66-1.75-1.98-2.25l-1.91-3.05c.1-.19.19-.38.26-.58l.96 1.53Zm12.61 13.01h-3.5v-20h3.5v20Z"/><path d="M32.93 40.96h-3.5v-20h3.5v20Z" fill-opacity=".4"/><path d="M32.93 60.96h-3.5v-20h3.5v20Z" fill-opacity=".2"/></svg>