<svg viewBox="0 0 1024 202" xmlns="http://www.w3.org/2000/svg"><path d="M47.008 194.018v-58.04L59.72 122.16H.023V74.07L41.48 29.297l22.112 23.767V36.482L97.309 0l33.166 36.482v38.694H82.938v22.11l13.818-15.477 49.748 54.17v58.039H47.008Zm112.763 0V46.984h112.762v147.034H159.771Zm126.03 0V46.984h110.55v147.034h-110.55Zm123.816 0V46.984h110v147.034h-110Zm123.266 0V46.984h110.553v147.034H532.883Zm123.818 0V46.984H766.7v147.034H656.701Zm123.266 0V46.984h110.55v147.034h-110.55Zm123.818 0V46.984h112.21v147.034h-112.21ZM63.04 176.883h67.988V142.61l-34.271-37.035-33.717 37.588v33.719Zm401.856-3.87c20.275 0 37.585-10.414 37.585-36.482V71.307h-18.24v59.697c0 5.13-.242 24.322-19.345 24.322-19.082 0-18.795-19.193-18.795-24.322V71.307h-18.793v66.882c0 24.432 17.246 34.825 37.588 34.825Zm370.9 0c20.275 0 37.588-10.414 37.588-36.482V71.307h-18.795v59.697c0 5.13.31 24.322-18.793 24.322-19.103 0-19.346-19.193-19.346-24.322V71.307h-18.242v66.882c0 24.432 17.246 34.825 37.588 34.825Zm-653.914-4.421h43.668c15.168 0 30.402-10.04 30.402-26.533 0-10.9-7.03-20.673-16.582-24.873 8.336-4.135 14.371-12.14 14.371-21.559 0-17.29-15.456-24.873-28.191-24.873l-43.668.553v97.285Zm118.29 0h18.794l6.633-20.453h33.718l5.528 20.453h19.347l-31.507-97.285h-20.452l-32.06 97.285Zm250.954 0h18.793v-37.588H606.4v37.588h18.793V71.307H606.4v43.115h-36.482V71.307h-18.793v97.285Zm119.947 0h18.795l6.08-20.453h34.272l5.527 20.453h18.793l-30.955-97.285h-20.451l-32.06 97.285Zm257.033 0h46.432c15.853-.044 25.98-12.78 25.98-29.85 0-17.71-13.399-29.076-28.744-29.85h-20.45c-4.82 0-9.4-4.355-9.4-9.396 0-6.5 4.557-8.844 9.4-8.844h43.115V71.307h-45.88c-15.278 0-24.874 12.336-24.874 28.742 0 17.135 13.267 28.235 28.191 28.744h19.898c5.484 0 9.95 2.299 9.95 9.95 0 8.114-5.107 10.501-9.95 10.501h-43.668v19.348Zm-727.43-16.031v-27.084h23.216c2.1 0 12.713 1.724 12.713 14.37 0 12.67-12.404 12.714-12.713 12.714h-23.215Zm129.346-20.452 12.16-38.14 11.608 38.14h-23.768Zm370.9 0 12.161-38.14 11.61 38.14h-23.77Zm-500.245-21.004V86.783h23.215c.995 0 11.054.973 11.054 11.055 0 9.043-7.539 13.267-11.054 13.267h-23.215Zm-187.387-3.318h56.936V80.15L42.033 48.643 13.29 80.15v27.637Zm989.44-34.27c6.301 0 11.054-5.219 11.054-12.162 0-6.787-4.753-12.16-11.054-12.16-6.324 0-11.608 5.373-11.608 12.16 0 6.943 5.284 12.163 11.608 12.163Zm0-1.658c-5.373 0-9.95-4.6-9.95-10.504 0-5.748 4.577-9.949 9.95-9.949 5.328 0 9.396 4.2 9.396 9.95 0 5.903-4.068 10.503-9.396 10.503Zm-4.975-3.316h2.21v-6.082h2.212l3.869 6.082h2.21l-3.868-6.082c2.012-.243 3.316-1.327 3.316-3.87 0-2.697-1.216-4.421-4.422-4.421h-5.527v14.373Zm-923.66-4.977h45.879V40.904L97.309 16.03 74.094 40.904v22.662Zm925.87-2.763V56.38h2.765c1.414 0 3.316-.2 3.316 1.658 0 2.211-2.034 2.764-3.87 2.764h-2.21Z"/></svg>