<svg viewBox="0 0 143 50" xmlns="http://www.w3.org/2000/svg"><path d="m84.833 43.075-2.487-5.103h-1.217v5.103h-2.509v-13.727h4.401c3.336 0 3.991 2.74 3.991 3.995v.696c0 .982-.366 2.758-2.062 3.567l2.698 5.469zm-.346-9.675c0-1.273-.964-1.565-1.501-1.565h-1.857v3.652h1.892c.539 0 1.466-.176 1.466-1.469zm-18.312-1.562v-2.49h-7.943v13.727h2.487v-5.954h5.052v-2.489h-5.052v-2.794zm68.143-21.268v2.508h3.064v11.219h2.486v-11.219h3.085v-2.508zm-5.424 13.728h-4.357v-13.727h4.28c3.316 0 3.951 2.661 3.951 3.916v5.878c0 1.292-.635 3.933-3.874 3.933m1.408-9.754c0-1.292-.924-1.484-1.485-1.484h-1.793v8.749h1.832c.541 0 1.446-.19 1.446-1.463zm-7.587 9.754v-2.489h-5.436v-11.238h-2.487v13.727zm-50.785 18.951c-3.22 0-4.124-2.683-4.124-3.992v-6.131c0-1.273.83-3.875 4.146-3.875 3.18 0 4.126 2.602 4.126 3.894v6.131c0 1.312-.87 3.973-4.148 3.973m1.621-10.085c0-1.272-1.099-1.445-1.599-1.445-.542 0-1.659.173-1.659 1.445v6.093c0 1.292 1.117 1.485 1.659 1.485.5 0 1.599-.193 1.599-1.485zm34.548-8.692c-3.219 0-4.123-2.682-4.123-3.992v-6.131c0-1.272.829-3.875 4.146-3.875 3.179 0 4.126 2.603 4.126 3.894v6.132c0 1.311-.871 3.972-4.149 3.972m1.621-10.085c0-1.271-1.099-1.445-1.598-1.445-.542 0-1.66.174-1.66 1.445v6.093c0 1.292 1.118 1.485 1.66 1.485.499 0 1.598-.193 1.598-1.485zm-11.761 9.911h-4.476v-13.727h4.379c3.317 0 3.874 2.564 3.874 3.837v.231c0 .809-.483 1.966-1.388 2.563.966.618 1.564 1.716 1.564 2.759v.442c0 1.254-.659 3.895-3.953 3.895m1.252-9.971c0-1.234-.868-1.37-1.388-1.37h-1.837v3.149h1.951c.561 0 1.274-.193 1.274-1.406zm.23 5.551c0-1.272-.828-1.504-1.427-1.504h-2.028v3.517h1.932c.541 0 1.523-.172 1.523-1.426zm3.406 23.197v-8.478l1.84 3.902h1.335l1.856-3.884v8.46h2.508v-13.727h-2.701l-2.349 5.526-2.372-5.526h-2.642v13.727zm-19.837-18.777v-8.478l1.841 3.902h1.334l1.856-3.884v8.46h2.508v-13.727h-2.701l-2.349 5.526-2.372-5.526h-2.642v13.727zm14.571 14.98v-9.93h-2.505v9.912c0 1.291-1.102 1.484-1.622 1.484-.541 0-1.636-.193-1.636-1.484v-9.912h-2.507v9.912c0 1.388.827 3.99 4.143 3.99 3.315 0 4.127-2.583 4.127-3.972m-19.835-18.779v-9.93h-2.505v9.912c0 1.29-1.102 1.484-1.621 1.484-.542 0-1.637-.194-1.637-1.484v-9.912h-2.507v9.912c0 1.388.827 3.991 4.144 3.991 3.314 0 4.126-2.584 4.126-3.973m-11.011 3.799v-13.727h-2.525v5.301h-3.472v-5.301h-2.505v13.727h2.505v-5.918h3.472v5.918zm-56.163 25.692 39.418-10.562-10.562-39.418-39.418 10.561zm-3.651-31.567 24.659-11.499 11.499 24.657-24.656 11.494z"></path></svg>