<svg viewBox="0 0 401 86" fill="none" xmlns="http://www.w3.org/2000/svg">
<g clip-path="url(#clip0_1063_3415)">
<path d="M240.957 60.784C242.663 60.784 243.942 61.4232 244.92 62.7723L243.82 63.6089C243.021 62.5279 242.273 62.0437 240.924 62.0437C238.795 62.0437 237.267 64.1589 237.267 67.1766C237.267 70.1942 238.847 72.3423 240.943 72.3423C242.292 72.3423 243.218 71.736 244.017 70.7066L244.976 71.5432C244.069 72.77 242.72 73.602 240.91 73.602C237.874 73.602 235.885 70.8476 235.885 67.2095C235.885 63.5713 237.963 60.7793 240.962 60.7793L240.957 60.784Z" fill="currentColor"/>
<path d="M255.176 60.7839C258.264 60.7839 260.328 63.4303 260.328 67.1765C260.328 70.9227 258.231 73.6067 255.143 73.6067C252.055 73.6067 250.01 70.9603 250.01 67.2141C250.01 63.4679 252.088 60.7839 255.176 60.7839ZM255.124 62.0436C252.976 62.0436 251.397 64.0507 251.397 67.1765C251.397 70.3023 253.033 72.3422 255.195 72.3422C257.357 72.3422 258.941 70.3352 258.941 67.2094C258.941 64.0836 257.291 62.0436 255.124 62.0436Z" fill="currentColor"/>
<path d="M273.677 60.9814V62.2411H267.764V66.3587H271.171V67.6184H267.764V73.4093H266.377V60.9767H273.677V60.9814Z" fill="currentColor"/>
<path d="M286.73 60.9814V62.2411H280.817V66.3587H284.224V67.6184H280.817V73.4093H279.43V60.9767H286.73V60.9814Z" fill="currentColor"/>
<path d="M299.99 60.9814V62.2411H293.865V66.1471H297.418V67.4068H293.865V72.1496H300.257V73.4093H292.478V60.9767H299.99V60.9814Z" fill="currentColor"/>
<path d="M313.734 60.9814V62.2411H307.609V66.1471H311.162V67.4068H307.609V72.1496H314.001V73.4093H306.222V60.9767H313.734V60.9814Z" fill="currentColor"/>
<path d="M329.287 60.9814V72.1496H335.431V73.4093H327.901V60.9767H329.287V60.9814Z" fill="currentColor"/>
<path d="M345.621 60.7839C348.709 60.7839 350.773 63.4303 350.773 67.1765C350.773 70.9227 348.676 73.6067 345.588 73.6067C342.5 73.6067 340.455 70.9603 340.455 67.2141C340.455 63.4679 342.533 60.7839 345.621 60.7839ZM345.569 62.0436C343.421 62.0436 341.842 64.0507 341.842 67.1765C341.842 70.3023 343.478 72.3422 345.64 72.3422C347.802 72.3422 349.386 70.3352 349.386 67.2094C349.386 64.0836 347.736 62.0436 345.569 62.0436Z" fill="currentColor"/>
<path d="M360.108 60.9814C363.375 60.9814 365.772 62.8474 365.772 67.106C365.772 71.6184 363.177 73.4093 359.859 73.4093H356.822V60.9767H360.108V60.9814ZM364.39 67.1624C364.39 63.9849 362.862 62.2458 360.005 62.2458H358.209V72.1543H360.037C362.717 72.1543 364.39 70.7347 364.39 67.1624Z" fill="currentColor"/>
<path d="M376.371 60.784C378.077 60.784 379.356 61.4232 380.334 62.7723L379.234 63.6089C378.435 62.5279 377.687 62.0437 376.338 62.0437C374.209 62.0437 372.681 64.1589 372.681 67.1766C372.681 70.1942 374.28 72.3423 376.357 72.3423C378.435 72.3423 379.572 71.0638 379.572 68.629V68.5209H377.335V67.2424H380.921V68.4504C380.921 71.877 378.952 73.602 376.32 73.602C373.283 73.602 371.295 70.8476 371.295 67.2095C371.295 63.5713 373.372 60.7793 376.371 60.7793V60.784Z" fill="currentColor"/>
<path d="M394.36 60.9814V62.2411H388.235V66.1471H391.789V67.4068H388.235V72.1496H394.628V73.4093H386.849V60.9767H394.36V60.9814Z" fill="currentColor"/>
<path d="M150.131 42.5558L142.892 29.6766L138.625 34.7061V42.5558H133.29V15.8809H138.625V23.4627C138.625 24.4545 138.587 26.8564 138.549 27.6931C138.93 27.082 139.922 25.8646 140.646 24.9856L148.115 15.8762H154.554L146.742 25.0984L156.533 42.5511H150.131V42.5558Z" fill="currentColor"/>
<path d="M161.107 42.5558V15.881H166.442V42.5558H161.107Z" fill="currentColor"/>
<path d="M173.68 42.5558V15.881H179.015V37.2961H192.393V42.5558H173.68Z" fill="currentColor"/>
<path d="M197.685 42.5558V15.881H203.02V42.5558H197.685Z" fill="currentColor"/>
<path d="M229.888 42.5558V32.7649C229.888 31.3171 229.963 27.9234 229.963 26.8987C229.582 27.8905 228.783 29.7942 228.097 31.3171L222.687 43.1669L217.277 31.3171C216.59 29.7942 215.791 27.8858 215.411 26.8987C215.411 27.9281 215.486 31.3171 215.486 32.7649V42.5558H210.264V15.881H215.411L220.976 27.961C221.662 29.4464 222.461 31.4675 222.804 32.4217C223.147 31.4299 223.909 29.4887 224.595 27.961L229.968 15.881H235.227V42.5558H229.892H229.888Z" fill="currentColor"/>
<path d="M259.839 42.5558L257.742 36.6098H247.989L245.893 42.5558H240.177L250.391 15.881H255.576L265.71 42.5558H259.844H259.839ZM254.198 26.7013C253.667 25.1408 253.131 23.538 252.863 22.5462C252.595 23.538 252.064 25.1361 251.528 26.7013L249.813 31.5427H255.909L254.194 26.7013H254.198Z" fill="currentColor"/>
<path d="M287.501 42.5558L277.71 27.9986C277.061 27.0069 276.187 25.6719 275.844 24.9904C275.844 25.9822 275.919 29.3336 275.919 30.8189V42.5558H270.659V15.881H275.764L285.212 29.9822C285.86 30.974 286.734 32.3089 287.078 32.9905C287.078 31.9987 287.002 28.6473 287.002 27.162V15.881H292.262V42.5558H287.501Z" fill="currentColor"/>
<path d="M317.226 31.4299C317.226 38.4054 314.1 42.9741 307.13 42.9741C301.795 42.9741 298.25 39.7732 296.916 35.0869L302.138 33.6767C303.167 36.3842 304.54 37.6768 307.13 37.6768C310.406 37.6768 311.891 35.5804 311.891 31.5804V15.881H317.226V31.4299Z" fill="currentColor"/>
<path d="M340.319 42.5558L338.223 36.6098H328.469L326.373 42.5558H320.657L330.871 15.881H336.056L346.19 42.5558H340.324H340.319ZM334.679 26.7013C334.148 25.1408 333.612 23.538 333.344 22.5462C333.076 23.538 332.545 25.1361 332.009 26.7013L330.293 31.5427H336.39L334.674 26.7013H334.679Z" fill="currentColor"/>
<path d="M366.613 42.5558L361.852 32.9529H356.479V42.5558H351.144V15.881H363.567C368.597 15.881 372.752 18.6636 372.752 24.3417C372.752 28.3418 371.036 30.8565 367.647 32.1914L372.752 42.5558H366.618H366.613ZM367.262 24.4545C367.262 22.0526 365.814 21.0608 363.45 21.0608H356.479V27.9187H363.45C365.927 27.9187 367.262 26.7765 367.262 24.4498V24.4545Z" fill="currentColor"/>
<path d="M400.372 29.1784C400.372 37.7895 395.53 42.9741 388.597 42.9741C381.664 42.9741 376.86 37.8694 376.86 29.2536C376.86 20.6377 381.702 15.4579 388.672 15.4579C395.643 15.4579 400.372 20.5625 400.372 29.1784ZM394.886 29.2536C394.886 23.8434 392.296 20.7552 388.559 20.7552C384.823 20.7552 382.35 23.7635 382.35 29.1784C382.35 34.5933 384.94 37.6767 388.677 37.6767C392.414 37.6767 394.886 34.6685 394.886 29.2536Z" fill="currentColor"/>
<path d="M111.87 41.2162C111.804 40.4124 111.658 39.6086 111.574 38.8096L111.428 37.6015L111.221 36.3982C110.939 34.7907 110.493 33.2161 109.985 31.6461C107.846 25.4228 104.044 19.7212 99.2303 15.1524C96.8237 12.8633 94.1962 10.7998 91.376 9.05595C88.5651 7.3027 85.5662 5.86908 82.4828 4.71748C76.297 2.43308 69.8058 1.30028 63.3709 0.834936C56.9219 0.378996 50.473 0.740928 44.1556 1.86433C37.8477 3.01123 31.6995 4.9901 25.9603 7.80564C20.2352 10.6306 14.9332 14.3674 10.5477 18.9879C8.3667 21.3099 6.44893 23.8669 4.85549 26.6073C3.28085 29.357 2.09635 32.3183 1.33018 35.3642C1.28318 35.5475 1.38658 35.7402 1.5652 35.8013C1.75792 35.8671 1.96474 35.7637 2.03054 35.5757C4.04232 29.7566 7.71804 24.7083 12.1881 20.6613C16.6864 16.6189 21.9274 13.4743 27.5021 11.2181C33.0674 8.92904 38.957 7.49542 44.903 6.78096C47.8784 6.41432 50.8678 6.24041 53.862 6.24041C56.8514 6.24041 59.8362 6.41902 62.7787 6.81856C68.673 7.58473 74.3793 9.29097 79.7001 11.6318C82.37 12.7928 84.9458 14.1183 87.437 15.5707C89.9235 17.0326 92.3301 18.626 94.5816 20.4262C99.1034 24.008 103.014 28.3652 106.032 33.4276C106.756 34.7061 107.47 36.0081 108.077 37.3712L108.547 38.3959L108.96 39.4441C109.275 40.1398 109.426 40.8589 109.614 41.5875C109.872 42.6639 110.074 43.7638 110.229 44.8778C109.896 44.6992 109.609 44.5582 109.505 44.4924C108.899 44.1398 108.312 43.8625 107.719 43.604C107.127 43.3455 106.535 43.1057 105.943 42.8754C104.758 42.4148 103.574 41.987 102.394 41.5687C100.029 40.7273 97.6604 39.9236 95.3525 39.0446C94.1962 38.598 93.0728 38.1515 92.0105 37.6015C90.9153 37.0563 89.8295 36.4593 88.7484 35.8577C86.5909 34.645 84.4569 33.3618 82.3465 32.0457C80.236 30.7342 78.1349 29.3899 76.1137 27.9892C75.1266 27.2982 74.0878 26.5274 73.0491 25.8129C72.0056 25.0938 70.948 24.384 69.8481 23.7212C68.7529 23.0585 67.6295 22.4239 66.445 21.8552C65.2605 21.2958 64.0337 20.7741 62.6376 20.478C62.2898 20.4027 61.9279 20.3463 61.5518 20.3181C61.3685 20.2993 61.1664 20.2993 60.9737 20.2946H60.4943C59.855 20.3087 59.2204 20.3275 58.5906 20.351C57.3262 20.398 56.0618 20.4685 54.7974 20.5579C52.2732 20.7506 49.7491 21.0279 47.2344 21.4603C45.9747 21.6813 44.715 21.9351 43.46 22.2829C42.8301 22.4521 42.205 22.6495 41.5798 22.8752C41.2649 22.988 40.9546 23.1149 40.6444 23.2512C40.3342 23.3922 40.0193 23.5426 39.7325 23.6977C38.5715 24.3182 37.4951 25.0044 36.4375 25.7095C35.3847 26.4146 34.3553 27.1384 33.3306 27.8623C31.2812 29.3006 29.2647 30.7625 27.1777 32.0363C26.1342 32.6708 25.0673 33.2537 23.9768 33.6814C23.7041 33.7848 23.4362 33.8741 23.1542 33.9587L22.247 34.2173C21.6454 34.3912 21.0437 34.5745 20.4421 34.7578C18.0401 35.4911 15.6523 36.2619 13.2786 37.0892C10.9096 37.9259 8.55941 38.8096 6.24681 39.8107C5.09521 40.3137 3.94831 40.8448 2.84371 41.4559C2.29376 41.7661 1.74852 42.0998 1.23617 42.4806C0.977649 42.6733 0.733228 42.8801 0.507608 43.1104C0.394798 43.2279 0.286689 43.3549 0.192681 43.4912C0.145676 43.5617 0.0986723 43.6322 0.0657695 43.7074C0.0469678 43.7544 0.0281662 43.7638 0.00466412 43.8531C-0.0188379 43.9377 0.00466412 44.0317 0.00936453 44.0787C0.202081 44.1257 0.18328 44.0458 0.197381 44.0599L0.249085 44.0317L0.352495 43.9753L0.559313 43.8672L0.972949 43.651L1.80962 43.2279C2.36897 42.9506 2.92832 42.678 3.49237 42.4101C4.62047 41.8789 5.76267 41.3713 6.91427 40.8871C9.21747 39.9189 11.5536 39.0446 13.9273 38.2737C18.67 36.7414 23.5631 35.618 28.5174 35.2748C30.9898 35.1056 33.481 35.1432 35.9252 35.477C38.3694 35.806 40.7666 36.4405 42.9993 37.4464C44.1039 37.9494 45.2038 38.5557 46.2849 39.1621C47.366 39.7731 48.433 40.4124 49.4953 41.0658C51.6199 42.3725 53.7163 43.7309 55.8314 45.0752C60.0618 47.7497 64.3721 50.382 68.9973 52.4548C73.6037 54.5324 78.572 56.0225 83.6955 56.3327C84.974 56.4126 86.2572 56.4267 87.5357 56.3609C88.8142 56.2951 90.0927 56.1541 91.3572 55.952C93.8907 55.5383 96.3678 54.8474 98.7603 53.9355C99.9542 53.4842 101.125 52.9625 102.276 52.4172C103.418 51.8532 104.551 51.2656 105.646 50.617C106.163 50.3209 107.503 49.55 108.8 48.7791C107.066 51.5289 104.908 53.9543 102.417 55.999C101.369 56.7651 100.288 57.4843 99.1786 58.147C94.8966 60.7182 90.1444 62.4432 85.256 63.1342C80.3676 63.8298 75.3523 63.4162 70.633 62.0108C65.8997 60.6195 61.4625 58.2787 57.4625 55.3362C55.446 53.865 53.5799 52.2386 51.7327 50.5183C51.2626 50.0811 50.7691 49.6769 50.2803 49.2633C49.7773 48.8731 49.2791 48.4689 48.7573 48.1023C47.7232 47.3596 46.6515 46.6592 45.5375 46.0435C41.0957 43.5429 36.1414 42.1186 31.1402 41.5875C26.1295 41.0423 21.0672 41.3525 16.1271 42.208C13.6547 42.6357 11.2057 43.2091 8.78973 43.9095C7.58173 44.262 6.38312 44.6428 5.19392 45.0611C4.00001 45.4841 2.83431 45.9213 1.64511 46.4477C1.537 46.4947 1.43359 46.5746 1.35368 46.678L1.34428 46.6874C1.24087 46.8238 1.15626 46.9742 1.09516 47.1199C1.04345 47.0917 0.98705 47.0729 0.921244 47.0729C0.714426 47.0729 0.549912 47.2374 0.549912 47.4442C0.53111 50.5136 1.15626 53.6111 2.21386 56.5724C3.25735 59.5478 4.81318 62.3445 6.63694 64.9438C10.3456 70.119 15.2669 74.3729 20.7053 77.6067C23.4268 79.2284 26.2894 80.6056 29.2459 81.7055C30.7266 82.2461 32.226 82.7255 33.7395 83.1579C35.253 83.5763 36.7854 83.9288 38.3177 84.239C44.4753 85.4094 50.7174 85.7714 56.8937 85.5363C63.0701 85.3107 69.2182 84.3753 75.1454 82.6879C76.1513 82.3965 77.1525 82.0721 78.1443 81.7337C78.6237 81.5927 79.1032 81.4517 79.5779 81.3013C81.0021 80.8406 82.417 80.3377 83.813 79.7877C86.605 78.6925 89.336 77.4234 91.9635 75.9522C94.5863 74.481 97.1105 72.8029 99.4513 70.8805C101.792 68.9674 103.94 66.7864 105.778 64.3563C106.699 63.1436 107.531 61.8604 108.265 60.5208C108.998 59.1811 109.609 57.7663 110.116 56.3233C110.615 54.8756 110.986 53.3761 111.221 51.8579C111.277 51.4443 111.329 51.0353 111.376 50.6217C111.574 49.8743 111.748 49.1834 111.842 48.3561C111.903 47.5758 111.964 46.7909 111.983 46.0012C112.03 44.4218 112.006 42.8284 111.856 41.2256L111.87 41.2162ZM73.2371 34.3912C68.8704 31.4346 66.9338 34.001 64.4473 35.43C61.9655 36.8589 60.1135 31.7824 56.5741 28.1725C53.0347 24.5626 52.5036 45.1034 50.2004 37.1926C47.8972 29.2818 44.4 26.9269 40.9217 30.1749C37.4434 33.4229 30.1672 34.3019 30.1672 34.3019C30.1672 34.3019 37.4434 27.5051 40.2402 25.78C43.0369 24.055 51.8455 22.6354 60.781 23.4016C69.7165 24.1678 79.2442 34.6967 79.2442 34.6967C79.2442 34.6967 77.6037 37.3477 73.2371 34.3912ZM109.938 46.6216C109.938 46.6216 109.966 46.5887 109.98 46.5699C109.999 46.5793 110.022 46.5887 110.032 46.5934C110.046 46.6028 110.004 46.6122 109.943 46.6216H109.938Z" fill="currentColor"/>
<path d="M231.871 71.844H131.4V73.0191H231.871V71.844Z" fill="currentColor"/>
</g>
<defs>
<clipPath id="clip0_1063_3415">
<rect width="400.372" height="84.9552" fill="currentColor" transform="translate(0 0.642212)"/>
</clipPath>
</defs>
</svg>
