<svg xmlns="http://www.w3.org/2000/svg" viewBox="787 -53.3 1716 246" fill="currentColor"><path d="M898.3-47.2c-1.6.1-3.1.5-4.6 1.4 6.1 1.2 13.2 2 17.1 7.6 1.9 2 1.3 5.2-.6 7-3.7 4.4-9.9 5.7-15.3 4.3-18.2-4.3-35.4-12.6-54-14.8-10-1.3-19.8 3.5-26.7 10.4-6.4 6.4-8.7 16.1-7.4 24.9 1.4 6.9 6.5 14.1 14 15.1-4.4-4.8-5.2-13.1-.7-18 2.6-3.2 7.2-3.6 11-3.1 14.5 2.7 28.6 7 43 10 8.1 2.2 16.1 4.8 24.3 6.3.1 9.9.1 19.7 0 29.6-5.3 4-10.4 8.3-15.7 12.4 5.1 3.8 10.3 7.4 15.6 11 .3 14 0 27.9.2 41.9-8.6 6.7-20.1 7.7-30.6 6.5-11.1-.6-21-7.2-28.3-15.3 12.2-6.5 24.7-12.7 37.2-18.6.4-22 .1-44 .2-66.1-15.6 6.6-31.1 13.4-46.7 20.1C834.8 13.9 844 4.6 854.9-1c-2.8.2-5.8 0-8.5 1.2-20.4 8.1-37.3 25.4-43.6 46.6-4.2 13.4-2.9 28.1 1.7 41.3 5.7 14.6 16.2 27.6 30.2 34.9 7.8 4.1 16.3 7.9 25.3 8 18.6 1.6 38.2-5.5 50.8-19.5 5.5-5.9 8.3-13.6 11-21 2.5-7.3 3.7-15.1 3.4-22.8-6 12-14 23.2-25 31.1.1-13.9 0-27.8 0-41.7 4.8-3.6 9.5-7.3 14.2-11.1-4.7-4.2-9.4-8.4-14.2-12.6V4.1c10.7-.6 22.9-6.2 25.8-17.4 2-7.3 3-15.9-1.4-22.5-4.1-4.7-9.4-8.7-15.7-9.9-3.5-.3-7.1-1.6-10.6-1.5zm-49.8 67.1c0 21.2.1 42.4-.1 63.6-3.5 1.4-7 2.9-10.5 4.4-6.4-9.3-10.4-20.2-12.2-31.3-.5-9.4 1.2-18.9 4.5-27.6 6.1-2.9 12.1-6.1 18.3-9.1zm1221.4-67.1c-1.7-.1-3.4.3-5 1.4 3.6.8 7.4 1.2 10.8 2.9 3 1.4 5 4.4 6 7.5.6 3.3-1.9 6.4-4.8 7.6-5.2 2.4-11.2 1.3-16.5-.1-12.8-3.9-25.3-9-38.3-12-6.7-1.4-13.7-2.8-20.5-1-7.4 2.1-14.8 5.6-19.2 12.1-5.6 7.2-6.3 17.2-3.6 25.7 2.2 5.7 6.8 11.2 13.2 12-2.1-2.7-5.7-5.4-4.7-9.3.6-3.8 2.2-7.7 5.2-10.2 3.1-2.3 7.2-2.3 10.8-1.2 13 2.4 25.7 6.1 38.6 9.1 8.7 1.9 17.1 5.1 25.9 6.7.2 9.8 0 19.7.1 29.5-4.7 4.2-9.4 8.3-14.1 12.6 4.7 3.6 9.3 7.3 14.1 10.9.1 14 0 28 .1 42-8.3 6.2-19.1 7.7-29.2 6.3-11.1-.7-20.8-7.3-28.1-15.2 3-2.1 6.5-3.5 9.7-5.2 9.1-4.5 18.2-9.2 27.4-13.6.3-22 0-44.1.1-66.1-15.5 6.6-30.9 13.5-46.5 20 3.6-8.5 9.2-16.2 16.9-21.4 2.3-2.1 4.6-4.3 7.8-5-3.1.2-6.4.1-9.2 1.6-21.9 8.9-40.7 28.2-44.8 52.1-1.6 12.1-.4 24.6 3.8 36.1 5.4 13.4 14.9 25.4 27.3 33 5.9 3.6 12.3 6.5 18.9 8.5 15.9 2.6 33 .4 46.9-8.1 9.2-6.4 17.7-14.7 21.6-25.5 4.1-9.2 5.8-19.1 6-29.1-1.9 2.5-3 5.5-4.7 8.2-5.3 8.9-12.1 16.9-20.5 23.1.1-14-.1-27.9.1-41.9 4.7-3.4 9.2-7.2 13.9-10.6-4.4-4.5-9.4-8.5-14-12.7-.1-9.8.1-19.6-.1-29.4 9.1-.6 18.4-4.7 23.3-12.7 5.1-8.2 5.1-19.5.2-27.8-3.9-5.1-10-8.5-16.3-9.4-2.8-.1-5.7-1.3-8.6-1.4zm-50.2 67.1c.1 21.2 0 42.3 0 63.5-3.6 1.5-7.2 3.1-10.8 4.6-5.2-7.3-9.3-15.6-11.4-24.4-2.3-11.5-1.7-24 3.7-34.6 6.2-2.9 12.4-6 18.5-9.1zm-743.7-60c6 10.4 2.2 24.6-6.7 32.1-5.5 3.6-11.8 5.6-18.1 7.6.1 42.7 0 85.4 0 128.1.4 1.9-1.3 3.5-3.2 2.7-3.6-.2-4.6-4-6.1-6.6-22.3-41.1-44.4-82.3-67-123.3-.4 30.2 0 60.3-.2 90.5 10.6 2 21 7.1 28 15.6 3.2-2.5 5.3-6.9 9.5-7.9-1.1 1.9-2.6 3.5-4 5.1-8 8.9-16.1 17.9-24.1 26.8-3.7-4.7-8.7-9.2-14.9-9.8-4.1-.2-8.8.1-11.8 3.3-3.4 3.1-5.7 8.2-3.3 12.6 2.9 6.3 10.1 8 16.2 9.5-7.6 1.5-16.1.6-22.2-4.5-4.9-4.2-9.3-9.5-10.6-15.9-1.7-8.9.9-18.8 7.6-25.1 7.3-7.2 17.9-9.9 27.9-9.3.3-13.1.1-26.3.1-39.4-4.8-.8-11.5-.1-13.7 5-1.3 4.1 1.8 7.6 4.8 9.8-3.8-.7-8-1.4-10.7-4.3-3.2-4-5.7-8.7-6.7-13.7-.9-6.5.8-13.9 6.2-18.1 5.7-4.4 13.2-5 20.1-4.8V-1.9c-2.5-3.8-4.9-8.1-9.2-10-2.8-1.2-6.5-1.6-8.9.6-3.4 2.8-4.2 7.4-5.5 11.3-1.3-9.7-.3-20.7 6.5-28.3 8.2-10.6 25.6-11 34.5-1.2 3.9 4 6.5 8.9 9.2 13.8 16.6 29.6 32.9 59.3 49.6 88.8.1-24.4.2-48.9 0-73.3-2.9-1.1-6.1-1.1-9-2.1-5.5-1.4-10-5-14.1-8.8-2.5 3-5.1 5.9-7.4 9-.5-.3-1.6-.9-2.2-1.2 8.6-10.8 17.8-21.2 26.8-31.8 4.7 4.9 10.8 9 17.8 9.4 7.1-.9 14.3-6.8 14.8-14.4zm558.2 23.6c12-7.8 24-15.7 36-23.5.1 46.1-.1 92.3.1 138.4 2.6 3.5 6.2 6.4 9.3 9.6 2-2.1 4-4.1 6.1-6.2l1.9 1.9c-9.6 8.3-18.9 17-28.6 25.2-6.1-6.2-12.4-12.3-18.4-18.6-2.7 2.4-5.2 5.1-7.7 7.6-.5-.4-1.6-1.2-2.1-1.6 4.6-4.4 9.6-8.4 14.2-12.8V-1.4c-.1-6.4-3.5-14.3-10.8-15.1zm-896 1.4c10.3-7.7 20.5-15.7 30.8-23.3.1 25.4 0 50.8 0 76.3 8.8-7.2 17.6-14.3 26.2-21.7 7 7.2 13.4 14.9 20.6 21.8 3-2.2 6.1-4.2 9.3-6.2-.6 4-5.4 5.4-7.9 8.2v41.7c.2 10.4-1.3 20.7-1.6 31.1-.5 11.3-4.8 22.8-13.6 30.2-7.1 6.4-16.9 8.7-26.2 9.4-.2.2-.5.7-.7.9l.2-.8c-3.2 0-6.4-.1-9.6-.4 4-2.1 8.6-3.4 11.7-6.9 3.6-4.1 7.9-7.9 9.7-13.2 2.9-8.1 3-16.8 3.3-25.3-.1-19.1.1-38.1-.1-57.2-4.2-5.5-9.3-10.4-13.8-15.8-2.5 2.6-5.4 4.8-7.5 7.8-.2 19.7 0 39.3-.1 59 2.5 2.5 5.1 5.1 7.7 7.6l6.2-6.2c.5.4 1.4 1.4 1.8 1.8-10 7.8-19.9 15.8-29.9 23.6-6.3-5.6-12.5-11.4-18.7-17.1-2.1 1.6-4.2 3.1-6.3 4.7-.5-.5-1.3-1.4-1.8-1.9 4.8-3.1 9.5-6.3 14.3-9.5V-1.4c-.1-2.7 0-5.5-1.4-7.9-.9-1.8-3-2.4-4.6-3.5-.3-1.1 1.4-1.6 2-2.3zm688.7-18.6c-9.4 7.6-18.6 15.5-27.9 23.2-.1-7.3.1-14.5-.1-21.8-1.4-.1-2.1.6-1.9 2v154.4c-5.1-1-10.2-2-15.2-3.1-.1-43.4 0-86.8 0-130.2-.1-5.5-1.9-11-5.5-15.2-4.5-5.3-11.5-7.8-18.3-8.3-8-.2-15.4 4-21 9.4-5.2 4.9-7.9 12.5-6.5 19.5.6-4.4 2.1-9.3 6.1-11.7 4.4-1.9 10.3-.4 12.9 3.8 2.3 3.3 2.5 7.5 2.6 11.4v35.2c-7.7.1-16.9 1.4-21.3 8.5-4.5 5.6-5.9 13.6-2.8 20.2 2 6.5 8.8 9.9 15.1 11-3.5-2.3-7.1-6.3-5.1-10.8 2.8-4.5 9.2-5.2 14-3.9.2 20.8.1 41.6 0 62.5-7.1 2.5-14 6.8-17.8 13.5-2.8 4.8-2.8 10.5-2.6 15.8.8 9.4 7 17.9 15.3 22.2 6.3 2.9 13.3 3 20.2 2.8 19.3-1.1 37.6-8.8 57-9.4 5.8-.4 9.1 5.9 7.6 10.9-1.2 4.5-4.9 7.6-8.5 10.2 6.8-1.4 13.6-4 18.8-8.6 6-5.1 8.7-13.2 8.3-20.9-.4-7.6-6.6-13.3-12.9-16.5-8.4-4.9-18.5-3.8-27.8-2.8-17.3 2-34.2 7.5-51.8 8-5.9.4-11.5-3.8-12.7-9.6-1.3-5.6 3.2-10.5 7.8-12.9 10-4.7 21.5-3 31.9-.8 12.1 1.3 23.4 6.2 35.5 7.4 6.9.8 14.1-.5 19.8-4.7 5.8-3.6 8.4-10.6 8.6-17.1.1-41-.1-81.9.1-122.9 3.7-3.2 7.9-6.2 11.1-9.9-4.6 1.1-7.4 5.4-11.2 8-7.3-6.2-14.5-12.5-21.8-18.8zM1606.5-13c4.2 3.6 8.3 7.3 12.5 10.9v38.7c-2 2-4.2 4-7.1 4.4-4.7 1-9.4-1.3-12.9-4.3V-8.5c2.5-1.4 5-2.9 7.5-4.5zm-7.5 53.3c6.1 3.1 14 4.1 20 0v17.6c-2.4-2.4-5.5-4.2-9-4.2-4.1-.1-7.8 1.8-11 4.2V40.3zm11 15.3c4 .1 7 3.1 9 6.2v49c.3 5-3.1 9.3-6.9 12.2-3.6 2.9-8.6 3-13 2.8-.2-21.3 0-42.7-.1-64 2.9-3.3 6.5-6.3 11-6.2zM2102.3-7c6.5-5.7 12.6-11.8 19.2-17.3 5.6 5.9 11.5 11.5 17.2 17.4-6.8 6.4-13.7 12.7-20.6 19-5.3-6.5-10.7-12.7-15.8-19.1zm-747.9 6c4-2.8 9.2-2.6 13.8-3.2-3.5 2.8-7.4 6-7.9 10.8-.8 4.3 1.9 8.2 5.1 10.8 5.8 4.6 13.2 7.2 17.9 13.1 2.3 2.9 3.6 6.5 3.5 10.2v58.2c5.2 4.2 10.3 8.3 15.5 12.5 1.5-1 3-1.9 4.5-2.9-.1-21.2.1-42.3-.1-63.5-2.7-3.1-6.3-5.4-9.3-8.2 7.4-6.8 14.7-13.9 22.3-20.6 6.6 6.5 13.5 12.6 20.3 18.9-2.6 2.7-5.2 5.4-7.9 7.9-.1 18.6 0 37.2 0 55.8 6.8 5.2 13.5 10.5 20.3 15.6 1-.6 1.9-1.1 2.9-1.7-.1-22.7 0-45.4-.1-68.2-3.1-2.7-6.4-5.2-9.5-7.9 7.3-6.9 14.7-13.7 22-20.5 7.3 5.7 14.6 11.4 21.9 17.2 2.5-2.8 5.1-5.5 8-8 .4.5 1.1 1.6 1.5 2.1-6.2 5.5-12.4 11.2-18.4 16.9-.5 18.1 0 36.3-.2 54.4-15.8 10.4-32.4 19.9-48.4 30-8.5-6.1-16.7-12.5-25.1-18.7-7.5 6-15 12.1-22.6 18-1.1 1.2-2.2-.5-3.1-1-7.1-5.7-14.1-11.4-21.2-16.9-3 2.6-6.1 5.1-9.2 7.7-.5-.5-1.4-1.4-1.9-1.8 3.7-2.5 7.3-5.2 10.9-7.8V55.5c0-4.7-1.7-9.5-4.9-12.9-3.5-3.8-8.3-6.5-11.1-11-3.1-5.2-3.4-11.7-2.2-17.5 1.9-6.5 7.1-11.5 12.7-15.1zm1112.9 12.6c.7 1.8.9 3.9 0 5.7-2.2 5.1-8.2 7-13.3 6.9-5.4-.5-9.5-4.3-13.2-8-6.1 4.1-12.1 8.1-18.2 12.1-7 4.7-14.7 8.2-22.4 11.4v29.8c5.7 4.7 11.5 9.2 17 14.1-4.2 4.5-8.4 9.1-12.4 13.8-4.1 5-8 10.7-8.2 17.4-.2 7.6 3 15.8 9.7 19.8 3 1.7 6.6 3.3 10 1.9-4.3-1.5-9.5-4.6-9.2-9.8 1.2-4.9 7.1-8.2 11.9-6.8 5.1 1.4 9.2 5.1 12.5 9.1 13-9.3 26.6-17.7 40.8-25.1-.1-12.6.2-25.2-.1-37.8-6.3-4.4-12.2-9.2-18.4-13.7 6.6-8.3 13.2-17.1 15.9-27.5.9-4.5 1.2-10-2.4-13.3zm-41.8 18.9c4.2 6.1 9.8 11.9 17.4 13.2 7.6 1.8 15-2.3 20-7.8-6.8 12.6-17.4 22.8-28.4 31.8-3-3.1-6.1-6.1-9.1-9.2.2-9.4.1-18.7.1-28zm10.7 37.7c3.3 2.8 6.5 5.6 9.8 8.3 1.5.9.8 2.8 1 4.2-.1 10.8.1 21.7-.1 32.5-2.4-5.5-6.1-10.7-11.3-14-7.5-4.9-17.8-5.2-25.5-.4-3.5 1.9-6.3 4.8-9 7.8 3.8-7.4 9.9-13.2 15.7-19.1 6.6-6.3 13.2-12.6 19.4-19.3zm-1350.3-52c-8.6 5-17 10.5-25.4 15.7-7.2 3.7-14.5 7.3-21.7 10.9 0 20.2 0 40.5.1 60.8-3.1 2.4-6.7 4.1-9.5 6.8.5.3 1.6 1 2.2 1.3 2.4-2.1 4.8-4.2 7.5-6 9 7.4 17.4 15.5 26.3 23 .4-.2 1.3-.7 1.8-.9 15.1-11.7 30.4-23.3 45.5-35l-1.9-1.7c-8.4 6.6-16.6 13.5-24.9 20.1-6.9-6.2-13.6-12.6-20.4-18.9-2.3-1.7-1-5-1.2-7.4 14.1-10.3 28.2-20.7 42.1-31.3-7.1-12.3-13.8-24.8-20.5-37.4zm-21.8 14.9c7.1 11.7 14.3 23.4 21.4 35.2-7.2 5.1-14.3 10.2-21.4 15.3-.1-16.8-.2-33.6 0-50.5zm255.6-14.9c-6.1 4-12.2 8-18.4 11.8-9.1 5.7-19 10-28.5 14.9 0 20.2-.1 40.5 0 60.7-2.9 2.2-6.2 3.9-9 6.2.3.5.9 1.6 1.2 2.1 3.2-2.1 6.3-4.3 9.6-6.3 8.2 7.8 16.5 15.5 24.8 23.3 15.4-11.5 30.6-23.3 45.8-35 2-.4.3-3.6-.9-2.4-8.3 6.4-16.3 13.2-24.5 19.8-6.4-6.3-12.8-12.7-19.1-19.1-2.1-1.8-.8-4.8-1-7.2 13.6-10.1 26.7-20.7 40.4-30.8-6.4-12.9-13.7-25.3-20.4-38zm-20.2 15.3c7 11.4 13.4 23.2 19.9 34.9-6.7 4.9-13.1 10.1-19.7 15.1-.4-16.7-.1-33.3-.2-50zm414.7-15.3c-6.7 3.9-13.3 7.9-19.8 12.1-7.6 4.6-15.9 7.9-24 11.6.2 21.2.1 42.5.1 63.7l-8.1 8.1c.5 0 1.7-.1 2.2-.1 1.9-2.1 3.9-4.1 5.9-6.1 9.1 7.4 18 15 27.1 22.6 1.5 1.4 3.2-.7 4.6-1.2 14.5-7.9 28.2-17.3 43.2-24.4.2-19.8.1-39.6.1-59.4l8.1-8.1c-.5 0-1.6.1-2.1.1-2.5 2.1-5.1 4.1-7.6 6.1-9.9-8.3-19.8-16.7-29.7-25zm-17 14.7c7.1 6.7 14.4 13.3 21.6 20.1-.1 21.1 0 42.1 0 63.2-7.3-6.4-14.3-13.2-21.5-19.8l-.1-63.5z"/><path d="M1871.5 63.4c10.3-15.8 20.8-31.5 31.4-47.1 4.5 3.9 10.2 6.3 16.2 6.9 5.8 0 10.8-3.5 15.2-6.9-1.1 8.5-3.9 17.4-10.5 23.3-5.7 5.2-14.4 6.5-21.6 3.9-4.2-1.4-8.2-3.7-11.7-6.5-.6 1.5-1.1 3-1.5 4.5 14.6 22 29 44.2 43.3 66.4 3.3-2.1 6.2-4.8 9.1-7.5.6.4 1.7 1.1 2.3 1.4-10.3 9.2-21 18.1-31.6 27-13.5-21.7-26.9-43.7-40.6-65.4zm494.6-47.2c-6.4 3.9-12.7 7.7-19 11.7-8.7 6-18.7 9.8-27.9 14.9.1 20.2 0 40.5 0 60.7-3.2 2.1-6.3 4.2-9.5 6.3.4.5 1.2 1.5 1.7 2 2.7-2 5.2-4.4 8.2-6.2 8.2 7.7 16.9 14.9 25.2 22.5.8 1.3 2 0 2.8-.5l45.3-34.8c-1.8-3.1-3.8-.1-5.6 1.2-7.1 5.8-14.2 11.5-21.3 17.3-7.3-6.6-14.3-13.5-21.7-20-.1-2.1-.1-4.2 0-6.2 14.2-10.2 28.1-20.7 42.2-31.2-6.8-12.6-13.5-25.2-20.4-37.7zm-21.9 15.3c7.6 11.3 14.4 23.3 21.6 34.9-7.3 5-14.4 10.3-21.6 15.3.1-16.8 0-33.5 0-50.2zm-561.7-13.6c5.7 5.2 10.5 11.3 15.8 17 5.8-5.5 11.4-11.2 17-17 4.1 2.6 8.3 6.2 13.5 5.2 3.7-.2 5.6-3.8 8.7-5.3 0 7.7-1.8 15.7-6.8 21.6-5.8 6.9-16.8 9-24.5 4.2-3-1.4-5-4.2-7.7-5.9.1 20.9 0 41.8 0 62.8 4.1 3.2 8.2 6.3 12.5 9.4 3.1-2 5.4-5.7 9.3-6.1-9.1 8.7-18.7 17-28.2 25.3-7.2-6.7-14.5-13.3-21.6-20.2-2.8 2.5-5.3 5.2-7.9 7.8-.4-.5-1.3-1.5-1.7-1.9 3.5-3.9 7.3-7.3 10.9-11.1-.1-17.9.1-35.8-.1-53.7-1.9-4.5-5.2-8.4-7.6-12.8-3.3 1.9-5.7 5.9-9.7 6.1 9.2-8.7 18.9-16.8 28.1-25.4zm371.1 22.3c8.5-7.4 16.8-15.1 25.4-22.5 6.1 6.8 12.5 13.3 18.5 20.2 9-6.5 17.7-13.6 26.7-20.2 6.3 6.7 12.4 13.6 18.8 20.2 8.9-6.7 17.6-13.6 26.6-20.2 6.1 6.8 12.4 13.4 18.6 20.2 3.8-2.4 7.2-5.3 11.1-7.6.3 2.2-1.8 3.3-3.2 4.5-2.1 1.7-4.1 3.4-6.1 5.1-.2 18.6 0 37.2-.1 55.9 3.6 3.7 7.2 7.3 10.9 10.8 1.9-2 3.9-4 5.8-6.1.6.4 1.7 1.1 2.3 1.4-9.3 9.2-18.9 18.1-28.5 27-6.8-8-13.8-15.7-20.4-23.8 1.6-1.5 3.2-3 4.7-4.5V52.4c-5.1-5.7-10.2-11.4-15.4-16.9-1.5 1.6-3 3.1-4.5 4.7 0 20.1.1 40.2-.1 60.2 2.5 2.8 5.4 5.4 7.9 8.2-6.9 6.1-13.6 12.6-20.4 18.7-6.4-6.8-12.7-13.6-18.9-20.5 1.8-2.2 5.3-3.8 4.8-7.1-.1-15.7.1-31.3-.1-47-4.3-6-9.1-11.7-14-17.2-1.4 1.5-2.9 3.1-4.4 4.6 0 19.4-.1 38.9.1 58.4 2.1 3.6 5.2 6.5 7.8 9.7-6.7 7.1-13.6 13.9-20.6 20.7-6.7-8-13.6-15.7-20.3-23.6 2.1-1.6 4.2-3.2 6.3-4.9-.1-16.4-.1-32.9 0-49.3-3.9-4.9-8.3-9.4-12.4-14.2-2.9 2.2-5.5 4.9-8.9 6.5-.5-1.5 1-2.2 2-3.2z"/><path d="M2094.4 41.5c8.8-8.1 17.9-15.8 26.8-23.8 6.3 7.2 12.5 14.6 18.8 21.8 3.3-2.6 6.2-5.6 9.8-7.7-.3 1.2-.6 2.3-1.7 3-2.7 2.2-5.4 4.5-8.1 6.7 0 18.7-.1 37.3.1 55.9 3.6 4 7.2 8 10.6 12.2 2.8-1.7 5.1-4 7.7-5.9.6.3 1.7.9 2.2 1.2-8.8 8.2-17.9 16.1-27.1 23.9-6.1-7.3-12.3-14.5-18.6-21.7-2.7 2.5-5 5.4-7.9 7.6-.4-.4-1.3-1.2-1.7-1.6 2.6-2.5 5.1-5.2 7.8-7.6.2-16.9 0-33.9.1-50.8-.2-2.4.6-5.2-1.2-7-3.3-4.1-6.3-8.3-9.7-12.2-2.6 2.1-5.1 4.3-7.9 6z"/></svg>
