<svg height="32" width="32" xmlns="http://www.w3.org/2000/svg"><g fill="none" stroke="#111" stroke-linecap="square" stroke-miterlimit="10" stroke-width="2"><path d="M20.456 3.723l7.79 7.79M17.3 5.371C12.75 3.723 8 4.708 4 10l4.164 4.174m9.662 9.662L22 28c5.292-4 6.277-8.75 4.629-13.3" stroke-linecap="butt"/><path d="M14 26l-8-8S12.493 2.292 30.656 1.344C29.629 19.429 14 26 14 26z"/><circle cx="18.5" cy="13.5" r="2.5"/><path d="M2.879 24.879a3 3 0 014.242 4.242c-1.171 1.172-5.949 1.707-5.949 1.707s.535-4.778 1.707-5.949z"/></g></svg>