<?xml version="1.0" encoding="utf-8"?>
<!-- Generator: Adobe Illustrator 24.0.2, SVG Export Plug-In . SVG Version: 6.00 Build 0)  -->
<svg version="1.1" id="Calque_1" xmlns="http://www.w3.org/2000/svg" xmlns:xlink="http://www.w3.org/1999/xlink" x="0px" y="0px"
	 viewBox="0 0 2192 2500" style="enable-background:new 0 0 2192 2500;" xml:space="preserve">
<style type="text/css">
	.st0{fill-rule:evenodd;clip-rule:evenodd;fill:#6772E5;}
</style>
<path class="st0" d="M922.7,754.8c0-104.6,87-145.1,227.7-145.1c232.8,5,461.2,64.1,667.2,172.6V150.9
	c-212.4-83.5-439-125.1-667.2-122.6c-542.1,0-905.7,284-905.7,758.1c0,741.9,1018.8,621.4,1018.8,941.2
	c0,125.1-106.9,163.9-257.3,163.9c-221.8,0-508.3-91.8-733-214v639.7c231.4,100.7,480.8,153.2,733.1,154.4
	c557.2,0,941.3-275.3,941.3-757.7c0-800.7-1024.7-657.7-1024.7-959L922.7,754.8z"/>
</svg>
