<svg xmlns="http://www.w3.org/2000/svg" xmlns:xlink="http://www.w3.org/1999/xlink" viewBox="0 0 118.49 37.68" alt="Bard College Logo">
  <path d="M40.1,12.4c-.07-3-2-3.62-3.59-3.62a9.9,9.9,0,0,0-2.29.28V17c2.46.28,6,.38,5.88-4.58m1.3,10.77c-.1-5.84-6.55-4.57-7.18-4.57v9.71c3.1,1,7.29.42,7.18-5.14m15.52,2.15c.14-1.16.11-3.38.11-3.2a12.39,12.39,0,0,0-3.31.28c-.95.24-2.68,1-2.39,3.76.17,1.66.91,2.47,2.28,2.47a3.43,3.43,0,0,0,3.31-3.31M90,22.15c0-4.12-1.09-6.44-3.56-6.58-2.67-.14-3.73,3-3.84,6.69S83.46,29,86.1,29c1.3,0,3.91-1.8,3.91-6.83m6.23,7.57c-1.41,0-6.09.32-6.09.32l-.25-2.93a5.28,5.28,0,0,1-4.36,3.21c-5.35.28-7.43-3.7-7.25-8.38.17-5.14,3.16-7.64,7.6-7.53A4.61,4.61,0,0,1,90,16.77V7.09L87.4,6.42V5.79l6.27-.53V28.17l2.57.91ZM77.44,15.15,76.17,18.6c-.81-1.38-1.47-2-2.35-2-2.26-.18-3.21,1.37-3.21,5v6.65l3.06.88v.63H64.59v-.63l2.29-.95V16.48l-2.39-.66v-.64l5.7-.6.35,2.36a5.33,5.33,0,0,1,3.13-2.36,5,5,0,0,1,3.77.57M63.36,29.65c-1.44,0-6.09.39-6.09.39L57,27.29a5.09,5.09,0,0,1-4.82,3c-2.36.07-4.5-1.27-4.75-3.77-.32-3.17,2.71-4.86,5.59-5.31a25.05,25.05,0,0,1,4-.29V18.63a2.81,2.81,0,0,0-2.92-2.92c-2.19,0-3.31,2.36-4,3.7l-1.9-2.54A8.89,8.89,0,0,1,54,14.51c.59,0,4.22-.24,5.77,1.59,1,1.16,1,2.32,1,3.94v8.13l2.57.81ZM39,17.54c3.7.32,7,2.43,6.8,6.34C45.55,28,41.79,30,37,29.82c-2.08-.1-4.89-.17-9.78-.14v-.63s3-1,3-1V9.3l-2.81-1V7.72c4,0,4.68,0,4.68,0,2.08,0,3.34-.17,5.38-.17,3.63,0,7,1.12,6.94,4.82C44.36,15.53,41.61,17,39,17.54"></path>
</svg>