<svg viewBox="0 0 475 180" xmlns="http://www.w3.org/2000/svg"><path d="M165.5 108.6c0 4.4-1.1 7.8-3.3 10.3-2.2 2.5-5.3 3.7-9.4 3.7-4.1 0-7.3-1.3-9.5-3.7-2.2-2.4-3.3-5.9-3.3-10.4s1.1-7.9 3.3-10.3c2.2-2.4 5.3-3.6 9.5-3.6 4 0 7.2 1.3 9.4 3.7 2.2 2.4 3.3 5.8 3.3 10.3Zm-20.8 0c0 3.4.7 5.9 2 7.6 1.3 1.8 3.4 2.6 6 2.6s4.6-.9 6-2.6c1.3-1.7 2-4.3 2-7.6 0-3.4-.7-5.9-2-7.6-1.3-1.8-3.3-2.6-5.9-2.6-2.6 0-4.7.9-6 2.6-1.4 1.7-2.1 4.2-2.1 7.6Zm35.7 14c-2.6 0-4.6-1-6.1-2.8h-.3c.1 1.8.3 2.8.3 3.2v8.4h-4.4v-29.8h3.5c.1.4.3 1.3.6 2.8h.2c1.4-2 3.5-3.1 6.2-3.1 2.6 0 4.5.9 6 2.8 1.5 1.8 2.1 4.5 2.1 7.8 0 3.4-.7 6-2.2 7.8-1.3 1.9-3.3 2.9-5.9 2.9Zm-1-17.8c-1.8 0-3 .5-3.8 1.5-.8 1-1.2 2.6-1.2 4.9v.7c0 2.5.4 4.3 1.2 5.4.8 1.1 2.1 1.7 3.9 1.7 1.5 0 2.7-.6 3.5-1.8.8-1.2 1.2-3 1.2-5.3s-.4-4-1.2-5.2c-.9-1.3-2.1-1.9-3.6-1.9Zm22.4 17.8c-3.2 0-5.7-1-7.5-2.8-1.8-1.8-2.7-4.5-2.7-7.7 0-3.4.8-6 2.5-7.9 1.7-1.9 3.9-2.9 6.9-2.9 2.7 0 4.8.8 6.4 2.5 1.5 1.7 2.4 3.9 2.4 6.8v2.4h-13.7c.1 2 .6 3.5 1.6 4.6 1 1.1 2.4 1.6 4.3 1.6 1.3 0 2.3-.1 3.4-.4 1-.2 2.2-.6 3.4-1.2v3.5c-1.1.5-2.1.9-3.2 1.1-1.1.3-2.4.4-3.8.4Zm-.8-18c-1.4 0-2.5.4-3.4 1.3-.8.9-1.3 2.2-1.5 3.9h9.3c0-1.7-.4-3-1.3-3.9-.6-.9-1.7-1.3-3.1-1.3Zm31 17.6h-4.4v-12.7c0-1.6-.3-2.8-1-3.5-.7-.7-1.7-1.2-3.1-1.2-1.8 0-3.2.5-4 1.6-.9 1.1-1.3 2.9-1.3 5.5v10.3h-4.4v-20.6h3.4l.6 2.7h.2c.6-1 1.5-1.8 2.6-2.3 1.2-.5 2.4-.8 3.8-.8 4.9 0 7.4 2.5 7.4 7.5ZM246.6 95h8.1c3.7 0 6.4.5 8.1 1.6 1.7 1.1 2.5 2.8 2.5 5.2 0 1.6-.4 2.9-1.2 4-.8 1-2 1.7-3.5 2v.2c1.9.4 3.3 1.1 4.3 2.1s1.3 2.5 1.3 4.3c0 2.4-.9 4.3-2.6 5.7-1.7 1.4-4.1 2.1-7.1 2.1h-9.8V95Zm4.5 11.2h4.3c1.8 0 3.2-.3 4.1-.9.9-.6 1.3-1.6 1.3-3 0-1.2-.4-2.2-1.4-2.8-.9-.6-2.4-.9-4.4-.9h-3.9Zm0 3.7v8.6h4.7c1.8 0 3.3-.4 4.3-1.1.9-.7 1.4-1.8 1.4-3.4 0-1.4-.5-2.5-1.5-3.1-1-.7-2.4-1-4.4-1Zm29.7-8.6c.9 0 1.6.1 2.2.2l-.4 4.1c-.6-.1-1.2-.2-1.9-.2-1.8 0-3.2.6-4.2 1.7-1.1 1.2-1.6 2.6-1.6 4.5v10.8h-4.4v-20.7h3.4l.6 3.7h.2c.7-1.2 1.5-2.2 2.6-2.9 1.1-.9 2.2-1.2 3.5-1.2Zm23.4 10.6c0 3.4-.9 6-2.6 7.8-1.8 1.9-4.1 2.9-7.2 2.9-1.9 0-3.6-.4-5.1-1.3-1.5-.9-2.6-2.1-3.4-3.7-.8-1.6-1.2-3.5-1.2-5.7 0-3.4.9-5.9 2.6-7.8 1.7-1.9 4.1-2.8 7.3-2.8 3 0 5.3.9 7 2.9 1.7 1.8 2.6 4.5 2.6 7.7Zm-15 0c0 4.8 1.8 7.1 5.3 7.1 3.4 0 5.2-2.3 5.2-7.1 0-4.7-1.8-7-5.3-7-1.8 0-3.2.6-4 1.8-.8 1.2-1.2 2.9-1.2 5.2Zm32 10.3-.9-2.9h-.1c-1 1.2-2 2.1-3 2.6-1 .4-2.3.7-3.9.7-2 0-3.6-.5-4.8-1.6-1.1-1.1-1.7-2.6-1.7-4.6 0-2.1.8-3.7 2.4-4.8 1.5-1.1 3.9-1.7 7.2-1.8l3.5-.1v-1.1c0-1.3-.3-2.3-1-2.9-.7-.7-1.5-1-2.9-1-1 0-2 .1-3 .4-1 .3-1.9.7-2.8 1.1l-1.4-3.2c1.1-.6 2.4-1 3.7-1.3 1.3-.3 2.6-.4 3.7-.4 2.6 0 4.6.6 5.9 1.7 1.3 1.2 2 2.9 2 5.3v13.9Zm-6.6-2.9c1.6 0 2.9-.4 3.8-1.3.9-.9 1.5-2.1 1.5-3.7v-1.8l-2.6.1c-2 .1-3.6.4-4.5 1-.9.6-1.4 1.5-1.4 2.8 0 .9.3 1.6.8 2.1.5.6 1.3.8 2.4.8Zm21.8 3.3c-2.6 0-4.5-1-6-2.8-1.5-1.8-2.1-4.5-2.1-7.8 0-3.4.7-6 2.2-7.9 1.5-1.9 3.4-2.8 6.1-2.8 2.7 0 4.8 1 6.2 3h.2c-.2-1.5-.3-2.6-.3-3.5v-7.5h4.4v29h-3.5l-.7-2.7h-.2c-1.5 2-3.6 3-6.3 3Zm1.2-3.5c1.8 0 3.1-.5 4-1.5.8-1 1.3-2.6 1.3-4.9v-.7c0-2.6-.4-4.5-1.3-5.5-.9-1.1-2.2-1.6-4-1.6-1.5 0-2.7.7-3.5 1.9-.8 1.2-1.2 3-1.2 5.4 0 2.3.4 4 1.2 5.2.7 1.1 1.9 1.7 3.5 1.7Zm23 3.5c-3.1 0-5.5-.9-7.1-2.7-1.6-1.8-2.4-4.4-2.4-7.8 0-3.4.9-6.2 2.6-8 1.7-1.8 4.1-2.8 7.3-2.8 2.2 0 4.1.4 5.9 1.2l-1.3 3.5c-1.8-.7-3.4-1.1-4.5-1.1-3.6 0-5.4 2.4-5.4 7.1 0 2.3.4 4 1.3 5.2.9 1.2 2.2 1.8 3.9 1.8 2 0 3.8-.5 5.5-1.5v3.8c-.8.4-1.6.8-2.5 1-.9.1-2 .3-3.3.3Zm22.6-.4-.9-2.9h-.1c-1 1.2-2 2.1-3 2.6-1 .4-2.3.7-3.9.7-2.1 0-3.6-.5-4.8-1.6-1.1-1.1-1.7-2.6-1.7-4.6 0-2.1.8-3.7 2.3-4.8 1.5-1.1 4-1.7 7.2-1.8l3.5-.1v-1.1c0-1.3-.3-2.3-1-2.9-.7-.7-1.5-1-2.9-1-1 0-2 .1-3 .4-1 .3-1.9.7-2.8 1.1l-1.4-3.2c1.1-.6 2.3-1 3.7-1.3 1.3-.3 2.6-.4 3.7-.4 2.6 0 4.6.6 5.9 1.7 1.3 1.2 2 2.9 2 5.3v13.9Zm-6.5-2.9c1.6 0 2.9-.4 3.8-1.3.9-.9 1.5-2.1 1.5-3.7v-1.8l-2.6.1c-2.1.1-3.6.4-4.5 1-.9.6-1.4 1.5-1.4 2.8 0 .9.3 1.6.8 2.1.5.6 1.3.8 2.4.8Zm28.6-2.9c0 2-.7 3.5-2.2 4.6-1.5 1.1-3.6 1.6-6.3 1.6-2.7 0-4.9-.4-6.6-1.3v-3.8c2.4 1.1 4.7 1.7 6.8 1.7 2.7 0 4-.8 4-2.4 0-.5-.1-1-.4-1.3-.3-.4-.8-.7-1.5-1.1-.7-.4-1.6-.8-2.9-1.2-2.3-1-3.9-1.8-4.8-2.8-.8-1-1.3-2.1-1.3-3.6 0-1.8.7-3.1 2.1-4.1 1.4-1 3.4-1.5 5.8-1.5s4.7.5 6.9 1.5l-1.4 3.3c-2.2-1-4.1-1.4-5.6-1.4-2.3 0-3.4.7-3.4 2 0 .7.3 1.2.9 1.6.6.4 1.9 1 3.9 1.8 1.7.7 2.9 1.2 3.7 1.8.7.5 1.3 1.2 1.7 1.9.4.8.6 1.7.6 2.7Zm11.5 2.7c1.1 0 2.1-.2 3.2-.5v3.3c-.5.2-1.1.4-1.9.5-.7.1-1.5.2-2.3.2-4.2 0-6.2-2.2-6.2-6.5V105h-2.8v-1.9l3-1.6 1.5-4.3h2.7v4.5h5.9v3.3H414v11c0 1 .3 1.8.8 2.3.4.5 1.2.8 2 .8Zm15.4 3.5c-3.2 0-5.7-1-7.5-2.8-1.8-1.8-2.7-4.5-2.7-7.7 0-3.4.8-6 2.5-7.9 1.7-1.9 3.9-2.9 6.9-2.9 2.7 0 4.8.8 6.5 2.5 1.5 1.7 2.3 3.9 2.3 6.8v2.4h-13.7c.1 2 .6 3.5 1.6 4.6 1 1.1 2.4 1.6 4.3 1.6 1.2 0 2.4-.1 3.4-.4 1-.2 2.2-.6 3.4-1.2v3.5c-1.1.5-2.1.9-3.2 1.1-1.2.3-2.4.4-3.8.4Zm-.8-18c-1.4 0-2.5.4-3.4 1.3-.8.9-1.3 2.2-1.5 3.9h9.4c0-1.7-.4-3-1.3-3.9-.8-.9-1.9-1.3-3.2-1.3Zm23.3-3.3c.9 0 1.6.1 2.2.2l-.4 4c-.6-.1-1.3-.2-1.9-.2-1.8 0-3.2.6-4.3 1.7-1.1 1.2-1.6 2.6-1.6 4.5v10.8h-4.4v-20.6h3.4l.6 3.7h.2c.7-1.2 1.5-2.2 2.6-2.9 1.1-.9 2.3-1.2 3.6-1.2ZM173.9 57.8c0 5.8-1.4 10.3-4.3 13.3s-7 4.5-12.5 4.5c-5.4 0-9.6-1.5-12.5-4.5-2.9-3-4.3-7.5-4.3-13.3 0-5.7 1.5-10.1 4.3-13.2 2.8-3 7-4.5 12.5-4.5s9.7 1.5 12.5 4.5c2.8 3 4.3 7.4 4.3 13.2Zm-23.8 0c0 6.7 2.4 10 7 10 2.3 0 4.1-.8 5.3-2.4 1.2-1.6 1.7-4.2 1.7-7.6 0-3.4-.6-6-1.8-7.6-1.2-1.6-2.9-2.5-5.2-2.5-4.6 0-7 3.3-7 10.1Zm29.5-17.2h12c4.7 0 8.2.7 10.5 2.1 2.3 1.4 3.5 3.6 3.5 6.5 0 1.9-.5 3.6-1.5 5s-2.3 2.3-3.9 2.6v.2c2.1.6 3.7 1.5 4.6 2.9 1 1.3 1.5 3 1.5 5.1 0 3.1-1.2 5.6-3.5 7.4-2.4 1.8-5.6 2.7-9.6 2.7h-13.4V40.5h-.2Zm9.4 13.2h2.8c1.3 0 2.3-.3 3.1-.8.7-.6 1.1-1.4 1.1-2.5 0-1.9-1.5-2.9-4.4-2.9H189Zm0 6.8v7.3h3.3c2.9 0 4.4-1.3 4.4-3.7 0-1.2-.4-2-1.2-2.6-.8-.6-1.9-1-3.4-1Zm45.4 4c0 2.1-.5 4-1.6 5.7-1.1 1.7-2.6 2.9-4.7 3.9s-4.5 1.4-7.2 1.4c-2.3 0-4.3-.1-5.8-.5s-3.1-.9-4.8-1.7v-8.3c1.8.9 3.7 1.6 5.6 2.1 1.9.5 3.7.7 5.3.7 1.4 0 2.4-.2 3.1-.7.7-.5 1-1.1 1-1.8 0-.4-.1-.9-.4-1.2-.3-.4-.7-.7-1.2-1.1-.6-.4-2.1-1.1-4.6-2.2-2.3-1-4-2-5.1-3-1.1-1-2-2-2.5-3.3-.5-1.2-.8-2.7-.8-4.4 0-3.2 1.2-5.6 3.4-7.5 2.4-1.8 5.5-2.6 9.5-2.6 3.6 0 7.2.8 10.9 2.5l-2.9 7.2c-3.2-1.5-6-2.2-8.4-2.2-1.2 0-2.1.2-2.6.7-.5.4-1 .9-1 1.6 0 .7.4 1.3 1 1.8.7.5 2.6 1.5 5.7 2.9 3 1.3 5.1 2.8 6.2 4.3 1.3 1.5 1.9 3.4 1.9 5.7Z"/><path fill="none" stroke="#000" stroke-width="2.118" d="M67.1 39c24.9 0 45 20.1 45 45s-20.1 45-45 45c-24.8 0-45-20-45-44.9C22 59.3 42.2 39 67.1 39Z"/><path fill-rule="evenodd" d="M67.1 126.2c-23.2 0-42.1-18.8-42.1-42.1C25 60.9 43.8 42 67.1 42c23.2 0 42.1 18.8 42.1 42.1 0 23.2-18.9 42.1-42.1 42.1Zm-9.5-48.5c9.1 5.2 20.6 2.1 25.8-7 .3 0 .5 0 .9.1 3.2.3 6.3 1.2 9.1 2.7 2.7 1.5 5.1 3.5 7.1 5.9 2.6 3.3 4.3 7.3 4.9 11.4-.2-.7-.4-1.5-.7-2.3-.3-.7-.6-1.4-1-2-.2-.5-.5-1-.8-1.4-.1-.3-.3-.5-.5-.8-.1-.2-.2-.3-.4-.5l-.9-1.1c-.3-.4-.6-.7-1-1-.2-.1-.4-.3-.5-.4-.2-.1-.3-.3-.5-.4l-.3-.3c-.2-.2-.4-.4-.7-.5-.3-.2-.7-.4-1-.7l-.6-.3-.6-.3c-.4-.2-.7-.4-1.2-.6-.4-.2-.7-.4-1.2-.5-.2-.1-.4-.1-.6-.2-.2 0-.4-.1-.6-.2-.2 0-.3-.1-.5-.1-.2-.1-.5-.1-.8-.2l-1.3-.2c-.4-.1-.9-.1-1.3-.1-.4-.1-.9-.1-1.4-.1-6.8 0-13.1 3.7-16.4 9.8-1 1.8-1.7 3.7-2.1 5.7-.4 2.3-.4 4.7 0 7 .2 1.1.5 2.1.9 3.2.1.3.2.5.3.7.1.2.2.5.3.7.1.1.1.2.2.4.1.1.1.3.2.4v.4l-.1.1c0 .1-.1.1-.1.1-1.5 2.4-3.4 4.4-5.6 6-3 2.3-6.5 3.7-10.3 4.3-2.1.3-4.2.4-6.3.1-2.3-.3-4.5-1-6.5-1.8.2.1.5.1.7.2.2.1.5.1.7.2.7.1 1.5.3 2.2.4 4 .5 8.2-.4 11.7-2.5 1.8-1 3.4-2.4 4.7-4 2.3-2.8 3.9-6.1 4.4-9.7.2-1.9.2-3.8-.1-5.7-1.4-8.5-8.3-15-16.9-15.8-.4-.1-.9-.1-1.3-.1h-.8c-.1 0-.1-.1-.1-.1v-.2l-.1-.1s0-.1-.1-.1c-5.4-11.2-1-24.6 10-30.5-.2.1-.3.2-.5.3-.5.4-1 .7-1.5 1.2-.4.4-.9.8-1.3 1.2-.3.3-.6.6-.9 1l-.3.3c-.4.4-.7.9-.9 1.3l-.9 1.5c-.3.5-.5 1-.7 1.5l-.6 1.5c-.1.3-.1.5-.2.8-.1.3-.1.6-.2.8-.1.4-.2 1-.3 1.4v.2c-.1.5-.1 1.1-.1 1.6-.3 4.8 1.5 9.7 4.7 13.3 1.3 1.4 2.6 2.6 4.3 3.6.1 0 .2.1.3.1.1.3.2.3.2.4ZM57 45.4c-.1.1-.2.1-.4.2.1-.1.2-.1.4-.2Z"/></svg>