<svg viewBox="0 0 770 129" fill="none" xmlns="http://www.w3.org/2000/svg">
<g clip-path="url(#clip0_5305_8517)">
<path d="M125.137 84.6113L127.483 85.3578C125.563 95.276 116.712 103.701 106.794 103.701C89.1969 103.701 79.0654 87.8107 79.0654 72.1337C79.0654 56.4566 89.0902 41.0995 104.661 41.0995C120.231 41.0995 127.376 55.1769 127.376 68.0811H94.2092V73.5201C94.2092 85.3578 95.2757 100.715 108.5 100.715C121.724 100.715 123.537 92.8231 125.03 84.6113M112.126 65.2017V56.03C112.126 48.6714 110.206 43.659 104.234 43.659C98.2618 43.659 94.2092 48.9914 94.2092 56.03V65.2017H112.233H112.126ZM227.731 42.0593V44.7255H219.839L233.596 81.9452L245.754 44.7255H237.116V42.0593H254.392V44.7255H248.42L228.477 104.661H226.878L204.695 44.7255H198.51V42.0593H227.837H227.731ZM402.204 71.3871C400.818 82.4784 394.099 100.822 379.489 100.822C364.878 100.822 359.333 89.7303 359.333 52.2974C359.333 14.8645 365.198 3.55995 378.956 3.55995C392.713 3.55995 396.765 19.4503 400.285 35.3406H403.591V1.00043H400.925C400.711 2.92007 400.605 5.90617 398.472 5.90617C396.339 5.90617 388.554 0.253906 378.849 0.253906C351.654 0.253906 339.176 22.1164 339.176 52.0841C339.176 82.0518 353.147 104.128 379.062 104.128C404.977 104.128 403.911 84.5047 404.977 72.027L402.204 71.2805V71.3871ZM195.417 102.635V99.8618H189.018V42.166H167.795V44.8322H175.154V80.9853C175.154 88.3439 170.888 99.1152 163.316 99.1152C155.744 99.1152 156.064 92.0766 156.064 87.1708V42.166H134.735V44.8322H142.307V85.2512C142.307 96.2358 147.213 103.808 158.41 103.808C169.608 103.808 172.914 98.4754 175.154 91.4367H175.474V102.741H195.204L195.417 102.635ZM435.691 99.8618V1.00043H414.469V3.6666H422.041V99.8618H414.256V102.635H443.37V99.8618H435.585H435.691ZM564.627 100.715C556.842 100.715 554.709 93.463 554.709 72.1337C554.709 50.8044 556.522 43.7657 564.734 43.7657C572.946 43.7657 577.638 57.5231 577.638 72.6669C577.638 87.8107 572.519 100.715 564.627 100.715ZM300.144 84.6113L302.49 85.3578C300.57 95.276 291.719 103.701 281.801 103.701C264.204 103.701 254.072 87.8107 254.072 72.1337C254.072 56.4566 264.097 41.0995 279.668 41.0995C295.238 41.0995 302.383 55.1769 302.383 68.0811H269.216V73.5201C269.216 85.3578 270.283 100.715 283.507 100.715C296.731 100.715 298.544 92.8231 300.037 84.6113M287.133 65.2017V56.03C287.133 48.6714 285.213 43.659 279.241 43.659C273.269 43.659 269.216 48.9914 269.216 56.03V65.2017H287.239H287.133ZM598.861 128.336V125.564H590.756V44.7255H597.261V42.0593H577.318V51.9775H577.105C574.972 46.0053 571.133 40.9929 564.627 40.9929C547.99 40.9929 539.352 55.0702 539.352 72.027C539.352 88.9838 547.457 103.594 563.561 103.594C579.664 103.594 574.865 98.1554 576.785 92.8231H577.105V125.457H569V128.23H598.861V128.336ZM663.915 102.635V99.8618H657.516V42.166H636.294V44.8322H643.759V80.9853C643.759 88.3439 639.493 99.1152 631.921 99.1152C624.349 99.1152 624.669 92.0766 624.669 87.1708V42.166H604.3V44.8322H610.912V85.2512C610.912 96.2358 615.817 103.808 627.015 103.808C638.213 103.808 641.519 98.4754 643.759 91.4367H644.079V102.741H663.808L663.915 102.635Z" fill="currentColor"></path>
<path d="M767.149 87.5975L769.281 88.344C768.002 96.6624 762.563 103.701 753.604 103.701C744.646 103.701 737.927 96.4491 737.927 86.2111V44.7256H730.355V42.0594H737.927V25.9558L751.472 18.5972V42.0594H764.696V44.7256H751.472V88.6639C751.472 93.463 752.538 99.7552 757.444 99.7552C762.349 99.7552 766.295 91.65 767.149 87.5975Z" fill="currentColor"></path>
<path d="M698.149 40.9932C682.472 40.9932 670.954 55.4971 670.954 72.2406C670.954 88.9841 682.365 103.595 698.149 103.595C713.933 103.595 725.344 88.9841 725.344 72.2406C725.344 55.4971 713.826 40.9932 698.149 40.9932ZM698.149 100.929C688.444 100.929 686.098 93.0367 686.098 72.134C686.098 51.2312 688.444 43.5527 698.149 43.5527C707.854 43.5527 710.093 51.3379 710.093 72.134C710.093 92.93 707.747 100.929 698.149 100.929Z" fill="currentColor"></path>
<path d="M459.367 99.7553H451.582V102.528H480.697V99.7553H473.018V42.0596H451.582V44.7257H459.367V99.7553Z" fill="currentColor"></path>
<path d="M457.447 16.3576C457.447 21.4766 460.647 24.2494 465.339 24.2494C470.032 24.2494 473.444 21.4766 473.444 16.3576C473.444 11.2385 470.138 8.25244 465.339 8.25244C460.54 8.25244 457.447 11.2385 457.447 16.3576Z" fill="currentColor"></path>
<path d="M501.386 72.0273C501.386 92.8234 504.052 100.609 513.757 100.609C523.462 100.609 528.794 92.7167 530.287 84.505L532.634 85.2515C530.714 95.1696 521.862 103.595 511.944 103.595C494.348 103.595 486.136 87.7043 486.136 72.0273C486.136 56.3503 497.973 40.9932 513.651 40.9932C529.328 40.9932 532.207 47.8185 532.207 57.0968C532.207 66.375 529.008 65.4152 525.488 65.4152C521.969 65.4152 518.556 63.4956 518.556 59.443C518.556 53.5775 524.209 43.766 513.224 43.766C502.239 43.766 501.173 51.3379 501.173 72.134" fill="currentColor"></path>
<path d="M43.3391 0.787109V3.55992H32.0346L56.6699 78.959L83.0116 3.55992H72.027V0.787109H97.089V3.55992H86.531L51.5509 104.554H46.9651L12.4116 3.55992H0.253906V0.787109H43.3391Z" fill="currentColor"></path>
</g>
<defs>
<clipPath id="clip0_5305_8517">
<rect width="769.028" height="128.082" fill="white" transform="translate(0.253906 0.253906)"></rect>
</clipPath>
</defs>
</svg>