<svg class="overlay-logo-element" viewBox="0 0 456 239" xmlns="http://www.w3.org/2000/svg">
	<g fill-rule="evenodd" id="chateau-royal-logo">
		<path d="m61.0986 21.2729l6.5461 22.8034-1.9641.8728c-5.4572-14.1832-12.3295-20.5111-27.0608-20.5111-18.5483 0-32.51567 16.5834-32.51567 37.3116 0 22.3647 16.91367 37.8571 34.15357 37.8571 12.658 0 19.5326-5.2369 26.7389-13.63l1.6368 1.4184c-8.5103 9.9282-16.2578 14.7289-28.5884 14.7289-23.0233 0-40.045-16.911-40.045-40.3667 0-22.2556 18.9858-39.6027 38.9538-39.6027 1.1046667 0 2.2475714.0365158 3.4024359.0951935l.6941436.0377513.6957525.0423811c.1160228.0074111.2320601.0149864.3480855.0227115l.695801.0480341c.3476195.0248014.6946598.050693 1.0404115.0772874l.6895748.0540108c6.7597888.5380623 12.8381952 1.2479957 12.8381952-.8181697l1.7404-.4409m347.2114 2.8377v1.8547c-8.399 0-10.692 1.7456-10.692 9.4918l-.11 36.5479c-.109 22.0374 10.148 26.8379 23.679 26.8379 16.364 0 21.384-10.9101 21.384-29.3472v-30.9837c0-9.2736-4.584-12.5467-11.895-12.5467v-1.8547h25.317v1.8547c-7.31 0-10.801 3.4913-10.801 12.4376v31.0928c0 22.2611-8.73 32.6203-26.297 32.6203-19.096 0-27.279-9.0599-27.279-30.4394v-36.2195c0-7.9644-3.494-9.4918-11.133-9.4918v-1.8547h27.827m-228.265-8.7238l23.568 64.7997c6.439 17.6744 6.984 18.4381 14.84 18.4381v1.8584h-24.006v-1.854c.08075 0 .160856-.0000109.240318-.0000476l.469032-.0006476c7.457486-.019303 8.83897-.5600848 3.54665-15.1644048l-3.297-9.0554h-30.531l-4.147 10.4693c-4.147 10.3647-4.474 13.7468 7.42 13.7468v1.8534h-22.265v-1.8534c7.528 0 8.948-5.455 12.548-14.5105l21.18-53.0916-4.261-11.708c1.528-.3273 3.269-2.5093 3.71-3.9277h.985m171.195 0l23.569 64.7997c6.438 17.6744 6.984 18.4381 14.84 18.4381v1.8584h-24.006v-1.854c.08075 0 .160856-.0000109.240318-.0000476l.469032-.0006476c7.457486-.019303 8.83897-.5600848 3.54665-15.1644048l-3.296-9.0554h-30.675l-4.11 10.4693c-4.038 10.3647-4.474 13.7468 7.419 13.7468v1.8534h-64.597v-1.8534c7.311 0 9.711-1.5274 9.711-8.4008v-55.9668c0-6.7643-2.618-8.1826-9.711-8.1826v-1.9639l38.252289.0003613c.644873.0016209 1.242167.0082298 1.79265.0102365l.460396.0003692c3.591745-.0096412 4.992734-.3645187 4.450665-4.156767l1.746-.4408 7.748 23.2375-1.855.551c-6.766-16.0379-8.839-16.9107-26.952-16.9107-7.093 0-10.148 1.091-10.148 7.8553v25.4217h16.149c5.128 0 6.329-3.7116 6.329-11.0203h1.746v24.2205h-1.746c0-7.8564-1.419-11.0203-6.22-11.0203h-16.258v28.3652c0 6.8734 2.073 8.4008 10.148 8.4008h12.657c9.384 0 11.567-3.3821 16.041-14.2923l21.775-53.4564-4.208-11.5614c1.528-.3273 3.269-2.5093 3.71-3.9277h.982m-138.691 5.2248l1.746.4408c-.438 1.9638 2.073 3.0548 7.201 3.0548h36.776c5.129 0 7.643-1.3092 7.202-3.0548l1.745-.4375 7.857 22.2611-1.855.5444c-5.674-13.7457-7.639-16.9096-19.751-16.9096-7.201 0-10.802 1.2001-10.802 7.7462v55.9668c0 6.8734 2.29 8.4008 10.692 8.4008v1.8534h-27.279v-1.8534c7.31 0 10.802-1.5274 10.802-8.4008v-55.9668c0-6.437-3.489-7.7462-10.582-7.7462-12.112 0-13.967 3.1639-19.754 16.9063l-1.855-.5444 7.857-22.2611m-115.879 3.499v1.8547c-8.4012 0-10.6916 1.5274-10.6916 8.4008v24.765h40.8086v-24.765c0-6.8734-3.491-8.4008-10.802-8.4008v-1.8547h27.281v1.8547c-8.401 0-10.692 1.5274-10.692 8.4008v55.8578c0 6.8734 2.289 8.4008 10.692 8.4008v1.8533h-27.279v-1.8533c6.982 0 10.801-1.5274 10.801-8.4008v-28.6926h-40.8085v28.6926c0 6.8734 2.2893 8.4008 10.6916 8.4008l-.0033 1.8533h-27.279v-1.8533c7.31 0 10.8018-1.5274 10.8018-8.4008v-55.8578c0-6.8734-3.4907-8.4008-10.8018-8.4008v-1.8547h27.2812m84.022 9.8885l-14.95 38.115h28.823l-13.873-38.115m171.15-.1444l-15.015 38.2594h28.942l-13.927-38.2594m-170.933-33.8547l12.985 11.7819-.546 1.091-12.984-8.29174-13.095 8.29174-.545-1.091 13.203-11.7819h.982" id="chateau"></path>
		<path d="m110.966 117.281c16.476 0 25.533 6.981 25.533 18.001 0 9.082-5.812 15.287-14.638 18.152 6.205 17.228 24.493 41.96 52.829 41.96 21.387 0 39.828-13.201 43.54-36.875h1.418c-2.619 24.437-23.132 40.693-44.956 40.693-31.166 0-51.746-25.075-58.502-44.458-2.234.333-4.49.497-6.75.492h-11.6755v28.037c0 6.982 2.3985 8.509 10.6915 8.509v1.854h-27.1697v-1.854c7.311 0 10.8018-1.636 10.8018-8.509v-55.531c0-7.2-3.4908-8.619-10.8018-8.619v-1.852m277.4807-.001v1.854c-8.4 0-10.691 1.528-10.691 8.401v55.858c0 6.873 2.073 8.4 10.148 8.4 23.569 0 25.642-1.309 32.405-17.341l1.855.546-7.747 23.128-1.746-.441c.655-4.582-1.528-4.038-6.875-4.038h-43.538v-1.854c7.31 0 9.711-1.527 9.711-8.4v-55.859c0-6.873-3.491-8.401-10.802-8.401v-1.853h27.28m-67.105-8.726l23.569 64.8c6.438 17.676 6.984 18.439 14.847 18.448v1.855h-24.006v-1.855c.08075 0 .160856-.000011.240318-.000048l.469029-.000647c7.45743-.019296 8.837973-.559955 3.545653-15.163305l-3.295-9.056h-30.642l-4.146 10.47c-4.147 10.364-4.473 13.745 7.421 13.745v1.855h-22.265v-1.855c7.529 0 8.948-5.454 12.547-14.509l21.235-53.235-4.212-11.571c1.528-.328 3.269-2.51 3.71-3.928h.982m-58.164 8.725v1.855c-11.24 0-9.603 2.727-6.002 9.272l15.603 28.148 17.46-30.765c1.751-3.164 1.533-6.655-10.361-6.655v-1.855h25.209v1.855c-6.655 0-10.256 3.709-12.875 8.291l-18.441 32.731v23.237c0 6.874 2.288 8.4 10.692 8.4v1.855h-27.281v-1.855c7.311 0 10.802-1.526 10.802-8.4v-23.669l-16.258-29.129c-4.256-7.534-4.474-11.461-14.513-11.461v-1.855h25.965m-58.045-1.968c18.655 0 32.186 14.079 32.186 33.171 0 18.001-15.164 32.62-32.186 32.62-18.223 0-33.28-13.964-33.28-32.62 0-18.659 15.821-33.166 33.28-33.171m0 2.077c-15.713 0-26.515 13.746-26.515 30.984 0 17.128 11.239 30.656 26.515 30.656 15.385 0 25.424-14.292 25.424-30.656l-.003072-.515082c-.202559-16.995464-10.405598-30.467928-25.420928-30.468918m116.811 9.635l-15.006 38.258h28.933l-13.927-38.258m-181.953-7.889c-10.148 0-12.5487.982-12.5487 8.619v24.875l12.0037-.001c12.658 0 20.622-6.873 20.622-16.801 0-9.382-6.437-16.692-20.077-16.692" id="royal"></path>
		<path d="m308.643 230.768c0-4.736-4.387-6.547-6.825-6.616 1.741-.279 4.527-2.263 4.527-5.014 0-3.273-2.333-5.606-6.616-5.606h-8.252v.557c2.263 0 3.099.522 3.099 2.716v17.828c0 2.193-.801 2.716-3.099 2.716v.557h9.401c4.144 0 7.765-2.055 7.765-7.138m-12.222-13.963c0-2.333.975-2.577 3.134-2.577 3.552 0 4.944 2.054 4.944 4.91 0 2.785-1.88 5.083-6.615 5.083h-1.463v-7.416m3.935 20.404c-3.273 0-3.935-.348-3.935-2.541v-9.785h2.577c4.944 0 7.8 1.915 7.8 5.885 0 4.631-2.473 6.441-6.442 6.441m26.941-4.248c-1.706 2.716-4.178 4.109-6.859 4.179-4.945.139-7.556-3.726-7.556-8.566 0-.487.035-.94.069-1.393h12.048c1.115 0 1.428-1.114 1.428-2.193 0-2.786-2.507-5.119-6.094-5.119-5.641 0-9.227 4.666-9.227 10.098 0 5.014 3.761 8.461 8.009 8.461 3.76 0 6.441-1.671 8.565-5.188l-.383-.279m-7.59-12.465c2.82 0 4.77 2.019 4.77 4.422 0 1.462-.522 1.706-1.497 1.706h-9.924c.627-3.447 2.925-6.128 6.651-6.128m18.682-.627c-1.776 0-3.064 1.532-4.178 3.761v-3.134h-1.463c0 1.323-1.706 1.845-3.935 1.845v.592h3.552v11.7c0 2.193-1.114 2.681-3.447 2.681v.592h8.705v-.592c-2.681 0-3.412-.488-3.412-2.681v-9.994c1.149-2.367 1.984-3.308 2.89-3.308.766 0 1.184 1.149 2.333 1.149 2.193 0 1.636-2.611-1.045-2.611m9.608 15.495v-25.314h-1.463c0 1.323-1.706 1.845-3.934 1.845v.557h3.551v22.877c0 1.637-1.183 2.02-3.516 2.02v.557h8.879v-.557c-2.507 0-3.517-.383-3.517-1.985m8.144-21.31c0 .975.732 1.706 1.706 1.706.975 0 1.776-.731 1.776-1.706 0-.975-.801-1.776-1.776-1.776-.974 0-1.706.801-1.706 1.776m2.856 20.579v-14.137h-1.463c0 1.323-1.706 1.845-3.935 1.845v.592h3.552v11.7c0 2.193-1.114 2.681-3.447 2.681v.592h8.705v-.592c-2.681 0-3.412-.488-3.412-2.681m22.632.035l.069-8.427c.035-4.735-2.089-6.372-5.362-6.372-2.403 0-4.422 1.079-6.442 3.517v-2.89h-1.462c0 1.323-1.706 1.845-3.935 1.845v.592h3.552v11.7c0 2.193-1.115 2.681-3.447 2.681v.592h8.705v-.592c-2.682 0-3.413-.488-3.413-2.681v-10.481c2.229-2.577 4.005-3.134 5.78-3.134 2.786 0 4.109 1.811 4.109 5.223v8.392c0 2.159-1.114 2.681-3.447 2.681v.592h8.705v-.592c-2.507 0-3.447-.522-3.412-2.646" id="berlin"></path>
	</g>
</svg>