<svg height="16" width="16" xmlns="http://www.w3.org/2000/svg"><g fill="#111"><path d="M15 11H1a1 1 0 000 2h.25l.371 1.485A2 2 0 003.562 16h8.876a2 2 0 001.941-1.515L14.75 13H15a1 1 0 000-2zM2 9.667a1 1 0 001-1C3 7.764 4.069 7 5.333 7a2.931 2.931 0 011.315.312 3.167 3.167 0 00-.315 1.355 1 1 0 002 0C8.333 7.764 9.4 7 10.667 7S13 7.764 13 8.667a1 1 0 102 0 3.708 3.708 0 00-2.6-3.357l2.088-3.446c.018-.028.034-.058.049-.087a1.227 1.227 0 00-.549-1.646.983.983 0 00-.088-.042 1.225 1.225 0 00-1.6.68l-1.7 4.236a4.8 4.8 0 00-2.584.78A4.842 4.842 0 005.333 5C2.944 5 1 6.645 1 8.667a1 1 0 001 1z"/><path d="M8 3.333V2a2 2 0 00-2-2v1.333a2 2 0 002 2z"/></g></svg>