<svg width="100%" height="100%" viewBox="0 0 1024 512" version="1.1" xmlns="http://www.w3.org/2000/svg" xmlns:xlink="http://www.w3.org/1999/xlink" xml:space="preserve" xmlns:serif="http://www.serif.com/" style="fill-rule:evenodd;clip-rule:evenodd;stroke-linecap:round;stroke-linejoin:round;stroke-miterlimit:1.5;">
    <g transform="matrix(10.7702,0,0,10.7702,-13273,-7494.05)">
        <g transform="matrix(1,0,0,1,1264.34,704)">
            <path d="M13,4C13,2.9 12.1,2 11,2C9.9,2 9,2.9 9,4C9,4.8 8.03,5.2 7.46,4.64L7.41,4.59C6.63,3.81 5.36,3.81 4.58,4.59C3.8,5.37 3.8,6.64 4.58,7.42L4.63,7.47C5.2,8.03 4.8,9 4,9C2.9,9 2,9.9 2,11C2,12.1 2.9,13 4,13L13,13L13,4Z" style="fill:rgb(248,49,47);fill-rule:nonzero;"/>
        </g>
        <g transform="matrix(0.994464,0.574154,-0.574154,0.994464,457.305,-708.148)">
            <g transform="matrix(0.432704,0,0,0.432704,1234.8,709.606)">
                <path d="M16.176,1.064C17.303,0.407 18.697,0.407 19.824,1.064C23.285,3.082 30.764,7.444 34.203,9.45C35.316,10.099 36,11.29 36,12.578L36,29.422C36,30.71 35.316,31.901 34.203,32.55C30.764,34.556 23.285,38.918 19.824,40.936C18.697,41.593 17.303,41.593 16.176,40.936C12.715,38.918 5.236,34.556 1.797,32.55C0.684,31.901 0,30.71 0,29.422L-0,12.578C0,11.29 0.684,10.099 1.797,9.45C5.236,7.444 12.715,3.082 16.176,1.064Z" style="fill:rgb(252,213,63);fill-rule:nonzero;"/>
            </g>
            <g transform="matrix(0.0367383,-0.0212109,0.0212109,0.0367383,1170.6,724.603)">
                <path d="M1579.65,863.09L1474.49,863.09C1466.25,863.09 1458.65,858.661 1454.59,851.495C1440.06,825.86 1405.36,764.63 1390.93,739.168C1386.92,732.102 1386.97,723.441 1391.04,716.415C1405.74,691.08 1441.09,630.132 1455.81,604.747C1459.9,597.693 1467.44,593.35 1475.6,593.35C1504.76,593.35 1574.51,593.35 1603.77,593.35C1611.98,593.35 1619.56,597.751 1623.63,604.881C1638.12,630.27 1672.66,690.746 1687.08,716.005C1691.11,723.06 1691.09,731.723 1687.04,738.763C1679.98,751.009 1669.76,768.766 1669.76,768.766" style="fill:none;stroke:rgb(248,49,47);stroke-width:15px;"/>
            </g>
            <g transform="matrix(0.333515,-1.72995e-17,1.72995e-17,0.333515,1236.58,711.689)">
                <path d="M26,21L21,23.59L21,24L26,24L26,28L10,28L10,24L15,24L15,23.563L10,21L10,16L18,20.297L26,16" style="fill:rgb(248,49,47);fill-rule:nonzero;"/>
            </g>
        </g>
        <g transform="matrix(1,0,0,1,1264.34,704)">
            <path d="M19,28C19,29.1 19.9,30 21,30C22.1,30 23,29.1 23,28C23,27.2 23.97,26.8 24.54,27.36L24.59,27.41C25.37,28.19 26.64,28.19 27.42,27.41C28.2,26.63 28.2,25.36 27.42,24.58L27.37,24.53C26.8,23.97 27.2,23 28,23C29.1,23 30,22.1 30,21C30,19.9 29.1,19 28,19L22.5,19C20.57,19 19,20.57 19,22.5L19,28Z" style="fill:rgb(248,49,47);fill-rule:nonzero;"/>
        </g>
    </g>
</svg>
