<svg width="100%" height="100%" viewBox="0 0 592 592" version="1.1" xmlns="http://www.w3.org/2000/svg" xmlns:xlink="http://www.w3.org/1999/xlink" xml:space="preserve" xmlns:serif="http://www.serif.com/" style="fill-rule:evenodd;clip-rule:evenodd;stroke-linecap:round;stroke-linejoin:round;stroke-miterlimit:1.5;">
    <rect id="Artboard1" x="0" y="0" width="591.735" height="591.764" style="fill:none;"/>
    <g>
        <path d="M233.651,49.504C233.651,26.923 215.176,8.448 192.595,8.448C170.014,8.448 151.538,26.923 151.538,49.504C151.538,65.927 131.626,74.138 119.925,62.642L118.898,61.616C102.886,45.604 76.815,45.604 60.803,61.616C44.791,77.628 44.791,103.699 60.803,119.711L61.83,120.737C73.531,132.233 65.319,152.146 48.897,152.146C26.316,152.146 7.84,170.621 7.84,193.202C7.84,215.783 26.316,234.259 48.897,234.259L233.651,234.259L233.651,49.504Z" style="fill:rgb(248,49,47);fill-rule:nonzero;"/>
        <g>
            <path d="M381.425,110.473C394.738,110.414 407.052,117.524 413.657,129.082C433.934,164.562 477.752,241.233 497.902,276.492C504.422,287.899 504.391,301.911 497.822,313.289C477.31,348.816 432.431,426.549 411.919,462.076C405.35,473.454 393.231,480.487 380.093,480.544C339.482,480.723 251.174,481.111 210.31,481.291C196.997,481.349 184.683,474.24 178.077,462.682C157.801,427.202 113.983,350.531 93.832,315.272C87.313,303.865 87.344,289.853 93.913,278.475C114.425,242.948 159.303,165.215 179.815,129.688C186.384,118.31 198.503,111.277 211.642,111.22C252.253,111.041 340.561,110.653 381.425,110.473Z" style="fill:rgb(252,213,63);fill-rule:nonzero;"/>
            <path d="M336.381,431.213L224.88,431.213C220.559,431.213 216.571,428.889 214.44,425.129C201.684,402.621 157.248,324.214 144.584,301.868C142.482,298.16 142.505,293.617 144.643,289.93C157.533,267.707 202.766,189.722 215.683,167.453C217.829,163.751 221.784,161.473 226.063,161.473C251.686,161.473 341.091,161.473 366.804,161.473C371.112,161.473 375.089,163.782 377.225,167.523C389.964,189.833 434.229,267.354 446.899,289.543C449.013,293.244 449.004,297.789 446.877,301.483C440.279,312.936 426.483,336.888 426.483,336.888" style="fill:none;stroke:rgb(248,49,47);stroke-width:15px;"/>
            <path d="M350.336,327.329L306.112,325.309L304.5,328.101L338.543,347.755L322.819,374.99L213.882,312.095L229.606,284.86L263.649,304.515L265.367,301.54L241.399,264.434L261.053,230.391L298.631,291.096L369.991,293.287" style="fill:rgb(248,49,47);fill-rule:nonzero;"/>
        </g>
        <path d="M356.821,542.183C356.821,564.765 375.297,583.24 397.878,583.24C420.459,583.24 438.934,564.765 438.934,542.183C438.934,525.761 458.847,517.549 470.548,529.045L471.574,530.072C487.587,546.084 513.657,546.084 529.67,530.072C545.682,514.06 545.682,487.989 529.67,471.977L528.643,470.95C516.942,459.454 525.153,439.542 541.576,439.542C564.157,439.542 582.633,421.066 582.633,398.485C582.633,375.904 564.157,357.429 541.576,357.429L428.67,357.429C389.051,357.429 356.821,389.658 356.821,429.278L356.821,542.183Z" style="fill:rgb(248,49,47);fill-rule:nonzero;"/>
    </g>
</svg>
