<svg viewBox="0 46.2 141.7 46" xmlns="http://www.w3.org/2000/svg" fill="currentColor"><path d="M98.4 62v-5.8c7.6-.1 7.8-.2 10.4-.1 3.8.1 6.1 1.2 7.8 2.9 1.6 1.6 2.9 4.2 2.8 7.7 0 2.1-1.3 9.7-10.5 10.2-1.1.1-3.6 0-5.1 0l1.6-6c3.7.4 6.6-.9 6.7-4.3.1-3.9-3.3-5.1-6.7-4.5z"/><path d="M105.2 82.6h-6.7V60.8h6.7zm24.6-17l5.6 2c3.8 1.5 4.5 4.4 4.5 7-.1 6-4.9 8.2-8.7 8.6-4.3.4-7.7-.4-8.8-.5v-6.5c3.4 1.1 7.4 1 8.7.5 1-.4 1.8-1 1.7-1.8 0-.4-.1-1-1.3-1.5l-5.1-1.8c-3.3-1.2-4.7-4.4-4.4-7.1.2-5.6 4.8-8.6 9.3-8.3 1.3 0 3.3 0 6 .4V63c-3.1-.7-4.5-.7-6.1-.5-1.7.2-2.6 1.1-2.6 2.1.1.3.6.7 1.2 1m-96 .6h7.4v-9.9H48v26.4h-6.9V72.1h-7.4v10.5H27V56.3h6.7v9.9m20.8-9.9h6.9v26.2h-6.9zm30.6 0H92v26.2h-6.9zM74.6 76.7h7v5.9H67.8V56.3h6.9v20.4M2.7 62v-5.8c7.6-.1 7.8-.2 10.4-.1 3.8.1 6.1 1.2 7.8 2.9 1.6 1.6 2.9 4.2 2.8 7.7 0 2.1-1.3 9.7-10.5 10.2-1.1.1-3.6 0-5.1 0l1.5-6c3.7.4 6.6-.9 6.7-4.3.1-3.9-3.3-5.1-6.7-4.5z"/><path d="M9.5 82.6H2.7V61.3h6.9v21.3"/></svg>
