<svg viewBox="0 0 919 521" version="1.1" xmlns="http://www.w3.org/2000/svg" xmlns:xlink="http://www.w3.org/1999/xlink">
      <path d="M146.9,161.3 L133.4,16.7 L80.1,151.3 L79.2,151.3 L20.2,22.1 L14.1,91.9 C11.3,122.4 11.5,143.9 13.2,161.3 L0.2,161.3 C4.1,143.9 6.9,122.1 9.8,91.7 L16.8,13.8 L12,3.6 L12,3 L35.9,3 L88.3,119.4 L134.3,3 L154.3,3 L169.1,161.4 L146.9,161.4 L146.9,161.3 Z" id="Path"></path>
      <path d="M183.8,83.7 C183.8,32.8 220.4,0.4 267.6,0.4 C312.9,0.4 348.5,30.6 348.5,80.7 C348.5,131.6 311.9,164 264.7,164 C219.5,164 183.8,133.7 183.8,83.7 Z M324.2,83 C324.2,35.6 300,3.8 265.9,3.8 C230.9,3.8 208.2,34.7 208.2,81.3 C208.2,128.7 232.4,160.5 267.2,160.5 C301.6,160.5 324.2,129.8 324.2,83 Z" id="Shape"></path>
      <path d="M483,3 C480.2,20.4 478.6,41.7 478.6,72.2 L478.6,164 L476.6,164 L376,24.5 L376,92.2 C376,122.7 377.3,144 380.4,161.4 L367.3,161.4 C370.1,144 371.7,122.7 371.7,92.2 L371.7,18.4 L361,3.6 L361,3 L387.3,3 L474.3,125.7 L474.3,72.2 C474.3,41.7 473,20.4 469.9,3 L483,3 Z" id="Path"></path>
      <path d="M613.5,18.4 L613.1,18.4 C595.7,10.1 583.5,6.9 570.5,6.9 L565.5,6.9 L565.5,161.4 L543.3,161.4 L543.3,6.9 L538,6.9 C524.9,6.9 512.8,10.2 495.4,18.4 L495,18.4 L498,3 L610.7,3 L613.5,18.4 Z" id="Path"></path>
      <path d="M726.9,146.8 L722.8,161.4 L629,161.4 L629,3 L720.2,3 L722.8,16.7 L722.4,16.7 C702.4,10 682.1,6.9 663.2,6.9 L651.2,6.9 L651.2,77 L661.2,77 C684.7,77 700.1,75.5 706.9,72.6 L707.3,72.6 L707.3,86.1 L706.9,86.1 C700.2,83.3 684.7,80.9 661.2,80.9 L651.2,80.9 L651.2,157.5 L663.8,157.5 C682.5,157.5 705.6,154.7 726.5,146.8 L726.9,146.8 Z" id="Path"></path>
      <path d="M260.4,260.9 C260.4,210.2 295,177.8 340.9,177.8 C366.6,177.8 387.9,189.1 400.3,203.3 L389.4,213.1 C378.3,194.6 360.9,181.3 339.8,181.3 C306.5,181.3 284.8,213.1 284.8,255.5 C284.8,303.6 311.1,331.9 346.2,331.9 C365.1,331.9 385.8,323.8 399.9,302.1 L402.5,303.6 C388.1,326.9 365.9,341.5 336.4,341.5 C292.8,341.4 260.4,309.8 260.4,260.9 Z" id="Path"></path>
      <path d="M488.7,286.8 L426.9,286.8 C417.3,312.3 414.7,326 414.1,338.8 L399.1,338.8 C409.5,317 417.8,296.8 429.1,269.4 L467,176.9 L467.9,176.9 L533.8,338.8 L509.6,338.8 L488.7,286.8 Z M487.1,282.9 L457.7,210.2 L433.1,270.9 L428.3,282.9 L487.1,282.9 Z" id="Shape"></path>
      <path d="M661.2,315.9 L661.2,343.5 L659.9,343.5 L595.5,271.7 C592.5,268.2 590.3,267.1 584.2,267.1 L569.6,267.1 L569.6,338.7 L547.4,338.7 L547.4,180.4 L586.3,180.4 C628.1,180.4 650.5,193.5 650.5,220.4 C650.5,242.8 633.1,254.6 612.4,261.7 L661.2,315.9 Z M628.1,221.9 C628.1,198.8 614.2,183.8 585.5,183.8 L569.6,183.8 L569.6,262.3 C574.6,263.2 585.3,263.6 589.6,263.6 C613.3,263.7 628.1,244.6 628.1,221.9 Z" id="Shape"></path>
      <path d="M759.1,322.5 L755,338.8 L679.3,338.8 L679.3,180.4 L701.5,180.4 L701.5,334.9 L705.6,334.9 C718.7,334.9 736.1,332.5 758.7,322.5 L759.1,322.5 Z" id="Path"></path>
      <path d="M753.4,261.1 C753.4,210.2 790,177.8 837.2,177.8 C882.5,177.8 918.1,208 918.1,258.1 C918.1,309 881.5,341.4 834.3,341.4 C789.1,341.4 753.4,311.1 753.4,261.1 Z M893.8,260.5 C893.8,213.1 869.7,181.3 835.5,181.3 C800.5,181.3 777.8,212.2 777.8,258.8 C777.8,306.2 801.9,338 836.8,338 C871.1,337.9 893.8,307.2 893.8,260.5 Z" id="Shape"></path>
      <path d="M147.1,444.4 L147.1,499 C133.2,509.2 113.4,518.8 85.3,518.8 C34.6,518.8 0.7,489 0.7,438.1 C0.7,387.6 36.6,355.2 84,355.2 C109.5,355.2 130.8,366.1 143.6,380.7 L132.7,390.5 C121.8,372.2 104.6,358.7 82,358.7 C47.2,358.7 25,389.4 25,436.6 C25,482.7 49.4,514.9 86.4,514.9 C102.3,514.9 117.1,509.5 126.7,501.8 L126.7,448.3 L90.4,448.3 L88,444.4 L147.1,444.4 L147.1,444.4 Z" id="Path"></path>
      <path d="M239.8,464.2 L178,464.2 C168.4,489.7 165.8,503.4 165.2,516.2 L150.2,516.2 C160.6,494.4 168.9,474.2 180.2,446.8 L218.1,354.3 L219,354.3 L284.9,516.2 L260.7,516.2 L239.8,464.2 Z M238.2,460.3 L208.8,387.6 L184.2,448.3 L179.4,460.3 L238.2,460.3 Z" id="Shape"></path>
      <path d="M378.4,499.9 L374.3,516.2 L298.6,516.2 L298.6,357.8 L320.8,357.8 L320.8,512.3 L324.9,512.3 C338,512.3 355.4,509.9 378,499.9 L378.4,499.9 Z" id="Path"></path>
      <path d="M474.1,499.9 L470,516.2 L394.3,516.2 L394.3,357.8 L416.5,357.8 L416.5,512.3 L420.6,512.3 C433.7,512.3 451.1,509.9 473.7,499.9 L474.1,499.9 Z" id="Path"></path>
      <path d="M587.9,501.6 L583.8,516.2 L490,516.2 L490,357.8 L581.2,357.8 L583.8,371.5 L583.4,371.5 C563.4,364.8 543.1,361.7 524.2,361.7 L512.2,361.7 L512.2,431.8 L522.2,431.8 C545.7,431.8 561.1,430.3 567.9,427.4 L568.3,427.4 L568.3,440.9 L567.9,440.9 C561.2,438.1 545.7,435.7 522.2,435.7 L512.2,435.7 L512.2,512.3 L524.8,512.3 C543.5,512.3 566.6,509.5 587.5,501.6 L587.9,501.6 L587.9,501.6 Z" id="Path"></path>
      <path d="M718.8,493.4 L718.8,521 L717.5,521 L653.1,449.2 C650.1,445.7 647.9,444.6 641.8,444.6 L627.2,444.6 L627.2,516.2 L605,516.2 L605,357.8 L644,357.8 C685.8,357.8 708.2,370.9 708.2,397.8 C708.2,420.2 690.8,432 670.1,439.1 L718.8,493.4 Z M685.8,399.4 C685.8,376.3 671.9,361.3 643.2,361.3 L627.3,361.3 L627.3,439.8 C632.3,440.7 643,441.1 647.3,441.1 C671,441.1 685.8,422 685.8,399.4 Z" id="Shape"></path>
      <path d="M802.4,422.4 L789.1,445.7 L789.1,516.2 L766.9,516.2 L766.9,448.3 L715.1,357.8 L740.6,357.8 L787.2,440.5 L798.5,420.5 C814.6,392.2 822.7,372.2 826.1,357.8 L839.8,357.8 C826.8,379.4 816.1,397.9 802.4,422.4 Z" id="Path"></path>
      <rect id="Rectangle" x="13.6" y="264.2" width="208.6" height="5.9"></rect>
    </svg>