<svg viewBox="0 0 119 70" xmlns="http://www.w3.org/2000/svg">
    <g id="Group">
        <g id="g1">
            <path id="Path" fill="currentColor" stroke="none" d="M 0 70 L 0 -0.285156 L 119.417969 -0.285156 L 119.417969 70 L 0 70 Z M 34.878906 61.292969 C 36.398876 61.292969 37.419147 60.795376 38.578125 59.775391 L 37.478516 58.595703 C 36.758514 59.275692 36.03867 59.673828 35.138672 59.673828 C 33.079697 59.673828 32.600624 57.774277 32.640625 56.154297 L 39.097656 56.134766 C 39.098656 55.955769 39.117188 55.736641 39.117188 55.556641 C 39.117188 52.857681 38.158752 50.779297 35.300781 50.779297 C 32.201836 50.779297 30.460938 53.398224 30.460938 56.117188 C 30.460938 59.955135 32.30093 61.292969 34.878906 61.292969 Z M 66.640625 61.291016 C 67.761627 61.291016 68.740463 60.673912 69.480469 59.794922 C 69.519463 60.814907 70.218613 61.291016 71.099609 61.291016 C 71.676613 61.291016 72.395927 61.052666 73.294922 60.513672 L 72.71875 59.435547 C 72.378746 59.634541 72.177505 59.734375 71.9375 59.734375 C 71.398506 59.734375 71.298355 59.474689 71.318359 58.595703 L 71.378906 53.496094 C 71.398911 51.736118 70.199142 50.777344 68.619141 50.777344 C 67.361145 50.777344 65.66172 51.257263 64.261719 52.65625 L 65.28125 53.796875 C 66.541252 52.638889 67.400017 52.416016 68.041016 52.416016 C 68.840012 52.416016 69.320313 52.797016 69.320313 53.875 C 69.320313 53.875 69.320313 54.576389 69.320313 54.775391 C 65.922363 55.355381 63.683594 56.074081 63.683594 58.373047 C 63.683594 60.252018 64.761627 61.291016 66.640625 61.291016 Z M 13.927734 61.074219 L 16.226563 61.074219 L 19.044922 51.619141 C 19.323921 50.658157 19.542969 49.240234 19.542969 49.240234 C 19.542969 49.240234 19.743437 50.658546 20.023438 51.519531 L 23.041016 61.074219 L 25.361328 61.074219 L 29.898438 47.421875 L 27.958984 46.982422 L 25.021484 56.414063 C 24.521498 57.992039 24.402344 59.095703 24.402344 59.095703 C 24.402344 59.095703 24.202644 57.775322 23.722656 56.277344 L 20.824219 47.201172 L 18.505859 47.201172 L 15.748047 56.355469 C 15.428053 57.416458 15.146484 59.074219 15.146484 59.074219 C 15.146484 59.074219 14.967806 57.854919 14.507813 56.335938 L 11.689453 46.982422 L 9.589844 47.521484 L 13.927734 61.074219 Z M 74.855469 61.074219 L 76.935547 61.074219 L 76.996094 54.677734 C 77.674095 53.337753 78.532982 52.738281 79.333984 52.738281 C 79.532982 52.738281 79.755547 52.779358 79.935547 52.818359 L 80.371094 50.898438 C 80.131088 50.820438 79.872749 50.779297 79.59375 50.779297 C 78.253746 50.779297 77.474472 51.859001 76.855469 52.958984 C 76.916473 52.198997 76.916016 50.998047 76.916016 50.998047 L 74.935547 50.998047 L 74.855469 61.074219 Z M 41.712891 61.072266 L 43.773438 61.072266 L 43.853516 50.996094 L 41.792969 50.996094 L 41.712891 61.072266 Z M 47.306641 61.072266 L 49.384766 61.072266 L 49.423828 54.195313 C 50.043827 53.45533 50.923328 52.636719 51.861328 52.636719 C 52.681328 52.636719 53.261719 53.136703 53.261719 54.054688 L 53.220703 61.072266 L 55.300781 61.072266 L 55.341797 54.236328 C 55.961796 53.496338 56.861782 52.636719 57.800781 52.636719 C 58.619781 52.636719 59.179688 53.136703 59.179688 54.054688 L 59.138672 61.072266 L 61.21875 61.072266 L 61.277344 53.736328 C 61.297344 52.177357 60.575916 50.777344 58.417969 50.777344 C 57.138969 50.777344 55.900562 51.576656 55.101563 52.556641 C 54.801563 51.357658 53.782501 50.777344 52.5625 50.777344 C 50.583553 50.777344 49.405155 52.476704 49.285156 52.595703 C 49.285156 52.536701 49.365234 51.477085 49.365234 50.996094 L 47.365234 50.996094 L 47.306641 61.072266 Z M 67.238281 59.773438 C 66.299286 59.773438 65.720703 59.252014 65.720703 58.332031 C 65.721703 56.975052 66.759933 56.51421 69.296875 56.074219 L 69.277344 58.574219 C 68.718346 59.273205 67.978279 59.773438 67.238281 59.773438 Z M 32.78125 54.716797 C 32.96125 53.536812 33.842648 52.236328 35.140625 52.236328 C 36.599598 52.236328 37.21867 53.397331 37.138672 54.695313 L 32.78125 54.716797 Z M 41.732422 49.259766 L 43.951172 49.259766 L 43.951172 47.119141 L 41.732422 47.119141 L 41.732422 49.259766 Z M 57.1875 41.292969 C 58.7075 41.292969 59.725765 40.795372 60.884766 39.775391 L 59.785156 38.595703 C 59.065155 39.275703 58.345314 39.673828 57.445313 39.673828 C 55.386356 39.673828 54.907269 37.774281 54.947266 36.154297 L 61.402344 36.134766 C 61.402344 35.955769 61.425781 35.736641 61.425781 35.556641 C 61.425781 32.857662 60.464382 30.779297 57.607422 30.779297 C 54.508465 30.779297 52.769531 33.397255 52.769531 36.115234 C 52.769531 39.955193 54.60854 41.292969 57.1875 41.292969 Z M 89.363281 41.292969 C 90.261284 41.291969 91.119438 40.871048 91.898438 40.373047 L 91.158203 39.193359 C 90.79921 39.433361 90.280731 39.714844 89.802734 39.714844 C 89.161736 39.714844 88.580078 39.413456 88.580078 38.355469 L 88.601563 32.558594 L 91.621094 32.558594 L 91.621094 30.998047 L 88.623047 30.998047 L 88.642578 27.439453 L 86.564453 27.439453 L 86.542969 30.998047 L 84.886719 30.998047 L 84.886719 32.558594 L 86.525391 32.558594 L 86.486328 38.314453 C 86.465324 40.494438 87.404282 41.292969 89.363281 41.292969 Z M 107.310547 41.292969 C 108.208549 41.291969 109.067657 40.871048 109.847656 40.373047 L 109.109375 39.193359 C 108.748375 39.433361 108.227997 39.714844 107.75 39.714844 C 107.109001 39.714844 106.529297 39.413456 106.529297 38.355469 L 106.550781 32.558594 L 109.568359 32.558594 L 109.568359 30.998047 L 106.570313 30.998047 L 106.589844 27.439453 L 104.511719 27.439453 L 104.490234 30.998047 L 102.832031 30.998047 L 102.832031 32.558594 L 104.472656 32.558594 L 104.433594 38.314453 C 104.413597 40.494438 105.353546 41.292969 107.310547 41.292969 Z M 16.625 41.291016 C 20.062946 41.291016 22.163126 39.511559 22.203125 35.974609 L 22.302734 27.199219 L 20.324219 27.199219 L 20.203125 35.894531 C 20.163126 38.1325 19.004051 39.533203 16.705078 39.533203 C 14.546111 39.533203 13.407734 38.335754 13.427734 36.175781 L 13.488281 27.199219 L 11.369141 27.199219 L 11.308594 35.935547 C 11.288594 39.512489 13.108051 41.291016 16.625 41.291016 Z M 73.833984 41.291016 C 75.612984 41.291016 77.634766 40.173767 77.634766 38.175781 C 77.634766 34.616817 72.835938 35.615623 72.835938 33.556641 C 72.835938 32.557655 73.796799 32.277344 74.716797 32.277344 C 75.435799 32.277344 76.314537 32.558907 76.894531 32.878906 L 77.693359 31.576172 C 76.87336 31.03717 75.574074 30.777344 74.455078 30.777344 C 72.576073 30.777344 70.697266 31.777348 70.697266 33.736328 C 70.697266 37.354294 75.472656 36.254066 75.472656 38.373047 C 75.472656 39.332031 74.4543 39.794922 73.654297 39.794922 C 72.775299 39.794922 72.015404 39.513702 71.316406 39.095703 L 70.537109 40.453125 C 71.496109 41.053127 72.653984 41.291016 73.833984 41.291016 Z M 95.775391 41.291016 C 96.896393 41.291016 97.875237 40.673923 98.615234 39.794922 C 98.654236 40.814907 99.355377 41.291016 100.234375 41.291016 C 100.813377 41.291016 101.532593 41.054672 102.433594 40.513672 L 101.853516 39.435547 C 101.513519 39.634544 101.312218 39.734375 101.074219 39.734375 C 100.533218 39.734375 100.433121 39.474701 100.453125 38.595703 L 100.513672 33.496094 C 100.533669 31.737103 99.333862 30.777344 97.755859 30.777344 C 96.495865 30.777344 94.796432 31.25626 93.398438 32.65625 L 94.417969 33.796875 C 95.675972 32.637886 96.536736 32.417969 97.177734 32.417969 C 97.97673 32.417969 98.455078 32.796013 98.455078 33.875 C 98.455078 33.875 98.455078 34.57539 98.455078 34.775391 C 95.057076 35.355389 92.818359 36.074062 92.818359 38.373047 C 92.818359 40.252029 93.896393 41.291016 95.775391 41.291016 Z M 45.472656 41.074219 L 47.470703 41.074219 L 51.449219 31.318359 L 49.589844 30.779297 L 47.53125 36.197266 C 46.891251 37.875244 46.611328 38.875 46.611328 38.875 C 46.611328 38.875 46.310955 37.61454 45.751953 35.976563 L 43.972656 30.759766 L 41.933594 31.320313 L 45.472656 41.074219 Z M 64.021484 41.074219 L 66.099609 41.074219 L 66.160156 34.677734 C 66.840157 33.337749 67.699043 32.738281 68.498047 32.738281 C 68.697044 32.738281 68.917656 32.778358 69.097656 32.818359 L 69.535156 30.898438 C 69.29715 30.819439 69.036819 30.779297 68.757813 30.779297 C 67.419815 30.779297 66.638535 31.858047 66.019531 32.957031 C 66.080536 32.198032 66.080078 30.998047 66.080078 30.998047 L 64.101563 30.998047 L 64.021484 41.074219 Z M 25.943359 41.072266 L 28.023438 41.072266 L 28.082031 34.195313 C 28.84203 33.256313 29.721094 32.615234 30.621094 32.615234 C 31.681067 32.615234 32.240704 33.054867 32.220703 34.214844 L 32.160156 41.072266 L 34.240234 41.072266 L 34.298828 33.796875 C 34.318829 32.097897 33.5793 30.777344 31.361328 30.777344 C 29.962355 30.777344 28.88236 31.537663 27.943359 32.556641 C 27.96336 32.336643 27.981953 31.676094 28.001953 30.996094 L 26.023438 30.996094 L 25.943359 41.072266 Z M 37.660156 41.072266 L 39.720703 41.072266 L 39.800781 30.998047 L 37.740234 30.998047 L 37.660156 41.072266 Z M 80.449219 41.072266 L 82.509766 41.072266 L 82.587891 30.998047 L 80.529297 30.998047 L 80.449219 41.072266 Z M 96.376953 39.773438 C 95.43795 39.773438 94.857422 39.253937 94.857422 38.335938 C 94.856422 36.976955 95.896545 36.514217 98.435547 36.074219 L 98.414063 38.574219 C 97.855057 39.273216 97.114952 39.773438 96.376953 39.773438 Z M 55.087891 34.716797 C 55.267887 33.535816 56.147312 32.238281 57.445313 32.238281 C 58.904312 32.238281 59.525311 33.396332 59.445313 34.695313 L 55.087891 34.716797 Z M 37.681641 29.259766 L 39.900391 29.259766 L 39.900391 27.121094 L 37.681641 27.121094 L 37.681641 29.259766 Z M 80.470703 29.259766 L 82.689453 29.259766 L 82.689453 27.121094 L 80.470703 27.121094 L 80.470703 29.259766 Z M 94.394531 29.259766 L 96.414063 29.259766 L 96.414063 27.199219 L 94.394531 27.199219 L 94.394531 29.259766 Z M 97.8125 29.259766 L 99.832031 29.259766 L 99.832031 27.199219 L 97.8125 27.199219 L 97.8125 29.259766 Z M 25.607422 21.292969 C 26.726406 21.292969 27.706312 20.673923 28.445313 19.794922 C 28.485312 20.814922 29.185453 21.292969 30.064453 21.292969 C 30.643454 21.292969 31.361715 21.05267 32.261719 20.513672 L 31.681641 19.433594 C 31.34164 19.633595 31.142344 19.734375 30.902344 19.734375 C 30.362343 19.734375 30.263203 19.473751 30.283203 18.59375 L 30.34375 13.496094 C 30.36375 11.737095 29.16297 10.777344 27.583984 10.777344 C 26.325001 10.777344 24.627508 11.256248 23.228516 12.65625 L 24.248047 13.796875 C 25.50704 12.637875 26.366859 12.416016 27.005859 12.416016 C 27.805861 12.416016 28.285156 12.797955 28.285156 13.876953 C 28.285156 13.876953 28.285156 14.57539 28.285156 14.775391 C 24.887186 15.355389 22.648438 16.074078 22.648438 18.373047 C 22.648438 20.253044 23.728436 21.292969 25.607422 21.292969 Z M 59.216797 21.292969 C 60.335796 21.292969 61.316689 20.673923 62.054688 19.794922 C 62.095688 20.814922 62.794827 21.292969 63.673828 21.292969 C 64.252823 21.292969 64.971092 21.05267 65.871094 20.513672 L 65.291016 19.433594 C 64.951012 19.633595 64.75367 19.734375 64.513672 19.734375 C 63.974674 19.734375 63.872528 19.473751 63.894531 18.59375 L 63.955078 13.496094 C 63.975079 11.737095 62.775311 10.777344 61.195313 10.777344 C 59.936314 10.777344 58.236889 11.256248 56.837891 12.65625 L 57.857422 13.796875 C 59.117424 12.637875 59.976234 12.416016 60.615234 12.416016 C 61.416233 12.416016 61.894531 12.797955 61.894531 13.876953 C 61.894531 13.876953 61.894531 14.57539 61.894531 14.775391 C 58.497551 15.355389 56.259766 16.074066 56.259766 18.373047 C 56.259766 20.253044 57.337799 21.292969 59.216797 21.292969 Z M 81.609375 21.292969 C 83.388374 21.292969 85.40625 20.173817 85.40625 18.173828 C 85.40625 14.615841 80.609375 15.615631 80.609375 13.556641 C 80.609375 12.55764 81.568283 12.277344 82.488281 12.277344 C 83.209282 12.277344 84.087967 12.558907 84.667969 12.878906 L 85.466797 11.578125 C 84.646797 11.038124 83.347519 10.777344 82.228516 10.777344 C 80.349518 10.777344 78.470703 11.77734 78.470703 13.736328 C 78.470703 17.353317 83.246094 16.255058 83.246094 18.373047 C 83.246094 19.332047 82.227684 19.794922 81.429688 19.794922 C 80.548683 19.794922 79.788895 19.513752 79.087891 19.09375 L 78.310547 20.453125 C 79.269547 21.053123 80.429375 21.292969 81.609375 21.292969 Z M 36.716797 21.291016 C 38.115788 21.291016 39.195766 20.512188 40.134766 19.492188 C 40.114765 19.712185 40.094219 20.392265 40.074219 21.072266 L 42.054688 21.072266 L 42.136719 10.998047 L 40.037109 10.998047 L 39.996094 17.853516 C 39.236095 18.792515 38.35603 19.433594 37.457031 19.433594 C 36.397041 19.433594 35.839375 18.992031 35.859375 17.832031 L 35.939453 10.996094 L 33.837891 10.996094 L 33.779297 18.253906 C 33.758297 19.952908 34.498814 21.291016 36.716797 21.291016 Z M 70.328125 21.291016 C 71.72612 21.291016 72.807091 20.512188 73.746094 19.492188 C 73.726089 19.712185 73.70755 20.392265 73.685547 21.072266 L 75.664063 21.072266 L 75.746094 10.998047 L 73.646484 10.998047 L 73.605469 17.853516 C 72.847466 18.792515 71.966362 19.433594 71.068359 19.433594 C 70.007362 19.433594 69.449745 18.992031 69.46875 17.832031 L 69.548828 10.996094 L 67.449219 10.996094 L 67.390625 18.253906 C 67.369621 19.952908 68.109138 21.291016 70.328125 21.291016 Z M 15.046875 21.152344 C 17.885853 21.152344 20.404297 20.033752 20.404297 17.175781 C 20.404297 15.45578 19.404062 14.137424 17.705078 13.857422 C 18.445072 13.557423 20.263672 13.038109 20.263672 10.619141 C 20.263672 7.381172 17.346092 7.082031 15.287109 7.082031 C 14.487117 7.082031 11.628906 7.201172 11.628906 7.201172 L 11.509766 21.074219 C 11.509766 21.074219 14.126884 21.152344 15.046875 21.152344 Z M 45.498047 21.074219 L 47.597656 21.074219 L 47.638672 14.21875 C 48.278671 13.497749 49.216328 12.638672 50.236328 12.638672 C 51.215328 12.638672 51.736328 13.117188 51.736328 14.117188 L 51.695313 21.074219 L 53.794922 21.074219 L 53.855469 13.857422 C 53.875469 11.919445 52.97554 10.779297 50.976563 10.779297 C 49.717564 10.779297 48.376125 11.597576 47.578125 12.517578 C 47.737125 10.358601 47.679218 8.180462 47.699219 6.021484 L 45.599609 6.021484 L 45.498047 21.074219 Z M 26.205078 19.773438 C 25.266083 19.773438 24.685547 19.252983 24.685547 18.333984 C 24.686546 16.975983 25.725687 16.515217 28.263672 16.074219 L 28.244141 18.574219 C 27.68314 19.27322 26.944078 19.773438 26.205078 19.773438 Z M 59.814453 19.773438 C 58.875454 19.773438 58.294922 19.252983 58.294922 18.333984 C 58.295921 16.975983 59.335064 16.515217 61.873047 16.074219 L 61.853516 18.574219 C 61.292515 19.27322 60.554455 19.773438 59.814453 19.773438 Z M 15.146484 19.494141 C 14.586488 19.494141 13.666016 19.472656 13.666016 19.472656 L 13.6875 14.794922 L 15.066406 14.794922 C 17.405386 14.795925 18.125 15.534767 18.125 17.134766 C 18.125 18.673767 16.846468 19.494141 15.146484 19.494141 Z M 87.623047 16.714844 L 93.419922 16.714844 L 93.419922 15.035156 L 87.623047 15.035156 L 87.623047 16.714844 Z M 13.707031 13.15625 L 13.728516 8.759766 C 13.728516 8.759766 14.327023 8.720703 15.166016 8.720703 C 16.085007 8.720703 18.003906 8.719376 18.003906 10.777344 C 18.003906 12.176342 17.026796 13.15625 15.007813 13.15625 L 13.707031 13.15625 Z"/>
        </g>
    </g>
</svg>
