<svg viewBox="0 0 126 80" xmlns="http://www.w3.org/2000/svg">
	<path d="M 51.300606 15.069962 C 51.300606 17.671288 53.935268 19.191284 58.327255 19.191284 C 67.787231 19.191284 75.455215 14.427299 84.172523 14.427299 C 87.043182 14.427299 88.461845 15.272629 88.461845 17.028625 C 88.461845 20.576614 80.996529 23.279274 74.408546 23.717941 C 73.225883 21.927277 70.692558 20.981949 67.549904 20.981949 C 58.529922 20.981949 51.772606 29.933922 51.772606 37.907242 C 51.772606 42.839226 54.6446 45.643219 59.644585 45.643219 C 68.631233 45.643219 74.576553 36.589905 74.948547 30.035255 C 68.091232 30.44059 63.46191 33.481918 61.435249 40.136566 C 60.995251 41.555229 60.624584 42.501892 59.677917 42.501892 C 59.171253 42.501892 58.56459 42.264561 58.56459 41.149895 C 58.56459 39.123238 61.807247 35.948578 63.360577 32.535248 C 64.611237 29.799255 64.880577 24.123276 67.076569 24.123276 C 67.719231 24.123276 68.091232 24.292603 68.091232 25.204605 C 68.091232 27.129929 65.760574 30.44059 64.915237 32.164589 C 67.076569 30.20459 70.792557 28.88726 74.779213 28.752594 C 83.15786 28.413933 91.772507 24.123276 91.772507 17.23262 C 91.705841 12.975304 88.563179 10.475304 83.327194 10.475304 C 76.197876 10.475304 69.847229 15.64463 62.98991 15.64463 C 61.265915 15.64463 60.353916 15.069962 60.353916 14.021965 C 60.353916 9.596642 77.584541 13.244637 77.584541 6.083321 C 77.584541 3.988655 74.712547 3.347328 73.564552 3.109993 C 73.936546 3.481995 74.23922 3.988655 74.23922 4.529991 C 74.23922 11.792641 51.300606 6.961983 51.300606 15.069962 M 70.928558 55.340527 L 69.881897 57.907185 L 73.157883 57.907185 C 74.677879 57.907185 75.725876 57.095188 76.36721 55.473862 L 77.380539 52.905869 L 74.171219 52.905869 C 72.752556 52.905869 71.637886 53.649864 70.928558 55.340527 M 37.17931 57.603188 C 38.868637 57.603188 40.049969 56.757858 40.793968 54.899197 L 41.604633 52.905869 L 22.415346 52.905869 C 19.10602 52.905869 11.672705 57.299191 11.672705 60.204517 C 11.739373 62.400513 13.666035 64.967171 15.558031 66.251175 L 18.632689 61.353848 C 17.787357 60.845848 16.80736 60.103184 16.774027 59.123188 C 16.774027 58.211185 17.787357 57.603188 18.666021 57.603188 L 24.274008 57.603188 L 17.010025 75.508476 L 22.247345 75.508476 C 22.990011 75.508476 23.496675 75.103149 23.868677 74.29248 L 30.659325 57.603188 Z M 119.339104 57.70319 C 117.21244 60.069851 114.273781 61.217846 110.048462 61.555176 C 109.307129 60.272514 107.719131 59.629848 105.52314 59.629848 C 101.569817 59.629848 99.948486 62.332508 96.131165 62.332508 C 92.684502 62.332508 89.711182 60.272514 87.54985 60.103184 L 86.231186 62.061844 C 87.312515 62.704514 87.921844 63.616508 87.921844 65.237839 C 87.921844 67.940491 85.388519 72.467148 82.684532 72.467148 C 81.60453 72.467148 81.265869 71.149826 81.873863 69.663162 L 88.731178 52.905869 L 85.724525 52.905869 C 84.104523 52.905869 82.92186 53.752529 82.177864 55.473862 L 78.59787 64.055176 C 76.468544 69.121826 73.225883 71.555153 71.367226 71.555153 C 70.353889 71.555153 70.117889 70.811157 70.523224 69.832489 L 74.47522 60.103184 L 71.164558 60.103184 C 70.084564 60.103184 68.968567 60.407181 68.056564 62.535175 L 67.211235 64.596504 C 65.151237 69.629822 62.179249 71.555153 60.45525 71.555153 C 59.543255 71.555153 59.13792 70.980484 59.609921 69.799164 L 61.672581 64.731171 C 62.717911 61.792511 62.685913 59.799183 59.747253 59.799183 C 56.637928 59.799183 53.800602 62.568512 52.211273 64.359169 L 56.908592 52.905869 L 53.361935 52.905869 C 52.111271 52.905869 51.164608 53.312531 50.353943 55.340527 L 46.840618 64.055176 C 44.677956 69.425827 38.868637 71.859154 36.637978 71.859154 C 35.152649 71.859154 34.409981 71.183151 34.409981 69.832489 C 34.409981 67.264496 36.976643 64.189835 39.847301 64.189835 L 40.895298 64.189835 C 42.077965 64.189835 42.888626 63.581841 43.428627 62.332508 L 44.37529 60.103184 L 40.725967 60.103184 C 34.273983 60.103184 28.39533 65.947174 28.631329 72.197823 C 28.699329 74.561813 30.15266 75.812477 32.787319 75.812477 C 36.571312 75.812477 40.725967 73.852486 44.37529 70.103165 L 42.179295 75.508476 L 45.659286 75.508476 C 47.111282 75.508476 47.989948 74.832474 48.732613 73.07515 C 50.489941 68.920494 52.549938 64.392502 55.117931 64.392502 C 55.895264 64.392502 56.265926 65.000504 55.895264 65.912506 L 53.935268 70.676491 C 52.752602 73.548485 52.955269 75.84581 56.096596 75.84581 C 58.697922 75.84581 61.571247 74.359146 64.509903 71.317825 C 63.767242 73.953812 64.137909 75.84581 67.043236 75.84581 C 69.847229 75.84581 73.192551 73.920486 76.232544 70.541824 C 75.725876 73.784485 77.516541 75.812477 81.131195 75.812477 C 87.008514 75.812477 93.089836 70.339157 93.089836 64.392502 C 93.089836 64.392502 93.697838 64.461838 94.272499 64.461838 C 95.217827 64.461838 96.536491 64.123169 97.34716 63.784508 C 95.893829 65.575172 94.947166 68.075165 94.947166 70.643158 C 94.947166 73.819153 96.705826 75.84581 99.981819 75.84581 C 105.895134 75.84581 109.644463 70.13649 110.11779 65.879166 C 106.232468 66.116501 102.448479 68.480492 101.332481 72.332481 C 101.063148 73.312485 100.757813 74.02182 100.015152 74.02182 C 99.440483 74.02182 99.137817 73.649818 99.137817 72.973816 C 99.137817 71.453819 101.299149 69.460495 102.212479 67.467163 C 103.259148 65.169838 103.360474 61.453842 104.981812 61.453842 C 105.556473 61.453842 105.75914 61.691177 105.75914 62.332508 C 105.75914 63.716507 104.036476 66.149841 103.697807 66.92717 C 105.320473 65.711166 107.987129 64.967171 110.387123 64.66317 C 115.692444 63.953838 118.699104 62.332508 119.339104 57.771191 Z"/>
</svg>
