<svg viewBox="0 0 828 301" fill="none" xmlns="http://www.w3.org/2000/svg">
<path d="M301.952 291.173C301.056 290.994 300.639 290.577 300.877 290.1C300.997 289.683 300.818 288.967 300.34 288.61C299.505 287.954 299.445 287.179 299.385 281.755C299.325 272.337 299.505 270.131 300.4 270.131C301.414 270.131 301.474 269.416 300.579 268.522C300.28 268.224 299.803 266.316 299.624 264.409C299.266 261.309 299.385 261.011 300.161 261.607C300.639 262.025 301.235 262.203 301.414 261.965C302.19 261.25 301.832 259.342 300.937 259.044C299.863 258.627 299.743 256.958 300.758 255.945C301.295 255.408 301.355 255.05 300.877 254.752C300.042 254.216 299.325 252.249 299.982 252.249C300.28 252.249 300.698 251.832 300.877 251.295C301.056 250.818 300.997 250.58 300.639 250.759C300.042 251.116 299.803 249.09 299.982 245.692C300.101 243.129 299.982 221.014 299.863 219.167C299.684 217.08 300.459 215.113 301.295 215.59C302.071 216.067 302.011 215.769 300.877 213.563C300.101 211.954 299.922 209.212 300.042 195.145C300.042 186.084 300.101 176.07 300.042 172.97C299.982 164.566 300.579 158.545 301.713 157.353C302.489 156.399 303.862 156.28 313.113 156.28C318.903 156.28 324.215 156.459 324.871 156.638C326.125 156.996 328.035 161.228 327.557 162.539C327.438 162.897 327.259 164.923 327.139 167.189C326.901 170.407 327.02 171.242 327.796 171.54C328.572 171.838 328.691 173.626 328.691 183.64C328.691 198.065 328.751 211.239 328.811 219.465C328.811 225.843 328.811 228.763 328.691 230.671C328.691 231.207 328.691 236.93 328.691 243.308C328.87 277.046 328.751 282.053 327.796 281.695C327.199 281.457 326.901 281.695 326.901 282.589C326.901 283.305 327.259 283.841 327.677 283.841C328.154 283.841 328.453 284.854 328.572 286.643C328.691 290.159 328.273 291.59 327.08 291.59C326.543 291.59 326.304 291.232 326.543 290.696C326.722 290.219 326.602 289.802 326.304 289.802C325.946 289.802 325.707 290.1 325.707 290.398C325.707 290.756 324.991 290.994 324.095 290.994C323.14 290.994 318.127 291.054 312.874 291.173C307.622 291.292 302.728 291.292 301.952 291.173ZM327.677 287.894C328.035 286.523 327.736 285.629 326.901 285.629C326.602 285.629 326.423 286.404 326.483 287.418C326.602 289.504 327.199 289.742 327.677 287.894ZM302.429 223.279C302.429 222.803 302.011 222.445 301.534 222.445C300.519 222.445 300.459 222.564 300.997 223.876C301.414 224.949 302.429 224.591 302.429 223.279ZM326.901 193.416C326.901 193.118 326.662 192.522 326.304 192.045C325.647 190.972 324.812 191.628 325.289 192.939C325.647 193.833 326.901 194.191 326.901 193.416ZM323.319 191.747C323.319 190.197 322.484 189.78 321.827 190.853C321.29 191.687 321.887 193.237 322.723 193.237C323.021 193.237 323.319 192.581 323.319 191.747ZM325.528 189.363C325.528 188.886 325.17 188.469 324.692 188.469C323.857 188.469 323.678 189.184 324.334 189.839C324.991 190.495 325.528 190.316 325.528 189.363Z" fill="currentColor"/>
<path d="M431.173 291.173C431.054 291.114 428.607 290.995 425.682 290.935C421.922 290.875 420.012 290.577 419.295 289.981C418.46 289.206 418.281 287.537 418.221 277.166C418.221 270.549 418.042 265.006 417.923 264.708C417.744 264.469 417.923 263.515 418.281 262.562C419.116 260.475 419.415 258.151 418.997 257.376C418.161 256.064 418.102 250.282 418.937 249.806C419.355 249.508 419.415 249.269 419.116 249.269C418.46 249.269 418.281 238.242 418.937 237.586C419.176 237.407 418.997 236.811 418.52 236.334C418.042 235.857 417.624 234.963 417.624 234.308C417.624 233.592 416.848 232.698 415.834 232.102C414.162 231.148 413.387 229.599 414.58 229.599C414.938 229.599 414.759 228.883 414.282 227.989C413.446 226.38 413.148 216.723 413.864 214.875C414.043 214.399 415.117 213.683 416.251 213.206C417.803 212.551 418.221 212.133 417.744 211.537C417.147 210.822 416.908 201.344 417.445 199.973C417.624 199.556 418.102 199.199 418.579 199.199C419.475 199.199 419.594 198.006 419.057 195.086C418.818 194.072 418.4 193.417 418.102 193.595C417.744 193.834 417.565 192.463 417.624 190.198C417.684 188.111 417.684 184.714 417.624 182.687C417.565 180.66 417.684 178.753 417.803 178.515C417.982 178.276 417.923 174.938 417.684 171.183C417.445 167.428 417.445 164.03 417.744 163.672C417.982 163.315 417.863 162.719 417.445 162.301C416.908 161.705 416.908 161.586 417.624 161.646C419.296 161.884 420.012 161.646 420.012 160.871C420.012 160.215 423.712 160.036 438.813 159.977C449.139 159.977 457.614 160.096 457.614 160.394C457.614 160.632 462.21 160.811 467.761 160.811C474.386 160.751 478.087 160.99 478.385 161.407C478.624 161.765 479.34 162.242 479.997 162.48C480.653 162.778 480.892 163.076 480.594 163.195C480.176 163.374 479.997 166.057 480.056 170.468C480.116 174.282 480.056 177.74 479.877 178.097C479.698 178.515 474.506 178.693 462.986 178.693L446.274 178.634L446.035 180.124C445.856 180.959 445.677 187.456 445.558 194.549C445.438 204.086 445.199 207.544 444.662 207.544C444.304 207.544 443.767 207.842 443.528 208.199C443.051 209.034 444.483 211.716 445.438 211.716C445.856 211.716 446.274 212.014 446.393 212.431C446.572 212.908 450.333 213.087 460.539 212.968C474.148 212.849 474.446 212.849 474.744 214.041C474.923 214.697 475.341 215.114 475.64 214.935C475.938 214.756 476.057 214.22 475.878 213.743C475.699 213.266 475.938 212.908 476.356 212.908C476.833 212.908 477.311 213.445 477.49 214.1C477.669 214.756 477.609 215.293 477.43 215.293C476.953 215.293 476.953 221.969 477.43 222.803C477.967 223.697 477.371 227.989 476.654 228.406C476.177 228.764 476.177 229.181 476.714 230.195C477.371 231.387 477.311 231.446 476.177 231.089C475.461 230.91 474.923 230.969 474.923 231.327C474.923 231.685 470.029 231.923 461.136 231.923C453.496 231.923 447.05 232.162 446.811 232.4C446.513 232.698 446.214 238.897 446.214 246.229C446.154 257.376 446.035 259.462 445.319 259.164C444.245 258.747 444.245 259.7 445.379 260.833C445.975 261.429 446.274 262.919 446.274 265.363C446.274 268.82 446.214 269.059 445.02 268.761C443.886 268.463 443.886 268.522 444.662 269.417C445.08 269.953 445.677 270.907 445.856 271.503C446.095 272.039 446.692 272.516 447.289 272.576C447.885 272.576 454.63 272.695 462.21 272.755C475.222 272.874 476.177 272.933 477.012 274.006C478.564 275.973 478.863 277.404 478.743 281.457C478.684 283.603 478.564 286.405 478.564 287.716C478.505 289.266 478.326 289.802 477.967 289.326C477.55 288.67 477.43 288.67 477.132 289.385C476.953 289.862 477.012 290.458 477.311 290.756C477.848 291.293 474.804 291.293 466.746 290.816C464.24 290.637 462.986 290.816 462.986 291.233C462.986 291.591 462.747 291.531 462.449 291.054C462.091 290.518 461.494 290.399 460.539 290.697C459.345 291.114 431.531 291.531 431.173 291.173ZM468.955 280.265C468.955 279.61 465.433 279.669 465.015 280.384C464.717 280.802 464.956 280.921 465.553 280.682C466.09 280.504 466.687 280.563 466.866 280.861C467.224 281.457 468.955 280.98 468.955 280.265ZM471.641 274.304C471.462 274.006 470.328 273.708 469.194 273.708C467.94 273.708 467.224 273.947 467.463 274.304C467.642 274.662 468.776 274.9 469.91 274.9C471.163 274.9 471.879 274.662 471.641 274.304ZM476.117 274.304C476.117 274.006 475.461 273.708 474.625 273.708C473.789 273.708 473.133 274.006 473.133 274.304C473.133 274.662 473.789 274.9 474.625 274.9C475.461 274.9 476.117 274.662 476.117 274.304ZM467.761 227.453C467.761 226.797 467.463 226.618 466.806 226.857C466.269 227.035 465.433 227.214 464.896 227.214C464.001 227.214 464.001 227.333 464.777 227.81C466.149 228.704 467.761 228.526 467.761 227.453ZM474.088 215.829C474.267 215.471 474.088 214.935 473.67 214.637C472.715 214.041 471.581 213.922 472.118 214.518C472.357 214.697 472.058 215.233 471.462 215.65C470.566 216.366 470.626 216.425 472.058 216.485C472.954 216.485 473.849 216.187 474.088 215.829ZM467.761 214.577C467.761 214.279 467.104 214.1 466.269 214.1C465.433 214.1 464.777 214.339 464.777 214.637C464.777 214.935 465.433 215.114 466.269 215.054C467.104 215.054 467.761 214.816 467.761 214.577ZM443.648 210.584C442.991 209.57 440.902 209.391 440.902 210.345C440.902 210.941 441.26 211.12 441.857 210.882C442.573 210.584 442.693 210.822 442.335 211.835C441.976 213.087 441.976 213.087 442.931 212.133C443.528 211.597 443.827 210.882 443.648 210.584ZM443.886 185.548C443.886 184.893 443.648 184.177 443.29 183.999C442.991 183.82 442.693 183.879 442.693 184.237C442.693 184.535 442.514 185.191 442.335 185.727C442.096 186.383 442.275 186.681 442.931 186.681C443.469 186.681 443.886 186.204 443.886 185.548ZM472.238 177.144C472.417 176.846 472.058 176.548 471.342 176.548C470.626 176.548 470.268 176.846 470.447 177.144C470.626 177.501 471.044 177.74 471.342 177.74C471.641 177.74 472.058 177.501 472.238 177.144Z" fill="currentColor"/>
<path d="M348.149 289.743C346.597 288.908 346.06 288.312 346.538 288.014C347.075 287.716 346.955 287.478 346.179 287.299C343.673 286.643 343.434 281.636 343.911 240.626C344.15 219.644 344.329 201.762 344.329 200.867C344.389 199.854 344.628 199.377 345.105 199.616C346.538 200.093 346.717 198.543 345.463 197.172C343.792 195.383 343.732 193.536 345.344 194.43C346.955 195.264 347.194 195.205 346.776 194.012C346.538 193.357 346.597 193.178 347.075 193.476C347.493 193.714 347.791 193.536 347.791 193.059C347.791 191.986 346.179 191.271 345.881 192.165C345.762 192.522 345.344 192.701 344.986 192.463C344.09 191.926 344.449 163.553 345.344 162.659C345.821 162.182 346 162.301 346 163.016C346 163.553 346.299 164.03 346.657 164.03C347.075 164.03 347.194 163.314 347.075 162.182C346.836 160.573 347.075 160.155 349.044 158.844C350.298 158.009 351.551 157.533 351.909 157.711C352.208 157.89 352.566 157.711 352.685 157.354C353.043 156.281 392.019 156.221 392.377 157.294C392.616 157.89 392.914 157.89 393.75 157.294C394.705 156.758 395.302 156.877 397.152 157.89C401.21 160.155 401.807 161.884 401.986 172.256C402.106 180.243 401.986 181.554 401.091 182.747C400.494 183.462 399.778 184.118 399.42 184.237C399.121 184.296 398.883 184.773 399.002 185.25C399.121 185.965 398.763 186.144 397.391 185.965C396.376 185.906 395.6 186.085 395.6 186.383C395.66 186.74 395.898 186.919 396.137 186.86C396.376 186.8 396.495 187.277 396.316 187.873C396.018 188.946 395.481 189.065 390.706 189.065C385.513 189.065 382.35 188.29 382.469 187.038C382.708 185.25 382.35 183.7 381.514 182.866C381.036 182.389 380.619 181.256 380.619 180.303C380.619 178.991 380.738 178.813 381.215 179.528C381.932 180.66 381.932 179.766 381.215 177.143C380.738 175.355 380.26 174.938 378.112 174.342C376.679 173.925 374.889 173.686 374.053 173.805C373.217 173.925 371.725 174.044 370.711 174.103C369.517 174.163 368.622 174.58 368.383 175.236C368.144 175.772 367.846 196.635 367.726 221.551C367.667 246.467 367.547 267.449 367.547 268.224C367.488 269.118 367.129 269.536 366.294 269.536C364.384 269.536 364.921 270.609 367.189 271.383C368.323 271.801 369.278 272.516 369.278 272.933C369.278 273.768 371.069 273.947 376.381 273.768C378.828 273.649 379.902 273.291 380.738 272.397C381.932 271.026 382.111 270.132 381.275 270.132C380.798 270.132 379.723 267.33 379.902 266.496C379.962 266.257 380.022 265.125 380.141 263.992C380.201 262.8 380.499 262.025 380.738 262.144C381.215 262.442 381.036 261.012 380.201 258.031C380.081 257.435 380.32 256.839 380.857 256.66C382.051 256.183 382.111 255.23 380.917 255.23C380.44 255.23 380.022 254.991 380.022 254.693C380.022 254.038 386.408 253.442 392.138 253.501C394.943 253.561 396.495 253.859 397.092 254.514C397.808 255.17 398.166 255.23 398.465 254.693C398.823 254.157 399.301 254.276 400.315 255.111C401.688 256.183 401.688 256.422 401.867 269.297C402.046 280.444 401.927 282.709 401.031 284.974C399.897 287.895 397.808 289.743 395.182 290.16C394.227 290.339 383.782 290.577 371.964 290.756C351.074 290.994 350.417 290.935 348.149 289.743ZM382.529 262.86C381.633 261.965 380.977 262.621 381.454 263.933C381.753 264.707 381.991 264.827 382.529 264.29C383.066 263.754 383.066 263.396 382.529 262.86ZM346.478 237.943C346.418 235.857 345.702 235.559 345.224 237.467C344.926 238.54 345.523 239.672 346.418 239.732C346.478 239.732 346.478 238.957 346.478 237.943ZM395.779 184.535C396.674 183.7 396.734 183.7 396.734 184.535C396.734 185.846 397.749 185.727 398.047 184.475C398.584 182.449 397.928 181.853 395.66 182.27C392.437 182.866 390.885 185.489 393.75 185.489C394.347 185.489 395.302 185.071 395.779 184.535ZM366.533 178.574C367.189 176.607 367.249 175.951 366.712 176.13C366.294 176.249 365.995 176.845 365.936 177.501C365.876 178.097 365.697 179.23 365.458 180.005C364.623 182.568 365.578 181.316 366.533 178.574ZM397.928 180.183C397.928 178.932 397.152 177.74 396.376 177.74C395.361 177.74 395.361 178.038 396.137 179.587C396.794 180.78 397.928 181.137 397.928 180.183ZM379.067 172.673C379.723 172.196 379.962 171.779 379.664 171.779C379.306 171.779 378.53 172.196 377.873 172.673C377.276 173.15 377.037 173.507 377.336 173.507C377.694 173.507 378.47 173.15 379.067 172.673ZM349.582 160.453C349.582 160.155 349.164 159.857 348.686 159.857C348.209 159.857 347.791 160.155 347.791 160.453C347.791 160.811 348.209 161.049 348.686 161.049C349.164 161.049 349.582 160.811 349.582 160.453Z" fill="currentColor"/>
<path d="M671.77 290.458L661.265 290.1L659.952 288.431C658.639 286.762 658.639 286.523 658.937 272.814C659.176 259.342 659.415 257.196 660.608 257.912C660.907 258.15 661.146 257.912 661.146 257.494C661.146 257.077 660.668 256.421 660.011 256.004C659.116 255.408 658.937 254.812 659.176 252.428C659.355 250.878 659.832 249.209 660.191 248.732C660.668 248.076 660.668 247.957 660.131 248.255C659.236 248.792 658.519 247.719 659.116 246.765C659.773 245.752 659.773 243.308 659.176 242.89C658.937 242.771 658.997 242.235 659.355 241.818C659.773 241.341 659.892 240.745 659.713 240.387C659.355 239.91 658.519 182.031 658.579 168.5C658.698 157.055 658.937 156.28 661.981 157.472C664.07 158.247 666.04 158.009 665.622 156.996C665.383 156.34 666.935 156.221 674.635 156.459C684.781 156.817 684.543 156.698 685.617 160.572C685.975 161.764 686.512 162.956 686.811 163.135C687.169 163.314 687.408 163.731 687.408 164.089C687.408 164.923 685.796 164.745 685.378 163.91C685.199 163.493 685.199 163.97 685.438 164.923C685.617 165.937 685.915 166.89 686.035 167.189C686.453 167.963 687.408 167.665 687.408 166.712C687.408 164.685 688.422 166.116 689.974 170.467C690.869 172.97 692.362 176.487 693.197 178.216C694.092 179.945 694.868 181.912 694.988 182.627C695.107 183.283 695.585 184.356 696.062 185.071C696.54 185.786 696.957 187.098 696.957 187.992C696.957 188.945 697.256 189.661 697.554 189.661C697.912 189.661 698.151 190.197 698.151 190.793C698.151 191.449 698.509 192.045 698.927 192.224C699.405 192.403 699.285 192.76 698.509 193.356C697.435 194.191 697.435 194.25 698.688 194.608C699.524 194.787 700.419 195.979 701.255 197.946C701.911 199.615 702.747 200.986 703.045 200.986C703.344 200.986 703.463 201.225 703.284 201.523C702.926 202.119 704.239 205.159 704.896 205.159C705.135 205.159 705.314 205.397 705.314 205.695C705.314 205.993 705.612 207.007 706.03 207.96C706.388 208.854 706.746 209.808 706.806 210.106C706.925 210.345 707.045 210.702 707.104 211C707.164 211.239 707.224 211.835 707.164 212.371C707.045 213.206 709.313 214.696 710.685 214.696C711.044 214.696 711.282 213.802 711.282 212.669C711.282 211.537 711.581 210.404 711.879 210.225C712.715 209.689 712.655 207.364 711.76 206.47C710.745 205.457 710.566 202.834 710.387 186.68C710.268 178.633 710.148 169.752 710.089 166.95C710.029 164.149 710.268 161.287 710.566 160.632C710.924 159.976 711.044 159.261 710.864 159.022C710.685 158.843 710.864 158.665 711.342 158.665C712.058 158.665 711.999 158.545 711.282 158.069C710.506 157.532 710.506 157.413 711.282 156.876C712.476 156.101 723.041 156.101 723.518 156.876C723.757 157.234 724.175 157.353 724.473 157.174C724.771 156.936 725.01 157.115 725.01 157.413C725.01 157.77 725.846 158.069 726.801 158.069C727.815 158.069 728.591 157.83 728.591 157.472C728.591 157.174 730.143 157.055 732.173 157.174C734.321 157.294 735.634 157.174 735.455 156.817C735.217 156.519 735.336 156.28 735.634 156.28C736.649 156.28 737.007 159.261 737.306 169.811C737.544 178.395 737.425 180.123 736.649 180.898C735.575 182.031 735.515 183.64 736.53 185.011C737.127 185.786 737.246 188.945 737.067 198.721C736.888 205.695 736.828 212.61 736.888 214.1C737.007 218.928 737.127 241.162 737.007 242.712C736.947 243.904 736.768 274.006 736.828 278.953C736.828 279.668 736.53 280.265 736.112 280.265C735.754 280.265 735.873 280.563 736.351 280.861C737.246 281.457 737.604 284.079 737.127 287C736.948 287.954 736.589 288.431 736.231 288.252C735.873 288.014 735.157 288.371 734.62 289.087C733.784 290.159 732.769 290.338 725.428 290.577C713.61 291.054 713.55 290.994 711.342 286.583C710.327 284.616 708.417 280.145 707.045 276.688C705.731 273.231 704.418 270.191 704.18 269.833C703.523 269.058 699.822 258.746 699.703 257.494C699.643 256.958 699.285 256.183 698.927 255.706C697.972 254.514 693.376 243.487 693.376 242.414C693.376 242.235 692.958 241.102 692.421 239.85C691.824 238.658 691.347 237.287 691.228 236.87C691.168 236.453 690.69 235.439 690.153 234.665C689.616 233.89 689.198 232.876 689.198 232.459C689.198 232.042 688.482 231.207 687.706 230.611C686.393 229.658 686.214 229.658 686.214 230.492C686.214 231.029 686.632 231.565 687.05 231.744C687.825 232.042 687.945 235.916 687.945 257.792C687.945 271.979 688.064 284.676 688.184 286.106C688.661 290.815 688.005 290.994 671.77 290.458ZM736.351 286.702C736.351 286.285 736.112 285.57 735.813 285.093C735.455 284.556 735.336 284.795 735.336 285.868C735.336 286.702 735.515 287.418 735.813 287.418C736.112 287.418 736.351 287.06 736.351 286.702ZM686.632 257.316C686.393 256.839 685.975 256.421 685.617 256.421C685.259 256.421 685.259 256.839 685.736 257.614C686.572 258.925 687.169 258.746 686.632 257.316ZM661.146 252.249C661.146 251.593 660.907 251.057 660.549 251.057C660.25 251.057 659.952 251.593 659.952 252.249C659.952 252.905 660.25 253.441 660.549 253.441C660.907 253.441 661.146 252.905 661.146 252.249ZM735.634 221.909C734.739 221.61 734.381 222.326 734.858 223.458C735.276 224.472 735.336 224.472 735.754 223.339C735.993 222.683 735.933 222.028 735.634 221.909ZM735.993 219.345C735.873 219.107 735.694 217.974 735.634 216.782C735.575 214.458 734.56 213.861 734.56 216.127C734.56 218.749 735.276 221.372 735.813 220.597C736.052 220.18 736.172 219.643 735.993 219.345ZM733.605 218.034C733.426 217.199 733.008 216.484 732.71 216.484C732.471 216.484 732.531 217.319 732.889 218.332C733.605 220.478 734.202 220.299 733.605 218.034ZM661.563 216.484C661.504 215.829 661.146 215.292 660.728 215.292C659.832 215.292 659.832 215.411 660.31 216.723C660.847 218.094 661.683 217.915 661.563 216.484ZM733.963 213.861C733.963 213.385 733.724 212.789 733.366 212.61C733.068 212.431 732.769 212.789 732.769 213.444C732.769 214.159 733.068 214.696 733.366 214.696C733.724 214.696 733.963 214.338 733.963 213.861ZM661.742 205.755C661.742 205.457 661.444 205.159 661.086 205.159C660.728 205.159 660.608 204.741 660.847 204.145C661.086 203.37 661.026 203.251 660.549 203.728C660.191 204.086 660.071 204.801 660.31 205.338C660.728 206.41 661.742 206.709 661.742 205.755ZM712.476 192.224C712.476 191.389 711.342 189.959 710.984 190.316C710.506 190.793 711.282 192.641 711.939 192.641C712.237 192.641 712.476 192.462 712.476 192.224ZM713.491 185.429C714.386 184.534 713.789 183.104 712.476 183.104C711.76 183.104 711.461 183.521 711.581 184.475C711.64 185.19 711.76 185.846 711.819 185.965C711.999 186.323 712.894 186.025 713.491 185.429ZM713.67 178.872C713.67 178.574 713.252 178.335 712.774 178.335C711.879 178.335 711.581 179.05 712.237 179.706C712.715 180.183 713.67 179.647 713.67 178.872ZM736.112 167.785C735.455 167.129 735.097 168.023 735.575 169.156C735.992 170.229 736.052 170.229 736.231 169.215C736.351 168.619 736.291 167.963 736.112 167.785ZM734.56 159.559C734.56 159.082 734.142 158.665 733.665 158.665C732.71 158.665 732.471 159.38 733.187 160.036C733.844 160.751 734.56 160.512 734.56 159.559ZM730.979 159.022C730.979 158.486 730.501 158.307 729.487 158.545C727.815 158.843 728.054 159.857 729.845 159.857C730.442 159.857 730.979 159.499 730.979 159.022ZM724.413 158.903C724.413 158.724 724.055 158.188 723.578 157.77C722.563 156.698 721.847 157.294 722.802 158.426C723.518 159.261 724.413 159.499 724.413 158.903Z" fill="currentColor"/>
<path d="M497.843 289.921C495.933 289.802 495.217 289.385 494.441 288.014C493.247 286.047 493.128 284.437 494.202 284.437C494.739 284.437 494.739 284.318 494.202 283.961C493.068 283.245 493.486 267.867 494.62 267.151C495.396 266.674 495.336 266.376 494.441 264.827C493.128 262.561 493.128 261.548 494.501 262.025C495.456 262.383 495.456 262.323 494.501 261.608C493.605 260.892 493.546 259.283 493.725 245.037C493.963 227.81 494.023 215.888 493.904 197.768C493.844 187.813 493.963 185.787 494.739 185.25C495.814 184.475 496.709 179.23 495.933 178.693C495.217 178.276 494.441 180.005 494.978 180.779C495.157 181.077 494.978 181.316 494.68 181.316C493.963 181.316 493.904 181.256 493.725 171.361C493.546 164.268 493.665 163.672 495.336 163.97C495.575 163.97 495.635 163.672 495.456 163.195C494.918 161.824 505.065 160.99 510.735 161.943C512.526 162.241 513.003 162.539 512.466 162.897C511.869 163.255 511.989 163.434 513.003 163.434C513.779 163.434 514.257 163.195 514.018 162.897C513.6 162.182 515.391 161.586 518.435 161.467C521.121 161.407 522.195 162.003 520.882 162.837C520.345 163.195 520.285 163.434 520.703 163.434C521.897 163.434 522.732 167.308 522.732 172.792C522.732 175.653 522.732 182.747 522.732 188.469C522.732 194.191 522.732 209.093 522.792 221.551C522.852 234.009 522.852 244.739 522.792 245.394C522.732 246.05 522.732 247.302 522.732 248.256C522.732 249.15 522.732 250.521 522.732 251.355C522.732 252.19 522.732 253.322 522.732 253.918C522.732 254.455 522.732 257.793 522.673 261.25C522.553 264.707 522.732 268.105 522.911 268.82C523.508 270.668 522.852 270.43 521.837 268.522C521.121 267.092 520.882 267.032 520.584 267.867C519.927 269.595 520.524 270.906 522.553 272.099C524.165 273.052 524.762 273.112 526.134 272.576C527.03 272.218 530.611 271.86 534.013 271.86C542.668 271.801 542.847 271.86 541.832 272.456C541.175 272.874 541.295 273.231 542.369 274.304C543.563 275.496 543.623 275.973 543.324 280.801C543.145 283.663 542.847 286.464 542.608 287.06C541.892 288.848 539.803 289.445 532.819 289.683C529.059 289.802 525.299 289.921 524.463 289.921C523.628 289.981 519.211 289.921 514.615 289.921C510.019 289.862 504.946 289.862 503.274 289.981C501.663 290.041 499.216 290.041 497.843 289.921ZM536.46 278.894C535.983 278.417 535.804 278.477 535.804 279.132C535.804 280.325 536.58 281.159 536.878 280.265C537.057 279.848 536.818 279.252 536.46 278.894ZM531.924 279.669C531.745 279.371 531.148 279.073 530.671 279.073C530.193 279.073 529.835 279.371 529.835 279.669C529.835 280.027 530.372 280.265 531.088 280.265C531.745 280.265 532.103 280.027 531.924 279.669ZM495.814 225.128C495.814 224.651 495.575 224.234 495.217 224.234C494.918 224.234 494.62 224.651 494.62 225.128C494.62 225.605 494.918 226.022 495.217 226.022C495.575 226.022 495.814 225.605 495.814 225.128ZM496.649 219.107C496.888 218.571 496.888 217.975 496.769 217.856C496.291 217.379 495.217 218.332 495.217 219.227C495.217 220.359 496.172 220.299 496.649 219.107ZM501.185 216.485C501.663 216.187 501.961 215.888 501.782 215.829C501.603 215.829 500.887 215.71 500.171 215.531C499.156 215.352 498.917 215.531 499.156 216.187C499.574 217.2 499.932 217.259 501.185 216.485ZM499.574 213.206C499.813 212.193 497.186 212.193 496.769 213.206C496.47 213.981 496.769 214.16 497.903 213.981C498.738 213.862 499.514 213.564 499.574 213.206ZM497.007 206.649C496.291 205.755 495.217 205.934 495.217 206.947C495.217 207.424 497.067 208.08 497.545 207.722C497.664 207.663 497.425 207.186 497.007 206.649Z" fill="currentColor"/>
<path d="M802.424 289.981C802.185 289.802 792.158 289.683 780.101 289.683C755.272 289.802 753.66 289.683 754.078 287.954C754.257 287.358 754.078 286.404 753.66 285.928C753.123 285.331 752.944 283.066 753.063 278.655C753.302 271.324 753.242 257.733 752.824 220.895C752.705 206.768 752.765 194.191 753.063 192.939C753.362 191.509 753.362 190.138 752.944 189.124C752.586 188.29 752.168 182.269 752.048 175.713C751.81 166.175 751.929 163.791 752.526 163.374C753.123 163.016 753.182 162.718 752.705 162.42C751.75 161.705 751.332 158.784 752.108 158.128C752.526 157.771 764.881 157.532 783.085 157.532C808.452 157.532 813.466 157.711 814.182 158.426C815.197 159.38 815.973 159.559 815.436 158.605C814.421 157.055 820.031 160.691 821.464 162.599L823.076 164.685V189.84C823.076 203.669 823.016 219.286 823.016 224.531C822.956 235.738 822.956 233.413 823.076 247.361C823.195 273.887 823.195 280.026 822.837 280.563C822.658 280.92 822.3 281.874 822.061 282.828C821.524 285.093 816.331 288.431 812.153 289.146C807.199 289.981 802.782 290.339 802.424 289.981ZM755.57 276.211C755.868 274.304 755.57 273.112 754.854 273.112C754.257 273.112 753.66 276.033 754.078 277.106C754.615 278.417 755.331 278 755.57 276.211ZM796.097 273.171C797.231 272.218 797.41 271.8 796.873 270.906C796.455 270.191 796.455 269.118 796.813 267.747C797.53 264.886 797.888 251.176 797.231 250.759C796.754 250.461 797.052 236.155 797.589 235.619C797.709 235.499 797.41 234.724 796.992 233.83C796.336 232.579 796.276 231.923 796.873 230.492C797.649 228.644 797.53 222.803 796.694 218.869C796.396 217.677 796.455 216.127 796.694 215.471C796.933 214.756 796.933 211 796.694 207.126C796.396 203.251 796.276 197.708 796.396 194.728C796.515 191.807 796.634 187.396 796.634 185.071C796.634 182.568 796.873 180.72 797.231 180.72C797.589 180.72 797.828 180.362 797.828 180.004C797.768 178.574 795.5 176.488 793.352 175.891C792.158 175.534 791.382 175.057 791.561 174.759C791.74 174.461 792.337 174.401 792.874 174.58C793.769 174.938 793.829 174.878 793.053 174.044C792.576 173.507 791.919 173.269 791.561 173.567C791.263 173.805 789.83 173.924 788.457 173.805C785.891 173.686 784.995 174.401 786.965 174.997C787.502 175.176 786.607 175.236 784.876 175.057C782.19 174.878 781.713 174.997 781.414 176.011C781.175 176.666 781.176 177.858 781.355 178.633C781.534 179.408 781.474 180.243 781.116 180.422C780.758 180.6 780.698 180.362 780.877 179.885C781.116 179.349 780.937 178.931 780.519 178.931C779.922 178.931 779.803 180.243 780.101 184.535C780.28 187.634 780.22 190.317 780.041 190.436C779.803 190.555 779.922 190.555 780.34 190.495C781.414 190.257 782.071 194.37 781.175 195.8C780.638 196.575 780.638 197.171 780.996 197.529C781.653 198.185 781.414 260.594 780.758 264.648C780.579 265.661 780.221 266.555 779.922 266.555C779.683 266.555 779.504 266.913 779.564 267.33C779.743 268.582 780.579 269.595 781.175 269.237C781.474 268.999 781.713 269.297 781.713 269.774C781.713 270.31 781.951 270.728 782.25 270.728C782.548 270.728 783.026 271.264 783.205 271.92C783.623 273.291 786.726 273.589 787.502 272.277C787.801 271.8 789.651 271.324 792.158 271.145C795.978 270.787 796.217 270.787 794.844 271.622C794.008 272.099 792.934 272.337 792.456 272.218C791.979 272.039 791.143 272.218 790.666 272.575C789.949 273.052 790.128 273.112 791.203 272.814C792.098 272.516 792.456 272.635 792.217 272.993C791.919 273.529 792.576 273.887 794.307 274.244C794.545 274.244 795.321 273.768 796.097 273.171ZM755.391 266.257C755.331 264.469 755.092 263.098 754.854 263.277C754.257 263.634 754.257 269.535 754.913 269.535C755.152 269.535 755.391 268.045 755.391 266.257ZM821.106 243.189C821.106 242.056 820.031 240.626 819.614 241.043C819.076 241.579 819.852 243.904 820.569 243.904C820.867 243.904 821.106 243.546 821.106 243.189ZM821.404 236.155C822.001 234.307 821.106 233.473 820.091 234.903C819.256 236.155 819.435 237.347 820.509 237.347C820.807 237.347 821.166 236.811 821.404 236.155ZM755.451 212.014C755.451 211.537 755.212 211.12 754.854 211.12C754.555 211.12 754.257 211.537 754.257 212.014C754.257 212.491 754.555 212.908 754.854 212.908C755.212 212.908 755.451 212.491 755.451 212.014ZM779.504 177.203C779.743 177.203 779.922 176.786 779.922 176.309C779.922 175.772 779.325 175.534 778.012 175.653C776.938 175.713 776.102 175.951 776.222 176.189C776.281 176.368 776.341 176.786 776.341 177.084C776.341 177.501 777.475 177.56 779.504 177.203Z" fill="currentColor"/>
<path d="M397.331 188.529C397.331 188.231 398.166 187.694 399.121 187.336C400.554 186.86 400.912 186.919 400.912 187.515C400.912 187.992 400.315 188.469 399.599 188.707C397.749 189.184 397.331 189.125 397.331 188.529Z" fill="currentColor"/>
<path d="M750.377 142.333C749.303 141.2 748.288 139.591 748.169 138.696C747.811 136.968 748.467 126.06 749.78 111.575C750.795 99.8321 752.108 74.0815 751.69 73.6643C751.571 73.4855 750.735 74.4988 749.9 75.9294C747.154 80.6384 742.379 86.778 738.32 90.8909C728.532 100.726 722.265 99.7129 718.684 87.7913C717.311 83.1419 716.117 74.1411 715.699 65.8556C715.46 61.5043 715.043 58.1066 714.744 58.2854C713.849 58.8815 711.521 64.0078 706.209 77.3004C700.539 91.6062 697.793 97.1498 695.406 98.9976C691.765 101.859 688.243 99.4745 686.692 93.0964C686.453 91.9639 685.916 83.7976 685.617 75.0353C685.319 66.2729 684.901 58.8219 684.662 58.4643C683.468 56.4972 678.813 65.6768 670.994 85.407C667.831 93.3349 664.607 101.143 663.832 102.634C661.086 108.058 656.371 107.76 653.804 102.157C652.73 99.7725 652.491 98.0439 652.312 90.4141C652.193 85.5262 652.372 78.9098 652.73 75.8698C653.088 72.7702 653.267 70.1474 653.148 70.0282C653.028 69.909 652.252 70.9819 651.417 72.3529C648.611 77.1215 642.046 85.5858 638.047 89.6988C631.481 96.3153 624.677 98.8188 619.962 96.3749C617.694 95.1827 614.948 91.1294 613.575 86.8376L612.441 83.3803L609.934 87.8509C607.189 92.9176 601.519 100.249 598.415 102.872C595.908 105.018 589.701 107.998 587.85 107.998C582.419 107.998 578.36 98.1035 578.897 86.2415C579.077 82.0094 578.957 80.7576 578.48 81.2941C578.062 81.7113 575.495 84.8705 572.69 88.3278C562.006 101.442 554.128 107.164 545.712 107.82C540.101 108.296 537.893 107.7 534.849 104.899C530.551 100.965 528.403 95.1827 527.567 85.7647L527.149 81.1749L523.866 85.4666C516.943 94.527 508.288 101.918 501.305 104.601C499.932 105.197 497.127 105.614 495.038 105.614C487.637 105.614 482.384 101.322 479.698 93.0964C478.684 90.116 477.55 81.8902 477.311 76.7639C477.311 76.4658 476.177 77.7772 474.864 79.7443C469.373 87.5529 448.124 113.363 444.125 116.999C440.544 120.278 437.858 121.708 435.112 121.708C431.352 121.708 429.562 119.801 429.562 115.926C429.621 110.204 432.128 106.985 441.021 101.203C446.334 97.7458 448.661 94.7058 448.661 91.3678C448.661 90.2949 445.14 81.1152 441.32 72.2933L440.484 70.2666L437.918 74.0815C433.322 80.8172 428.547 86.8376 424.966 90.3545C418.639 96.5537 411.536 98.8188 407.06 96.1364C404.911 94.7654 402.345 90.7121 400.852 86.3011L399.897 83.2611L398.047 86.8376C395.719 91.487 389.93 99.2956 386.647 102.216C383.901 104.72 377.515 107.998 375.545 107.998C368.741 107.879 364.384 93.0368 367.189 79.327C371.069 60.0737 380.38 43.2643 391.004 36.3498C394.884 33.8462 397.45 33.4886 402.464 34.7404C405.747 35.5749 406.94 37.0651 408.671 42.4894L410.104 46.7811L408.433 58.4643C407.06 68.1207 406.881 70.7435 407.358 73.4258C408.97 81.8902 411.536 83.8572 417.445 81.1749C422.638 78.8502 427.592 73.6047 434.933 62.6964C437.918 58.2854 438.455 56.9741 439.052 53.2188C441.021 40.4627 447.826 30.1505 453.496 31.4023C455.764 31.9388 457.017 34.3231 457.017 38.3764C457.017 42.1913 455.764 44.9929 451.705 50.4768C448.602 54.5898 448.602 54.709 448.84 58.2258C449.079 60.789 450.333 64.9019 453.436 72.7105C455.824 78.6713 457.913 83.5592 458.151 83.5592C458.629 83.5592 465.314 76.287 470.507 70.1474C475.699 64.0078 479.698 58.4047 479.698 57.2721C479.698 55.007 483.459 44.3968 486.025 39.4494C489.188 33.3098 491.576 30.2698 495.157 28.0643C502.976 23.0572 509.363 28.6007 510.019 40.88C510.198 44.3372 510.019 47.6753 509.542 49.6423C507.751 57.1529 502.2 66.4517 493.844 75.989C488.174 82.367 487.816 83.4996 489.726 87.076C492.352 91.9639 498.022 92.4407 505.96 88.5662C515.033 84.036 528.522 68.24 532.64 57.1529C536.938 45.589 542.131 36.7074 546.786 33.1905C549.293 31.2831 551.442 31.1043 553.173 32.6541C556.097 35.2768 560.275 46.4831 560.275 51.669C560.275 54.709 559.201 58.5239 558.007 59.8949C555.381 62.8156 552.397 59.1796 550.129 50.2384L549.472 47.6753L547.92 49.0462C541.295 55.3051 535.386 83.9764 539.445 90.7121C541.116 93.5733 542.25 94.2886 544.757 94.2886C550.785 94.2886 558.306 89.8776 565.587 81.9498C567.975 79.3866 573.406 72.7702 577.584 67.167C581.822 61.6235 585.761 56.7356 586.418 56.3184C587.015 55.9607 588.447 54.0533 589.522 52.1458C593.342 45.3505 598.236 39.807 603.488 36.4094C606.473 34.4423 607.487 34.0847 610.054 34.1443C615.485 34.2039 617.634 35.2172 619.484 38.5553C622.469 44.0392 622.707 46.6023 621.156 56.5568C618.947 70.4454 619.365 77.3004 622.707 80.8768C624.379 82.6651 626.468 82.7843 629.93 81.1749C635.242 78.7905 639.36 74.4392 647.358 62.6964C649.746 59.2392 652.252 55.9607 652.909 55.3647C653.924 54.5302 654.222 53.2784 654.58 49.4039C655.058 44.3968 656.251 40.6415 657.982 38.7341C658.937 37.6611 662.041 37.3035 663.294 38.138C666.338 40.1051 666.338 48.3309 663.294 68.8956C662.101 77.0619 661.205 83.7976 661.325 83.9764C661.504 84.0956 663.533 79.327 665.921 73.3066C672.307 57.0933 676.724 48.2713 680.126 44.8737C684.244 40.7607 687.706 40.4031 690.81 43.7411C693.496 46.6023 694.033 49.6423 694.809 65.3788C695.585 82.7247 695.227 82.6054 700.837 67.4651C706.448 52.3247 711.939 42.2509 715.58 40.2839C717.191 39.4494 719.877 40.1051 721.728 41.8337C723.757 43.7411 724.413 46.7811 725.01 57.3317C726.025 74.6776 727.338 82.367 729.427 83.1419C731.994 84.1553 741.484 74.916 748.049 65.0211L752.287 58.7623L752.645 53.2188C753.063 46.9004 754.675 42.7278 757.301 41.2972C758.733 40.5223 759.091 40.5223 760.524 41.476C761.419 42.0721 762.673 43.8007 763.389 45.2909C764.523 47.9733 764.583 48.4502 763.866 55.5435C763.448 59.6564 763.031 63.6502 762.852 64.4847C762.553 66.0941 762.971 65.3192 768.641 53.4572C774.789 40.6415 782.309 33.0117 789.233 32.4156L792.516 32.1176L795.381 35.098C799.081 38.9129 800.812 43.6815 801.23 51.0729C801.588 57.3913 800.215 64.1866 797.231 70.207C796.216 72.2337 795.441 74.0219 795.441 74.2604C795.441 74.8564 806.005 66.2133 812.988 59.9545C823.613 50.3576 825.284 49.0462 826.179 49.3443C828.388 50.2384 827.97 54.5898 825.105 60.0141C821.822 66.2133 812.332 74.618 793.351 88.2086C788.457 91.7254 782.489 96.3749 780.101 98.5207C775.266 102.991 773.595 103.707 770.79 102.336C768.164 101.084 766.731 98.5207 766.672 94.8847C766.612 92.2023 766.851 91.6062 768.582 89.818C769.716 88.6854 772.879 86.5396 775.684 85.109C781.772 81.9498 783.503 79.7443 787.084 70.6839C790.785 61.1466 791.68 51.8478 789.233 48.0925C787.86 46.0062 786.846 46.2447 783.384 49.4635C777.415 54.9474 767.806 71.876 763.866 83.8572C761.479 90.9505 760.942 96.3749 760.285 118.489C759.629 138.518 759.27 140.723 756.167 143.167C754.018 144.896 752.586 144.657 750.377 142.333ZM383.245 91.0698C391.123 84.6321 398.823 67.9419 399.539 55.7223C399.897 49.9404 399.181 46.6023 397.51 46.6023C392.795 46.6023 386.229 54.4705 381.633 65.6768C377.157 76.6447 374.71 89.2219 376.441 92.4407C377.396 94.2886 379.962 93.7521 383.245 91.0698ZM595.49 91.3082C597.997 89.3411 601.698 84.6917 604.264 80.2807C610.054 70.4454 613.874 53.338 611.486 48.0925C609.815 44.3968 604.026 48.2117 598.654 56.6164C592.327 66.4517 586.478 87.9701 588.925 92.4407C589.88 94.229 592.327 93.8117 595.49 91.3082ZM495.814 59.716C499.276 54.5302 501.186 49.1058 501.186 44.2776C501.186 39.9858 500.589 38.9725 498.619 39.8666C496.649 40.7607 493.963 44.7545 492.053 49.5827C490.382 53.7553 488.054 64.3058 488.054 67.5843V69.5513L490.442 66.869C491.755 65.3788 494.202 62.16 495.814 59.716Z" fill="currentColor"/>
<path d="M319.141 114.078C313.471 111.277 311.919 101.978 316.455 97.4476C318.962 94.9441 322.364 94.7652 326.005 96.9707C328.751 98.6994 330.84 98.8186 333.944 97.5072C336.988 96.2554 339.077 94.1692 342.419 89.1621C347.851 80.8766 350.178 71.399 348.089 65.9151C346.717 62.279 344.09 59.3582 340.569 57.57C336.391 55.4837 333.287 55.6625 328.452 58.2256C323.857 60.6696 322.842 60.7888 320.992 59.0602C318.127 56.3778 317.709 51.49 320.037 46.8405C321.768 43.3237 324.036 41.8335 327.677 41.8335C330.303 41.8335 330.542 41.6547 334.66 37.2437C343.911 27.17 346.717 21.0303 343.434 17.7519C342.061 16.3809 341.404 16.2021 337.525 16.2021C329.228 16.2021 321.171 19.4805 316.276 24.8452L313.352 28.0641L312.934 41.3566C312.695 48.6884 312.218 57.6296 311.86 61.206C311.561 64.8421 311.084 74.737 310.845 83.2609C310.367 100.428 309.83 103.051 306.548 104.72C301.594 107.283 298.609 104.064 297.893 95.3613C297.654 92.679 298.012 85.6452 298.788 77.3001C300.698 56.1394 301.832 37.5417 301.713 28.7198C301.593 21.7456 301.773 20.1958 302.907 17.1558C304.399 13.0429 305.533 11.6719 307.682 11.1354C308.577 10.9566 314.068 8.45309 319.917 5.65152L330.541 0.525248L336.689 0.227209C343.673 -0.0708302 345.941 0.704072 349.94 4.6978C352.685 7.43976 354.058 10.5394 354.953 16.2617C356.147 23.7127 354.118 30.0907 347.433 39.628C345.583 42.1911 344.21 44.3966 344.329 44.5158C344.448 44.5754 345.642 45.3503 347.075 46.2445C352.805 49.8209 357.221 55.6029 359.251 62.3386C361.519 69.8492 359.967 80.4594 355.013 90.8907C351.909 97.388 347.373 104.183 344.449 106.866C336.988 113.482 324.871 116.999 319.141 114.078Z" fill="currentColor"/>
<path d="M638.047 298.445C637.629 297.134 637.032 294.75 636.614 293.2C636.077 290.935 635.719 290.398 634.943 290.756C628.616 293.319 609.636 293.736 597.281 291.591C595.49 291.293 589.82 290.756 584.747 290.398C573.824 289.683 569.825 289.266 566.363 288.551C564.035 288.014 563.677 288.133 562.424 289.564L561.051 291.173L560.156 288.849C559.619 287.597 558.604 286.047 557.888 285.451C556.634 284.378 556.575 283.961 556.813 276.689C556.933 270.43 557.171 268.82 557.947 268.224C558.723 267.628 559.022 265.9 559.32 260.237C559.678 253.084 559.738 252.965 562.245 248.494C563.677 246.05 567.497 238.42 570.72 231.565C573.943 224.77 578.897 214.756 581.822 209.332C588.268 197.231 597.281 178.693 597.281 177.501C597.281 175.951 594.297 165.639 593.103 163.136C591.79 160.274 590.417 143.942 591.014 138.518C591.849 131.663 593.7 125.285 594.953 125.285C595.49 125.285 597.699 132.199 599.37 138.994C600.981 145.611 604.503 156.162 605.279 156.817C606.353 157.711 607.905 155.804 611.606 149.128C613.337 146.028 615.306 142.69 616.082 141.677C616.798 140.723 617.873 138.994 618.41 137.981C619.007 136.789 619.842 136.014 620.499 136.014C622.29 136.014 622.588 141.677 621.812 159.023C621.096 175.415 620.797 177.024 616.858 183.343L615.067 186.263L616.858 191.092C617.873 193.774 621.394 203.013 624.677 211.716C632.556 232.579 637.987 250.998 639.599 262.383C640.315 267.39 640.434 296.538 639.718 296.121C639.36 295.882 639.062 296.836 638.942 298.267L638.763 300.83L638.047 298.445ZM625.811 271.324C628.378 270.728 628.915 270.43 628.616 269.655C625.513 262.144 609.158 211.478 608.323 206.649C607.845 203.729 607.01 202.179 606.055 202.179C605.219 202.179 603.25 205.755 603.25 207.186C603.25 207.603 602.593 208.557 601.757 209.332C599.907 211.06 597.221 216.723 594.476 224.472C592.207 230.969 587.731 240.268 582.18 249.865C578.778 255.826 573.167 267.151 573.526 267.449C573.705 267.628 599.967 271.741 603.25 272.158C607.129 272.635 622.648 272.039 625.811 271.324Z" fill="currentColor"/>
<path d="M85.1698 282.47C83.1404 281.397 83.3195 278.655 85.5876 276.867L87.2588 275.496L85.5876 274.185C84.3939 273.172 83.8567 272.099 83.6179 270.072C83.2598 267.568 83.3792 267.151 84.931 265.721C86.6619 264.171 86.6619 264.052 86.9604 256.243L87.2588 248.375L108.925 248.196L130.532 248.077L130.472 210.345C130.412 189.661 130.233 168.679 129.994 163.791L129.636 154.85L114.118 170.944C97.3458 188.29 90.3028 195.979 84.931 202.477C80.8127 207.543 81.0514 207.841 88.6316 208.437C96.1521 208.974 97.6443 209.272 98.9574 210.583C100.45 212.074 100.39 212.491 98.659 214.517C97.2862 216.127 96.928 216.186 91.1384 216.365C85.5279 216.604 84.6923 216.425 79.7383 214.696C74.7246 212.848 74.3665 212.789 72.934 213.743C69.2931 216.127 69.7109 218.034 74.9634 222.445C78.6639 225.545 79.0221 226.439 77.3508 228.227C75.3215 230.314 73.1728 230.015 68.6366 226.916C64.2795 223.935 62.9664 223.637 61.6533 225.545C60.3401 227.333 60.9967 228.287 68.8753 235.857C72.5759 239.493 75.6199 242.831 75.6199 243.308C75.6199 244.739 66.4879 256.541 61.3548 261.786C56.8186 266.495 55.1474 267.33 53.6552 265.84C51.9243 264.111 52.939 261.906 58.6689 254.216C61.8323 250.044 64.8166 245.812 65.2941 244.858C66.1297 243.189 66.1298 243.07 64.1601 241.162C61.7726 238.778 55.5055 234.963 54.0134 234.963C52.5212 234.963 51.9243 236.453 51.4468 241.699C51.2081 244.202 50.7306 246.288 50.4322 246.288C50.0741 246.288 48.9997 245.633 48.0447 244.798C45.2991 242.474 44.3441 243.01 43.986 247.004C43.807 248.852 43.4488 250.58 43.2101 250.878C42.9117 251.117 40.7033 251.415 38.2561 251.534C33.1827 251.832 30.855 250.819 30.855 248.434C30.855 247.659 30.3178 246.348 29.6015 245.454C28.7062 244.321 28.4675 243.427 28.7659 242.235C29.6612 238.718 32.0487 237.705 35.3911 239.434C36.943 240.208 37.1817 240.208 38.0174 239.374C38.7933 238.539 38.7336 238.301 37.3011 237.109C35.2121 235.499 35.2121 234.963 37.1817 232.638C38.9127 230.552 40.8226 230.254 43.031 231.684C44.3441 232.519 44.5232 232.519 45.4185 231.684C46.6122 230.492 46.6122 230.194 45.3588 228.406C42.6729 224.353 37.2414 220.061 34.7943 220.061C34.078 220.061 30.5565 223.161 25.4832 228.406C20.2307 233.83 16.948 236.751 16.1721 236.751C14.3815 236.751 12.7102 234.724 13.1877 233.055C13.6652 231.208 21.0067 222.266 27.5722 215.412L33.0634 209.808L34.7943 210.703C35.7493 211.179 39.2111 213.564 42.4939 215.888C45.7766 218.273 49.4772 220.776 50.7903 221.432C52.8793 222.564 53.2374 222.564 54.6699 221.79C57.0574 220.419 56.8783 219.107 53.8343 215.829C51.3275 213.206 51.0887 212.67 51.2678 210.404C51.5662 206.47 52.7003 206.292 57.7736 209.51C60.1611 211.06 62.6082 212.312 63.2051 212.312C64.4585 212.312 68.4575 208.318 68.4575 207.007C68.4575 206.59 67.2638 204.861 65.7716 203.252C62.7276 199.854 61.5936 196.635 62.1904 192.88C62.847 188.29 66.4879 184.594 69.2931 185.667C70.0691 185.965 70.2481 187.038 70.2481 191.27C70.2481 197.231 71.0241 199.437 73.2921 199.675C75.5005 199.914 82.0661 193.953 99.1961 176.19C118.415 156.221 124.205 149.724 123.369 148.889C122.593 148.114 43.2101 147.578 32.2278 148.234L25.4832 148.651V169.752V190.853H15.0977C3.57818 190.853 1.01166 190.376 1.01166 188.111C1.01166 186.025 2.50383 185.548 10.5018 185.131L17.7239 184.714V178.514C17.7239 175.117 17.4852 171.838 17.127 171.242C16.7092 170.348 15.4558 170.11 10.4421 169.752C7.09969 169.514 3.99599 169.037 3.57818 168.679C2.6232 167.904 2.56351 163.91 3.5185 162.957C3.93631 162.539 5.60753 162.241 7.27875 162.182C12.1134 162.122 16.5899 161.288 17.1867 160.394C17.4852 159.917 17.7239 157.592 17.7239 155.267C17.7239 149.485 16.8286 148.532 11.5762 148.532C6.26408 148.532 3.45881 147.935 2.80226 146.684C1.36978 144.061 4.17505 142.571 10.86 142.571C17.127 142.571 17.4255 142.213 17.4255 134.881C17.4255 130.888 17.1867 128.682 16.7092 128.205C16.2317 127.728 13.4862 127.311 10.0243 127.073C3.9363 126.715 2.20539 126.059 2.20539 124.033C2.20539 122.364 4.11536 121.708 9.84528 121.291C17.2464 120.814 17.127 120.933 17.127 114.555C17.127 110.979 16.8883 109.131 16.4108 108.773C15.993 108.535 12.6505 108.177 8.94998 107.939C1.31009 107.581 0.414795 107.164 0.414795 103.766C0.414795 100.488 1.42947 100.249 14.2024 100.249H24.8863V113.244C24.8863 120.456 25.0654 129.934 25.3041 134.405L25.6622 142.452L73.4712 142.154C99.793 142.034 121.698 141.736 122.116 141.617C123.608 141.14 75.9184 93.9904 67.801 87.9104C61.8323 83.3802 60.1014 83.9167 58.9077 90.5331C57.9527 96.3151 55.7443 98.2225 53.2374 95.4806C50.9694 92.9771 51.3872 87.3739 54.5505 79.2673C56.1024 75.2735 56.1024 73.4257 54.4909 73.4257C52.8793 73.4257 47.6866 78.1347 42.4939 84.3935C39.6289 87.8508 37.0027 90.712 36.7043 90.712C35.7493 90.712 5.96565 62.8155 3.63787 59.8351C1.13103 56.497 1.01166 54.1723 3.45881 53.8743C5.48816 53.6359 9.78559 56.8547 21.5439 67.5245C26.7963 72.2335 32.1084 77.0021 33.3618 78.1347L35.6896 80.1614L39.6886 75.81C44.2845 70.8625 46.3735 67.7033 46.3735 65.9151C46.3735 63.8884 44.8813 63.8288 42.2551 65.7363C39.2708 67.8821 37.1817 67.9418 35.9283 66.0343C34.854 64.4249 35.1524 63.5308 37.5996 60.1927C38.3158 59.2986 38.6739 58.3449 38.4352 58.1661C38.2561 57.9872 35.2718 58.1661 31.8696 58.5833C25.7816 59.2986 25.6025 59.2986 23.5135 57.9872C22.3198 57.2719 19.8129 55.0069 18.0223 52.9802C11.3971 45.708 11.5762 39.2704 18.4998 32.1174C23.5732 26.9316 29.0644 25.4414 34.1377 27.8257C37.0624 29.1967 43.7473 35.6939 44.5829 38.0186C45.0007 39.0916 45.1201 41.6547 44.8216 44.9331C44.4635 49.5229 44.5232 50.1786 45.4185 50.5363C46.1347 50.8343 47.1494 50.2382 48.7013 48.748C51.2081 46.3041 52.1631 46.1253 54.3715 47.8539C56.4008 49.4633 56.3411 50.417 53.9537 53.3974C50.4919 57.6296 49.7159 59.7159 51.6856 59.7159C53.2971 59.7159 56.8186 56.7355 61.7129 51.1919L66.0104 46.3637L54.5505 34.7402C43.6279 23.6531 40.4645 19.5998 41.2404 17.6327C41.7179 16.381 44.4635 16.6194 46.5525 18.1096C52.4018 22.1629 73.8293 44.1582 73.8293 46.1253C73.8293 46.6618 71.2628 50.5959 68.0994 54.7684C62.0114 62.8155 60.1014 66.0343 60.1014 68.061C60.1014 69.73 61.6533 69.6108 66.4282 67.3457C69.7706 65.7959 71.4419 65.3786 75.6796 65.1998C78.7236 65.021 81.708 65.1998 82.9614 65.6171C87.9154 67.2861 89.7656 70.6837 86.5426 72.1739C85.5876 72.5912 82.0064 73.1276 78.5446 73.4257C72.5162 73.8429 69.6513 74.6178 69.6513 75.81C69.6513 77.479 89.1091 98.1033 114.655 123.496L129.935 138.696L129.875 122.006C129.875 100.726 128.98 71.2798 128.323 68.9551C128.025 68.0014 127.01 66.8092 126.055 66.2727C122.474 64.3057 122.951 59.3582 126.831 58.4045C129.577 57.6892 129.278 55.6625 126.354 54.7088C122.474 53.457 122.534 48.3904 126.533 46.4233C128.144 45.6484 128.264 45.4696 127.129 45.4696C125.458 45.41 123.369 42.7276 123.369 40.6414C123.369 38.7935 124.742 37.4225 127.129 36.8265C128.025 36.6476 128.741 36.0516 128.741 35.6343C128.741 34.2633 123.906 33.4884 115.67 33.4884H107.851L107.91 25.0241C108.03 13.8774 108.209 12.9833 110.656 12.7449C113.282 12.5065 114.297 14.2351 115.371 20.7919C115.908 24.3088 116.505 26.2759 117.221 26.8123C118.415 27.6468 126.234 27.7661 127.547 26.9316C128.204 26.5143 128.562 24.6665 128.801 20.0767C129.039 16.5598 129.517 13.4006 129.935 12.9237C130.949 11.6719 136.142 11.7316 137.336 12.9833C137.992 13.5794 138.291 15.0696 138.291 17.5731C138.351 21.3284 139.067 26.097 139.664 26.7527C140.32 27.3488 145.334 27.7065 148.079 27.2892C150.586 26.8719 150.825 26.6931 151.422 24.6665C151.72 23.4743 152.019 20.9112 152.019 19.0633C152.019 15.1888 152.974 13.8178 155.6 13.8178C158.584 13.8178 158.942 14.7716 159.42 24.0108C159.599 28.6602 159.718 32.5347 159.599 32.6539C159.48 32.7731 155.779 33.0116 151.362 33.25C142.529 33.6672 138.888 34.3229 138.888 35.5151C138.888 35.9919 140.022 36.7072 141.454 37.1841C143.782 37.8994 143.961 38.0782 144.08 40.3433C144.26 43.0257 143.603 44.1582 140.977 45.5888L139.186 46.5425L140.738 46.6021C142.827 46.6021 144.26 48.3308 144.26 50.8939C144.26 53.2186 143.663 53.8743 140.977 54.7684C139.783 55.1261 139.186 55.7221 139.186 56.497C139.186 57.2123 139.843 57.868 140.977 58.2257C143.901 59.1794 144.26 59.6563 144.26 62.3386C144.26 65.021 143.484 66.2727 141.753 66.2727C139.246 66.2727 138.709 76.108 139.246 109.369L139.664 134.464L147.124 126.775C188.965 83.4994 195.769 76.1676 195.471 74.737C195.351 74.141 193.799 73.1276 191.71 72.2931C188.308 70.9221 182.638 70.4453 177.087 71.1606C175.834 71.2798 175.535 71.0414 175.416 69.6704C174.998 66.0939 178.341 64.3653 185.443 64.3653C189.621 64.3653 191.531 64.6633 196.008 66.2131C198.932 67.2265 202.096 68.061 202.991 68.061C204.424 68.061 204.543 67.8821 204.543 65.2594C204.543 63.65 204.245 59.7159 203.946 56.4374C203.29 49.821 203.528 48.3904 205.14 48.3904C208.482 48.3904 210.333 50.5959 210.87 55.4837C211.467 60.312 211.347 60.312 217.972 53.7551C221.434 50.2978 224.24 47.377 224.24 47.1982C224.24 47.0194 221.554 44.7543 218.271 42.1316C214.988 39.5088 212.302 37.0649 212.302 36.7072C212.302 36.4092 214.928 33.4884 218.211 30.3292C224.419 24.2492 226.03 23.4743 228 25.6202C229.552 27.3488 229.253 28.2429 225.732 32.1174L222.449 35.7535L225.851 38.7935C227.701 40.4625 229.611 41.8335 229.969 41.8335C230.387 41.8335 232.297 40.5221 234.148 38.8531C237.788 35.6343 239.579 35.217 241.25 37.0649C242.683 38.6743 242.146 40.3433 238.803 44.0986C237.192 45.9465 236.237 47.4963 236.535 47.7943C237.43 48.6288 244.115 52.5629 244.712 52.5629C245.01 52.5629 246.92 50.9535 248.95 48.9865C252.949 45.1716 254.322 44.7543 256.53 46.5425L257.962 47.6751L256.828 49.821C255.396 52.4437 247.756 60.2523 245.846 60.9676C244.115 61.6233 242.325 60.7292 235.699 56.0202C231.402 52.9206 230.626 52.5629 229.731 53.2186C225.791 56.2586 219.823 62.0406 219.107 63.4712C218.39 64.8421 218.331 65.319 218.927 66.0939C219.584 66.8688 220.778 66.9284 226.329 66.5708C231.82 66.2131 233.073 66.3323 233.67 67.0476C234.804 68.359 233.431 70.8029 231.044 71.9355C226.687 74.0218 220.181 73.6641 213.615 70.9818C211.765 70.2069 211.526 70.2665 210.75 71.3394C209.557 72.9488 210.094 74.9755 213.675 82.188C216.242 87.4335 216.719 88.9237 216.958 92.7982C217.316 98.1629 216.361 100.249 213.496 100.249C210.989 100.249 210.094 98.5206 208.781 91.1888C207.527 84.1551 206.871 82.6053 205.14 82.0688C202.514 81.2343 198.336 84.8108 177.803 105.495C166.523 116.88 154.048 129.576 150.109 133.749L142.946 141.379H163.12C182.877 141.319 200.902 140.663 204.185 139.829C206.453 139.292 205.975 137.743 202.991 136.312C199.708 134.703 198.574 133.689 198.574 132.378C198.574 130.947 200.783 129.457 202.931 129.457C206.751 129.457 213.496 134.583 213.496 137.504C213.496 138.994 214.63 140.783 215.585 140.783C216.6 140.783 217.674 137.266 217.674 134.047C217.674 131.007 218.569 129.457 220.36 129.457C222.151 129.457 223.046 131.007 223.106 134.047C223.106 137.146 224.359 140.425 225.553 140.663C226.806 140.902 229.074 137.862 230.805 133.451C232.118 130.113 234.864 127.073 236.535 127.073C238.087 127.073 239.758 129.397 239.758 131.484C239.758 132.974 239.102 134.345 237.311 136.61C234.446 140.246 234.744 140.783 239.46 140.783C243.518 140.783 245.011 140.306 245.548 138.756C245.786 138.1 245.965 134.285 245.965 130.411L246.025 123.317L251.457 123.437C263.155 123.675 266.856 124.927 266.498 128.503L266.319 130.351L260.827 130.947C257.783 131.305 254.978 131.901 254.56 132.318C253.426 133.451 253.605 138.16 254.799 139.352C255.456 140.008 257.246 140.484 259.872 140.723C263.573 141.021 263.991 141.2 264.707 142.75C265.781 144.955 264.946 147.459 262.976 147.995C262.2 148.234 260.29 148.412 258.738 148.472C255.098 148.532 254.083 149.605 254.083 153.3C254.083 156.936 255.396 158.069 259.753 158.069C263.633 158.069 265.423 159.261 265.423 161.884C265.423 165.162 264.409 165.52 254.918 165.699L246.443 165.937L246.204 157.294C246.085 151.154 245.786 148.412 245.19 147.757C244.593 146.982 243.339 146.743 239.698 146.743C237.072 146.743 234.983 146.863 234.983 146.982C234.983 147.101 236.058 149.128 237.43 151.452C238.803 153.837 239.937 156.579 239.997 157.652C240.057 159.38 239.877 159.559 238.206 159.738C235.58 159.976 233.014 157.592 230.566 152.764C226.388 144.538 224.419 144.955 223.523 154.194C222.926 160.811 222.33 162.42 220.479 162.122C218.689 161.884 217.674 159.559 217.674 155.386C217.674 150.975 216.719 147.339 215.585 147.339C214.69 147.339 214.63 147.578 213.496 153.36C212.72 157.532 210.571 159.797 206.99 160.274C202.514 160.87 201.439 158.128 204.603 154.135C205.617 152.823 206.811 151.095 207.289 150.201C208.005 148.83 208.005 148.591 207.05 148.174C205.617 147.459 141.275 147.101 141.275 147.816C141.275 148.532 184.548 191.27 192.904 198.841C200.365 205.576 204.066 208.139 206.393 208.139C208.542 208.139 209.557 209.51 209.079 211.775C208.482 214.875 209.497 215.888 213.198 215.888H216.48V219.763C216.48 221.909 216.659 223.637 216.838 223.637C217.018 223.637 218.032 222.982 219.107 222.147C221.554 220.299 223.046 220.24 224.777 222.088C225.851 223.22 226.03 223.757 225.493 224.71C225.135 225.366 224.478 226.022 223.941 226.26C222.807 226.677 222.688 230.194 223.881 230.194C224.836 230.194 227.343 228.287 233.551 222.863C236.117 220.657 238.803 218.69 239.579 218.511C241.847 217.915 250.502 225.187 252.412 229.419C253.247 231.148 252.531 233.592 251.099 234.069C249.547 234.546 247.875 233.592 244.235 230.135L241.191 227.274L236.177 232.281L231.163 237.288L232.357 238.659C233.014 239.434 234.685 241.281 236.058 242.831C237.729 244.739 238.564 246.229 238.564 247.361C238.564 249.209 236.416 251.653 234.804 251.653C234.267 251.653 231.641 249.746 228.955 247.421L224.18 243.189L222.568 244.56C218.51 248.077 215.287 251.355 215.287 251.951C215.287 252.309 216.242 253.501 217.376 254.634C220.718 257.852 222.568 260.892 222.33 262.8C222.151 264.29 221.912 264.469 220.36 264.29C219.405 264.171 217.614 263.515 216.48 262.8C213.854 261.19 205.14 253.561 205.14 252.845C205.14 252.547 207.408 249.865 210.213 246.884C215.525 241.222 217.913 237.466 217.316 235.917C216.719 234.426 215.525 234.784 213.675 236.99C212.302 238.659 211.765 238.957 210.691 238.539C209.974 238.241 208.96 237.228 208.482 236.215C207.587 234.546 207.587 234.367 209.019 232.698C211.109 230.194 210.989 229.36 208.602 229.837C207.527 230.075 205.558 230.433 204.304 230.612L201.976 230.91L202.335 226.081C202.752 220.836 202.573 220.538 199.768 222.147C197.798 223.28 195.351 223.28 194.396 222.147C193.74 221.372 193.74 220.776 194.396 218.928C194.993 217.021 194.993 216.365 194.217 214.875C192.606 211.835 183.474 202 166.284 184.892C147.721 166.414 139.664 158.903 139.007 159.499C138.53 160.036 138.052 244.679 138.53 246.646C138.888 247.898 139.007 247.898 160.733 248.196C178.4 248.434 182.698 248.673 183.116 249.328C183.414 249.805 183.653 251.355 183.653 252.786C183.653 257.972 184.906 263.098 186.518 264.588C188.726 266.615 188.666 270.668 186.398 273.052L184.787 274.721L186.637 276.629C190.576 280.503 187.234 283.066 178.997 282.47C172.551 281.994 171.178 280.086 174.759 276.51C176.55 274.721 176.61 274.662 175.416 273.768C172.491 271.443 172.073 267.39 174.521 265.124C175.834 263.932 176.132 262.979 176.371 260.058C176.49 258.031 176.431 256.422 176.132 256.422C175.893 256.422 174.64 257.375 173.446 258.568C169.865 262.025 165.687 262.025 165.03 258.508C164.672 256.303 162.404 255.826 152.019 255.826C140.559 255.826 139.306 256.183 139.007 259.521C138.709 262.919 139.843 263.277 151.601 263.157L161.569 263.098V269.237C161.569 277.284 161.091 278.477 158.166 278.477C155.122 278.477 154.585 278 153.869 274.96C153.571 273.529 152.974 272.099 152.496 271.86C151.601 271.264 142.827 271.264 140.678 271.86C138.589 272.456 138.47 274.066 140.499 275.019C141.932 275.675 142.23 276.212 142.35 278.477C142.648 282.113 141.753 282.649 135.127 282.649C128.443 282.649 127.547 282.232 127.547 278.775C127.547 276.569 127.786 275.973 129.338 274.9C130.353 274.185 131.128 273.41 131.128 273.172C131.128 272.277 128.084 271.324 125.279 271.324C121.519 271.324 119.788 272.575 119.788 275.198C119.788 276.271 119.37 277.642 118.833 278.119C117.759 279.252 117.878 279.252 115.908 278.477C113.819 277.702 112.745 274.781 112.267 268.701L111.85 263.575H118.952C127.607 263.575 130.233 262.979 130.77 260.833C131.845 256.66 128.98 255.587 118.296 255.945C114.357 256.124 110.656 256.481 110.059 256.72C109.462 256.958 108.627 258.031 108.149 259.164C106.657 262.8 101.524 262.621 100.569 258.925C99.5543 255.17 95.8537 255.528 95.0181 259.462C94.5406 261.727 95.6746 265.184 97.0474 265.661C99.3752 266.376 98.9574 272.456 96.4505 274.364L95.1971 275.317L97.0474 277.106C99.5542 279.609 99.4946 281.278 96.8087 282.411C94.2421 283.424 87.1991 283.484 85.1698 282.47ZM31.9293 50.0594C32.0487 49.4633 29.9 46.781 26.3785 43.2045L20.6486 37.3629L20.8276 41.5355C21.126 46.6618 22.1407 48.9865 24.8863 50.3574C27.5125 51.6688 31.6309 51.49 31.9293 50.0594ZM37.4205 40.5818C37.4205 38.6147 35.3315 36.1708 32.6456 34.9786C30.9147 34.2037 30.0194 34.0845 29.5419 34.5614C29.0644 35.0382 29.7806 36.1112 32.0487 38.4955C35.3315 42.0123 37.4205 42.7872 37.4205 40.5818Z" fill="currentColor"/>
</svg>
