<svg viewBox="0 0 1903 900" fill="none" xmlns="http://www.w3.org/2000/svg">
<path d="M246.531 720.908C239.116 732.835 232.669 743.772 225.684 754.351C207.5 781.872 188.933 809.178 164.29 831.529C142.165 851.6 116.531 865.295 86.6574 869.271C64.0794 872.28 42.7908 867.731 25.514 851.97C13.9205 841.404 7.36555 827.482 4.26122 812.115C-0.431107 788.964 -0.550504 765.479 0.619592 742.089C1.88521 716.848 7.55659 692.264 14.4936 667.955C26.8035 624.817 43.0057 583.206 64.5092 543.841C80.6995 514.207 97.7614 484.942 122.31 461.122C146.058 438.067 174.558 429.148 207.452 433.243C228.752 435.894 247.008 444.634 262.673 458.926C268.524 464.263 273.168 470.925 279.15 476.083C283.998 480.25 289.645 484.095 295.591 486.28C316.641 494.005 327.279 508.416 327.291 530.886C327.303 550.957 326.718 571.052 327.434 591.099C328.402 618.429 330.384 645.735 331.876 673.053C332.425 683.154 332.604 693.279 333.309 703.368C334.61 722.149 336.21 740.919 337.595 759.7C338.24 768.404 338.503 777.132 339.231 785.824C339.9 793.704 340.807 801.584 341.917 809.417C342.789 815.59 344.496 816.282 350.323 813.465C366.943 805.453 379.886 793.012 391.873 779.341C410.666 757.909 426.893 734.614 440.91 709.875C452.36 689.661 463.046 669.017 473.637 648.338C475.917 643.884 477.219 638.511 477.457 633.485C478.281 616.244 478.078 598.955 478.926 581.714C480.096 557.763 481.612 533.812 483.463 509.908C485.171 487.772 487.236 465.66 489.6 443.595C491.761 423.488 493.982 403.346 497.206 383.383C502.579 350.071 508.369 316.819 514.733 283.686C524.273 234.052 537.479 185.386 556.809 138.606C568.653 109.951 582.038 81.9877 600.377 56.7232C615.338 36.0913 633.916 19.698 656.983 8.62987C671.443 1.69288 686.606 -1.31594 702.689 0.534722C723.285 2.89879 742.138 21.1785 743.356 43.4342C744.502 64.5198 743.917 85.8681 742.018 106.906C739.917 130.177 736.168 153.364 731.846 176.348C727.488 199.546 722.163 222.614 716.145 245.443C707.859 276.928 699.023 308.282 689.483 339.409C682.272 362.942 674.093 386.212 665.425 409.244C653.736 440.276 641.641 471.164 628.818 501.742C616.149 531.949 602.347 561.679 589.034 591.624C579.924 612.136 570.743 632.613 561.704 653.161C558.54 660.349 556.845 667.8 558.576 675.763C559.078 678.044 558.755 680.515 558.791 682.903C559.185 712.49 559.484 742.077 560.033 771.652C560.26 783.89 566.17 789.537 577.859 787.006C592.354 783.866 606.98 780.236 620.663 774.672C645.581 764.547 667.574 749.265 686.045 729.755C708.109 706.449 729.374 682.354 750.352 658.069C754.388 653.388 756.812 646.439 757.839 640.195C762.722 610.644 766.758 580.95 771.283 551.339C774.853 527.997 777.79 504.512 782.625 481.432C791.58 438.724 800.869 396.039 811.639 353.76C820.451 319.147 831.698 285.166 841.727 250.852C851.386 217.802 863.577 185.684 878.549 154.713C890.668 129.651 905.45 106.094 922.213 83.8025C932.087 70.6688 943.191 58.8365 957.077 49.9772C977.196 37.1301 999.105 31.6736 1022.98 35.1958C1044.94 38.4315 1062.15 58.7291 1063.7 81.0564C1065.76 110.822 1063.88 140.29 1057.16 169.136C1052.03 191.093 1044.89 212.692 1037.16 233.909C1023.01 272.701 1008.36 311.338 992.825 349.593C975.273 392.803 957.089 435.786 938.117 478.399C921.795 515.042 904.136 551.089 886.74 587.242C878.311 604.758 869.224 621.975 860.186 639.192C858.085 643.192 855.064 646.738 852.258 650.332C841.035 664.755 836.163 681.22 836.88 699.285C837.393 712.347 838.205 725.421 839.459 738.435C840.509 749.336 848.139 754.375 858.694 751.832C882.991 745.981 904.805 734.662 925.532 721.111C947.382 706.819 967.286 690.055 985.53 671.453C1001.55 655.108 1016.05 637.317 1027.34 617.402C1044.97 586.323 1062.37 555.076 1078.53 523.221C1094.24 492.249 1108.23 460.394 1123.03 428.957C1130.81 412.432 1138.7 395.955 1146.54 379.455C1147.56 377.305 1148.59 375.144 1149.47 372.935C1152.27 365.915 1151.12 364.494 1143.5 365.688C1117.97 369.664 1107.82 356.566 1105.55 335.206C1104.45 324.842 1105.13 314.264 1105.42 303.804C1105.64 295.769 1112.34 289.787 1122.32 288.139C1135.25 286.002 1148.22 284.104 1161.13 281.847C1169.53 280.379 1177.96 278.85 1186.2 276.653C1197.09 273.764 1201.91 264.857 1206.18 255.365C1227.73 207.355 1249.45 159.417 1271.07 111.431C1276.2 100.029 1280.98 88.459 1286.26 77.1163C1299.82 47.9713 1336.06 43.2551 1356.09 68.3644C1363.67 77.8685 1366.96 89.5217 1362.79 101.497C1354.64 124.935 1345.68 148.098 1337.11 171.404C1328.55 194.699 1320.03 218.005 1311.58 241.324C1310.79 243.485 1310.49 245.825 1309.67 249.347C1319.74 247.114 1328.77 245.24 1337.75 243.079C1378.3 233.3 1418.81 223.438 1459.35 213.611C1464.95 212.25 1470.5 210.615 1476.16 209.576C1487.58 207.498 1495.87 211.785 1501.36 222.017C1507.87 234.136 1510.99 247.21 1512.07 260.773C1513.11 273.8 1507.58 282.599 1494.71 286.504C1479.7 291.053 1464.39 294.587 1449.16 298.384C1419.29 305.834 1389.39 313.225 1359.47 320.532C1340.56 325.153 1321.73 330.382 1302.6 333.904C1283.81 337.367 1273.13 346.823 1268.25 365.843C1260.9 394.451 1251.36 422.509 1242.43 450.699C1229.34 491.999 1217.28 533.573 1209.81 576.305C1205.6 600.328 1201.41 624.411 1198.88 648.636C1196.41 672.277 1196.05 696.133 1194.82 719.893C1194.73 721.624 1195.08 723.379 1195.37 726.698C1200.07 723.666 1204.16 721.528 1207.64 718.675C1216.71 711.272 1225.69 703.726 1234.39 695.906C1255.64 676.814 1276.75 657.555 1297.89 638.308C1308.6 628.554 1319.37 618.847 1329.85 608.853C1344.51 594.872 1358.78 580.46 1373.55 566.598C1381.27 559.351 1386.69 550.969 1390.8 541.262C1406.26 504.762 1426 470.579 1447.97 437.613C1466.96 409.101 1488.34 382.499 1512.71 358.5C1530.53 340.949 1549.36 324.317 1572.67 313.989C1591.52 305.631 1611.33 301.19 1631.86 303.721C1657.37 306.861 1672.91 334.382 1663.99 359.229C1661.14 367.157 1661.39 374.034 1667.41 380.72C1676.24 390.559 1676.96 402.797 1675.24 415.059C1672.84 432.133 1669.33 449.051 1666.96 466.137C1664.98 480.262 1663.81 494.506 1662.57 508.726C1660.95 527.293 1659.6 545.871 1658.13 564.449C1658.04 565.631 1657.82 566.825 1657.81 568.007C1657.39 610.107 1656.78 652.218 1656.73 694.318C1656.73 703.762 1658.17 713.29 1659.87 722.615C1663.23 741.014 1677.27 747.175 1692.08 748.011C1720.55 749.611 1741.15 735.796 1756.74 713.445C1778.68 682.008 1793.78 647.43 1803.64 610.405C1812.97 575.374 1816.5 539.423 1821.35 503.676C1822.04 498.566 1822.78 493.431 1824 488.417C1826.05 479.987 1833.28 474.495 1843.76 473.994C1857.26 473.349 1870.62 473.42 1883.65 478.722C1898.43 484.727 1904.51 492.882 1902.1 508.452C1896.28 545.895 1890.61 583.374 1883.64 620.602C1878.54 647.812 1869.13 673.949 1856.98 698.795C1847.4 718.376 1837.32 737.934 1825.26 756.034C1801.65 791.471 1769.96 816.736 1726.96 824.867C1687.04 832.413 1649.79 825.416 1616.37 801.823C1596.53 787.818 1585.28 767.938 1581.72 744.226C1579.11 726.818 1578.27 709.159 1576.62 691.607C1576 685.041 1575.34 678.474 1574.7 671.907L1573.08 671.501C1568.37 678.247 1563.7 685.017 1558.94 691.739C1543.44 713.6 1528.45 735.844 1512.28 757.181C1490.37 786.063 1464.53 810.671 1429.33 822.718C1409.35 829.547 1388.85 833.953 1367.34 829.727C1347.85 825.894 1330.55 803.602 1331.03 783.388C1331.52 763.007 1333.55 742.662 1334.92 722.305C1334.99 721.17 1335.11 720.048 1335.32 717.767C1328.74 723.128 1323.04 727.88 1317.22 732.489C1296.51 748.847 1276.07 765.574 1254.91 781.335C1241.9 791.042 1228.13 799.901 1214.04 807.984C1200.65 815.661 1185.5 818.993 1170.21 820.616C1146.27 823.148 1122.87 806.277 1116.28 782.541C1112.1 767.473 1113.7 752.142 1114 736.907C1114.19 727.415 1115.54 717.947 1115.98 708.443C1116.95 687.643 1117.73 666.821 1118.44 646.01C1118.67 639.371 1118.48 632.709 1118.48 624.339C1116.56 626.619 1115.66 627.503 1114.98 628.518C1100.38 650.499 1086.52 673.005 1071.07 694.378C1048.12 726.125 1019.99 752.858 988.132 775.771C958.594 797.012 927.049 814.468 892.806 826.682C859.028 838.729 826.647 835.959 797.204 814.181C784.106 804.498 774.053 792.009 766.292 777.645C763.176 771.878 761.958 771.89 756.943 776.081C732.598 796.486 708.277 816.927 681.078 833.607C652.96 850.836 623.218 863.994 590.085 866.883C566.994 868.901 543.831 867.922 522.972 855.6C510.065 847.97 499.916 837.499 493.242 823.971C490.269 817.93 487.845 811.626 485.003 805.513C484.132 803.638 482.699 802.026 481.517 800.295C479.786 801.489 477.768 802.396 476.383 803.901C461.088 820.569 446.522 837.953 430.522 853.904C408.04 876.327 381.689 892.924 349.857 898.488C325.536 902.738 302.91 898.523 285.335 879.479C277.001 870.453 271.556 859.445 269.312 847.326C264.07 819.04 259.247 790.672 254.351 762.327C252.226 750.005 250.375 737.647 248.334 725.313C248.155 724.227 247.498 723.236 246.543 720.967L246.531 720.908ZM78.1086 767.664C79.2429 774.028 79.8637 779.938 81.4636 785.573C82.4308 788.988 85.3918 790.922 88.8066 787.722C103.11 774.302 118.322 761.682 131.372 747.139C157.162 718.376 175.871 684.838 191.966 649.938C202.521 627.049 212.001 603.659 221.839 580.448C227.033 568.198 231.976 555.852 236.991 543.531C238.185 540.605 239.033 537.501 234.77 536.355C223.917 533.43 215.416 527.245 207.249 519.52C195.572 508.476 184.241 510.159 174.164 522.779C173.913 523.09 173.698 523.424 173.459 523.747C167.537 532.188 161.424 540.51 155.717 549.095C136.518 577.977 120.602 608.578 107.91 640.852C98.0718 665.853 90.4782 691.548 85.8216 718.018C82.8964 734.602 80.6279 751.294 78.1086 767.688V767.664ZM1545.15 512.631C1544.78 512.392 1544.41 512.153 1544.02 511.914C1541.47 514.004 1538.7 515.89 1536.41 518.23C1531.83 522.899 1527.62 527.937 1523.06 532.618C1505.34 550.826 1487.56 568.974 1469.76 587.099C1456.74 600.352 1446.98 615.301 1442.24 633.604C1436.52 655.669 1429.71 677.447 1423.54 699.404C1420.75 709.338 1418.26 719.355 1415.9 729.397C1415.49 731.104 1415.98 733.409 1416.94 734.865C1417.31 735.438 1420.23 734.817 1421.72 734.137C1435.75 727.737 1448.17 718.985 1459.39 708.407C1488.06 681.387 1503.45 646.702 1515.74 610.381C1523.36 587.851 1529.85 564.939 1536.73 542.17C1539.69 532.367 1542.35 522.469 1545.15 512.619V512.631ZM576.748 409.925C600.329 365.927 616.985 319.314 629.546 271.257C642.083 223.271 650.321 174.449 655.706 125.138C605.774 213.564 589.082 311.123 576.748 409.925ZM974.282 154.94C926.535 232.214 901.307 317.666 882.024 405.292C928.959 327.779 957.961 243.664 974.282 154.94Z" fill="currentColor"/>
</svg>
