<svg viewBox="0 0 2000 770" xmlns="http://www.w3.org/2000/svg"><path d="M0 770V-.25h2000V770H0Zm1422.29-192.55h151.16l108.01-108.01H1530.3V318.25l-108.01 108v151.2Zm385.14-3.22V192.3h-381.92l104.91 104.92h172.11v172.09l104.9 104.92ZM482.28 551.85h89.56L423.56 218.08h-96.41L192.62 551.84h88l25-66.09h149.26l27.4 66.1Zm128.15 0h83.2V343.37l90 104.71h12.76l90-104.71v208.48h83.2V218.08h-72.42L790 341.9 682.85 218.08h-72.42v333.77Zm422.68 0h138c133.11 0 193.78-70.49 193.78-166.41 0-91.51-62.63-167.36-184.48-167.36h-147.3v333.77Zm83.19-61.17V279.26h53.34c78.79 0 109.62 48.431 109.62 105.7 0 48.94-24.96 105.72-108.64 105.72h-54.32Zm-788.66-63.16 48.94-129.67 53.83 129.67H327.64Z"/></svg>