<?xml version="1.0" encoding="UTF-8"?>
<!-- Generator: Adobe Illustrator 14.0.0, SVG Export Plug-In . SVG Version: 6.00 Build 43363)  -->
<!DOCTYPE svg PUBLIC "-//W3C//DTD SVG 1.1//EN" "http://www.w3.org/Graphics/SVG/1.1/DTD/svg11.dtd">
<svg version="1.1" id="Ebene_1" xmlns="http://www.w3.org/2000/svg" xmlns:xlink="http://www.w3.org/1999/xlink" x="0px" y="0px" width="196.667px" height="58.667px" viewBox="0 0 196.667 58.667" enable-background="new 0 0 196.667 58.667" xml:space="preserve">
<g>
	<path d="M27.635,3.742l-0.002,0c-0.004-0.051-0.007-0.103-0.007-0.155c0-0.999,0.814-1.809,1.818-1.809s1.817,0.81,1.817,1.809   c0,0.052-0.002,0.104-0.006,0.156L27.635,3.742L27.635,3.742z"/>
	<path d="M29.585,11.016V9.064h-1.778H21.36l0.004,0c0.115,1.097,1.038,1.951,2.159,1.951H29.585L29.585,11.016z"/>
	<path d="M23.437,3.745l-1.965-1.956h2.506l-0.001,0.001c1.136,0,2.069,0.856,2.187,1.955L23.437,3.745L23.437,3.745z"/>
	<path d="M19.87,11.028h-2.329l-0.003,0.008c0.184-1.114,1.156-1.963,2.327-1.963L19.87,11.028L19.87,11.028z"/>
	<path fill-rule="evenodd" clip-rule="evenodd" d="M29.002,13.458h-4.632H19.87h-0.009c-1.162,0-2.129-0.837-2.323-1.938   l4.648,0.008h4.502h0.009c1.162,0,2.128,0.836,2.323,1.938L29.002,13.458L29.002,13.458z"/>
	<path fill-rule="evenodd" clip-rule="evenodd" d="M22.316,16.341l-1.956,1.964l0,0h4.155h6.225h5.488   c1.14,0,2.077-0.863,2.188-1.968l0.003,0.004h-4.121h-6.406H22.316L22.316,16.341z"/>
	<path d="M35.564,3.744l1.966-1.956h-2.507l0.001,0.001c-1.135,0-2.069,0.856-2.187,1.955L35.564,3.744L35.564,3.744z"/>
	<polygon fill-rule="evenodd" clip-rule="evenodd" points="33.033,6.167 34.998,4.211 34.998,4.202 23.847,4.22 25.804,6.175    25.804,6.175 33.024,6.175 33.033,6.167  "/>
	<path d="M29.585,13.458v-1.956l9.201,0.002l0.005,0c-0.117,1.099-1.052,1.955-2.187,1.955L29.585,13.458L29.585,13.458z"/>
	<path fill-rule="evenodd" clip-rule="evenodd" d="M30.073,11.031l1.974-1.956l0,0h5.688l0.005-0.002   c-0.117,1.099-1.051,1.955-2.187,1.955L30.073,11.031L30.073,11.031z"/>
	<path fill-rule="evenodd" clip-rule="evenodd" d="M22.934,13.932h6.086h4.397h5.896l0.004,0c-0.12,1.095-1.044,1.956-2.177,1.956   H31.79h-2.951h-3.731l0,0C23.974,15.887,23.054,15.027,22.934,13.932L22.934,13.932z"/>
	<path fill-rule="evenodd" clip-rule="evenodd" d="M20.619,20.718v0.002l-2.56,2.536l-1.384-1.389l-0.006,0.006l0.004,0l3.128-3.101   h6.657l0,0h3.16h3.826h2.156l1.882-0.003c-0.121,1.095-1.053,1.946-2.186,1.946L20.619,20.718L20.619,20.718z"/>
	<path fill-rule="evenodd" clip-rule="evenodd" d="M21.605,23.149l12.497,0.005c1.136,0,2.07-0.856,2.187-1.956l-15.52,0.002   l-8.336,8.293c0.864,0.695,2.142,0.653,2.945-0.146l0,0L21.605,23.149L21.605,23.149z"/>
	<path fill-rule="evenodd" clip-rule="evenodd" d="M22.572,25.574l10.041,0.007c1.136,0,2.07-0.856,2.187-1.956l-13.056,0.002   l-5.907,5.867c0.863,0.695,2.142,0.653,2.944-0.146l0,0L22.572,25.574L22.572,25.574z"/>
	<path fill-rule="evenodd" clip-rule="evenodd" d="M22.712,26.071h10.804l1.388,1.956h-5.725h-5.642l-1.355,1.35l0,0   c-0.803,0.799-2.081,0.842-2.944,0.146l3.47-3.447L22.712,26.071L22.712,26.071z"/>
	<path fill-rule="evenodd" clip-rule="evenodd" d="M36.958,30.905l-10.932,0.007c0.117,1.1,1.051,1.969,2.187,1.969l0,0   l10.142,0.002L36.958,30.905L36.958,30.905z"/>
	<path fill-rule="evenodd" clip-rule="evenodd" d="M35.262,28.503l-11.479-0.007c0.116,1.099,1.05,1.968,2.186,1.968l0,0   l10.681,0.003L35.262,28.503L35.262,28.503z"/>
	<path d="M29.395,55.186h-3.448l0.004,0.001c0.11,1.095,0.991,1.948,2.062,1.948h1.384h0.189v-1.946l-0.182-0.002L29.395,55.186   L29.395,55.186z"/>
	<path fill-rule="evenodd" clip-rule="evenodd" d="M30.994,52.282h-1.462h-5.16l0.004-0.008c0.118-1.1,1.054-1.956,2.19-1.956h2.473   l0,0l0,0h1.956h1.961l0,0l0,0h2.472c1.137,0,2.072,0.856,2.191,1.956l0.003,0.008h-5.16H31H30.994L30.994,52.282z"/>
	<path d="M27.58,45.477c1.034,0.104,1.857,0.918,1.968,1.945l0.002,0.008h-1.969L27.58,45.477L27.58,45.477z"/>
	<path fill-rule="evenodd" clip-rule="evenodd" d="M30.817,47.893h1.29h5.515L37.619,47.9c-0.119,1.1-1.055,1.956-2.191,1.956h0.004   h-4.613h-1.792h-4.667l0.004-0.008c0.118-1.101,1.054-1.956,2.19-1.956h2.473l0,0H30.817L30.817,47.893z"/>
	<path fill-rule="evenodd" clip-rule="evenodd" d="M29.707,52.735h4.775l-0.003,0.008c-0.119,1.1-1.055,1.956-2.19,1.956h0.004   h-2.583h-3.944h-5.16l0.004-0.009c0.118-1.1,1.054-1.955,2.19-1.955h2.473l0,0l0,0h2.12h2.317H29.707L29.707,52.735z"/>
	<path fill-rule="evenodd" clip-rule="evenodd" d="M31.597,8.585l-8.656-0.006l-0.006,0.008c0.112-1.103,1.049-1.963,2.188-1.963   l6.475,0.004l5.501,0.004l0.006-0.008c-0.113,1.103-1.05,1.963-2.188,1.963h-0.012l-3.343-0.002L31.597,8.585L31.597,8.585z"/>
	<path fill-rule="evenodd" clip-rule="evenodd" d="M31.775,40.622l-3.208,0.001c0.116,1.1,1.05,1.969,2.186,1.969l0,0h0.953   l0.053,0.018h1.429l0.022,0.002l4.412,0.001L37.619,42.6c-0.112-1.058-0.979-1.902-2.056-1.965l-2.358,0.004l-1.499-0.017H31.775   L31.775,40.622z"/>
	<path fill-rule="evenodd" clip-rule="evenodd" d="M37.621,38.201l-9.63,0.001c0.116,1.1,1.05,1.969,2.186,1.969l0,0l5.453-0.006   L37.621,38.201L37.621,38.201z"/>
	<polygon points="32.35,37.727 38.02,37.725 40.011,35.761 30.38,35.762 28.407,37.727 32.35,37.727  "/>
	<path fill-rule="evenodd" clip-rule="evenodd" d="M30.951,33.316l-2.54,0.002c0.116,1.1,1.05,1.969,2.186,1.969l0,0h0.355   l9.037,0.003l-0.003-0.013c-0.111-1.058-0.979-1.902-2.056-1.965l-6.971,0.004H30.951L30.951,33.316z"/>
	<path d="M33,43.052h5.44c1.112,0.025,2.026,0.868,2.143,1.951l-7.601-0.004h-1.546l-0.013,0.004   c-1.113-0.025-2.018-0.868-2.134-1.951h3.691H33L33,43.052z"/>
	<path d="M36.833,45.476l-4.416,0.002c-1.137,0-2.072,0.856-2.19,1.956l6.607-0.003l1.558-0.001c1.137,0,2.072-0.856,2.19-1.956   l-3.723,0.002H36.833L36.833,45.476z"/>
	<path fill-rule="evenodd" clip-rule="evenodd" d="M40.842,28.921l1.396-1.39l1.405-1.398v0c0.692,0.859,0.639,2.118-0.162,2.914   l0,0l-1.256,1.25l-0.859,0.854l0.002-0.001c-0.803,0.798-2.069,0.851-2.933,0.158L40.842,28.921L40.842,28.921L40.842,28.921z"/>
	<path fill-rule="evenodd" clip-rule="evenodd" d="M48.357,7.061V4.127v0.004c0.798,0,1.497,0.424,1.883,1.057L48.357,7.061   L48.357,7.061z"/>
	<path fill-rule="evenodd" clip-rule="evenodd" d="M48.475,21.303l4.86-4.836l-0.003,0.002c0.699,0.859,0.646,2.122-0.156,2.921   l-4.86,4.836l0.002-0.002C47.62,23.364,47.672,22.101,48.475,21.303L48.475,21.303z"/>
	<path fill-rule="evenodd" clip-rule="evenodd" d="M52.64,16.526l-4.305,4.284v0c-0.698-0.859-0.646-2.122,0.157-2.921l4.306-4.285   l-0.002,0.001C53.496,14.465,53.443,15.728,52.64,16.526L52.64,16.526L52.64,16.526z"/>
	<path fill-rule="evenodd" clip-rule="evenodd" d="M45.933,16.979l0.015-0.015l5.385-5.358l2.097-2.086l0.009,0.003   c0.692,0.859,0.639,2.117-0.162,2.914l-4.41,4.389l0.002-0.004C48.065,17.621,46.796,17.673,45.933,16.979L45.933,16.979z"/>
	<path fill-rule="evenodd" clip-rule="evenodd" d="M51.259,7.585l-3.113,3.097l0.002-0.002c-0.698-0.859-0.646-2.122,0.156-2.921   l1.565-1.558l3.144-3.127l0.003-0.003c0.698,0.859,0.646,2.123-0.156,2.921l0,0L51.259,7.585L51.259,7.585z"/>
	<path fill-rule="evenodd" clip-rule="evenodd" d="M39.098,9.385V6.62l0.007-0.006l4.443-4.422l-0.002,0.003   c0.698,0.859,0.646,2.122-0.157,2.921L39.098,9.385L39.098,9.385z"/>
	<path fill-rule="evenodd" clip-rule="evenodd" d="M40.334,15.029c-0.692-0.859-0.639-2.117,0.162-2.914l0,0l3.116-3.1l1.384,1.376   L40.334,15.029L40.334,15.029z"/>
	<path fill-rule="evenodd" clip-rule="evenodd" d="M39.294,19.469c-0.692-0.859-0.638-2.117,0.162-2.914l0,0l5.874-5.84l1.384,1.376   L39.294,19.469L39.294,19.469z"/>
	<path d="M53.385,6.132c0.698,0.859,0.646,2.122-0.157,2.92L37.117,25.084c-0.698-0.859-0.646-2.122,0.156-2.921L53.385,6.132   L53.385,6.132z"/>
	<path d="M40.769,4.315L39.117,5.96V3.636c0.078-0.011,0.158-0.015,0.239-0.015C39.931,3.621,40.431,3.904,40.769,4.315   L40.769,4.315z"/>
	<path fill-rule="evenodd" clip-rule="evenodd" d="M43.593,19.309L43.593,19.309c0.682,0.845,0.641,2.077-0.124,2.875   c-0.013,0.013-0.157,0.157-0.17,0.169l0,0l-1.509,1.502l-2.069,2.059l-0.899,0.896l0.002-0.001   c-0.803,0.798-2.069,0.851-2.933,0.158l2.49-2.471l1.943-1.934l1.732-1.724L43.593,19.309L43.593,19.309L43.593,19.309z"/>
	<path fill-rule="evenodd" clip-rule="evenodd" d="M39.006,27.308l1.492-1.484l1.732-1.724l1.404-1.398l0.001,0   c0.692,0.859,0.638,2.117-0.163,2.914l0,0l-1.509,1.502l-1.574,1.566l-0.214,0.212l0.002-0.001   c-0.802,0.798-2.069,0.851-2.933,0.158l0,0L39.006,27.308L39.006,27.308L39.006,27.308z"/>
	<path fill-rule="evenodd" clip-rule="evenodd" d="M51.321,28.132l-5.203,5.177l-0.948,0.943l-0.899,0.896l0.001-0.001   c-0.802,0.798-2.068,0.851-2.933,0.158l2.49-2.472l0.905-0.901l5.204-5.177l1.041-1.036l1.732-1.724l1.405-1.398v0   c0.692,0.859,0.638,2.117-0.162,2.914l0,0l-1.51,1.502L51.321,28.132L51.321,28.132L51.321,28.132z"/>
	<path fill-rule="evenodd" clip-rule="evenodd" d="M44.969,31.05l2.896-2.881l-0.008-0.003c-0.865-0.694-2.136-0.641-2.939,0.159   l0.003-0.003l-1.35,1.343l-1.753,1.744l-0.007,0.006l-1.693,1.685l0.009,0.004c0.865,0.694,2.136,0.642,2.939-0.158l0.142-0.142   l1.453-1.445l0.306-0.305L44.969,31.05L44.969,31.05z"/>
	<path fill-rule="evenodd" clip-rule="evenodd" d="M41.457,7.729l1.113-1.107l-0.006,0.006l1.264-1.258l0,0   c0.699,0.859,0.647,2.123-0.156,2.921v0l-0.825,0.821L41.954,10l-0.266,0.264l-2.03,2.019c-0.698-0.859-0.646-2.122,0.157-2.92l0,0   l0.749-0.745l0.006-0.006L41.457,7.729L41.457,7.729L41.457,7.729z"/>
	<polygon points="37.872,38.733 40.443,36.176 41.838,37.563 39.268,40.122 37.872,38.733  "/>
	<path fill-rule="evenodd" clip-rule="evenodd" d="M44.903,37.948l-1.463,1.45l-0.899,0.895l0.001-0.001   c-0.802,0.798-2.068,0.851-2.933,0.158l2.506-2.502l0,0H44.903L44.903,37.948z"/>
	<path fill-rule="evenodd" clip-rule="evenodd" d="M51.227,28.886l2.527-2.515l-0.001,0.001c0.698,0.859,0.646,2.122-0.157,2.921   l0,0l-0.98,0.976l-4.31,4.288l-3.324,3.308l0.001-0.001c-0.698-0.859-0.646-2.122,0.156-2.921l1.78-1.767l4.297-4.275   L51.227,28.886L51.227,28.886z"/>
	<path fill-rule="evenodd" clip-rule="evenodd" d="M42.193,41.314L42.193,41.314l3.451-3.432l2.097-2.086l0.009,0.004   c0.692,0.858,0.639,2.117-0.162,2.913l-2.617,2.604L42.193,41.314L42.193,41.314z"/>
	<polygon points="45.136,41.799 47.015,39.929 47.017,42.688 45.139,44.548 45.136,41.799  "/>
	<path fill-rule="evenodd" clip-rule="evenodd" d="M48.238,27.743l0.003-0.002c-0.698-0.859-0.646-2.122,0.156-2.921l5.704-5.67   l0.005-0.004c0.698,0.859,0.646,2.122-0.156,2.921l-5.701,5.672L48.238,27.743L48.238,27.743z"/>
	<path fill-rule="evenodd" clip-rule="evenodd" d="M49.375,35.287H48.25l1.913-1.904l0.009,0.008c0.437,0.434,0.437,1.138,0,1.571   c-0.225,0.224-0.522,0.331-0.819,0.322L49.375,35.287L49.375,35.287z"/>
	<path fill-rule="evenodd" clip-rule="evenodd" d="M8.574,5.286L8.574,5.286C7.71,4.588,6.439,4.639,5.634,5.439l0,0l1.39,1.383   L8.574,5.286L8.574,5.286z"/>
	<path fill-rule="evenodd" clip-rule="evenodd" d="M13.467,3.867l-2.032,2.022L9.433,7.881l-2.155,2.144l0,0l-2.626,2.613v0   c-0.692-0.859-0.639-2.117,0.162-2.914l2.002-1.992l1.94-1.931l1.764-1.754l0.017-0.022l0,0   C11.337,3.228,12.605,3.174,13.467,3.867L13.467,3.867L13.467,3.867z"/>
	<path fill-rule="evenodd" clip-rule="evenodd" d="M13.679,7.113L12.17,8.616l-2.069,2.059l-0.9,0.896l0.002-0.001   c-0.802,0.798-2.069,0.851-2.933,0.158l2.49-2.471l1.943-1.934l1.732-1.724L13.841,4.2v0C14.534,5.059,14.48,6.316,13.679,7.113   L13.679,7.113L13.679,7.113z"/>
	<path fill-rule="evenodd" clip-rule="evenodd" d="M17.182,7.025l-3.593,3.576l-4.726,4.702l-0.003,0.003   c-0.693-0.859-0.639-2.118,0.162-2.915l3.728-3.709l4.592-4.568l0.003-0.002C18.038,4.97,17.983,6.229,17.182,7.025L17.182,7.025   L17.182,7.025z"/>
	<path fill-rule="evenodd" clip-rule="evenodd" d="M8.32,16.551l1.576-1.569l2.238-2.226l1.726-1.718l1.965-1.955l0.007,0.007   c0.692,0.859,0.639,2.117-0.162,2.914l-1.1,1.093l-1.968,1.958l-1.347,1.34l0,0C10.453,17.194,9.184,17.246,8.32,16.551   L8.32,16.551z"/>
	<path fill-rule="evenodd" clip-rule="evenodd" d="M15.801,12.512l1.39,1.382l-2.626,2.613l0.006-0.006   c-0.802,0.798-2.069,0.851-2.933,0.159L15.801,12.512L15.801,12.512z"/>
	<path fill-rule="evenodd" clip-rule="evenodd" d="M20.636,17.322l-1.385-1.378l-1.2,1.194l-4.352,4.33l0.003-0.002   c0.856,0.697,2.085,0.681,2.842-0.073L20.636,17.322L20.636,17.322z"/>
	<path fill-rule="evenodd" clip-rule="evenodd" d="M18.929,15.608l-1.385-1.378l-1.2,1.194l-4.352,4.33l0.003-0.002   c0.856,0.697,2.085,0.68,2.842-0.073L18.929,15.608L18.929,15.608z"/>
	<path fill-rule="evenodd" clip-rule="evenodd" d="M5.401,22.214l-1.39-1.383v-0.003c0.804-0.8,2.073-0.853,2.938-0.158   L5.401,22.214L5.401,22.214z"/>
	<path fill-rule="evenodd" clip-rule="evenodd" d="M6.265,24.778l-1.891,1.881l-1.695,1.687v0c-0.697-0.861-0.645-2.125,0.159-2.924   l-0.022,0.022l2.06-2.049l0.267-0.265l3.263-3.247l1.695-1.688l-0.001,0.001c0.698,0.861,0.646,2.125-0.159,2.924l-2.664,2.651   L6.265,24.778L6.265,24.778L6.265,24.778z"/>
	<path fill-rule="evenodd" clip-rule="evenodd" d="M11.273,23.247l-4.432,4.41l-3.899,3.88l-0.004-0.009   c-0.697-0.86-0.645-2.125,0.159-2.924l4.43-4.407l3.899-3.88l0.003,0.008c0.697,0.861,0.645,2.125-0.159,2.924L11.273,23.247   L11.273,23.247z"/>
	<path fill-rule="evenodd" clip-rule="evenodd" d="M8.012,27.074c-0.803,0.8-0.856,2.063-0.158,2.924l0.005,0.006l6.25-6.218   l-2.798,0.006l0,0L8.012,27.074L8.012,27.074z"/>
	<path fill-rule="evenodd" clip-rule="evenodd" d="M9.696,31.578c-0.803,0.8-2.073,0.853-2.938,0.158l0.001-0.001l2.73-2.717   l3.067-3.052l2.185-2.174l2.798-0.006l0,0l-4.218,4.196l-3.6,3.582L9.696,31.578L9.696,31.578z"/>
	<path fill-rule="evenodd" clip-rule="evenodd" d="M23.993,30.869l-3.814,3.795l-0.002,0.002c-0.698-0.859-0.646-2.122,0.157-2.922   l0.88-0.875l0,0H23.993L23.993,30.869L23.993,30.869z"/>
	<path fill-rule="evenodd" clip-rule="evenodd" d="M17.115,38.362l-7.57,7.525c0.864,0.695,2.142,0.653,2.944-0.146l0,0l7.417-7.38   H17.115L17.115,38.362z"/>
	<path fill-rule="evenodd" clip-rule="evenodd" d="M11.3,36.623l-1.39-1.383v-0.003c0.804-0.8,2.074-0.853,2.939-0.158L11.3,36.623   L11.3,36.623z"/>
	<path fill-rule="evenodd" clip-rule="evenodd" d="M16.728,34.658l-4.432,4.409l-3.899,3.88l-0.003-0.008   c-0.698-0.861-0.645-2.125,0.159-2.925l4.429-4.406l3.899-3.881l0.003,0.009c0.698,0.861,0.646,2.125-0.159,2.924L16.728,34.658   L16.728,34.658z"/>
	<path d="M16.694,38.125c0.769-0.801,0.81-2.033,0.122-2.881l-1.354,1.347l-3.892,3.873c-0.804,0.799-0.856,2.063-0.159,2.924   l0.005,0.007l4.242-4.221l1.02-1.015L16.694,38.125L16.694,38.125z"/>
	<path fill-rule="evenodd" clip-rule="evenodd" d="M28.396,40.22l-1.384-1.377l-2.251,2.237l-4.352,4.329l0.003-0.002   c0.856,0.697,2.086,0.681,2.843-0.072L28.396,40.22L28.396,40.22z"/>
	<path fill-rule="evenodd" clip-rule="evenodd" d="M26.403,42.866l-2.438,2.426l0.003-0.002c0.856,0.697,2.086,0.681,2.842-0.072   l0.979-0.974l1.255-1.248l-1.384-1.377l-1.249,1.242L26.403,42.866L26.403,42.866z"/>
	<path d="M24.578,31.006l1.39,1.382l-5.203,5.178l-0.001,0.001c-0.698-0.859-0.646-2.122,0.156-2.922L24.578,31.006L24.578,31.006z"/>
	<path fill-rule="evenodd" clip-rule="evenodd" d="M18.126,43.616c-0.803,0.799-2.072,0.851-2.937,0.155l0.02-0.007l11.093-11.037   l1.383,1.377L18.126,43.616L18.126,43.616z"/>
	<path fill-rule="evenodd" clip-rule="evenodd" d="M18.475,46.712c-0.803,0.799-2.072,0.852-2.937,0.155l0.02-0.007l12.47-12.41   l1.384,1.377L18.475,46.712L18.475,46.712z"/>
	<polygon points="76.633,49.844 76.604,49.844 74.962,41.854 72.595,41.854 75.199,52.478 77.802,52.478 79.873,44.385    79.903,44.385 81.826,52.478 84.369,52.478 87.09,41.854 84.902,41.854 83.186,49.844 83.156,49.844 81.292,41.854 78.705,41.854    76.633,49.844  "/>
	<path d="M97.579,41.854v5.769c0,1.795-0.089,3.428-2.337,3.428s-2.337-1.633-2.337-3.428v-5.769h-2.292v6.651   c0,2.825,2.041,4.193,4.629,4.193c2.589,0,4.63-1.368,4.63-4.193v-6.651H97.579L97.579,41.854z"/>
	<path fill-rule="evenodd" clip-rule="evenodd" d="M106.745,52.478v-4.091h1.671c2.382-0.073,3.698-1.339,3.698-3.267   c0-2.692-1.997-3.252-4.364-3.267h-3.298v10.624H106.745L106.745,52.478z M106.745,43.619c1.271,0.06,2.929-0.382,2.929,1.501   c0,1.884-1.657,1.442-2.929,1.501V43.619L106.745,43.619z"/>
	<path fill-rule="evenodd" clip-rule="evenodd" d="M118.026,52.478v-4.091h1.672c2.382-0.073,3.697-1.339,3.697-3.267   c0-2.692-1.996-3.252-4.363-3.267h-3.298v10.624H118.026L118.026,52.478z M118.026,43.619c1.272,0.06,2.93-0.382,2.93,1.501   c0,1.884-1.657,1.442-2.93,1.501V43.619L118.026,43.619z"/>
	<polygon points="127.163,52.478 134.484,52.478 134.484,50.712 129.455,50.712 129.455,47.872 134.01,47.872 134.01,46.106    129.455,46.106 129.455,43.619 134.321,43.619 134.321,41.854 127.163,41.854 127.163,52.478  "/>
	<path fill-rule="evenodd" clip-rule="evenodd" d="M140.766,43.619h1.923c1.007,0.015,1.598,0.412,1.598,1.354   c0,0.941-0.591,1.441-1.598,1.456h-1.923V43.619L140.766,43.619z M140.766,48.195h2.426c0.755,0.029,0.902,0.839,0.962,1.428   c0.104,0.956,0.207,1.913,0.399,2.854h2.529c-0.429-0.589-0.518-1.84-0.621-2.517c-0.192-1.471-0.192-2.545-1.953-2.736v-0.029   c1.316-0.28,2.219-1.192,2.219-2.575c0-2.163-1.878-2.752-3.712-2.767h-4.541v10.624h2.292V48.195L140.766,48.195z"/>
	<polygon points="149.752,43.619 152.933,43.619 152.933,52.478 155.225,52.478 155.225,43.619 158.406,43.619 158.406,41.854    149.752,41.854 149.752,43.619  "/>
	<path fill-rule="evenodd" clip-rule="evenodd" d="M162.661,52.478l0.799-2.252h4.23l0.769,2.252h2.308l-3.713-10.624h-2.721   l-3.861,10.624H162.661L162.661,52.478z M164.051,48.46l1.567-4.531h0.029l1.465,4.531H164.051L164.051,48.46z"/>
	<polygon points="181.271,52.228 181.271,50.462 176.641,50.462 176.641,41.604 174.349,41.604 174.349,52.228 181.271,52.228  "/>
	<path d="M80.539,24.196v5.768c0,1.796-0.089,3.429-2.337,3.429s-2.337-1.633-2.337-3.429v-5.768h-2.293v6.65   c0,2.825,2.041,4.194,4.63,4.194c2.588,0,4.629-1.369,4.629-4.194v-6.65H80.539L80.539,24.196z"/>
	<polygon points="96.743,34.82 96.743,24.196 94.598,24.196 94.598,32.524 94.569,32.554 90.501,24.196 87.099,24.196 87.099,34.82    89.244,34.82 89.244,26.021 89.273,25.991 93.489,34.82 96.743,34.82  "/>
	<polygon points="103.257,24.196 100.964,24.196 100.964,34.82 103.257,34.82 103.257,24.196  "/>
	<polygon points="110.674,34.82 113.174,34.82 117.109,24.196 114.845,24.196 112.05,32.568 112.02,32.568 109.24,24.196    106.741,24.196 110.674,34.82  "/>
	<polygon points="120.408,34.82 127.729,34.82 127.729,33.055 122.7,33.055 122.7,30.215 127.255,30.215 127.255,28.449    122.7,28.449 122.7,25.962 127.566,25.962 127.566,24.196 120.408,24.196 120.408,34.82  "/>
	<path fill-rule="evenodd" clip-rule="evenodd" d="M134.185,25.962h1.923c1.006,0.015,1.597,0.412,1.597,1.354   c0,0.941-0.591,1.442-1.597,1.457h-1.923V25.962L134.185,25.962z M134.185,30.538h2.426c0.754,0.029,0.902,0.839,0.961,1.428   c0.104,0.956,0.207,1.912,0.399,2.854h2.529c-0.429-0.589-0.518-1.84-0.621-2.517c-0.192-1.472-0.192-2.545-1.952-2.736v-0.029   c1.315-0.28,2.218-1.192,2.218-2.576c0-2.163-1.878-2.751-3.712-2.766h-4.541V34.82h2.293V30.538L134.185,30.538z"/>
	<path d="M152.461,27.228c0-2.134-1.611-3.252-3.683-3.252c-2.189,0-4.438,1.074-4.438,3.502c0,1.883,2.041,2.561,3.535,2.928   c0.917,0.236,2.44,0.324,2.44,1.575c0,1.133-1.213,1.412-2.13,1.412c-1.198,0-1.878-0.795-1.79-1.972h-2.337   c-0.073,2.678,1.657,3.62,4.098,3.62c2.292,0,4.6-0.913,4.6-3.547c0-2.134-2.396-2.589-4.022-3.001   c-0.918-0.221-1.953-0.353-1.953-1.5c0-0.927,0.858-1.369,1.701-1.369c1.109,0,1.687,0.53,1.775,1.604H152.461L152.461,27.228z"/>
	<polygon points="158.666,24.196 156.373,24.196 156.373,34.82 158.666,34.82 158.666,24.196  "/>
	<polygon points="162.178,25.962 165.358,25.962 165.358,34.82 167.651,34.82 167.651,25.962 170.831,25.962 170.831,24.196    162.178,24.196 162.178,25.962  "/>
	<path fill-rule="evenodd" clip-rule="evenodd" d="M179.807,22.71v-1.751h-1.509v1.751H179.807L179.807,22.71z M177.262,22.71   v-1.751h-1.509v1.751H177.262L177.262,22.71z M174.822,34.82l0.799-2.252h4.23l0.77,2.252h2.307l-3.712-10.624h-2.722l-3.86,10.624   H174.822L174.822,34.82z M176.212,30.803l1.567-4.532h0.03l1.464,4.532H176.212L176.212,30.803z"/>
	<polygon points="185.605,25.962 188.785,25.962 188.785,34.82 191.078,34.82 191.078,25.962 194.257,25.962 194.257,24.196    185.605,24.196 185.605,25.962  "/>
	<path fill-rule="evenodd" clip-rule="evenodd" d="M75.746,15.396v-2.825h1.79c1.08,0,1.819,0.191,1.819,1.413   c0,1.221-0.739,1.412-1.819,1.412H75.746L75.746,15.396z M75.746,10.806V8.305h1.79c0.962,0,1.494,0.397,1.494,1.25   s-0.532,1.25-1.494,1.25H75.746L75.746,10.806z M77.492,17.162c1.642,0.118,4.304-0.647,4.304-2.751   c0-1.56-1.006-2.487-2.352-2.767v-0.029c1.064-0.353,1.878-1.163,1.878-2.325c0-2.075-1.952-2.87-3.86-2.752h-4.008v10.624H77.492   L77.492,17.162z"/>
	<polygon points="85.295,17.162 92.618,17.162 92.618,15.396 87.588,15.396 87.588,12.557 92.144,12.557 92.144,10.791    87.588,10.791 87.588,8.305 92.455,8.305 92.455,6.539 85.295,6.539 85.295,17.162  "/>
	<path fill-rule="evenodd" clip-rule="evenodd" d="M99.025,8.305h1.923c1.006,0.015,1.598,0.412,1.598,1.354   c0,0.942-0.592,1.442-1.598,1.457h-1.923V8.305L99.025,8.305z M99.025,12.881h2.426c0.754,0.029,0.902,0.838,0.961,1.427   c0.104,0.957,0.207,1.913,0.399,2.854h2.529c-0.429-0.588-0.518-1.839-0.621-2.516c-0.192-1.472-0.192-2.546-1.952-2.737v-0.03   c1.316-0.279,2.219-1.192,2.219-2.575c0-2.163-1.879-2.751-3.713-2.767h-4.541v10.624h2.293V12.881L99.025,12.881z"/>
	<path d="M116.595,13.263V15.5c-0.606,0.118-1.213,0.236-2.13,0.236c-2.026,0-3.003-1.486-3.003-3.885s0.977-3.884,3.003-3.884   c1.257,0,2.145,0.456,2.145,1.81h2.44c-0.015-2.531-1.923-3.458-5.015-3.458c-2.115,0-5.014,1.31-5.014,5.532   c0,4.223,2.898,5.532,5.014,5.532c1.405,0,1.938-0.059,2.455-0.103c0.829-0.073,1.612-0.22,2.396-0.471v-5.312h-4.378v1.766   H116.595L116.595,13.263z"/>
	<polygon points="125.296,6.539 123.004,6.539 123.004,17.162 125.296,17.162 125.296,6.539  "/>
	<path d="M137.488,9.57c0-2.133-1.612-3.251-3.683-3.251c-2.189,0-4.438,1.074-4.438,3.501c0,1.884,2.041,2.561,3.535,2.928   c0.917,0.235,2.44,0.324,2.44,1.575c0,1.133-1.213,1.413-2.13,1.413c-1.198,0-1.879-0.795-1.79-1.972h-2.337   c-0.074,2.678,1.656,3.62,4.098,3.62c2.292,0,4.6-0.912,4.6-3.546c0-2.133-2.396-2.589-4.023-3.001   c-0.917-0.221-1.952-0.353-1.952-1.501c0-0.927,0.857-1.368,1.701-1.368c1.109,0,1.686,0.529,1.774,1.604H137.488L137.488,9.57z"/>
	<path d="M150.4,9.982c-0.104-2.664-2.026-3.664-4.481-3.664c-3.091,0-4.481,2.428-4.481,5.532c0,3.105,1.391,5.532,4.481,5.532   c2.455,0,4.378-1,4.481-3.664h-2.44c0.015,1.118-0.665,2.016-2.041,2.016c-1.627,0-2.041-2.398-2.041-3.885   s0.414-3.884,2.041-3.884c1.376,0,2.056,0.897,2.041,2.016H150.4L150.4,9.982z"/>
	<polygon points="156.487,17.162 156.487,12.498 160.555,12.498 160.555,17.162 162.847,17.162 162.847,6.539 160.525,6.539    160.525,10.732 156.487,10.732 156.487,6.539 154.195,6.539 154.195,17.162 156.487,17.162  "/>
	<polygon points="166.831,17.162 174.153,17.162 174.153,15.396 169.124,15.396 169.124,12.557 173.679,12.557 173.679,10.791    169.124,10.791 169.124,8.305 173.99,8.305 173.99,6.539 166.831,6.539 166.831,17.162  "/>
</g>
</svg>