<svg viewBox="0 0 225 294" version="1.1" xmlns="http://www.w3.org/2000/svg" xmlns:xlink="http://www.w3.org/1999/xlink" xml:space="preserve">
    <g transform="matrix(1,0,0,1,-79.5,-49.971)">
        <path d="M222.254,239.289C238.688,239.075 252.026,225.27 252.026,208.227C252.026,191.188 238.477,177.203 221.864,177.203C205.147,177.203 191.691,191.188 191.691,208.227C191.691,225.406 205.147,239.293 221.864,239.293C221.995,239.293 222.123,239.291 222.254,239.289ZM147.565,185.899L131.287,185.899C121.129,185.899 110.376,175.564 110.376,165.241L147.565,165.241C153.301,165.241 157.94,169.82 157.94,175.564C157.94,181.183 153.301,185.899 147.565,185.899ZM221.859,259.963C194.079,259.963 171.541,236.877 171.541,208.227L171.541,176.312C171.541,159.128 158.001,145.253 141.381,145.253L131.287,145.253C121.129,145.253 110.376,134.933 110.376,124.608L131.287,124.608L141.715,124.615C167.207,123.406 187.773,145.223 190.637,167.657C199.246,160.774 210.102,156.546 221.859,156.546C249.565,156.546 272.136,179.688 272.136,208.227C272.136,236.877 249.565,259.963 221.859,259.963ZM291.877,304.05C298.632,303.964 304.083,298.46 304.083,291.685L304.499,280.719L304.499,102.708L304.083,92.078C303.516,85.099 298.653,79.95 291.955,79.95L92.045,79.95C85.347,79.95 79.917,85.38 79.917,92.078L79.5,102.708L79.5,280.719L79.916,291.685C79.916,298.515 85.451,304.05 92.281,304.05L291.877,304.05Z" style="fill:currentColor;"/>
        <g transform="matrix(1,0,0,1,0,-265.5)">
            <path d="M290.702,325.997C290.978,325.997 291.296,326.053 291.617,326.104C291.804,326.129 292.079,326.226 292.307,326.302C292.456,326.398 292.709,326.432 292.966,326.595C293.122,326.809 293.297,327.031 293.58,327.173C293.814,327.448 293.964,327.81 294.225,328.056C294.472,328.462 294.676,328.776 294.972,329.26L296.425,331.667C296.605,332.019 296.71,332.196 296.85,332.436C296.979,332.667 297.14,332.8 297.237,332.955C297.357,333.122 297.416,333.306 297.52,333.411C297.643,333.532 297.808,333.537 297.994,333.652C298.107,333.765 298.184,333.845 298.387,333.936C298.619,333.988 298.807,334.029 298.922,334.029C299.112,334.029 299.328,333.992 299.497,333.944C299.55,333.931 299.692,333.828 299.843,333.765C300.041,333.654 300.139,333.595 300.257,333.532C300.272,333.494 300.373,333.378 300.459,333.247C300.544,333.117 300.649,332.955 300.665,332.83C300.713,332.8 300.749,332.667 300.749,332.545C300.715,332.406 300.678,332.219 300.601,332.088C300.504,331.871 300.402,331.522 300.257,331.327C300.252,330.942 300.081,330.681 299.84,330.304C299.668,329.939 299.519,329.64 299.258,329.26C298.972,328.84 298.808,328.541 298.514,328.133C298.222,327.839 298.011,327.436 297.647,327.099C297.416,326.745 297.082,326.401 296.714,326.244C296.484,325.936 296.127,325.703 295.849,325.642C296.65,325.433 297.299,325.142 297.871,324.954C298.391,324.651 298.825,324.254 299.267,323.897C299.606,323.547 299.924,322.971 300.133,322.462C300.257,321.981 300.366,321.409 300.366,320.691C300.366,320.343 300.33,319.966 300.257,319.732C300.257,319.382 300.194,319.142 300.081,318.802C299.926,318.559 299.779,318.275 299.589,317.98C299.519,317.791 299.322,317.519 299.03,317.24C298.825,317.117 298.65,316.88 298.338,316.656C298.107,316.482 297.879,316.415 297.559,316.297C297.414,316.189 297.124,316.069 296.793,315.961C296.601,315.902 296.284,315.838 296.009,315.838C295.734,315.784 295.371,315.761 295.095,315.703C294.679,315.673 294.369,315.673 293.872,315.673L288.034,315.673C287.584,315.673 287.312,315.761 286.975,315.838C286.732,315.955 286.505,316.125 286.276,316.297C286.104,316.415 285.989,316.646 285.977,316.994C285.866,317.211 285.831,317.587 285.831,317.936L285.831,331.795C285.831,332.088 285.866,332.483 285.926,332.785C285.989,332.972 286.043,333.262 286.212,333.478C286.444,333.594 286.645,333.739 286.793,333.842C287.05,333.959 287.352,334.029 287.584,334.029C287.903,334.029 288.15,333.959 288.301,333.842C288.591,333.755 288.775,333.61 288.829,333.529C289.054,333.32 289.228,333.014 289.339,332.8C289.406,332.491 289.459,332.088 289.459,331.795L289.459,325.997L290.702,325.997ZM292.775,318.516C293.399,318.545 293.87,318.559 294.389,318.559C294.689,318.559 295.124,318.589 295.266,318.683C295.472,318.821 295.735,318.974 295.925,319.141C296.016,319.26 296.156,319.382 296.314,319.604C296.484,319.838 296.596,319.966 296.653,320.187C296.71,320.477 296.71,320.691 296.71,320.864C296.71,321.235 296.71,321.468 296.62,321.763C296.562,322.053 296.42,322.186 296.194,322.388C296.02,322.631 295.907,322.805 295.661,322.822C295.401,322.971 295.201,323.093 294.861,323.202C294.566,323.265 294.272,323.346 293.834,323.388C293.522,323.416 293.122,323.446 292.651,323.446L289.459,323.446L289.459,318.516L292.775,318.516ZM96.554,318.683C96.955,318.683 97.132,318.679 97.419,318.572C97.664,318.559 97.778,318.516 97.953,318.39C98.181,318.182 98.29,317.982 98.403,317.816C98.432,317.693 98.432,317.457 98.432,317.211C98.432,317.062 98.432,316.826 98.403,316.588C98.29,316.415 98.181,316.356 97.953,316.194C97.778,316.008 97.664,315.862 97.419,315.79C97.132,315.718 96.955,315.673 96.554,315.673L85.009,315.673C84.777,315.673 84.437,315.718 84.197,315.789C84.033,315.848 83.831,315.979 83.617,316.138C83.452,316.3 83.447,316.415 83.351,316.559C83.277,316.825 83.25,317.062 83.25,317.211C83.25,317.464 83.277,317.702 83.351,317.816C83.447,317.99 83.452,318.221 83.617,318.39C83.831,318.516 84.033,318.559 84.197,318.572C84.437,318.679 84.777,318.683 85.009,318.683L89.014,318.683L89.014,331.795C89.051,332.088 89.079,332.491 89.19,332.8C89.19,333.013 89.3,333.301 89.486,333.478C89.714,333.594 89.879,333.739 90.062,333.842C90.352,333.959 90.586,334.029 90.806,334.029C91.153,334.029 91.298,333.959 91.53,333.842C91.82,333.755 92.028,333.61 92.093,333.529C92.264,333.32 92.436,333.014 92.549,332.8C92.616,332.491 92.675,332.088 92.675,331.795L92.675,318.683L96.554,318.683ZM108.211,315.471C107.52,315.471 106.88,315.545 106.3,315.66C105.58,315.673 105.015,315.838 104.506,316.08C104.014,316.356 103.449,316.532 102.989,316.88C102.583,317.117 102.101,317.529 101.774,317.892C101.021,318.683 100.447,319.734 99.983,320.833C99.863,321.411 99.708,322.105 99.632,322.737C99.508,323.346 99.418,323.985 99.418,324.678C99.418,325.352 99.508,325.988 99.632,326.575C99.708,327.216 99.863,327.839 99.975,328.462C100.21,329.028 100.462,329.521 100.678,329.991C101.021,330.574 101.304,330.985 101.721,331.382C102.013,331.854 102.55,332.145 102.927,332.51C103.449,332.8 103.986,333.068 104.495,333.358C105.015,333.532 105.596,333.654 106.3,333.786C106.932,333.943 107.569,334.029 108.274,334.029C108.988,334.029 109.664,333.944 110.249,333.816C110.873,333.654 111.408,333.532 111.984,333.378C112.613,333.075 113.062,332.8 113.487,332.541C114.011,332.189 114.362,331.899 114.817,331.382C115.15,331.002 115.541,330.578 115.731,330C116.098,329.564 116.267,329.067 116.412,328.541C116.679,327.854 116.832,327.267 116.919,326.679C116.973,326.054 116.973,325.41 116.973,324.71C116.973,323.692 116.973,322.822 116.8,322.105C116.561,321.271 116.269,320.543 116.035,319.838C115.6,319.125 115.228,318.53 114.76,317.877C114.179,317.371 113.598,316.95 112.917,316.533C112.274,316.241 111.569,315.844 110.709,315.673C109.945,315.55 109.139,315.471 108.211,315.471ZM113.372,324.678C113.372,325.41 113.317,326.026 113.201,326.592C113.031,327.213 112.849,327.839 112.7,328.259C112.441,328.711 112.12,329.205 111.863,329.492C111.467,329.931 111.192,330.159 110.728,330.451C110.417,330.681 109.953,330.782 109.568,330.919C109.139,331.043 108.671,331.145 108.272,331.145C107.812,331.145 107.566,331.087 107.131,331.014C106.88,330.923 106.477,330.805 106.262,330.681C105.899,330.626 105.58,330.449 105.392,330.167C105.028,329.939 104.87,329.826 104.615,329.473C104.32,329.26 104.15,328.913 104.014,328.541C103.782,328.247 103.577,327.839 103.456,327.39C103.449,327.037 103.335,326.534 103.28,326.129C103.174,325.698 103.165,325.127 103.165,324.678C103.165,324.199 103.174,323.634 103.28,323.228C103.335,322.808 103.449,322.3 103.456,321.981C103.623,321.468 103.797,321.172 104.014,320.772C104.15,320.541 104.304,320.133 104.594,319.966C104.855,319.676 105.015,319.401 105.317,319.26C105.58,319.093 105.83,318.861 106.189,318.683C106.414,318.56 106.824,318.559 107.104,318.454C107.509,318.394 107.77,318.335 108.211,318.335C108.671,318.385 109.139,318.4 109.663,318.559C110.017,318.572 110.537,318.802 110.877,319.125C111.282,319.261 111.629,319.617 111.984,319.966C112.207,320.343 112.558,320.715 112.714,321.289C112.903,321.72 113.082,322.224 113.207,322.822C113.319,323.444 113.372,324.069 113.372,324.678ZM120.154,326.302C120.154,326.977 120.182,327.61 120.28,328.145C120.391,328.714 120.511,329.26 120.561,329.826C120.689,330.227 120.969,330.681 121.24,331.146C121.38,331.464 121.704,331.904 121.98,332.088C122.301,332.491 122.705,332.8 123.062,332.955C123.413,333.244 123.952,333.466 124.389,333.532C124.88,333.654 125.504,333.77 126.084,333.9C126.659,333.96 127.272,334.029 127.937,334.029C128.518,334.029 129.095,333.96 129.67,333.9C130.114,333.786 130.539,333.654 131.042,333.533C131.408,333.478 131.883,333.263 132.216,333.013C132.652,332.8 132.927,332.6 133.33,332.219C133.624,331.942 134.021,331.464 134.202,331.096C134.522,330.681 134.768,330.22 134.798,329.826C134.951,329.26 135.063,328.725 135.124,328.192C135.237,327.67 135.261,326.985 135.261,326.302L135.261,317.693C135.261,317.23 135.234,316.95 135.088,316.645C135.008,316.415 134.871,316.194 134.783,315.957C134.601,315.761 134.363,315.673 134.086,315.611C133.956,315.544 133.652,315.471 133.377,315.471C133.154,315.471 132.84,315.544 132.652,315.611C132.478,315.673 132.26,315.761 132.071,315.957C131.97,316.211 131.854,316.415 131.764,316.651C131.68,316.994 131.594,317.236 131.594,317.693L131.594,326.514C131.594,327.267 131.531,327.96 131.349,328.541C131.245,329.176 131.059,329.594 130.694,329.939C130.14,330.681 129.095,331.145 127.693,331.145C127.178,331.145 126.775,331.059 126.31,330.945C125.962,330.855 125.549,330.696 125.374,330.58C124.97,330.363 124.807,330.113 124.622,329.912C124.343,329.609 124.213,329.262 124.101,329.007C124.051,328.6 123.988,328.276 123.927,327.839C123.85,327.406 123.792,326.985 123.792,326.405L123.792,317.693C123.792,317.236 123.752,316.994 123.637,316.651C123.524,316.415 123.411,316.211 123.344,315.957C123.169,315.761 122.891,315.673 122.705,315.611C122.543,315.544 122.197,315.471 121.98,315.471C121.719,315.471 121.414,315.544 121.26,315.611C121.033,315.673 120.803,315.761 120.617,315.957C120.559,316.211 120.395,316.415 120.282,316.651C120.182,316.994 120.154,317.236 120.154,317.693L120.154,326.302ZM144.063,325.997C144.368,325.997 144.748,326.053 144.926,326.104C145.223,326.129 145.506,326.226 145.629,326.302C145.905,326.398 146.122,326.432 146.261,326.595C146.495,326.809 146.779,327.031 146.948,327.173C147.078,327.448 147.368,327.81 147.649,328.056C147.79,328.462 148.108,328.776 148.356,329.26L149.8,331.667C149.912,332.019 150.096,332.196 150.265,332.436C150.428,332.667 150.489,332.8 150.548,332.955C150.632,333.122 150.781,333.306 150.963,333.411C151.069,333.532 151.196,333.537 151.284,333.652C151.419,333.765 151.602,333.845 151.83,333.936C151.908,333.988 152.118,334.029 152.356,334.029C152.561,334.029 152.638,333.992 152.763,333.944C152.99,333.931 153.16,333.828 153.285,333.765C153.341,333.654 153.458,333.595 153.575,333.532C153.72,333.494 153.806,333.378 153.917,333.247C153.97,333.117 154.083,332.955 154.083,332.83L154.083,332.545C154.083,332.406 154.083,332.219 154.029,332.088C153.938,331.871 153.863,331.522 153.679,331.327C153.516,330.942 153.344,330.681 153.285,330.304C153.068,329.939 152.806,329.64 152.638,329.26C152.43,328.84 152.121,328.541 151.908,328.133C151.646,327.839 151.31,327.436 151.11,327.099C150.73,326.745 150.489,326.401 150.146,326.244C149.8,325.936 149.56,325.703 149.166,325.642C149.95,325.433 150.616,325.142 151.196,324.954C151.832,324.651 152.27,324.254 152.638,323.897C153.04,323.547 153.341,322.971 153.453,322.462C153.662,321.981 153.797,321.409 153.797,320.691C153.797,320.343 153.745,319.966 153.662,319.732C153.604,319.382 153.505,319.142 153.344,318.802C153.341,318.559 153.217,318.275 153.039,317.98C152.806,317.791 152.638,317.519 152.474,317.24C152.198,317.117 151.937,316.88 151.773,316.656C151.482,316.482 151.196,316.415 151.009,316.297C150.69,316.189 150.489,316.069 150.24,315.961C149.91,315.902 149.689,315.838 149.371,315.838C149.08,315.784 148.809,315.761 148.384,315.703C148.111,315.673 147.649,315.673 147.299,315.673L141.351,315.673C141.034,315.673 140.612,315.761 140.4,315.838C140.051,315.955 139.815,316.125 139.71,316.297C139.53,316.415 139.365,316.646 139.24,316.994C139.148,317.211 139.118,317.587 139.118,317.936L139.118,331.795C139.118,332.088 139.133,332.483 139.238,332.785C139.306,332.972 139.469,333.262 139.656,333.478C139.815,333.594 139.945,333.739 140.236,333.842C140.482,333.959 140.67,334.029 141.034,334.029C141.211,334.029 141.482,333.959 141.744,333.842C141.931,333.755 142.077,333.61 142.308,333.529C142.497,333.32 142.642,333.014 142.642,332.8C142.718,332.491 142.773,332.088 142.773,331.795L142.773,325.997L144.063,325.997ZM146.203,318.516C146.789,318.545 147.297,318.559 147.653,318.559C148.167,318.559 148.402,318.589 148.642,318.683C148.933,318.821 149.08,318.974 149.222,319.141C149.447,319.26 149.624,319.382 149.747,319.604C149.8,319.838 149.892,319.966 149.965,320.187C150.031,320.477 150.052,320.691 150.052,320.864C150.052,321.235 150.027,321.468 149.912,321.763C149.855,322.053 149.8,322.186 149.624,322.388C149.451,322.631 149.222,322.805 149.08,322.822C148.818,322.971 148.515,323.093 148.292,323.202C147.94,323.265 147.649,323.346 147.246,323.388C146.948,323.416 146.471,323.446 146.082,323.446L142.773,323.446L142.773,318.516L146.203,318.516ZM171.319,315.471C170.623,315.471 169.989,315.545 169.409,315.66C168.874,315.673 168.299,315.838 167.66,316.08C167.134,316.356 166.679,316.532 166.205,316.88C165.697,317.117 165.347,317.529 164.914,317.892C164.175,318.683 163.601,319.734 163.249,320.833C163.073,321.411 162.87,322.105 162.739,322.737C162.621,323.346 162.617,323.985 162.617,324.678C162.617,325.352 162.621,325.988 162.739,326.575C162.855,327.216 163.025,327.839 163.218,328.462C163.319,329.028 163.604,329.521 163.949,329.991C164.175,330.574 164.552,330.985 164.88,331.382C165.335,331.854 165.638,332.145 166.205,332.51C166.654,332.8 167.085,333.068 167.604,333.358C168.299,333.532 168.881,333.654 169.464,333.786C170.047,333.943 170.73,334.029 171.426,334.029C172.135,334.029 172.767,333.944 173.399,333.816C174.039,333.654 174.686,333.532 175.209,333.378C175.72,333.075 176.21,332.8 176.731,332.541C177.152,332.189 177.586,331.899 177.979,331.382C178.298,331.002 178.683,330.578 179.027,330C179.197,329.564 179.492,329.067 179.723,328.541C179.821,327.854 179.963,327.267 180.069,326.679C180.189,326.054 180.255,325.41 180.255,324.71C180.255,323.692 180.134,322.822 179.904,322.105C179.73,321.271 179.558,320.543 179.151,319.838C178.863,319.125 178.371,318.53 177.876,317.877C177.456,317.371 176.862,316.95 176.19,316.533C175.47,316.241 174.745,315.844 174.02,315.673C173.177,315.55 172.305,315.471 171.319,315.471ZM176.533,324.678C176.533,325.41 176.442,326.026 176.301,326.592C176.193,327.213 176.123,327.839 175.838,328.259C175.556,328.711 175.373,329.205 174.991,329.492C174.745,329.931 174.337,330.159 174.039,330.451C173.542,330.681 173.225,330.782 172.715,330.919C172.357,331.043 171.895,331.145 171.37,331.145C171.079,331.145 170.678,331.087 170.424,331.014C169.989,330.923 169.752,330.805 169.405,330.681C169.049,330.626 168.875,330.449 168.511,330.167C168.307,329.939 168.031,329.826 167.742,329.473C167.597,329.26 167.365,328.913 167.137,328.541C166.93,328.247 166.872,327.839 166.734,327.39C166.582,327.037 166.442,326.534 166.385,326.129C166.335,325.698 166.277,325.127 166.277,324.678C166.277,324.199 166.335,323.634 166.385,323.228C166.442,322.808 166.582,322.3 166.734,321.981C166.911,321.468 166.959,321.172 167.138,320.772C167.365,320.541 167.568,320.133 167.719,319.966C168.004,319.676 168.293,319.401 168.466,319.26C168.764,319.093 169.032,318.861 169.34,318.683C169.698,318.56 169.922,318.559 170.337,318.454C170.617,318.394 171.029,318.335 171.319,318.335C171.895,318.385 172.418,318.4 172.765,318.559C173.338,318.572 173.687,318.802 174.039,319.125C174.505,319.261 174.79,319.617 175.137,319.966C175.47,320.343 175.661,320.715 175.948,321.289C176.19,321.72 176.242,322.224 176.34,322.822C176.478,323.444 176.533,324.069 176.533,324.678ZM190.343,326.684C191.382,326.684 192.45,326.534 193.304,326.398C193.996,326.113 194.713,325.703 195.387,325.272C195.959,324.837 196.28,324.254 196.609,323.547C196.845,322.822 196.987,322.098 196.987,321.154C196.987,320.691 196.952,320.286 196.845,319.963C196.845,319.488 196.771,319.183 196.605,318.802C196.434,318.516 196.258,318.11 196.145,317.816C195.917,317.582 195.624,317.24 195.438,317.117C195.119,316.831 194.784,316.573 194.539,316.415C194.146,316.355 193.886,316.194 193.419,316.069C193.159,315.921 192.604,315.838 192.088,315.78C191.621,315.675 191.032,315.673 190.343,315.673L185.579,315.673C185.258,315.673 184.837,315.718 184.648,315.838C184.271,315.935 184.023,316.08 183.905,316.297C183.691,316.415 183.501,316.645 183.44,316.95C183.318,317.172 183.315,317.582 183.315,317.936L183.315,331.815C183.315,332.116 183.324,332.492 183.442,332.8C183.497,333.013 183.668,333.301 183.881,333.478C184.023,333.594 184.17,333.739 184.419,333.842C184.662,333.959 184.834,334.029 185.18,334.029C185.432,334.029 185.62,333.958 185.872,333.825C186.128,333.704 186.229,333.553 186.418,333.478C186.664,333.262 186.795,332.972 186.862,332.785C186.862,332.483 186.92,332.088 186.92,331.795L186.92,326.684L190.343,326.684ZM189.436,318.516C190.286,318.545 190.942,318.559 191.44,318.625C191.957,318.776 192.436,319.032 192.597,319.26C192.839,319.488 193.072,319.839 193.188,320.075C193.305,320.485 193.305,320.772 193.305,321.234C193.305,321.487 193.305,321.874 193.265,322.105C193.182,322.341 193.067,322.635 192.886,322.822C192.696,322.971 192.597,323.207 192.347,323.385C192.057,323.547 191.884,323.547 191.581,323.636C191.217,323.75 191,323.81 190.571,323.9C190.286,323.96 189.824,323.969 189.436,323.969L186.92,323.969L186.92,318.516L189.436,318.516ZM211.823,318.559C212.502,318.559 212.897,318.45 213.196,318.159C213.257,317.982 213.374,317.816 213.427,317.704C213.542,317.529 213.565,317.293 213.565,317.117C213.565,316.95 213.54,316.715 213.423,316.537C213.367,316.415 213.257,316.297 213.196,316.138C213.074,315.962 212.837,315.842 212.592,315.785C212.462,315.703 212.171,315.673 211.823,315.673L202.311,315.673C201.79,315.675 201.299,315.786 201.02,315.95C200.874,316.051 200.666,316.189 200.554,316.298C200.432,316.415 200.426,316.486 200.318,316.655C200.146,317.109 200.033,317.457 200.033,317.936L200.033,331.387C200.033,331.904 200.089,332.161 200.207,332.487C200.316,332.8 200.432,332.955 200.556,333.177C200.73,333.378 201.014,333.53 201.238,333.532C201.59,333.611 201.829,333.652 202.311,333.652L212.155,333.652C212.497,333.652 212.67,333.639 212.909,333.534C213.139,333.532 213.257,333.471 213.39,333.349C213.565,333.127 213.713,332.955 213.833,332.8C213.895,332.667 213.946,332.479 213.946,332.219C213.946,331.815 213.775,331.387 213.39,331.235C213.257,331.087 213.137,330.942 212.905,330.864C212.647,330.803 212.491,330.769 212.155,330.769L203.702,330.769L203.702,325.698L211.184,325.698C211.515,325.698 211.802,325.698 211.923,325.645C212.171,325.562 212.387,325.477 212.547,325.297C212.548,325.127 212.677,324.955 212.75,324.911C212.837,324.713 212.897,324.484 212.897,324.254C212.847,324.131 212.809,323.91 212.734,323.721C212.67,323.547 212.548,323.502 212.502,323.384C212.357,323.212 212.141,323.095 211.918,323.029C211.799,322.967 211.515,322.922 211.184,322.922L203.702,322.922L203.702,318.559L211.823,318.559ZM221.682,325.997C221.955,325.997 222.321,326.053 222.533,326.104C222.784,326.129 223.11,326.226 223.234,326.302C223.425,326.398 223.712,326.432 223.946,326.595C224.093,326.809 224.332,327.031 224.558,327.173C224.677,327.448 224.932,327.81 225.251,328.056C225.379,328.462 225.642,328.776 225.956,329.26L227.406,331.667C227.54,332.019 227.687,332.196 227.817,332.436C227.985,332.667 228.106,332.8 228.216,332.955C228.219,333.122 228.381,333.306 228.502,333.411C228.645,333.532 228.796,333.537 228.961,333.652C229.004,333.765 229.149,333.845 229.377,333.936C229.599,333.988 229.663,334.029 229.902,334.029C230.136,334.029 230.308,333.992 230.368,333.944C230.527,333.931 230.711,333.828 230.879,333.765C231.02,333.654 231.092,333.595 231.166,333.532C231.238,333.494 231.353,333.378 231.465,333.247C231.545,333.117 231.64,332.955 231.658,332.83C231.692,332.8 231.699,332.667 231.699,332.545C231.693,332.406 231.658,332.219 231.629,332.088C231.524,331.871 231.397,331.522 231.234,331.327C231.107,330.942 231.061,330.681 230.876,330.304C230.627,329.939 230.382,329.64 230.238,329.26C229.953,328.84 229.669,328.541 229.515,328.133C229.199,327.839 228.961,327.436 228.684,327.099C228.328,326.745 228.105,326.401 227.691,326.244C227.464,325.936 227.106,325.703 226.822,325.642C227.54,325.433 228.219,325.142 228.852,324.954C229.409,324.651 229.802,324.254 230.249,323.897C230.586,323.547 230.944,322.971 231.092,322.462C231.234,321.981 231.344,321.409 231.344,320.691C231.344,320.343 231.297,319.966 231.234,319.732C231.174,319.382 231.092,319.142 231.061,318.802C230.947,318.559 230.77,318.275 230.569,317.98C230.382,317.791 230.301,317.519 230.019,317.24C229.785,317.117 229.63,316.88 229.34,316.656C229.048,316.482 228.856,316.415 228.556,316.297C228.27,316.189 228.105,316.069 227.772,315.961C227.54,315.902 227.288,315.838 226.96,315.838C226.711,315.784 226.336,315.761 226.075,315.703C225.66,315.673 225.319,315.673 224.853,315.673L218.986,315.673C218.582,315.673 218.261,315.761 217.999,315.838C217.625,315.955 217.483,316.125 217.308,316.297C217.084,316.415 216.909,316.646 216.842,316.994C216.842,317.211 216.797,317.587 216.797,317.936L216.797,331.795C216.797,332.088 216.842,332.483 216.842,332.785C216.898,332.972 217.023,333.262 217.249,333.478C217.426,333.594 217.544,333.739 217.773,333.842C218.063,333.959 218.261,334.029 218.582,334.029C218.881,334.029 219.057,333.959 219.29,333.842C219.571,333.755 219.692,333.61 219.807,333.529C220.044,333.32 220.217,333.014 220.319,332.8C220.383,332.491 220.383,332.088 220.383,331.795L220.383,325.997L221.682,325.997ZM223.801,318.516C224.387,318.545 224.85,318.559 225.367,318.559C225.719,318.559 226.104,318.589 226.222,318.683C226.477,318.821 226.712,318.974 226.822,319.141C226.994,319.26 227.177,319.382 227.34,319.604C227.464,319.838 227.54,319.966 227.54,320.187C227.599,320.477 227.633,320.691 227.633,320.864C227.633,321.235 227.585,321.468 227.54,321.763C227.54,322.053 227.4,322.186 227.206,322.388C226.998,322.631 226.822,322.805 226.672,322.822C226.381,322.971 226.121,323.093 225.86,323.202C225.524,323.265 225.254,323.346 224.8,323.388C224.524,323.416 224.047,323.446 223.64,323.446L220.383,323.446L220.383,318.516L223.801,318.516ZM246.246,331.624C246.313,331.812 246.404,331.965 246.478,332.088C246.549,332.247 246.625,332.451 246.718,332.665C246.773,332.8 246.775,332.949 246.89,333.073C246.957,333.247 247.03,333.378 247.125,333.478C247.216,333.532 247.32,333.537 247.412,333.642C247.478,333.682 247.478,333.765 247.622,333.824C247.724,333.902 247.877,333.941 248.016,333.96C248.164,333.994 248.202,334.029 248.345,334.029C248.637,334.029 248.922,333.959 249.036,333.843C249.275,333.759 249.5,333.639 249.623,333.532C249.788,333.358 249.914,333.117 250.03,332.898C250.174,332.782 250.201,332.545 250.201,332.309C250.201,332.088 250.161,331.91 250.029,331.508C249.911,331.246 249.756,330.805 249.623,330.451L244.885,318.802C244.797,318.559 244.664,318.282 244.651,317.99C244.57,317.816 244.509,317.66 244.398,317.412C244.288,317.227 244.216,317.117 244.099,316.95C243.995,316.771 243.932,316.543 243.876,316.415C243.809,316.36 243.645,316.211 243.474,316.066C243.297,315.899 243.232,315.784 243.066,315.673C242.838,315.673 242.653,315.573 242.489,315.55C242.272,315.493 241.967,315.471 241.79,315.471C241.52,315.471 241.215,315.493 241.089,315.55C240.916,315.573 240.648,315.673 240.46,315.673C240.358,315.786 240.223,315.92 240.048,316.069C239.875,316.225 239.757,316.36 239.645,316.415C239.642,316.573 239.517,316.822 239.416,317.023C239.291,317.139 239.173,317.401 239.067,317.693C238.941,317.816 238.938,318.081 238.887,318.327C238.792,318.559 238.719,318.625 238.648,318.821L234.007,330.516C233.954,330.696 233.907,330.927 233.839,331.156C233.781,331.362 233.69,331.437 233.667,331.58C233.586,331.734 233.55,331.904 233.514,332.025C233.498,332.088 233.495,332.201 233.495,332.319C233.495,332.8 233.72,333.177 234.007,333.532C234.197,333.642 234.428,333.765 234.656,333.856C234.777,333.96 235.008,334.029 235.289,334.029C235.469,334.029 235.753,333.96 235.988,333.884C236.099,333.769 236.271,333.652 236.414,333.532C236.568,333.392 236.689,333.118 236.806,332.8C236.916,332.543 237.097,332.088 237.319,331.677L238.167,329.355L245.38,329.355L246.246,331.624ZM239.037,326.651L241.79,319.26L244.509,326.651L239.037,326.651ZM262.325,318.683C262.549,318.683 262.848,318.679 263.13,318.572C263.269,318.559 263.502,318.516 263.712,318.39C263.877,318.182 263.883,317.982 263.95,317.816C264.025,317.693 264.082,317.457 264.082,317.211C264.082,317.062 264.025,316.826 263.95,316.588C263.883,316.415 263.877,316.356 263.712,316.194C263.502,316.008 263.269,315.862 263.13,315.79C262.848,315.718 262.549,315.673 262.325,315.673L250.724,315.673C250.347,315.673 250.198,315.718 249.906,315.789C249.623,315.848 249.523,315.979 249.348,316.138C249.154,316.3 249.037,316.415 248.928,316.559C248.923,316.825 248.923,317.062 248.923,317.211C248.923,317.464 248.923,317.702 248.928,317.816C249.037,317.99 249.154,318.221 249.348,318.39C249.523,318.516 249.623,318.559 249.906,318.572C250.198,318.679 250.347,318.683 250.724,318.683L254.607,318.683L254.607,331.795C254.607,332.088 254.67,332.491 254.781,332.8C254.845,333.013 255.017,333.301 255.186,333.478C255.325,333.594 255.479,333.739 255.767,333.842C256.05,333.959 256.192,334.029 256.54,334.029C256.757,334.029 256.98,333.959 257.269,333.842C257.468,333.755 257.622,333.61 257.791,333.529C258.023,333.32 258.142,333.014 258.199,332.8C258.205,332.491 258.267,332.088 258.267,331.795L258.267,318.683L262.325,318.683ZM273.867,315.471C273.16,315.471 272.461,315.545 271.891,315.66C271.272,315.673 270.751,315.838 270.213,316.08C269.619,316.356 269.1,316.532 268.734,316.88C268.177,317.117 267.793,317.529 267.446,317.892C266.731,318.683 266.037,319.734 265.69,320.833C265.457,321.411 265.327,322.105 265.327,322.737C265.221,323.346 265.167,323.985 265.167,324.678C265.167,325.352 265.221,325.988 265.327,326.575C265.327,327.216 265.457,327.839 265.681,328.462C265.907,329.028 266.052,329.521 266.414,329.991C266.731,330.574 266.981,330.985 267.425,331.382C267.72,331.854 268.177,332.145 268.662,332.51C269.051,332.8 269.619,333.068 270.204,333.358C270.751,333.532 271.311,333.654 271.895,333.786C272.526,333.943 273.16,334.029 273.867,334.029C274.58,334.029 275.31,333.944 275.984,333.816C276.588,333.654 277.162,333.532 277.637,333.378C278.16,333.075 278.756,332.8 279.194,332.541C279.6,332.189 280.09,331.899 280.407,331.382C280.881,331.002 281.117,330.578 281.467,330C281.713,329.564 281.922,329.067 282.153,328.541C282.383,327.854 282.438,327.267 282.524,326.679C282.596,326.054 282.674,325.41 282.674,324.71C282.674,323.692 282.567,322.822 282.438,322.105C282.278,321.271 281.984,320.543 281.713,319.838C281.285,319.125 280.936,318.53 280.353,317.877C279.869,317.371 279.315,316.95 278.67,316.533C278.031,316.241 277.284,315.844 276.469,315.673C275.622,315.55 274.733,315.471 273.867,315.471ZM278.963,324.678C278.963,325.41 278.908,326.026 278.884,326.592C278.74,327.213 278.566,327.839 278.29,328.259C278.149,328.711 277.806,329.205 277.454,329.492C277.22,329.931 276.811,330.159 276.473,330.451C276.012,330.681 275.665,330.782 275.276,330.919C274.752,331.043 274.389,331.145 273.867,331.145C273.534,331.145 273.16,331.087 272.867,331.014C272.461,330.923 272.234,330.805 271.852,330.681C271.649,330.626 271.273,330.449 271.04,330.167C270.786,329.939 270.462,329.826 270.321,329.473C270.036,329.26 269.764,328.913 269.619,328.541C269.508,328.247 269.336,327.839 269.164,327.39C269.042,327.037 268.907,326.534 268.879,326.129C268.879,325.698 268.87,325.127 268.87,324.678C268.87,324.199 268.879,323.634 268.879,323.228C268.907,322.808 269.042,322.3 269.164,321.981C269.341,321.468 269.512,321.172 269.619,320.772C269.764,320.541 270.034,320.133 270.299,319.966C270.431,319.676 270.734,319.401 271.04,319.26C271.194,319.093 271.562,318.861 271.78,318.683C272.145,318.56 272.461,318.559 272.811,318.454C273.16,318.394 273.456,318.335 273.867,318.335C274.389,318.385 274.824,318.4 275.31,318.559C275.771,318.572 276.126,318.802 276.588,319.125C276.912,319.261 277.343,319.617 277.579,319.966C277.943,320.343 278.155,320.715 278.333,321.289C278.618,321.72 278.793,322.224 278.884,322.822C278.911,323.444 278.963,324.069 278.963,324.678" style="fill:currentColor;fill-rule:nonzero;"/>
        </g>
        <g transform="matrix(1,0,0,1,0,274.5)">
            <path d="M99.525,45.472C100.446,45.472 101.058,45.294 101.415,44.84C101.691,44.714 101.877,44.434 101.998,44.131C102.019,43.944 102.043,43.604 102.043,43.331C102.043,43.011 102.019,42.675 101.983,42.501C101.869,42.204 101.662,41.949 101.415,41.851C101.301,41.624 100.994,41.426 100.6,41.321C100.365,41.195 99.906,41.191 99.525,41.191L86.558,41.191C85.763,41.191 85.118,41.328 84.688,41.548C84.368,41.722 84.194,41.88 84.052,41.957C83.825,42.172 83.623,42.44 83.513,42.618C83.371,43.202 83.25,43.859 83.25,44.617L83.25,65.441C83.278,66.008 83.339,66.46 83.481,66.865C83.496,67.335 83.703,67.591 84.023,67.903C84.194,68.243 84.535,68.366 84.908,68.511C85.175,68.681 85.617,68.771 85.986,68.771C86.331,68.771 86.765,68.681 87.045,68.511C87.422,68.373 87.758,68.268 87.9,67.955C88.22,67.615 88.436,67.343 88.472,66.865C88.614,66.46 88.667,66.008 88.667,65.441L88.667,56.47L97.742,56.47C98.183,56.47 98.475,56.409 98.852,56.312C99.169,56.195 99.375,56.166 99.618,55.952C99.882,55.728 99.951,55.485 100.044,55.31C100.174,55.011 100.243,54.743 100.243,54.463C100.219,54.078 100.15,53.887 100.024,53.563C99.906,53.316 99.866,53.174 99.618,52.922C99.351,52.708 99.169,52.602 98.836,52.545C98.467,52.46 98.183,52.403 97.742,52.403L88.667,52.403L88.667,45.472L99.525,45.472ZM111.528,44.045C111.528,43.473 111.439,43.04 111.3,42.618C111.289,42.172 111.077,41.904 110.753,41.601C110.579,41.256 110.23,41.134 109.866,40.989C109.574,40.814 109.151,40.729 108.791,40.729C108.434,40.729 107.98,40.814 107.724,40.989C107.351,41.134 107.01,41.256 106.868,41.601C106.561,41.904 106.341,42.196 106.297,42.618C106.159,43.064 106.106,43.482 106.106,44.045L106.106,64.873C106.106,65.481 106.167,66.078 106.297,66.443C106.362,66.865 106.58,67.238 106.893,67.546C107.088,67.72 107.509,67.964 107.866,68.138C108.381,68.275 108.867,68.292 109.415,68.292L122.699,68.292C123.15,68.292 123.486,68.292 123.895,68.178C124.155,68.082 124.492,67.879 124.751,67.644C124.93,67.517 125.125,67.238 125.278,66.905C125.409,66.723 125.473,66.338 125.473,66.106C125.473,65.696 125.409,65.441 125.278,65.165C125.125,64.848 124.93,64.691 124.751,64.452C124.467,64.155 124.13,64.014 123.88,63.997C123.474,63.872 123.15,63.831 122.699,63.831L111.528,63.831L111.528,44.045ZM130.351,65.441C130.351,66.008 130.404,66.46 130.546,66.865C130.59,67.343 130.806,67.615 131.113,67.955C131.255,68.268 131.604,68.373 131.969,68.511C132.261,68.681 132.682,68.771 133.04,68.771C133.396,68.771 133.847,68.681 134.11,68.511C134.478,68.366 134.815,68.243 134.965,67.903C135.537,67.384 135.772,66.512 135.772,65.441L135.772,56.881L142.613,46.389C142.824,46.041 143.148,45.574 143.379,45.327C143.481,44.9 143.646,44.714 143.797,44.426C143.947,44.138 144.023,43.972 144.093,43.705L144.093,42.987C144.093,42.622 144.093,42.448 143.979,42.12C143.858,41.904 143.623,41.694 143.379,41.398C142.925,41.021 142.402,40.729 141.728,40.729C141.238,40.729 140.861,40.822 140.529,41.021C140.451,41.106 140.297,41.191 140.127,41.247C139.957,41.373 139.815,41.548 139.786,41.743C139.649,41.904 139.49,41.949 139.341,42.128C139.223,42.326 139.102,42.509 139.102,42.618C138.971,42.784 138.842,43.056 138.664,43.287C138.526,43.421 138.388,43.68 138.291,43.968L133.19,52.107L128.096,43.968C127.691,43.331 127.351,42.719 127.001,42.355C126.823,41.904 126.512,41.624 126.292,41.345C126.167,41.191 125.883,41.049 125.555,40.919C125.36,40.79 124.97,40.729 124.695,40.729C124.228,40.729 123.981,40.798 123.588,40.943C123.393,41.065 123.08,41.191 122.792,41.398C122.614,41.694 122.415,41.904 122.266,42.152C122.127,42.476 122.071,42.7 122.071,43.081C122.071,43.397 122.18,43.924 122.476,44.426C122.699,44.881 123.15,45.603 123.673,46.592L130.351,56.881L130.351,65.441ZM169.233,40.729C168.28,40.729 167.253,40.83 166.309,41.049C165.49,41.191 164.614,41.373 163.775,41.762C162.903,42.022 162.133,42.476 161.447,42.886C160.766,43.331 160.166,43.944 159.643,44.572C158.411,45.72 157.644,47.208 156.931,49.013C156.74,49.78 156.46,50.713 156.294,51.742C156.217,52.602 156.152,53.616 156.152,54.726C156.152,55.655 156.217,56.726 156.294,57.594C156.444,58.536 156.711,59.504 156.931,60.389C157.23,61.159 157.644,61.994 158.049,62.728C158.411,63.499 158.986,64.175 159.537,64.812C160.065,65.441 160.668,66.053 161.371,66.496C162.068,66.93 162.847,67.437 163.722,67.684C164.614,68.106 165.49,68.292 166.345,68.434C167.355,68.654 168.341,68.771 169.383,68.771C170.482,68.771 171.45,68.665 172.456,68.442C173.332,68.292 174.188,68.129 175.039,67.72C175.915,67.453 176.686,66.975 177.37,66.549C178.052,66.106 178.647,65.453 179.179,64.857C179.75,64.2 180.351,63.514 180.712,62.769C181.178,62.015 181.507,61.236 181.839,60.45C182.033,59.601 182.306,58.661 182.46,57.664C182.602,56.783 182.602,55.728 182.602,54.743C182.602,53.316 182.536,51.912 182.236,50.713C181.92,49.545 181.612,48.325 181.118,47.354C180.501,46.223 179.873,45.363 179.102,44.557C178.323,43.717 177.541,43.04 176.487,42.48C175.473,41.904 174.391,41.434 173.218,41.191C171.925,40.911 170.624,40.729 169.233,40.729ZM177.042,54.726C177.042,55.728 176.936,56.776 176.856,57.594C176.657,58.511 176.328,59.358 176.04,60.076C175.615,60.822 175.31,61.443 174.759,61.97C174.306,62.586 173.83,63.012 173.243,63.3C172.618,63.705 171.969,64.014 171.337,64.098C170.692,64.281 170.031,64.403 169.33,64.403C168.835,64.403 168.333,64.329 167.732,64.208C167.253,64.115 166.812,64.014 166.289,63.831C165.883,63.559 165.49,63.3 164.996,63.048C164.642,62.688 164.196,62.415 163.916,61.926C163.475,61.572 163.224,61.134 162.907,60.526C162.635,60.007 162.477,59.48 162.226,58.879C162.015,58.256 161.922,57.594 161.849,56.881C161.763,56.166 161.703,55.456 161.703,54.726C161.703,53.957 161.763,53.222 161.849,52.537C161.922,51.848 162.015,51.175 162.226,50.502C162.493,49.894 162.635,49.354 162.911,48.896C163.224,48.325 163.45,47.903 163.868,47.571C164.128,47.083 164.581,46.823 164.91,46.466C165.377,46.183 165.758,45.992 166.203,45.72C166.751,45.48 167.156,45.412 167.635,45.311C168.235,45.173 168.742,45.095 169.233,45.095C170.031,45.112 170.761,45.241 171.443,45.452C172.108,45.542 172.74,45.87 173.332,46.183C174.018,46.632 174.524,47.038 174.905,47.611C175.473,48.206 175.793,48.852 176.182,49.569C176.413,50.29 176.73,51.069 176.892,51.888C176.945,52.731 177.042,53.693 177.042,54.726ZM194.726,56.742C195.217,56.742 195.581,56.776 196.068,56.853C196.413,56.881 196.847,56.91 197.086,57.047C197.471,57.225 197.719,57.452 198.12,57.594C198.355,57.878 198.725,58.227 199.004,58.487C199.316,58.924 199.718,59.305 199.989,59.792C200.411,60.389 200.707,60.973 201.145,61.617L203.282,65.295C203.566,65.668 203.854,66.131 203.995,66.374C204.162,66.759 204.389,66.966 204.567,67.238C204.709,67.498 204.843,67.606 205.05,67.797C205.281,68.029 205.423,68.191 205.577,68.292C205.857,68.41 206.128,68.527 206.282,68.62C206.619,68.73 206.846,68.771 207.167,68.771C207.479,68.771 207.648,68.738 207.917,68.665C208.171,68.597 208.298,68.503 208.512,68.41C208.78,68.292 208.987,68.252 209.035,68.114C209.206,67.932 209.384,67.729 209.53,67.578C209.644,67.473 209.7,67.278 209.7,67.032C209.753,66.865 209.79,66.755 209.79,66.564C209.761,66.338 209.7,66.151 209.7,65.826C209.591,65.441 209.433,65.124 209.177,64.715C208.987,64.155 208.845,63.721 208.505,63.239C208.273,62.651 207.965,62.144 207.559,61.617C207.271,61.037 206.846,60.45 206.489,59.877C206.136,59.375 205.654,58.879 205.281,58.308C204.745,57.793 204.324,57.433 203.894,56.97C203.354,56.657 202.925,56.284 202.483,56.117C203.618,55.805 204.689,55.456 205.439,55.014C206.311,54.65 207.021,54.05 207.572,53.458C208.253,52.869 208.63,52.164 208.963,51.325C209.145,50.53 209.327,49.707 209.327,48.645C209.327,48.198 209.267,47.631 209.145,47.2C209.068,46.778 208.987,46.247 208.845,45.87C208.639,45.472 208.399,44.978 208.241,44.654C207.965,44.187 207.625,43.903 207.369,43.506C206.979,43.246 206.704,42.886 206.25,42.618C205.95,42.423 205.463,42.143 205.107,41.949C204.709,41.88 204.36,41.743 203.995,41.616C203.542,41.487 203.18,41.398 202.678,41.345C202.297,41.304 201.855,41.247 201.238,41.195C200.731,41.191 200.208,41.191 199.612,41.191L190.598,41.191C190.023,41.191 189.585,41.256 189.061,41.398C188.688,41.572 188.306,41.783 188.116,41.949C187.763,42.266 187.593,42.618 187.519,43.064C187.382,43.437 187.297,44.042 187.297,44.617L187.297,65.441C187.297,66.008 187.37,66.427 187.491,66.865C187.593,67.307 187.718,67.578 188.019,67.903C188.302,68.243 188.501,68.366 188.919,68.511C189.171,68.681 189.641,68.771 190.023,68.771C190.448,68.771 190.838,68.681 191.162,68.511C191.466,68.373 191.803,68.268 191.977,67.955C192.289,67.615 192.496,67.343 192.585,66.865C192.674,66.46 192.727,66.008 192.727,65.441L192.727,56.742L194.726,56.742ZM197.808,45.359C198.822,45.379 199.604,45.432 200.233,45.472C200.832,45.472 201.262,45.574 201.652,45.72C201.94,45.914 202.305,46.113 202.568,46.239C202.759,46.486 203.055,46.778 203.258,46.998C203.354,47.354 203.509,47.611 203.635,47.971C203.756,48.325 203.817,48.621 203.817,49.038C203.817,49.517 203.74,49.894 203.582,50.332C203.432,50.635 203.282,51.033 203.091,51.219C202.775,51.56 202.568,51.831 202.162,51.929C201.855,52.156 201.429,52.35 201.04,52.468C200.525,52.602 200.046,52.602 199.555,52.642C199.004,52.716 198.291,52.744 197.637,52.744L192.727,52.744L192.727,45.359L197.808,45.359ZM214.692,65.441C214.692,66.008 214.765,66.46 214.903,66.865C215.069,67.335 215.288,67.591 215.45,67.903C215.762,68.243 216.12,68.366 216.355,68.511C216.74,68.681 217.032,68.771 217.519,68.771C217.875,68.771 218.256,68.681 218.561,68.511C218.953,68.366 219.141,68.243 219.465,67.903C219.935,67.384 220.255,66.512 220.255,65.441L220.255,44.045C220.255,42.931 219.935,42.063 219.465,41.601C219.141,41.256 218.95,41.134 218.544,40.989C218.256,40.814 217.847,40.729 217.519,40.729C217.007,40.729 216.708,40.814 216.323,40.989C216.079,41.134 215.734,41.256 215.45,41.601C215.264,41.904 215.04,42.196 214.887,42.618C214.757,43.064 214.692,43.482 214.692,44.045L214.692,65.441ZM244.186,45.472C245.099,45.472 245.719,45.294 246.081,44.84C246.34,44.714 246.559,44.434 246.661,44.131C246.786,43.944 246.786,43.604 246.786,43.331C246.786,43.011 246.786,42.675 246.64,42.501C246.522,42.204 246.324,41.949 246.081,41.851C245.967,41.624 245.643,41.426 245.359,41.321C245.026,41.195 244.645,41.191 244.186,41.191L229.671,41.191C228.957,41.191 228.244,41.328 227.765,41.548C227.53,41.722 227.384,41.88 227.132,41.957C226.925,42.172 226.821,42.44 226.726,42.618C226.471,43.202 226.325,43.859 226.325,44.617L226.325,64.873C226.325,65.481 226.41,66.078 226.584,66.443C226.719,66.865 226.828,67.238 227.141,67.546C227.448,67.72 227.721,67.964 228.244,68.138C228.636,68.275 229.099,68.292 229.671,68.292L244.645,68.292C245.083,68.292 245.387,68.292 245.772,68.178C246.072,68.082 246.324,67.879 246.591,67.644C246.786,67.517 246.924,67.254 247.042,66.937C247.191,66.755 247.26,66.418 247.26,66.151C247.26,65.441 246.964,64.873 246.591,64.585C246.324,64.321 246.072,64.155 245.756,64.033C245.363,64.014 245.05,63.997 244.645,63.997L231.812,63.997L231.812,56.166L243.218,56.166C243.659,56.166 243.951,56.166 244.345,56.126C244.645,56.024 244.88,55.858 245.152,55.607C245.359,55.456 245.416,55.253 245.509,54.929C245.643,54.743 245.719,54.463 245.719,54.103C245.695,53.871 245.626,53.502 245.501,53.316C245.387,53.097 245.342,52.825 245.099,52.61C244.827,52.513 244.645,52.359 244.321,52.237C243.944,52.115 243.659,52.051 243.218,52.051L231.812,52.051L231.812,45.472L244.186,45.472ZM258.764,44.045C258.593,43.831 258.395,43.515 258.237,43.331C258.192,43.141 258.042,42.857 257.875,42.622C257.673,42.509 257.523,42.281 257.479,42.046C257.337,41.904 257.203,41.783 257.049,41.641C256.882,41.466 256.769,41.337 256.655,41.195C256.493,41.191 256.274,41.085 256.067,41.021C255.97,40.919 255.759,40.85 255.495,40.798C255.342,40.749 255.167,40.729 254.839,40.729C254.612,40.729 254.247,40.781 253.914,40.911C253.712,41.021 253.346,41.158 253.189,41.231C252.852,41.426 252.577,41.677 252.475,41.904C252.256,42.046 252.057,42.387 251.919,42.618C251.822,42.857 251.777,43.227 251.777,43.49C251.733,43.924 251.7,44.252 251.7,44.759L251.7,65.574C251.724,66.151 251.777,66.609 251.798,66.937C251.919,67.413 252.143,67.644 252.414,67.955C252.568,68.268 252.88,68.373 253.2,68.511C253.464,68.681 253.886,68.771 254.218,68.771C254.628,68.771 254.936,68.681 255.313,68.511C255.52,68.373 255.885,68.268 256.056,67.955C256.282,67.644 256.509,67.413 256.647,66.937C256.769,66.609 256.769,66.151 256.769,65.574L256.769,49.752L267.085,65.481C267.284,65.712 267.442,66 267.474,66.151C267.62,66.338 267.811,66.609 268.01,66.824C268.176,66.966 268.257,67.201 268.436,67.437C268.634,67.578 268.813,67.684 268.89,67.85C269.077,68.053 269.32,68.191 269.518,68.292C269.607,68.332 269.822,68.434 270.07,68.478C270.309,68.572 270.422,68.645 270.682,68.698C270.93,68.747 271.08,68.771 271.363,68.771C272.393,68.771 273.139,68.41 273.602,67.814C274.023,67.263 274.339,66.314 274.339,65.221L274.339,43.924C274.339,43.331 274.271,42.886 274.125,42.562C273.998,42.086 273.881,41.851 273.674,41.548C273.35,41.231 273.168,41.118 272.81,40.98C272.458,40.805 272.183,40.729 271.745,40.729C271.387,40.729 271.031,40.805 270.751,40.98C270.377,41.118 270.187,41.231 269.92,41.548C269.685,41.851 269.604,42.099 269.482,42.586C269.372,42.906 269.303,43.331 269.303,43.924L269.303,59.983L258.764,44.045ZM297.971,45.72C298.369,45.72 298.843,45.643 299.134,45.542C299.557,45.472 299.754,45.359 300.084,45.144C300.27,44.881 300.412,44.714 300.533,44.382C300.675,44.062 300.749,43.859 300.749,43.437C300.749,43.185 300.675,42.784 300.533,42.618C300.412,42.31 300.27,42.022 300.084,41.904C299.754,41.669 299.557,41.463 299.134,41.337C298.843,41.203 298.369,41.191 297.971,41.191L280.442,41.191C280.056,41.191 279.586,41.203 279.306,41.337C278.889,41.45 278.69,41.641 278.37,41.851C278.159,41.978 278.038,42.266 277.92,42.594C277.769,42.772 277.701,43.185 277.701,43.437C277.701,43.883 277.769,44.106 277.92,44.426C278.038,44.751 278.159,44.9 278.37,45.144C278.69,45.359 278.889,45.472 279.306,45.542C279.586,45.643 280.056,45.72 280.442,45.72L286.488,45.72L286.488,65.441C286.512,66.008 286.577,66.46 286.719,66.865C286.735,67.335 286.942,67.591 287.258,67.903C287.433,68.243 287.785,68.366 288.142,68.511C288.442,68.681 288.856,68.771 289.229,68.771C289.569,68.771 290.007,68.681 290.283,68.511C290.656,68.373 290.996,68.268 291.138,67.955C291.458,67.615 291.674,67.343 291.71,66.865C291.852,66.46 291.905,66.008 291.905,65.441L291.905,45.72L297.971,45.72Z" style="fill:currentColor;fill-rule:nonzero;"/>
        </g>
    </g>
</svg>
