<svg
	 viewBox="0 0 863.7 567.6" >

<rect x="35.5" y="482.3" class="st0" width="828.1" height="28.6"/>
<rect x="35.5" y="539" class="st0" width="828.1" height="28.6"/>
<polygon class="st0" points="73,29.2 73,129.9 40.6,129.9 40.6,29.2 0,29.2 0,0 113.6,0 113.6,29.2 "/>
<polygon class="st0" points="240.9,80.4 155.7,80.4 155.7,129.9 123.2,129.9 123.2,0 155.7,0 155.7,49.5 240.9,49.5 240.9,0
	273.4,0 273.4,129.9 240.9,129.9 "/>
<polygon class="st0" points="288.3,129.9 288.3,0 380.7,0 380.7,29.2 320.8,29.2 320.8,51.1 369.3,51.1 369.3,78.7 320.8,78.7
	320.8,100.6 380.7,100.6 380.7,129.9 "/>
<polygon class="st0" points="72.9,209.1 68,209.1 68,292.2 35.5,292.2 35.5,162.3 73.5,162.3 149.2,243.5 154,243.5 154,162.3
	186.5,162.3 186.5,292.2 149.8,292.2 "/>
<polygon class="st0" points="201.5,292.2 201.5,162.3 293.8,162.3 293.8,191.6 233.9,191.6 233.9,213.5 282.5,213.5 282.5,241.1
	233.9,241.1 233.9,263 293.8,263 293.8,292.2 "/>
<polygon class="st0" points="296.8,162.3 332.9,162.3 361,265.7 368.7,265.7 394.3,162.3 455.3,162.3 484.7,265.7 492.4,265.7
	516.7,162.3 553.6,162.3 517.7,292.2 459.9,292.2 430,188.8 420.9,188.8 393.7,292.2 335.9,292.2 "/>
<path class="st0" d="M28.2,364.3c0-27.4,21.9-42.2,50.2-42.2c16.4,0,34.4,4.2,44.6,10.1l-6.2,27.6c-10.9-6.5-27.1-9.9-39.6-9.9
	c-10.1,0-16.9,3.9-16.9,10.7c0,21.1,66.6,9.3,66.6,52.9c0,23.2-16.6,43.7-51.1,43.7c-14.8,0-31.5-1.9-45-8.3l1.3-29.7
	c13.5,6.5,28.2,10.2,44.6,10.2c14.3,0,17.9-5,17.9-11C94.6,398.9,28.2,410.2,28.2,364.3"/>
<path class="st0" d="M234.6,452.8c-10.4,3.9-19.2,4.4-33.8,4.4c-40.3,0-67.7-31.7-67.7-67.7c0-36.8,28.4-67.2,70.6-67.2
	c10.9,0,22.9,0.3,33,3.7l-3.1,29.5c-11.4-3.7-19.5-4.2-28.9-4.2c-24,0-38.1,14.1-38.1,38.1c0,24.2,16.1,38,39,38
	c14.6,0,19.2-1.5,29.1-4.7V452.8z"/>
<polygon class="st0" points="367.2,405 282,405 282,454.6 249.5,454.6 249.5,324.7 282,324.7 282,374.2 367.2,374.2 367.2,324.7
	399.6,324.7 399.6,454.6 367.2,454.6 "/>
<path class="st0" d="M484.6,429.9c25.5,0,43.8-13,43.8-41.6c0-26-18.3-39-43.7-39c-25.3,0-43.7,12.7-43.7,39.9
	C441.1,416.7,459.4,429.9,484.6,429.9 M485,322.1c44.6,0,76.8,23,76.8,66.9c0,45.6-34.7,68.2-76.9,68.2c-42.5,0-77.3-22.9-77.3-68
	C407.6,346.6,439.3,322.1,485,322.1"/>
<path class="st0" d="M644.5,429.9c25.5,0,43.8-13,43.8-41.6c0-26-18.3-39-43.7-39c-25.3,0-43.7,12.7-43.7,39.9
	C601,416.7,619.3,429.9,644.5,429.9 M645,322.1c44.6,0,76.8,23,76.8,66.9c0,45.6-34.7,68.2-76.9,68.2c-42.5,0-77.3-22.9-77.3-68
	C567.5,346.6,599.2,322.1,645,322.1"/>
<polygon class="st0" points="730.7,324.7 763.1,324.7 763.1,423.7 863.6,423.7 863.6,454.5 730.7,454.5 "/>
</svg>
