<svg viewBox="0 0 760 398" xmlns="http://www.w3.org/2000/svg"><path d="M35.525 362.443V35.568H362.24v326.875H35.525Zm249.348-22.078c7.68 0 14.727-.828 21.129-2.5 6.398-1.649 11.855-4.305 16.367-7.969 4.5-3.664 8.016-8.39 10.512-14.21 2.504-5.821 3.754-12.879 3.754-21.188v-69.621h-38.39v73.45c0 5.21-1.24 8.921-3.684 11.132-2.446 2.215-5.678 3.32-9.69 3.32-4.003 0-7.205-1.105-9.603-3.32-2.387-2.211-3.579-5.922-3.579-11.133v-73.449h-38.574v69.621c0 8.31 1.274 15.367 3.84 21.188 2.551 5.82 6.118 10.546 10.688 14.21 4.558 3.664 10.019 6.321 16.359 7.97 6.344 1.671 13.305 2.5 20.871 2.5Zm-226.098-2.988h43.079v-8.309h-32.06V224.877H58.776v112.5Zm54.436 0h19.867v-94.715c0-.559.226-.832.664-.832.781 0 1.172.273 1.172.832a1193.386 1193.386 0 0 1 3.34 16.445 6356.63 6356.63 0 0 0 3.84 19.274c1.446 7.21 3.14 15.57 5.097 25.09a4681.93 4681.93 0 0 0 7.094 33.906h22.553c2.782-13.3 5.207-24.871 7.266-34.738a2221.448 2221.448 0 0 0 5.25-25.836 1601.675 1601.675 0 0 0 3.683-19.272 822.501 822.501 0 0 1 2.836-14.87c0-.56.227-.833.668-.833.774 0 1.172.273 1.172.832v94.717h21.703v-112.5H183.35c-.786 3.332-1.899 8.359-3.348 15.129-1.442 6.746-2.945 14.258-4.504 22.5a2784.464 2784.464 0 0 0-4.676 25.43c-1.559 8.7-2.84 16.695-3.84 24.011 0 .77-.285 1.16-.832 1.16-.785 0-1.164-.39-1.164-1.16a1167.79 1167.79 0 0 0-2.263-15.525 759.935 759.935 0 0 0-2.758-16.79 3315.048 3315.048 0 0 0-3.004-16.796c-1.012-5.47-1.977-10.635-2.93-15.44-.937-4.824-1.812-9.16-2.582-13.046a339.192 339.192 0 0 0-2.008-9.473h-36.23v112.5ZM397.752 362.443V35.568h326.715v326.875H397.752Zm68.644-24.675c4.943 0 9.873-2.423 9.872-10.04v-14.335h-4.454v14.753c0 3.957-1.789 6.352-5.418 6.352-3.71 0-5.53-2.563-5.53-6.352v-14.753h-4.454v14.336c0 8.202 4.832 10.039 9.984 10.039Zm58.731 0c3.781 0 5.796-.848 8.574-2.97l-1.715-3.417c-2.023 2.156-3.898 3.117-6.75 3.117-3.883 0-6.832-4.375-6.832-9.328 0-5.047 2.738-8.977 6.793-8.977 3.437 0 4.766 1.574 6.106 3.078l1.754-3.32c-1.821-1.906-4.492-3.039-7.93-3.039-6.969 0-11.39 5.805-11.39 12.258 0 6.594 3.64 12.598 11.39 12.598Zm-103.922-.48h4.356l.722-18.153 6.207 14.883h4.051l6.082-14.883.82 18.152h4.453l-1.402-23.894h-5.555l-6.218 15.84-6.547-15.84h-5.563l-1.406 23.894Zm64.156 0h4.395v-17.813l10.023 17.812h5.82v-23.894h-4.382v17.824l-10.02-17.824h-5.836v23.894Zm55.309 0h4.46v-10.821h10.7v10.82h4.461v-23.894h-4.46v9.804h-10.7v-9.804h-4.461v23.894Zm29.062 0h16.536v-3.544h-12.075v-7.168h10.703v-3.418h-10.703v-6.277h11.63v-3.488h-16.09v23.894Zm24.184 0h4.395v-17.813l10.02 17.812h5.835v-23.894h-4.395v17.824l-10.027-17.824h-5.828v23.894Zm-131.164-26.083c1.273 0 2.371-1.094 2.371-2.285s-1.07-2.285-2.371-2.285-2.328 1.094-2.328 2.285c0 1.19 1.066 2.285 2.328 2.285Zm6.629 0c1.258 0 2.367-1.094 2.367-2.285s-1.07-2.285-2.367-2.285c-1.305 0-2.34 1.094-2.34 2.285 0 1.19 1.063 2.285 2.34 2.285Zm-37.945-17.324c4.94 0 9.87-2.43 9.87-10.04v-14.343h-4.452v14.742c0 3.968-1.79 6.36-5.418 6.36-3.711 0-5.532-2.57-5.532-6.36v-14.742h-4.453v14.344c0 8.184 4.833 10.039 9.985 10.039Zm146.25 0c7.203 0 9.16-4.65 9.162-7.111 0-3.613-2.203-5.32-4.914-6.485l-4.727-2.012c-1.477-.614-3.02-1.433-3.02-3.144 0-1.367 1.2-2.899 3.84-2.899 2.992 0 4.672 1.329 6.043 2.997l1.887-2.97c-1.723-2.05-4.735-3.241-7.93-3.241-3.84 0-8.406 2.254-8.406 6.863 0 2.942 1.988 4.882 4.567 5.976l4.734 2.016c1.852.782 3.258 1.67 3.258 3.557 0 1.53-1.406 3.242-4.426 3.242-3.051 0-5.04-1.368-6.764-3.313l-1.886 3.008c1.137 1.321 3.844 3.516 8.582 3.516Zm-127.286-.488h4.395v-17.825l10.023 17.825h5.82v-23.895h-4.382v17.82l-10.02-17.82H450.4v23.895Zm29.813 0h4.465v-23.895h-4.465v23.895Zm19.937 0h4.727l9.543-23.895h-4.836l-6.965 19.39-6.969-19.39h-5.046l9.546 23.895Zm20.883 0h16.547v-3.543h-12.082v-7.172h10.707v-3.414h-10.707v-6.282h11.629v-3.484h-16.094v23.895Zm24.196 0h4.453V283.08h1.109c1.125 0 2.192 1.27 3.43 3.113l4.832 7.2h5.326l-6.182-8.77c-.313-.449-1.2-1.61-1.89-2.05 2.058-.235 6.109-1.915 6.109-6.419 0-4.44-3.808-6.656-8.027-6.656h-9.16v23.895Zm49.644 0h4.465v-23.895h-4.465v23.895Zm19.184 0h4.453v-20.34h8.062v-3.555H605.99v3.555h8.067v20.34Zm16.09 0h4.699l2.12-5.801h9.821l2.094 5.8h4.933l-9.464-23.894h-4.672l-9.532 23.895Zm35.3 0h4.453v-20.34h8.07v-3.555H657.39v3.555h8.058v20.34Zm-27.383-9.012 3.739-10.442 3.808 10.442h-7.547Zm-88.382-4.57v-6.938h3.847c2.88 0 4.29 1.476 4.29 3.281 0 1.984-.852 3.657-4.29 3.657h-3.847Zm88.863-12.493c1.269 0 2.34-1.093 2.34-2.297 0-1.186-1.031-2.28-2.34-2.28-1.305 0-2.328 1.092-2.328 2.28 0 1.203 1.062 2.297 2.328 2.297Zm6.625 0c1.277 0 2.332-1.093 2.332-2.297 0-1.186-1.031-2.28-2.332-2.28s-2.328 1.092-2.328 2.28c0 1.203 1.055 2.297 2.328 2.297Zm31.191-17.341c7.203-.002 9.16-4.643 9.16-7.104 0-3.609-2.19-5.32-4.902-6.484l-4.734-2.008c-1.48-.617-3.024-1.439-3.024-3.149 0-1.367 1.203-2.896 3.844-2.896 2.988 0 4.668 1.328 6.04 3.008l1.892-2.971c-1.727-2.05-4.74-3.25-7.932-3.25-3.844 0-8.408 2.254-8.408 6.863 0 2.941 1.986 4.885 4.564 5.979l4.735 2.012c1.852.789 3.258 1.671 3.258 3.554 0 1.531-1.406 3.242-4.422 3.242-3.055 0-5.039-1.367-6.766-3.312l-1.879 3c1.13 1.336 3.84 3.516 8.574 3.516Zm-255.156-.471h4.356l.722-18.164 6.207 14.883h4.051l6.082-14.883.82 18.164h4.453l-1.402-23.906h-5.555l-6.218 15.84-6.547-15.84h-5.563l-1.406 23.906Zm32.594 0h4.707l2.125-5.813h9.805l2.093 5.813h4.946L468.01 225.6h-4.672l-9.54 23.906Zm27.14 0h5.356l6.613-9.64 6.485 9.64h5.593l-9.16-12.39 8.445-11.516h-5.355l-5.762 8.875-5.902-8.875h-5.594l8.477 11.515-9.196 12.39Zm30.602 0h4.465V225.6h-4.465v23.906Zm13.45 0h4.355l.722-18.164 6.207 14.883h4.051l6.07-14.883.833 18.164h4.453l-1.399-23.906h-5.562l-6.215 15.84-6.547-15.84H526.4l-1.41 23.906Zm35.683 0h4.453V225.6h-4.453v23.906Zm14.027 0h16.332v-3.555h-11.867V225.6h-4.465v23.906Zm23.922 0h4.453V225.6h-4.453v23.906Zm11.078 0h4.7l2.124-5.813h9.813l2.094 5.813h4.947L623.9 225.6h-4.668l-9.53 23.906Zm30.153 0h4.398v-17.82l10.012 17.82h5.832V225.6h-4.383v17.82l-10.024-17.82h-5.835v23.906Zm-178.13-9.016 3.739-10.445 3.808 10.445h-7.546Zm155.903 0 3.742-10.445 3.805 10.445h-7.547Zm73.625-.203h9.363v-2.976h-9.363v2.976Zm-236.875-34.2c4.937 0 9.884-2.43 9.885-10.042v-14.336h-4.465v14.746c0 3.957-1.777 6.348-5.418 6.348-3.704 0-5.522-2.559-5.522-6.348V181.71h-4.468v14.336c0 8.194 4.847 10.043 9.988 10.043Zm107.758 0c4.082 0 6.86-.996 8.926-2.257v-11.473h-9.649v3.278h5.352v6.082c-.578.539-1.988 1.156-4.426 1.156-4.22 0-7.203-3.86-7.203-9.422 0-5.426 2.984-9.015 7-9.015 3.164 0 4.94 1.331 6.242 2.8l1.824-3.343c-1.617-1.434-4.152-2.664-8.066-2.664-5.56 0-11.625 3.957-11.625 12.222 0 7.645 4.352 12.637 11.625 12.637ZM421.79 205.6h16.328v-3.543h-11.875v-20.348h-4.453v23.89Zm51.563 0h7.203c7.718 0 12.312-4.262 12.312-12.114 0-6.863-3.804-11.777-12.312-11.777h-7.203v23.89Zm31.69 0h4.735l4.63-16.762 4.628 16.762h4.742l7.242-23.891h-4.667l-4.836 18.703-4.575-16.758h-4.726l-4.598 16.758-4.875-18.703h-4.969l7.27 23.89Zm32.731 0h4.461v-23.891h-4.46v23.89Zm-59.957-3.41v-17.102h2.536c5.17 0 7.855 2.8 7.855 8.398 0 6.453-2.777 8.703-7.855 8.703h-2.536Zm99.38-5.801h9.366v-2.973h-9.367v2.973Z"/></svg>