<svg viewBox="0 0 522.72 163.21" xmlns="http://www.w3.org/2000/svg">
  <title>FID • Marseille International Film Festival</title>
  <path d="m184.28 101.96c-3.2 3.09-6.98 4.69-11.35 4.79h-15.82v-83.11h15.82c4.37 0 8.12 1.57 11.27 4.71 3.14 3.15 4.77 6.95 4.88 11.43v2.84h22.38v-2.84c0-10.65-3.76-19.74-11.27-27.25s-16.6-11.27-27.25-11.27h-38.2v127.86h38.2c10.65 0 19.74-3.76 27.25-11.27s11.27-16.49 11.27-26.93v-3.28h-22.38v3.28c0 4.26-1.6 7.94-4.79 11.03m-74.17-100.68h-22.38v127.86h22.38zm-87.74 75.11h43.15v-22.38h-43.15v-30.37h43.15v-22.36h-65.53v127.86h22.38v-52.74z"></path>
  <path d="m0 144.62h211.45v18.59h-211.45z"></path>
  <path d="m264.59 36.17h-6.54v-21.3h-.4l-6.54 18.81h-8.03l-6.49-18.81h-.4v21.31h-6.54v-34.93h8.53l8.53 24.75h.8l8.53-24.75h8.53v34.93z"></path>
  <path d="m294.98 31.38v4.79h-1.5c-2.89 0-4.94-1.05-5.79-3.19-1.5 2.05-3.99 3.44-7.88 3.44-5.64 0-9.23-2.89-9.23-7.38 0-7.78 10.63-8.48 15.42-8.73-.1-2.89-1.7-3.94-4.24-3.94-3.54 0-3.79 2.15-3.79 2.15h-6.24c.45-4.44 4.09-7.53 10.18-7.53s10.13 2.94 10.13 10.18v6.64c0 2.89 1.05 3.59 2.94 3.59zm-9.08-5.68v-.5c-4.54.5-9.03 1.05-9.03 3.64 0 3.79 8.63 3.49 9.03-3.14z"></path>
  <path d="m316.14 10.98v6.39c-.5-.1-1.35-.2-2.2-.2-3.49 0-7.13 1.8-7.13 6.39v12.62h-6.64v-24.95h5.09l.9 2.75h.8c1.1-1.1 3.54-2.99 7.63-2.99h1.55z"></path>
  <path d="m330.31 16.27c-2.1 0-2.99 1.05-2.99 2.1 0 1.7 2.25 2.2 3.74 2.49 4.44.95 8.93 2.3 8.93 7.58s-4.24 7.98-9.38 7.98c-5.74 0-10.18-3.49-10.48-8.78h6.14c.15 1.5 1.15 3.44 4.19 3.44 2.54 0 3.14-1.35 3.14-2.4 0-1.85-1.75-2.39-3.44-2.79-2.94-.65-9.28-1.85-9.28-7.53 0-4.89 4.69-7.38 9.53-7.38 5.59 0 9.28 3.39 9.58 7.58h-6.14c-.2-.85-1-2.29-3.54-2.29z"></path>
  <path d="m369.08 25.6h-18.21c.75 3.79 3.84 5.19 6.54 5.19 3.39 0 4.84-2.1 4.84-2.1h6.29c-1.9 4.99-6.44 7.73-11.33 7.73-6.74 0-12.62-5.14-12.62-12.92s5.84-12.52 12.42-12.52 12.87 4.44 12.08 14.62zm-17.81-5.04h11.23c-.75-2.94-2.79-4.14-5.29-4.14-2.74 0-4.94 1.55-5.94 4.14z"></path>
  <path d="m373.77 4.24c0-2.39 1.95-4.24 4.29-4.24s4.19 1.85 4.19 4.24c0 2.25-1.9 4.19-4.19 4.19s-4.29-1.95-4.29-4.19zm7.49 31.93h-6.39v-24.94h6.39v24.95z"></path>
  <path d="m394.73.75v35.43h-6.49v-35.43z"></path>
  <path d="m408.55.75v35.43h-6.49v-35.43z"></path>
  <path d="m438.89 25.6h-18.21c.75 3.79 3.84 5.19 6.54 5.19 3.39 0 4.84-2.1 4.84-2.1h6.29c-1.9 4.99-6.44 7.73-11.33 7.73-6.74 0-12.62-5.14-12.62-12.92s5.84-12.52 12.42-12.52 12.87 4.44 12.08 14.62zm-17.81-5.04h11.23c-.75-2.94-2.79-4.14-5.29-4.14-2.74 0-4.94 1.55-5.94 4.14z"></path>
  <path d="m178.72 82.62h-6.94v-34.93h6.94z"></path>
  <path d="m210.35 69.1v13.52h-6.64v-12.02c0-.85.6-7.14-4.19-7.38-2.34-.15-6.54 1.15-6.54 7.68v11.73h-6.59v-24.95h5.09l.85 3.04h.85c1.05-1.25 3.39-3.29 7.58-3.29 6.44 0 9.58 4.79 9.58 11.68z"></path>
  <path d="m234.11 80.78s-2.1 2.1-5.94 2.1c-4.79 0-8.93-3.24-8.93-8.28v-11.58h-4.99v-4.89h2.49c1.7 0 2.84-1.15 2.84-2.94v-4.99h6.04v7.48h6.29v5.34h-6.29v11.18c0 1.7 1.4 2.99 3.19 2.99 1.5 0 2.89-.85 2.89-.85l2.39 4.44z"></path>
  <path d="m261.5 72.05h-18.21c.75 3.79 3.84 5.19 6.54 5.19 3.39 0 4.84-2.1 4.84-2.1h6.29c-1.9 4.99-6.44 7.73-11.33 7.73-6.74 0-12.62-5.14-12.62-12.92s5.84-12.52 12.42-12.52 12.87 4.44 12.08 14.62zm-17.81-5.04h11.23c-.75-2.94-2.79-4.14-5.29-4.14-2.74 0-4.94 1.55-5.94 4.14z"></path>
  <path d="m283.26 57.43v6.39c-.5-.1-1.35-.2-2.2-.2-3.49 0-7.13 1.8-7.13 6.39v12.62h-6.64v-24.95h5.09l.9 2.75h.8c1.1-1.1 3.54-2.99 7.63-2.99h1.55z"></path>
  <path d="m312.75 69.1v13.52h-6.64v-12.02c0-.85.6-7.14-4.19-7.38-2.34-.15-6.54 1.15-6.54 7.68v11.73h-6.59v-24.95h5.09l.85 3.04h.85c1.05-1.25 3.39-3.29 7.58-3.29 6.44 0 9.58 4.79 9.58 11.68z"></path>
  <path d="m342.94 77.83v4.79h-1.5c-2.89 0-4.94-1.05-5.79-3.19-1.5 2.05-3.99 3.44-7.88 3.44-5.64 0-9.23-2.89-9.23-7.38 0-7.78 10.63-8.48 15.42-8.73-.1-2.89-1.7-3.94-4.24-3.94-3.54 0-3.79 2.15-3.79 2.15h-6.24c.45-4.44 4.09-7.53 10.18-7.53s10.13 2.94 10.13 10.18v6.64c0 2.89 1.05 3.59 2.94 3.59zm-9.09-5.68v-.5c-4.54.5-9.03 1.05-9.03 3.64 0 3.79 8.63 3.49 9.03-3.14z"></path>
  <path d="m364.49 80.78s-2.1 2.1-5.94 2.1c-4.79 0-8.93-3.24-8.93-8.28v-11.58h-4.99v-4.89h2.49c1.7 0 2.84-1.15 2.84-2.94v-4.99h6.04v7.48h6.29v5.34h-6.29v11.18c0 1.7 1.4 2.99 3.19 2.99 1.5 0 2.89-.85 2.89-.85l2.4 4.44z"></path>
  <path d="m367.64 50.69c0-2.39 1.95-4.24 4.29-4.24s4.19 1.85 4.19 4.24c0 2.25-1.9 4.19-4.19 4.19s-4.29-1.95-4.29-4.19zm7.48 31.93h-6.39v-24.95h6.39z"></path>
  <path d="m381.26 70.2c0-7.98 6.19-12.77 12.87-12.77s12.62 4.84 12.62 12.67-6.09 12.77-12.82 12.77-12.67-4.84-12.67-12.67zm18.96-.05c0-3.89-2.29-6.94-6.09-6.94s-6.34 3.04-6.34 6.94 2.54 6.94 6.34 6.94 6.09-3.04 6.09-6.94z"></path>
  <path d="m436.45 69.1v13.52h-6.64v-12.02c0-.85.6-7.14-4.19-7.38-2.34-.15-6.54 1.15-6.54 7.68v11.73h-6.59v-24.95h5.09l.85 3.04h.85c1.05-1.25 3.39-3.29 7.58-3.29 6.44 0 9.58 4.79 9.58 11.68z"></path>
  <path d="m466.64 77.83v4.79h-1.5c-2.89 0-4.94-1.05-5.79-3.19-1.5 2.05-3.99 3.44-7.88 3.44-5.64 0-9.23-2.89-9.23-7.38 0-7.78 10.63-8.48 15.42-8.73-.1-2.89-1.7-3.94-4.24-3.94-3.54 0-3.79 2.15-3.79 2.15h-6.24c.45-4.44 4.09-7.53 10.18-7.53s10.13 2.94 10.13 10.18v6.64c0 2.89 1.05 3.59 2.94 3.59zm-9.09-5.68v-.5c-4.54.5-9.03 1.05-9.03 3.64 0 3.79 8.63 3.49 9.03-3.14z"></path>
  <path d="m477.86 47.2v35.43h-6.49v-35.43z"></path>
  <path d="m236.35 100.49v7.78h13.32v6.14h-13.32v14.67h-6.69v-34.93h23v6.34h-16.32z"></path>
  <path d="m257.36 97.14c0-2.39 1.95-4.24 4.29-4.24s4.19 1.85 4.19 4.24c0 2.25-1.9 4.19-4.19 4.19s-4.29-1.95-4.29-4.19zm7.48 31.94h-6.39v-24.95h6.39z"></path>
  <path d="m278.32 93.65v35.43h-6.49v-35.43z"></path>
  <path d="m322.63 115.55v13.52h-6.64v-12.02c0-3.44.35-7.78-4.24-7.38-1.2.1-4.49.65-4.49 7.68v11.73h-6.59v-12.02c0-3.44.35-7.78-4.24-7.38-1.2.1-4.49.65-4.49 7.68v11.73h-6.59v-24.95h5.09l.75 2.69h.8c.95-1.25 2.94-2.89 6.04-2.94 2.79-.05 5.19 1.25 6.84 3.44h.75c1.25-1.55 3.54-3.44 7.58-3.49 6.49-.05 9.43 4.79 9.43 11.73z"></path>
  <path d="m351.27 100.49v7.78h13.32v6.14h-13.32v14.67h-6.69v-34.93h23v6.34h-16.32z"></path>
  <path d="m394.23 118.5h-18.21c.75 3.79 3.84 5.19 6.54 5.19 3.39 0 4.84-2.1 4.84-2.1h6.29c-1.9 4.99-6.44 7.73-11.33 7.73-6.74 0-12.62-5.14-12.62-12.92s5.84-12.52 12.42-12.52 12.87 4.44 12.08 14.62zm-17.81-5.04h11.23c-.75-2.94-2.79-4.14-5.29-4.14-2.74 0-4.94 1.55-5.94 4.14z"></path>
  <path d="m409.35 109.17c-2.1 0-2.99 1.05-2.99 2.1 0 1.7 2.25 2.2 3.74 2.49 4.44.95 8.93 2.3 8.93 7.58s-4.24 7.98-9.38 7.98c-5.74 0-10.18-3.49-10.48-8.78h6.14c.15 1.5 1.15 3.44 4.19 3.44 2.54 0 3.14-1.35 3.14-2.4 0-1.85-1.75-2.39-3.44-2.79-2.94-.65-9.28-1.85-9.28-7.53 0-4.89 4.69-7.38 9.53-7.38 5.59 0 9.28 3.39 9.58 7.58h-6.14c-.2-.85-1-2.29-3.54-2.29z"></path>
  <path d="m441.84 127.23s-2.1 2.1-5.94 2.1c-4.79 0-8.93-3.24-8.93-8.28v-11.58h-4.99v-4.89h2.49c1.7 0 2.84-1.15 2.84-2.94v-4.99h6.04v7.48h6.29v5.34h-6.29v11.18c0 1.7 1.4 2.99 3.19 2.99 1.5 0 2.89-.85 2.89-.85l2.4 4.44z"></path>
  <path d="m444.98 97.14c0-2.39 1.95-4.24 4.29-4.24s4.19 1.85 4.19 4.24c0 2.25-1.9 4.19-4.19 4.19s-4.29-1.95-4.29-4.19zm7.48 31.94h-6.39v-24.95h6.39z"></path>
  <path d="m483.4 104.13-8.08 24.95h-9.68l-8.08-24.95h6.64l5.79 18.36h1l5.79-18.36h6.64z"></path>
  <path d="m511.49 124.29v4.79h-1.5c-2.89 0-4.94-1.05-5.79-3.19-1.5 2.05-3.99 3.44-7.88 3.44-5.64 0-9.23-2.89-9.23-7.38 0-7.78 10.63-8.48 15.42-8.73-.1-2.89-1.7-3.94-4.24-3.94-3.54 0-3.79 2.15-3.79 2.15h-6.24c.45-4.44 4.09-7.53 10.18-7.53s10.13 2.94 10.13 10.18v6.64c0 2.89 1.05 3.59 2.94 3.59zm-9.08-5.69v-.5c-4.54.5-9.03 1.05-9.03 3.64 0 3.79 8.63 3.49 9.03-3.14z"></path>
  <path d="m522.72 93.65v35.43h-6.49v-35.43z"></path>
</svg>