<svg viewBox="0 0 200 85.907"><path d="m88.878 76.99 4.634-24.982h12.018l-.563 3.066h-7.522l-1.47 7.889h7.355l-.562 3.066h-7.361L93.386 76.99zm14.32 0 3.32-17.857h4.202l-.637 3.405 1.366-1.74c.54-.683.976-1.16 1.31-1.435a2.92 2.92 0 0 1 1.877-.672c.925 0 1.843.454 2.75 1.367l-2.072 3.21c-.69-.248-1.275-.374-1.757-.374-.885 0-1.683.327-2.395.993-.522.483-1.01 1.315-1.47 2.498-.39.97-.689 2.004-.89 3.106l-1.4 7.5zm27.728 0h-4.22l.568-2.997c-.948.97-1.786 1.688-2.52 2.165-1.298.838-2.59 1.257-3.882 1.257-1.54 0-2.74-.58-3.618-1.74-.981-1.286-1.47-2.985-1.47-5.104 0-1.93.414-3.795 1.24-5.604.971-2.125 2.326-3.761 4.06-4.892 1.395-.913 2.825-1.367 4.295-1.367 1.367 0 2.492.425 3.365 1.275.275.264.574.649.907 1.154l.373-2.004h4.22zm-4.915-15.549c-1.275 0-2.435.62-3.491 1.86-.908 1.063-1.55 2.447-1.93 4.152a13.94 13.94 0 0 0-.338 3.083c0 1.252.218 2.228.654 2.923.448.712 1.08 1.068 1.884 1.068 1.71 0 3.198-1.229 4.45-3.692.66-1.298 1.136-2.756 1.435-4.375.166-.902.247-1.637.247-2.2 0-.855-.276-1.538-.833-2.06-.545-.506-1.234-.759-2.078-.759m7.4 24.466 4.968-26.774h4.203l-.62 3.388c.884-1.05 1.676-1.843 2.377-2.377 1.24-.96 2.595-1.436 4.06-1.436 1.595 0 2.824.557 3.685 1.665.982 1.27 1.47 2.98 1.47 5.145 0 1.998-.448 3.939-1.343 5.817-1.028 2.147-2.395 3.766-4.1 4.84-1.31.827-2.664 1.24-4.06 1.24-1.676 0-3.18-.637-4.501-1.918l-1.935 10.41zm13.07-24.236c-1.855 0-3.452 1.504-4.79 4.519a19.102 19.102 0 0 0-1.36 4.628c-.098.626-.155.993-.178 1.102-.11.494-.16.775-.16.833 0 .069.022.143.068.212.023.035.063.08.11.144.292.47.74.867 1.325 1.188a3.886 3.886 0 0 0 1.798.443c1.533 0 2.888-.936 4.06-2.803 1.142-1.82 1.716-3.904 1.716-6.24 0-2.688-.861-4.026-2.59-4.026m19.075-2.963c1.63 0 3.043.46 4.237 1.384 1.987 1.55 2.98 3.767 2.98 6.65 0 1.762-.379 3.433-1.137 5.018-.884 1.843-2.153 3.272-3.812 4.289a8.928 8.928 0 0 1-4.783 1.366c-2.13 0-3.899-.683-5.306-2.055-1.596-1.55-2.394-3.578-2.394-6.081 0-1.93.5-3.75 1.493-5.46 1.04-1.803 2.417-3.136 4.128-4.014a9.976 9.976 0 0 1 4.594-1.097m-.569 2.573c-1.016 0-1.958.47-2.836 1.418-.683.758-1.24 1.717-1.665 2.888-.425 1.206-.638 2.51-.638 3.904 0 1.522.247 2.768.741 3.738.557 1.08 1.435 1.614 2.647 1.614 1.809 0 3.175-1.137 4.111-3.422.638-1.533.96-3.267.96-5.197 0-3.295-1.11-4.943-3.32-4.943m8.527 15.71 3.319-17.858h4.203l-.643 3.405 1.372-1.74c.54-.683.976-1.16 1.31-1.435a2.92 2.92 0 0 1 1.877-.672c.924 0 1.837.454 2.75 1.367l-2.073 3.21c-.689-.248-1.275-.374-1.757-.374-.884 0-1.682.327-2.394.993-.517.483-1.01 1.315-1.47 2.498-.39.97-.69 2.004-.89 3.106l-1.401 7.5zm15.4-15.463.447-2.395h2.234l.798-4.33 4.34-1.044-.987 5.374H200l-.448 2.395h-4.272l-1.613 8.67c-.259 1.395-.39 2.308-.39 2.733 0 1.108.539 1.665 1.613 1.665.614 0 1.418-.155 2.411-.46l.247 2.286c-1.579.66-3.083.993-4.501.993-1.275 0-2.263-.27-2.963-.815-.758-.592-1.131-1.447-1.131-2.572 0-.471.172-1.643.51-3.509l1.649-8.992Zm0 0"/><path d="M71.044 71.57c-.207.08-.316-.029-.373-.12-.029-.046-3.02-4.824-3.98-11.065-.562-3.652-.315-7.068.724-10.157 1.304-3.859 3.859-7.2 7.608-9.945 3.508-2.573 8.016-4.56 13.39-5.909 4.29-1.068 9.141-1.74 14.424-1.986 8.785-.414 15.899.51 16.255.557.086.011.275.057.258.252-.012.127-.126.224-.281.23-.07.006-6.73.379-14.843 1.855-7.332 1.337-17.34 3.87-23.352 8.36-12.224 9.118-9.663 27.451-9.635 27.635.017.144-.092.253-.195.293m-24.26 5.208c.018-.029 1.408-3.394 2.257-7.769.793-4.03 1.264-9.738-.959-14.079-1.584-3.089-4.323-5.11-8.147-6-3.36-.787-7.47-.609-12.225.528-3.79.907-7.998 2.423-12.517 4.507-7.562 3.492-13.459 7.436-13.706 7.603-.051.034-.235.16-.126.356.07.12.241.103.322.063.224-.103 22.45-10.49 33.486-7.643C47.135 57.44 46.222 76.525 46.216 76.72c0 .098.035.282.259.282.12 0 .247-.075.31-.224M.006 50.888c-.029-.115.046-.23.172-.281.213-.092 21.05-9.02 26.332-17.57 1.264-2.05 1.625-4.083 1.068-6.04-1.16-4.078-5.925-6.564-6.126-6.667-.063-.029-.138-.132-.092-.264.057-.15.241-.161.327-.15.27.046 2.659.42 5.283 1.356 2.566.912 5.89 2.566 7.183 5.242.941 1.952.683 4.186-.752 6.637-1.597 2.728-4.341 5.369-8.142 7.838-3.038 1.98-6.747 3.858-11.042 5.581C6.857 49.533.374 51.026.31 51.037c-.074.012-.258.04-.304-.15m56.155-31.35c3.899-1.068 7.482-2.704 10.657-4.857a33.5 33.5 0 0 0 6.804-6.12c3.072-3.641 4.645-7.546 4.91-8.229.011-.023.097-.178-.04-.299-.07-.057-.19-.04-.288.064-.166.178-9.72 10.588-22.072 13.958-11.742 3.21-21.29-1.39-21.755-1.625-.064-.029-.155-.052-.287.023-.127.069-.121.201-.087.293.242.626 1.493 3.652 4.692 5.53 2.044 1.2 4.375 1.963 6.93 2.267.844.098 1.717.15 2.607.15 2.48 0 5.133-.385 7.93-1.155m40.956 4.33c-1.86 0-3.583-.092-5.162-.264-4.479-.506-7.763-1.734-9.756-3.652-1.383-1.332-2.003-2.917-1.848-4.726.321-3.577 3.703-7.412 6.482-10.008 2.997-2.79 5.972-4.777 6-4.8.046-.028.213-.12.35-.017.115.086.081.23.03.293-.07.074-6.426 6.913-6.173 12.282.069 1.538.683 2.83 1.82 3.835 3.434 3.032 11.886 3.796 18.374 3.905 7.183.12 13.533-.511 13.596-.517.098-.012.265.017.293.166.04.224-.178.282-.24.299-.805.2-7.96 1.958-16.05 2.779-2.784.281-5.362.425-7.716.425"/></svg>