<svg viewBox="160 0 30 150" ><g id="g11" inkscape:groupmode="layer" inkscape:label="Genève" transform="matrix(1.25,0,0,-1.25,-21.868125,123.09125)"><g id="g13" transform="scale(0.1,0.1)"><g id="g15"><g id="g17" clip-path="url(#clipPath19)"><path d="M 348.398,798.578 L 365.461,776.516 L 377.984,786.203 L 350.195,822.121 L 340.387,814.543 C 344.281,808.488 338.691,801.203 331.793,796.027 L 336.777,789.582 L 348.398,798.578" style="fill:#9c9a9b;fill-opacity:1;fill-rule:nonzero;stroke:none" id="path23"/><path d="M 393.691,819.301 C 394.555,822.816 397.047,824.895 400.801,826.828 C 406.277,829.641 410.805,828.527 412.832,824.582 C 414.855,820.637 412.25,816.086 407.09,813.43 C 403.098,811.379 397.449,810.824 395.73,813.977 L 382.434,807.141 C 388.184,797.863 399.301,799.328 411.195,805.434 C 423.871,811.945 431.016,821.906 425.898,831.879 C 421.582,840.285 412.02,841.379 400.828,835.637 C 396.68,833.508 393.402,830.648 391.676,827.27 L 391.52,827.191 L 389.77,835.598 L 413.953,848.012 L 409.668,856.359 L 375.234,838.684 L 381.641,813.109 L 393.691,819.301" style="fill:#9c9a9b;fill-opacity:1;fill-rule:nonzero;stroke:none" id="path25"/><path d="M 682.148,833.266 C 677.988,835.363 673.75,836.34 670,835.754 L 669.844,835.832 L 675.621,842.18 L 699.879,829.934 L 704.109,838.305 L 669.566,855.754 L 652.645,835.539 L 664.742,829.426 C 668.09,830.805 671.246,830.012 675.012,828.117 C 680.508,825.336 682.266,821.008 680.27,817.062 C 678.27,813.098 673.051,812.531 667.871,815.148 C 663.867,817.172 660.094,821.418 661.633,824.652 L 648.285,831.398 C 644.164,821.281 651.879,813.156 663.812,807.121 C 676.531,800.695 688.793,800.773 693.852,810.773 C 698.109,819.211 693.379,827.59 682.148,833.266" style="fill:#9c9a9b;fill-opacity:1;fill-rule:nonzero;stroke:none" id="path27"/><path d="M 735.582,796.594 C 733.07,793.352 727.98,793.09 722.965,796.965 C 718.098,800.734 717.203,805.617 719.797,808.969 C 722.105,811.965 727.406,812.062 731.859,808.617 C 736.941,804.691 738.051,799.797 735.582,796.594 z M 737.152,815.891 C 727.062,823.695 714.504,824.992 708.562,817.316 C 703.148,810.305 705.738,799.992 715.344,792.562 C 719.516,789.328 724.879,786.926 729.184,788.039 L 729.324,787.934 C 725.383,783.402 719.695,780.793 713.297,785.746 C 711.832,786.867 710.504,788.312 709.758,789.797 C 708.969,791.223 708.746,792.805 709.34,794.152 L 698.277,802.707 C 694.805,794.758 698.777,786.672 707.617,779.836 C 723.07,767.902 735.738,772.355 743.75,782.707 C 751.199,792.355 751.277,804.973 737.152,815.891" style="fill:#9c9a9b;fill-opacity:1;fill-rule:nonzero;stroke:none" id="path29"/><path d="M 235.543,629.652 C 243.512,627.016 249.363,634.699 254.008,642.719 C 258.684,650.805 262.152,659.203 265.559,658.078 C 268.457,657.121 267.945,652.648 266.84,649.309 C 265.254,644.543 262.266,639.875 258.328,641.469 L 253.184,625.941 C 263.176,622.719 271.395,633.234 275.32,645.102 C 279.039,656.301 279.605,670.648 269.961,673.84 C 261.855,676.527 256.047,668.535 251.43,660.629 C 246.781,652.621 243.23,644.34 239.324,645.648 C 236.051,646.73 236.422,651.984 237.973,656.66 C 240.145,663.246 243.262,667.035 248.562,665.648 L 253.715,681.184 C 242.363,684.836 233.906,674.211 229.359,660.531 C 225.023,647.426 224.348,633.363 235.543,629.652" style="fill:#9c9a9b;fill-opacity:1;fill-rule:nonzero;stroke:none" id="path31"/><path d="M 230.426,551.379 L 231.676,567.688 C 226.387,568.715 223.477,573.352 224.062,580.988 C 224.883,591.508 232.078,595.012 238.969,594.477 C 245.855,593.938 252.426,589.379 251.617,578.859 C 251.094,572.016 248.242,567.285 243.496,566.781 L 242.234,550.473 C 253.445,550.031 260.945,564.191 261.977,577.719 C 263.445,596.645 253.672,609.746 240.227,610.785 C 226.777,611.82 215.105,600.371 213.645,581.43 C 212.426,565.551 218.531,553.156 230.426,551.379" style="fill:#9c9a9b;fill-opacity:1;fill-rule:nonzero;stroke:none" id="path33"/><path d="M 266.234,498.852 L 249.531,495.988 L 245.875,517.219 L 262.574,520.09 L 259.797,536.223 L 213.945,528.324 L 216.723,512.191 L 235.605,515.453 L 239.262,494.211 L 220.383,490.949 L 223.164,474.828 L 269.008,482.727 L 266.234,498.852" style="fill:#9c9a9b;fill-opacity:1;fill-rule:nonzero;stroke:none" id="path35"/><path d="M 269.441,420.109 C 263.141,417.285 255.191,418.148 250.863,427.785 C 246.547,437.414 251.199,443.938 257.5,446.762 C 263.805,449.574 271.758,448.715 276.078,439.086 C 280.398,429.453 275.758,422.934 269.441,420.109 z M 285.598,443.352 C 277.496,461.41 263.121,467.211 250.805,461.691 C 238.5,456.164 233.266,441.574 241.363,423.508 C 249.457,405.453 263.828,399.672 276.137,405.18 C 288.453,410.695 293.688,425.285 285.598,443.352" style="fill:#9c9a9b;fill-opacity:1;fill-rule:nonzero;stroke:none" id="path37"/><path d="M 314.469,391.887 L 304.555,404.914 L 267.543,376.73 L 295.195,340.402 L 303.484,346.711 L 285.754,370.023 L 314.469,391.887" style="fill:#9c9a9b;fill-opacity:1;fill-rule:nonzero;stroke:none" id="path39"/><path d="M 344.457,318.234 L 333.652,327.523 L 349.668,335.238 L 349.805,335.129 L 344.457,318.234 z M 303.734,330.363 L 316.488,319.418 L 324.922,323.168 L 341.539,308.891 L 339.043,300.051 L 351.988,288.93 L 364.477,339.523 L 351.871,350.355 L 303.734,330.363" style="fill:#9c9a9b;fill-opacity:1;fill-rule:nonzero;stroke:none" id="path41"/><path d="M 481.5,273.996 C 487.961,272.66 492.641,269.23 492.348,265.227 L 508.367,261.906 C 509.273,273.637 496.711,281.496 483.961,284.145 C 465.355,288 451.113,279.965 448.375,266.762 C 445.641,253.559 455.512,240.531 474.117,236.672 C 479.805,235.492 487.359,235.52 492.488,239.047 L 492.406,233.879 L 502.738,231.73 L 507.914,256.684 L 482.074,262.035 L 480.25,253.234 L 491.449,250.91 C 489.727,246.945 483.812,245.305 475.891,246.953 C 465.559,249.094 462.992,256.684 464.395,263.441 C 465.801,270.199 471.16,276.145 481.5,273.996" style="fill:#9c9a9b;fill-opacity:1;fill-rule:nonzero;stroke:none" id="path43"/><path d="M 548.949,241.301 L 548.5,250.148 L 579.246,251.711 L 578.77,261.086 L 548.023,259.516 L 547.613,267.648 L 581.254,269.367 L 580.762,279.066 L 530.777,276.527 L 533.141,230.062 L 584.004,232.641 L 583.477,243.051 L 548.949,241.301" style="fill:#9c9a9b;fill-opacity:1;fill-rule:nonzero;stroke:none" id="path45"/><path d="M 635.289,293.48 L 643.812,266.105 L 643.648,266.059 L 614.297,286.945 L 598.254,281.945 L 612.086,237.523 L 626.781,242.102 L 618.16,269.785 L 618.328,269.848 L 647.777,248.645 L 663.824,253.645 L 649.984,298.059 L 635.289,293.48" style="fill:#9c9a9b;fill-opacity:1;fill-rule:nonzero;stroke:none" id="path47"/><path d="M 699.902,284.074 L 695.242,291.613 L 721.43,307.797 L 716.504,315.773 L 690.309,299.594 L 686.023,306.527 L 714.691,324.23 L 709.59,332.492 L 667.008,306.184 L 691.461,266.605 L 734.785,293.371 L 729.312,302.238 L 699.902,284.074" style="fill:#9c9a9b;fill-opacity:1;fill-rule:nonzero;stroke:none" id="path49"/><path d="M 748.52,369.145 L 764.41,336.027 L 764.285,335.902 L 731.051,351.535 L 719.031,339.418 L 766,320.703 L 779.258,334.066 L 760.547,381.254 L 748.52,369.145" style="fill:#9c9a9b;fill-opacity:1;fill-rule:nonzero;stroke:none" id="path51"/><path d="M 807.328,386.977 L 799.75,391.574 L 815.719,417.895 L 807.691,422.758 L 791.73,396.438 L 784.766,400.668 L 802.23,429.465 L 793.93,434.504 L 767.98,391.703 L 807.758,367.578 L 834.172,411.137 L 825.254,416.535 L 807.328,386.977" style="fill:#9c9a9b;fill-opacity:1;fill-rule:nonzero;stroke:none" id="path53"/><path d="M 812.582,487.902 L 840.035,479.633 L 839.988,479.465 L 806.238,466.848 L 801.391,450.766 L 845.941,437.336 L 850.387,452.074 L 822.617,460.441 L 822.672,460.609 L 856.73,473.137 L 861.57,489.223 L 817.027,502.641 L 812.582,487.902" style="fill:#9c9a9b;fill-opacity:1;fill-rule:nonzero;stroke:none" id="path55"/><path d="M 853.941,571.098 C 845.543,571.469 842.012,562.473 839.723,553.496 C 837.434,544.445 836.383,535.422 832.797,535.578 C 829.734,535.715 829.023,540.148 829.18,543.664 C 829.398,548.676 831,553.977 835.227,553.52 L 835.953,569.867 C 825.465,570.246 820.422,557.871 819.859,545.395 C 819.336,533.617 822.699,519.652 832.852,519.203 C 841.383,518.82 844.789,528.09 847.078,536.965 C 849.371,545.941 850.547,554.867 854.648,554.691 C 858.102,554.535 859.172,549.379 858.953,544.453 C 858.648,537.512 856.684,533.02 851.199,532.91 L 850.48,516.566 C 862.395,516.125 867.645,528.664 868.285,543.07 C 868.902,556.879 865.723,570.57 853.941,571.098" style="fill:#9c9a9b;fill-opacity:1;fill-rule:nonzero;stroke:none" id="path57"/><path d="M 819.41,590.062 L 865.461,596.703 L 863.125,612.895 L 817.074,606.262 L 819.41,590.062" style="fill:#9c9a9b;fill-opacity:1;fill-rule:nonzero;stroke:none" id="path59"/><path d="M 826.746,628.996 C 834.82,631.77 834.594,641.645 833.477,650.746 C 832.32,659.926 830.145,668.664 834.031,670.004 C 837.297,671.125 840.188,666.723 841.781,662.062 C 844.039,655.48 843.855,650.59 838.801,648.48 L 844.105,633 C 855.355,636.953 855.66,650.539 850.973,664.191 C 846.492,677.246 838.52,688.828 827.367,685.012 C 819.418,682.285 819.43,672.621 820.574,663.43 C 821.758,654.16 824.082,645.383 820.691,644.223 C 817.797,643.234 815.504,647.094 814.363,650.41 C 812.738,655.16 812.289,660.676 816.387,661.809 L 811.07,677.285 C 801.184,673.801 801.012,660.441 805.062,648.625 C 808.887,637.473 817.129,625.695 826.746,628.996" style="fill:#9c9a9b;fill-opacity:1;fill-rule:nonzero;stroke:none" id="path61"/><path d="M 393.793,289.516 C 390.102,284.621 391.09,277.66 395.98,273.969 C 400.879,270.266 407.836,271.254 411.52,276.145 C 415.219,281.047 414.242,288 409.352,291.691 C 404.441,295.383 397.484,294.406 393.793,289.516" style="fill:#9c9a9b;fill-opacity:1;fill-rule:nonzero;stroke:none" id="path63"/><path d="M 302.973,732.785 C 306.586,737.746 305.504,744.68 300.551,748.293 C 295.59,751.906 288.656,750.832 285.035,745.871 C 281.422,740.91 282.504,733.977 287.457,730.363 C 292.418,726.75 299.359,727.836 302.973,732.785" style="fill:#9c9a9b;fill-opacity:1;fill-rule:nonzero;stroke:none" id="path65"/><path d="M 775.094,745.871 C 771.48,740.91 772.562,733.977 777.523,730.363 C 782.477,726.75 789.418,727.836 793.031,732.785 C 796.645,737.746 795.562,744.68 790.609,748.293 C 785.648,751.906 778.715,750.832 775.094,745.871" style="fill:#9c9a9b;fill-opacity:1;fill-rule:nonzero;stroke:none" id="path67"/><path d="M 567.348,866.926 L 558.336,852.805 L 580.395,852.805 L 580.395,859.641 L 571.703,859.602 L 576.52,866.789 L 571.703,874.211 L 580.238,874.262 L 580.238,881.008 L 558.336,881.008 L 567.348,866.926" style="fill:#9c9a9b;fill-opacity:1;fill-rule:nonzero;stroke:none" id="path69"/><path d="M 519.672,859.602 L 514.234,859.543 L 514.234,874.262 L 519.293,874.211 L 519.293,881.008 L 501.148,881.008 L 501.148,874.211 L 506.188,874.262 L 506.188,859.543 L 500.816,859.602 L 500.816,852.805 L 519.672,852.805 L 519.672,859.602" style="fill:#9c9a9b;fill-opacity:1;fill-rule:nonzero;stroke:none" id="path71"/><path d="M 545.355,871.066 L 533.871,871.066 L 533.922,881.105 L 525.504,881.105 L 525.504,852.805 L 533.922,852.805 L 533.871,864.055 L 545.355,864.055 L 545.355,852.805 L 553.754,852.805 L 553.754,881.105 L 545.355,881.105 L 545.355,871.066" style="fill:#9c9a9b;fill-opacity:1;fill-rule:nonzero;stroke:none" id="path73"/><path d="M 536.078,897.844 C 536.078,899.973 537.613,901.32 539.84,901.32 C 541.84,901.32 543.336,899.797 543.336,897.844 L 543.441,887.844 L 559.137,887.844 L 559.137,896.242 L 549.516,896.242 L 549.477,898.391 C 549.418,904.414 546.637,909.27 539.781,909.27 C 534.516,909.27 530.875,906.32 530.23,901.262 C 530.113,900.188 530.113,899.055 530.113,897.953 L 530.113,896.242 L 520.504,896.242 L 520.492,887.844 L 536.059,887.844 L 536.078,897.844" style="fill:#9c9a9b;fill-opacity:1;fill-rule:nonzero;stroke:none" id="path75"/><path d="M 539.84,846.164 C 537.055,846.164 534.789,843.898 534.789,841.105 C 534.789,838.324 537.055,836.059 539.84,836.059 C 542.633,836.059 544.898,838.324 544.898,841.105 C 544.898,843.898 542.633,846.164 539.84,846.164" style="fill:#9c9a9b;fill-opacity:1;fill-rule:nonzero;stroke:none" id="path77"/><path d="M 539.164,215.316 C 350.309,215.316 196.664,368.969 196.664,557.824 C 196.664,724.895 316.938,864.328 475.438,894.289 L 480.211,888.41 L 439.059,872.719 L 480.191,856.984 L 452.406,822.805 L 495.895,829.738 L 494.453,820.766 C 368.59,799.426 272.406,689.672 272.406,557.824 C 272.406,410.734 392.074,291.059 539.164,291.059 C 686.254,291.059 805.922,410.734 805.922,557.824 C 805.922,689.602 709.859,799.301 584.098,820.734 L 582.91,829.543 L 625.27,822.746 L 598.617,857.367 L 638.656,872.66 L 598.16,889.172 L 602.398,894.387 C 761.129,864.621 881.664,725.07 881.664,557.824 C 881.664,368.969 728.02,215.316 539.164,215.316 z M 488.922,753.43 L 495.082,763.898 L 469.625,763.898 L 472.602,774.785 C 472.602,780.031 468.355,784.289 463.102,784.289 C 461.824,784.289 460.613,784.027 459.508,783.566 C 459.719,784.523 459.859,785.434 459.859,786.125 C 459.859,789.582 457.055,792.395 453.598,792.395 C 450.141,792.395 447.328,789.582 447.328,786.125 C 447.328,785.434 447.473,784.523 447.68,783.566 C 446.57,784.027 445.367,784.289 444.098,784.289 C 438.844,784.289 434.594,780.031 434.594,774.785 L 437.562,763.898 L 430.855,763.898 C 426.246,763.898 422.406,760.617 421.539,756.281 C 420.141,756.672 418.676,756.906 417.164,756.906 C 408.531,756.906 401.539,749.914 401.539,741.281 C 401.539,738.586 402.23,736.047 403.422,733.84 C 406.07,738.723 411.227,742.035 417.152,742.035 C 422.477,742.035 427.164,739.367 429.984,735.305 C 430.316,734.836 430.621,734.348 430.895,733.84 C 431.703,732.348 432.164,730.664 432.445,728.93 L 400.844,728.93 C 392.211,728.93 385.219,735.93 385.219,744.543 L 385.219,734.484 C 385.219,725.852 392.211,718.859 400.844,718.859 L 430.797,718.859 C 428.129,714.074 423.031,710.832 417.152,710.832 C 416.852,710.832 416.547,710.852 416.234,710.871 C 419.059,706.789 423.766,704.113 429.105,704.113 C 435.777,704.113 441.461,708.305 443.695,714.191 L 486.012,714.191 C 494.633,714.191 501.637,707.199 501.637,698.578 C 501.637,694.562 501.656,688.91 497.652,684.621 L 493.754,678.773 L 467.102,637.641 C 462.234,630.5 452.52,628.664 445.383,633.535 C 438.262,638.391 436.387,648.41 441.25,655.539 C 447.449,658.988 449.883,666.125 448.727,673.547 C 447.289,682.727 438.902,689.047 429.762,688.117 L 424.508,688.234 C 391.09,688.234 366.133,710.832 362.68,742.863 C 397.949,776.516 442.777,800.188 492.629,809.387 L 488.922,786.262 L 522.891,813.84 L 534.352,784.367 L 534.352,738.754 L 488.922,753.43 z M 351.734,389.973 C 352.07,391.391 352.93,392.59 354.164,393.371 L 386.84,411.828 L 395.984,402.426 L 395.855,402.316 L 398.105,400.246 L 399.785,398.527 L 399.887,398.605 L 411.559,387.883 C 413.594,385.832 413.594,382.355 411.461,380.227 C 410.43,379.203 409.055,378.625 407.594,378.625 L 401.031,378.625 L 409.34,370.336 L 410.465,370.336 C 416.25,370.324 421.688,372.59 425.785,376.672 C 429.879,380.773 432.133,386.203 432.133,392.004 C 432.133,403.527 423.07,412.883 411.715,413.547 C 409.164,416.105 405.52,419.738 403.707,421.555 C 408.906,424.855 499.457,482.316 507.891,487.66 C 505.055,455.988 477.73,418.82 451.949,396.547 C 440.152,384.746 435.621,371.586 435.621,360.18 C 435.621,350.109 439.148,341.418 444.324,336.242 C 448.863,331.711 455.77,330.344 461.52,332.871 L 465.152,334.465 L 462.344,337.277 C 457.773,341.848 456.148,349.816 456.148,355.754 C 456.148,367.668 459.223,373.723 464.98,379.973 C 466.199,378.762 468.766,376.195 472.363,372.59 C 469.926,366.008 468.754,359.367 468.754,353 C 468.754,340.266 473.254,328.723 480.691,321.281 C 482.246,319.73 498.738,306.047 505.676,308.371 L 510.641,310.051 L 506.41,313.137 C 503.988,314.914 496.188,324.008 493.539,329.555 C 491.422,333.988 490.16,339.309 490.16,344.934 C 490.16,353.996 493.867,364.496 502.066,372.688 C 502.5,373.332 520.57,417.922 529.789,439.406 C 529.797,438.918 529.805,435.188 529.805,435.188 C 529.863,430.129 529.918,425.129 529.918,420.227 C 529.918,394.281 528.344,371.242 516.934,359.828 C 509.844,352.738 496.66,348.988 496.66,348.988 L 500.078,344.965 C 500.41,344.582 505.895,336.137 514.762,335.852 C 516.875,335.773 518.539,337.199 520.383,338.07 C 520.844,317.746 524.672,309.777 531.504,302.121 C 463.336,304.133 401.777,332.895 357.016,378.305 L 352.418,385.852 C 351.871,386.723 351.594,387.707 351.594,388.723 C 351.594,389.133 351.641,389.555 351.734,389.973 z M 331.887,412.707 C 331.887,414.309 332.523,416.008 333.727,417.277 C 334.973,418.664 336.676,419.445 338.535,419.523 L 354.121,419.484 C 346.332,417.707 339.617,412.59 335.93,405.285 C 334.02,408.059 332.086,411.184 331.887,412.492 C 331.887,412.57 331.887,412.648 331.887,412.707 z M 302.383,614.562 C 302.383,614.562 334.047,620.473 368.512,626.887 C 368.246,625.109 368.262,623.273 368.961,621.477 C 369.418,620.285 370.141,619.309 370.922,618.41 L 305.785,593.051 C 296.68,587.492 294.047,576.301 299.301,567.816 C 301.84,563.703 305.836,560.832 310.543,559.719 C 315.25,558.605 320.113,559.406 324.223,561.945 L 381.449,597.316 C 381.848,595.559 382.52,593.859 383.824,592.434 C 384.672,591.496 385.703,590.832 386.758,590.277 L 335.168,543.117 C 328.688,534.641 330.266,523.266 338.219,517.238 C 346.184,511.215 357.566,512.797 363.594,520.754 L 404.652,575.012 C 405.602,573.527 406.797,572.191 408.492,571.34 C 409.395,570.891 410.348,570.754 411.289,570.59 C 411.492,570.441 411.68,570.285 411.879,570.148 L 383.27,512.531 C 380.359,502.578 385.77,492.844 395.082,490.168 C 404.395,487.523 414.133,492.934 416.793,502.238 L 433.305,559.992 C 440.41,557.863 447.926,556.691 455.719,556.691 C 462.055,556.691 466.223,557.219 472.125,558.645 C 472.07,548.215 472.016,538.312 472.012,537.395 C 470.625,535.891 419.543,480.383 419.543,480.383 C 410.543,473 407.281,472.609 401.438,478.449 L 399.734,480.148 L 383.773,467.629 L 385.938,465.461 C 391.949,459.445 397.613,455.305 405.266,454.562 C 394.16,448.723 384.691,443.734 383.031,442.863 C 381.309,444.641 373.035,453.215 368.672,457.738 C 368.02,469.105 358.648,478.176 347.113,478.176 C 335.168,478.176 325.445,468.461 325.445,456.516 L 325.445,455.383 L 333.746,447.082 L 333.746,453.645 C 333.746,455.109 334.312,456.477 335.344,457.512 C 337.477,459.641 340.953,459.641 343.086,457.512 C 343.086,457.512 349.477,450.559 353.73,445.93 L 353.688,445.883 L 355.398,444.113 C 356.605,442.805 357.441,441.906 357.441,441.906 L 357.496,441.965 L 362.309,437.023 L 356.078,437.035 C 351.969,440.441 346.855,442.258 341.48,442.043 C 335.688,441.809 330.336,439.348 326.406,435.09 C 323.559,432.004 321.742,428.234 321.031,424.191 C 297.102,463.117 283.266,508.879 283.266,557.824 C 283.266,578.352 285.766,598.305 290.355,617.453 C 293.547,614.719 297.664,613.684 302.383,614.562 z M 326.176,699.465 C 333.672,710.695 342.035,721.301 351.16,731.203 C 355.762,714.973 365.836,700.383 379.07,689.914 C 377.25,688.812 375.68,687.258 374.848,685.109 C 374.32,683.742 374.148,682.348 374.219,680.969 L 326.176,699.465 z M 367.945,661.379 C 366.594,659.582 365.641,657.453 365.641,655.031 C 365.641,653.332 366.113,651.789 366.812,650.363 L 300.605,650.238 C 303.516,657.727 306.758,665.031 310.336,672.16 L 367.945,661.379 z M 561.293,471.652 C 561.293,480.98 568.031,488.684 576.887,490.266 C 577.633,479.203 586.754,470.422 598.012,470.422 L 640.551,470.422 C 651.801,470.422 660.93,479.191 661.676,490.266 C 670.496,488.645 677.203,480.949 677.203,471.652 C 677.203,435.832 652.523,414.191 619.254,405.961 C 585.98,414.191 561.293,435.832 561.293,471.652 z M 599.516,389.758 C 592.105,386.859 586.832,379.691 586.832,371.262 C 586.832,360.285 595.738,351.379 606.723,351.379 L 631.773,351.379 C 642.758,351.379 651.664,360.285 651.664,371.262 C 651.664,379.691 646.395,386.859 638.984,389.758 C 672.883,401.566 697.25,433.723 697.25,471.652 C 697.25,491.281 682.703,507.375 663.832,510.102 L 663.832,524.562 L 634.117,551.945 L 634.117,608.977 L 651.246,608.977 L 651.246,584.875 L 680.23,584.875 L 680.23,603.098 L 701.527,603.098 L 701.527,584.875 L 730.512,584.875 L 730.512,649.309 L 701.527,649.309 L 701.527,633.723 L 680.23,633.723 L 680.23,649.309 L 656.188,649.309 L 656.188,669.074 L 680.23,669.074 L 680.23,684.652 L 701.527,684.652 L 701.527,669.074 L 730.512,669.074 L 730.512,727.492 C 770.648,682.316 795.062,622.883 795.062,557.824 C 795.062,418.742 683.523,305.305 545.211,302.074 L 545.211,445.812 C 553.398,419.621 573.66,398.762 599.516,389.758 z M 585.629,809.309 C 639.984,799.289 688.383,772.094 724.926,733.508 L 701.527,733.508 L 701.527,716.047 L 680.23,716.047 L 680.23,733.508 L 651.246,733.508 L 651.246,709.398 L 634.117,709.398 C 634.117,709.398 634.234,746.105 634.234,746.477 C 634.234,754.738 627.512,761.457 619.246,761.457 C 610.984,761.457 604.262,754.738 604.262,746.477 C 604.262,746.105 604.379,551.945 604.379,551.945 L 574.664,524.562 L 574.664,510.102 C 561.598,508.215 550.738,499.836 545.211,488.41 L 545.211,784.758 L 555.152,813.527 L 588.734,786.223 L 585.629,809.309 z M 539.633,922.316 C 567.18,922.316 589.586,899.914 589.586,872.375 C 589.586,844.836 567.18,822.434 539.633,822.434 C 512.09,822.434 489.684,844.836 489.684,872.375 C 489.684,899.914 512.09,922.316 539.633,922.316 z M 617.836,913.391 L 625.289,922.57 L 581.887,916.184 L 588.754,959.094 L 554.555,931.379 L 538.844,972.473 L 523.141,931.359 L 489.008,959.133 L 495.953,915.637 L 452.445,922.609 L 460.012,913.293 C 297.125,877.043 174.945,731.457 174.945,557.824 C 174.945,356.984 338.336,193.598 539.164,193.598 C 739.996,193.598 903.383,356.984 903.383,557.824 C 903.383,731.633 780.969,877.328 617.836,913.391" style="fill:#9c9a9b;fill-opacity:1;fill-rule:nonzero;stroke:none" id="path79"/><path d="M 1130.74,628.664 C 1051.83,628.664 1034.04,673.898 1034.04,724.211 L 1034.04,896.203 L 1082.2,896.203 L 1082.2,727.336 C 1082.2,694.184 1092.57,670.785 1134.08,670.785 C 1171.13,670.785 1186.69,687.16 1186.69,732.004 L 1186.69,896.203 L 1234.49,896.203 L 1234.49,735.129 C 1234.49,663.371 1196.69,628.664 1130.74,628.664" style="fill:currentColor;fill-opacity:1;fill-rule:nonzero;stroke:none" id="path81"/><path d="M 1428.19,632.953 C 1428.19,632.953 1333.77,805.324 1326.36,822.492 C 1327.85,799.875 1328.59,758.527 1328.59,726.945 L 1328.59,632.953 L 1281.91,632.953 L 1281.91,896.203 L 1343.1,896.203 C 1343.1,896.203 1435.66,728.496 1444.93,708.605 C 1443.07,735.129 1442.34,781.926 1442.34,814.301 L 1442.34,896.203 L 1489.02,896.203 L 1489.02,632.953 L 1428.19,632.953" style="fill:currentColor;fill-opacity:1;fill-rule:nonzero;stroke:none" id="path83"/><path d="M 1545.7,632.953 L 1593.8602,632.953 L 1593.8602,896.203 L 1545.7,896.203 L 1545.7,632.953 z" style="fill:currentColor;fill-opacity:1;fill-rule:nonzero;stroke:none" id="path85"/><path d="M 1767.19,632.953 L 1711.62,632.953 L 1624.56,896.203 L 1677.16,896.203 L 1725.7,742.152 C 1730.52,727.336 1736.08,709.777 1740.52,690.676 L 1741.26,690.676 C 1744.97,708.605 1749.04,723.039 1756.08,745.266 L 1805.36,896.203 L 1854.63,896.203 L 1767.19,632.953" style="fill:currentColor;fill-opacity:1;fill-rule:nonzero;stroke:none" id="path87"/><path d="M 1887.5,632.953 L 1887.5,896.203 L 2024.92,896.203 L 2024.92,853.684 L 1936.18,853.684 L 1936.18,788.949 L 2020.42,788.949 L 2020.42,747.609 L 1936.18,747.609 L 1936.18,676.242 L 2024.92,676.242 L 2024.92,632.953 L 1887.5,632.953" style="fill:currentColor;fill-opacity:1;fill-rule:nonzero;stroke:none" id="path89"/><path d="M 2144.12,856.418 C 2137.08,856.418 2130.03,856.027 2125.22,855.246 L 2125.22,779.203 C 2128.55,778.812 2135.22,778.422 2142.63,778.422 C 2171.53,778.422 2189.32,794.016 2189.32,818.586 C 2189.32,843.938 2174.5,856.418 2144.12,856.418 z M 2196.72,632.953 L 2127.08,741.762 L 2125.22,741.762 L 2125.22,632.953 L 2077.06,632.953 L 2077.06,896.203 C 2096.69,897.375 2120.03,897.758 2148.93,897.758 C 2204.14,897.758 2239.7,877.473 2239.7,823.664 C 2239.7,784.66 2213.77,756.574 2175.98,750.344 C 2183.02,740.59 2190.05,730.453 2196.35,721.477 L 2256.38,632.953 L 2196.72,632.953" style="fill:currentColor;fill-opacity:1;fill-rule:nonzero;stroke:none" id="path91"/><path d="M 2337.81,628.664 C 2320.02,628.664 2302.24,630.617 2286.67,634.895 L 2289.64,682.094 C 2303.73,677.023 2323.73,672.727 2341.88,672.727 C 2366.33,672.727 2385.23,683.254 2385.23,707.434 C 2385.23,757.746 2280.38,734.738 2280.38,821.32 C 2280.38,868.117 2315.58,900.492 2375.6,900.492 C 2389.68,900.492 2405.98,898.535 2420.81,895.812 L 2418.21,851.352 C 2404.13,855.637 2388.57,858.371 2373.37,858.371 C 2345.59,858.371 2331.51,845.109 2331.51,826.391 C 2331.51,779.203 2436.73,796.75 2436.73,714.465 C 2436.73,664.934 2399.31,628.664 2337.81,628.664" style="fill:currentColor;fill-opacity:1;fill-rule:nonzero;stroke:none" id="path93"/><path d="M 2475.63,632.953 L 2523.7902,632.953 L 2523.7902,896.203 L 2475.63,896.203 L 2475.63,632.953 z" style="fill:currentColor;fill-opacity:1;fill-rule:nonzero;stroke:none" id="path95"/><path d="M 2669.77,852.902 L 2669.77,632.953 L 2621.6,632.953 L 2621.6,852.902 L 2556.76,852.902 L 2556.76,896.203 L 2734.6,896.203 L 2734.6,852.902 L 2669.77,852.902" style="fill:currentColor;fill-opacity:1;fill-rule:nonzero;stroke:none" id="path97"/><path d="M 2826.07,913.352 L 2808.91,941.828 L 2877.16,984.73 L 2897.84,950.402 L 2826.07,913.352 z M 2772.64,632.953 L 2772.64,896.203 L 2915.78,896.203 L 2915.78,853.684 L 2823.34,853.684 L 2823.34,788.949 L 2911.09,788.949 L 2911.09,747.609 L 2823.34,747.609 L 2823.34,676.242 L 2915.78,676.242 L 2915.78,632.953 L 2772.64,632.953" style="fill:currentColor;fill-opacity:1;fill-rule:nonzero;stroke:none" id="path99"/><path d="M 1116.91,435.246 C 1105.21,435.246 1094.29,434.855 1086.11,434.074 L 1086.11,256.633 C 1093.12,255.461 1103.65,254.68 1113.79,254.68 C 1163.33,254.68 1199.2,282.758 1199.2,345.16 C 1199.2,401.711 1176.97,435.246 1116.91,435.246 z M 1108.73,211.391 C 1081.42,211.391 1057.63,212.562 1035.41,213.344 L 1035.41,475.812 C 1056.07,476.594 1088.06,477.758 1120.42,477.758 C 1201.93,477.758 1253.8,441.488 1253.8,349.055 C 1253.8,258.578 1194.53,211.391 1108.73,211.391" style="fill:currentColor;fill-opacity:1;fill-rule:nonzero;stroke:none" id="path101"/><path d="M 1288.12,212.953 L 1288.12,476.203 L 1431.25,476.203 L 1431.25,433.684 L 1338.82,433.684 L 1338.82,368.949 L 1426.58,368.949 L 1426.58,327.609 L 1338.82,327.609 L 1338.82,256.242 L 1431.25,256.242 L 1431.25,212.953 L 1288.12,212.953" style="fill:currentColor;fill-opacity:1;fill-rule:nonzero;stroke:none" id="path103"/><path d="M 1794.33,421.594 C 1773.28,429.785 1749.1,434.855 1724.53,434.855 C 1672.65,434.855 1635.21,402.102 1635.21,343.215 C 1635.21,287.445 1665.64,254.68 1719.06,254.68 C 1731.54,254.68 1742.47,256.242 1752.6,259.359 L 1752.6,351.008 L 1803.31,351.008 L 1803.31,225.434 C 1777.17,214.906 1744.8,209.055 1713.22,209.055 C 1629.76,209.055 1580.23,258.195 1580.23,338.527 C 1580.23,421.203 1636.38,480.102 1727.64,480.102 C 1753.77,480.102 1779.52,475.422 1802.13,468.781 L 1794.33,421.594" style="fill:currentColor;fill-opacity:1;fill-rule:nonzero;stroke:none" id="path105"/><path d="M 1857.12,212.953 L 1857.12,476.203 L 2000.25,476.203 L 2000.25,433.684 L 1907.82,433.684 L 1907.82,368.949 L 1995.57,368.949 L 1995.57,327.609 L 1907.82,327.609 L 1907.82,256.242 L 2000.25,256.242 L 2000.25,212.953 L 1857.12,212.953" style="fill:currentColor;fill-opacity:1;fill-rule:nonzero;stroke:none" id="path107"/><path d="M 2206.8,212.953 C 2206.8,212.953 2107.5,385.324 2099.7,402.492 C 2101.25,379.875 2102.04,338.527 2102.04,306.945 L 2102.04,212.953 L 2052.9,212.953 L 2052.9,476.203 L 2117.4,476.203 C 2117.4,476.203 2214.75,308.496 2224.5,288.617 C 2222.54,315.129 2221.76,361.926 2221.76,394.301 L 2221.76,476.203 L 2270.9,476.203 L 2270.9,212.953 L 2206.8,212.953" style="fill:currentColor;fill-opacity:1;fill-rule:nonzero;stroke:none" id="path109"/><path d="M 2410.52,492.961 L 2338.76,530.012 L 2360.22,564.73 L 2428.07,521.828 L 2410.52,492.961 z M 2323.56,212.953 L 2323.56,476.203 L 2466.68,476.203 L 2466.68,433.684 L 2374.25,433.684 L 2374.25,368.949 L 2462.01,368.949 L 2462.01,327.609 L 2374.25,327.609 L 2374.25,256.242 L 2466.68,256.242 L 2466.68,212.953 L 2323.56,212.953" style="fill:currentColor;fill-opacity:1;fill-rule:nonzero;stroke:none" id="path111"/><path d="M 2648.03,212.953 L 2589.54,212.953 L 2497.89,476.203 L 2553.27,476.203 L 2604.35,322.152 C 2609.42,307.336 2615.27,289.777 2619.96,270.668 L 2620.74,270.668 C 2624.63,288.617 2628.92,303.039 2636.33,325.266 L 2688.2,476.203 L 2740.07,476.203 L 2648.03,212.953" style="fill:currentColor;fill-opacity:1;fill-rule:nonzero;stroke:none" id="path113"/><path d="M 2773.22,212.953 L 2773.22,476.203 L 2916.35,476.203 L 2916.35,433.684 L 2823.92,433.684 L 2823.92,368.949 L 2911.67,368.949 L 2911.67,327.609 L 2823.92,327.609 L 2823.92,256.242 L 2916.35,256.242 L 2916.35,212.953 L 2773.22,212.953" style="fill:currentColor;fill-opacity:1;fill-rule:nonzero;stroke:none" id="path115"/></g></g></g></g></svg>