<svg viewBox="0 0 780 250" xmlns="http://www.w3.org/2000/svg">
    <path id="Path" fill="currentColor" stroke="none" d="M 117.522339 66.878052 C 117.522339 59.941376 113.550476 53.470306 107.639862 50.806976 C 104.595062 49.49881 99.234955 48.670685 91.107697 48.670685 C 83.987488 48.670685 72.900299 49.235291 68.015717 49.235291 C 64.589447 49.235291 59.41748 48.854218 56.551666 48.854218 C 56.274109 49.315277 56.081085 49.9599 56.081085 50.326935 C 56.081085 50.708374 56.081085 51.715118 56.36322 52.181122 C 58.118805 52.74115 60.980072 53.188202 62.834259 53.668243 C 64.401031 55.042389 64.77298 56.251984 65.328094 58.934265 C 65.601105 62.158051 65.789581 66.233459 65.789581 73.249756 C 65.789581 92.747101 65.700073 102.99173 65.417999 105.212982 C 65.055481 107.994232 63.205841 110.855133 60.151581 111.763641 C 58.763794 112.046143 56.725708 112.512146 54.800995 112.690735 C 54.671143 113.328918 54.606506 113.978607 54.608002 114.629852 C 54.608002 115.373047 54.706573 115.472015 54.880981 115.938019 C 57.836304 115.938019 66.528229 115.556946 69.855499 115.556946 C 78.08139 115.556946 86.486237 115.938019 89.898102 115.938019 L 92.213715 115.938019 C 92.49585 115.556946 92.49585 114.911957 92.49585 114.464905 C 92.49585 113.899933 92.49585 113.156738 92.30777 112.789703 C 89.531067 112.427216 85.380188 111.867157 83.625336 109.829468 C 82.698273 108.737793 81.771179 107.147156 81.771179 104.38446 L 81.488678 84.059753 C 87.032257 84.421875 92.952362 84.605774 96.185608 84.605774 C 100.435089 84.605774 104.034973 83.875854 106.896271 82.948761 C 113.456421 80.468933 117.522339 73.979309 117.522339 66.878052 M 100.995117 66.496979 C 100.995117 71.212067 99.324463 75.367493 96.28421 78.050171 C 94.340546 79.621857 91.286652 80.54895 86.669769 80.54895 C 84.731049 80.54895 83.243896 80.468933 82.698273 80.365417 C 81.959229 80.266846 81.488678 80.186462 81.488678 79.706421 L 81.58728 52.642181 C 82.698273 52.562561 84.269928 52.181122 86.952637 52.181122 C 93.22995 52.181122 97.112701 53.752808 98.957428 57.640137 C 100.242065 60.124908 100.995117 63.268677 100.995117 66.496979 M 201.321838 114.366333 C 201.321838 113.899933 201.143311 112.789703 200.860779 112.427216 C 199.943176 112.427216 196.159729 112.243683 194.771179 111.217651 C 194.305542 110.671631 193.571472 109.565948 193.194946 108.902374 C 191.989929 104.666962 190.615753 101.801117 189.223022 98.295258 C 187.279388 93.673828 184.606537 89.320862 182.389893 87.287689 C 181.55191 86.558533 178.69101 85.348969 175.453217 84.238342 C 173.980103 83.692322 172.779999 83.231262 171.669769 82.765259 C 173.053009 82.487701 173.697968 82.384186 175.453217 82.219238 C 182.295837 81.377441 183.862976 80.186829 185.613281 78.793732 C 189.317078 76.012451 191.340759 71.777039 191.340759 66.779083 C 191.340759 59.296783 186.540375 52.096558 179.796661 49.9599 C 177.570892 49.315277 173.617981 48.952789 168.718994 48.952789 C 161.782318 48.952789 152.083282 49.597412 147.466797 49.597412 C 146.0737 49.597412 138.031342 49.413879 134.80304 49.413879 C 133.409912 49.413879 129.904053 49.235291 129.358032 49.235291 C 129.075562 49.879883 128.892029 50.604492 128.892029 50.990875 C 128.892029 51.352997 128.98645 52.28009 129.075562 52.642181 C 130.647614 52.825714 133.513428 53.188202 134.991089 53.470703 C 137.20282 55.141357 137.946411 56.435486 138.864014 58.468262 C 139.339539 61.433441 139.419525 68.995758 139.419525 82.022064 C 139.419525 91.45752 139.518097 102.347137 139.057037 105.871979 C 138.784027 108.173218 137.946411 110.940063 135.264099 112.046143 C 134.073486 112.243683 131.847717 112.611115 130.002625 112.690735 C 129.72052 113.156738 129.536987 114.083832 129.536987 114.544922 C 129.536987 114.827393 129.72052 115.556946 129.904053 116.018036 C 131.212219 116.018036 145.344177 115.754517 148.290375 115.754517 C 154.201019 115.754517 159.198578 116.018036 164.46463 116.018036 C 164.643585 115.655548 164.827087 115.010925 164.827087 114.629852 C 164.827087 113.999268 164.643585 113.072205 164.46463 112.690735 C 162.610443 112.512146 160.309204 111.966125 159.292633 111.763641 C 156.982269 110.671631 155.311249 108.455322 155.311249 105.212982 L 155.226685 83.875854 C 155.956238 83.777283 156.883728 83.777283 157.626892 83.777283 C 158.817505 83.777283 160.210602 83.974823 162.516388 85.250366 C 165.937714 87.203156 167.608398 88.596252 169.824677 92.00354 C 172.780365 96.620026 174.723663 105.114014 175.64621 111.867157 C 175.919189 113.801361 176.65329 115.472015 178.417999 115.655548 C 179.152069 115.75412 184.051056 115.938019 187.56189 115.938019 L 200.776245 115.938019 C 201.143311 115.556946 201.322266 114.827026 201.322266 114.366333 M 174.535583 66.049561 C 174.535583 71.777039 170.652802 78.332275 166.135254 79.442902 C 164.281097 79.904327 161.961273 80.186462 158.553986 80.186462 C 157.626892 80.186462 156.238708 80.186462 155.128113 79.984344 L 155.038635 72.13916 L 155.038635 55.141724 C 155.038635 54.035675 155.311615 53.386139 155.589203 53.108582 C 155.862213 52.826111 157.537384 52.562561 159.481079 52.562561 C 166.681305 52.562561 169.825043 53.188599 172.408417 57.541565 C 173.8815 60.040344 174.535583 62.906555 174.535583 66.050323 M 248.627014 114.267731 C 248.627014 113.801727 248.528015 112.7901 248.354004 112.427582 C 246.965454 112.32901 243.182007 111.966522 241.520813 111.599457 C 240.038208 109.829834 239.012207 107.811096 238.372498 104.483795 C 238.28302 100.046295 238.184082 90.892914 238.184082 82.304535 L 238.184082 59.579254 C 238.184082 57.080475 239.200256 55.141724 239.854736 54.581696 C 241.610291 52.925049 245.120728 52.562561 248.080994 52.181488 C 248.264465 51.814453 248.354004 50.807343 248.354004 50.425903 C 248.354004 49.880249 248.080994 49.132141 247.892517 48.953156 L 245.210205 48.953156 C 241.327454 48.953156 232.273438 49.414246 229.129639 49.414246 C 227.195862 49.414246 218.141052 49.132141 214.075134 49.052124 L 212.05188 49.052124 C 211.769348 49.414246 211.585815 49.781677 211.585815 50.604858 C 211.585815 50.990875 211.665833 51.913025 211.769348 52.360474 C 216.30127 52.741547 218.320068 53.188599 218.974121 53.66864 C 220.085144 54.496765 221.647339 56.534454 222.028381 61.513824 C 222.112976 63.269043 222.20282 67.061951 222.291931 75.570343 C 222.395447 80.186829 222.484924 86.63855 222.484924 92.003906 C 222.484924 94.686218 222.291931 100.695831 222.202454 103.91922 C 222.028381 106.140442 221.557861 108.258148 220.922302 109.467743 C 219.811707 110.394806 218.696533 112.046143 211.948303 112.512512 C 211.769348 112.874634 211.665833 114.084229 211.665833 114.465302 C 211.665833 115.189911 211.858826 115.557312 211.858826 116.018402 L 213.430542 116.018402 C 217.129395 116.018402 226.367371 115.557312 231.167358 115.557312 C 232.555908 115.557312 242.155945 115.839447 245.210205 115.839447 L 248.264465 115.839447 C 248.528015 115.37381 248.626587 114.629852 248.626587 114.267731 M 339.97937 50.242767 C 339.97937 49.880249 339.875854 49.235657 339.697205 48.953552 L 337.560547 48.953552 C 332.944031 48.953552 329.997864 49.131775 321.673035 49.131775 C 318.80719 49.131775 314.552795 48.953552 313.545715 48.953552 L 311.145447 48.953552 C 310.863403 49.131775 310.764832 50.16275 310.764832 50.524872 C 310.764832 50.991241 310.863403 51.715485 311.244446 52.096924 C 312.71759 52.562561 318.346069 53.188965 320.760315 54.779236 C 322.416565 56.71344 323.146118 60.586365 323.423706 64.196136 C 323.527222 65.570282 323.62616 66.958435 323.62616 70.751373 L 323.62616 90.064819 C 323.62616 92.286011 323.527527 93.011017 323.423706 94.041229 C 321.870972 92.286011 319.635681 88.95874 315.945923 84.803314 L 285.126282 50.605255 C 284.844177 50.242767 284.298157 49.781677 283.733582 49.414642 C 282.999146 49.414642 281.700439 49.315674 280.970886 49.315674 C 275.046204 49.315674 264.335205 49.052124 262.76355 49.052124 C 262.580017 49.414246 262.401001 49.960266 262.401001 50.327301 C 262.401001 50.524872 262.580017 51.814453 262.664551 52.096924 C 264.053101 52.459045 267.106995 52.925049 269.601257 55.607361 C 271.088379 57.25946 273.672119 59.579254 274.500244 61.433441 C 274.777771 62.078033 274.871826 63.08551 274.871826 64.379669 C 274.871826 69.179657 274.598816 75.932831 274.598816 82.384552 L 274.598816 101.156891 C 274.598816 104.201691 274.316711 106.601898 274.03418 108.173584 C 272.100403 110.211304 269.144714 111.684021 264.335205 112.874634 C 264.151672 113.354675 263.973083 114.084229 263.973083 114.545288 C 263.973083 114.827789 264.052734 115.754883 264.246094 115.839447 L 266.001343 115.839447 C 267.846008 115.839447 272.100037 115.557312 274.872192 115.557312 C 278.933167 115.557312 281.700439 115.839447 285.48877 115.839447 L 291.004333 115.839447 C 291.366455 115.754883 291.465393 114.629852 291.465393 114.267731 C 291.465393 113.900696 291.366821 113.156738 291.187866 112.7901 C 287.978088 111.966522 283.277039 111.218384 280.133301 107.062988 C 279.498169 105.674438 278.933167 98.841644 278.933167 95.59436 C 278.933167 92.648132 278.834595 88.596619 278.834595 83.133057 C 278.834595 75.833862 278.933167 69.461792 279.027222 66.233826 C 279.578125 66.878448 280.227295 67.706573 280.688782 68.252594 L 323.343689 116.220886 C 323.804749 116.667938 325.461365 116.766907 325.927368 116.766907 C 326.388428 116.766907 326.670593 116.766907 327.03302 116.583008 C 327.216553 116.117004 327.861572 114.630249 327.861572 112.427582 C 327.861572 109.7453 327.763 106.96402 327.763 105.594788 L 327.763 67.061218 C 327.763 55.50766 333.226135 52.279694 339.598267 51.997223 C 339.875854 51.531189 339.97937 50.708008 339.97937 50.241608 M 411.901123 102.991364 C 411.623535 102.163239 410.875061 100.775055 408.75769 100.775055 C 408.569275 100.775055 408.286804 100.873657 408.113098 100.873657 C 402.559631 108.737427 396.460938 111.683258 389.533386 111.683258 C 379.923889 111.683258 373.090698 105.212585 370.869446 99.485107 C 369.664856 96.436127 368.008179 89.786499 368.008179 82.66629 C 368.008179 75.932068 369.02478 70.468109 370.779968 66.496613 C 374.841309 55.785583 380.75238 52.458282 387.966614 52.458282 C 393.97583 52.458282 398.959717 55.889099 402.748108 60.769135 C 404.319824 62.905792 405.97644 67.061218 407.449158 71.960175 C 407.8302 72.039825 408.658752 72.223724 409.486877 72.223724 C 410.042358 72.223724 411.341064 71.776276 411.703552 71.395203 C 411.623535 70.388123 410.696472 63.26828 410.696472 61.051605 C 410.696472 58.289307 411.430542 53.752441 411.430542 51.997223 C 410.875061 51.432251 409.030334 51.070129 407.8302 50.990112 C 406.442444 51.997223 405.976074 53.187836 404.686829 54.778473 C 399.514893 51.070129 394.705383 48.208832 384.178223 48.208832 C 374.478882 48.208832 366.799011 51.531189 360.982361 57.362213 C 354.610291 63.635315 351.099487 72.322296 351.099487 83.414398 C 351.099487 95.23111 356.087952 104.944122 364.125793 111.038666 C 369.217773 114.728058 376.695557 117.226837 385.65094 117.226837 C 396.921997 117.226837 405.148315 112.972473 409.303345 107.349274 C 410.960022 105.113617 411.14801 104.563049 411.901123 102.991364 M 490.058044 99.763031 C 490.058044 98.473846 490.058044 97.913788 489.959473 97.085297 C 489.498413 96.803192 489.31488 96.803192 488.571289 96.803192 C 487.926697 96.803192 487.197144 96.803192 486.533569 96.986694 C 483.408813 104.10199 478.871887 109.645569 476.382629 111.118683 C 474.999023 111.965759 472.871826 112.144714 469.445923 112.144714 L 461.878662 112.144714 C 458.927917 112.144714 456.608093 111.866791 455.779602 111.683258 C 454.391785 111.401154 452.91864 109.184479 452.273743 107.711365 C 451.619629 106.139679 451.248047 106.139679 451.248047 101.885681 L 451.248047 81.65918 L 454.673889 81.65918 C 455.591553 81.65918 457.817261 81.838165 460.302429 82.948395 C 462.617676 83.974457 463.544434 85.348572 464.462036 86.840271 C 465.299988 88.110901 465.846008 93.212372 466.029541 94.501953 C 466.499756 94.765472 467.700195 94.864075 468.443787 94.864075 C 469.172913 94.864075 469.634338 94.765472 470.278931 94.402985 C 470.278931 91.904205 469.728455 85.16507 469.728455 81.461639 C 469.728455 76.84021 470.373047 70.468109 470.645996 67.15979 C 470.278931 66.957672 469.728455 66.778717 468.805908 66.778717 C 468.161255 66.778717 466.956665 66.778717 466.40564 67.061218 C 466.128113 68.350403 465.106995 72.223724 464.918945 72.506195 C 463.544739 74.821472 461.12561 76.576691 458.645813 77.320251 C 456.979675 77.767303 454.57489 78.049774 453.280823 78.049774 L 451.346985 78.049774 L 451.346985 69.461395 C 451.346985 60.585602 451.525208 57.724335 451.619995 56.05365 C 451.709106 54.962006 451.892639 53.752441 451.991638 52.924316 C 452.819702 52.825714 453.280823 52.740784 457.535156 52.740784 C 462.881226 52.740784 465.389465 52.825348 466.21759 52.825348 C 468.805908 53.023285 470.744995 53.568909 472.132813 54.679504 C 475.643982 57.362213 478.326233 61.597626 480.999146 66.134125 C 481.554626 66.31308 482.481689 66.31308 482.942749 66.31308 C 483.497864 66.31308 483.587402 66.134125 484.330933 65.767059 C 484.330933 60.124512 483.954407 52.825714 483.770935 50.524109 C 483.672302 49.597412 483.497864 49.314545 481.653198 49.314545 C 480.905029 49.314545 477.398804 49.131378 473.704834 49.131378 C 468.443787 49.131378 466.307068 49.234894 458.264771 49.234894 C 453.925781 49.234894 444.965454 49.314545 441.177063 49.314545 C 435.638062 49.314545 430.922546 49.131378 428.522705 49.131378 L 425.374451 49.131378 C 425.096863 49.498444 424.922485 50.242004 424.922485 50.604126 C 424.922485 51.070496 425.096863 52.096191 425.374451 52.458282 C 426.485046 52.825348 430.828552 52.740784 432.127563 53.470306 C 433.421753 54.580933 434.612366 55.042023 435.449951 59.479919 C 435.638062 61.432678 435.727478 66.779083 435.727478 71.033081 L 435.727478 90.064056 C 435.727478 93.936981 435.638062 99.584442 435.539429 101.885681 C 435.355957 105.490143 434.066345 109.829468 433.520325 110.671234 C 432.673218 111.321167 428.884888 111.866791 425.195435 112.045746 C 424.922485 112.610748 424.729431 113.537445 424.729431 114.083466 C 424.729431 114.629486 424.922791 115.29303 425.195862 115.75412 L 428.240601 115.75412 C 431.2005 115.75412 442.099548 115.471649 444.602905 115.471649 C 446.909058 115.471649 451.346619 115.655151 456.702515 115.655151 C 459.652527 115.655151 468.344788 116.220123 487.008728 116.220123 C 487.742798 116.220123 488.570923 116.299774 489.498413 116.017639 C 489.780518 115.55658 489.780518 115.373047 489.869934 114.544525 C 490.058044 112.690369 490.058044 107.245361 490.058044 99.763031 M 569.688477 69.738953 L 569.688477 50.886597 C 569.688477 49.498444 569.142456 49.131012 567.754272 49.131012 C 564.982483 49.131012 550.393616 49.498444 535.612122 49.498444 C 524.148438 49.498444 514.632935 49.314911 509.460999 49.314911 L 502.61377 49.314911 C 501.423157 49.314911 501.051514 49.597412 501.051514 50.886597 L 501.051514 68.534302 C 501.423157 68.811859 502.058655 68.915375 502.53418 68.915375 C 502.896301 68.915375 504.194946 68.915375 504.562012 68.712891 C 508.712891 60.322052 512.604309 55.785583 517.503357 53.286804 C 520.265991 53.023285 525.710693 52.924316 527.193237 52.924316 C 527.287231 53.931396 527.38623 57.17868 527.466248 61.051605 C 527.564819 67.706177 527.564819 70.567078 527.564819 86.275665 C 527.564819 99.866547 527.466248 105.956146 527.287231 107.42926 C 526.920227 110.012604 527.385864 111.965759 516.294128 112.426819 C 516.011658 113.071442 516.011658 113.800964 516.011658 114.544525 C 516.011658 114.911591 516.011658 115.655548 516.110229 116.017639 L 519.705994 116.017639 C 523.131897 116.017639 531.164795 115.655151 534.501526 115.655151 C 537.174744 115.655151 545.772583 115.937653 551.400696 115.937653 L 553.984436 115.937653 C 554.262024 115.471649 554.262024 114.464539 554.262024 113.998901 C 554.262024 113.438843 554.172546 112.789337 553.899902 112.328247 C 552.87384 112.328247 546.963196 112.51178 544.384033 110.572662 C 544.101929 109.565552 543.546448 106.88324 543.546448 103.6409 C 543.456909 93.673431 543.358337 89.885071 543.358337 83.230865 C 543.358337 74.637939 543.456909 68.811859 543.456909 52.825348 C 544.746521 52.825348 547.711365 52.740784 550.473633 52.825348 C 556.210632 54.3974 558.982361 56.533691 561.471741 59.842041 C 563.038879 61.978699 564.709534 65.569519 566.365723 69.922485 C 566.925842 70.106018 567.391785 70.106018 567.937805 70.106018 C 568.309448 70.106018 569.509521 69.922485 569.688477 69.738953 M 650.904663 81.376678 C 650.904663 68.449371 645.172607 58.566864 634.452087 52.641815 C 628.734131 49.498444 623.002502 47.926727 616.903748 47.926727 C 603.420959 47.926727 591.222778 55.969116 585.759155 65.122467 C 582.248779 70.849579 580.418091 77.122711 580.418091 83.776886 C 580.418091 94.402985 585.590088 104.845551 593.622986 110.855133 C 599.726624 115.29303 606.649231 117.490753 614.69165 117.490753 C 619.600098 117.490753 624.207092 116.582245 628.734436 114.827026 C 633.817017 112.874268 638.155945 109.829468 641.572327 106.04071 C 647.581909 99.485474 650.904236 91.075684 650.904236 81.376678 M 634.184021 79.621094 C 634.184021 93.57486 630.30127 105.871613 625.040161 110.210541 C 622.362366 112.426819 619.030579 113.537445 615.242188 113.537445 C 610.079651 113.537445 605.538635 111.499756 602.964417 107.349274 C 599.453552 101.984253 597.505371 92.002777 597.505371 83.329834 C 597.505371 70.468109 600.827759 60.407013 606.743286 55.508026 C 609.886719 52.924316 613.115356 51.912659 616.352783 51.912659 C 621.350403 51.912659 626.150757 54.312866 628.917969 58.289307 C 632.428467 63.084778 634.184021 70.021057 634.184021 79.62149 M 740.054321 50.242004 C 740.054321 49.879517 739.979248 49.234894 739.781738 48.952789 L 737.66394 48.952789 C 733.038086 48.952789 730.096802 49.131012 721.767334 49.131012 C 718.901123 49.131012 714.647217 48.952789 713.640015 48.952789 L 711.239868 48.952789 C 710.96228 49.131012 710.868286 50.161987 710.868286 50.524109 C 710.868286 50.990509 710.96228 51.714722 711.324463 52.096191 C 712.816528 52.561798 718.44458 53.188202 720.840332 54.778473 C 722.510498 56.712677 723.249512 60.585602 723.5271 64.195374 C 723.612061 65.569519 723.706055 66.957672 723.706055 70.75061 L 723.706055 90.064056 C 723.706055 92.285278 723.612061 93.010254 723.5271 94.040466 C 721.950806 92.285278 719.739136 88.957977 716.0354 84.802582 L 685.182739 50.604492 C 684.909729 50.242004 684.349731 49.780914 683.799133 49.413879 C 683.055969 49.413879 681.766357 49.314911 681.036804 49.314911 C 675.107239 49.314911 664.401123 49.051392 662.824829 49.051392 C 662.645874 49.413483 662.452881 49.959503 662.452881 50.326569 C 662.452881 50.524109 662.645874 51.81369 662.725891 52.096191 C 664.114075 52.458282 667.163452 52.924316 669.667114 55.606598 C 671.140259 57.258698 673.723572 59.578491 674.556641 61.432678 C 674.834229 62.077271 674.928223 63.084778 674.928223 64.378906 C 674.928223 69.178925 674.646118 75.932068 674.646118 82.383789 L 674.646118 101.156128 C 674.646118 104.200958 674.377625 106.601135 674.095581 108.172821 C 672.165894 110.210541 669.196594 111.683258 664.401123 112.873901 C 664.20813 113.353912 664.038574 114.083466 664.038574 114.544525 C 664.038574 114.827026 664.114075 115.75412 664.302124 115.838684 L 666.052795 115.838684 C 667.911926 115.838684 672.165894 115.55658 674.92865 115.55658 C 678.994568 115.55658 681.766357 115.838684 685.554688 115.838684 L 691.098328 115.838684 C 691.460388 115.75412 691.564331 114.629089 691.564331 114.266968 C 691.564331 113.899933 691.460388 113.156006 691.281799 112.789337 C 688.053467 111.965759 683.333496 111.217651 680.189697 107.062225 C 679.545105 105.673676 678.994568 98.840881 678.994568 95.593597 C 678.994568 92.647369 678.900146 88.595856 678.900146 83.132294 C 678.900146 75.833099 678.994568 69.461029 679.088562 66.233063 C 679.648621 66.877686 680.293213 67.705811 680.749756 68.251831 L 723.437622 116.220123 C 723.894165 116.667175 725.555298 116.766144 726.021362 116.766144 C 726.477905 116.766144 726.755493 116.766144 727.132324 116.582245 C 727.315552 116.116241 727.960083 114.629486 727.960083 112.426819 C 727.960083 109.744537 727.866089 106.963257 727.866089 105.594055 L 727.866089 67.061218 C 727.866089 55.50766 733.315674 52.279694 739.687744 51.997223 C 739.979614 51.531189 740.054688 50.708008 740.054688 50.241608 M 127.966431 153.849396 C 127.966431 153.486908 127.782898 152.922302 127.509918 152.658752 L 124.8367 152.658752 C 121.966339 152.658752 118.083527 152.837341 114.756653 152.837341 C 111.067261 152.837341 106.911835 152.658752 104.224579 152.658752 L 100.902222 152.658752 C 100.624664 153.204773 100.525696 153.383362 100.525696 153.849396 C 100.525696 154.230469 100.624298 154.59259 100.80365 155.05896 C 101.184723 155.05896 107.923462 155.138611 109.123566 156.814178 C 110.140137 158.201965 112.356812 161.614197 112.723877 163.646973 C 112.902435 164.574066 113.467041 168.362427 113.467041 173.811981 C 113.467041 181.657166 113.467041 186.918274 113.37796 189.699554 C 113.18457 194.880646 112.629456 198.937469 111.702362 201.982269 C 109.123932 210.024628 103.123474 213.996521 93.603424 213.996521 C 89.532562 213.996521 86.026672 213.172943 82.789276 211.681274 C 76.779297 208.735046 73.91803 203.087952 73.833099 200.043152 L 73.362915 172.339233 L 73.277954 161.063629 C 73.277954 158.931885 75.951172 156.992767 76.873322 155.887085 C 77.616913 155.52005 81.678284 155.138611 83.988983 154.959991 C 84.271484 154.413971 84.450043 154.1315 84.450043 153.665863 C 84.450043 153.204407 84.177063 152.73877 83.80545 152.47525 L 80.299591 152.559814 C 76.873322 152.658386 72.350891 152.73877 69.489594 152.73877 C 65.052063 152.73877 61.62619 152.658752 58.863495 152.658752 L 54.99057 152.658752 C 54.609497 152.922302 54.52002 153.486908 54.52002 153.947968 C 54.52002 154.413971 54.609497 154.776489 54.891602 155.05896 C 57.83783 155.421082 59.781494 155.703583 61.08017 155.967102 C 62.647308 156.894196 63.762482 158.465881 64.317993 160.037567 C 64.407471 161.247162 64.591003 164.19339 64.591003 170.019073 L 64.591003 192.198334 C 64.591003 197.925446 64.873108 201.982269 65.518066 204.580017 C 66.70871 209.380035 69.296967 213.172943 73.550964 215.935242 C 78.078369 218.895508 83.715973 220.368622 90.459656 220.368622 C 96.652771 220.368622 101.914246 219.079041 106.351776 216.580231 C 110.968292 214.09549 113.829529 210.024628 115.495667 204.297516 C 116.413269 200.890228 116.978241 197.181854 116.978241 193.308929 L 116.978241 175.5672 C 116.978241 172.240295 117.156464 168.084869 117.156464 166.414215 C 117.255432 161.430664 118.549927 158.465881 119.93808 156.249207 C 121.410828 155.788116 122.704987 155.52005 127.603943 154.959991 C 127.782898 154.592957 127.966431 154.310455 127.966431 153.848999 M 213.521545 153.383362 C 213.521545 153.020874 213.432068 152.73877 213.239075 152.47525 L 211.121338 152.47525 C 206.504822 152.47525 204.466736 152.658752 196.160889 152.658752 C 193.285583 152.658752 189.04068 152.47525 188.033569 152.47525 L 185.614777 152.47525 C 185.351257 152.658752 185.252289 153.303375 185.252289 153.665863 C 185.252289 154.1315 185.351257 154.310455 185.713745 154.677521 C 187.19632 155.138611 192.833923 155.788116 195.233765 157.359833 C 196.885864 159.312592 197.633972 163.185883 197.91156 166.790741 C 197.99646 168.164886 198.095093 169.557983 198.095093 173.346344 L 198.095093 200.79126 C 198.095093 203.007935 197.99646 203.751495 197.91156 204.763519 C 196.339844 203.007935 193.662048 199.582062 190.062164 195.327698 L 154.762207 154.1315 C 154.480103 153.750427 153.934082 153.303375 153.37439 152.921906 C 152.63501 152.921906 151.717407 152.837341 150.974213 152.837341 C 145.063202 152.837341 139.891602 152.559814 138.310059 152.559814 C 138.135986 152.922302 138.046509 153.105804 138.046509 153.486908 C 138.046509 153.665863 138.135986 154.413971 138.220917 154.677521 C 139.608734 155.058594 143.675018 155.52005 145.345703 157.274902 C 146.818787 158.931885 149.035095 160.865692 149.863617 162.719879 C 150.145721 163.364502 150.24469 164.376892 150.24469 165.685059 C 150.24469 170.485077 149.962189 179.256989 149.962189 185.727661 L 149.962189 205.408142 C 149.962189 208.452942 149.684631 210.853149 149.411621 212.424835 C 147.463409 214.462524 144.508087 215.935242 139.703125 217.144836 C 139.519623 217.605927 139.336121 217.789459 139.336121 218.250885 C 139.336121 218.53302 139.420685 219.079041 139.6091 219.163574 L 141.364685 219.163574 C 143.209045 219.163574 147.463409 218.895508 150.24469 218.895508 C 154.301117 218.895508 156.145813 219.163574 159.929657 219.163574 L 165.487244 219.163574 C 165.854309 219.079041 165.934662 218.335449 165.934662 217.968414 C 165.934662 217.605927 165.854309 217.408356 165.661682 217.041321 C 162.437897 216.217743 157.72699 215.469635 154.583588 211.314209 C 153.934082 209.926025 153.374023 202.909363 153.374023 199.68103 C 153.374023 196.715851 153.284546 191.915833 153.284546 186.471222 C 153.284546 179.172028 153.374023 169.09198 153.472992 165.863647 C 154.028107 166.513184 154.861176 167.520294 155.501221 168.263855 L 199.295166 219.545044 C 199.751709 220.006104 199.939758 220.091064 200.415283 220.091064 C 200.857361 220.091064 200.584778 220.091064 200.961243 219.907135 C 201.139893 219.441528 201.422363 217.968414 201.422363 215.75174 C 201.422363 213.069427 201.332886 210.306732 201.332886 208.918945 L 201.332886 169.656586 C 201.332886 158.103394 206.786987 154.856476 213.159058 154.592957 C 213.432068 154.1315 213.521545 153.849396 213.521545 153.383362 M 255.282349 217.968414 C 255.282349 217.507324 255.197754 217.041321 255.009277 216.679199 C 253.616577 216.580231 249.837341 216.217743 248.167053 215.850708 C 246.689392 214.095123 245.682251 212.062714 245.018738 208.735413 C 244.938721 204.297516 244.844299 194.236023 244.844299 185.628693 L 244.844299 162.174255 C 244.844299 159.675476 245.856323 157.722321 246.510437 157.176666 C 248.265991 155.519653 251.771545 155.138611 254.727234 154.776489 C 254.9198 154.413971 255.009277 153.947968 255.009277 153.585876 C 255.011963 153.166626 254.841919 152.764832 254.539124 152.474854 L 251.865967 152.474854 C 247.983154 152.474854 242.439575 152.922302 239.29126 152.922302 C 237.366516 152.922302 231.813843 152.658752 227.757019 152.559814 L 225.71936 152.559814 C 225.441772 152.922302 225.25824 152.922302 225.25824 153.750427 C 225.25824 154.1315 225.347717 154.493988 225.441772 154.959991 C 229.964233 155.336517 232.001526 155.788116 232.637024 156.249207 C 233.757141 157.091736 235.329224 159.115417 235.700806 164.113342 C 235.785339 165.863647 235.884338 170.583649 235.973816 179.073456 C 236.062927 183.689941 236.166443 189.982025 236.166443 195.327698 C 236.166443 198.024414 235.973816 204.947052 235.884338 208.170441 C 235.700806 210.391693 235.239746 212.523407 234.585266 213.71402 C 233.484131 214.641113 232.373535 216.29776 225.629822 216.777802 C 225.441772 217.144836 225.347717 217.789459 225.347717 218.151947 C 225.347717 218.895111 225.540344 218.895111 225.540344 219.361511 L 227.1026 219.361511 C 230.801819 219.361511 236.528931 218.895111 241.329346 218.895111 C 242.717102 218.895111 248.811646 219.163574 251.865967 219.163574 L 254.9198 219.163574 C 255.197754 218.716522 255.282349 218.335449 255.282349 217.968414 M 336.187561 153.585876 C 336.187561 153.204407 336.088989 152.658752 335.721924 152.559814 L 332.578552 152.559814 C 330.361877 152.559814 326.851074 152.73877 325.279358 152.73877 C 317.796631 152.73877 315.118958 152.277313 314.008301 152.277313 L 312.352051 152.277313 C 312.154114 152.73877 311.872009 153.020874 311.872009 153.486908 C 311.872009 153.849396 312.06958 154.1315 312.06958 154.493988 C 314.233154 154.754059 316.366943 155.220551 318.44165 155.887085 C 319.552246 156.992767 320.761475 159.213989 320.761475 161.712799 C 320.761475 162.621307 319.834351 166.974274 318.526184 170.118042 L 303.664673 206.697357 L 285.405396 160.404602 C 285.678406 158.202362 286.878479 156.065674 288.440674 155.237579 C 290.00293 155.058594 291.927979 154.493988 294.426758 154.493988 C 294.610291 154.1315 294.789307 153.585876 294.789307 153.204773 C 294.789307 152.837341 294.70929 152.277313 294.32782 152.192749 L 292.012573 152.192749 C 289.179688 152.192749 284.845337 152.559814 279.94635 152.559814 C 277.824097 152.559814 273.668701 152.376282 269.597839 152.376282 L 265.997925 152.376282 C 265.809814 152.73877 265.635437 152.922302 265.635437 153.486908 C 265.635437 154.032898 265.724915 154.230072 265.908447 154.592957 C 268.492126 155.237579 270.990906 156.249207 273.668701 157.722321 C 275.424255 160.319672 279.217163 169.656586 281.249939 174.536957 L 288.897217 193.026459 C 295.254883 208.372925 299.043274 218.613373 299.509277 220.368622 C 299.970398 220.650696 299.509277 220.914642 300.337402 220.914642 C 301.165955 220.914642 301.080994 220.749664 301.264465 220.288605 L 325.095825 163.00238 C 325.92395 160.964661 327.218079 159.030487 328.422729 157.722321 C 329.895874 156.065674 332.94519 155.420715 335.806519 154.776093 C 335.905029 154.413971 336.187927 154.032898 336.187927 153.58548 M 404.589417 204.015045 C 404.589417 202.72583 404.589417 202.160858 404.504822 201.33728 C 404.038452 201.055176 403.860229 201.055176 403.116333 201.055176 C 402.467163 201.055176 402.565735 201.055176 401.916199 201.252716 C 399.878845 207.991852 396.377502 212.98941 392.396118 215.389618 C 391.012512 216.217743 388.513428 216.396729 384.550964 216.396729 L 374.197876 216.396729 C 370.969971 216.298126 368.936829 216.118774 368.099182 215.935242 C 366.715576 215.671722 365.232971 213.436462 364.597839 211.963348 C 363.934265 210.391693 363.571838 209.841095 363.571838 205.591675 L 363.571838 184.518066 L 366.532043 184.518066 C 369.487366 184.518066 371.887573 184.716003 374.381775 185.826233 C 376.697083 186.838257 378.452271 188.311371 379.369873 189.784088 C 380.207886 191.092255 380.485413 196.170227 380.668945 197.464355 C 381.125488 197.741913 381.407593 197.826843 382.141663 197.826843 C 382.880676 197.826843 382.970215 197.741913 383.624207 197.365387 C 383.624207 194.880646 383.068726 188.127838 383.068726 184.43808 C 383.068726 179.817017 383.713379 174.174469 383.986389 170.847198 C 383.624207 170.663666 383.435791 170.485077 382.513672 170.485077 C 381.859558 170.485077 381.596008 170.485077 381.036011 170.748596 C 380.763 172.056763 380.014893 175.929688 379.840454 176.212158 C 378.452637 178.508484 375.209961 180.362671 372.725159 181.111145 C 371.054504 181.572235 368.654297 181.85434 365.14386 181.85434 L 363.670776 181.85434 L 363.670776 172.786285 C 363.670776 163.929443 363.854248 160.320068 363.934265 158.649414 C 364.032898 157.538422 364.216797 156.347778 364.31543 155.52005 C 365.14386 155.421082 367.826172 155.336517 372.080566 155.336517 C 377.426208 155.336517 381.407593 155.421082 382.240601 155.421082 C 384.824402 155.604614 386.763062 156.164276 388.151306 157.275269 C 392.67865 160.786072 393.878357 163.101349 396.377502 168.729462 C 396.932678 168.912994 397.012695 168.912994 397.488159 168.912994 C 398.03418 168.912994 398.132751 168.729462 398.862305 168.362427 C 398.862305 162.720276 398.495239 156.348175 398.311707 154.032898 C 398.212769 153.105804 398.033752 152.837341 396.189087 152.837341 C 395.450439 152.837341 391.939636 152.658752 388.250244 152.658752 C 382.970215 152.658752 380.852478 152.738403 372.81012 152.738403 C 368.470764 152.738403 360.809509 152.837341 357.016541 152.837341 C 351.473022 152.837341 350.263428 152.658752 347.854126 152.658752 L 344.69635 152.658752 C 344.413818 153.020874 344.220825 153.383362 344.220825 153.750427 C 344.220825 154.230469 344.414246 154.677521 344.69635 155.058594 C 345.811523 155.421082 350.183411 155.336517 351.473022 156.065674 C 352.762207 157.176666 353.96228 157.458801 354.799927 161.891754 C 354.983459 163.830475 355.082397 170.118042 355.082397 174.37204 L 355.082397 193.388947 C 355.082397 197.261871 354.983765 203.652924 354.889404 205.954132 C 354.701294 209.563538 353.406799 214.095123 352.856201 214.923615 C 352.018616 215.568207 348.230225 216.118774 344.50293 216.29776 C 344.220825 216.862732 344.032776 217.224823 344.032776 217.789459 C 344.032776 218.335449 344.220825 218.613007 344.50293 219.079041 L 347.576172 219.079041 C 350.545898 219.079041 357.943665 218.796539 360.428467 218.796539 C 362.743713 218.796539 365.882568 218.980072 371.242554 218.980072 C 374.197876 218.980072 382.880676 219.545044 401.549133 219.545044 C 402.288208 219.545044 403.116333 219.643616 404.038879 219.361511 C 404.321289 218.895111 404.321289 218.716919 404.415344 217.888397 C 404.589417 216.03421 404.589417 211.497742 404.589417 204.015045 M 482.106262 218.052979 C 482.106262 217.605927 481.932251 217.041321 481.650146 216.678833 C 480.7276 216.678833 476.934692 216.4953 475.546509 215.469238 C 475.089966 214.923615 474.350952 213.817566 473.97937 213.172943 C 472.779297 208.918579 471.489685 205.125641 470.096619 201.619781 C 468.162781 196.998352 465.480103 192.645386 463.263794 190.626648 C 462.435303 189.883057 459.847412 188.673859 456.609253 187.581818 C 455.136475 187.016876 453.92688 186.555786 452.821228 186.090149 C 454.209045 185.82663 454.854004 185.727661 456.609253 185.544128 C 462.619202 184.800568 464.651978 183.510986 466.407227 182.118256 C 470.096619 179.35556 472.50177 175.200531 472.50177 170.202576 C 472.50177 162.719879 467.696777 155.604614 460.953125 153.486908 C 458.736389 152.837341 454.755432 152.47525 449.865906 152.47525 C 442.938354 152.47525 437.757263 153.105804 433.140381 153.105804 C 431.766602 153.105804 427.229736 152.922302 424.001404 152.922302 C 422.613647 152.922302 419.102478 152.73877 418.547302 152.73877 C 418.274353 153.383362 418.086243 153.585876 418.086243 153.948364 C 418.086243 154.310455 418.175781 154.856476 418.274353 155.237579 C 419.841492 155.421082 422.702759 155.788116 424.184937 156.065674 C 426.401611 157.722321 427.145203 159.030853 428.067749 161.063263 C 428.519287 164.00946 428.618286 172.339233 428.618286 185.365173 C 428.618286 194.782043 428.712341 206.617706 428.24176 210.123596 C 427.973328 212.424835 427.145203 215.187134 424.457947 216.29776 C 423.25824 216.4953 421.041565 216.862732 419.191895 216.961304 C 418.914368 217.408752 418.721741 217.789459 418.721741 218.250519 C 418.721741 218.53302 418.914368 218.895111 419.102783 219.361511 C 420.392029 219.361511 431.018066 219.079041 433.973389 219.079041 C 439.893921 219.079041 441.366638 219.361511 446.628113 219.361511 C 446.821106 218.980072 447.009155 218.716919 447.009155 218.335449 C 447.009155 217.690857 446.821106 217.323792 446.628113 216.961304 C 444.792908 216.777802 442.472351 216.218109 441.456116 216.03421 C 439.145386 214.923615 437.493713 212.70694 437.493713 209.464569 L 437.395142 186.37262 C 438.138306 186.273651 440.811523 186.273651 441.545654 186.273651 C 444.044434 186.273651 446.548096 186.470856 448.938843 187.581818 C 452.453857 189.134949 455.781067 191.638275 457.997375 195.064148 C 460.953125 199.68103 462.896423 208.452942 463.823853 215.187134 C 464.091919 217.144836 464.83551 218.796906 466.590698 218.980072 C 467.324768 219.079041 468.444946 219.262543 471.950745 219.262543 L 481.551208 219.262543 C 481.932251 218.895508 482.106262 218.53302 482.106262 218.052979 M 462.708313 169.09198 C 462.708313 175.002594 457.997803 181.656799 452.552795 182.866364 C 450.326965 183.327454 447.09375 183.609924 442.938354 183.609924 C 441.827759 183.609924 438.68396 183.609924 437.30072 183.407471 L 437.211182 175.285095 L 437.211182 157.821289 C 437.211182 156.611694 437.493713 155.967102 437.855835 155.703583 C 438.227844 155.421082 442.011658 155.138611 444.32196 155.138611 C 452.999817 155.138611 456.981201 155.967102 460.124939 160.503571 C 461.880188 163.00238 462.708313 165.863647 462.708313 169.09198 M 544.465576 200.970215 C 544.465576 193.572449 541.157227 188.508911 534.027527 184.716003 C 532.084229 183.609924 528.677368 182.40036 523.77832 181.012177 C 518.139954 179.435577 513.429443 177.600342 510.380127 175.929688 C 508.351501 174.819092 504.926025 171.774261 504.926025 165.863647 C 504.926025 159.95755 510.939758 155.058594 517.951904 155.058594 C 523.495483 155.058594 527.938293 157.821289 530.611145 161.510681 C 532.931335 164.757599 533.75946 166.230682 536.338257 172.056763 C 536.620728 172.136383 536.982849 172.240295 537.26532 172.240295 C 538.093872 172.240295 538.837463 171.774261 539.30304 171.308655 C 539.020935 168.993011 538.564392 165.765045 538.564392 163.00238 C 538.564392 160.602173 539.119568 157.458801 539.402039 155.788116 C 538.648987 154.677521 537.820801 154.493988 536.620728 154.493988 C 535.331543 155.336517 534.121948 156.611694 533.010986 157.821289 C 526.921326 152.922302 521.933289 152.093781 517.311829 152.093781 C 505.95166 152.093781 497.824402 159.675476 497.824402 169.736938 C 497.824402 173.167389 499.015015 176.490112 501.231628 179.901581 C 503.269348 182.762848 506.229248 184.98407 510.206055 186.654755 C 512.879272 187.746765 524.884033 191.370209 526.549805 192.019714 C 533.938416 194.880646 536.719299 197.365387 536.719299 203.916443 C 536.719299 207.163361 535.331543 210.024994 532.648804 213.25293 C 530.248657 216.218109 526.455688 217.605927 522.394348 217.605927 C 518.050842 217.605927 510.568176 215.75174 506.869263 210.773132 C 504.652954 207.906921 501.51416 201.897339 500.587036 198.29248 C 499.942444 198.108948 499.942444 198.108948 499.297485 198.108948 C 498.741943 198.108948 498.087891 198.29248 497.54187 198.654968 C 497.54187 199.864532 497.913818 205.954132 497.913818 207.808319 C 497.913818 212.325867 497.076233 214.542542 496.897705 216.03421 C 497.170654 216.961304 498.741943 217.888397 499.857544 217.888397 C 501.786804 216.217743 503.815369 214.923615 504.478943 214.923615 C 505.024963 214.923615 505.853088 215.187134 506.67627 215.75174 C 512.686279 219.643616 517.683777 220.368622 522.121765 220.368622 C 535.147644 220.368622 544.465576 213.817566 544.465576 200.970215 M 590.113647 217.968414 C 590.113647 217.507324 590.015076 217.041321 589.836121 216.679199 C 588.461975 216.580231 584.664124 216.217743 582.998413 215.850708 C 581.525269 214.095123 580.508728 212.062714 579.864136 208.735413 C 579.770081 204.297516 579.671143 194.236023 579.671143 185.628693 L 579.671143 162.174255 C 579.671143 159.675476 580.697144 157.722321 581.337219 157.176666 C 583.087524 155.519653 586.607788 155.138611 589.554016 154.776489 C 589.742065 154.413971 589.836121 153.947968 589.836121 153.585876 C 589.836121 153.020874 589.553589 152.658752 589.379578 152.474854 L 586.70636 152.474854 C 582.819397 152.474854 577.270935 152.922302 574.127502 152.922302 C 572.188416 152.922302 566.644775 152.658752 562.583801 152.559814 L 560.546082 152.559814 C 560.273132 152.922302 560.0896 152.922302 560.0896 153.750427 C 560.0896 154.1315 560.183594 154.493988 560.273132 154.959991 C 564.80957 155.336517 566.83783 155.788116 567.482422 156.249207 C 568.588501 157.091736 570.15564 159.115417 570.536743 164.113342 C 570.62616 165.863647 570.706177 170.583649 570.800232 179.073456 C 570.898804 183.689941 570.988708 189.982025 570.988708 195.327698 C 570.988708 198.024414 570.800232 204.947052 570.706177 208.170441 C 570.536743 210.391693 570.061584 212.523407 569.426086 213.71402 C 568.30603 214.641113 567.200317 216.29776 560.456665 216.777802 C 560.273132 217.144836 560.183594 217.789459 560.183594 218.151947 C 560.183594 218.895111 560.353149 218.895111 560.353149 219.361511 L 561.934265 219.361511 C 565.637695 219.361511 571.360657 218.895111 576.160278 218.895111 C 577.553406 218.895111 583.638428 219.163574 586.706787 219.163574 L 589.742065 219.163574 C 590.015076 218.716522 590.113647 218.335449 590.113647 217.968414 M 666.901428 172.339233 L 666.901428 154.413971 C 666.901428 153.020874 666.336426 152.658386 664.953247 152.658386 C 662.181396 152.658386 649.428101 153.020874 634.646606 153.020874 C 623.182556 153.020874 615.52124 152.837341 610.345093 152.837341 L 603.511536 152.837341 C 602.316406 152.837341 601.935364 153.105804 601.935364 154.413971 L 601.935364 171.129669 C 602.316406 171.41217 602.598877 171.492188 603.036438 171.492188 C 603.422485 171.492188 603.784546 171.492188 604.156555 171.308655 C 607.760986 163.266266 609.606079 159.030853 615.799194 155.887085 C 618.56604 155.604614 628.265076 155.52005 629.752197 155.52005 C 629.841675 156.531677 629.93573 159.76001 630.030151 163.646973 C 630.124146 170.301544 630.124146 173.892365 630.124146 189.619537 C 630.124146 203.191467 630.030151 210.20816 629.841675 211.681274 C 629.479187 214.278625 629.93573 216.217743 618.853149 216.678833 C 618.56604 217.323425 618.56604 217.507324 618.56604 218.250885 C 618.56604 218.613007 618.56604 218.980072 618.664612 219.361511 L 622.264954 219.361511 C 625.681335 219.361511 630.20874 218.980072 633.540527 218.980072 C 636.218323 218.980072 641.300842 219.262543 646.938416 219.262543 L 649.522156 219.262543 C 649.799744 218.796539 649.799744 218.335449 649.799744 217.888397 C 649.799744 217.323425 649.705688 217.041321 649.428101 216.580231 C 648.41156 216.580231 642.505493 216.777802 639.912659 214.824646 C 639.630188 213.817566 639.070129 211.135254 639.070129 207.906921 C 638.995056 197.925446 638.895691 193.209961 638.895691 186.555786 C 638.895691 177.967407 638.995056 171.41217 638.995056 155.421082 C 640.284241 155.421082 647.121948 155.336517 649.903259 155.421082 C 655.616333 156.992767 657.833008 159.115417 660.326843 162.437775 C 662.548462 165.402557 663.103577 168.084869 664.477661 172.517853 C 665.047241 172.701355 665.315674 172.701355 665.875366 172.701355 C 666.233337 172.701355 666.708374 172.517853 666.901428 172.339233 M 741.538452 153.303375 C 741.538452 152.738403 741.171387 152.559814 740.987915 152.192749 C 737.199463 152.192749 732.215942 152.47525 730.267822 152.47525 C 725.552246 152.47525 719.834351 152.093781 717.335571 152.093781 C 717.052979 152.658752 716.958984 152.738403 716.958984 153.204773 C 716.959595 153.581299 717.023315 153.955048 717.147461 154.310455 C 719.834351 154.856476 723.707275 155.52005 724.450806 156.814178 C 725.095337 158.004791 725.283813 158.931885 725.283813 160.404999 C 725.283813 161.510681 725.199341 162.621307 724.723877 163.830475 C 723.895752 166.132111 722.140503 169.736572 719.64624 174.819092 C 715.391846 183.407471 712.714111 188.772461 711.231934 190.890167 C 708.836548 186.838257 703.476563 176.127228 702.191528 173.346344 L 697.005493 162.075287 C 696.826904 161.712799 696.638428 160.404602 696.638428 159.576508 C 696.638428 158.385864 696.826904 157.538788 697.005493 157.1763 C 697.843445 155.52005 700.709351 155.336517 704.587158 154.856476 C 704.765747 154.413971 704.860229 153.849396 704.860229 153.486908 C 704.860229 152.837341 704.587158 153.020874 704.309204 152.559814 L 702.648438 152.559814 C 696.454956 152.559814 698.299622 152.837341 687.673523 152.837341 C 683.156067 152.837341 677.697021 152.559814 676.962891 152.559814 C 676.591309 153.204407 676.402832 153.303375 676.402832 153.947968 C 676.402832 154.310455 676.496887 154.59259 676.783936 155.05896 C 682.963013 156.531677 684.807373 157.63739 685.461792 158.846954 L 701.63147 190.527679 C 703.198608 193.492828 704.121216 195.789154 704.587158 197.464355 C 705.231812 200.043152 705.335327 203.836426 705.335327 208.537476 C 705.335327 212.523407 703.9422 214.641113 702.365906 215.671722 C 701.725891 216.03421 697.095337 216.678833 694.977295 216.862335 C 694.605652 217.506958 694.502136 217.690857 694.502136 218.151947 C 694.502136 218.613007 694.699341 218.895111 694.794128 219.262543 C 699.5047 219.262543 704.40332 219.163971 707.175415 219.163971 C 709.114258 219.163971 712.069458 219.262543 717.519043 219.361115 C 720.657837 219.441528 723.062622 219.545044 724.723877 219.545044 C 724.912231 219.163574 725.199341 218.796539 725.199341 218.335449 C 725.199341 217.888397 725.095825 217.605927 724.818237 217.144836 C 721.858032 216.777802 717.716553 216.217743 716.784912 215.290649 C 715.297852 213.71402 714.573242 212.98941 714.375244 209.380035 L 713.641235 195.511597 C 713.547119 194.499573 713.919189 193.572449 714.012817 193.308929 C 714.28125 192.283264 714.648315 191.454773 715.010742 190.711578 L 729.251221 162.536377 C 730.535889 160.136169 733.317139 157.458801 735.166382 156.348175 C 736.469971 155.52005 739.32666 154.959991 741.171387 154.493988 C 741.369019 154.032898 741.538452 153.665863 741.538452 153.303375"/>
</svg>
