<svg class="c-menu__logo-image" width="300" height="37" viewBox="0 0 300 37" xmlns="http://www.w3.org/2000/svg" fill-rule="nonzero">
      <path class="c-menu__logo-icon" d="M28.6 15.3c.4 0 .3-.2.1-.3l-.2-.1.7-.1.8-.2.5.1.7.4h.3v-.6h3l.7.2h.7l.1.1.6.1h.1l1.8.6h-1l.2.4-1.6-.4H36l-.5-.1H35l-.2-.1H34l-.7-.1H30.5l-.5.1a2 2 0 00-.4 0l-.3.1a13.7 13.7 0 00-.7.1c-.4 0-.4-.1-.1-.2l-.4-.2.3-.1c.1 0 .3 0 .4.2h-.2zM.6 20a.3.3 0 010-.7h1.2l.8.1.9.1a15.3 15.3 0 01.8.2v.7l-.3-.1h-.4l-.5-.2H1.8.6zm47.9 3.3a.3.3 0 010 .7h-1v-.2c0-.2-.3-.4-.5-.6h1.5zm-31.6-9h-.3l-.8-.1H15a1 1 0 00-.6-.7 3 3 0 00-.5 0h-.1l-.3-.2 1.2.2h-.1l.7.2h.2l-.2-.2h1l.5.7zm7.4-2.3c0-.1 0-.2.2-.2h.3l-.3.2h-.2zm6.8 2.7H30.5v-.1h.5zm8.5 6.8l.2-.3h.4l-.3.2h-.3zM24.2 12v.5l-1 .4-.4-.3-.2.2.3.3a20.7 20.7 0 01-1.7.6l-.6.1h-.1a12.6 12.6 0 01-2.2.3h-.9l-.4-.3-.2-.3a16.4 16.4 0 006.7-1.4l.4-.2h.3zm15.8-.7l.7.4c2 1 3.9 1.9 7.8 1.9a.3.3 0 110 .6c-4 0-6.1-1-8.1-2a23 23 0 00-2-.8h-.1a16 16 0 00-1.8-.6l-.7-.2.2-.6.6.1h.1l.6.2s-.1.2 0 .2l.1.5h.3v-.3-.3l.8.3c.3 0 .5.2.8.3l.7.3zm-.7 9.8l-.2.2-1.2-.5h-.3l-.5-.2H37l-.5-.2h-.6v-.1l-.7-.1h.4c.3-.2.8-.3.8-.5l.5.1.5.2h.1l.5.1.5.2.8.8zm6 2.3l.3.3-.4-.1.1-.2zM30 20c-.3 0-.2.1 0 .2a14.8 14.8 0 00-2 .4l-.4.1c-1 .3-1.9.7-2.8 1.2h-.2l-1 .5-.5.3-.5.2h-.2l-.4.2-.6.2v-.1l-.2-.2c0 .1-.1.2 0 .2h.1l-.7.3V23v-.2a14 14 0 003.9-1.5l.1-.1c.3 0 .5 0 .6-.2l.1-.1.7-.3.3-.1.5-.2.3-.1a35.4 35.4 0 012.6-.7l.4.3v-.1l-.1-.2h.3c.5.4-.1.4-.3.5zM19 23c-.3 0-.5.2-.2.5l.2.1h-.5l-.6.1h-3.5l-.5-.1-.6-.1H13l-.7-.2.2-.2-.5-.1-.3.1-.7-.2a17 17 0 01-1.8-.7v-.1-.5l-1 .1-.7-.3c.5-.5 0-.3-.2-.4a4 4 0 00-.6 0 17.2 17.2 0 00-1.8-.6L5 20v-.2l.5.2h.1l.4.1.4.2.5.2.6.2 1.2.6a15.5 15.5 0 008.8 1.8h1l.8-.1h.1l.7-.1H20l-1.1.2zm25.8.3l.1.1a15 15 0 01-1.5-.4l-.1-.2c-.2-.2.3-.4.6-.2l1 .7zM.6 10.4a.3.3 0 010-.7H2.8l.6.2h.5l.5.1.5.1.4.2h.3l.4.2.4.1h.2l1.2.6c-.6.2.2.3.4.3l.5.1 1 .5.9.4h.1l.2.1c-.3.2-.2.4 0 .6h.7v-.4l.5.2.7.1h-.1l.2.2.7.3-1 .2-.6-.2v-.2l-.3.1c-1.1-.3-2.2-.8-3.3-1.3-1-.5-2-1-3-1.2v-.1h-.1a15 15 0 00-1-.2l-.5-.1-.5-.1h-.5-.2l-.5-.1H.6zm31-.7H34c.2.2.3.3.5.3l.2.2c0 .1.6.2.4.3h-.5l-2-.1-.2-.2v-.1l-.2-.3-.3.3-.1.2h.2l-1.8.2c0-.2.2-.3.3-.4v-.3l.9-.1h.1zm17.3 18.6c0 .2-.2.4-.4.4h-.7a18.4 18.4 0 01-1.2 0l-.3-.1h-.2l-1.7-.3.5-.5h-.5l-.3.4-.7-.2h-.1l-.7-.3a21 21 0 01-1.3-.5 5 5 0 00-.5-.4h-.4c-2-1-3.9-2-7.6-2l-.2-.3-.4-.2-.6.6h-1l-.7.1h-.2l-.5.1H29l-.7.2a2 2 0 00-.3-.6 67.4 67.4 0 012-.3c0 .3.4.2.7.2l.5-.1-.7-.3a19.8 19.8 0 011.7 0l.6.2.1-.2c1.6 0 3.2.2 4.7.6l1.2.5v.1l.1.2.4-.1.8.3.4.5.2-.2.6.3 1 .5 3.3 1v.3l.4.2.3-.3-.2-.2a17.5 17.5 0 001.1 0l.6.1h.7c.2 0 .3.2.4.3zm-22.3-3c.4-.1.8 0 1 .2l-.3.1a23.5 23.5 0 00-3.5 1.6l-.3-.1h-.3l.1.3-.7.3v-.3l-.1-.1-.4.3a3 3 0 01-.6 0c-.4 0-.4.2-.1.3l.1.2h-.4l-.5.2h-.1l-.5.1-.7.1-.6.1H16.6c-4.1 0-6.2-.9-8.2-1.9-2-1-3.9-1.9-7.8-1.9a.3.3 0 010-.6h1v.1l.3.1.4-.2 3 .5.3.1.5.2-.2.1.5.1h.2l1.6.7 1.8.8 1.3.5a13.6 13.6 0 003.4.7l.1.2.6-.1H18.4l1.5-.3V28.3l.3-.4c.3 0 .4-.2.4-.3a14.3 14.3 0 003.8-1.5h.1a25 25 0 012-.9zm.4-14V11l.4-.1h.1l-.5.2zm4.6 8.2l-.6-.1H33.2a2 2 0 01-.3.2c-.4.2-.4.2-.8 0a.9.9 0 00-.5-.1zm2 .2l.3.2-.1.1h-.4l.3-.3zm12.9 3.6l.5.5h-.6l-.4-.3-.1-.3h.6zm-12.8-3.8l-.2-.1h.7l-.3.2-.2-.1zm-7-8.6c-.5.1-.5.3-.2.5l-.9.4c-.5-.1-.7-.2-.5-.5a19 19 0 012-.8c-.1.2-.2.3-.5.4zm12.9 10.6l-.3-.1h.3zM29.9 9.8h.3v.2l-.2.2-.3-.2.2-.2zm-4.3 6.9l-1.3.5a17.9 17.9 0 00-.5-.5l.6-.2.1-.1h.2c.2 0 .3.2.5.4l.2-.3-.4-.3.5-.2.1-.1.8-.3.3-.1.4-.2.1.2c.4.1.3.2 0 .3l-.5.2-.1.2-.9.4h-.1zm16 1l-.3-.2h.2s.1.1 0 .1zm1.4.5h-.2.1zm1 .3l-.4-.2c.2 0 .5.1.4.2zm-1-.3c-.5-.3-1-.6-.8-1 .3 0 .6.2.8.3v.3c.2.2.3.4.5.4h.1-.7zm-42.4-3a.3.3 0 010-.7H2.3l.6.1H3l.7.1v.2c0 .3.3.5.9.4.3 0 .6 0 .9-.2 1 .4 2.2.8 3.2 1.4l.6.3 2 .8c-.2 0-.3.2-.4.3l.3.2h.1c.3 0 .7 0 .7-.3l.7.2-.2.1.1.2a10.6 10.6 0 00.8.5l.1-.1s.1-.1 0-.2l-.5-.2.3-.2 1.4.2H18.4L20 18l.2.2.2-.3c1.1-.3 2.2-.7 3.2-1.2v.5l.3.2-.8.3-.6.3-.4.1-.4.1-.4.2H21l-.5.2-.5.1h-.3l-.5.1h-.6l-.6.1h-3.3a14 14 0 01-3-.6l-.1-.1-.8-.2.1-.2c0-.2-.3-.3-.5-.5l-.6.3-1.3-.6-.5-.3-1.1-.5c-1.3-.5-2.6-.9-4-1l-.4-.4-.1.1.4.3h-.9l-.6-.1H.6zm48.2 3.3v.2c0 .2-.1.3-.3.3H46.6c-.6 0-1.2-.2-1.7-.3l.2-.3-.3-.4.7.1h.1a18.9 18.9 0 001.7.2h1.2l.2.1.1.1zM41 16.6a53.5 53.5 0 00.6.5l-.5.1-.1-.3v-.3zm-1.2-.5l-.3-.2 1.2.5a1 1 0 01-.7.4l-.6-.2c.4.1.5 0 .5-.1l-.1-.4zM.2 5.6a.3.3 0 01.4-.3h1.9l.3.1H3l1.7.3-.5.5h.5l.3-.4.7.2h.1l.7.3a18.5 18.5 0 011.3.6l.4.3.2-.1.3.2c2 1 3.9 1.8 7.6 1.8l.2.4.4.2c.2-.2.5-.4.5-.6h1.1l.6-.1h.3l.5-.1h.2l.7-.2.3.6a11.1 11.1 0 01-2.1.4v-.1c0-.3-.3-.3-.6-.2h-.5l.7.3a18.1 18.1 0 01-1.7.1l-.6-.2-.1.2a15.9 15.9 0 01-5.9-1.1v-.1l-.1-.2-.4.1-.8-.3-.5-.5v.2l-.7-.3-1-.5-3.3-1v-.3L3 5.6l-.3.3.3.2a17.5 17.5 0 00-1.2 0L1.3 6H.6a.3.3 0 01-.4-.4zm22.3 3.1c-.4.1-.8 0-1.1-.2l.4-.1a23 23 0 002.6-1.1l.9-.5h.6l-.1-.2.7-.3v.2l.1.1.4-.2h.6c.4-.1.4-.2.1-.4l-.1-.1.4-.1.6-.2h.6l.6-.2h.6l.7-.1h1.4c4.1 0 6.2 1 8.2 2 2 .9 3.9 1.8 7.8 1.8a.3.3 0 010 .7h-1v-.1l-.3-.1-.4.1c-1 0-2-.2-3-.5h-.3L43 9l.2-.2h-.7l-1.6-.7-1.8-.8A13.7 13.7 0 0034.4 6l-.1-.2-.6.1H30.7l-1.5.3V6v-.5l-.3.4c-.3.2-.4.2-.4.4l-2.5.8-1.3.7h-.2a25.4 25.4 0 01-2 .8zM30 29l.5.1.7.3h.3v-.5h3l.7.1.7.2h.1l.6.1h.1l1.8.6h-1l.2.4-1.6-.4H36l-.5-.1H35l-.2-.1H34l-.7-.1H30.5l-.5.1a2 2 0 00-.4 0l-.3.1-.6.1h-.1c-.4 0-.4-.2 0-.2s.3-.2.1-.3l-.2-.1.7-.2h.8zm-4.4 2l-1.3.6a17.9 17.9 0 00-.5-.5l.6-.3h.1l.2-.1.5.5.2-.3-.4-.3.5-.3h.1l.8-.3.3-.2.4-.1.1.1c.4.2.3.3 0 .4l-.5.2-.1.1-.9.5h-.1zm16 1l-.3-.1h.2s.1 0 0 .1zm1.4.6h-.2.1zm1 .3l-.4-.2c.2 0 .5.1.4.2zm-1-.4c-.5-.2-1-.5-.8-1l.8.4v.3a1 1 0 00.6.5l-.7-.2zm-42.4-3v.1a.3.3 0 110-.7H2.2l.6.1H3l.7.1v.2c0 .3.3.5.9.4.3 0 .6 0 .8-.2 1.2.4 2.2.8 3.3 1.4l.6.3 2 .8-.4.2v.1l.3.2.1-.1c.3 0 .7 0 .7-.2l.6.2-.1.1.1.2.5.4h.4v-.2l-.5-.2.3-.2 1.4.2H18.4l1.5-.2.3.1.2-.2c1-.3 2.2-.7 3.2-1.2v.4l.3.2-.8.4-.6.2-.4.2-.4.1-.4.1h-.1l-.3.2h-.5l-.5.2H19l-.6.1h-.6l-.7.1h-2.6a20.3 20.3 0 01-3-.6l-.1-.2v.1l-.8-.2.1-.2c0-.2-.3-.4-.5-.5l-.6.2a47.6 47.6 0 01-1.8-.8l-1.1-.5c-1.3-.5-2.6-.9-4-1 0-.2-.2-.3-.4-.4l-.1.1.4.3-.9-.1H.6zm48.2 3.4v.2c0 .2-.1.3-.3.3H46.6l-1.7-.3.2-.3-.3-.4.7.1h.1a15.7 15.7 0 001.7.2h1.2l.2.1.1.1zm-7.9-2l.8.4-.2.2-.5.1-.1-.3v-.3zm-1.2-.5l-.3-.1 1.2.5a1 1 0 01-.7.4l-.6-.3c.4.2.5.1.5 0l-.1-.5z"></path>
      <path class="c-menu__logo-tour" d="M72 36.4c-5.5 0-9-1.1-9-8.3V16.7h-3.4v-5.2h3.3V0h5.7v11.5H73v5.2h-4.5v11.2c0 2.6 1 3.2 3.5 3.2h1v5.2l-1 .1zm19.4.4c-7.3 0-12.5-5.2-12.5-13.2 0-6.6 4.7-12.8 12.3-12.8 7.7 0 12.8 5.9 12.8 12.6 0 7.4-5.1 13.4-12.6 13.4zM91.2 16c-4.1 0-6.6 3.4-6.6 7.6 0 4.9 2.5 8 6.6 8 5 0 7-3.5 7-7.9 0-4.8-2.6-7.7-7-7.7zm35.6 20v-3a8.2 8.2 0 01-7 3.8c-5.8 0-9-3.2-9-9.3v-16h5.6v15c0 2.7 1.6 5 4.6 5 4 0 5.8-3.8 5.8-6.8V11.5h5.6V36h-5.6zm28.6-18.7c-1-.8-2.2-1.2-3.5-1.2-3.1 0-5.4 2.8-5.4 7.5V36H141V11.5h5.6v3a8 8 0 016.6-3.7c2 0 3.3.6 4.9 1.8l-2.6 4.7z"></path>
      <path class="c-menu__logo-select" d="M170.3 36.8a14 14 0 01-8.2-2.7l1.5-1.9c2 1.5 4.3 2.3 6.7 2.3 2.9 0 5.7-2 5.7-4.6 0-3.4-3-4.2-6.6-5.2-3.5-1-7-2.6-7-6.8 0-4.1 4.1-6.2 7.7-6.2 2.9 0 5.3.7 7.6 2.6l-1.4 1.7A10 10 0 00170 14c-2.4 0-5 1.3-5 3.9 0 2.7 2.2 3.7 5.8 4.7 3.8 1 7.9 2.3 7.9 7.4 0 4-4.3 6.9-8.3 6.9zm19-13c.1 6.1 3.5 10.7 9.6 10.7 3.5 0 6-1.3 8.3-3.5l1.7 1.4c-1.7 2.1-5 4.4-10.1 4.4-8 0-12-6.2-12-13 0-6.1 3.8-12.1 11.6-12.1 7.6 0 10.7 6.1 11 12.2h-20zm9-9.9c-5.5 0-8.2 3.6-8.8 7.9h17c-.3-3.7-3-7.9-8.2-7.9zm35.4 10c0 6 3.5 10.6 9.5 10.6 3.5 0 6.1-1.3 8.3-3.5l1.7 1.4c-1.6 2.1-5 4.4-10 4.4-8.2 0-12-6.2-12-13 0-6.1 3.7-12.1 11.6-12.1 7.5 0 10.6 6.1 11 12.2h-20.1zm9-10c-5.6 0-8.3 3.6-8.9 7.9h17c-.3-3.7-2.9-7.9-8.2-7.9zM273 36.8c-6.7 0-11.7-5.6-11.7-12.7 0-7 5-12.4 11.5-12.4 5.1 0 8.1 2.4 9.9 4.5l-2 1.6a9.3 9.3 0 00-7.5-3.9c-5.6 0-9.4 4.6-9.4 10.1 0 5.7 3.8 10.5 9 10.5 3.8 0 6.3-1.8 8.4-4.8l1.9 1.2a11.9 11.9 0 01-10.1 5.9zm25.2-.8c-3.3 0-5.3-2-5.3-5V14.5h-3.7v-2.1h3.7V1.3h2.4v11h4.5v2.2h-4.5v16.6c0 1.3 1 2.8 3.1 2.8h1.5V36h-1.7zM218.9 1.2h2.4V36H219V1.2z"></path>
    </svg>