<svg class="svg-icon" width="408" height="408" aria-hidden="true" aria-label="Logo Icon" role="img" focusable="false" viewBox="0 0 2131 408" fill="none" xmlns="http://www.w3.org/2000/svg"><path d="M203.16 389.8C203.16 397.267 199.427 401 191.96 401H119.72C112.253 401 108.52 397.267 108.52 389.8V95.8H11.64C4.17333 95.8 0.44 92.0667 0.44 84.6V18.8C0.44 11.3333 4.17333 7.59997 11.64 7.59997H300.32C307.787 7.59997 311.52 11.3333 311.52 18.8V84.6C311.52 92.0667 307.787 95.8 300.32 95.8H203.16V389.8ZM436.409 389.8C436.409 397.267 432.675 401 425.209 401H352.969C345.502 401 341.769 397.267 341.769 389.8V18.8C341.769 11.3333 345.502 7.59997 352.969 7.59997H425.209C432.675 7.59997 436.409 11.3333 436.409 18.8V389.8ZM590.186 389.8C590.186 397.267 586.452 401 578.986 401H509.266C501.799 401 498.066 397.267 498.066 389.8V18.8C498.066 11.3333 501.799 7.59997 509.266 7.59997H584.306C590.092 7.59997 594.572 10.0266 597.746 14.88L747.546 240.56V18.8C747.546 11.3333 751.279 7.59997 758.746 7.59997H828.466C835.932 7.59997 839.666 11.3333 839.666 18.8V389.8C839.666 397.267 835.932 401 828.466 401H762.106C756.319 401 751.839 398.573 748.666 393.72L590.186 156.84V389.8ZM1083 408C1045.11 408 1010.58 398.853 979.403 380.56C958.683 368.427 940.763 353.307 925.643 335.2C910.523 316.907 898.856 296.56 890.643 274.16C882.616 251.573 878.603 228.053 878.603 203.6C878.603 166.08 887.656 131.827 905.763 100.84C917.71 80.12 932.643 62.2 950.563 47.08C968.67 31.96 989.016 20.3867 1011.6 12.36C1034.19 4.14666 1057.99 0.0399885 1083 0.0399885C1105.78 0.0399885 1127.71 3.58665 1148.8 10.68C1170.08 17.7733 1189.5 27.9466 1207.04 41.2C1210.4 43.6266 1212.08 46.4266 1212.08 49.6C1212.08 51.84 1211.15 54.2667 1209.28 56.88L1168.96 111.2C1166.54 114.56 1163.74 116.24 1160.56 116.24C1158.32 116.24 1155.9 115.4 1153.28 113.72C1143.02 106.627 1131.72 101.12 1119.4 97.2C1107.27 93.0933 1095.14 91.04 1083 91.04C1063.78 91.04 1045.86 95.9867 1029.24 105.88C1012.44 116.147 999.096 129.96 989.203 147.32C979.496 164.493 974.643 183.347 974.643 203.88C974.643 224.787 979.683 243.827 989.763 261C999.656 278.36 1012.91 292.08 1029.52 302.16C1046.14 312.053 1063.96 317 1083 317C1096.63 317 1108.86 315.227 1119.68 311.68C1130.7 308.133 1142.08 302.16 1153.84 293.76C1156.46 292.08 1158.88 291.24 1161.12 291.24C1164.48 291.24 1167.38 292.92 1169.8 296.28L1209.28 350.88C1211.15 353.307 1212.08 355.827 1212.08 358.44C1212.08 361.24 1210.68 363.76 1207.88 366C1190.34 379.627 1170.92 390.08 1149.64 397.36C1128.55 404.453 1106.34 408 1083 408ZM1413.75 408C1375.86 408 1341.33 398.853 1310.15 380.56C1289.43 368.427 1271.51 353.307 1256.39 335.2C1241.27 316.907 1229.61 296.56 1221.39 274.16C1213.37 251.573 1209.35 228.053 1209.35 203.6C1209.35 166.08 1218.41 131.827 1236.51 100.84C1248.46 80.12 1263.39 62.2 1281.31 47.08C1299.42 31.96 1319.77 20.3867 1342.35 12.36C1364.94 4.14666 1388.74 0.0399885 1413.75 0.0399885C1451.65 0.0399885 1486.09 9.09332 1517.07 27.2C1537.79 39.1467 1555.71 54.1733 1570.83 72.28C1585.95 90.3867 1597.53 110.64 1605.55 133.04C1613.77 155.44 1617.87 178.96 1617.87 203.6C1617.87 240.747 1608.91 274.907 1590.99 306.08C1579.05 326.987 1563.93 345.093 1545.63 360.4C1527.53 375.707 1507.18 387.467 1484.59 395.68C1462.19 403.893 1438.58 408 1413.75 408ZM1413.75 317C1432.98 317 1450.9 311.96 1467.51 301.88C1484.31 291.8 1497.57 278.173 1507.27 261C1516.98 243.64 1521.83 224.6 1521.83 203.88C1521.83 183.16 1516.89 164.027 1506.99 146.48C1497.1 129.307 1483.85 115.773 1467.23 105.88C1450.62 95.9867 1432.79 91.04 1413.75 91.04C1394.53 91.04 1376.61 95.9867 1359.99 105.88C1343.19 116.147 1329.85 129.96 1319.95 147.32C1310.25 164.493 1305.39 183.347 1305.39 203.88C1305.39 224.787 1310.43 243.827 1320.51 261C1330.41 278.36 1343.66 292.08 1360.27 302.16C1376.89 312.053 1394.71 317 1413.75 317ZM1749.23 389.8C1749.23 397.267 1745.5 401 1738.03 401H1668.31C1660.85 401 1657.11 397.267 1657.11 389.8V18.8C1657.11 11.3333 1660.85 7.59997 1668.31 7.59997H1743.35C1749.14 7.59997 1753.62 10.0266 1756.79 14.88L1906.59 240.56V18.8C1906.59 11.3333 1910.33 7.59997 1917.79 7.59997H1987.51C1994.98 7.59997 1998.71 11.3333 1998.71 18.8V389.8C1998.71 397.267 1994.98 401 1987.51 401H1921.15C1915.37 401 1910.89 398.573 1907.71 393.72L1749.23 156.84V389.8ZM2046.05 401C2038.58 401 2034.85 397.267 2034.85 389.8V322.6C2034.85 315.133 2038.58 311.4 2046.05 311.4H2118.85C2126.32 311.4 2130.05 315.133 2130.05 322.6V389.8C2130.05 397.267 2126.32 401 2118.85 401H2046.05Z" fill="currentColor"></path></svg>