<svg fill="none" height="127" viewBox="0 0 451 127" width="451" xmlns="http://www.w3.org/2000/svg"><g fill="#fff"><path clip-rule="evenodd" d="m21.8 125.8h-21.000012l18.700012-96.1h40.3c12.1 0 21 3.2 26.5 9.5 5.6 6.4 7.2 15.2 5 26.7-.9 4.7-2.5 9-4.6 12.9-2.2 3.9-5 7.5-8.5 10.7-4.2 3.9-8.8 6.7-13.9 8.4s-11.6 2.5-19.6 2.5h-18zm45.9-76.6c-2.7-2.9-8-4.4-15.9-4.4h-14.3l-7.8 40.3h12.7c8.4 0 14.7-1.6 18.9-4.8 4.1-3.2 6.9-8.5 8.4-15.9 1.3-7.2.6-12.2-2-15.2z" fill-rule="evenodd"/><path d="m106.6 4.1h20.8l-5 25.6h18.5c11.7 0 19.7 2 24.1 6.1s5.8 10.7 4 19.8l-8.7 44.8h-21.1l8.3-42.6c.9-4.8.6-8.1-1-9.9s-5.1-2.6-10.4-2.6h-16.6l-10.7 55.1h-20.9z"/><path clip-rule="evenodd" d="m185.2 125.8h-21l18.7-96.1h40.4c12.1 0 21 3.2 26.5 9.5 5.6 6.4 7.2 15.2 5 26.7-.9 4.7-2.5 9-4.6 12.9-2.2 3.9-5 7.5-8.5 10.7-4.2 3.9-8.8 6.7-13.9 8.4s-11.6 2.5-19.6 2.5h-18zm46-76.6c-2.7-2.9-8-4.4-15.9-4.4h-14.4l-7.8 40.3h12.7c8.4 0 14.7-1.6 18.9-4.8 4.1-3.2 6.9-8.5 8.4-15.9 1.3-7.2.7-12.2-1.9-15.2z" fill-rule="evenodd"/><path d="m317.5 48.5c-5.7-13.6-10.5-25.4-5.8-33.6 1.8-2.5 3.8-3.8 6-3.8 4.5 0 8.6 4.9 8.6 4.9l5.7 6.9-3.6-8.2c-.2-.3-6.3-14.2-17.2-14.2-3.8 0-7.8 1.7-11.7 5.1l-.1.1c-9.5 11-.2 31.8 8.1 50.1l6.1 14.2c2.8 7.3 5.6 16 3.9 22.4-2.6 10-11.5 16.8-11.6 16.9l-5.7 4.4 6.9-2.2c.7-.2 16-5.2 19.7-18.5 2.3-10.9-.6-21.8-3.5-30.2.4-.3-.4.3 0 0l-5.3-13.7"/></g><path d="m334.4 9.9-7.1-7.8 5.1 9.3c.1.1 6.3 11.7-1.6 25.2-2.9 4.2-7.4 8.4-13.1 12.6l-10.3 6.7c-.1-.1-.1-.2 0 0l-.4.3c-11.5 6.6-22.2 10.6-22.4 10.7-15.9 7.1-25.9 18.1-27.3 30.3-1.1 9.2 3.2 18.2 11.6 24.5l.1.1c5.3 3.2 11 4.8 17 4.8 15.7 0 28-10.9 28.5-11.4l7.7-6.9-9.1 4.8c-.1 0-7.7 4-15.6 4-7.1 0-12.1-3.1-15.1-9.4-3.8-13.4 9.5-22.6 24.8-33.2 2-1.4 4.1-2.9 6.2-4.3l.1-.1 9.1-6.8c.1-.2.4-.4.4-.4 7.5-6.2 17.4-15.9 19.7-29.5 1.8-12.3-7.9-23-8.3-23.5z" fill="#0f0f0f"/><path d="m345.4 83h19.5l-3.5 17.7h-19.5z" fill="#fff"/></svg>