<svg
   xmlns:svg="http://www.w3.org/2000/svg"
   xmlns="http://www.w3.org/2000/svg"
   version="1.0"
   viewBox="0 0 814.96063 250.15747">
  <defs
     id="defs6266" />
  <g
     transform="translate(-1469.0652,198.28517)"
     style="display:inline"
     id="layer2">
    <g
       transform="translate(17.716516,17.789979)"
       id="g8735">
      <path
         d="M 1541.5863,-198.28517 C 1526.1502,-185.32463 1469.0652,-156.49099 1469.0652,-91.061958 C 1469.0652,-25.618358 1526.1502,3.3026819 1541.5863,16.292342 C 1556.8767,3.3026819 1613.5247,-25.618358 1613.5247,-91.061958 C 1613.5247,-156.49099 1556.8767,-185.32463 1541.5863,-198.28517 z M 1541.4406,5.3413619 L 1541.4406,10.642102 C 1526.8777,-1.6631481 1473.8709,-29.055068 1473.8709,-91.061958 C 1473.8709,-153.1416 1526.8777,-180.37338 1541.4406,-192.75145 L 1541.4406,-187.36338 C 1555.2746,-175.71342 1604.2045,-149.79228 1604.2045,-91.061958 C 1604.2045,-32.273368 1555.2746,-6.3230981 1541.4406,5.3413619"
         style="fill:currentColor;fill-rule:evenodd;stroke:none;stroke-width:0.22;stroke-linecap:butt;stroke-linejoin:miter;stroke-miterlimit:3.86400008;stroke-dasharray:none"
         id="path12268" />
      <path
         d="M 1473.8709,-91.061958 C 1473.8709,-29.055068 1526.8777,-1.6631481 1541.4406,10.642102 L 1541.4406,5.3413619 C 1555.2746,-6.3230981 1604.2045,-32.273368 1604.2045,-91.061958 C 1604.2045,-149.79228 1555.2746,-175.71342 1541.4406,-187.36338 L 1541.4406,-192.75145 C 1526.8777,-180.37338 1473.8709,-153.1416 1473.8709,-91.061958 z "
         style="fill:none;stroke:#ffffff;stroke-width:0.00001456;stroke-linecap:round;stroke-linejoin:round;stroke-miterlimit:4;stroke-dasharray:none"
         id="path12270" />
      <path
         d="M 1541.4406,-181.39279 C 1528.6255,-170.47093 1483.4817,-146.15166 1483.4817,-91.061958 C 1483.4817,-35.986808 1528.6255,-11.652978 1541.4406,-0.71655809 C 1554.4014,-11.652978 1599.1075,-35.986808 1599.1075,-91.061958 C 1599.1075,-146.15166 1554.4014,-170.47093 1541.4406,-181.39279 z M 1569.6918,-38.666278 L 1513.6264,-38.666278 L 1513.6264,-40.675898 C 1522.6553,-40.544888 1531.1009,-48.495968 1531.1009,-61.354548 L 1531.1009,-120.4635 C 1531.1009,-133.33671 1522.6553,-141.20041 1513.6264,-141.20041 L 1513.6264,-143.09358 L 1569.6918,-143.09358 L 1569.6918,-141.20041 C 1560.6629,-141.20041 1552.3623,-133.33671 1552.2166,-120.4635 L 1552.2166,-61.354548 C 1552.3623,-48.495968 1561.0999,-40.544888 1569.6918,-40.675898 L 1569.6918,-38.666278 z "
         style="fill:currentColor;fill-rule:nonzero;stroke:#ffffff;stroke-width:0.00001456;stroke-linecap:round;stroke-linejoin:round;stroke-miterlimit:4;stroke-dasharray:none"
         id="path12272" />
      <path
         d="M 1541.5863,-198.28517 C 1526.1502,-185.32463 1469.0652,-156.49099 1469.0652,-91.061958 C 1469.0652,-25.618358 1526.1502,3.3026819 1541.5863,16.292342 C 1556.8767,3.3026819 1613.5247,-25.618358 1613.5247,-91.061958 C 1613.5247,-156.49099 1556.8767,-185.32463 1541.5863,-198.28517 z M 1541.4406,5.3413619 L 1541.4406,10.642102 C 1526.8777,-1.6631481 1473.8709,-29.055068 1473.8709,-91.061958 C 1473.8709,-153.1416 1526.8777,-180.37338 1541.4406,-192.75145 L 1541.4406,-187.36338 C 1555.2746,-175.71342 1604.2045,-149.79228 1604.2045,-91.061958 C 1604.2045,-32.273368 1555.2746,-6.3230981 1541.4406,5.3413619"
         style="fill:currentColor;fill-rule:evenodd;stroke:none;stroke-width:0.000001;stroke-linecap:round;stroke-linejoin:round;stroke-miterlimit:4;stroke-dasharray:none"
         id="path12274" />
      <path
         d="M 1643.96,-87.115538 L 2231.8458,-87.115538 L 2231.8458,-84.406938 L 1643.96,-84.406938 L 1643.96,-87.115538 z "
         style="fill:currentColor;fill-rule:nonzero;stroke:none;stroke-width:0.000001;stroke-linecap:round;stroke-linejoin:round;stroke-miterlimit:4;stroke-dasharray:none"
         id="path12276" />
      <path
         d="M 2189.4687,-121.16248 C 2189.76,-121.16248 2189.9056,-121.04603 2189.9056,-120.74023 L 2193.5462,-107.7068 C 2193.6918,-106.97869 2193.4005,-106.4253 2193.1099,-106.29428 C 2192.673,-106.23602 2192.5273,-106.1195 2192.5273,-105.74088 C 2192.5273,-105.31857 2193.1099,-105.31857 2193.8375,-105.26031 C 2197.478,-105.12929 2200.6823,-105.12929 2202.2838,-105.12929 C 2204.0316,-105.12929 2204.3229,-105.26031 2204.3229,-105.74088 C 2204.3229,-106.17776 2204.1772,-106.23602 2203.7403,-106.23602 C 2203.3033,-106.23602 2202.5751,-106.29428 2201.9925,-106.48355 C 2200.9736,-106.78942 2199.6628,-107.64854 2197.915,-113.18226 C 2195.1483,-122.51681 2187.8672,-147.60788 2186.8477,-150.95727 C 2186.4107,-152.41349 2186.1195,-152.99602 2185.6825,-152.99602 C 2185.2456,-152.99602 2184.9549,-152.26791 2184.518,-150.52039 L 2173.3044,-111.88626 C 2172.2855,-108.81353 2171.4116,-106.73116 2169.3725,-106.3671 C 2169.0819,-106.29428 2168.4993,-106.23602 2168.0624,-106.23602 C 2167.6254,-106.23602 2167.4798,-106.1195 2167.4798,-105.74088 C 2167.4798,-105.26031 2167.7711,-105.12929 2168.3537,-105.12929 C 2170.6834,-105.12929 2173.1594,-105.31857 2173.5957,-105.31857 C 2175.0522,-105.31857 2176.9456,-105.12929 2178.4014,-105.12929 C 2178.8384,-105.12929 2179.1296,-105.26031 2179.1296,-105.74088 C 2179.1296,-106.1195 2178.984,-106.23602 2178.4014,-106.23602 L 2177.8188,-106.23602 C 2176.363,-106.23602 2176.0717,-107.03695 2176.0717,-108.14368 C 2176.0717,-108.88636 2176.2173,-110.35721 2176.6543,-111.88626 L 2179.1296,-120.66741 C 2179.1296,-121.04603 2179.2753,-121.16248 2179.5666,-121.16248 L 2189.4687,-121.16248 z M 2180.4405,-124.30802 C 2180.2948,-124.30802 2180.1492,-124.45361 2180.2948,-124.59926 L 2184.3723,-139.74419 C 2184.3723,-140.03542 2184.518,-140.32665 2184.6636,-140.32665 C 2184.8093,-140.32665 2184.8093,-140.03542 2184.8093,-139.74419 L 2188.8868,-124.59926 C 2188.8868,-124.45361 2188.8868,-124.30802 2188.5955,-124.30802 L 2180.4405,-124.30802"
         style="fill:currentColor;fill-rule:evenodd;stroke:none;stroke-width:0.000001;stroke-linecap:round;stroke-linejoin:round;stroke-miterlimit:4;stroke-dasharray:none"
         id="path12278" />
      <path
         d="M 1914.8212,-139.30731 L 1914.9669,-139.30731 C 1915.6951,-138.14232 1920.6465,-130.4242 1925.5979,-123.87115 C 1930.2573,-117.47823 1935.937,-109.43976 1938.8493,-105.74088 C 1939.2862,-105.07103 1939.8688,-104.40111 1940.3058,-104.40111 C 1940.7427,-104.40111 1940.8884,-104.95451 1940.8884,-106.29428 L 1941.471,-144.98668 C 1941.471,-148.48164 1941.7623,-149.79228 1943.0724,-150.22916 C 1943.655,-150.52039 1943.9463,-150.52039 1944.3833,-150.52039 C 1944.9659,-150.52039 1945.2572,-150.66604 1945.2572,-150.95727 C 1945.2572,-151.53973 1944.8202,-151.53973 1944.2376,-151.53973 C 1942.0529,-151.53973 1940.3058,-151.39415 1939.8688,-151.39415 C 1938.8493,-151.39415 1936.6652,-151.53973 1934.3348,-151.53973 C 1933.7529,-151.53973 1933.1703,-151.53973 1933.1703,-150.95727 C 1933.1703,-150.66604 1933.4616,-150.52039 1933.8979,-150.52039 C 1934.6261,-150.52039 1935.6457,-150.52039 1936.3739,-150.08351 C 1937.3935,-149.50098 1937.8297,-148.33599 1937.8297,-144.5498 L 1938.2667,-116.98309 L 1938.121,-116.98309 C 1937.2478,-117.9733 1931.2769,-126.78359 1928.2189,-131.00673 C 1921.6661,-139.88984 1914.8212,-149.93786 1914.2386,-150.66604 C 1913.5111,-151.83103 1913.0741,-152.55914 1912.6372,-152.55914 C 1912.2002,-152.55914 1912.0546,-151.83103 1912.0546,-150.52039 L 1911.6176,-114.15798 C 1911.6176,-108.81353 1911.472,-107.03695 1910.3068,-106.54181 C 1909.5792,-106.29428 1908.851,-106.23602 1908.2684,-106.23602 C 1907.8314,-106.23602 1907.5401,-106.1195 1907.5401,-105.74088 C 1907.5401,-105.18755 1907.9771,-105.12929 1908.5597,-105.12929 C 1910.8894,-105.12929 1912.9285,-105.31857 1913.3654,-105.31857 C 1914.2386,-105.31857 1915.9864,-105.12929 1918.8987,-105.12929 C 1919.4813,-105.12929 1919.9183,-105.26031 1919.9183,-105.74088 C 1919.9183,-106.1195 1919.627,-106.23602 1919.19,-106.23602 C 1918.4618,-106.23602 1917.5886,-106.29428 1916.8603,-106.6729 C 1915.9864,-107.09521 1915.4038,-108.69708 1915.2582,-113.48813 L 1914.8212,-139.30731"
         style="fill:currentColor;fill-rule:nonzero;stroke:none;stroke-width:0.000001;stroke-linecap:round;stroke-linejoin:round;stroke-miterlimit:4;stroke-dasharray:none"
         id="path12280" />
      <path
         d="M 1964.1882,-122.99739 C 1964.1882,-117.28889 1964.1882,-112.43959 1963.8969,-109.86207 C 1963.7512,-108.08542 1963.6056,-106.73116 1962.586,-106.48355 C 1962.2947,-106.3671 1961.7128,-106.23602 1960.9846,-106.23602 C 1960.5476,-106.23602 1960.402,-106.04668 1960.402,-105.74088 C 1960.402,-105.31857 1960.6933,-105.12929 1961.2759,-105.12929 C 1963.023,-105.12929 1965.7896,-105.31857 1966.8092,-105.31857 C 1968.12,-105.31857 1970.8867,-105.12929 1973.9446,-105.12929 C 1974.3816,-105.12929 1974.8185,-105.31857 1974.8185,-105.74088 C 1974.8185,-106.04668 1974.5272,-106.23602 1974.0903,-106.23602 C 1973.3627,-106.23602 1972.3431,-106.3671 1971.7606,-106.48355 C 1970.4497,-106.73116 1970.1584,-108.08542 1970.0128,-109.80381 C 1969.7215,-112.43959 1969.7215,-117.28889 1969.7215,-122.99739 L 1969.7215,-148.19041 L 1975.4011,-147.89911 C 1979.4786,-147.89911 1980.6438,-146.15166 1980.7894,-144.5498 L 1980.7894,-143.82169 C 1980.7894,-142.94793 1980.9351,-142.6567 1981.2264,-142.6567 C 1981.5177,-142.6567 1981.6633,-142.94793 1981.6633,-143.53039 C 1981.6633,-145.13226 1981.8083,-149.3554 1981.8083,-150.66604 C 1981.8083,-151.68538 1981.8083,-151.97661 1981.372,-151.97661 C 1981.0807,-151.97661 1980.0612,-151.39415 1977.1489,-151.39415 L 1959.3824,-151.39415 C 1957.9259,-151.39415 1956.1788,-151.53973 1954.868,-151.68538 C 1953.8484,-151.83103 1953.2665,-152.41349 1952.9752,-152.41349 C 1952.6839,-152.41349 1952.5383,-152.12226 1952.3926,-151.2485 C 1952.3926,-150.81162 1951.5187,-145.13226 1951.5187,-144.25857 C 1951.5187,-143.53039 1951.5187,-143.23916 1951.9557,-143.23916 C 1952.1013,-143.23916 1952.247,-143.53039 1952.3926,-143.96727 C 1952.5383,-144.40415 1952.6839,-145.13226 1953.1209,-146.15166 C 1953.8484,-147.4623 1954.868,-147.75353 1957.4897,-147.89911 L 1964.1882,-148.19041 L 1964.1882,-122.99739"
         style="fill:currentColor;fill-rule:nonzero;stroke:none;stroke-width:0.000001;stroke-linecap:round;stroke-linejoin:round;stroke-miterlimit:4;stroke-dasharray:none"
         id="path12282" />
      <path
         d="M 1995.206,-122.99739 C 1995.206,-116.98309 1995.206,-112.13379 1994.9147,-109.55628 C 1994.769,-107.77963 1994.4777,-106.73116 1993.6045,-106.48355 C 1993.1676,-106.3671 1992.7306,-106.23602 1992.0024,-106.23602 C 1991.4198,-106.23602 1991.2741,-106.04668 1991.2741,-105.74088 C 1991.2741,-105.31857 1991.5654,-105.12929 1992.148,-105.12929 C 1994.0408,-105.12929 1996.8081,-105.31857 1997.827,-105.31857 C 1998.9922,-105.31857 2001.9045,-105.12929 2004.8175,-105.12929 C 2005.4001,-105.12929 2005.6907,-105.31857 2005.6907,-105.74088 C 2005.6907,-106.04668 2005.5457,-106.23602 2004.9631,-106.23602 C 2004.2349,-106.23602 2003.361,-106.3671 2002.6327,-106.48355 C 2001.3226,-106.73116 2001.0313,-107.83789 2000.8856,-109.49802 C 2000.74,-112.13379 2000.74,-116.98309 2000.74,-122.99739 L 2000.74,-133.77359 C 2000.74,-143.09358 2000.74,-144.84103 2000.74,-146.73413 C 2000.8856,-148.91852 2001.3226,-149.93786 2002.4871,-150.22916 C 2003.0697,-150.37474 2003.361,-150.52039 2003.7979,-150.52039 C 2004.2349,-150.52039 2004.5262,-150.52039 2004.5262,-151.10285 C 2004.5262,-151.39415 2004.2349,-151.53973 2003.6523,-151.53973 C 2001.9045,-151.53973 1999.2835,-151.39415 1998.1183,-151.39415 C 1996.8081,-151.39415 1994.0408,-151.53973 1992.2937,-151.53973 C 1991.5654,-151.53973 1991.2741,-151.39415 1991.2741,-151.10285 C 1991.2741,-150.52039 1991.4198,-150.52039 1991.8567,-150.52039 C 1992.4393,-150.52039 1993.0219,-150.37474 1993.6045,-150.22916 C 1994.4777,-149.93786 1994.9147,-148.91852 1995.0603,-146.73413 C 1995.206,-144.84103 1995.206,-143.09358 1995.206,-133.77359 L 1995.206,-122.99739"
         style="fill:currentColor;fill-rule:nonzero;stroke:none;stroke-width:0.000001;stroke-linecap:round;stroke-linejoin:round;stroke-miterlimit:4;stroke-dasharray:none"
         id="path12284" />
      <path
         d="M 2020.6905,-139.30731 L 2020.8362,-139.30731 C 2021.7094,-138.14232 2026.6608,-130.4242 2031.6122,-123.87115 C 2036.2723,-117.47823 2041.9512,-109.43976 2044.8642,-105.74088 C 2045.3012,-105.07103 2045.8831,-104.40111 2046.32,-104.40111 C 2046.757,-104.40111 2046.9026,-104.95451 2046.9026,-106.29428 L 2047.3396,-144.98668 C 2047.4852,-148.48164 2047.7765,-149.79228 2049.0874,-150.22916 C 2049.5236,-150.52039 2049.9606,-150.52039 2050.3975,-150.52039 C 2050.9801,-150.52039 2051.1258,-150.66604 2051.1258,-150.95727 C 2051.1258,-151.53973 2050.6888,-151.53973 2050.1062,-151.53973 C 2047.9222,-151.53973 2046.32,-151.39415 2045.7374,-151.39415 C 2044.8642,-151.39415 2042.6795,-151.53973 2040.3498,-151.53973 C 2039.6215,-151.53973 2039.1846,-151.53973 2039.1846,-150.95727 C 2039.1846,-150.66604 2039.3302,-150.52039 2039.9128,-150.52039 C 2040.4954,-150.52039 2041.6599,-150.52039 2042.2425,-150.08351 C 2043.4077,-149.50098 2043.699,-148.33599 2043.8447,-144.5498 L 2044.2816,-116.98309 L 2043.9903,-116.98309 C 2043.2621,-117.9733 2037.1462,-126.78359 2034.0875,-131.00673 C 2027.6803,-139.88984 2020.8362,-149.93786 2020.2536,-150.66604 C 2019.5253,-151.83103 2019.0884,-152.55914 2018.6514,-152.55914 C 2018.2145,-152.55914 2018.0688,-151.83103 2018.0688,-150.52039 L 2017.6319,-114.15798 C 2017.6319,-108.81353 2017.3413,-107.03695 2016.1761,-106.54181 C 2015.5935,-106.29428 2014.7196,-106.23602 2014.137,-106.23602 C 2013.7,-106.23602 2013.5551,-106.1195 2013.5551,-105.74088 C 2013.5551,-105.18755 2013.8457,-105.12929 2014.4283,-105.12929 C 2016.7587,-105.12929 2018.9427,-105.31857 2019.3797,-105.31857 C 2020.1079,-105.31857 2022.0007,-105.12929 2024.9137,-105.12929 C 2025.4963,-105.12929 2025.9325,-105.26031 2025.9325,-105.74088 C 2025.9325,-106.1195 2025.6412,-106.23602 2025.205,-106.23602 C 2024.4767,-106.23602 2023.6028,-106.29428 2022.8746,-106.6729 C 2021.855,-107.09521 2021.2731,-108.69708 2021.2731,-113.48813 L 2020.6905,-139.30731"
         style="fill:currentColor;fill-rule:nonzero;stroke:none;stroke-width:0.000001;stroke-linecap:round;stroke-linejoin:round;stroke-miterlimit:4;stroke-dasharray:none"
         id="path12286" />
      <path
         d="M 2064.2322,-122.99739 C 2064.2322,-117.28889 2064.2322,-112.43959 2063.9409,-109.86207 C 2063.7952,-108.08542 2063.6496,-106.73116 2062.63,-106.48355 C 2062.3387,-106.3671 2061.7561,-106.23602 2061.0286,-106.23602 C 2060.446,-106.23602 2060.3003,-106.04668 2060.3003,-105.74088 C 2060.3003,-105.31857 2060.5916,-105.12929 2061.3199,-105.12929 C 2063.067,-105.12929 2065.8336,-105.31857 2066.8532,-105.31857 C 2069.4742,-105.31857 2075.0082,-104.95451 2081.8523,-104.95451 C 2083.4544,-104.95451 2083.8914,-104.95451 2084.1827,-106.54181 C 2084.474,-107.77963 2084.7653,-111.94452 2084.7653,-113.35704 C 2084.7653,-113.9832 2084.7653,-114.46377 2084.474,-114.46377 C 2084.1827,-114.46377 2084.037,-114.21624 2083.8914,-113.54639 C 2083.6001,-111.02706 2083.1631,-109.74555 2081.998,-109.00288 C 2080.6878,-108.2602 2076.319,-108.2602 2075.2995,-108.2602 C 2070.6394,-108.2602 2069.9111,-109.19215 2069.9111,-113.42987 C 2069.7655,-115.20645 2069.9111,-120.85668 2069.9111,-122.99739 L 2069.9111,-127.80299 C 2069.9111,-128.09422 2069.9111,-128.38545 2070.0568,-128.38545 C 2071.222,-128.38545 2078.0661,-128.38545 2078.94,-128.23987 C 2080.6878,-127.94857 2081.2704,-127.07488 2081.4154,-125.90989 C 2081.561,-125.03613 2081.561,-124.30802 2081.7067,-123.57985 C 2081.7067,-123.28862 2081.7067,-123.14304 2082.1436,-123.14304 C 2082.4349,-123.14304 2082.4349,-123.7255 2082.4349,-124.30802 C 2082.4349,-124.59926 2082.5806,-127.07488 2082.7262,-128.38545 C 2082.7262,-131.44361 2083.0175,-132.46295 2083.0175,-132.89983 C 2083.0175,-133.19106 2082.8718,-133.33671 2082.7262,-133.33671 C 2082.4349,-133.33671 2082.2893,-133.04548 2081.998,-132.46295 C 2081.561,-131.88049 2080.8334,-131.73484 2079.8139,-131.58919 C 2078.7944,-131.44361 2071.222,-131.44361 2070.2024,-131.44361 C 2069.9111,-131.44361 2069.9111,-131.73484 2069.9111,-132.17172 L 2069.9111,-147.75353 C 2069.9111,-148.19041 2069.9111,-148.33599 2070.2024,-148.33599 C 2071.0763,-148.33599 2078.2118,-148.19041 2078.94,-148.04476 C 2081.2704,-147.75353 2081.7067,-147.02542 2081.998,-145.86043 C 2082.2893,-145.13226 2082.2893,-144.11292 2082.2893,-143.67604 C 2082.2893,-143.09358 2082.4349,-142.80228 2082.7262,-142.80228 C 2083.0175,-142.80228 2083.1631,-143.09358 2083.1631,-143.53039 C 2083.1631,-144.25857 2083.3088,-146.87977 2083.3088,-147.4623 C 2083.4544,-150.37474 2083.7457,-151.10285 2083.7457,-151.53973 C 2083.7457,-151.83103 2083.6001,-152.12226 2083.4544,-152.12226 C 2083.1631,-152.12226 2083.0175,-151.83103 2082.7262,-151.83103 C 2082.4349,-151.68538 2081.7067,-151.53973 2080.8334,-151.39415 C 2079.9595,-151.39415 2068.6009,-151.39415 2067.1445,-151.39415 C 2065.8336,-151.39415 2063.067,-151.53973 2060.5916,-151.53973 C 2060.009,-151.53973 2059.7177,-151.39415 2059.7177,-150.95727 C 2059.7177,-150.52039 2059.8634,-150.52039 2060.446,-150.52039 C 2061.0286,-150.52039 2061.7561,-150.37474 2062.1931,-150.22916 C 2063.6496,-149.79228 2064.0865,-148.91852 2064.0865,-146.73413 C 2064.2322,-144.84103 2064.2322,-143.09358 2064.2322,-133.77359 L 2064.2322,-122.99739"
         style="fill:currentColor;fill-rule:nonzero;stroke:none;stroke-width:0.000001;stroke-linecap:round;stroke-linejoin:round;stroke-miterlimit:4;stroke-dasharray:none"
         id="path12288" />
      <path
         d="M 2101.2209,-139.30731 L 2101.3659,-139.30731 C 2102.2398,-138.14232 2107.1912,-130.4242 2112.1426,-123.87115 C 2116.657,-117.47823 2122.4816,-109.43976 2125.249,-105.74088 C 2125.8309,-105.07103 2126.2678,-104.40111 2126.8504,-104.40111 C 2127.1417,-104.40111 2127.433,-104.95451 2127.433,-106.29428 L 2127.87,-144.98668 C 2127.87,-148.48164 2128.3069,-149.79228 2129.6171,-150.22916 C 2130.054,-150.52039 2130.491,-150.52039 2130.9279,-150.52039 C 2131.5105,-150.52039 2131.6562,-150.66604 2131.6562,-150.95727 C 2131.6562,-151.53973 2131.2192,-151.53973 2130.6366,-151.53973 C 2128.4526,-151.53973 2126.8504,-151.39415 2126.2678,-151.39415 C 2125.3939,-151.39415 2123.2099,-151.53973 2120.8802,-151.53973 C 2120.1519,-151.53973 2119.715,-151.53973 2119.715,-150.95727 C 2119.715,-150.66604 2119.8606,-150.52039 2120.4432,-150.52039 C 2121.0258,-150.52039 2122.1903,-150.52039 2122.7729,-150.08351 C 2123.7925,-149.50098 2124.2294,-148.33599 2124.2294,-144.5498 L 2124.812,-116.98309 L 2124.5207,-116.98309 C 2123.7925,-117.9733 2117.6759,-126.78359 2114.6179,-131.00673 C 2108.0651,-139.88984 2101.3659,-149.93786 2100.784,-150.66604 C 2100.0557,-151.83103 2099.6188,-152.55914 2099.0362,-152.55914 C 2098.5992,-152.55914 2098.5992,-151.83103 2098.5992,-150.52039 L 2098.1623,-114.15798 C 2098.0166,-108.81353 2097.871,-107.03695 2096.7065,-106.54181 C 2096.1239,-106.29428 2095.25,-106.23602 2094.6674,-106.23602 C 2094.2304,-106.23602 2093.9391,-106.1195 2093.9391,-105.74088 C 2093.9391,-105.18755 2094.3761,-105.12929 2094.9587,-105.12929 C 2097.2891,-105.12929 2099.4731,-105.31857 2099.7644,-105.31857 C 2100.6383,-105.31857 2102.5311,-105.12929 2105.4434,-105.12929 C 2106.026,-105.12929 2106.4629,-105.26031 2106.4629,-105.74088 C 2106.4629,-106.1195 2106.1716,-106.23602 2105.589,-106.23602 C 2105.0071,-106.23602 2104.1332,-106.29428 2103.2593,-106.6729 C 2102.3854,-107.09521 2101.8028,-108.69708 2101.8028,-113.48813 L 2101.2209,-139.30731"
         style="fill:currentColor;fill-rule:nonzero;stroke:none;stroke-width:0.000001;stroke-linecap:round;stroke-linejoin:round;stroke-miterlimit:4;stroke-dasharray:none"
         id="path12290" />
      <path
         d="M 2150.1502,-122.99739 C 2150.1502,-117.28889 2150.1502,-112.43959 2150.0046,-109.86207 C 2149.8589,-108.08542 2149.5676,-106.73116 2148.6944,-106.48355 C 2148.2575,-106.3671 2147.6749,-106.23602 2147.0923,-106.23602 C 2146.5097,-106.23602 2146.364,-106.04668 2146.364,-105.74088 C 2146.364,-105.31857 2146.6553,-105.12929 2147.2379,-105.12929 C 2148.9857,-105.12929 2151.898,-105.31857 2152.9176,-105.31857 C 2154.0821,-105.31857 2156.9951,-105.12929 2159.9074,-105.12929 C 2160.3443,-105.12929 2160.7813,-105.31857 2160.7813,-105.74088 C 2160.7813,-106.04668 2160.49,-106.23602 2160.053,-106.23602 C 2159.3248,-106.23602 2158.4509,-106.3671 2157.7226,-106.48355 C 2156.4125,-106.73116 2156.1212,-108.08542 2155.9755,-109.80381 C 2155.8299,-112.43959 2155.8299,-117.28889 2155.8299,-122.99739 L 2155.8299,-148.19041 L 2161.5088,-147.89911 C 2165.4407,-147.89911 2166.6059,-146.15166 2166.7515,-144.5498 L 2166.7515,-143.82169 C 2166.7515,-142.94793 2166.8972,-142.6567 2167.3341,-142.6567 C 2167.4798,-142.6567 2167.6254,-142.94793 2167.6254,-143.53039 C 2167.6254,-145.13226 2167.7711,-149.3554 2167.7711,-150.66604 C 2167.7711,-151.68538 2167.7711,-151.97661 2167.4798,-151.97661 C 2167.0428,-151.97661 2166.0233,-151.39415 2163.111,-151.39415 L 2145.3445,-151.39415 C 2143.8887,-151.39415 2142.2865,-151.53973 2140.9764,-151.68538 C 2139.8112,-151.83103 2139.3742,-152.41349 2138.9373,-152.41349 C 2138.7916,-152.41349 2138.646,-152.12226 2138.5003,-151.2485 C 2138.3547,-150.81162 2137.4808,-145.13226 2137.4808,-144.25857 C 2137.4808,-143.53039 2137.6264,-143.23916 2137.9177,-143.23916 C 2138.209,-143.23916 2138.3547,-143.53039 2138.3547,-143.96727 C 2138.5003,-144.40415 2138.7916,-145.13226 2139.2286,-146.15166 C 2139.8112,-147.4623 2140.9764,-147.75353 2143.4517,-147.89911 L 2150.1502,-148.19041 L 2150.1502,-122.99739"
         style="fill:currentColor;fill-rule:nonzero;stroke:none;stroke-width:0.000001;stroke-linecap:round;stroke-linejoin:round;stroke-miterlimit:4;stroke-dasharray:none"
         id="path12292" />
      <path
         d="M 2219.1764,-133.77359 C 2219.1764,-143.09358 2219.1764,-144.84103 2219.322,-146.73413 C 2219.4677,-148.91852 2219.759,-149.93786 2221.0691,-150.22916 C 2221.5061,-150.37474 2222.2343,-150.52039 2222.6713,-150.52039 C 2223.2539,-150.52039 2223.5452,-150.52039 2223.5452,-150.95727 C 2223.5452,-151.39415 2223.2539,-151.53973 2222.6713,-151.53973 C 2220.9242,-151.53973 2217.5742,-151.39415 2216.5554,-151.39415 C 2215.2445,-151.39415 2212.4779,-151.53973 2210.4388,-151.53973 C 2209.7105,-151.53973 2209.4192,-151.39415 2209.4192,-150.95727 C 2209.4192,-150.52039 2209.7105,-150.52039 2210.1475,-150.52039 C 2210.7301,-150.52039 2211.3127,-150.37474 2211.604,-150.22916 C 2213.0605,-149.79228 2213.4967,-148.91852 2213.4967,-146.73413 C 2213.6424,-144.84103 2213.6424,-143.09358 2213.6424,-133.77359 L 2213.6424,-122.99739 C 2213.6424,-117.28889 2213.6424,-112.43959 2213.3511,-109.86207 C 2213.2054,-108.08542 2213.0605,-106.73116 2212.1866,-106.48355 C 2211.7496,-106.3671 2211.167,-106.23602 2210.4388,-106.23602 C 2210.0018,-106.23602 2209.7105,-106.04668 2209.7105,-105.74088 C 2209.7105,-105.31857 2210.1475,-105.12929 2210.7301,-105.12929 C 2212.4779,-105.12929 2215.2445,-105.31857 2216.2641,-105.31857 C 2219.9046,-105.31857 2222.9626,-104.95451 2229.3698,-104.95451 C 2231.7002,-104.95451 2231.9915,-105.26031 2232.1371,-106.60007 C 2232.5741,-108.39122 2232.8654,-112.99299 2232.8654,-113.6774 C 2232.8654,-114.40551 2232.8654,-114.71137 2232.5741,-114.71137 C 2232.1371,-114.71137 2232.1371,-114.34732 2231.9915,-113.79392 C 2231.9915,-112.62893 2231.4089,-110.91054 2230.8263,-110.10961 C 2229.8067,-108.44948 2228.0596,-108.39122 2225.5836,-108.39122 C 2222.0887,-108.39122 2220.9242,-108.81353 2220.1959,-109.74555 C 2219.1764,-110.83772 2219.1764,-115.08999 2219.1764,-122.99739 L 2219.1764,-133.77359"
         style="fill:currentColor;fill-rule:nonzero;stroke:none;stroke-width:0.000001;stroke-linecap:round;stroke-linejoin:round;stroke-miterlimit:4;stroke-dasharray:none"
         id="path12294" />
      <path
         d="M 1882.3469,-107.34275 C 1885.4055,-107.34275 1892.6866,-109.43976 1892.6866,-127.22046 C 1892.6866,-140.90918 1886.8613,-149.50098 1879.5802,-149.50098 C 1874.4832,-149.50098 1868.513,-145.56914 1868.513,-130.27862 C 1868.513,-117.47823 1873.7556,-107.34275 1882.3469,-107.34275 z M 1880.4541,-104.2701 C 1867.4934,-104.2701 1862.3964,-117.47823 1862.3964,-128.38545 C 1862.3964,-138.87043 1867.4934,-152.41349 1880.8911,-152.41349 C 1892.104,-152.41349 1898.9482,-143.53039 1898.9482,-129.40486 C 1898.9482,-115.39579 1891.8127,-104.2701 1880.4541,-104.2701"
         style="fill:currentColor;fill-rule:evenodd;stroke:none;stroke-width:0.000001;stroke-linecap:round;stroke-linejoin:round;stroke-miterlimit:4;stroke-dasharray:none"
         id="path12296" />
      <path
         d="M 1644.9795,-125.32737 C 1644.9795,-118.61409 1644.9795,-113.08038 1644.6882,-110.13874 C 1644.5426,-108.11455 1644.2513,-106.92043 1643.2317,-106.64377 C 1642.7948,-106.51268 1642.0672,-106.3671 1641.339,-106.3671 C 1640.7564,-106.3671 1640.4651,-106.16319 1640.4651,-105.8137 C 1640.4651,-105.31857 1640.902,-105.10016 1641.6303,-105.10016 C 1643.6687,-105.10016 1646.8723,-105.31857 1648.0375,-105.31857 C 1649.3483,-105.31857 1652.5519,-105.10016 1655.9012,-105.10016 C 1656.4838,-105.10016 1656.9207,-105.31857 1656.9207,-105.8137 C 1656.9207,-106.16319 1656.6294,-106.3671 1656.1925,-106.3671 C 1655.3186,-106.3671 1654.1541,-106.51268 1653.5715,-106.64377 C 1651.9693,-106.92043 1651.678,-108.18738 1651.5324,-110.06591 C 1651.2411,-113.08038 1651.2411,-118.61409 1651.2411,-125.32737 L 1651.2411,-137.70544 C 1651.2411,-148.33599 1651.2411,-150.22916 1651.3867,-152.55914 C 1651.5324,-155.03477 1651.8237,-156.19976 1653.2802,-156.49099 C 1653.8628,-156.63664 1654.2997,-156.78222 1654.736,-156.78222 C 1655.3186,-156.78222 1655.6099,-156.92787 1655.6099,-157.36475 C 1655.6099,-157.80163 1655.1729,-157.94721 1654.5903,-157.94721 C 1652.5519,-157.94721 1649.6396,-157.80163 1648.3288,-157.80163 C 1646.8723,-157.80163 1643.6687,-157.94721 1641.6303,-157.94721 C 1640.902,-157.94721 1640.4651,-157.80163 1640.4651,-157.36475 C 1640.4651,-156.92787 1640.7564,-156.78222 1641.1933,-156.78222 C 1641.9216,-156.78222 1642.5042,-156.63664 1643.0861,-156.49099 C 1644.2513,-156.05411 1644.6882,-154.88912 1644.8339,-152.55914 C 1644.9795,-150.22916 1644.9795,-148.33599 1644.9795,-137.70544 L 1644.9795,-125.32737"
         style="fill:currentColor;fill-rule:nonzero;stroke:none;stroke-width:0.000001;stroke-linecap:round;stroke-linejoin:round;stroke-miterlimit:4;stroke-dasharray:none"
         id="path12298" />
      <path
         d="M 1672.3568,-139.30731 L 1672.5024,-139.30731 C 1673.2307,-138.14232 1678.1821,-130.4242 1683.1328,-123.87115 C 1687.7929,-117.47823 1693.4725,-109.43976 1696.3848,-105.74088 C 1696.8218,-105.07103 1697.4044,-104.40111 1697.8413,-104.40111 C 1698.2783,-104.40111 1698.4232,-104.95451 1698.4232,-106.29428 L 1699.0058,-144.98668 C 1699.0058,-148.48164 1699.2971,-149.79228 1700.608,-150.22916 C 1701.1906,-150.52039 1701.4819,-150.52039 1701.9188,-150.52039 C 1702.5007,-150.52039 1702.792,-150.66604 1702.792,-150.95727 C 1702.792,-151.53973 1702.3558,-151.53973 1701.7732,-151.53973 C 1699.5884,-151.53973 1697.8413,-151.39415 1697.2587,-151.39415 C 1696.3848,-151.39415 1694.2008,-151.53973 1691.8704,-151.53973 C 1691.2878,-151.53973 1690.7052,-151.53973 1690.7052,-150.95727 C 1690.7052,-150.66604 1690.9965,-150.52039 1691.4334,-150.52039 C 1692.016,-150.52039 1693.1812,-150.52039 1693.7638,-150.08351 C 1694.9283,-149.50098 1695.3653,-148.33599 1695.3653,-144.5498 L 1695.8022,-116.98309 L 1695.5109,-116.98309 C 1694.7827,-117.9733 1688.8124,-126.78359 1685.7545,-131.00673 C 1679.201,-139.88984 1672.3568,-149.93786 1671.7742,-150.66604 C 1671.046,-151.83103 1670.609,-152.55914 1670.1727,-152.55914 C 1669.7358,-152.55914 1669.5901,-151.83103 1669.5901,-150.52039 L 1669.1532,-114.15798 C 1669.1532,-108.81353 1669.0075,-107.03695 1667.8424,-106.54181 C 1667.1141,-106.29428 1666.3865,-106.23602 1665.8039,-106.23602 C 1665.367,-106.23602 1665.0757,-106.1195 1665.0757,-105.74088 C 1665.0757,-105.18755 1665.5126,-105.12929 1666.0952,-105.12929 C 1668.425,-105.12929 1670.464,-105.31857 1670.9003,-105.31857 C 1671.7742,-105.31857 1673.522,-105.12929 1676.4343,-105.12929 C 1677.0169,-105.12929 1677.4538,-105.26031 1677.4538,-105.74088 C 1677.4538,-106.1195 1677.1625,-106.23602 1676.7256,-106.23602 C 1675.9974,-106.23602 1675.1235,-106.29428 1674.3959,-106.6729 C 1673.522,-107.09521 1672.9394,-108.69708 1672.7937,-113.48813 L 1672.3568,-139.30731"
         style="fill:currentColor;fill-rule:nonzero;stroke:none;stroke-width:0.000001;stroke-linecap:round;stroke-linejoin:round;stroke-miterlimit:4;stroke-dasharray:none"
         id="path12300" />
      <path
         d="M 1721.2868,-122.99739 C 1721.2868,-117.28889 1721.2868,-112.43959 1720.9955,-109.86207 C 1720.8498,-108.08542 1720.5585,-106.73116 1719.6846,-106.48355 C 1719.2477,-106.3671 1718.8107,-106.23602 1718.0832,-106.23602 C 1717.5006,-106.23602 1717.3549,-106.04668 1717.3549,-105.74088 C 1717.3549,-105.31857 1717.6462,-105.12929 1718.2288,-105.12929 C 1720.1216,-105.12929 1722.8882,-105.31857 1723.9078,-105.31857 C 1725.2186,-105.31857 1727.9853,-105.12929 1731.0432,-105.12929 C 1731.4802,-105.12929 1731.7715,-105.31857 1731.7715,-105.74088 C 1731.7715,-106.04668 1731.6258,-106.23602 1731.0432,-106.23602 C 1730.4606,-106.23602 1729.4418,-106.3671 1728.8592,-106.48355 C 1727.5483,-106.73116 1727.257,-108.08542 1727.1114,-109.80381 C 1726.8201,-112.43959 1726.8201,-117.28889 1726.8201,-122.99739 L 1726.8201,-148.19041 L 1732.4997,-147.89911 C 1736.4316,-147.89911 1737.7424,-146.15166 1737.7424,-144.5498 L 1737.8881,-143.82169 C 1737.8881,-142.94793 1738.0337,-142.6567 1738.3243,-142.6567 C 1738.6156,-142.6567 1738.6156,-142.94793 1738.7613,-143.53039 C 1738.7613,-145.13226 1738.9069,-149.3554 1738.9069,-150.66604 C 1738.9069,-151.68538 1738.9069,-151.97661 1738.47,-151.97661 C 1738.1794,-151.97661 1737.0142,-151.39415 1734.2475,-151.39415 L 1716.481,-151.39415 C 1715.0245,-151.39415 1713.2774,-151.53973 1711.9666,-151.68538 C 1710.8014,-151.83103 1710.3644,-152.41349 1710.0738,-152.41349 C 1709.7825,-152.41349 1709.6369,-152.12226 1709.4912,-151.2485 C 1709.3456,-150.81162 1708.6173,-145.13226 1708.6173,-144.25857 C 1708.6173,-143.53039 1708.6173,-143.23916 1708.9086,-143.23916 C 1709.1999,-143.23916 1709.3456,-143.53039 1709.4912,-143.96727 C 1709.4912,-144.40415 1709.7825,-145.13226 1710.2195,-146.15166 C 1710.947,-147.4623 1711.9666,-147.75353 1714.5876,-147.89911 L 1721.2868,-148.19041 L 1721.2868,-122.99739"
         style="fill:currentColor;fill-rule:nonzero;stroke:none;stroke-width:0.000001;stroke-linecap:round;stroke-linejoin:round;stroke-miterlimit:4;stroke-dasharray:none"
         id="path12302" />
      <path
         d="M 1750.1206,-122.99739 C 1750.1206,-117.28889 1750.1206,-112.43959 1749.8293,-109.86207 C 1749.6836,-108.08542 1749.538,-106.73116 1748.5184,-106.48355 C 1748.2271,-106.3671 1747.6445,-106.23602 1746.9163,-106.23602 C 1746.4793,-106.23602 1746.1887,-106.04668 1746.1887,-105.74088 C 1746.1887,-105.31857 1746.625,-105.12929 1747.2076,-105.12929 C 1748.9554,-105.12929 1751.722,-105.31857 1752.7416,-105.31857 C 1755.5082,-105.31857 1760.8966,-104.95451 1767.7407,-104.95451 C 1769.4885,-104.95451 1769.7798,-104.95451 1770.0711,-106.54181 C 1770.3617,-107.77963 1770.653,-111.94452 1770.653,-113.35704 C 1770.653,-113.9832 1770.653,-114.46377 1770.3617,-114.46377 C 1770.0711,-114.46377 1769.9254,-114.21624 1769.9254,-113.54639 C 1769.4885,-111.02706 1769.0515,-109.74555 1767.8864,-109.00288 C 1766.7212,-108.2602 1762.3524,-108.2602 1761.1879,-108.2602 C 1756.5278,-108.2602 1755.7995,-109.19215 1755.7995,-113.42987 C 1755.6539,-115.20645 1755.7995,-120.85668 1755.7995,-122.99739 L 1755.7995,-127.80299 C 1755.7995,-128.09422 1755.7995,-128.38545 1756.0908,-128.38545 C 1757.1104,-128.38545 1763.9545,-128.38545 1764.8284,-128.23987 C 1766.5755,-127.94857 1767.1581,-127.07488 1767.4494,-125.90989 C 1767.4494,-125.03613 1767.4494,-124.30802 1767.5951,-123.57985 C 1767.5951,-123.28862 1767.5951,-123.14304 1768.032,-123.14304 C 1768.3233,-123.14304 1768.3233,-123.7255 1768.3233,-124.30802 C 1768.3233,-124.59926 1768.469,-127.07488 1768.6146,-128.38545 C 1768.6146,-131.44361 1768.9059,-132.46295 1768.9059,-132.89983 C 1768.9059,-133.19106 1768.7603,-133.33671 1768.6146,-133.33671 C 1768.3233,-133.33671 1768.1777,-133.04548 1767.8864,-132.46295 C 1767.4494,-131.88049 1766.8668,-131.73484 1765.7023,-131.58919 C 1764.6828,-131.44361 1757.1104,-131.44361 1756.0908,-131.44361 C 1755.7995,-131.44361 1755.7995,-131.73484 1755.7995,-132.17172 L 1755.7995,-147.75353 C 1755.7995,-148.19041 1755.7995,-148.33599 1756.0908,-148.33599 C 1756.9647,-148.33599 1764.1002,-148.19041 1764.9741,-148.04476 C 1767.1581,-147.75353 1767.5951,-147.02542 1767.8864,-145.86043 C 1768.1777,-145.13226 1768.1777,-144.11292 1768.1777,-143.67604 C 1768.1777,-143.09358 1768.3233,-142.80228 1768.6146,-142.80228 C 1768.9059,-142.80228 1769.0515,-143.09358 1769.0515,-143.53039 C 1769.1972,-144.25857 1769.1972,-146.87977 1769.1972,-147.4623 C 1769.4885,-150.37474 1769.6341,-151.10285 1769.6341,-151.53973 C 1769.6341,-151.83103 1769.6341,-152.12226 1769.3428,-152.12226 C 1769.1972,-152.12226 1768.9059,-151.83103 1768.6146,-151.83103 C 1768.3233,-151.68538 1767.5951,-151.53973 1766.7212,-151.39415 C 1765.8479,-151.39415 1754.4887,-151.39415 1753.0329,-151.39415 C 1751.722,-151.39415 1748.9554,-151.53973 1746.625,-151.53973 C 1745.8974,-151.53973 1745.6061,-151.39415 1745.6061,-150.95727 C 1745.6061,-150.52039 1745.8974,-150.52039 1746.3337,-150.52039 C 1746.9163,-150.52039 1747.7902,-150.37474 1748.0815,-150.22916 C 1749.538,-149.79228 1749.9749,-148.91852 1749.9749,-146.73413 C 1750.1206,-144.84103 1750.1206,-143.09358 1750.1206,-133.77359 L 1750.1206,-122.99739"
         style="fill:currentColor;fill-rule:nonzero;stroke:none;stroke-width:0.000001;stroke-linecap:round;stroke-linejoin:round;stroke-miterlimit:4;stroke-dasharray:none"
         id="path12304" />
      <path
         d="M 1784.342,-122.99739 C 1784.342,-117.28889 1784.342,-112.43959 1784.1963,-109.86207 C 1784.0507,-108.08542 1783.7594,-106.73116 1782.8855,-106.48355 C 1782.4486,-106.3671 1781.8666,-106.23602 1781.284,-106.23602 C 1780.7014,-106.23602 1780.5558,-106.04668 1780.5558,-105.74088 C 1780.5558,-105.31857 1780.8471,-105.12929 1781.4297,-105.12929 C 1783.1768,-105.12929 1786.0898,-105.31857 1786.963,-105.31857 C 1787.5456,-105.31857 1790.8948,-105.12929 1793.5165,-105.12929 C 1794.0991,-105.12929 1794.3897,-105.31857 1794.3897,-105.74088 C 1794.3897,-106.04668 1794.2441,-106.23602 1793.8078,-106.23602 C 1793.2252,-106.23602 1792.3513,-106.3671 1791.6231,-106.48355 C 1790.3122,-106.73116 1790.0216,-108.08542 1789.876,-109.86207 C 1789.7303,-112.43959 1789.7303,-117.28889 1789.7303,-122.99739 L 1789.7303,-123.87115 C 1789.7303,-124.30802 1789.876,-124.30802 1790.0216,-124.30802 L 1793.9535,-124.30802 C 1794.2441,-124.30802 1794.5354,-124.16238 1794.681,-123.87115 C 1795.2636,-122.85174 1797.4484,-118.70148 1799.1955,-115.32297 C 1801.6715,-110.60475 1803.4186,-107.7068 1805.3121,-106.29428 C 1806.4766,-105.43508 1807.6418,-105.12929 1810.1171,-105.12929 L 1814.3403,-105.12929 C 1814.9229,-105.12929 1815.2142,-105.26031 1815.2142,-105.74088 C 1815.2142,-106.04668 1815.0685,-106.23602 1814.6316,-106.23602 C 1814.3403,-106.23602 1813.904,-106.29428 1813.4671,-106.4253 C 1812.7388,-106.60007 1810.8454,-107.03695 1808.37,-110.60475 C 1805.749,-114.40551 1802.6904,-119.88104 1798.7585,-126.78359 C 1803.273,-131.73484 1804.5838,-135.95792 1804.5838,-140.4723 C 1804.5838,-144.69538 1802.836,-147.75353 1801.5259,-148.91852 C 1799.1955,-151.2485 1796.1375,-151.53973 1793.2252,-151.53973 C 1791.9144,-151.53973 1788.5651,-151.39415 1786.963,-151.39415 C 1786.0898,-151.39415 1783.1768,-151.53973 1780.8471,-151.53973 C 1780.1188,-151.53973 1779.8275,-151.39415 1779.8275,-150.95727 C 1779.8275,-150.52039 1780.1188,-150.52039 1780.5558,-150.52039 C 1781.284,-150.52039 1782.0123,-150.37474 1782.3029,-150.22916 C 1783.905,-149.79228 1784.1963,-148.91852 1784.342,-146.73413 C 1784.342,-144.84103 1784.342,-143.09358 1784.342,-133.77359 L 1784.342,-122.99739 z M 1789.7303,-147.60788 C 1789.7303,-148.04476 1789.7303,-148.33599 1790.0216,-148.48164 C 1790.4579,-148.62729 1791.3318,-148.62729 1792.497,-148.62729 C 1795.118,-148.62729 1799.3411,-146.15166 1799.3411,-137.41421 C 1799.3411,-132.46295 1798.031,-129.55044 1796.7201,-128.23987 C 1795.8462,-127.36611 1795.2636,-127.22046 1793.5165,-127.22046 C 1792.3513,-127.22046 1791.0405,-127.36611 1790.0216,-127.80299 C 1789.7303,-127.94857 1789.7303,-128.23987 1789.7303,-128.96798 L 1789.7303,-147.60788"
         style="fill:currentColor;fill-rule:evenodd;stroke:none;stroke-width:0.000001;stroke-linecap:round;stroke-linejoin:round;stroke-miterlimit:4;stroke-dasharray:none"
         id="path12306" />
      <path
         d="M 1842.1545,-104.47394 C 1845.5045,-104.47394 1849.2907,-104.95451 1851.3291,-106.04668 C 1852.203,-106.52725 1852.4943,-106.86217 1852.7856,-108.02716 C 1853.2225,-110.34265 1853.8051,-116.28411 1853.8051,-117.09961 C 1853.8051,-117.65294 1853.8051,-118.13352 1853.3682,-118.13352 C 1852.9312,-118.13352 1852.9312,-117.85685 1852.7856,-116.76469 C 1852.4943,-115.54144 1851.9117,-113.56095 1851.0378,-112.26488 C 1848.9994,-109.1194 1846.232,-108.43491 1841.5726,-108.43491 C 1834.7278,-108.43491 1825.5539,-116.48795 1825.5539,-132.75418 C 1825.5539,-139.30731 1826.4271,-145.86043 1830.2133,-150.37474 C 1832.3981,-153.1416 1835.456,-154.59789 1839.8248,-154.59789 C 1844.4849,-154.59789 1848.5624,-152.85037 1850.1639,-150.37474 C 1851.4747,-148.62729 1852.203,-146.29725 1852.203,-144.11292 C 1852.203,-143.23916 1852.3486,-142.6567 1852.7856,-142.6567 C 1853.2225,-142.6567 1853.2225,-143.23916 1853.3682,-144.25857 C 1853.5138,-145.56914 1853.3682,-149.3554 1853.5138,-151.53973 C 1853.6595,-154.01536 1853.8051,-154.74347 1853.8051,-155.326 C 1853.8051,-155.76288 1853.5138,-156.05411 1852.9312,-156.19976 C 1851.4747,-156.34534 1849.8733,-156.92787 1847.8342,-157.36475 C 1845.5045,-157.80163 1843.611,-157.94721 1840.4074,-157.94721 C 1832.835,-157.94721 1828.0293,-155.326 1824.2431,-150.81162 C 1819.2917,-144.84103 1818.2721,-136.6861 1818.2721,-132.02607 C 1818.2721,-125.47301 1819.583,-117.78403 1824.68,-111.91539 C 1829.3401,-106.52725 1835.1647,-104.47394 1842.1545,-104.47394"
         style="fill:currentColor;fill-rule:nonzero;stroke:none;stroke-width:0.000001;stroke-linecap:round;stroke-linejoin:round;stroke-miterlimit:4;stroke-dasharray:none"
         id="path12308" />
      <path
         d="M 1650.5135,-52.340428 C 1650.3679,-52.340428 1650.2222,-52.427818 1650.2222,-52.617098 L 1650.2222,-53.461728 C 1650.2222,-59.563408 1650.2222,-60.684698 1650.3679,-61.966208 C 1650.5135,-63.378738 1650.8041,-64.048648 1651.8237,-64.252498 C 1652.4063,-64.339888 1652.6976,-64.369008 1652.9889,-64.369008 C 1653.5715,-64.369008 1653.7171,-64.456398 1653.7171,-64.733068 C 1653.7171,-65.009738 1653.4258,-65.097118 1652.8432,-65.097118 C 1651.3867,-65.097118 1648.7657,-64.980608 1647.8918,-64.980608 C 1646.7266,-64.980608 1644.2513,-65.097118 1642.0672,-65.097118 C 1641.4846,-65.097118 1641.1933,-65.009738 1641.1933,-64.733068 C 1641.1933,-64.456398 1641.4846,-64.369008 1641.9216,-64.369008 C 1642.5042,-64.369008 1643.0861,-64.339888 1643.523,-64.252498 C 1644.8339,-63.975828 1645.1252,-63.335038 1645.2708,-61.966208 C 1645.2708,-60.684698 1645.2708,-59.563408 1645.2708,-53.461728 L 1645.2708,-46.398958 C 1645.2708,-42.714648 1645.2708,-39.540038 1645.1252,-37.850778 C 1644.9795,-36.700358 1644.6882,-35.812028 1643.96,-35.651888 C 1643.523,-35.579058 1643.0861,-35.491668 1642.5042,-35.491668 C 1641.9216,-35.491668 1641.7759,-35.375218 1641.7759,-35.171308 C 1641.7759,-34.894648 1642.0672,-34.763558 1642.6491,-34.763558 C 1644.2513,-34.763558 1646.7266,-34.894648 1647.7462,-34.894648 C 1648.7657,-34.894648 1651.3867,-34.763558 1654.0084,-34.763558 C 1654.4454,-34.763558 1654.736,-34.894648 1654.736,-35.171308 C 1654.736,-35.375218 1654.5903,-35.491668 1654.1541,-35.491668 C 1653.5715,-35.491668 1652.6976,-35.579058 1652.115,-35.651888 C 1650.8041,-35.812028 1650.6585,-36.700358 1650.5135,-37.821648 C 1650.2222,-39.540038 1650.2222,-42.714648 1650.2222,-46.398958 L 1650.2222,-49.937628 C 1650.2222,-50.126968 1650.3679,-50.170598 1650.5135,-50.170598 L 1665.8039,-50.170598 C 1665.9496,-50.170598 1666.0952,-50.097838 1666.0952,-49.937628 L 1666.0952,-46.398958 C 1666.0952,-42.714648 1666.0952,-39.540038 1665.9496,-37.850778 C 1665.8039,-36.700358 1665.5126,-35.812028 1664.7844,-35.651888 C 1664.3475,-35.579058 1663.9105,-35.491668 1663.3279,-35.491668 C 1662.7453,-35.491668 1662.5997,-35.375218 1662.5997,-35.171308 C 1662.5997,-34.894648 1662.891,-34.763558 1663.4736,-34.763558 C 1665.0757,-34.763558 1667.5511,-34.894648 1668.5706,-34.894648 C 1669.5901,-34.894648 1672.2112,-34.763558 1674.8322,-34.763558 C 1675.2691,-34.763558 1675.5604,-34.894648 1675.5604,-35.171308 C 1675.5604,-35.375218 1675.4148,-35.491668 1674.9778,-35.491668 C 1674.3959,-35.491668 1673.522,-35.579058 1672.9394,-35.651888 C 1671.6286,-35.812028 1671.4829,-36.700358 1671.3373,-37.821648 C 1671.046,-39.540038 1671.046,-42.714648 1671.046,-46.398958 L 1671.046,-53.461728 C 1671.046,-59.563408 1671.046,-60.684698 1671.1916,-61.966208 C 1671.3373,-63.378738 1671.6286,-64.048648 1672.6481,-64.252498 C 1673.2307,-64.339888 1673.522,-64.369008 1673.8133,-64.369008 C 1674.3959,-64.369008 1674.5409,-64.456398 1674.5409,-64.733068 C 1674.5409,-65.009738 1674.2502,-65.097118 1673.6676,-65.097118 C 1672.2112,-65.097118 1669.5901,-64.980608 1668.7163,-64.980608 C 1667.5511,-64.980608 1665.0757,-65.097118 1662.891,-65.097118 C 1662.309,-65.097118 1662.0177,-65.009738 1662.0177,-64.733068 C 1662.0177,-64.456398 1662.309,-64.369008 1662.7453,-64.369008 C 1663.3279,-64.369008 1663.9105,-64.339888 1664.3475,-64.252498 C 1665.6583,-63.975828 1665.9496,-63.335038 1666.0952,-61.966208 C 1666.0952,-60.684698 1666.0952,-59.563408 1666.0952,-53.461728 L 1666.0952,-52.617098 C 1666.0952,-52.427818 1665.9496,-52.340428 1665.8039,-52.340428 L 1650.5135,-52.340428"
         style="fill:currentColor;fill-rule:nonzero;stroke:none;stroke-width:0.000001;stroke-linecap:round;stroke-linejoin:round;stroke-miterlimit:4;stroke-dasharray:none"
         id="path12310" />
      <path
         d="M 1716.918,-34.210168 C 1727.1114,-34.210168 1733.5193,-41.476838 1733.5193,-50.651168 C 1733.5193,-59.840068 1727.257,-65.665088 1717.3549,-65.665088 C 1705.2681,-65.665088 1700.7536,-56.796548 1700.7536,-49.937628 C 1700.7536,-42.831168 1705.4137,-34.210168 1716.918,-34.210168 z M 1718.6651,-36.205218 C 1710.947,-36.205218 1706.2876,-42.831168 1706.2876,-51.175438 C 1706.2876,-61.165278 1711.5296,-63.728228 1716.1897,-63.728228 C 1722.7426,-63.728228 1727.8396,-58.150808 1727.8396,-49.165818 C 1727.8396,-37.574118 1721.4324,-36.205218 1718.6651,-36.205218"
         style="fill:currentColor;fill-rule:evenodd;stroke:none;stroke-width:0.000001;stroke-linecap:round;stroke-linejoin:round;stroke-miterlimit:4;stroke-dasharray:none"
         id="path12312" />
      <path
         d="M 1768.9059,-46.398958 C 1768.9059,-42.714648 1768.9059,-39.540038 1768.7603,-37.850778 C 1768.6146,-36.700358 1768.469,-35.812028 1767.5951,-35.651888 C 1767.3038,-35.579058 1766.7212,-35.491668 1766.1392,-35.491668 C 1765.7023,-35.491668 1765.5566,-35.375218 1765.5566,-35.171308 C 1765.5566,-34.894648 1765.8479,-34.763558 1766.2842,-34.763558 C 1767.8864,-34.763558 1770.5074,-34.894648 1771.3813,-34.894648 C 1772.5464,-34.894648 1775.0218,-34.763558 1777.6435,-34.763558 C 1778.0804,-34.763558 1778.3711,-34.894648 1778.3711,-35.171308 C 1778.3711,-35.375218 1778.2254,-35.491668 1777.7891,-35.491668 C 1777.2065,-35.491668 1776.3326,-35.579058 1775.7501,-35.651888 C 1774.5849,-35.812028 1774.2936,-36.700358 1774.1486,-37.821648 C 1774.0029,-39.540038 1774.0029,-42.714648 1774.0029,-46.398958 L 1774.0029,-62.854538 L 1779.0993,-62.738018 C 1782.5942,-62.650628 1783.7594,-61.529328 1783.7594,-60.480858 L 1783.7594,-60.043978 C 1783.905,-59.446888 1783.905,-59.243048 1784.1963,-59.243048 C 1784.4876,-59.243048 1784.6333,-59.476018 1784.6333,-59.883768 C 1784.6333,-60.917668 1784.7789,-63.699158 1784.7789,-64.529158 C 1784.7789,-65.140818 1784.6333,-65.373788 1784.4876,-65.373788 C 1784.0507,-65.373788 1783.1768,-64.980608 1780.5558,-64.980608 L 1764.6828,-64.980608 C 1763.3719,-64.980608 1761.7704,-65.053428 1760.6053,-65.184508 C 1759.5857,-65.257338 1759.2944,-65.665088 1759.0031,-65.665088 C 1758.7118,-65.665088 1758.5662,-65.417478 1758.4205,-64.893278 C 1758.4205,-64.572858 1757.5473,-60.917668 1757.5473,-60.291518 C 1757.5473,-59.840068 1757.693,-59.636228 1757.9843,-59.636228 C 1758.2749,-59.636228 1758.2749,-59.796378 1758.4205,-60.116738 C 1758.4205,-60.437168 1758.7118,-60.917668 1759.1488,-61.529328 C 1759.7314,-62.403088 1760.6053,-62.606928 1762.935,-62.694318 L 1768.9059,-62.854538 L 1768.9059,-46.398958"
         style="fill:currentColor;fill-rule:nonzero;stroke:none;stroke-width:0.000001;stroke-linecap:round;stroke-linejoin:round;stroke-miterlimit:4;stroke-dasharray:none"
         id="path12314" />
      <path
         d="M 1814.9229,-46.398958 C 1814.9229,-42.714648 1814.9229,-39.540038 1814.7772,-37.850778 C 1814.6316,-36.700358 1814.3403,-35.812028 1813.6127,-35.651888 C 1813.3214,-35.579058 1812.7388,-35.491668 1812.1562,-35.491668 C 1811.7193,-35.491668 1811.5736,-35.375218 1811.5736,-35.171308 C 1811.5736,-34.894648 1811.8649,-34.763558 1812.3019,-34.763558 C 1813.904,-34.763558 1816.525,-34.894648 1817.3989,-34.894648 C 1819.7286,-34.894648 1822.4953,-34.647048 1828.4662,-34.647048 C 1830.0677,-34.647048 1830.359,-34.647048 1830.6503,-35.695578 C 1830.7959,-36.496518 1831.2329,-39.219678 1831.2329,-40.137138 C 1831.2329,-40.544888 1831.2329,-40.865248 1830.7959,-40.865248 C 1830.6503,-40.865248 1830.5046,-40.705028 1830.359,-40.268148 C 1830.0677,-38.622588 1829.6314,-37.777958 1828.6119,-37.297448 C 1827.5923,-36.816878 1825.8452,-36.816878 1824.8257,-36.816878 C 1820.7482,-36.816878 1820.1656,-37.413898 1820.0199,-40.180758 C 1820.0199,-41.345818 1820.0199,-45.044628 1820.0199,-46.398958 L 1820.0199,-49.573568 C 1820.0199,-49.821108 1820.0199,-49.966758 1820.3112,-49.966758 C 1821.1851,-49.966758 1825.2626,-49.937628 1825.9909,-49.850238 C 1827.4467,-49.690088 1828.0293,-49.092998 1828.1749,-48.292058 C 1828.3206,-47.767788 1828.3206,-47.243588 1828.3206,-46.850408 C 1828.3206,-46.646498 1828.4662,-46.486348 1828.7575,-46.486348 C 1829.0488,-46.486348 1829.0488,-46.923228 1829.0488,-47.243588 C 1829.0488,-47.520258 1829.1945,-49.122128 1829.1945,-49.937628 C 1829.3401,-51.976378 1829.6314,-52.617098 1829.6314,-52.864698 C 1829.6314,-53.097668 1829.4858,-53.185058 1829.3401,-53.185058 C 1829.0488,-53.185058 1828.9032,-52.981148 1828.6119,-52.660788 C 1828.3206,-52.267608 1827.738,-52.136518 1826.7184,-52.063768 C 1825.8452,-51.976378 1821.1851,-51.976378 1820.3112,-51.976378 C 1820.0199,-51.976378 1820.0199,-52.136518 1820.0199,-52.427818 L 1820.0199,-62.563238 C 1820.0199,-62.854538 1820.1656,-62.970988 1820.3112,-62.970988 C 1821.0395,-62.970988 1825.2626,-62.883668 1825.9909,-62.810838 C 1828.0293,-62.563238 1828.4662,-62.082728 1828.6119,-61.369118 C 1828.9032,-60.888608 1828.9032,-60.204128 1828.9032,-59.927458 C 1828.9032,-59.563408 1829.0488,-59.359498 1829.3401,-59.359498 C 1829.6314,-59.359498 1829.6314,-59.607098 1829.6314,-59.796378 C 1829.7771,-60.291518 1829.7771,-62.053598 1829.9227,-62.446788 C 1830.0677,-64.296188 1830.2133,-64.776758 1830.2133,-65.053428 C 1830.2133,-65.257338 1830.2133,-65.417478 1829.9227,-65.417478 C 1829.7771,-65.417478 1829.4858,-65.300968 1829.3401,-65.257338 C 1829.0488,-65.184508 1828.3206,-65.097118 1827.5923,-65.009738 C 1826.8641,-64.980608 1818.8547,-64.980608 1817.5446,-64.980608 C 1816.525,-64.980608 1813.904,-65.097118 1811.8649,-65.097118 C 1811.1367,-65.097118 1810.8454,-65.009738 1810.8454,-64.733068 C 1810.8454,-64.456398 1811.1367,-64.369008 1811.5736,-64.369008 C 1812.1562,-64.369008 1812.8845,-64.339888 1813.1758,-64.252498 C 1814.4859,-63.975828 1814.7772,-63.335038 1814.9229,-61.966208 C 1814.9229,-60.684698 1814.9229,-59.563408 1814.9229,-53.461728 L 1814.9229,-46.398958"
         style="fill:currentColor;fill-rule:nonzero;stroke:none;stroke-width:0.000001;stroke-linecap:round;stroke-linejoin:round;stroke-miterlimit:4;stroke-dasharray:none"
         id="path12316" />
      <path
         d="M 1868.2217,-53.461728 C 1868.2217,-59.563408 1868.2217,-60.684698 1868.2217,-61.966208 C 1868.3673,-63.378738 1868.6586,-64.048648 1869.6781,-64.252498 C 1870.2601,-64.339888 1870.8427,-64.369008 1871.2796,-64.369008 C 1871.8622,-64.369008 1872.0079,-64.456398 1872.0079,-64.733068 C 1872.0079,-65.009738 1871.7166,-65.097118 1871.134,-65.097118 C 1869.6781,-65.097118 1866.7652,-64.980608 1865.7463,-64.980608 C 1864.7268,-64.980608 1862.1051,-65.097118 1860.2123,-65.097118 C 1859.6297,-65.097118 1859.3384,-65.009738 1859.3384,-64.733068 C 1859.3384,-64.456398 1859.6297,-64.369008 1860.0667,-64.369008 C 1860.5036,-64.369008 1861.0862,-64.339888 1861.3775,-64.252498 C 1862.6877,-63.975828 1862.979,-63.335038 1863.1246,-61.966208 C 1863.1246,-60.684698 1863.1246,-59.563408 1863.1246,-53.461728 L 1863.1246,-46.398958 C 1863.1246,-42.714648 1863.1246,-39.540038 1862.979,-37.850778 C 1862.8333,-36.700358 1862.6877,-35.812028 1861.8144,-35.651888 C 1861.3775,-35.579058 1860.9406,-35.491668 1860.358,-35.491668 C 1859.921,-35.491668 1859.7754,-35.375218 1859.7754,-35.171308 C 1859.7754,-34.894648 1860.0667,-34.763558 1860.5036,-34.763558 C 1862.1051,-34.763558 1864.7268,-34.894648 1865.6006,-34.894648 C 1868.8042,-34.894648 1871.4253,-34.647048 1877.2505,-34.647048 C 1879.289,-34.647048 1879.5802,-34.850948 1879.7259,-35.724708 C 1880.1628,-36.889698 1880.3085,-39.904098 1880.3085,-40.340978 C 1880.3085,-40.821548 1880.3085,-41.025388 1880.0172,-41.025388 C 1879.7259,-41.025388 1879.7259,-40.777858 1879.5802,-40.428368 C 1879.5802,-39.656558 1878.9977,-38.535268 1878.5607,-38.025558 C 1877.5418,-36.933398 1875.9397,-36.889698 1873.9013,-36.889698 C 1870.697,-36.889698 1869.6781,-37.180928 1868.9499,-37.777958 C 1868.2217,-38.506138 1868.2217,-41.272998 1868.2217,-46.398958 L 1868.2217,-53.461728"
         style="fill:currentColor;fill-rule:nonzero;stroke:none;stroke-width:0.000001;stroke-linecap:round;stroke-linejoin:round;stroke-miterlimit:4;stroke-dasharray:none"
         id="path12318" />
      <path
         d="M 1913.9473,-34.210168 C 1916.1321,-34.210168 1918.3161,-34.574288 1920.3552,-35.855728 C 1923.2675,-37.734328 1924.1414,-40.501188 1924.1414,-42.831168 C 1924.1414,-46.646498 1922.3936,-49.340528 1917.5886,-53.053978 L 1916.4234,-53.898608 C 1913.0741,-56.432488 1912.2002,-57.830448 1912.2002,-59.679928 C 1912.2002,-62.082728 1913.9473,-63.815618 1916.8603,-63.815618 C 1919.4813,-63.815618 1920.6465,-62.606928 1921.2291,-61.849688 C 1922.1023,-60.801218 1922.3936,-59.563408 1922.3936,-59.199348 C 1922.3936,-58.718778 1922.3936,-58.471238 1922.6849,-58.471238 C 1922.9762,-58.471238 1923.1219,-58.806168 1923.1219,-59.679928 C 1923.1219,-62.810838 1923.2675,-63.975828 1923.2675,-64.500098 C 1923.2675,-64.776758 1923.1219,-64.893278 1922.8306,-64.980608 C 1921.6661,-65.257338 1920.0639,-65.665088 1917.4429,-65.665088 C 1911.9089,-65.665088 1908.1227,-62.490478 1908.1227,-58.078058 C 1908.1227,-54.830618 1909.7249,-52.020068 1914.093,-48.568728 L 1915.9864,-47.127068 C 1919.3357,-44.564058 1919.9183,-42.670958 1919.9183,-40.705028 C 1919.9183,-38.578888 1918.1705,-36.132458 1914.5299,-36.132458 C 1912.0546,-36.132458 1909.5792,-37.210058 1908.7053,-40.180758 C 1908.5597,-40.865248 1908.414,-41.709878 1908.414,-42.234078 C 1908.414,-42.554508 1908.414,-42.918558 1907.9771,-42.918558 C 1907.6858,-42.918558 1907.5401,-42.467118 1907.5401,-41.870018 C 1907.5401,-41.229298 1907.3945,-38.826498 1907.3945,-36.612968 C 1907.3945,-35.724708 1907.3945,-35.535368 1908.1227,-35.244138 C 1909.8698,-34.486898 1911.6176,-34.210168 1913.9473,-34.210168"
         style="fill:currentColor;fill-rule:nonzero;stroke:none;stroke-width:0.000001;stroke-linecap:round;stroke-linejoin:round;stroke-miterlimit:4;stroke-dasharray:none"
         id="path12320" />
      <path
         d="M 2015.7391,-41.870018 C 2015.7391,-43.879638 2015.7391,-45.481508 2015.7391,-46.675628 C 2015.7391,-48.088218 2016.1761,-48.772638 2017.3413,-48.976478 C 2017.7775,-49.049298 2018.0688,-49.092998 2018.3601,-49.092998 C 2018.6514,-49.092998 2018.9427,-49.165818 2018.9427,-49.413358 C 2018.9427,-49.733788 2018.6514,-49.821108 2018.0688,-49.821108 C 2016.7587,-49.821108 2014.5739,-49.690088 2013.4094,-49.690088 C 2012.2442,-49.690088 2009.6225,-49.821108 2007.5841,-49.821108 C 2007.0015,-49.821108 2006.7102,-49.733788 2006.7102,-49.413358 C 2006.7102,-49.165818 2007.0015,-49.092998 2007.2928,-49.092998 C 2007.8754,-49.092998 2008.6037,-49.049298 2008.895,-48.976478 C 2010.2051,-48.685248 2010.6421,-48.044528 2010.6421,-46.675628 C 2010.6421,-45.481508 2010.6421,-43.952468 2010.6421,-41.957408 L 2010.6421,-38.171138 C 2010.6421,-37.501288 2010.4964,-36.977018 2009.9138,-36.700358 C 2008.895,-36.248908 2007.5841,-36.248908 2006.4189,-36.248908 C 1997.9726,-36.248908 1992.585,-42.714648 1992.585,-51.335588 C 1992.585,-56.272278 1994.0408,-59.286738 1996.2255,-61.165278 C 1998.9922,-63.495258 2001.9045,-63.655468 2004.0892,-63.655468 C 2008.7493,-63.655468 2011.9529,-61.805998 2013.1181,-60.524488 C 2014.137,-59.403188 2014.2826,-58.121678 2014.4283,-57.189728 C 2014.5739,-56.869368 2014.5739,-56.680028 2014.8652,-56.680028 C 2015.1565,-56.680028 2015.3022,-56.869368 2015.3022,-57.510088 C 2015.3022,-62.534108 2015.5935,-63.655468 2015.5935,-64.092348 C 2015.5935,-64.369008 2015.5935,-64.529158 2015.0109,-64.572858 C 2014.137,-64.616548 2012.6812,-64.849588 2011.8073,-65.009738 C 2011.079,-65.184508 2007.5841,-65.665088 2004.8175,-65.665088 C 2001.3226,-65.665088 1997.827,-65.373788 1994.0408,-63.043808 C 1990.4002,-60.844918 1987.051,-56.359668 1987.051,-49.937628 C 1987.051,-38.855628 1995.6429,-34.210168 2005.5457,-34.210168 C 2008.6037,-34.210168 2012.5355,-34.647048 2015.1565,-36.015938 C 2015.7391,-36.292608 2015.7391,-36.365428 2015.7391,-37.457598 L 2015.7391,-41.870018"
         style="fill:currentColor;fill-rule:nonzero;stroke:none;stroke-width:0.000001;stroke-linecap:round;stroke-linejoin:round;stroke-miterlimit:4;stroke-dasharray:none"
         id="path12322" />
      <path
         d="M 2048.9417,-46.398958 C 2048.9417,-42.714648 2048.9417,-39.540038 2048.7961,-37.850778 C 2048.6504,-36.700358 2048.3591,-35.812028 2047.6309,-35.651888 C 2047.1939,-35.579058 2046.757,-35.491668 2046.1744,-35.491668 C 2045.7374,-35.491668 2045.5918,-35.375218 2045.5918,-35.171308 C 2045.5918,-34.894648 2045.7374,-34.763558 2046.32,-34.763558 C 2047.9222,-34.763558 2050.3975,-34.894648 2051.2714,-34.894648 C 2051.854,-34.894648 2054.7663,-34.763558 2057.0967,-34.763558 C 2057.6786,-34.763558 2057.9699,-34.894648 2057.9699,-35.171308 C 2057.9699,-35.375218 2057.6786,-35.491668 2057.388,-35.491668 C 2056.9511,-35.491668 2056.0772,-35.579058 2055.4946,-35.651888 C 2054.1837,-35.812028 2054.0381,-36.700358 2053.8924,-37.850778 C 2053.7468,-39.540038 2053.7468,-42.714648 2053.7468,-46.442658 L 2053.7468,-47.010548 C 2053.7468,-47.243588 2053.8924,-47.330978 2054.0381,-47.330978 L 2057.533,-47.243588 C 2057.8243,-47.243588 2057.9699,-47.199898 2058.2612,-46.966858 C 2058.6982,-46.369828 2060.5916,-43.632108 2062.1931,-41.433138 C 2064.3778,-38.331358 2065.9793,-36.452818 2067.7271,-35.535368 C 2068.7466,-34.967468 2069.7655,-34.763558 2071.9502,-34.763558 L 2075.882,-34.763558 C 2076.319,-34.763558 2076.6103,-34.850948 2076.6103,-35.171308 C 2076.6103,-35.375218 2076.4646,-35.491668 2076.0277,-35.491668 C 2075.7364,-35.491668 2075.4451,-35.535368 2075.0082,-35.608188 C 2074.4256,-35.724708 2072.6784,-36.015938 2070.4937,-38.331358 C 2068.164,-40.821548 2065.3973,-44.403908 2061.7561,-48.889158 C 2065.8336,-52.180218 2066.9988,-54.903448 2066.9988,-57.874148 C 2066.9988,-60.568178 2065.3973,-62.606928 2064.3778,-63.378738 C 2062.1931,-64.849588 2059.4264,-65.097118 2056.9511,-65.097118 C 2055.6402,-65.097118 2052.5823,-64.980608 2051.2714,-64.980608 C 2050.3975,-64.980608 2047.9222,-65.097118 2045.7374,-65.097118 C 2045.1555,-65.097118 2044.8642,-65.009738 2044.8642,-64.733068 C 2044.8642,-64.456398 2045.1555,-64.369008 2045.5918,-64.369008 C 2046.1744,-64.369008 2046.9026,-64.339888 2047.1939,-64.252498 C 2048.5048,-63.975828 2048.7961,-63.335038 2048.9417,-61.966208 C 2048.9417,-60.684698 2048.9417,-59.563408 2048.9417,-53.461728 L 2048.9417,-46.398958 z M 2053.7468,-62.490478 C 2053.7468,-62.810838 2053.7468,-62.970988 2054.0381,-63.043808 C 2054.475,-63.174898 2055.2033,-63.218588 2056.2228,-63.218588 C 2058.5525,-63.218588 2062.3387,-61.573028 2062.3387,-55.864528 C 2062.3387,-52.573398 2061.1742,-50.738558 2060.009,-49.850238 C 2059.2808,-49.340528 2058.6982,-49.165818 2057.0967,-49.165818 C 2056.0772,-49.165818 2054.912,-49.296908 2054.0381,-49.573568 C 2053.7468,-49.690088 2053.7468,-49.850238 2053.7468,-50.301678 L 2053.7468,-62.490478"
         style="fill:currentColor;fill-rule:evenodd;stroke:none;stroke-width:0.000001;stroke-linecap:round;stroke-linejoin:round;stroke-miterlimit:4;stroke-dasharray:none"
         id="path12324" />
      <path
         d="M 2112.1426,-34.210168 C 2122.336,-34.210168 2128.7439,-41.476838 2128.7439,-50.651168 C 2128.7439,-59.840068 2122.4816,-65.665088 2112.4339,-65.665088 C 2100.4927,-65.665088 2095.9782,-56.796548 2095.9782,-49.937628 C 2095.9782,-42.831168 2100.6383,-34.210168 2112.1426,-34.210168 z M 2113.744,-36.205218 C 2106.026,-36.205218 2101.5115,-42.831168 2101.5115,-51.175438 C 2101.5115,-61.165278 2106.7542,-63.728228 2111.2687,-63.728228 C 2117.9672,-63.728228 2123.0642,-58.150808 2123.0642,-49.165818 C 2123.0642,-37.574118 2116.5114,-36.205218 2113.744,-36.205218"
         style="fill:currentColor;fill-rule:evenodd;stroke:none;stroke-width:0.000001;stroke-linecap:round;stroke-linejoin:round;stroke-miterlimit:4;stroke-dasharray:none"
         id="path12326" />
      <path
         d="M 2157.4313,-47.607648 C 2157.4313,-41.782628 2158.8878,-38.826498 2160.9269,-36.977018 C 2163.8392,-34.326688 2167.7711,-34.210168 2169.9551,-34.210168 C 2172.4311,-34.210168 2175.3435,-34.647048 2178.2558,-37.093538 C 2181.605,-39.991488 2182.042,-44.709708 2182.042,-49.165818 L 2182.042,-53.461728 C 2182.042,-59.563408 2182.042,-60.684698 2182.042,-61.966208 C 2182.1876,-63.378738 2182.4789,-64.048648 2183.6441,-64.252498 C 2184.081,-64.339888 2184.3723,-64.369008 2184.8093,-64.369008 C 2185.2456,-64.369008 2185.5369,-64.456398 2185.5369,-64.733068 C 2185.5369,-65.009738 2185.2456,-65.097118 2184.6636,-65.097118 C 2183.0615,-65.097118 2180.5861,-64.980608 2180.1492,-64.980608 C 2180.0035,-64.980608 2177.5275,-65.097118 2175.4891,-65.097118 C 2174.9065,-65.097118 2174.6152,-65.009738 2174.6152,-64.733068 C 2174.6152,-64.456398 2174.9065,-64.369008 2175.3435,-64.369008 C 2175.7804,-64.369008 2176.363,-64.339888 2176.7999,-64.252498 C 2178.1101,-63.975828 2178.4014,-63.335038 2178.4014,-61.966208 C 2178.5471,-60.684698 2178.5471,-59.563408 2178.5471,-53.461728 L 2178.5471,-48.452278 C 2178.5471,-44.316518 2178.4014,-40.705028 2176.2173,-38.506138 C 2174.6152,-36.889698 2172.4311,-36.336298 2170.6834,-36.336298 C 2169.3725,-36.336298 2167.4798,-36.496518 2165.732,-37.981868 C 2163.6936,-39.583738 2162.5284,-42.030238 2162.5284,-47.855178 L 2162.5284,-53.461728 C 2162.5284,-59.563408 2162.5284,-60.684698 2162.674,-61.966208 C 2162.674,-63.378738 2162.9653,-64.048648 2164.1305,-64.252498 C 2164.5675,-64.339888 2164.8588,-64.369008 2165.295,-64.369008 C 2165.732,-64.369008 2165.8776,-64.456398 2165.8776,-64.733068 C 2165.8776,-65.009738 2165.5863,-65.097118 2165.0044,-65.097118 C 2163.5479,-65.097118 2161.0726,-64.980608 2160.053,-64.980608 C 2158.8878,-64.980608 2156.4125,-65.097118 2154.2277,-65.097118 C 2153.6451,-65.097118 2153.3538,-65.009738 2153.3538,-64.733068 C 2153.3538,-64.456398 2153.6451,-64.369008 2154.0821,-64.369008 C 2154.519,-64.369008 2155.2473,-64.339888 2155.5386,-64.252498 C 2156.9951,-63.975828 2157.2857,-63.335038 2157.2857,-61.966208 C 2157.4313,-60.684698 2157.4313,-59.563408 2157.4313,-53.461728 L 2157.4313,-47.607648"
         style="fill:currentColor;fill-rule:nonzero;stroke:none;stroke-width:0.000001;stroke-linecap:round;stroke-linejoin:round;stroke-miterlimit:4;stroke-dasharray:none"
         id="path12328" />
      <path
         d="M 2214.0793,-46.398958 C 2214.0793,-42.714648 2214.0793,-39.540038 2213.9337,-37.850778 C 2213.788,-36.700358 2213.4967,-35.812028 2212.7692,-35.651888 C 2212.3322,-35.579058 2211.8953,-35.491668 2211.3127,-35.491668 C 2210.8757,-35.491668 2210.7301,-35.375218 2210.7301,-35.171308 C 2210.7301,-34.894648 2210.8757,-34.763558 2211.4583,-34.763558 C 2213.0605,-34.763558 2215.5358,-34.894648 2216.5554,-34.894648 C 2217.5742,-34.894648 2220.0503,-34.763558 2222.6713,-34.763558 C 2223.2539,-34.763558 2223.5452,-34.894648 2223.5452,-35.171308 C 2223.5452,-35.375218 2223.2539,-35.491668 2222.8169,-35.491668 C 2222.2343,-35.491668 2221.3604,-35.579058 2220.7785,-35.651888 C 2219.6133,-35.812028 2219.322,-36.700358 2219.1764,-37.821648 C 2219.0307,-39.540038 2219.0307,-42.714648 2219.0307,-46.398958 L 2219.0307,-62.446788 C 2219.0307,-62.883668 2219.1764,-63.131198 2219.322,-63.218588 C 2219.759,-63.335038 2220.3416,-63.378738 2220.9242,-63.378738 C 2221.7974,-63.378738 2223.5452,-63.131198 2225.0017,-61.805998 C 2227.1857,-59.796378 2227.3314,-57.116908 2227.3314,-55.791698 C 2227.3314,-51.699708 2224.1278,-49.165818 2221.943,-49.165818 C 2221.0691,-49.165818 2220.7785,-49.049298 2220.7785,-48.728938 C 2220.7785,-48.452278 2221.0691,-48.408578 2221.3604,-48.364888 C 2221.5061,-48.335758 2221.943,-48.335758 2222.0887,-48.335758 C 2227.914,-48.335758 2231.9915,-52.340428 2231.9915,-58.034358 C 2231.9915,-60.160428 2230.8263,-61.966208 2229.9524,-62.810838 C 2229.3698,-63.407868 2227.6227,-65.097118 2222.5256,-65.097118 C 2220.6329,-65.097118 2218.3025,-64.980608 2216.701,-64.980608 C 2215.5358,-64.980608 2213.0605,-65.097118 2210.8757,-65.097118 C 2210.2931,-65.097118 2210.0018,-65.009738 2210.0018,-64.733068 C 2210.0018,-64.456398 2210.2931,-64.369008 2210.7301,-64.369008 C 2211.3127,-64.369008 2212.0409,-64.339888 2212.3322,-64.252498 C 2213.6424,-63.975828 2213.9337,-63.335038 2214.0793,-61.966208 C 2214.0793,-60.684698 2214.0793,-59.563408 2214.0793,-53.461728 L 2214.0793,-46.398958"
         style="fill:currentColor;fill-rule:nonzero;stroke:none;stroke-width:0.000001;stroke-linecap:round;stroke-linejoin:round;stroke-miterlimit:4;stroke-dasharray:none"
         id="path12330" />
      <path
         d="M 2241.7479,-109.80381 L 2242.4762,-109.80381 L 2243.787,-107.21166 L 2245.3885,-107.21166 L 2243.787,-109.90577 C 2244.6609,-109.96403 2245.3885,-110.37178 2245.3885,-111.50764 C 2245.3885,-112.92016 2244.3696,-113.37161 2242.7675,-113.37161 L 2240.4378,-113.37161 L 2240.4378,-107.21166 L 2241.7479,-107.21166 L 2241.7479,-109.80381 z M 2241.7479,-110.83772 L 2241.7479,-112.32314 L 2242.7675,-112.32314 C 2243.2044,-112.32314 2243.9327,-112.27944 2243.9327,-111.63865 C 2243.9327,-110.9688 2243.6414,-110.83772 2243.0588,-110.83772 L 2241.7479,-110.83772 z M 2248.5928,-110.28439 C 2248.5928,-113.89588 2245.8254,-116.00738 2242.7675,-116.00738 C 2239.7095,-116.00738 2237.0878,-113.89588 2237.0878,-110.28439 C 2237.0878,-106.65833 2239.7095,-104.56133 2242.7675,-104.56133 C 2245.8254,-104.56133 2248.5928,-106.65833 2248.5928,-110.28439 z M 2246.845,-110.28439 C 2246.845,-107.64854 2244.9522,-105.87196 2242.7675,-105.87196 L 2242.7675,-105.90109 C 2240.4378,-105.87196 2238.69,-107.64854 2238.69,-110.28439 C 2238.69,-112.92016 2240.4378,-114.66768 2242.7675,-114.66768 C 2244.9522,-114.66768 2246.845,-112.92016 2246.845,-110.28439"
         style="fill:currentColor;fill-rule:evenodd;stroke:none;stroke-width:0.000001;stroke-linecap:round;stroke-linejoin:round;stroke-miterlimit:4;stroke-dasharray:none"
         id="path12332" />
    </g>
  </g>
  <g
     transform="translate(-1476.978,-278.99875)"
     style="display:inline"
     id="layer1" />
</svg>
