<svg xmlns="http://www.w3.org/2000/svg" viewBox="0 0 123.6 25" fill="currentColor"><path d="M21.9 18c1.6 1.7 3.8 2.6 6.1 2.6 1.9.1 3.8-.6 5.2-1.9 1.3-1.5 2-3.4 1.9-5.4V.9c0-.3-.3-.6-.6-.6h-3.3c-.3 0-.6.3-.6.6v12.3c0 2.3-1 3.3-2.7 3.3-1.2 0-2.4-.6-3.2-1.5-.2-.2-.6-.3-.9 0l-2 2.2c-.2.2-.2.6.1.8zm15.7-5.3c0-4.5 3.6-8.1 8-8.1h.3c4.4-.1 8.1 3.3 8.3 7.7v.3c0 4.4-3.6 8-8 8h-.3c-4.4.1-8.1-3.3-8.3-7.7v-.2zm12.3 0c.1-2.3-1.7-4.2-3.9-4.3h-.1c-2.2 0-4 1.7-4 3.9v.4c-.1 2.2 1.7 4.1 3.9 4.2h.1c2.2 0 4-1.7 4-3.9v-.3zm20.6 0c0-4.4 3.1-8.1 7.6-8.1 5.1 0 7.5 4 7.5 8.3v.6c0 .3-.3.6-.6.6H74.8c.3 1.8 1.9 3.1 3.8 3 1.2 0 2.4-.4 3.3-1.2.2-.2.6-.2.8 0l1.6 1.4c.2.2.3.6 0 .9-3.2 3.2-8.3 3.2-11.5 0-1.4-1.4-2.3-3.4-2.3-5.5zm10.8-1.3c-.3-1.9-1.4-3.3-3.2-3.3s-3 1.3-3.3 3.3h6.5zm6.5-5.8v14.1c0 .3.3.6.6.6h3.1c.3 0 .6-.3.6-.6v-7.9c0-2.1 1.3-3.6 3-3.6s2.4.8 2.4 2.8v8.7c0 .3.3.6.6.6h3.1c.3 0 .6-.3.6-.6v-9.3c0-3.5-1.9-5.7-5.2-5.7-1.8 0-3.5.9-4.5 2.5V5.6c0-.3-.3-.6-.6-.6h-3.1c-.3 0-.6.2-.6.6zm23.1 15c1.1 0 2.1-.2 3.1-.7.2-.1.3-.3.3-.5v-2.2c0-.3-.3-.6-.6-.6h-.2c-.4.1-.9.2-1.3.2-1 0-1.4-.5-1.4-1.5V8.7h3c.3 0 .6-.3.6-.6V5.6c0-.3-.3-.6-.6-.6h-3V1.6c0-.3-.3-.6-.6-.6H107c-.3 0-.6.3-.6.6V5h-1.6c-.3 0-.6.3-.6.6v2.5c0 .3.3.6.6.6h1.6V16c0 3.5 1.8 4.5 4.5 4.6zM10.3 0C4.6 0 0 4.6 0 10.3s4.6 10.3 10.3 10.3S20.6 16 20.6 10.3C20.6 4.6 16 0 10.3 0zm6.5 11.8c0 .2-.2.4-.5.4h-4.1v4.1c0 .2-.2.5-.4.5H8.9c-.2 0-.4-.2-.4-.5v-4.1H4.3c-.2 0-.5-.2-.5-.4V8.9c0-.2.2-.4.5-.4h4.1V4.3c0-.2.2-.5.4-.5h2.9c.2 0 .4.2.4.5v4.1h4.1c.2 0 .5.2.5.4l.1 3zM69.3 5h-3.2c-.3 0-.5.2-.6.4l-3.1 9.9-3.2-9.9c-.1-.2-.3-.4-.6-.4h-3.5c-.3 0-.6.3-.6.6v.2L60.1 20c.3.6-.3 1.4-1.2 1.4-.7 0-1.3-.1-2-.2-.3-.1-.7.1-.8.4V24c0 .2.1.4.3.5 1 .4 2.1.6 3.2.6 2.7 0 3.6-1.7 4.8-4.3L70 5.9c0-.4-.2-.8-.5-.9h-.2zm49.7-.7h-.5V1.6h-.9v-.5h2.4v.5h-1v2.7zm2.6 0l-.9-2.5v2.5h-.5V1.1h.8l.9 2.5.9-2.5h.8v3.2h-.6V1.9l-.9 2.5h-.5z"/></svg>
