<svg height="32" viewBox="0 0 32 32" width="32" xmlns="http://www.w3.org/2000/svg"><g fill="none" stroke="#111" stroke-linecap="square" stroke-miterlimit="10" stroke-width="2"><g stroke="#111"><path d="m20.456 3.723 7.79 7.79" stroke-linecap="butt"/><path d="m17.3 5.371c-4.55-1.648-9.3-.663-13.3 4.629l4.164 4.174" stroke-linecap="butt"/><path d="m17.826 23.836 4.174 4.164c5.292-4 6.277-8.75 4.629-13.3" stroke-linecap="butt"/><path d="m14 26-8-8s6.493-15.708 24.656-16.656c-1.027 18.085-16.656 24.656-16.656 24.656z"/></g><circle cx="18.5" cy="13.5" r="2.5"/><path d="m2.879 24.879a3 3 0 0 1 4.242 4.242c-1.171 1.172-5.949 1.707-5.949 1.707s.535-4.778 1.707-5.949z"/></g></svg>