<svg xmlns="http://www.w3.org/2000/svg" width="16" height="16" viewBox="0 0 16 16"><g class="nc-icon-wrapper" fill="#111111"><path d="M5.249,7.438l.562.45L6.4,6.553,9.4,8.8a1,1,0,0,0,1.432-.245l4.555-6.832L13.723.613,9.754,6.565,6.6,4.2a1,1,0,0,0-1.514.394L4.016,7A2.009,2.009,0,0,1,5.249,7.438Z" fill="#111111"></path> <polygon points="3.299 11 2.239 11 0.68 14.508 2.508 15.32 4.132 11.666 3.299 11" fill="#111111"></polygon> <path d="M9,14a1,1,0,0,1-.625-.219L3.649,10H0V8H4a1,1,0,0,1,.625.219l4.457,3.566,5.261-3.157,1.029,1.715L9.515,13.857A1,1,0,0,1,9,14Z" data-color="color-2"></path></g></svg>