<svg width="16" height="16" class="icon icon-audio"><path d="M7.462 3.409v9.181a.536.536 0 01-.917.38l-2.8-2.81h-2.2A.547.547 0 011 9.62V6.38a.547.547 0 01.538-.54h2.2l2.8-2.81a.538.538 0 01.924.379zM10.692 8c.001.425-.124.84-.358 1.194a1.99 1.99 0 01-.946.789.476.476 0 01-.21.042.526.526 0 01-.378-.156.515.515 0 01-.16-.384.453.453 0 01.1-.3.985.985 0 01.244-.211c.095-.059.191-.124.286-.194a.855.855 0 00.244-.3 1.201 1.201 0 000-.962.855.855 0 00-.244-.3 4.788 4.788 0 00-.286-.193.985.985 0 01-.244-.211.453.453 0 01-.1-.3.514.514 0 01.16-.383.524.524 0 01.379-.156.476.476 0 01.21.042c.392.152.724.427.946.785.234.356.358.772.357 1.198zm2.154 0a4.266 4.266 0 01-.715 2.384 4.156 4.156 0 01-1.893 1.591.582.582 0 01-.21.042.522.522 0 01-.387-.16.523.523 0 01-.16-.38.534.534 0 01.328-.5c.222-.108.435-.232.639-.371a3.232 3.232 0 000-5.214 5.156 5.156 0 00-.639-.371.534.534 0 01-.328-.5.547.547 0 01.757-.498 4.156 4.156 0 011.893 1.591c.471.707.719 1.538.715 2.387zM15 8a6.5 6.5 0 01-3.912 5.958.547.547 0 01-.757-.498.57.57 0 01.328-.5c.061-.033.124-.063.189-.089s.128-.056.189-.089c.239-.129.469-.272.69-.43a5.416 5.416 0 000-8.708 6.462 6.462 0 00-.69-.43c-.061-.033-.124-.063-.189-.089s-.128-.056-.189-.089a.57.57 0 01-.328-.5.547.547 0 01.757-.493A6.5 6.5 0 0115 8.001z"/></svg>