<svg width="16" height="16" viewBox="0 0 16 16" class="icon icon-audio">
  <path d="M7.462 3.409v9.181c0.002 0.218-0.128 0.416-0.33 0.5s-0.434 0.036-0.587-0.12l-2.8-2.81h-2.2c-0.299-0.001-0.541-0.241-0.545-0.54v-3.24c0.004-0.296 0.242-0.535 0.538-0.54h2.2l2.8-2.81c0.153-0.158 0.387-0.206 0.59-0.123s0.336 0.282 0.334 0.502v0zM10.692 8c0.001 0.425-0.124 0.84-0.358 1.194-0.224 0.356-0.555 0.633-0.946 0.789-0.066 0.030-0.138 0.044-0.21 0.042-0.142 0.001-0.278-0.055-0.378-0.156-0.105-0.1-0.163-0.239-0.16-0.384-0.004-0.109 0.032-0.215 0.1-0.3 0.069-0.083 0.152-0.155 0.244-0.211 0.095-0.059 0.191-0.124 0.286-0.194 0.103-0.080 0.187-0.183 0.244-0.3 0.134-0.307 0.134-0.655 0-0.962-0.057-0.117-0.141-0.22-0.244-0.3-0.095-0.069-0.191-0.134-0.286-0.193-0.092-0.056-0.175-0.128-0.244-0.211-0.068-0.085-0.104-0.191-0.1-0.3-0.003-0.144 0.055-0.283 0.16-0.383 0.1-0.101 0.237-0.158 0.379-0.156 0.072-0.002 0.144 0.012 0.21 0.042 0.392 0.152 0.724 0.427 0.946 0.785 0.234 0.356 0.358 0.772 0.357 1.198zM12.846 8c0.004 0.848-0.245 1.678-0.715 2.384-0.455 0.71-1.115 1.265-1.893 1.591-0.067 0.027-0.138 0.041-0.21 0.042-0.146 0.003-0.286-0.055-0.387-0.16-0.103-0.099-0.161-0.237-0.16-0.38-0.003-0.218 0.127-0.416 0.328-0.5 0.222-0.108 0.435-0.232 0.639-0.371 0.831-0.609 1.322-1.577 1.322-2.607s-0.491-1.999-1.322-2.607c-0.204-0.139-0.418-0.263-0.639-0.371-0.201-0.084-0.331-0.282-0.328-0.5 0.004-0.296 0.242-0.535 0.538-0.54 0.075 0 0.149 0.014 0.219 0.042 0.778 0.326 1.438 0.881 1.893 1.591 0.471 0.707 0.719 1.538 0.715 2.387zM15 8c-0.002 2.588-1.538 4.928-3.912 5.958-0.070 0.028-0.144 0.042-0.219 0.042-0.296-0.005-0.534-0.244-0.538-0.54 0.006-0.215 0.133-0.408 0.328-0.5 0.061-0.033 0.124-0.063 0.189-0.089s0.128-0.056 0.189-0.089c0.239-0.129 0.469-0.272 0.69-0.43 1.381-1.021 2.196-2.637 2.196-4.354s-0.815-3.333-2.196-4.354c-0.221-0.158-0.451-0.301-0.69-0.43-0.061-0.033-0.124-0.063-0.189-0.089s-0.128-0.056-0.189-0.089c-0.195-0.092-0.322-0.285-0.328-0.5 0.006-0.294 0.244-0.53 0.538-0.535 0.075 0 0.149 0.014 0.219 0.042 2.374 1.030 3.91 3.37 3.912 5.958v0z"/>
</svg>