<svg width="16" height="16" class="icon icon-composer"><path d="M7.919 1.062c-.06-.064-.018-.06-2.51 1.456l-.236-.644c.35-.342.849-.726.684-.906-.104-.13-1.737.827-1.865.546-.34-.355-.665.58-1.072 1.004-.118-.092-.453-.783-.62-.975-.133-.142-.26-.137-.3.01.095 1.447.828 2.564.561 2.589-.079.039-.084.069-.034.197.039.108.078.138.142.118.074-.02.119.034.231.29.143.315.143.32.064.605-.044.163-.083.3-.083.3s-.123-.02-.27-.059c-.448-.118-.419-.152-.483.576-.034.36-.059.689-.059.733 0 .06.064.094.226.119l.226.03c-.044.376-.098.557.01.678.168.385.11 2.165.128 3.242.34.086.539.206.541.374 0 .064.08.158.212.25.113.08.546.395.954.7.713.526.748.56.699.668-.045.104-.035.138.088.261.119.123.128.143.05.158-.045.01-.202-.01-.345-.04-.33-.074-1.461-.128-1.456-.069 0 .025.236.163.526.305.291.143.483.221.428.173l-.492-.419c.837.081 2.376.52 2.633.685.082.052.039.074-.27.044-.911-.084-1.305-.089-1.93-.03-.374.035-.708.08-.743.099-.088.044.684.099 1.467.099 1.028.011 2.056.265 3.085.497-.208.407-.414 1.16-.404 1.274 1.64-.937 2.233-1.686 5.652-2.586.237-.035.416-.158-.457.005-.252.065.72-.547.615-.566-.236 0-2.367.851-2.77 1.112-.153.098-.163.093-.163-.119 0-.177.015-.187.335-.364.28-.152 2.002-.925 2.061-.925-.016.084-.154.292-.251.467.282-.25.54-.492.752-.718-.019-.044-.452.099-.555.06-.038-.551.245-.858.34-1.453.143-.856.32-1.55.516-2.022.419-.99.458-1.136.394-1.412-.095-.355.027-.388-.05-.66-.11-.303.201-.103-.147-.516-.113-.133-.192-.256-.192-.256l.364-.167.094-1.344c-.005 0-.994.296-1.028.296-.07 0-.133-.128-.345-.718-.138-.374-.162-.492-.138-.738.079-.774-.42-2.523-1.254-3.312-.215-.094-.394-.032-.385.189.008.192.207.514.375.948C10.5.41 9.867.09 9.444.024c-.407-.104-.185.154-.448.296-.064.02-.089.074-.089.211-.037.299.776.833.97 1.152-.324-.147-.73-.546-1.014-.517-.413 0-.404.286.02.586.31.225.67.599 1.033.98-.553.1-1.084.168-1.156.334-.218.336.548.345 1.195.718.782.598 1.06.49 1.225.729.13.234.24.078.365.492.044.153.054.305.054.305l-.87.286.358.639c.33.596.364.64.492.625.24-.042.086.105-.083.4l.113.206c.141.243.08.564-.07.187-.124-.237-.457-.82-.956-1.1-.233-.131-.233-.175-1.164-.18-.769-.698-.83-.734-1.643-.728h-.615c-.921.432-1.561.916-2.337 2.209-.075-.432-.128-.453.064-.473.143-.015.153-.03.256-.457.17-.762.3-.585-.27-.763-.335-.084-.443-.129-.443-.193.114-.748.256-.65.305-.866.28-.42.455-.029.964-1.127.345-.748.798-1.13 1.042-1.447 0-.083-.202-.305-.275-.305-.414.02 1.756-1.097 1.452-1.161z"/></svg>