<svg xmlns="http://www.w3.org/2000/svg" width="16" height="16" class="icon icon-discord"><path d="M6.552 6.712a.891.891 0 000 1.776.852.852 0 00.816-.888.847.847 0 00-.816-.888zm2.92 0a.891.891 0 10.816.888.852.852 0 00-.816-.888z"/><path d="M13.36 0H2.64A1.644 1.644 0 001 1.648v10.816a1.644 1.644 0 001.64 1.648h9.072l-.424-1.48 1.024.952.968.9L15 16V1.648A1.644 1.644 0 0013.36 0zm-3.088 10.448s-.288-.348-.528-.648a2.524 2.524 0 001.448-.952 4.578 4.578 0 01-.92.472 5.265 5.265 0 01-1.16.344 5.6 5.6 0 01-2.072-.008 6.716 6.716 0 01-1.176-.344 4.683 4.683 0 01-.912-.472 2.488 2.488 0 001.4.944c-.24.3-.536.664-.536.664a2.9 2.9 0 01-2.44-1.216 10.713 10.713 0 011.152-4.664 3.956 3.956 0 012.248-.84l.08.1a5.4 5.4 0 00-2.1 1.048s.176-.1.472-.232a6.008 6.008 0 011.816-.5.788.788 0 01.136-.016A6.769 6.769 0 018.792 4.1a6.521 6.521 0 012.408.768 5.324 5.324 0 00-1.992-1.012l.112-.128a3.956 3.956 0 012.248.84 10.713 10.713 0 011.152 4.664 2.924 2.924 0 01-2.448 1.216z"/></svg>