<svg width="16" height="16" class="icon icon-font"><path d="M2.616 8.852l-.153.393c-.11.277-.164.473-.164.586 0 .191.065.325.193.401.13.076.34.115.633.115v.65H.5v-.65c.5 0 .92-.426 1.26-1.278L4.204 2.91h.685l2.49 6.153c.247.61.47.976.669 1.099.2.123.39.185.574.185v.65H4.678v-.65c.356 0 .577-.035.662-.103a.32.32 0 00.13-.26.943.943 0 00-.106-.37l-.076-.182-.229-.58H2.616zm.251-.674h1.928l-.99-2.373-.938 2.373zm9.3 2.31a3.288 3.288 0 01-.893.465c-.31.104-.636.155-.976.155-.45 0-.786-.101-1.01-.304a.978.978 0 01-.338-.756c0-.426.225-.803.674-1.131.45-.329 1.262-.692 2.438-1.09v-.434c0-.309-.074-.507-.223-.595a1.016 1.016 0 00-.527-.132c-.492 0-.766.18-.82.54-.04.246-.118.424-.235.536-.117.111-.299.167-.545.167-.223 0-.4-.06-.53-.179a.55.55 0 01-.197-.419c0-.363.24-.672.721-.926.48-.254 1.123-.38 1.928-.38.45 0 .826.026 1.128.081.303.055.547.156.733.305.185.148.308.305.369.469.06.164.09.386.09.668v2.227c0 .336.102.504.306.504.175 0 .287-.11.334-.329h.486c-.012.403-.16.7-.442.891-.284.192-.623.287-1.017.287-.719 0-1.203-.207-1.453-.62zm-.105-.634V8.483c-.543.227-.898.432-1.064.615-.166.184-.249.373-.249.569 0 .148.05.282.147.401.098.12.226.179.387.179.14 0 .275-.033.404-.1.129-.066.254-.164.375-.293z"/></svg>