<svg viewBox="0 0 16 16" width="16" height="16" class="icon icon-gulpfile">
  <path d="M12 3.993c-1.011 0.741-6.417 0.7-7-0.039 0.149-0.246 2.446-0.169 2.333-0.468-0.057-0.561-0.258-1.098-0.583-1.559l-1.439-1.6 0.405-0.327c0 0 0.755 0.765 1 0.991 0.661 0.556 1.101 1.331 1.24 2.184-0.001 0.138 0.059 0.27 0.163 0.36s0.244 0.13 0.381 0.108c1.685 0.12 3.324 0.089 3.5 0.35zM6.245 12.18c-0.274-0.048-0.463-0.304-0.428-0.58l-0.817-7.295c2.289 0.641 4.711 0.641 7 0l-0.7 7.251c-0.019 0.342-0.281 0.622-0.622 0.663-1.46 0.341-2.98 0.327-4.433-0.039zM10.639 13.154c-0.077 0.624-0.117 1.286-0.156 1.949-0.005 0.193-0.129 0.364-0.311 0.429l-1.4 0.468h-0.765c0 0-0.907-0.39-1.257-0.546-0.094-0.066-0.163-0.162-0.194-0.273-0.166-1.4 0.057-2.292-0.428-2.807v-0.074c1.625 0.403 3.327 0.376 4.939-0.078-0.221 0.269-0.368 0.59-0.428 0.932z"></path>
</svg>