<svg width="16" height="16" class="icon icon-gulpfile"><path d="M12 3.993c-1.011.741-6.417.7-7-.039.149-.246 2.446-.169 2.333-.468a3.282 3.282 0 00-.583-1.559L5.311.327 5.716 0s.755.765 1 .991a3.613 3.613 0 011.24 2.184.473.473 0 00.544.468c1.685.12 3.324.089 3.5.35zM6.245 12.18a.523.523 0 01-.428-.58L5 4.305a12.98 12.98 0 007 0l-.7 7.251a.708.708 0 01-.622.663 9.398 9.398 0 01-4.433-.039zm4.394.974a31.09 31.09 0 00-.156 1.949.47.47 0 01-.311.429l-1.4.468h-.765s-.907-.39-1.257-.546a.497.497 0 01-.194-.273c-.166-1.4.057-2.292-.428-2.807V12.3a9.65 9.65 0 004.939-.078c-.221.269-.368.59-.428.932z"/></svg>