<svg width="16" height="16" class="icon icon-javascript"><path d="M3 13h10V3H3v10zM2 2h12v12H2V2z"/><path d="M6.935 7.072h.967v3.459c0 .488-.137.874-.412 1.16s-.62.429-1.037.429c-.451 0-.808-.128-1.072-.383s-.39-.631-.381-1.128l.01-.021h.947c0 .262.046.453.138.574s.211.181.357.181c.132 0 .246-.072.34-.215s.142-.343.142-.598V7.071zm4.015 3.678c0-.194-.05-.347-.15-.46s-.277-.224-.53-.333c-.517-.18-.905-.385-1.164-.614s-.388-.55-.388-.962c0-.408.15-.74.451-.996S9.854 7 10.321 7c.474 0 .859.143 1.155.429s.44.647.431 1.082l-.007.021h-.943c0-.228-.057-.412-.171-.554s-.275-.212-.482-.212c-.194 0-.345.059-.453.176s-.162.265-.162.443c0 .164.06.299.181.405s.33.224.629.354c.472.159.827.362 1.065.607s.357.576.357.993c0 .431-.144.768-.431 1.012s-.669.366-1.145.366c-.474 0-.885-.138-1.232-.415s-.516-.674-.504-1.191l.007-.021h.947c0 .308.065.529.195.663s.326.202.588.202c.205 0 .357-.055.456-.164s.149-.257.149-.444z"/></svg>