<svg version="1.1" xmlns="http://www.w3.org/2000/svg" width="16" height="16" viewBox="0 0 16 16" class="icon icon-paragraph"><g><path d="M6,0H1C0.4,0,0,0.4,0,1v5c0,0.6,0.4,1,1,1h5c0.6,0,1-0.4,1-1V1C7,0.4,6.6,0,6,0z"></path> <path d="M6,9H1c-0.6,0-1,0.4-1,1v5c0,0.6,0.4,1,1,1h5c0.6,0,1-0.4,1-1v-5C7,9.4,6.6,9,6,9z"></path> <rect data-color="color-2" x="9" y="1" width="7" height="2"></rect> <rect data-color="color-2" x="9" y="4" width="7" height="2"></rect> <rect data-color="color-2" x="9" y="10" width="7" height="2"></rect> <rect data-color="color-2" x="9" y="13" width="7" height="2"></rect></g></svg>
