<svg width="16" height="16" class="icon icon-php"><path d="M5.323 11.323a1.2 1.2 0 00-.782-1.039c-.196-.072-.365-.204-.559-.284a4.482 4.482 0 00-.674-.244.406.406 0 00-.442.179.313.313 0 00.055.386c.093.131.2.256.3.378.172.2.355.4.523.607a.956.956 0 01.274.679 2.143 2.143 0 01-.757 1.437.304.304 0 01-.194.066 1.253 1.253 0 01-.733-.317.352.352 0 01.082-.622 1.9 1.9 0 00.2-.117.4.4 0 00.135-.518.803.803 0 00-.167-.248c-.357-.313-.708-.637-1.09-.922A3.541 3.541 0 01.014 8.02 5.543 5.543 0 01.9 4.582 2.366 2.366 0 011.916 3.6c.32-.123.649-.22.984-.291a6.818 6.818 0 012.8-.251 1.983 1.983 0 011.7 1.317c.174.505.232 1.042.168 1.572A2.714 2.714 0 015.582 8.23a.78.78 0 01-.982-.314c-.2-.265-.364-.553-.542-.832-.026-.041-.045-.089-.067-.134s-.045-.086-.068-.13c.047.458.197.9.437 1.293a.79.79 0 00.6.4 2.657 2.657 0 002.472-1.019 3.548 3.548 0 00.631-2.944c-.038-.21-.103-.415-.149-.623-.019-.059-.012-.123.019-.176s.083-.091.143-.105a8.303 8.303 0 012.7-.192c.945.07 1.861.364 2.67.857a5.81 5.81 0 012.478 3.326c.053.204.079.415.076.626 0 .141-.09.178-.2.089a2.957 2.957 0 01-.341-.321c-.1-.107-.177-.23-.273-.343-.074-.088-.139-.075-.174.035a7.65 7.65 0 00-.062.2 4.773 4.773 0 01-1.135 2.038.573.573 0 00-.158.312 5.01 5.01 0 00-.012.9c.062.642.158 1.281.233 1.922a.579.579 0 01-.432.7 3 3 0 01-.777.17c-.418.028-.84.008-1.26.008a1.115 1.115 0 00-.409-1.13c.085-.335.184-.653.243-.978a.857.857 0 00-.189-.757.487.487 0 00-.628-.146 2.315 2.315 0 01-1.978.125.517.517 0 00-.7.226c-.18.285-.265.62-.242.956.026.42.1.835.16 1.253.032.234 0 .294-.236.354a5.115 5.115 0 01-1.627.1.51.51 0 01-.077-.019 1.03 1.03 0 00-.526-1.123 2.42 2.42 0 00.125-1.507l-.002-.004zM2.087 9.6a.582.582 0 00.166-.289.7.7 0 00-.381-.705.263.263 0 00-.322.062c-.214.237-.426.475-.637.713a.744.744 0 00-.093.136c-.046.057-.056.135-.025.202s.097.109.17.11c.109.027.222.032.335.048.285-.001.563-.096.788-.271L2.087 9.6zM2.111 7a.354.354 0 00-.352-.342.36.36 0 00-.358.354.354.354 0 00.363.333.348.348 0 00.349-.344L2.111 7z"/></svg>