<svg width="16" height="16" class="icon icon-sass"><path d="M14.926 2.713C14.5 1.068 11.709.527 9.07 1.444a13.344 13.344 0 00-4.493 2.521c-1.453 1.33-1.685 2.487-1.59 2.971.338 1.706 2.728 2.821 3.713 3.649-.29.139-2.41 1.189-2.907 2.263a1.45 1.45 0 00.485 2.054 3.01 3.01 0 003.21-1.273 3.127 3.127 0 00.32-2.836 3.907 3.907 0 011.449-.081c1.661.19 1.987 1.2 1.924 1.629a1.074 1.074 0 01-.527.728c-.116.071-.152.095-.142.147.014.076.068.073.167.057.505-.154.862-.603.9-1.129.04-.995-.935-2.108-2.661-2.079a4.644 4.644 0 00-1.481.2l-.073-.079C6.3 9.073 4.326 8.285 4.41 6.788c.03-.544.224-1.977 3.79-3.715 2.921-1.424 5.26-1.032 5.664-.164.577 1.241-1.25 3.547-4.284 3.879a2.311 2.311 0 01-1.916-.475c-.159-.172-.183-.18-.243-.147-.1.053-.035.2 0 .295.239.417.635.721 1.1.843a5.938 5.938 0 003.556-.344c1.835-.695 3.271-2.63 2.849-4.247zm-7.82 8.382a2.325 2.325 0 01-.072 1.523 2.578 2.578 0 01-.498.759A1.666 1.666 0 014.887 14c-.356-.2-.178-1.03.46-1.689a6.41 6.41 0 011.673-1.167l.086-.049z"/></svg>