<svg viewBox="0 0 16 16" width="16" height="16" class="icon icon-sass">
  <path d="M14.926 2.713c-0.426-1.645-3.217-2.186-5.856-1.269-1.647 0.54-3.173 1.397-4.493 2.521-1.453 1.33-1.685 2.487-1.59 2.971 0.338 1.706 2.728 2.821 3.713 3.649v0c-0.29 0.139-2.41 1.189-2.907 2.263-0.22 0.333-0.293 0.743-0.201 1.132s0.34 0.723 0.686 0.922c1.231 0.293 2.514-0.216 3.21-1.273 0.557-0.839 0.676-1.894 0.32-2.836 0.474-0.117 0.965-0.145 1.449-0.081 1.661 0.19 1.987 1.2 1.924 1.629-0.061 0.308-0.253 0.574-0.527 0.728-0.116 0.071-0.152 0.095-0.142 0.147 0.014 0.076 0.068 0.073 0.167 0.057 0.505-0.154 0.862-0.603 0.9-1.129 0.040-0.995-0.935-2.108-2.661-2.079-0.501-0.014-1.001 0.054-1.481 0.2l-0.073-0.079c-1.064-1.113-3.038-1.901-2.954-3.398 0.030-0.544 0.224-1.977 3.79-3.715 2.921-1.424 5.26-1.032 5.664-0.164 0.577 1.241-1.25 3.547-4.284 3.879-0.678 0.136-1.38-0.038-1.916-0.475-0.159-0.172-0.183-0.18-0.243-0.147-0.1 0.053-0.035 0.2 0 0.295 0.239 0.417 0.635 0.721 1.1 0.843 1.193 0.253 2.434 0.133 3.556-0.344 1.835-0.695 3.271-2.63 2.849-4.247zM7.106 11.095c0.134 0.453 0.127 0.935-0.020 1.384-0.016 0.047-0.033 0.093-0.052 0.139s-0.039 0.091-0.061 0.135c-0.114 0.228-0.261 0.439-0.437 0.624-0.386 0.505-1.025 0.747-1.649 0.623-0.356-0.2-0.178-1.030 0.46-1.689 0.492-0.476 1.057-0.87 1.673-1.167v0l0.086-0.049z"></path>
</svg>