<svg xmlns="http://www.w3.org/2000/svg" width="16" height="16" viewBox="0 0 16 16"><g class="nc-icon-wrapper" fill="#111111"><path fill="#111111" d="M4,13H1c-0.552,0-1-0.448-1-1v0c0-0.552,0.448-1,1-1h3V13z"></path> <path fill="#111111" d="M15,3H1C0.448,3,0,2.552,0,2v0c0-0.552,0.448-1,1-1h14c0.552,0,1,0.448,1,1v0C16,2.552,15.552,3,15,3z"></path> <path fill="#111111" d="M4,8H1C0.448,8,0,7.552,0,7v0c0-0.552,0.448-1,1-1h3V8z"></path> <path data-color="color-2" d="M15.707,13.293l-2.274-2.274C13.785,10.424,14,9.74,14,9c0-2.206-1.794-4-4-4S6,6.794,6,9 s1.794,4,4,4c0.74,0,1.424-0.215,2.019-0.567l2.274,2.274L15.707,13.293z M10,11c-1.103,0-2-0.897-2-2s0.897-2,2-2s2,0.897,2,2 S11.103,11,10,11z"></path> </g></svg>