<svg
   viewBox="0 0 2362 1287"
>
  <g
     inkscape:label="Ebene 1"
     inkscape:groupmode="layer"
     id="layer1">
    <path
       style="fill:currentColor;fill-opacity:1"
       d="M 510.58918,1273.7674 C 499.25078,1257.8333 449.92001,1191.1382 447.90421,1189.0174 C 446.66851,1187.7175 446.50631,1192.1191 446.68751,1222.0174 C 446.93331,1262.5509 447.44961,1271.7012 449.56631,1273.0389 C 450.39071,1273.5599 454.55268,1275.1551 458.81518,1276.5839 C 465.05278,1278.6747 466.56518,1279.5743 466.56518,1281.1934 C 466.56518,1283.046 466.15008,1283.1475 461.31518,1282.4768 C 454.54138,1281.5371 429.60931,1281.5382 422.81521,1282.4785 C 417.97921,1283.1478 417.56521,1283.0463 417.56521,1281.1911 C 417.56521,1279.5851 419.33201,1278.4914 426.28541,1275.7929 C 434.40411,1272.642 435.06401,1272.171 435.85401,1268.963 C 436.32071,1267.0679 436.94931,1245.4924 437.25091,1221.0174 C 437.88421,1169.6235 439.04281,1174.9769 426.31521,1170.4901 C 420.96151,1168.6028 418.56521,1167.2571 418.56511,1166.1377 C 418.56511,1164.7017 420.55401,1164.5295 436.05511,1164.6238 L 453.54521,1164.7301 L 458.38788,1172.1238 C 461.05138,1176.1903 475.29568,1195.7174 490.04188,1215.5174 L 516.85318,1251.5174 L 516.35628,1215.3163 C 515.93468,1184.601 515.62018,1178.7502 514.28108,1176.7064 C 513.30288,1175.2135 509.63488,1173.061 504.63398,1171.0451 C 499.15088,1168.8349 496.56528,1167.2678 496.56538,1166.155 C 496.56558,1164.6828 499.03958,1164.5174 521.06548,1164.5174 C 544.90008,1164.5174 545.56528,1164.5717 545.56148,1166.5174 C 545.55828,1168.111 543.88388,1169.1285 537.32138,1171.5246 C 531.12068,1173.7886 528.80248,1175.1479 527.94108,1177.0246 C 526.31858,1180.5592 524.47498,1241.9529 525.24608,1266.7674 L 525.87538,1287.0174 L 522.94648,1287.0174 C 520.32978,1287.0174 519.01288,1285.6054 510.58918,1273.7674 z M 2330.5135,1277.6275 C 2326.9669,1272.463 2310.5652,1250.0677 2294.0652,1227.86 L 2264.0652,1187.4825 L 2263.7479,1207.9999 C 2263.2722,1238.7534 2264.4711,1270.7805 2266.1612,1272.4706 C 2266.9158,1273.2251 2271.1403,1275.0438 2275.5492,1276.5121 C 2282.0294,1278.6702 2283.5652,1279.5671 2283.5652,1281.1934 C 2283.5652,1283.0468 2283.1521,1283.1473 2278.3152,1282.4708 C 2271.5631,1281.5264 2246.6313,1281.5299 2239.8152,1282.4762 C 2234.9751,1283.1482 2234.5652,1283.0475 2234.5652,1281.1866 C 2234.5652,1279.5711 2236.271,1278.5243 2243.1101,1275.943 C 2247.8099,1274.1693 2252.0762,1271.931 2252.591,1270.9692 C 2253.479,1269.3099 2255.5347,1212.0923 2255.5555,1188.456 C 2255.5673,1175.0329 2255.2243,1174.5148 2243.6617,1170.4897 C 2238.1477,1168.5702 2235.5652,1167.1683 2235.5651,1166.0943 C 2235.565,1164.7138 2237.7698,1164.5307 2253.2687,1164.624 L 2270.9724,1164.7307 L 2274.5593,1170.624 C 2277.6865,1175.7623 2330.1432,1246.8544 2332.7723,1249.5174 C 2333.4221,1250.1756 2333.632,1238.1534 2333.3866,1214.344 C 2332.9546,1172.4358 2333.95,1176.0693 2321.4921,1170.9259 C 2316.352,1168.8036 2313.5652,1167.1018 2313.5652,1166.0852 C 2313.5652,1164.7041 2316.4832,1164.5174 2338.0651,1164.5174 C 2362.2009,1164.5174 2362.5651,1164.5483 2362.5651,1166.5943 C 2362.5651,1168.2908 2361.1074,1169.1787 2354.6068,1171.4416 C 2350.2297,1172.9653 2346.1039,1174.8681 2345.4384,1175.6701 C 2343.7387,1177.7181 2342.7071,1204.9324 2342.6295,1249.7674 L 2342.5651,1287.0174 L 2339.7635,1287.0174 C 2337.3515,1287.0174 2336.0653,1285.7118 2330.5135,1277.6275 z M 915.58008,1282.9478 C 903.14248,1279.6918 895.38618,1273.3954 890.34518,1262.4623 C 888.12458,1257.6462 888.05218,1256.4877 887.56518,1217.9729 C 887.13218,1183.7211 886.84798,1178.0997 885.44198,1175.9729 C 884.40128,1174.3988 881.08108,1172.4828 876.19198,1170.635 C 871.02078,1168.6807 868.56518,1167.2318 868.56518,1166.135 C 868.56518,1164.6834 871.43828,1164.5174 896.56518,1164.5174 C 921.68968,1164.5174 924.56518,1164.6835 924.56518,1166.1346 C 924.56518,1167.2464 921.89738,1168.7588 916.03028,1170.9732 C 910.92668,1172.8994 906.92738,1175.0635 906.08278,1176.356 C 904.17688,1179.2726 902.90428,1230.3024 904.39048,1244.2164 C 906.60858,1264.9821 914.21048,1272.6714 933.62038,1273.7828 C 949.26208,1274.6783 959.41428,1269.4398 964.70198,1257.7444 C 967.05378,1252.5426 967.06508,1252.3366 967.02748,1215.0174 C 966.99978,1187.5296 966.66538,1176.933 965.77498,1175.3286 C 964.93498,1173.8149 961.93958,1172.2864 956.06278,1170.3725 C 950.26388,1168.484 947.56518,1167.1149 947.56508,1166.0613 C 947.56498,1164.7132 950.54578,1164.5174 971.06488,1164.5174 C 992.10858,1164.5174 994.56488,1164.6876 994.56498,1166.1455 C 994.56518,1167.2174 992.53858,1168.5315 988.63268,1169.9922 C 978.46568,1173.7944 979.14528,1170.8824 978.50828,1213.3703 C 977.98978,1247.9587 977.80198,1250.968 975.78228,1257.0598 C 972.12758,1268.0827 965.90138,1275.7581 956.86478,1280.3804 C 947.46738,1285.1873 928.61368,1286.3598 915.58008,1282.9478 z M 5.5652465,1281.1604 C 5.5652465,1279.5518 7.323647,1278.5965 14.978947,1276.0462 C 20.195047,1274.3084 24.653947,1272.2287 24.978947,1271.3819 C 25.301447,1270.5415 25.565247,1248.8266 25.565247,1223.1267 C 25.565247,1187.2612 25.274747,1176.0294 24.315247,1174.807 C 23.627747,1173.931 19.127747,1171.9522 14.315247,1170.4097 C 8.304647,1168.4832 5.5652465,1167.1218 5.5652465,1166.0613 C 5.5652465,1164.6917 10.786547,1164.5174 51.815247,1164.5174 L 98.06525,1164.5174 L 98.06695,1179.3044 C 98.06855,1193.3167 97.96815,1194.0764 96.14975,1193.8044 C 94.701247,1193.5878 93.574147,1191.4712 91.552447,1185.1718 C 90.079347,1180.5818 88.242147,1176.4262 87.469647,1175.9372 C 86.697247,1175.4481 76.569447,1175.0411 64.963547,1175.0327 L 43.861747,1175.0174 L 43.219547,1183.2674 C 42.866247,1187.8049 42.574547,1197.0721 42.571247,1203.8611 L 42.565247,1216.2047 L 61.530847,1215.8611 C 76.780547,1215.5847 80.769647,1215.2235 81.891247,1214.0174 C 82.658347,1213.1924 84.332147,1209.4799 85.610647,1205.7674 C 87.332647,1200.7671 88.405647,1199.0174 89.750247,1199.0174 C 91.448847,1199.0174 91.565247,1200.4337 91.565247,1221.0907 C 91.565247,1241.2641 91.420047,1243.1361 89.877647,1242.839 C 88.775947,1242.6269 87.177047,1239.6809 85.272847,1234.3549 C 83.078947,1228.2189 81.823747,1226.0531 80.210447,1225.6203 C 79.030647,1225.3037 70.077747,1225.0386 60.315247,1225.0311 L 42.565247,1225.0174 L 42.664947,1246.2674 C 42.719747,1257.9549 43.072647,1268.6424 43.449147,1270.0174 C 44.015947,1272.0879 45.624647,1273.0352 52.813547,1275.5315 C 68.473147,1280.9693 67.479447,1283.3304 50.051947,1282.0927 C 38.259447,1281.2553 25.613447,1281.4108 12.315247,1282.5568 C 6.060847,1283.0958 5.5652465,1282.9933 5.5652465,1281.1604 z M 131.56525,1281.1989 C 131.56525,1279.5545 133.17405,1278.6486 140.31525,1276.2718 C 146.87685,1274.0879 149.37935,1272.7539 150.32105,1270.9384 C 151.28735,1269.0753 151.51775,1257.7352 151.32105,1221.7303 C 151.10065,1181.4085 150.85805,1174.8152 149.56525,1174.0167 C 148.74025,1173.507 144.35275,1171.8559 139.81525,1170.3475 C 134.22725,1168.4899 131.56565,1167.1069 131.56635,1166.0612 C 131.56735,1164.6978 135.74555,1164.5202 167.31635,1164.5413 C 205.17275,1164.5666 207.20135,1164.7723 216.61205,1169.5411 C 222.25555,1172.4008 227.88275,1178.4781 229.66375,1183.6367 C 230.40075,1185.7711 230.96615,1190.4644 230.92025,1194.0663 C 230.74815,1207.5771 222.58315,1217.4732 208.21215,1221.5888 L 201.78905,1223.4283 L 218.76985,1248.7939 C 236.08385,1274.6574 238.33715,1277.1892 245.18325,1278.4735 C 247.45515,1278.8998 248.56535,1279.6676 248.56535,1280.8127 C 248.56535,1282.3399 247.11195,1282.5123 234.60975,1282.4685 L 220.65405,1282.4196 L 213.01345,1270.4685 C 204.50155,1257.1547 194.96135,1243.1992 186.89835,1232.2674 L 181.55095,1225.0174 L 175.05815,1225.0174 L 168.56525,1225.0174 L 168.62175,1245.7674 C 168.69585,1273.0141 168.51425,1272.5192 179.81525,1276.2756 C 186.95775,1278.6497 188.56525,1279.5542 188.56525,1281.1989 C 188.56525,1283.083 188.15945,1283.1656 182.31525,1282.4718 C 174.34975,1281.5262 145.99815,1281.536 137.81525,1282.4872 C 131.97625,1283.166 131.56525,1283.0813 131.56525,1281.1989 z M 197.60625,1215.4126 C 205.07095,1213.1958 209.93515,1208.1984 211.43245,1201.2076 C 213.51755,1191.4732 210.43535,1181.9322 203.79555,1177.5676 C 198.60065,1174.1529 192.86405,1173.0702 179.81525,1173.0418 L 168.56525,1173.0174 L 168.56525,1195.0174 L 168.56525,1217.0174 L 180.38375,1217.0174 C 188.32055,1217.0174 193.97715,1216.4903 197.60625,1215.4126 z M 266.56525,1281.298 C 266.56525,1279.9146 268.45365,1278.5637 273.55735,1276.296 C 278.40525,1274.142 280.82985,1272.4517 281.46395,1270.7838 C 281.96705,1269.4608 288.33015,1254.9096 295.60435,1238.4479 C 302.87855,1221.9861 313.47495,1197.7174 319.15181,1184.5174 C 332.79061,1152.8043 331.42021,1152.9962 342.71481,1181.219 C 347.40271,1192.9331 357.94931,1218.5257 366.15171,1238.0915 L 381.06521,1273.6656 L 388.81521,1276.416 C 394.99071,1278.6076 396.56521,1279.5738 396.56521,1281.1715 C 396.56521,1283.0424 396.13361,1283.1304 390.11661,1282.486 C 381.34851,1281.547 356.59301,1281.5136 348.31521,1282.4296 C 342.09331,1283.1182 341.56521,1283.0283 341.56521,1281.2811 C 341.56521,1279.7693 343.38691,1278.8162 350.56521,1276.5721 C 355.51521,1275.0246 359.56521,1273.686 359.56521,1273.5974 C 359.56521,1273.0259 353.35451,1254.4885 351.58131,1249.7674 L 349.42151,1244.0174 L 326.65241,1244.0174 L 303.88325,1244.0174 L 301.19665,1250.7674 C 298.47085,1257.6158 294.56525,1270.5311 294.56525,1272.6968 C 294.56525,1273.349 295.57775,1274.1953 296.81525,1274.5775 C 305.98545,1277.4096 309.56525,1279.2626 309.56525,1281.1771 C 309.56525,1282.9901 309.14365,1283.122 305.37925,1282.486 C 299.87405,1281.5559 276.22895,1281.5433 270.81525,1282.4676 C 267.05505,1283.1096 266.56525,1282.9748 266.56525,1281.298 z M 337.15671,1213.0775 C 332.13081,1201.0106 327.78901,1190.9078 327.50821,1190.627 C 327.11661,1190.2354 312.46925,1222.7825 308.34755,1233.2028 C 307.66915,1234.9178 308.69095,1235.0174 326.96211,1235.0174 L 346.29461,1235.0174 L 337.15671,1213.0775 z M 583.56518,1281.1934 C 583.56518,1279.5671 585.10098,1278.6702 591.58128,1276.5121 C 595.99008,1275.0438 600.21528,1273.2245 600.97058,1272.4692 C 601.98608,1271.4537 602.53958,1265.9408 603.09538,1251.3067 C 603.94038,1229.0555 602.93888,1177.5842 601.61268,1175.1061 C 601.13668,1174.2166 596.88128,1172.2299 592.15618,1170.6911 C 585.86618,1168.6427 583.56518,1167.4412 583.56518,1166.2054 C 583.56518,1164.6609 585.98798,1164.5174 612.06518,1164.5174 C 637.09188,1164.5174 640.56518,1164.7056 640.56518,1166.0613 C 640.56518,1167.1135 637.88938,1168.4766 632.16248,1170.3416 C 627.54098,1171.8467 623.15348,1173.8084 622.41248,1174.7011 C 621.32468,1176.0115 621.06518,1185.4345 621.06518,1223.6346 C 621.06518,1264.392 621.27298,1271.1414 622.56518,1272.3622 C 623.39018,1273.1416 627.77768,1274.9948 632.31518,1276.4804 C 639.02728,1278.6781 640.56518,1279.5575 640.56518,1281.1977 C 640.56518,1283.0835 640.16128,1283.1657 634.31518,1282.4695 C 626.41948,1281.5293 595.64548,1281.5436 588.75948,1282.4907 C 583.98508,1283.1473 583.56518,1283.0425 583.56518,1281.1934 z M 659.56518,1281.1173 C 659.56518,1279.5141 660.69748,1278.7405 664.81518,1277.5303 C 667.70268,1276.6816 670.71118,1275.5784 671.50058,1275.0787 C 673.14878,1274.0356 675.11578,1276.3713 644.60758,1243.1446 C 633.30928,1230.8396 624.06518,1220.3976 624.06518,1219.9403 C 624.06518,1219.4829 633.29018,1210.7464 644.56518,1200.5258 C 666.26998,1180.8507 672.56518,1174.6931 672.56518,1173.1377 C 672.56518,1172.6112 669.64018,1171.2071 666.06518,1170.0174 C 661.52668,1168.5071 659.56518,1167.3509 659.56518,1166.1859 C 659.56518,1164.6763 661.75528,1164.5174 682.56518,1164.5174 C 703.12928,1164.5174 705.56518,1164.6895 705.56518,1166.1424 C 705.56518,1167.1282 704.44628,1167.9912 702.72048,1168.3363 C 694.43128,1169.9942 688.51088,1174.103 665.70088,1194.0281 C 652.93658,1205.1781 642.62178,1214.6494 642.77908,1215.0755 C 642.93648,1215.5016 655.43068,1228.998 670.54398,1245.0674 C 698.11058,1274.378 700.29938,1276.2831 708.81518,1278.3788 C 710.70648,1278.8442 711.56518,1279.6989 711.56518,1281.116 C 711.56518,1283.0638 711.19728,1283.1372 704.84298,1282.4567 C 695.97668,1281.5072 672.56408,1281.4855 665.31518,1282.42 C 659.94888,1283.1119 659.56518,1283.0249 659.56518,1281.1173 z M 739.56518,1281.1803 C 739.56518,1279.5593 741.20998,1278.6366 748.31518,1276.2718 C 754.87678,1274.0879 757.37928,1272.7539 758.32098,1270.9384 C 760.25688,1267.2058 759.63348,1175.2942 757.66388,1174.0778 C 756.89318,1173.6018 752.50568,1171.964 747.91388,1170.4382 C 742.16228,1168.527 739.56518,1167.1746 739.56518,1166.0907 C 739.56518,1164.6824 744.39048,1164.5174 785.56508,1164.5174 L 831.56508,1164.5174 L 831.56518,1179.2674 C 831.56518,1192.8141 831.41808,1194.0174 829.76208,1194.0174 C 828.40148,1194.0174 827.39538,1192.238 825.66278,1186.7674 C 821.62868,1174.0295 823.85718,1175.0174 799.15878,1175.0174 C 777.85268,1175.0174 777.79698,1175.0231 777.19548,1177.2674 C 776.86388,1178.5049 776.58638,1187.7299 776.57888,1197.7674 L 776.56518,1216.0174 L 792.81518,1216.0118 C 810.95888,1216.0056 816.09598,1215.1025 817.13518,1211.7363 C 819.89878,1202.7845 821.82448,1199.0174 823.63708,1199.0174 C 825.48288,1199.0174 825.56518,1199.9573 825.56518,1221.0174 C 825.56518,1242.0367 825.47978,1243.0174 823.64738,1243.0174 C 822.13848,1243.0174 821.16048,1241.3091 819.06168,1235.0067 C 817.48008,1230.2576 815.64128,1226.5933 814.54528,1226.0067 C 813.52188,1225.459 804.63258,1225.0174 794.63098,1225.0174 L 776.56518,1225.0174 L 776.56518,1247.4066 C 776.56518,1267.2968 776.76058,1270.0203 778.31518,1271.8072 C 779.27768,1272.9134 783.77768,1275.0252 788.31518,1276.5001 C 795.00008,1278.6729 796.56518,1279.5606 796.56518,1281.1791 C 796.56518,1283.0506 796.13938,1283.1305 789.81518,1282.4464 C 786.10268,1282.0448 776.31518,1281.7162 768.06518,1281.7162 C 759.81518,1281.7162 750.02768,1282.0448 746.31518,1282.4464 C 739.99228,1283.1304 739.56518,1283.0503 739.56518,1281.1803 z M 1027.5652,1281.1977 C 1027.5652,1279.5694 1029.0761,1278.6785 1035.4205,1276.5656 C 1048.4171,1272.2373 1047.0652,1278.3825 1047.0652,1223.6337 C 1047.0652,1182.6679 1046.8576,1175.8928 1045.5652,1174.6722 C 1044.7402,1173.893 1040.3527,1172.04 1035.8152,1170.5544 C 1029.8573,1168.6036 1027.5656,1167.3898 1027.5666,1166.1853 C 1027.5678,1164.6589 1030.6002,1164.5191 1063.3166,1164.5369 C 1101.202,1164.5576 1103.1732,1164.7581 1112.6385,1169.5545 C 1117.8121,1172.1762 1123.1287,1177.7284 1125.1903,1182.6626 C 1126.8677,1186.6773 1126.9849,1197.8844 1125.4046,1203.159 C 1124.0116,1207.8086 1118.6578,1214.3026 1113.5696,1217.5146 C 1111.5327,1218.8004 1107.1058,1220.6999 1103.7319,1221.7356 L 1097.5975,1223.6187 L 1113.5806,1247.5681 C 1122.3713,1260.7402 1130.9138,1272.7484 1132.564,1274.2529 C 1134.2141,1275.7574 1137.5895,1277.4983 1140.0647,1278.1216 C 1143.0963,1278.885 1144.5652,1279.7873 1144.5652,1280.8861 C 1144.5653,1282.3193 1142.8623,1282.5114 1130.5449,1282.4683 L 1116.5245,1282.4193 L 1106.5774,1266.9683 C 1101.1066,1258.4703 1092.4152,1245.6674 1087.2634,1238.5174 L 1077.8964,1225.5174 L 1071.1627,1225.2202 L 1064.4291,1224.9229 L 1064.7472,1247.9364 C 1065.0079,1266.8019 1065.3356,1271.2048 1066.5652,1272.3645 C 1067.3902,1273.1426 1071.7777,1274.9948 1076.3152,1276.4804 C 1083.0272,1278.6781 1084.5652,1279.5575 1084.5652,1281.1977 C 1084.5652,1283.0826 1084.1586,1283.1659 1078.3152,1282.4776 C 1070.3247,1281.5364 1041.953,1281.5439 1033.8069,1282.4893 C 1027.9757,1283.1661 1027.5652,1283.0812 1027.5652,1281.1977 z M 1093.3363,1215.4927 C 1099.4524,1213.6764 1104.3269,1209.8319 1106.2012,1205.3462 C 1106.9514,1203.5507 1107.5652,1198.988 1107.5652,1195.2068 C 1107.5652,1185.7321 1104.8997,1180.7929 1097.5439,1176.6371 C 1092.2949,1173.6717 1091.5125,1173.5305 1078.3187,1173.1681 L 1064.5652,1172.7904 L 1064.5652,1194.9039 L 1064.5652,1217.0174 L 1076.3837,1217.0174 C 1084.0624,1217.0174 1090.0006,1216.4833 1093.3363,1215.4927 z M 1189.5652,1281.2612 C 1189.5652,1279.7987 1191.4971,1278.6273 1197.9553,1276.1741 C 1202.5699,1274.4213 1206.9574,1272.2502 1207.7053,1271.3496 C 1208.8003,1270.031 1209.1211,1260.4901 1209.3523,1222.3647 L 1209.6394,1175.0174 L 1198.8523,1175.0738 C 1192.9194,1175.1049 1186.4902,1175.6674 1184.5652,1176.3238 C 1181.3802,1177.41 1180.7422,1178.3274 1177.4764,1186.5174 C 1174.6611,1193.5777 1173.4218,1195.5863 1171.7264,1195.837 C 1169.5891,1196.153 1169.5652,1195.9817 1169.5652,1180.337 L 1169.5652,1164.5174 L 1218.0652,1164.5174 L 1266.5652,1164.5174 L 1266.5652,1180.337 C 1266.5652,1195.9394 1266.5358,1196.1521 1264.423,1195.837 C 1262.7472,1195.587 1261.5845,1193.6801 1259.0831,1187.0797 C 1257.0522,1181.7205 1255.0275,1178.072 1253.5338,1177.0797 C 1251.8093,1175.9341 1247.8873,1175.423 1238.8277,1175.1633 L 1226.4732,1174.8092 L 1226.7692,1222.4711 L 1227.0652,1270.1331 L 1229.3544,1271.8591 C 1230.6135,1272.8084 1235.001,1274.867 1239.1044,1276.4337 C 1244.8419,1278.6243 1246.5652,1279.7302 1246.5652,1281.2218 C 1246.5652,1283.0015 1246.0915,1283.1008 1240.8152,1282.4262 C 1233.406,1281.479 1202.7819,1281.4821 1195.3152,1282.4308 C 1190.0763,1283.0964 1189.5652,1282.9924 1189.5652,1281.2612 z M 1365.5652,1281.3447 C 1365.5652,1280.0472 1367.6845,1278.456 1372.6749,1276.0068 L 1379.7846,1272.5174 L 1392.7313,1243.0174 C 1413.0527,1196.7137 1421.103,1178.1886 1424.8891,1169.0174 C 1427.8255,1161.9045 1428.7994,1160.4677 1430.8573,1160.213 C 1433.1766,1159.9259 1433.7541,1161.0061 1441.0137,1179.213 C 1445.2472,1189.8304 1455.7657,1215.3477 1464.3881,1235.9182 C 1481.7004,1277.2199 1479.1003,1273.135 1490.8152,1277.4381 C 1494.3136,1278.7231 1495.5652,1279.709 1495.5652,1281.1797 C 1495.5652,1283.0403 1495.1255,1283.1295 1489.1241,1282.4868 C 1480.2768,1281.5393 1455.5205,1281.4996 1447.3152,1282.4197 C 1441.0832,1283.1185 1440.5652,1283.0307 1440.5652,1281.2753 C 1440.5652,1279.7472 1442.3322,1278.845 1449.5652,1276.6798 C 1454.5152,1275.1981 1458.5652,1273.6313 1458.5652,1273.198 C 1458.5652,1272.147 1452.2618,1253.6303 1450.0784,1248.2674 L 1448.348,1244.0174 L 1425.6725,1244.0174 L 1402.9969,1244.0174 L 1400.385,1250.7674 C 1397.3023,1258.7338 1393.5652,1270.6733 1393.5652,1272.5553 C 1393.5652,1273.2853 1394.5777,1274.1953 1395.8152,1274.5775 C 1404.9854,1277.4096 1408.5652,1279.2626 1408.5652,1281.1771 C 1408.5652,1282.9901 1408.1435,1283.122 1404.3792,1282.486 C 1398.874,1281.5559 1375.2289,1281.5433 1369.8152,1282.4676 C 1366.0863,1283.1042 1365.5652,1282.9666 1365.5652,1281.3447 z M 1443.4549,1230.2674 C 1442.3333,1227.6549 1438.2542,1217.8674 1434.3903,1208.5174 C 1430.5264,1199.1674 1427.0589,1191.1887 1426.6847,1190.7869 C 1426.3105,1190.3852 1422.868,1197.3591 1419.0347,1206.2845 C 1415.2015,1215.21 1410.8467,1225.3262 1409.3574,1228.765 L 1406.6496,1235.0174 L 1426.0719,1235.0174 L 1445.4941,1235.0174 L 1443.4549,1230.2674 z M 1521.5652,1281.1697 C 1521.5652,1279.6517 1522.8136,1278.7701 1526.8152,1277.4623 C 1534.0268,1275.1054 1537.3313,1273.3229 1538.4846,1271.1681 C 1540.4897,1267.4214 1546.7003,1217.0727 1548.4946,1190.0174 C 1549.5748,1173.7294 1549.3645,1173.2252 1540.1288,1169.9647 C 1535.3506,1168.2778 1533.5652,1167.1605 1533.5652,1165.857 C 1533.5652,1164.1809 1534.6995,1164.105 1551.3152,1164.6696 C 1561.0777,1165.0013 1569.372,1165.5528 1569.747,1165.8951 C 1570.1221,1166.2373 1574.2973,1175.7424 1579.0253,1187.0174 C 1590.9882,1215.5457 1605.8953,1249.0174 1606.6378,1249.0174 C 1607.5555,1249.0174 1622.5465,1217.496 1632.7949,1194.0174 C 1637.7164,1182.7424 1642.5777,1171.6049 1643.5979,1169.2674 L 1645.4527,1165.0174 L 1655.259,1165.0114 C 1660.6524,1165.0081 1668.7777,1164.7164 1673.3152,1164.3632 C 1681.0496,1163.7611 1681.5652,1163.8429 1681.5652,1165.6725 C 1681.5652,1167.174 1679.7044,1168.3848 1673.4942,1170.9239 C 1669.0552,1172.7389 1665.1498,1174.9363 1664.8157,1175.807 C 1663.265,1179.8479 1673.6538,1268.9431 1676.1165,1272.7233 C 1677.053,1274.161 1679.9935,1275.6559 1684.5594,1277.0157 C 1690.2791,1278.7191 1691.5652,1279.4787 1691.5652,1281.1536 C 1691.5652,1283.055 1691.1811,1283.1514 1686.3152,1282.4708 C 1679.5463,1281.524 1651.6284,1281.5266 1644.8152,1282.4746 C 1640.0192,1283.1419 1639.5652,1283.0356 1639.5652,1281.2452 C 1639.5652,1279.7173 1641.2063,1278.6867 1647.0104,1276.5699 C 1651.1052,1275.0764 1654.9963,1273.2029 1655.6572,1272.4065 C 1657.0073,1270.7798 1655.9242,1258.7312 1650.1839,1211.5174 L 1646.9011,1184.5174 L 1643.643,1191.5174 C 1635.162,1209.7386 1622.3623,1238.6461 1613.5338,1259.5174 C 1606.1668,1276.9336 1603.3839,1282.5174 1602.0709,1282.5174 C 1600.7506,1282.5174 1598.3672,1277.6273 1592.0796,1262.0174 C 1584.7316,1243.7751 1557.6342,1181.7425 1557.5703,1183.0174 C 1557.5566,1183.2924 1556.6455,1194.9924 1555.5458,1209.0174 C 1554.446,1223.0424 1553.2559,1243.1324 1552.901,1253.6617 L 1552.2559,1272.8061 L 1555.1605,1274.2763 C 1556.7581,1275.0849 1560.4277,1276.5186 1563.3152,1277.4623 C 1567.3168,1278.7701 1568.5652,1279.6517 1568.5652,1281.1697 C 1568.5652,1283.0022 1568.1224,1283.106 1563.0249,1282.4691 C 1555.5496,1281.5351 1534.4144,1281.5065 1527.3152,1282.4208 C 1521.9921,1283.1063 1521.5652,1283.0135 1521.5652,1281.1697 z M 1796.5652,1281.1908 C 1796.5652,1279.6488 1798.1927,1278.6267 1804.049,1276.4908 C 1808.1651,1274.9896 1811.9581,1273.249 1812.4778,1272.6227 C 1814.3547,1270.3612 1818.7185,1238.5979 1822.0318,1203.08 C 1823.9098,1182.9483 1823.9892,1174.602 1822.3152,1173.2607 C 1821.6277,1172.7098 1818.2527,1171.2444 1814.8152,1170.0043 C 1810.2779,1168.3673 1808.5652,1167.2529 1808.5652,1165.9376 C 1808.5652,1164.235 1809.6359,1164.1602 1826.3152,1164.6976 C 1836.0777,1165.0121 1844.3269,1165.5502 1844.6468,1165.8934 C 1844.9667,1166.2366 1847.5805,1172.3674 1850.4552,1179.5174 C 1853.3299,1186.6674 1861.3738,1205.4851 1868.3305,1221.3345 L 1880.9791,1250.1515 L 1885.9325,1240.3345 C 1891.9804,1228.3484 1906.1153,1197.3886 1914.0413,1178.7674 L 1919.8939,1165.0174 L 1929.9796,1165.0114 C 1935.5267,1165.0081 1943.7777,1164.7164 1948.3152,1164.3632 C 1956.003,1163.7647 1956.5652,1163.8516 1956.5652,1165.6381 C 1956.5652,1167.1022 1954.7974,1168.2302 1949.0836,1170.4117 C 1944.9687,1171.9827 1941.0406,1173.9446 1940.3545,1174.7713 C 1939.5828,1175.7012 1939.2071,1178.6089 1939.3695,1182.3959 C 1939.9663,1196.3153 1947.7483,1262.9027 1949.6187,1270.0941 C 1950.6558,1274.0816 1952.2738,1275.1591 1960.8152,1277.5499 C 1965.3898,1278.8303 1966.5652,1279.5728 1966.5652,1281.1822 C 1966.5652,1283.0484 1966.1587,1283.1486 1961.3152,1282.4758 C 1954.4934,1281.5283 1926.5986,1281.5369 1919.7318,1282.4887 C 1914.6067,1283.1991 1914.4115,1283.1412 1914.7318,1281.0055 C 1914.9891,1279.2902 1916.4896,1278.2687 1921.3078,1276.5288 C 1929.8913,1273.4292 1930.5652,1272.7081 1930.5652,1266.6222 C 1930.5652,1259.7834 1922.1296,1186.2484 1921.2434,1185.3623 C 1920.8377,1184.9565 1900.7353,1229.823 1889.2522,1256.7633 C 1881.1619,1275.7441 1877.6145,1283.0103 1876.4371,1283.0133 C 1875.3498,1283.016 1874.0477,1280.9417 1872.5167,1276.7674 C 1867.4009,1262.8192 1838.071,1194.5865 1833.1719,1185.2363 C 1832.1559,1183.2972 1831.6857,1186.6942 1830.2676,1206.22 C 1829.3369,1219.0336 1828.0509,1238.852 1827.4096,1250.2611 C 1826.3098,1269.83 1826.3466,1271.1183 1828.0595,1273.0111 C 1829.0581,1274.1145 1830.2386,1275.0174 1830.6827,1275.0174 C 1831.1268,1275.0174 1833.9821,1275.9497 1837.0277,1277.0892 C 1841.2081,1278.6533 1842.5652,1279.6513 1842.5652,1281.1612 C 1842.5652,1283.0128 1842.1382,1283.1079 1836.8152,1282.4427 C 1829.3111,1281.5049 1809.6235,1281.4967 1802.3152,1282.4283 C 1797.0126,1283.1043 1796.5652,1283.008 1796.5652,1281.1908 z M 1989.5652,1281.229 C 1989.5652,1279.7821 1991.3357,1278.5528 1996.6126,1276.3356 L 2003.6599,1273.3747 L 2010.9935,1256.446 C 2015.027,1247.1353 2023.7045,1227.3674 2030.2769,1212.5174 C 2036.8492,1197.6674 2044.6358,1179.758 2047.5804,1172.7188 C 2055.4465,1153.9144 2054.8817,1153.4988 2069.0488,1188.5174 C 2075.279,1203.9174 2085.7842,1229.3424 2092.3936,1245.0174 L 2104.4109,1273.5174 L 2112.488,1276.3807 C 2118.8924,1278.651 2120.5652,1279.6524 2120.5652,1281.216 C 2120.5652,1283.0734 2120.1146,1283.1446 2112.8152,1282.4407 C 2102.9224,1281.4867 2078.7937,1281.4811 2071.3152,1282.431 C 2065.9789,1283.1088 2065.5652,1283.0166 2065.5652,1281.1499 C 2065.5652,1279.4957 2067.0751,1278.6779 2074.0652,1276.5458 C 2078.7402,1275.1198 2082.5652,1273.4701 2082.5652,1272.8798 C 2082.5652,1271.5824 2074.6717,1248.2392 2073.3972,1245.7674 C 2072.5783,1244.1793 2070.412,1244.0174 2049.975,1244.0174 L 2027.4551,1244.0174 L 2025.0376,1249.4839 C 2022.5422,1255.1265 2017.1151,1272.9257 2017.7225,1273.4755 C 2017.911,1273.6462 2021.2152,1274.9078 2025.0652,1276.2792 C 2030.5433,1278.2306 2032.1368,1279.25 2032.3943,1280.9682 C 2032.7035,1283.0307 2032.4531,1283.1231 2028.2584,1282.4941 C 2022.0657,1281.5655 2002.2531,1281.5191 1995.3152,1282.4171 C 1990.0422,1283.0996 1989.5652,1283.001 1989.5652,1281.229 z M 2067.6337,1230.2674 C 2066.5875,1227.6549 2062.3476,1217.4174 2058.2117,1207.5174 L 2050.692,1189.5174 L 2048.7016,1194.0174 C 2047.6069,1196.4924 2043.1271,1206.7299 2038.7466,1216.7674 L 2030.782,1235.0174 L 2050.159,1235.0174 L 2069.536,1235.0174 L 2067.6337,1230.2674 z M 2143.5652,1281.1791 C 2143.5652,1279.5622 2145.1369,1278.667 2151.8152,1276.4804 C 2156.3527,1274.9948 2160.7402,1273.1414 2161.5652,1272.3619 C 2162.8574,1271.1409 2163.0652,1264.3912 2163.0652,1223.6342 C 2163.0652,1185.4343 2162.8058,1176.0114 2161.7179,1174.701 C 2160.977,1173.8084 2156.5895,1171.8467 2151.9679,1170.3416 C 2146.241,1168.4766 2143.5652,1167.1135 2143.5652,1166.0613 C 2143.5652,1164.7056 2147.0385,1164.5174 2172.0652,1164.5174 C 2196.8337,1164.5174 2200.5652,1164.7154 2200.5652,1166.0296 C 2200.5652,1167.0307 2197.661,1168.5484 2191.9713,1170.5207 C 2186.8049,1172.3115 2182.976,1174.2499 2182.3707,1175.3808 C 2181.0461,1177.8559 2180.0639,1237.1535 2181.0303,1256.3016 C 2181.5551,1266.6985 2182.1856,1271.4949 2183.1548,1272.4642 C 2183.9129,1273.2222 2188.1403,1275.0438 2192.5492,1276.5121 C 2199.0042,1278.6618 2200.5652,1279.5706 2200.5652,1281.1791 C 2200.5652,1283.0508 2200.14,1283.1305 2193.8152,1282.4446 C 2185.069,1281.4962 2158.9777,1281.493 2150.3152,1282.4392 C 2143.9886,1283.1303 2143.5652,1283.0513 2143.5652,1281.1791 z M 443.48691,1051.2674 C 429.32961,1030.6751 322.78801,886.03416 318.81851,882.0174 C 317.50861,880.6919 317.40171,889.00953 317.90011,953.5174 C 318.27151,1001.5939 318.83601,1027.7877 319.55351,1030.2379 C 320.15271,1032.2842 321.63801,1034.6616 322.85411,1035.521 C 324.07021,1036.3804 331.47771,1039.1174 339.31521,1041.6032 L 353.56521,1046.1228 L 353.56521,1049.1989 L 353.56521,1052.2751 L 348.81521,1051.6739 C 346.20271,1051.3432 336.29501,1050.5788 326.79801,1049.9753 C 310.50955,1048.9401 286.73865,1049.6618 271.31525,1051.6597 C 266.56855,1052.2746 266.56525,1052.273 266.56525,1049.2788 C 266.56525,1046.342 266.84825,1046.1758 280.81525,1040.9085 C 288.65275,1037.9528 296.02475,1034.5916 297.19735,1033.4393 C 298.78965,1031.8746 299.49225,1029.5937 299.97215,1024.4308 C 301.41855,1008.8718 302.60955,970.50324 303.22955,919.49812 L 303.88615,865.47885 L 301.47575,861.74563 C 299.41195,858.54932 297.62715,857.4543 289.06525,854.13164 C 283.56525,851.99722 276.70275,849.48718 273.81525,848.55377 C 269.00885,847.00006 268.56525,846.60038 268.56525,843.82353 C 268.56525,840.94154 268.72725,840.82117 271.81525,841.40791 C 279.40825,842.8506 311.73665,843.27802 320.69261,842.05412 C 328.29191,841.01562 329.94861,841.0337 330.60271,842.16229 C 337.83061,854.63284 347.45341,868.71271 363.16361,889.80463 C 373.69721,903.94665 395.90561,933.7424 412.51561,956.0174 L 442.71551,996.5174 L 442.33711,932.5174 C 441.93971,865.31872 441.93061,865.18502 437.41781,860.36689 C 436.31001,859.18411 429.13991,855.63686 421.48441,852.48411 C 407.96451,846.91623 407.56521,846.66589 407.56521,843.75545 L 407.56521,840.75907 L 413.81521,841.51543 C 431.15891,843.61433 463.52608,843.61312 485.81518,841.51274 L 493.56518,840.78242 L 493.55988,844.64991 L 493.55448,848.5174 L 482.30988,852.41136 C 468.31448,857.2579 463.97258,859.40709 462.39188,862.27067 C 460.24468,866.16027 458.55178,913.86522 457.92038,988.2674 L 457.32008,1059.0174 L 453.06761,1059.0174 C 448.88831,1059.0174 448.72321,1058.8838 443.48691,1051.2674 z M 104.56525,1055.4499 C 103.19025,1055.2085 98.76985,1054.5245 94.741947,1053.9297 C 66.918047,1049.8213 47.242847,1034.0933 39.317147,1009.6239 C 36.996247,1002.4586 36.769347,995.97022 36.184147,920.0174 C 35.778347,867.355 35.496947,863.81712 31.356147,859.33234 C 30.246547,858.13055 23.314647,854.80253 15.951947,851.93674 C 2.9604465,846.88001 2.5652465,846.63888 2.5652465,843.76772 L 2.5652465,840.80924 L 10.815247,841.54008 C 34.330947,843.62324 71.941447,843.61845 94.315247,841.52944 L 102.56525,840.75915 L 102.56525,843.66587 C 102.56525,846.42249 102.08765,846.74662 93.315247,849.94226 C 77.972847,855.53132 69.918547,859.54874 67.909547,862.61439 C 66.219247,865.19362 65.988347,869.35616 65.144147,912.47298 C 64.161347,962.66481 65.028647,989.21013 68.020747,1000.5174 C 73.254347,1020.2947 84.900247,1031.3597 104.77315,1035.4363 C 114.75575,1037.484 134.20635,1037.5224 141.93425,1035.5095 C 159.36395,1030.9697 170.22905,1020.554 176.35025,1002.5174 L 179.06525,994.5174 L 179.00475,940.5174 C 178.93685,879.88832 177.95095,862.12127 174.44755,858.3921 C 172.15205,855.94865 166.66225,853.60684 153.31525,849.37771 C 145.06475,846.76343 144.56525,846.44568 144.56525,843.81128 C 144.56525,840.58949 144.24285,840.63528 157.06525,842.03631 C 168.84055,843.32293 203.75265,843.3265 214.56525,842.0422 C 226.73815,840.59632 226.56525,840.56962 226.56525,843.89547 C 226.56525,846.51519 226.00425,846.97894 220.31525,849.06157 C 211.30435,852.36035 203.37025,856.46134 201.06525,859.01156 C 199.12565,861.15763 199.04595,863.09958 198.42505,923.3709 C 197.83765,980.39242 197.61875,986.30083 195.77005,995.0174 C 192.45965,1010.6264 188.58495,1019.8022 181.09885,1029.761 C 172.64525,1041.0067 159.50865,1049.1056 143.29115,1053.07 C 135.35775,1055.0094 110.69215,1056.5252 104.56525,1055.4499 z M 789.56518,1054.9911 C 789.56518,1049.5236 724.88388,886.90135 713.22468,863.0554 C 709.48798,855.4128 706.57648,853.1845 695.51378,849.50027 C 688.00328,846.99903 687.56518,846.69236 687.56518,843.93528 C 687.56518,840.54031 687.20648,840.58665 702.06518,842.06175 C 714.87628,843.33356 751.38438,843.32036 763.06518,842.03968 C 775.95938,840.62598 775.56518,840.56482 775.56518,843.97886 C 775.56518,846.61844 775.10328,847.06352 771.31518,848.0739 C 760.43618,850.97561 748.67168,855.18425 747.50288,856.5925 C 746.43628,857.87775 746.60818,859.38939 748.49718,865.33197 C 752.75728,878.73431 789.31718,969.31377 800.78648,994.88215 L 803.19298,1000.2469 L 816.33608,967.38215 C 837.09758,915.46764 854.12448,867.93335 854.78088,860.0552 C 855.03408,857.0178 854.63948,856.40123 851.18418,854.43527 C 849.04968,853.22075 843.53718,850.94838 838.93418,849.38556 C 831.14678,846.74153 830.56518,846.35204 830.56518,843.78073 C 830.56518,840.58625 830.44498,840.6037 842.56518,842.03954 C 853.44708,843.32867 881.13048,843.33382 889.56518,842.04828 C 899.28028,840.56761 899.28468,840.56857 898.77708,844.0272 C 898.44618,846.28166 897.67408,847.19338 895.70028,847.66015 C 890.05178,848.99594 882.63938,853.23135 880.08188,856.58441 C 873.12808,865.70132 840.67378,943.77053 811.51728,1021.5174 L 798.76668,1055.5174 L 794.16588,1055.8222 C 791.21968,1056.0174 789.56518,1055.7185 789.56518,1054.9911 z M 1462.5652,1055.3781 C 1461.1902,1055.1762 1456.6902,1054.518 1452.5652,1053.9153 C 1448.4402,1053.3126 1440.9027,1051.4928 1435.8152,1049.8715 C 1424.7775,1046.3537 1425.5258,1049.9298 1429.0652,1017.6167 C 1430.4402,1005.0635 1431.5652,994.16827 1431.5652,993.40506 C 1431.5652,992.53735 1432.6627,992.0174 1434.4942,992.0174 C 1437.8455,992.0174 1437.3443,990.69418 1444.6184,1018.7444 L 1448.8264,1034.9714 L 1454.2535,1037.002 C 1466.9902,1041.7674 1485.4859,1042.9485 1498.5652,1039.8317 C 1516.9462,1035.4515 1528.9647,1022.1698 1530.255,1004.8111 C 1530.9073,996.03571 1529.6519,990.85979 1525.3016,984.3881 C 1519.9291,976.39573 1511.6771,970.77663 1486.599,958.0341 C 1458.8756,943.94743 1452.3185,939.84766 1443.4556,931.05922 C 1433.1437,920.83393 1428.5993,910.11878 1428.5771,895.9775 C 1428.5537,881.16254 1433.8763,868.43754 1444.4497,858.02943 C 1466.451,836.37222 1501.2999,831.34651 1540.4335,844.18719 L 1549.8019,847.26117 L 1549.0872,869.88929 C 1548.6942,882.33475 1548.0137,892.8971 1547.5751,893.36118 C 1545.834,895.20341 1543.2508,893.32147 1541.6128,889.0174 C 1540.6709,886.5424 1537.7501,878.33262 1535.1222,870.77344 L 1530.3441,857.02948 L 1524.091,855.09809 C 1508.9263,850.41418 1493.9538,850.02932 1483.2146,854.04738 C 1475.6763,856.86783 1466.569,865.27338 1462.8533,872.83983 C 1460.3966,877.8426 1460.0652,879.64651 1460.0652,888.0174 C 1460.0652,899.42914 1461.9115,904.02374 1469.5509,911.62321 C 1476.1765,918.21417 1481.3865,921.24271 1505.2133,932.35346 C 1529.8662,943.84946 1535.9448,947.48394 1545.1621,956.23945 C 1557.1685,967.64433 1562.6445,982.15088 1561.1537,998.60266 C 1559.866,1012.8125 1555.1891,1022.6116 1544.6747,1033.1293 C 1538.4773,1039.3286 1535.3023,1041.5872 1527.5652,1045.3004 C 1517.0253,1050.3588 1505.6454,1053.4649 1492.0652,1054.9902 C 1483.4768,1055.9548 1467.8902,1056.1597 1462.5652,1055.3781 z M 546.56518,1049.2154 C 546.56518,1046.2173 546.70918,1046.1356 559.31518,1041.979 C 576.51528,1036.3076 578.20988,1035.4471 579.58368,1031.6865 C 581.50008,1026.4408 582.77528,971.7971 582.09358,924.13927 C 581.33288,870.95443 580.60848,860.28062 577.59438,857.83991 C 576.43458,856.90078 568.97858,853.98064 561.02548,851.35071 C 546.82758,846.65578 546.56518,846.5163 546.56518,843.664 L 546.56518,840.75898 L 553.81518,841.52952 C 573.41778,843.61291 615.04338,843.62055 638.31518,841.54502 L 646.56518,840.80924 L 646.56518,843.82999 C 646.56518,846.83166 646.47248,846.88164 631.87608,851.74712 C 620.58578,855.51055 616.74168,857.23982 615.26278,859.22068 C 613.54568,861.5205 613.24798,864.47341 612.49638,886.65763 C 611.44018,917.83372 611.42738,984.07762 612.47258,1010.7138 C 613.41758,1034.7976 613.42738,1034.8225 623.27638,1038.0602 C 627.01028,1039.2877 633.77768,1041.6228 638.31518,1043.2493 C 646.18618,1046.0707 646.56518,1046.346 646.56518,1049.2408 L 646.56518,1052.2751 L 641.81518,1051.6649 C 639.20268,1051.3294 628.04508,1050.5791 617.02038,1049.9977 C 598.17768,1049.0039 567.74558,1049.7671 551.81518,1051.6329 L 546.56518,1052.2478 L 546.56518,1049.2154 z M 930.74178,1049.0077 L 931.06518,1045.7269 L 946.40698,1040.5326 C 954.84498,1037.6758 962.15758,1034.7037 962.65728,1033.9279 C 965.41008,1029.6538 965.62348,1022.5052 965.34878,943.74116 C 965.08818,868.99968 964.92698,862.21707 963.35528,859.81902 C 961.97618,857.71484 958.63898,856.20811 946.10528,852.03076 C 930.69878,846.89591 930.56518,846.82586 930.56518,843.87889 L 930.56518,840.90637 L 946.81518,841.71188 C 967.64098,842.74422 1056.5522,842.75721 1080.136,841.73135 L 1098.2067,840.9453 L 1098.2067,865.98135 L 1098.2067,891.0174 L 1095.6166,891.0174 C 1093.1836,891.0174 1092.7303,890.16339 1088.1456,876.94268 C 1085.4612,869.20159 1082.5449,861.99891 1081.665,860.93674 C 1080.6966,859.76778 1077.7797,858.59022 1074.2747,857.9533 C 1066.1677,856.48011 998.0736,857.10597 996.5133,858.66802 C 995.70958,859.47261 995.19828,870.97524 994.81298,896.91802 L 994.26198,934.0174 L 1019.1636,933.99372 C 1048.5435,933.96578 1066.768,932.76977 1069.9908,930.6581 C 1071.4114,929.72729 1073.2768,926.27514 1075.0215,921.34808 C 1081.6001,902.7705 1081.4728,903.0174 1084.4757,903.0174 L 1087.2426,903.0174 L 1087.2652,941.5174 L 1087.2879,980.0174 L 1084.5482,980.0174 C 1081.9348,980.0174 1081.607,979.43135 1077.4369,967.30112 C 1075.0324,960.30717 1072.1652,953.55563 1071.0652,952.29771 C 1067.9084,948.68767 1060.8944,948.0174 1026.2745,948.0174 L 994.25678,948.0174 L 994.87628,989.2674 C 995.21708,1011.9549 995.77578,1031.4798 996.118,1032.656 C 996.7273,1034.7502 997.3134,1034.81 1024.4027,1035.542 C 1055.3129,1036.3771 1076.3281,1035.7217 1080.3287,1033.7976 C 1084.4834,1031.7994 1086.867,1027.3266 1092.156,1011.604 C 1096.9554,997.33671 1097.1258,997.0174 1099.9412,997.0174 L 1102.8197,997.0174 L 1102.1865,1002.2674 C 1101.8383,1005.1549 1101.2649,1017.5815 1100.9123,1029.8821 L 1100.2712,1052.2469 L 1093.6682,1051.6314 C 1090.0366,1051.2929 1070.1902,1050.5515 1049.5652,1049.9838 C 1014.0847,1049.0073 960.27658,1049.807 938.24178,1051.6383 L 930.41828,1052.2885 L 930.74178,1049.0077 z M 1169.5652,1049.2272 C 1169.5652,1046.3494 1169.9553,1046.0667 1177.8152,1043.2493 C 1182.3527,1041.6228 1189.1095,1039.2913 1192.8303,1038.0681 C 1196.5512,1036.845 1200.2518,1035.188 1201.0539,1034.3858 C 1204.4463,1030.9935 1204.6349,1025.8031 1204.3488,943.74116 C 1204.0881,868.99968 1203.927,862.21707 1202.3553,859.81902 C 1200.9762,857.71484 1197.639,856.20811 1185.1053,852.03076 C 1169.633,846.87399 1169.5652,846.83826 1169.5652,843.83622 L 1169.5652,840.82103 L 1175.8152,841.55143 C 1187.8212,842.95449 1208.1932,843.51251 1224.5652,842.88674 C 1279.4227,840.78999 1283.8186,840.7593 1293.7722,842.40353 C 1332.0366,848.72442 1350.4449,870.93391 1344.4814,903.58374 C 1340.906,923.15873 1325.4308,937.63816 1301.2607,944.02322 L 1292.6512,946.29761 L 1320.8582,988.29941 C 1336.372,1011.4004 1351.0395,1032.5098 1353.4526,1035.2091 C 1358.3721,1040.7121 1362.61,1043.1681 1370.3152,1044.9814 C 1375.0172,1046.0879 1375.5652,1046.4935 1375.5651,1048.8671 L 1375.565,1051.5174 L 1351.5387,1051.4228 L 1327.5125,1051.3282 L 1320.2067,1039.3806 C 1306.7751,1017.415 1284.9782,985.31708 1266.8225,960.7674 L 1257.3932,948.0174 L 1245.3723,948.0174 L 1233.3513,948.0174 L 1233.8598,985.7674 C 1234.3933,1025.3784 1234.9929,1031.2426 1238.87,1034.7675 C 1240.0774,1035.8652 1247.4777,1038.8828 1255.3152,1041.4733 C 1269.4801,1046.1551 1269.5652,1046.2014 1269.5652,1049.2155 L 1269.5652,1052.2478 L 1264.3152,1051.6378 C 1248.0598,1049.7489 1219.0699,1048.9964 1200.1964,1049.9734 C 1189.1243,1050.5466 1177.7027,1051.2928 1174.8152,1051.6317 L 1169.5652,1052.2478 L 1169.5652,1049.2272 z M 1276.5652,934.97677 C 1293.4441,932.31373 1302.9472,926.5941 1308.4651,915.77725 C 1311.4816,909.86394 1311.919,907.99102 1312.3438,899.16803 C 1312.7398,890.94498 1312.4553,888.01409 1310.7001,882.23553 C 1306.8677,869.61842 1296.0911,860.72083 1280.6872,857.45575 C 1276.2701,856.51949 1267.3226,856.04635 1253.8152,856.03476 L 1233.5652,856.0174 L 1233.5652,896.0174 L 1233.5652,936.0174 L 1251.8152,936.00985 C 1261.8527,936.00569 1272.9902,935.5408 1276.5652,934.97677 z M 1625.5652,1049.2784 C 1625.5652,1046.3239 1625.7587,1046.2152 1639.3152,1041.5565 C 1646.8777,1038.9576 1654.06,1036.1994 1655.2759,1035.427 C 1659.9812,1032.4382 1660.0716,1030.7262 1659.9687,946.5174 C 1659.8898,881.97514 1659.6153,866.60235 1658.4687,862.5174 L 1657.0652,857.5174 L 1641.3152,852.16663 C 1625.6449,846.84294 1625.5652,846.80058 1625.5652,843.79914 L 1625.5652,840.78242 L 1633.3152,841.51039 C 1655.646,843.60795 1698.5844,843.61621 1718.3152,841.52675 L 1725.5652,840.75898 L 1725.5652,843.66696 C 1725.5652,846.5124 1725.2802,846.66852 1712.3152,850.92544 C 1694.8015,856.67589 1693.8624,857.20002 1692.5871,861.93609 C 1689.8953,871.93264 1689.1309,996.32874 1691.5973,1023.0174 C 1692.3625,1031.2985 1692.7932,1032.7926 1694.9538,1034.6624 C 1696.3171,1035.8421 1703.7624,1038.9169 1711.4989,1041.4953 C 1725.4641,1046.1495 1725.5652,1046.205 1725.5652,1049.2155 L 1725.5652,1052.2478 L 1720.3152,1051.6363 C 1703.8765,1049.7213 1674.5223,1048.9733 1655.3986,1049.9822 C 1644.2152,1050.5721 1632.9277,1051.3294 1630.3152,1051.6649 C 1625.5695,1052.2745 1625.5652,1052.2723 1625.5652,1049.2784 z M 1805.5652,1049.2784 C 1805.5652,1046.3825 1805.9098,1046.1587 1815.8152,1042.6213 C 1831.9013,1036.8768 1836.7349,1034.1498 1839.0652,1029.5044 C 1841.0101,1025.6273 1841.0731,1023.2184 1841.3533,942.1364 L 1841.6414,858.75541 L 1822.8533,859.47149 C 1805.1605,860.14582 1795.9338,861.13762 1793.2379,862.65495 C 1789.32,864.85994 1787.1853,868.64548 1781.9784,882.62176 C 1776.428,897.52007 1776.151,898.0174 1773.404,898.0174 L 1770.5652,898.0174 L 1770.5652,869.5174 L 1770.5652,841.0174 L 1774.3152,841.04127 C 1776.3777,841.0544 1786.1652,841.50488 1796.0652,842.04235 C 1805.9652,842.57981 1832.9652,843.01956 1856.0652,843.01956 C 1879.1652,843.01956 1906.1652,842.57981 1916.0652,842.04235 C 1925.9652,841.50488 1935.7527,841.0544 1937.8152,841.04127 L 1941.5652,841.0174 L 1941.5652,869.5174 L 1941.5652,898.0174 L 1938.7264,898.0174 C 1935.9794,898.0174 1935.7024,897.52007 1930.152,882.62176 C 1924.3257,866.98289 1922.4809,864.07613 1917.0652,862.00126 C 1914.1042,860.86685 1890.4697,859.11387 1877.2773,859.05017 L 1870.4893,859.0174 L 1870.7773,942.2674 C 1871.1115,1038.9035 1870.2119,1030.819 1881.2439,1036.3247 C 1884.9956,1038.1971 1892.2277,1041.2055 1897.3152,1043.0101 C 1906.1963,1046.1603 1906.5652,1046.4107 1906.5652,1049.2902 C 1906.5652,1052.2711 1906.5379,1052.2855 1902.0472,1051.67 C 1899.5623,1051.3294 1888.125,1050.5557 1876.631,1049.9507 C 1856.9092,1048.9126 1825.4956,1049.7258 1810.3152,1051.6675 C 1805.5701,1052.2744 1805.5652,1052.272 1805.5652,1049.2784 z M 1951.5652,1049.3579 C 1951.5652,1046.6304 1952.1718,1046.2221 1962.8704,1041.7492 C 1969.0883,1039.1497 1974.8627,1036.4591 1975.7026,1035.7701 C 1976.5424,1035.0811 1980.5177,1026.8674 1984.5366,1017.5174 C 1988.5554,1008.1674 2001.7217,978.2424 2013.795,951.0174 C 2033.5438,906.4843 2053.4612,860.51959 2061.2436,841.5174 C 2064.0656,834.6271 2064.1728,834.51282 2068.0878,834.22509 L 2072.0652,833.93279 L 2080.4748,855.22509 C 2095.1341,892.34076 2131.7963,980.89123 2153.6836,1032.0465 L 2155.6215,1036.5757 L 2169.5933,1041.4208 C 2183.3806,1046.202 2183.5652,1046.3057 2183.5652,1049.2705 C 2183.5652,1052.272 2183.5604,1052.2745 2178.8152,1051.6778 C 2162.9988,1049.6892 2130.4497,1048.833 2112.2694,1049.9275 C 2101.7071,1050.5633 2091.6027,1051.3437 2089.8152,1051.6618 C 2086.7282,1052.211 2086.5652,1052.0859 2086.5652,1049.1672 C 2086.5652,1046.396 2086.9823,1045.9837 2090.8152,1044.9654 C 2095.8577,1043.6257 2116.7656,1036.9636 2117.752,1036.3823 C 2118.4612,1035.9643 2105.3005,996.07564 2101.7652,987.92769 L 2099.7737,983.33799 L 2085.4194,982.68135 C 2067.2147,981.84857 2051.8727,981.84472 2032.8486,982.66815 L 2017.8139,983.3189 L 2013.7842,992.91815 C 2007.2773,1008.4184 1999.6795,1034.5829 2001.2576,1036.0561 C 2001.7018,1036.4708 2008.0277,1038.9356 2015.3152,1041.5335 C 2028.3319,1046.1736 2028.5652,1046.3098 2028.5652,1049.2649 C 2028.5652,1052.1797 2028.4488,1052.2546 2024.8152,1051.6803 C 2012.1788,1049.6829 1987.8442,1048.8584 1973.3798,1049.9375 C 1964.9568,1050.5659 1956.6027,1051.341 1954.8152,1051.66 C 1951.7661,1052.2041 1951.5652,1052.0618 1951.5652,1049.3579 z M 2094.5652,967.72861 C 2094.5652,967.56977 2086.7882,948.71405 2077.283,925.82702 L 2060.0008,884.21422 L 2044.533,919.82672 C 2036.0257,939.4136 2027.8467,958.26931 2026.3574,961.72831 L 2023.6496,968.0174 L 2059.1074,968.0174 C 2078.6092,968.0174 2094.5652,967.88744 2094.5652,967.72861 z M 2221.5652,1049.2716 C 2221.5652,1046.3816 2221.9148,1046.1467 2230.8152,1043.0555 C 2242.3193,1039.0599 2251.658,1034.6773 2253.8654,1032.2382 C 2254.7911,1031.2153 2256.0023,1027.9857 2256.5569,1025.0614 C 2257.1823,1021.7637 2257.5652,989.17537 2257.5652,939.25139 L 2257.5652,858.75836 L 2238.8152,859.47296 C 2212.0478,860.49312 2207.3634,861.63943 2204.0895,867.9705 C 2203.2549,869.58435 2200.585,876.21761 2198.1563,882.71109 C 2195.7276,889.20456 2193.4279,895.3049 2193.0458,896.2674 C 2192.6079,897.37073 2191.2822,898.0174 2189.4582,898.0174 L 2186.5652,898.0174 L 2186.5652,869.37574 L 2186.5652,840.73407 L 2198.8152,841.51364 C 2231.8413,843.61534 2305.402,843.62175 2343.8151,841.52626 L 2357.5651,840.77618 L 2357.5651,869.39679 L 2357.5651,898.0174 L 2354.8151,898.00796 C 2352.1899,897.99895 2351.8216,897.34031 2346.6999,883.49632 C 2341.3478,869.02972 2339.1003,864.90937 2335.5145,862.9903 C 2331.9676,861.0921 2324.093,860.17016 2305.3152,859.45466 L 2286.5652,858.74022 L 2286.5728,935.62881 C 2286.577,978.59793 2287.0068,1016.2267 2287.547,1020.9255 C 2288.9244,1032.9057 2290.9921,1034.7064 2312.3152,1042.4954 C 2322.2225,1046.1144 2322.5651,1046.3404 2322.5651,1049.2563 C 2322.5651,1052.1792 2322.4485,1052.2549 2318.8151,1051.6902 C 2316.7527,1051.3697 2305.4935,1050.594 2293.7948,1049.9666 C 2273.6524,1048.8862 2241.6905,1049.6907 2226.3152,1051.6651 C 2221.5675,1052.2748 2221.5652,1052.2736 2221.5652,1049.2716 z M 2029.0156,822.6108 C 2022.7532,819.88305 2017.7816,811.00767 2018.9695,804.67603 C 2019.8533,799.96489 2024.8813,794.444 2030.1049,792.4491 C 2033.8946,791.0018 2035.2692,790.91174 2038.553,791.89561 C 2051.8672,795.88463 2055.7043,810.07272 2045.9384,819.20378 C 2040.8356,823.97482 2034.8936,825.17111 2029.0156,822.6108 z M 2093.0652,822.2061 C 2084.6665,816.82359 2081.3645,808.17381 2085.0141,801.11618 C 2087.1893,796.90975 2093.0686,792.20118 2097.087,791.44734 C 2104.7236,790.0147 2113.2171,795.78584 2115.7081,804.09997 C 2119.2395,815.88689 2103.208,828.70636 2093.0652,822.2061 z M 1.5652465,723.2674 L 1.5652465,712.5174 L 783.06518,712.84421 L 1564.5652,713.17103 L 1564.5783,706.34421 C 1564.6213,684.01433 1575.2507,660.06783 1592.9492,642.42864 C 1612.4462,622.99707 1633.1713,611.10307 1695.5652,583.53819 C 1742.7589,562.68858 1772.5652,548.17584 1772.5652,546.04681 C 1772.5652,543.20939 1765.2046,529.19015 1753.1235,509.0174 C 1736.8151,481.78612 1733.0652,473.93429 1733.0652,467.0174 C 1733.0652,463.15991 1733.8094,460.02421 1735.557,456.5174 C 1739.4201,448.76601 1755.826,433.13024 1775.8152,418.14918 C 1785.5777,410.83258 1793.5652,404.4373 1793.5652,403.93744 C 1793.5652,403.23922 1782.9126,388.16064 1780.9725,386.11272 C 1780.7617,385.89014 1777.5044,387.75929 1773.734,390.26639 C 1756.77,401.5467 1744.9092,405.04791 1730.5376,403.01763 C 1710.3921,400.17168 1697.7192,387.17916 1693.8715,365.4266 C 1691.0167,349.28776 1694.8324,328.06477 1703.6564,311.00325 L 1707.5427,303.4891 L 1703.5783,294.2936 C 1698.0699,281.51691 1695.5632,271.2704 1695.575,261.57906 C 1695.5867,251.917 1697.6474,246.80698 1705.4306,237.13994 C 1711.9932,228.98883 1711.9483,229.68184 1707.449,206.0174 C 1705.3652,195.05724 1704.4483,186.98937 1704.3187,178.47194 C 1704.1441,166.99409 1704.264,166.20703 1706.8647,161.76932 C 1708.3658,159.20787 1712.2264,155.08655 1715.4438,152.61081 C 1722.3442,147.30106 1724.5652,143.19628 1724.5652,135.75276 C 1724.5652,127.2859 1726.243,120.16952 1730.0871,112.33119 C 1736.1603,99.947673 1747.7684,90.033323 1770.6956,77.648013 L 1779.3259,72.985863 L 1781.5216,63.483939 C 1786.3313,42.669859 1794.1132,33.245029 1814.8065,23.171539 C 1850.7014,5.6979391 1880.2497,3.3871291 1901.6648,16.378839 L 1907.2645,19.775929 L 1914.1648,16.825769 C 1929.1369,10.424649 1948.6246,5.9824991 1974.9199,2.9768591 C 2006.8018,-0.6673409 2016.8712,0.4780791 2028.2096,9.0387091 C 2033.069,12.707539 2044.7371,26.033119 2045.7494,29.069959 C 2046.0132,29.861499 2048.3017,29.145159 2052.6053,26.923949 C 2058.242,24.014689 2060.0414,23.585179 2066.7252,23.553599 C 2073.6694,23.520789 2074.7908,23.801399 2078.7252,26.556339 C 2081.1722,28.269809 2084.4699,31.977199 2086.2857,35.056339 C 2088.0569,38.059929 2089.8569,41.088409 2090.2857,41.786299 C 2090.8887,42.767869 2092.0842,42.541429 2095.5652,40.786299 C 2099.257,38.924879 2101.6955,38.517399 2109.1429,38.517399 C 2117.8429,38.517399 2118.5854,38.698289 2126.9932,42.865539 C 2141.5687,50.089869 2155.163,64.518763 2163.022,81.106163 C 2170.4838,96.855233 2172.3694,112.64302 2168.5652,127.5174 C 2167.4652,131.81836 2166.5652,135.6752 2166.5652,136.08816 C 2166.5652,136.50111 2168.5803,137.81446 2171.0431,139.00672 C 2186.8879,146.67706 2196.5332,172.44426 2200.5935,217.94972 C 2201.959,233.25407 2201.4883,236.94289 2195.9568,254.28869 C 2190.6406,270.95931 2190.461,273.82493 2194.5433,276.84312 C 2202.7435,282.90575 2210.3762,291.20662 2212.8431,296.74483 C 2220.6355,314.23865 2220.4723,343.43928 2212.4942,359.18648 C 2206.5665,370.88647 2193.2982,383.43231 2184.1404,385.99633 C 2176.4626,388.146 2164.9742,386.804 2150.2156,382.0334 C 2143.1483,379.74897 2136.8292,378.08587 2136.1731,378.33762 C 2133.5191,379.35606 2122.3001,398.01541 2124.34,398.0185 C 2124.7388,398.0191 2133.1652,402.33014 2143.0652,407.5986 C 2172.6717,423.35421 2186.3723,433.52485 2190.1415,442.54567 C 2192.187,447.44135 2191.8958,456.73603 2189.4485,464.66206 C 2188.2844,468.4325 2184.1809,478.2674 2180.3297,486.5174 C 2166.3309,516.50542 2152.5652,547.53821 2152.5652,549.10831 C 2152.5652,550.93352 2158.4625,553.81451 2199.0652,571.82494 C 2274.1214,605.1181 2308.1594,623.39103 2325.8372,639.88103 C 2336.1278,649.48006 2346.2546,666.12337 2351.1713,681.5174 C 2355.2046,694.14521 2356.5466,702.39647 2357.2299,718.7674 L 2357.8664,734.0174 L 1179.7158,734.0174 L 1.5652465,734.0174 L 1.5652465,723.2674 z M 1858.8654,662.68349 C 1858.7407,660.91342 1855.462,655.47019 1850.1314,648.18349 C 1845.4375,641.76714 1836.7961,629.3174 1830.9283,620.5174 C 1825.0605,611.7174 1817.2374,600.0174 1813.5438,594.5174 C 1809.8501,589.0174 1804.9228,581.3674 1802.5942,577.5174 C 1797.9736,569.87776 1792.8989,564.0174 1790.9042,564.0174 C 1790.2065,564.0174 1789.1274,564.96698 1788.5062,566.12759 C 1787.5505,567.91343 1788.1347,569.7219 1792.3071,577.89363 C 1798.6017,590.22173 1812.9972,613.67684 1831.0905,641.08513 C 1846.3276,664.16654 1848.4271,666.28414 1855.5652,665.76966 C 1858.7371,665.54105 1859.0465,665.25172 1858.8654,662.68349 z M 1961.3574,663.42733 C 1977.2815,660.14229 1990.228,654.34679 1996.0582,647.89351 C 2001.2267,642.17256 2001.3553,640.21878 1997.0838,632.31541 C 1991.3009,621.61573 1991.4089,621.71314 1986.7277,622.97365 C 1982.0489,624.23353 1979.6347,627.55605 1977.2042,636.08023 C 1976.3319,639.13978 1974.5681,643.18978 1973.2848,645.08023 L 1970.9514,648.5174 L 1960.3572,648.42113 C 1951.3008,648.33884 1949.059,647.97592 1944.914,645.92113 C 1938.4234,642.70349 1938.1861,640.46889 1943.6999,634.48712 C 1949.8456,627.81977 1952.749,626.52897 1958.18,628.04955 C 1961.9136,629.09487 1962.8903,629.03442 1965.0415,627.6249 C 1970.6065,623.97856 1976.1041,608.31926 1975.3067,598.38548 C 1974.4106,587.22262 1968.5515,581.27562 1965.0744,587.99969 C 1963.7905,590.48235 1963.6027,592.76594 1964.139,599.37473 C 1964.6788,606.02758 1964.4908,608.26054 1963.1772,610.80081 C 1960.2337,616.49298 1956.4539,617.24758 1947.0652,614.0174 C 1933.6854,609.41406 1927.5652,612.9916 1927.5652,625.41612 C 1927.5652,640.81457 1938.8849,660.87238 1949.3566,664.02899 C 1953.1479,665.17187 1952.8214,665.18824 1961.3574,663.42733 z M 2047.384,659.34229 C 2061.539,649.59333 2084.3264,617.78994 2090.6071,599.0174 C 2092.0055,594.83802 2092.9726,588.86626 2093.316,582.29067 C 2093.7885,573.24249 2093.6518,571.98788 2092.1301,571.40392 C 2089.7506,570.49083 2088.2615,572.42705 2085.5055,580.0174 C 2079.8015,595.72684 2057.8933,621.98346 2043.5652,630.28212 C 2039.9902,632.35272 2033.2402,635.20772 2028.5652,636.62658 C 2019.4557,639.39129 2016.5652,641.2185 2016.5652,644.21223 C 2016.5652,647.44416 2020.2412,653.49192 2024.5981,657.42818 C 2033.0532,665.06684 2038.4179,665.5175 2047.384,659.34229 z M 1919.7496,655.35054 C 1922.5742,652.79431 1921.9319,648.81173 1917.2173,639.64943 C 1909.9507,625.52754 1906.6968,621.82328 1897.3097,616.98648 C 1879.4874,607.80327 1867.4414,596.50953 1849.0789,571.7674 C 1842.1068,562.37296 1837.4846,557.0174 1836.3487,557.0174 C 1833.63,557.0174 1834.0926,560.42443 1838.5768,573.42928 C 1852.4863,613.7683 1869.5826,637.47946 1893.8684,650.11435 C 1909.0839,658.03033 1915.3808,659.30427 1919.7496,655.35054 z M 1920.7121,606.92314 C 1927.0295,602.86924 1943.7115,585.33753 1950.2466,575.88422 C 1959.9482,561.85025 1962.5543,554.91309 1959.1775,552.11059 C 1958.4142,551.47715 1952.9017,550.52734 1946.9275,549.9999 C 1921.4689,547.75225 1903.106,538.61829 1879.9073,516.66312 C 1868.9198,506.26455 1860.3765,494.06677 1852.1395,477.0174 C 1843.1773,458.46688 1844.8273,457.45241 1860.3999,471.93883 C 1882.6492,492.63626 1900.8917,506.74008 1913.037,512.63407 L 1920.0088,516.0174 L 1940.6055,516.0174 C 1963.7614,516.0174 1968.6228,515.14795 1975.6949,509.74176 C 1981.4382,505.35134 1984.5652,499.17744 1984.5652,492.22815 C 1984.5652,482.23921 1978.8387,477.08118 1965.2489,474.82927 C 1960.0859,473.97374 1957.0652,474.08487 1949.9409,475.39244 C 1938.6817,477.45894 1935.0362,477.41519 1930.0652,475.15392 C 1918.6925,469.98058 1923.0852,462.80165 1938.6405,461.13958 C 1944.1348,460.5525 1947.5515,460.93619 1958.1821,463.33411 C 1969.3335,465.84949 1971.6304,466.08719 1975.2697,465.10245 C 1980.9089,463.57662 1985.278,459.70812 1986.6918,454.98903 C 1988.1802,450.02145 1986.2209,446.67237 1980.2372,443.95557 C 1974.4554,441.33043 1970.8105,441.54341 1962.0652,445.0174 C 1953.391,448.46316 1949.3197,448.72278 1942.4149,446.27044 C 1937.5137,444.52968 1937.4687,444.53323 1929.7411,447.27044 C 1925.4757,448.78127 1921.0408,450.0174 1919.8856,450.0174 C 1918.7304,450.0174 1915.0344,447.9924 1911.6724,445.5174 C 1908.3104,443.0424 1905.2969,441.0174 1904.9759,441.0174 C 1904.6548,441.0174 1902.4436,442.41672 1900.0621,444.12701 C 1895.7605,447.21621 1895.7155,447.22442 1893.213,445.37701 C 1890.3838,443.28838 1890.4868,441.23622 1893.748,434.72711 C 1896.4928,429.24864 1899.4879,428.43781 1905.5789,431.52432 C 1912.5899,435.07709 1915.551,434.78986 1921.059,430.02273 C 1929.2201,422.95937 1933.3408,423.37266 1941.7179,432.09471 C 1949.107,439.78815 1950.8483,439.83583 1958.0833,432.54285 C 1966.2079,424.35303 1970.6164,424.06025 1981.0652,431.01654 C 1984.3652,433.21351 1987.8022,435.01247 1988.7029,435.01422 C 1989.6037,435.01597 1993.2976,433.63367 1996.9117,431.94244 C 2000.5257,430.25122 2004.4983,429.01372 2005.7396,429.19244 C 2009.3589,429.71357 2012.5652,435.46809 2012.5652,441.44278 C 2012.5652,449.29383 2014.2696,451.0174 2022.0333,451.0174 L 2028.388,451.0174 L 2034.2266,444.61563 C 2044.1887,433.69265 2061.8238,403.32808 2065.065,391.5174 C 2066.1098,387.71017 2067.0015,378.75636 2067.505,367.0174 C 2068.205,350.69367 2068.667,347.23241 2071.4318,337.59397 C 2074.7194,326.13314 2075.2228,319.84472 2073.5686,310.90389 C 2072.5658,305.48368 2068.7532,300.49593 2066.2052,301.2707 C 2063.5071,302.09109 2060.5652,310.3754 2060.5652,317.15256 C 2060.5652,323.00873 2060.2148,324.28377 2057.8152,327.1585 C 2052.9487,332.98859 2049.2152,335.93979 2042.1808,339.51673 C 2034.2018,343.57403 2031.0935,343.86231 2027.8797,340.84309 C 2025.0467,338.18162 2024.9548,335.4589 2027.5652,331.5174 C 2030.2031,327.5343 2030.1361,327.25728 2026.0652,325.31601 C 2019.7181,322.28927 2021.8875,319.67662 2032.6033,317.44232 C 2036.5957,316.60987 2040.5829,315.53565 2041.4637,315.05517 C 2044.1764,313.57541 2049.2577,307.72102 2051.4651,303.53221 C 2054.7893,297.22408 2054.1511,294.36474 2048.5927,290.6637 C 2044.8671,288.18306 2044.0764,288.62724 2043.9469,293.2735 C 2043.5596,307.16573 2030.7349,316.45776 2018.8197,311.47926 C 2011.7188,308.51233 2007.5652,302.26703 2007.5652,294.55724 C 2007.5652,288.95946 2006.2482,288.72894 1999.3943,293.12709 C 1996.3574,295.07586 1994.3045,297.20787 1993.8954,298.83802 C 1993.3246,301.11208 1994.0804,302.19887 1999.9043,307.47833 C 2003.5683,310.79982 2006.5659,314.27938 2006.5656,315.2107 C 2006.565,317.58158 2002.7134,320.0174 1998.9651,320.0174 C 1994.0199,320.0174 1993.5902,321.47355 1995.7189,331.0174 C 1996.7617,335.6924 1997.9776,345.4502 1998.421,352.70141 C 1999.2955,367.00263 1998.6305,365.21683 2006.8832,375.42726 C 2007.8831,376.66436 2009.125,379.56259 2009.6429,381.86777 C 2010.4171,385.31359 2010.2403,386.72225 2008.6486,389.7882 C 2006.5426,393.84471 2002.3421,398.46893 1998.1567,401.33846 C 1996.6958,402.34004 1994.3736,404.94469 1992.9963,407.12658 C 1989.3475,412.90658 1987.302,413.52289 1978.0901,411.61783 C 1967.2843,409.38313 1964.0404,409.55319 1960.0968,412.56112 C 1954.9582,416.48051 1950.4953,414.72094 1946.6985,407.27864 C 1945.511,404.95105 1943.5107,402.37256 1942.2533,401.54867 C 1940.1685,400.18268 1939.3106,400.28487 1932.5161,402.7084 C 1923.5259,405.91516 1921.1619,405.53035 1915.0088,399.85868 C 1909.5693,394.84465 1907.6691,389.66596 1909.7038,385.40057 C 1910.7262,383.25728 1911.8969,382.43806 1914.2659,382.20824 C 1916.9547,381.94739 1917.6999,382.37712 1919.0346,384.95824 C 1919.9047,386.64078 1920.8704,388.0174 1921.1806,388.0174 C 1921.4908,388.0174 1924.5167,385.54442 1927.9049,382.52189 C 1931.4881,379.32538 1935.0065,377.02451 1936.3152,377.02189 C 1940.359,377.01382 1944.7622,383.09547 1946.1111,390.55196 C 1947.1488,396.28825 1948.299,398.00822 1952.1823,399.63076 C 1959.2245,402.5732 1967.4387,397.91466 1969.6431,389.72812 C 1970.5309,386.4312 1970.3309,384.16354 1968.4989,376.74891 C 1966.1561,367.26744 1966.1666,368.6541 1968.1939,336.5174 C 1968.7619,327.51449 1968.521,325.27104 1965.7775,314.0174 C 1961.7167,297.36031 1961.2194,292.73836 1962.4983,283.54312 C 1964.0399,272.45981 1966.2992,268.04394 1973.2192,262.58914 C 1980.2351,257.05866 1994.264,250.03722 2004.5652,246.90044 C 2018.5704,242.63578 2034.2007,244.59529 2046.033,252.0991 C 2049.663,254.40117 2051.3986,254.98272 2052.5262,254.27479 C 2054.8613,252.80878 2057.451,245.12681 2057.501,239.5174 C 2057.5569,233.26351 2055.1256,227.92682 2045.7396,213.70072 C 2038.8994,203.33317 2035.565,195.59381 2035.5654,190.0859 C 2035.5655,188.67322 2036.4702,181.9731 2037.5759,175.19672 C 2039.8273,161.39765 2039.3272,154.28875 2035.5572,146.50091 C 2031.1717,137.44164 2020.6229,128.04287 2011.8914,125.41506 C 2008.1839,124.29926 2005.0348,124.32071 1992.2702,125.54871 C 1967.155,127.96487 1965.7496,127.83498 1946.7094,121.3378 C 1932.0857,116.34765 1929.0941,115.65164 1922.0652,115.60412 C 1912.4714,115.53927 1884.6341,118.53706 1875.5928,120.60872 C 1854.1232,125.52814 1837.67,141.48085 1830.7528,164.08476 C 1828.059,172.88769 1826.2639,188.69 1827.0858,196.36526 C 1827.9521,204.45439 1826.914,208.12145 1818.5503,226.5174 C 1814.7995,234.7674 1811.19,243.5424 1810.5293,246.0174 C 1809.6228,249.41288 1809.5411,258.73996 1810.1966,284.0174 C 1811.4537,332.50179 1811.4159,333.9048 1808.7359,338.24122 C 1807.5026,340.23667 1804.4438,343.07057 1801.9385,344.53878 C 1794.7543,348.74898 1793.3107,354.5699 1795.5724,370.20701 C 1796.9864,379.9835 1798.9837,383.51071 1804.4438,385.87425 C 1809.9099,388.24037 1811.201,387.74397 1815.6333,381.57216 C 1821.6817,373.14991 1824.1956,374.53682 1823.7764,386.06461 C 1823.3233,398.52635 1829.1254,420.67969 1837.6735,439.12555 L 1842.5894,449.7337 L 1838.6483,461.12555 C 1836.4807,467.39107 1833.0557,478.77516 1831.0374,486.42354 C 1825.986,505.56515 1826.2576,511.61502 1832.7816,525.27044 C 1848.793,558.78405 1867.9774,581.7442 1896.4072,601.4184 C 1910.3579,611.07274 1913.2313,611.72353 1920.7121,606.92314 z M 1930.6916,356.35459 C 1926.0974,350.781 1920.6315,339.8078 1919.9841,334.85853 C 1919.4799,331.00432 1919.8952,329.73225 1923.6863,323.5174 C 1927.0786,317.95635 1928.0437,315.33541 1928.381,310.7674 C 1928.922,303.44074 1927.3798,303.20058 1920.354,309.5174 C 1916.2918,313.16964 1914.6388,314.0174 1911.5795,314.0174 C 1905.4994,314.0174 1904.8407,312.03054 1909.0008,306.23986 C 1910.952,303.52405 1913.2145,299.70763 1914.0287,297.75893 C 1915.4073,294.45962 1915.3674,294.03562 1913.4489,291.59664 C 1912.3157,290.15608 1910.0186,288.269 1908.3442,287.40312 C 1904.4399,285.38411 1903.5013,286.68222 1904.2563,293.05697 C 1904.6459,296.34628 1904.2959,298.78265 1903.0596,301.38791 C 1900.7963,306.15752 1893.2154,312.80479 1889.1748,313.56282 C 1884.1345,314.50839 1875.2935,310.68284 1871.0142,305.70459 C 1867.5684,301.69589 1867.4288,301.24032 1867.7401,295.0174 C 1868.0461,288.89931 1867.9312,288.49839 1865.7851,288.1939 C 1863.134,287.81777 1857.9,292.8354 1856.9357,296.67749 C 1855.5694,302.12116 1862.0426,312.0174 1866.9696,312.0174 C 1869.3688,312.0174 1868.8903,314.78317 1865.9892,317.68434 C 1863.7741,319.89938 1862.7845,320.18951 1858.9269,319.7547 C 1853.2174,319.11116 1850.2374,316.37523 1846.1424,308.0174 L 1842.9576,301.5174 L 1837.9822,301.81758 C 1833.3796,302.09526 1832.6803,301.81646 1828.6525,298.09798 L 1824.2983,294.0782 L 1824.8061,286.7978 C 1825.5238,276.50922 1828.6269,269.1449 1835.2661,261.9737 C 1847.9415,248.28276 1873.5025,241.75456 1895.8735,246.49474 C 1905.6001,248.55569 1919.8107,256.90541 1931.0066,267.13788 C 1937.2297,272.8254 1938.024,274.28884 1939.9973,283.70247 C 1941.2167,289.51983 1941.1081,290.83109 1938.2991,304.21723 L 1935.2982,318.5174 L 1937.4509,331.5174 C 1939.8504,346.0077 1940.0113,350.88392 1938.2588,356.00522 C 1936.6327,360.75678 1934.405,360.85963 1930.6916,356.35459 z M 1888.0085,295.79489 C 1890.2564,292.58561 1890.0291,287.33605 1887.5857,286.02838 C 1884.7166,284.49285 1880.5727,285.86734 1879.4906,288.71351 C 1876.9413,295.41883 1884.1021,301.37204 1888.0085,295.79489 z M 1853.4799,281.5174 C 1857.977,277.22787 1859.9414,276.0174 1862.4056,276.0174 C 1865.3499,276.0174 1865.5652,276.25589 1865.5652,279.5174 C 1865.5652,281.4424 1865.6777,283.01206 1865.8152,283.00553 C 1865.9527,282.999 1868.5402,282.32934 1871.5652,281.5174 C 1874.5902,280.70546 1879.2423,280.0358 1881.9031,280.02927 L 1886.741,280.0174 L 1886.0652,276.0174 L 1885.3894,272.0174 L 1889.0304,272.0174 C 1891.2663,272.0174 1894.091,272.98214 1896.3504,274.5174 C 1901.0676,277.7228 1901.5652,277.66595 1901.5652,273.92169 C 1901.5652,267.38965 1894.5319,260.93965 1883.1586,257.04174 C 1876.4657,254.74786 1872.4979,254.55171 1863.9989,256.09455 C 1854.085,257.89423 1846.227,263.78295 1841.7132,272.7952 C 1838.5843,279.04254 1838.3601,281.4869 1840.649,284.3968 C 1843.8688,288.49007 1846.8776,287.81484 1853.4799,281.5174 z M 2028.7308,603.70916 C 2040.7211,597.75853 2057.9965,586.42567 2062.7307,581.40483 C 2073.5045,569.97875 2086.788,548.27576 2091.0778,535.09062 C 2093.3793,528.01665 2093.2152,522.18568 2090.1189,501.0174 C 2086.7158,477.75175 2085.6871,473.00139 2083.9035,472.31699 C 2081.7532,471.49181 2080.1583,473.58541 2076.8409,481.58831 C 2072.5324,491.98211 2067.2933,499.41571 2057.1272,509.55931 C 2040.2725,526.37667 2008.4628,544.73856 1988.8662,548.96237 C 1973.5534,552.26285 1971.1128,553.18232 1970.7427,555.79 C 1970.4103,558.13188 1983.0542,583.50742 1988.4903,591.40855 C 1991.9543,596.44326 1998.01,602.06022 2004.4067,606.17181 C 2010.9828,610.3987 2016.3457,609.85574 2028.7308,603.70916 z M 1990.3748,394.76146 C 1992.9026,392.66524 1994.7345,387.07366 1994.0106,383.66381 C 1993.2186,379.93311 1991.1166,377.35388 1987.2304,375.34426 L 1984.3909,373.87588 L 1985.0789,380.30115 C 1985.6109,385.26863 1985.4038,387.42881 1984.1661,389.82225 C 1983.2856,391.52496 1982.5652,393.89668 1982.5652,395.09274 C 1982.5652,396.99939 1982.954,397.18964 1985.7199,396.63646 C 1987.455,396.28945 1989.5497,395.4457 1990.3748,394.76146 z M 1747.2097,359.92433 C 1750.9574,358.06653 1754.0615,355.02501 1760.8152,346.59281 C 1765.7811,340.39273 1769.5652,334.72817 1769.5652,333.4945 C 1769.5652,331.89979 1768.536,330.91649 1765.7013,329.80299 L 1761.8374,328.2852 L 1757.5582,333.25302 C 1749.9593,342.07481 1743.3004,344.30352 1738.0946,339.7674 C 1736.1826,338.10138 1735.2659,335.97926 1734.5625,331.59114 C 1733.4502,324.65143 1732.7715,323.7487 1728.9969,324.18922 C 1726.5835,324.47088 1725.9114,325.29705 1724.255,330.0174 C 1723.1936,333.0424 1722.1,338.46668 1721.8248,342.07135 C 1721.3243,348.62785 1722.7175,353.11271 1726.7927,358.06329 C 1731.43,363.69681 1738.3306,364.32581 1747.2097,359.92433 z M 2169.2898,324.78864 C 2172.7394,323.66036 2177.3636,321.16986 2179.6622,319.2024 C 2183.8097,315.65229 2183.8098,315.65189 2183.2834,309.84574 C 2182.9198,305.83646 2181.6953,302.10153 2179.3272,297.77837 C 2174.2721,288.55011 2171.5475,288.75458 2163.4117,298.97276 C 2153.1854,311.81637 2137.0077,312.22465 2124.732,299.94891 C 2119.1387,294.3556 2117.1222,289.69168 2117.1953,282.5174 C 2117.308,271.45193 2124.4767,261.4213 2134.7379,257.97121 C 2141.8852,255.56811 2142.9053,252.97976 2139.198,246.65383 C 2133.9228,237.65232 2123.0662,232.84783 2116.5917,236.64963 C 2110.6007,240.16756 2103.0736,253.88567 2100.4681,266.03469 C 2097.9325,277.85774 2108.4565,301.54167 2121.428,313.20415 C 2127.572,318.72814 2138.4069,324.53045 2146.2101,326.47547 C 2153.1546,328.20644 2160.4767,327.67129 2169.2898,324.78864 z M 2028.7566,294.49666 C 2029.6156,292.61129 2029.504,291.57289 2028.2337,289.63421 C 2025.8193,285.9494 2022.5833,285.27677 2020.3773,288.00115 C 2017.8991,291.06157 2018.1039,293.64699 2021.0585,296.60162 C 2023.1279,298.67106 2023.9014,298.90784 2025.6081,297.99446 C 2026.739,297.3892 2028.1558,295.81519 2028.7566,294.49666 z M 2054.29,278.76647 C 2054.7287,274.87437 2054.4134,273.91407 2051.6709,270.79056 C 2048.0812,266.70215 2043.773,264.44365 2035.6139,262.37302 C 2030.4789,261.06987 2029.0948,261.08281 2023.0242,262.49067 C 2015.4162,264.25509 2013.5652,265.36873 2013.5652,268.18167 C 2013.5652,269.57359 2011.8198,270.88415 2007.2138,272.95072 C 2000.9706,275.75186 1999.5652,277.25487 1999.5652,281.13057 C 1999.5652,284.25681 2001.5758,284.23877 2010.3578,281.03375 C 2019.8663,277.56357 2023.0997,277.35531 2030.6337,279.72784 C 2038.0162,282.05268 2038.1022,282.02894 2037.735,277.7674 C 2037.4539,274.50369 2037.6889,274.0174 2039.5479,274.0174 C 2040.8094,274.0174 2043.8086,276.19157 2046.8745,279.32864 C 2049.7294,282.24982 2052.4536,284.31395 2052.9282,283.9156 C 2053.4029,283.51725 2054.0157,281.20014 2054.29,278.76647 z M 2127.7207,203.2674 C 2127.9689,197.28438 2127.6334,194.95086 2125.4566,187.5174 C 2121.9039,175.38547 2116.8469,166.11446 2110.1036,159.37083 C 2104.3464,153.61341 2103.3276,153.03212 2094.0112,150.18922 C 2083.3958,146.9499 2082.3103,146.71487 2078.8152,146.89892 C 2077.1823,146.9849 2076.5652,147.63568 2076.5652,149.27165 C 2076.5652,150.83182 2078.8581,153.51046 2084.012,157.97138 C 2093.0516,165.79539 2096.7155,170.54972 2103.5535,183.32836 C 2111.9272,198.97663 2119.3023,207.00367 2125.3152,207.01366 C 2127.2216,207.01683 2127.5889,206.44477 2127.7207,203.2674 z M 1787.7285,157.80549 C 1793.4,154.61792 1795.6418,150.34523 1796.6987,140.70923 C 1797.8152,130.5304 1800.696,124.57392 1806.4598,120.52655 C 1810.4503,117.7244 1811.3064,117.52975 1818.9051,117.69687 C 1823.3932,117.79558 1828.1608,118.02058 1829.4999,118.19687 C 1831.6217,118.47621 1832.0715,117.96663 1832.9999,114.23168 C 1834.4202,108.51781 1845.2599,95.107523 1853.2235,89.212033 C 1864.3532,80.972763 1870.7295,79.623053 1884.7498,82.538713 C 1896.8087,85.046473 1901.619,86.966513 1911.1378,93.071483 C 1922.1204,100.11523 1924.361,100.81308 1927.5925,98.196413 C 1931.2321,95.249193 1929.2377,92.358633 1919.6372,86.666783 C 1910.3294,81.148473 1907.5652,78.580373 1907.5652,75.451293 C 1907.5652,67.936063 1921.6297,68.521053 1938.0055,76.717413 C 1946.0134,80.725513 1957.5652,88.627013 1957.5652,90.096383 C 1957.5652,92.410813 1964.7049,105.85703 1966.2483,106.44928 C 1967.3786,106.88303 1968.9483,106.09587 1970.9553,104.08879 C 1973.5542,101.4899 1974.0233,100.1862 1974.3811,94.568203 C 1975.2023,81.671553 1972.8799,77.623393 1959.6896,68.959083 C 1948.3708,61.524079 1945.1353,60.811459 1932.9865,63.077689 C 1927.5298,64.095583 1921.2247,64.948433 1918.9752,64.972913 C 1911.8878,65.050013 1899.6448,61.303609 1893.1218,57.061679 C 1874.9564,45.248729 1865.8296,44.424219 1848.0652,52.991309 C 1838.1703,57.763209 1831.9227,62.900609 1832.9041,65.458153 C 1833.5376,67.109153 1834.6008,67.198233 1845.8959,66.546763 L 1858.1976,65.837223 L 1861.3814,68.516213 C 1865.323,71.832863 1865.3496,73.054443 1861.5736,77.355033 C 1856.6051,83.013913 1848.3021,88.111543 1841.866,89.454643 C 1826.3136,92.700123 1792.6525,119.43724 1780.5553,138.15396 C 1773.6434,148.84806 1772.912,155.51343 1778.3279,158.45208 C 1782.0261,160.45872 1783.1445,160.3818 1787.7285,157.80549 z M 2062.9104,134.22658 C 2070.9033,128.83218 2075.6333,126.82157 2081.6044,126.28013 C 2088.6227,125.64373 2096.3202,127.9854 2101.1502,132.22618 C 2103.5592,134.34133 2104.6725,134.81998 2104.963,133.8655 C 2105.1887,133.12404 2105.6293,131.72498 2105.9421,130.75646 C 2108.631,122.43124 2093.2326,108.58966 2078.8893,106.43876 C 2073.1876,105.58374 2059.9113,107.44559 2048.6818,110.67502 C 2040.7898,112.94465 2040.189,112.98694 2038.4318,111.39669 C 2034.3974,107.74559 2037.1692,95.025543 2044.2788,84.564733 C 2049.7626,76.496003 2062.8404,62.382229 2065.6632,61.486289 C 2068.5421,60.572559 2068.0561,57.178719 2064.9341,56.395149 C 2059.4673,55.023069 2037.0464,64.865313 2030.1564,71.661713 C 2025.6678,76.089403 2022.0007,83.437653 2020.3483,91.315443 C 2018.8094,98.652393 2020.9667,104.40936 2027.6626,110.83399 C 2031.9153,114.91436 2032.6859,116.28737 2033.6477,121.49723 C 2035.0902,129.31163 2036.7764,132.39817 2041.3261,135.55221 C 2044.5911,137.81567 2045.8911,138.10217 2051.5784,137.81158 C 2056.9543,137.5369 2058.9329,136.91093 2062.9104,134.22658 z M 115.56525,618.42314 C 114.19025,618.18318 108.79025,617.26853 103.56525,616.39057 C 59.009747,608.90391 24.221447,582.17497 10.020747,544.5174 C 1.4262465,521.7264 0.3266465,491.86782 7.207447,468.12372 C 21.833547,417.65206 71.318847,381.63414 133.95325,375.87171 C 147.90495,374.58813 171.05015,375.75417 188.21685,378.60547 L 198.06525,380.24123 L 198.06525,411.17416 L 198.06525,442.10709 L 195.07585,441.81224 C 192.19275,441.52789 191.91665,441.03704 187.31615,428.0174 C 184.69255,420.5924 180.76245,410.78702 178.58265,406.22766 C 174.12365,396.90107 173.25805,396.29018 160.31365,393.33369 C 155.04505,392.13032 148.28555,391.67989 135.56525,391.68452 C 120.71315,391.68993 116.85485,392.0206 110.06525,393.87005 C 79.946247,402.07429 58.450247,422.69281 47.879247,453.5174 C 41.837447,471.13534 39.727247,501.73848 43.150947,522.09118 C 49.326947,558.80556 69.937747,586.5889 99.35675,597.85638 C 111.66935,602.57214 117.53745,603.47963 135.06525,603.37868 C 150.26825,603.29111 156.67935,602.48736 169.31525,599.08475 L 173.56525,597.94031 L 173.56525,563.43111 L 173.56525,528.9219 L 171.08435,526.62268 C 169.71995,525.35812 162.40745,521.93743 154.83435,519.02117 C 147.26135,516.10491 139.60275,513.134 137.81525,512.41916 C 135.14275,511.35039 134.56525,510.57734 134.56525,508.06843 C 134.56525,504.34563 133.15205,504.41534 164.41125,506.59611 C 182.83905,507.88171 189.82785,507.96769 202.05295,507.05919 C 210.30975,506.44559 221.45275,505.66719 226.81525,505.32941 L 236.56525,504.71528 L 236.56525,507.84855 C 236.56525,510.88537 236.15285,511.17873 223.16775,517.37838 C 213.68375,521.90646 209.22915,524.60218 207.91775,526.60692 C 206.19355,529.24279 206.06365,532.20905 206.04215,569.43947 L 206.01905,609.44003 L 199.04215,611.26765 C 180.10005,616.22961 163.79255,618.26519 140.56525,618.56703 C 128.19025,618.72785 116.94025,618.66309 115.56525,618.42314 z M 371.06521,616.98542 C 360.72801,614.81316 352.62331,612.04133 344.06521,607.75136 C 301.84175,586.58557 277.95395,537.55624 283.52465,483.49295 C 286.73285,452.35868 297.24125,428.67092 316.56525,409.01363 C 336.33551,388.90249 358.87091,378.79974 390.38201,375.92124 C 441.79911,371.22434 485.38648,395.42887 503.60778,438.7967 C 521.19318,480.6512 514.26798,539.15256 487.48678,574.98091 C 470.36358,597.88862 447.52871,612.15333 419.45701,617.47846 C 407.75441,619.69839 382.76391,619.44377 371.06521,616.98542 z M 423.14371,602.64333 C 461.14948,590.38998 479.81048,545.10356 473.49898,480.44108 C 468.75428,431.82987 451.64021,402.5628 422.02711,392.41793 C 411.36601,388.76564 393.60391,387.92283 381.89481,390.51365 C 350.51921,397.45595 329.13801,422.87777 323.03671,460.49475 C 321.18141,471.93331 321.17641,497.80744 323.02641,513.0174 C 329.48051,566.07815 350.11161,596.53462 385.06521,604.60141 C 394.66641,606.81721 413.14491,605.86701 423.14371,602.64333 z M 554.74048,612.0012 L 555.06518,608.6793 L 570.93798,603.38292 C 579.66798,600.46991 587.85818,597.40024 589.13838,596.56143 C 593.86408,593.46501 593.91958,592.50872 594.31308,507.34524 C 594.70488,422.52278 594.13438,404.59611 590.90548,400.27126 C 588.99778,397.71622 587.61408,397.12423 566.81518,389.96504 C 554.78258,385.82326 554.56518,385.69486 554.56518,382.72762 L 554.56518,379.70679 L 569.31518,380.38254 C 630.97658,383.2075 659.18368,383.20632 726.56518,380.37598 L 742.06518,379.72491 L 742.06518,407.37116 L 742.06518,435.0174 L 739.02138,435.0174 C 736.07798,435.0174 735.88368,434.72853 733.13548,426.2674 C 727.76328,409.72749 724.42958,401.97461 722.00728,400.38745 C 718.18938,397.88589 696.19708,396.89907 660.46158,397.62585 L 627.85798,398.28892 L 627.21158,410.31016 C 626.85608,416.92184 626.56518,435.98575 626.56518,452.6744 L 626.56518,483.0174 L 661.31518,483.00985 C 695.12028,483.0025 706.63428,482.23819 710.64888,479.73503 C 712.40568,478.6396 715.09248,472.51413 721.60038,454.7674 C 723.56278,449.41586 723.92918,449.0174 726.88708,449.0174 L 730.06518,449.0174 L 730.06518,492.0174 L 730.06518,535.0174 L 726.95028,535.0174 L 723.83538,535.0174 L 718.56898,519.93407 C 713.21998,504.61383 711.50468,501.79519 706.73538,500.48842 C 705.26678,500.08602 686.56718,499.55735 665.18068,499.31358 L 626.29608,498.87038 L 626.75538,546.9353 C 627.00798,573.37101 627.53638,595.32191 627.92958,595.71507 C 628.32268,596.10823 649.29128,596.4496 674.52638,596.47366 C 719.56258,596.51659 720.46048,596.4788 723.23678,594.42338 C 727.38498,591.35232 729.81558,586.41795 735.59478,569.33586 C 740.74328,554.11785 740.79708,554.0174 743.78778,554.0174 L 746.79818,554.0174 L 746.19948,560.7674 C 745.87008,564.4799 745.30328,578.26634 744.93988,591.40393 L 744.27898,615.29045 L 736.17208,614.68465 C 731.71328,614.35146 709.33498,613.56588 686.44238,612.93892 C 646.87438,611.85528 594.52908,612.6026 563.74048,614.6907 L 554.41568,615.32311 L 554.74048,612.0012 z M 843.74088,612.05067 C 844.05628,608.8782 844.35308,608.68509 854.56518,605.00586 C 873.84948,598.05813 879.61198,594.80882 881.74708,589.67882 C 882.79568,587.1594 883.11988,567.58088 883.34368,493.2674 L 883.62438,400.0174 L 868.84478,400.0432 C 841.11588,400.0916 827.52288,402.58078 824.44708,408.17334 C 823.73808,409.46257 820.41498,417.7174 817.06258,426.5174 C 811.04608,442.31049 810.92588,442.52145 807.76628,442.83076 L 804.56518,443.14412 L 804.56518,411.42463 L 804.56518,379.70514 L 819.81518,380.37074 C 884.37148,383.18838 916.03568,383.18886 980.31518,380.37315 L 995.56518,379.70514 L 995.56518,411.36127 L 995.56518,443.0174 L 992.30108,443.0174 L 989.03698,443.0174 L 982.72468,426.13129 C 978.21188,414.0589 975.59558,408.46259 973.54698,406.49988 C 968.98678,402.13099 962.38788,400.98913 937.81518,400.31703 L 915.56518,399.70845 L 915.59888,483.61293 C 915.63378,570.61742 916.16398,585.92484 919.33108,591.36794 C 921.58418,595.24023 929.90068,599.62416 945.06518,604.93336 C 955.82988,608.70214 956.07218,608.85435 956.38958,612.04854 L 956.71398,615.31256 L 950.88958,614.69398 C 947.68618,614.35376 934.79078,613.54152 922.23308,612.88899 C 900.48878,611.75909 869.84028,612.51808 849.24088,614.6966 L 843.41648,615.31256 L 843.74088,612.05067 z M 1041.7406,612.02052 L 1042.0652,608.72259 L 1058.7423,603.09099 C 1067.9146,599.99362 1076.3307,596.63462 1077.4446,595.62656 C 1081.4629,591.99003 1081.649,587.14622 1081.351,493.93632 C 1081.0246,391.80645 1081.7539,399.70484 1072.3294,396.2318 C 1069.4341,395.16483 1061.3277,392.39284 1054.3152,390.07181 C 1041.6733,385.88753 1041.5652,385.82577 1041.5652,382.78698 L 1041.5652,379.7222 L 1050.8152,380.37168 C 1091.3094,383.21496 1103.1492,383.21384 1144.3152,380.36282 L 1153.5652,379.7222 L 1153.5652,382.76505 L 1153.5652,385.80789 L 1136.6364,391.52246 C 1118.3688,397.68894 1116.0074,399.19853 1114.5055,405.67075 C 1114.0146,407.78641 1113.6022,426.0549 1113.5891,446.2674 L 1113.5652,483.0174 L 1167.1549,483.0174 L 1220.7447,483.0174 L 1220.3492,444.2674 C 1220.0786,417.75751 1219.5843,404.64889 1218.7843,402.76786 C 1217.0929,398.79046 1212.9329,396.64796 1195.8152,390.93819 C 1180.5695,385.85283 1180.5652,385.85055 1180.5652,382.78466 L 1180.5652,379.71791 L 1189.8152,380.38038 C 1228.8912,383.17893 1246.2346,383.17226 1283.39,380.34443 L 1291.7148,379.71085 L 1291.39,383.03683 L 1291.0652,386.36282 L 1274.4388,391.94011 C 1265.2943,395.00762 1257.1065,398.11448 1256.2437,398.84424 C 1252.7485,401.80068 1252.5081,408.87918 1252.7893,500.55079 C 1253.0174,574.94376 1253.3056,590.9851 1254.4538,593.21921 C 1256.1694,596.55751 1258.329,597.56265 1276.8152,603.62705 L 1291.5652,608.46579 L 1291.5652,611.88405 L 1291.5652,615.30231 L 1285.8152,614.7049 C 1282.6527,614.37632 1270.0154,613.58903 1257.7323,612.95537 C 1236.5844,611.86438 1206.7454,612.59945 1186.2406,614.71652 L 1180.4161,615.3179 L 1180.7406,612.05124 C 1181.0646,608.79107 1181.095,608.77424 1196.0652,603.57956 C 1204.3152,600.7168 1212.0236,597.85731 1213.1949,597.22515 C 1217.2866,595.01691 1218.6958,588.83301 1219.6226,569.0174 C 1220.0985,558.8424 1220.5053,538.9299 1220.5266,524.7674 L 1220.5652,499.0174 L 1166.9522,499.0174 L 1113.3393,499.0174 L 1113.8701,540.7674 C 1114.1779,564.97713 1114.8582,584.61803 1115.4895,587.5174 C 1117.3642,596.12771 1118.4222,596.90774 1136.6388,603.11133 L 1153.0652,608.70526 L 1153.3898,612.01158 L 1153.7143,615.3179 L 1147.8898,614.71652 C 1144.6863,614.38577 1132.3082,613.59461 1120.383,612.95839 C 1099.7527,611.85775 1071.6206,612.53261 1048.2406,614.68901 L 1041.416,615.31846 L 1041.7406,612.02052 z M 1333.7403,612.02522 L 1334.0652,608.72259 L 1350.8543,603.05311 C 1360.0883,599.9349 1368.5219,596.50517 1369.5956,595.43149 C 1373.4152,591.61186 1373.6478,585.3057 1373.3429,493.84635 C 1373.0248,398.40004 1373.1399,400.36485 1367.7068,397.62404 C 1366.2539,396.89111 1357.9777,393.94243 1349.3152,391.07142 L 1333.5652,385.8514 L 1333.5652,382.7791 L 1333.5652,379.70679 L 1348.3152,380.3852 C 1408.792,383.1668 1442.5662,383.16518 1506.2091,380.37763 L 1521.3529,379.71432 L 1521.3411,407.36586 L 1521.3293,435.0174 L 1518.5191,435.0174 C 1515.4009,435.0174 1515.1098,434.42235 1508.6371,414.81948 C 1504.8739,403.42221 1502.7756,400.39652 1497.7616,399.13728 C 1491.199,397.48912 1467.1431,396.88328 1437.0871,397.60921 L 1407.7489,398.31781 L 1407.1732,401.91761 C 1406.8566,403.89749 1406.2997,422.99162 1405.9357,444.34899 L 1405.2738,483.18058 L 1444.6695,482.82865 C 1478.6216,482.52535 1484.5742,482.24861 1487.7488,480.82584 C 1492.0551,478.89588 1492.8114,477.53372 1498.6088,461.2674 C 1502.9029,449.21919 1503.0253,449.0174 1506.0362,449.0174 L 1509.0975,449.0174 L 1509.127,492.0174 L 1509.1565,535.0174 L 1506.0821,535.0174 C 1503.0231,535.0174 1502.9858,534.95086 1498.6572,521.7674 C 1496.2644,514.4799 1493.6599,507.24445 1492.8695,505.68862 C 1489.9044,499.8523 1487.9763,499.59301 1444.6657,499.20612 L 1405.2663,498.85417 L 1405.9157,542.18579 C 1406.2728,566.01817 1406.8427,587.83228 1407.1822,590.66157 L 1407.7993,595.80574 L 1427.9323,596.50721 C 1459.862,597.61969 1498.4298,596.83796 1502.0637,595.00463 C 1506.0276,593.00482 1510.3534,584.25919 1515.7832,567.2674 L 1520.0173,554.0174 L 1523.4078,554.0174 C 1526.599,554.0174 1526.7598,554.17908 1526.1421,556.7674 C 1525.7811,558.2799 1525.2161,572.06648 1524.8866,587.40425 L 1524.2874,615.2911 L 1516.1763,614.68498 C 1511.7152,614.35161 1489.3704,613.56687 1466.5213,612.94112 C 1427.0084,611.85901 1375.6698,612.5876 1343.2403,614.6907 L 1333.4153,615.32786 L 1333.7403,612.02522 z"
       id="path2570" />
    <path
       style="fill:#ffffff;fill-opacity:1"
       d="M 1849.1968,665.12311 C 1846.5909,663.81993 1842.6052,658.55603 1831.5906,641.87085 C 1813.4972,614.46256 1799.1018,591.00745 1792.8072,578.67935 C 1788.6347,570.50762 1788.0505,568.69915 1789.0063,566.91331 C 1789.6274,565.7527 1790.7065,564.80312 1791.4043,564.80312 C 1793.399,564.80312 1798.4736,570.66348 1803.0943,578.30312 C 1805.4229,582.15312 1810.3502,589.80312 1814.0438,595.30312 C 1817.7375,600.80312 1825.5605,612.50312 1831.4283,621.30312 C 1837.2962,630.10312 1845.9375,642.55286 1850.6314,648.96921 C 1855.962,656.25591 1859.2407,661.69914 1859.3655,663.46921 C 1859.5465,666.03744 1859.2371,666.32677 1856.0653,666.55538 C 1854.1403,666.69413 1851.0495,666.04961 1849.1968,665.12311 z M 1949.8566,664.81471 C 1939.385,661.6581 1928.0653,641.60029 1928.0653,626.20184 C 1928.0653,613.77732 1934.1854,610.19978 1947.5653,614.80312 C 1956.9539,618.0333 1960.7337,617.2787 1963.6773,611.58653 C 1964.9909,609.04626 1965.1789,606.8133 1964.6391,600.16045 C 1964.1028,593.55166 1964.2906,591.26807 1965.5744,588.78541 C 1969.0516,582.06134 1974.9107,588.00834 1975.8067,599.1712 C 1976.6041,609.10498 1971.1066,624.76428 1965.5416,628.41062 C 1963.3903,629.82014 1962.4136,629.88059 1958.6801,628.83527 C 1953.2491,627.31469 1950.3457,628.60549 1944.1999,635.27284 C 1938.6862,641.25461 1938.9234,643.48921 1945.4141,646.70685 C 1949.5591,648.76164 1951.8009,649.12456 1960.8572,649.20685 L 1971.4515,649.30312 L 1973.7849,645.86595 C 1975.0682,643.9755 1976.832,639.9255 1977.7043,636.86595 C 1980.1347,628.34177 1982.5489,625.01925 1987.2278,623.75937 C 1991.9089,622.49886 1991.801,622.40145 1997.5838,633.10113 C 2001.8554,641.0045 2001.7268,642.95828 1996.5582,648.67923 C 1990.7281,655.13251 1977.7816,660.92801 1961.8574,664.21305 C 1953.3215,665.97396 1953.648,665.95759 1949.8566,664.81471 z M 2032.4206,663.40421 C 2025.4332,660.25796 2017.0653,650.22741 2017.0653,644.99795 C 2017.0653,642.00422 2019.9558,640.17701 2029.0653,637.4123 C 2033.7403,635.99344 2040.4903,633.13844 2044.0653,631.06784 C 2058.3934,622.76918 2080.3016,596.51256 2086.0055,580.80312 C 2088.7615,573.21277 2090.2507,571.27655 2092.6301,572.18964 C 2094.1519,572.7736 2094.2886,574.02821 2093.816,583.07639 C 2093.4726,589.65198 2092.5055,595.62374 2091.1072,599.80312 C 2084.8264,618.57566 2062.0391,650.37905 2047.884,660.12801 C 2041.6509,664.42096 2036.9096,665.42549 2032.4206,663.40421 z M 1907.4574,656.92984 C 1875.3307,645.12066 1855.0795,620.62431 1839.0769,574.215 C 1834.5927,561.21015 1834.1301,557.80312 1836.8487,557.80312 C 1837.9847,557.80312 1842.6069,563.15868 1849.579,572.55312 C 1867.9415,597.29525 1879.9875,608.58899 1897.8098,617.7722 C 1904.2549,621.09311 1906.8527,623.10783 1909.7119,627.00287 C 1914.9146,634.09031 1922.0653,648.37981 1922.0653,651.68901 C 1922.0653,657.59364 1915.5866,659.91797 1907.4574,656.92984 z M 1908.4072,609.35092 C 1903.8938,607.38734 1889.9259,597.56301 1880.4981,589.72107 C 1862.4001,574.66729 1845.8348,552.33122 1833.2817,526.05616 C 1826.7577,512.40074 1826.4861,506.35087 1831.5375,487.20926 C 1833.5558,479.56088 1836.9807,468.17679 1839.1484,461.91127 L 1843.0895,450.51942 L 1838.1735,439.91127 C 1829.6255,421.46541 1823.8233,399.31207 1824.2765,386.85033 C 1824.6957,375.32254 1822.1817,373.93563 1816.1333,382.35788 C 1811.7011,388.52969 1810.41,389.02609 1804.9439,386.65997 C 1799.4838,384.29643 1797.4865,380.76922 1796.0725,370.99273 C 1793.8107,355.35562 1795.2544,349.5347 1802.4386,345.3245 C 1804.9439,343.85629 1808.0027,341.02239 1809.236,339.02694 C 1811.916,334.69052 1811.9538,333.28751 1810.6966,284.80312 C 1810.0412,259.52568 1810.1229,250.1986 1811.0293,246.80312 C 1811.69,244.32812 1815.2995,235.55312 1819.0504,227.30312 C 1827.4141,208.90718 1828.4521,205.24012 1827.5859,197.15099 C 1826.7639,189.47573 1828.559,173.67342 1831.2529,164.87049 C 1838.17,142.26658 1854.6232,126.31386 1876.0929,121.39445 C 1885.1342,119.32278 1912.9715,116.32499 1922.5653,116.38985 C 1929.5941,116.43736 1932.5857,117.13338 1947.2095,122.12353 C 1966.2496,128.62071 1967.6551,128.7506 1992.7702,126.33444 C 2005.5349,125.10644 2008.684,125.08499 2012.3915,126.20079 C 2021.123,128.82859 2031.6718,138.22736 2036.0573,147.28664 C 2039.8273,155.07448 2040.3274,162.18338 2038.0759,175.98245 C 2036.9703,182.75883 2036.0656,189.45895 2036.0655,190.87163 C 2036.065,196.37954 2039.3995,204.1189 2046.2397,214.48645 C 2055.6256,228.71254 2058.0569,234.04923 2058.0011,240.30312 C 2057.9511,245.91253 2055.3614,253.5945 2053.0263,255.06051 C 2051.8986,255.76844 2050.163,255.18689 2046.533,252.88482 C 2034.7008,245.38101 2019.0705,243.4215 2005.0653,247.68616 C 1994.764,250.82294 1980.7352,257.84438 1973.7192,263.37486 C 1966.7993,268.82966 1964.54,273.24553 1962.9984,284.32884 C 1961.7195,293.52408 1962.2168,298.14603 1966.2776,314.80312 C 1969.021,326.05676 1969.262,328.30021 1968.694,337.30312 C 1966.6666,369.43982 1966.6561,368.05316 1968.9989,377.53463 C 1970.831,384.94926 1971.0309,387.21692 1970.1432,390.51384 C 1967.9388,398.70038 1959.7246,403.35892 1952.6823,400.41648 C 1948.799,398.79394 1947.6489,397.07397 1946.6112,391.33768 C 1945.2623,383.88119 1940.8591,377.79954 1936.8153,377.80761 C 1935.5065,377.81023 1931.9882,380.1111 1928.4049,383.30761 C 1925.0168,386.33014 1921.9908,388.80312 1921.6806,388.80312 C 1921.3704,388.80312 1920.4047,387.4265 1919.5347,385.74396 C 1918.1999,383.16284 1917.4547,382.73311 1914.7659,382.99396 C 1912.397,383.22378 1911.2262,384.043 1910.2038,386.18629 C 1908.1691,390.45168 1910.0693,395.63037 1915.5089,400.6444 C 1921.6619,406.31607 1924.026,406.70088 1933.0162,403.49412 C 1939.8106,401.07059 1940.6686,400.9684 1942.7533,402.33439 C 1944.0108,403.15828 1946.0111,405.73677 1947.1985,408.06436 C 1950.9953,415.50666 1955.4582,417.26623 1960.5968,413.34684 C 1964.5404,410.33891 1967.7844,410.16885 1978.5902,412.40355 C 1987.8021,414.30861 1989.8476,413.6923 1993.4964,407.9123 C 1994.8737,405.73041 1997.1959,403.12576 1998.6568,402.12418 C 2002.8421,399.25465 2007.0426,394.63043 2009.1486,390.57392 C 2010.7404,387.50797 2010.9172,386.09931 2010.143,382.65349 C 2009.625,380.34831 2008.3832,377.45008 2007.3833,376.21298 C 1999.1306,366.00255 1999.7955,367.78835 1998.921,353.48713 C 1998.4777,346.23592 1997.2617,336.47812 1996.219,331.80312 C 1994.0903,322.25927 1994.52,320.80312 1999.4652,320.80312 C 2003.2135,320.80312 2007.0651,318.3673 2007.0657,315.99642 C 2007.0659,315.0651 2004.0683,311.58554 2000.4044,308.26405 C 1994.5805,302.98459 1993.8247,301.8978 1994.3954,299.62374 C 1994.8046,297.99359 1996.8574,295.86158 1999.8943,293.91281 C 2006.7482,289.51466 2008.0653,289.74518 2008.0653,295.34296 C 2008.0653,309.70309 2023.3182,318.46782 2035.1978,310.934 C 2040.4888,307.57855 2044.2619,300.6946 2044.447,294.05922 C 2044.5765,289.41296 2045.3672,288.96878 2049.0928,291.44942 C 2054.6512,295.15046 2055.2894,298.0098 2051.9652,304.31793 C 2049.7577,308.50674 2044.6764,314.36113 2041.9638,315.84089 C 2041.083,316.32137 2037.0958,317.39559 2033.1033,318.22804 C 2022.3876,320.46234 2020.2181,323.07499 2026.5653,326.10173 C 2030.6362,328.043 2030.7032,328.32002 2028.0653,332.30312 C 2025.4549,336.24462 2025.5467,338.96734 2028.3797,341.62881 C 2031.5935,344.64803 2034.7019,344.35975 2042.6809,340.30245 C 2049.7153,336.72551 2053.4488,333.77431 2058.3153,327.94422 C 2060.7148,325.06949 2061.0653,323.79445 2061.0653,317.93828 C 2061.0653,311.16112 2064.0072,302.87681 2066.7053,302.05642 C 2069.2533,301.28165 2073.0658,306.2694 2074.0687,311.68961 C 2075.7229,320.63044 2075.2194,326.91886 2071.9319,338.37969 C 2069.1671,348.01813 2068.7051,351.47939 2068.0051,367.80312 C 2067.5016,379.54208 2066.6099,388.49589 2065.5651,392.30312 C 2062.3239,404.1138 2044.6887,434.47837 2034.7267,445.40135 L 2028.8881,451.80312 L 2022.5334,451.80312 C 2014.7697,451.80312 2013.0653,450.07955 2013.0653,442.2285 C 2013.0653,436.25381 2009.859,430.49929 2006.2397,429.97816 C 2004.9984,429.79944 2001.0258,431.03694 1997.4118,432.72816 C 1993.7977,434.41939 1990.1038,435.80169 1989.203,435.79994 C 1988.3022,435.79819 1984.8653,433.99923 1981.5653,431.80226 C 1971.1164,424.84597 1966.708,425.13875 1958.5833,433.32857 C 1951.3484,440.62155 1949.6071,440.57387 1942.2179,432.88043 C 1933.8409,424.15838 1929.7202,423.74509 1921.5591,430.80845 C 1916.0511,435.57558 1913.09,435.86281 1906.0789,432.31004 C 1899.988,429.22353 1896.9928,430.03436 1894.248,435.51283 C 1890.9869,442.02194 1890.8838,444.0741 1893.7131,446.16273 C 1896.2156,448.01014 1896.2605,448.00193 1900.5622,444.91273 C 1902.9437,443.20244 1905.1549,441.80312 1905.4759,441.80312 C 1905.797,441.80312 1908.8104,443.82812 1912.1725,446.30312 C 1915.5345,448.77812 1919.2304,450.80312 1920.3856,450.80312 C 1921.5408,450.80312 1925.9758,449.56699 1930.2412,448.05616 C 1937.9688,445.31895 1938.0138,445.3154 1942.915,447.05616 C 1949.8197,449.5085 1953.8911,449.24888 1962.5653,445.80312 C 1966.7189,444.15312 1971.5681,442.813 1973.3413,442.82508 C 1977.8271,442.85564 1984.5749,446.12508 1986.632,449.26465 C 1990.2831,454.83691 1984.6281,463.49131 1975.7698,465.88817 C 1972.1304,466.87291 1969.8336,466.63521 1958.6822,464.11983 C 1948.0515,461.72191 1944.6349,461.33822 1939.1405,461.9253 C 1923.5853,463.58737 1919.1925,470.7663 1930.5653,475.93964 C 1935.5363,478.20091 1939.1817,478.24466 1950.441,476.17816 C 1957.5652,474.87059 1960.586,474.75946 1965.749,475.61499 C 1979.3388,477.8669 1985.0653,483.02493 1985.0653,493.01387 C 1985.0653,499.96316 1981.9383,506.13706 1976.195,510.52748 C 1969.1229,515.93367 1964.2614,516.80312 1941.1056,516.80312 L 1920.5088,516.80312 L 1913.5371,513.41979 C 1901.3918,507.5258 1883.1492,493.42198 1860.9,472.72455 C 1845.3274,458.23813 1843.6773,459.2526 1852.6396,477.80312 C 1860.8766,494.85249 1869.4199,507.05027 1880.4074,517.44884 C 1903.6061,539.40401 1921.969,548.53797 1947.4276,550.78562 C 1953.4018,551.31306 1958.9143,552.26287 1959.6776,552.89631 C 1963.0544,555.69881 1960.4483,562.63597 1950.7466,576.66994 C 1944.2116,586.12325 1927.5296,603.65496 1921.2122,607.70886 C 1915.9395,611.09233 1913.2135,611.4419 1908.4072,609.35092 z M 1938.7588,356.79094 C 1940.5114,351.66964 1940.3505,346.79342 1937.951,332.30312 L 1935.7983,319.30312 L 1938.7992,305.00295 C 1941.6082,291.61681 1941.7167,290.30555 1940.4973,284.48819 C 1938.5241,275.07456 1937.7298,273.61112 1931.5067,267.9236 C 1920.3108,257.69113 1906.1002,249.34141 1896.3736,247.28046 C 1874.0026,242.54028 1848.4416,249.06848 1835.7662,262.75942 C 1829.127,269.93062 1826.0239,277.29494 1825.3062,287.58352 L 1824.7984,294.86392 L 1829.1526,298.8837 C 1833.1804,302.60218 1833.8797,302.88098 1838.4822,302.6033 L 1843.4577,302.30312 L 1846.6424,308.80312 C 1850.7374,317.16095 1853.7175,319.89688 1859.427,320.54042 C 1863.2846,320.97523 1864.2742,320.6851 1866.4892,318.47006 C 1869.3904,315.56889 1869.8689,312.80312 1867.4696,312.80312 C 1862.5426,312.80312 1856.0695,302.90688 1857.4357,297.46321 C 1858.4,293.62112 1863.634,288.60349 1866.2851,288.97962 C 1868.4313,289.28411 1868.5462,289.68503 1868.2401,295.80312 C 1867.9289,302.02604 1868.0685,302.48161 1871.5143,306.49031 C 1875.7936,311.46856 1884.6345,315.29411 1889.6749,314.34854 C 1893.7155,313.59051 1901.2964,306.94324 1903.5597,302.17363 C 1904.796,299.56837 1905.1459,297.132 1904.7564,293.84269 C 1904.0014,287.46794 1904.9399,286.16983 1908.8443,288.18884 C 1910.5187,289.05472 1912.8158,290.9418 1913.9489,292.38236 C 1915.8674,294.82134 1915.9073,295.24534 1914.5288,298.54465 C 1913.7146,300.49335 1911.452,304.30977 1909.5009,307.02558 C 1905.3407,312.81626 1905.9995,314.80312 1912.0796,314.80312 C 1915.1388,314.80312 1916.7919,313.95536 1920.854,310.30312 C 1927.8799,303.9863 1929.4221,304.22646 1928.881,311.55312 C 1928.5437,316.12113 1927.5787,318.74207 1924.1864,324.30312 C 1920.3953,330.51797 1919.98,331.79004 1920.4842,335.64425 C 1921.5501,343.79337 1932.3729,361.27391 1935.9303,360.59212 C 1936.8295,360.41977 1938.1024,358.70924 1938.7588,356.79094 z M 1881.9269,297.78548 C 1877.9196,295.44525 1879.0224,287.53267 1883.5129,286.40563 C 1887.4497,285.41755 1890.0653,287.29775 1890.0653,291.1158 C 1890.0653,297.06571 1886.1661,300.2612 1881.9269,297.78548 z M 1841.1491,285.18252 C 1838.8601,282.27262 1839.0844,279.82826 1842.2133,273.58092 C 1846.727,264.56867 1854.585,258.67995 1864.4989,256.88027 C 1872.9979,255.33743 1876.9657,255.53358 1883.6587,257.82746 C 1895.0319,261.72537 1902.0653,268.17537 1902.0653,274.70741 C 1902.0653,278.45167 1901.5676,278.50852 1896.8505,275.30312 C 1894.5911,273.76786 1891.7664,272.80312 1889.5304,272.80312 L 1885.8895,272.80312 L 1886.5653,276.80312 L 1887.2411,280.80312 L 1882.4032,280.81499 C 1879.7423,280.82152 1875.0903,281.49118 1872.0653,282.30312 C 1869.0403,283.11506 1866.4528,283.78472 1866.3153,283.79125 C 1866.1778,283.79778 1866.0653,282.22812 1866.0653,280.30312 C 1866.0653,277.04161 1865.85,276.80312 1862.9057,276.80312 C 1860.4415,276.80312 1858.477,278.01359 1853.9799,282.30312 C 1847.3777,288.60056 1844.3688,289.27579 1841.1491,285.18252 z M 2004.9067,606.95753 C 1998.51,602.84594 1992.4543,597.22898 1988.9904,592.19427 C 1983.5543,584.29314 1970.9104,558.9176 1971.2428,556.57572 C 1971.6128,553.96804 1974.0535,553.04857 1989.3662,549.74809 C 2008.9628,545.52428 2040.7726,527.16239 2057.6273,510.34503 C 2067.7934,500.20143 2073.0325,492.76783 2077.341,482.37403 C 2080.6584,474.37113 2082.2532,472.27753 2084.4036,473.10271 C 2086.1871,473.78711 2087.2159,478.53747 2090.6189,501.80312 C 2093.7152,522.9714 2093.8793,528.80237 2091.5778,535.87634 C 2087.2881,549.06148 2074.0046,570.76447 2063.2308,582.19055 C 2058.4966,587.21139 2041.2212,598.54425 2029.2309,604.49488 C 2016.8457,610.64146 2011.4828,611.18442 2004.9067,606.95753 z M 1983.0653,395.87846 C 1983.0653,394.6824 1983.7857,392.31068 1984.6662,390.60797 C 1985.9039,388.21453 1986.111,386.05435 1985.579,381.08687 L 1984.8909,374.6616 L 1987.7305,376.12998 C 1993.8554,379.29731 1996.2225,385.09887 1993.7769,390.94953 C 1992.0425,395.09871 1990.2772,396.61073 1986.22,397.42218 C 1983.4541,397.97536 1983.0653,397.78511 1983.0653,395.87846 z M 1731.0653,362.16833 C 1727.8672,359.89968 1726.5117,358.22767 1723.9224,353.35707 C 1722.2014,350.11974 1721.9145,348.23392 1722.3249,342.85707 C 1722.6001,339.2524 1723.6937,333.82812 1724.7551,330.80312 C 1726.4114,326.08277 1727.0836,325.2566 1729.497,324.97494 C 1733.2715,324.53442 1733.9503,325.43715 1735.0626,332.37686 C 1735.7659,336.76498 1736.6826,338.8871 1738.5946,340.55312 C 1743.8004,345.08924 1750.4593,342.86053 1758.0582,334.03874 L 1762.3374,329.07092 L 1766.2014,330.58871 C 1769.036,331.70221 1770.0653,332.68551 1770.0653,334.28022 C 1770.0653,335.51389 1766.2812,341.17845 1761.3153,347.37853 C 1754.5615,355.81073 1751.4575,358.85225 1747.7098,360.71005 C 1741.2599,363.90735 1734.368,364.51117 1731.0653,362.16833 z M 2146.7102,327.26119 C 2138.907,325.31617 2128.0721,319.51386 2121.9281,313.98987 C 2108.9566,302.32739 2098.4326,278.64346 2100.9681,266.82041 C 2103.5736,254.67139 2111.1008,240.95328 2117.0918,237.43535 C 2123.5662,233.63355 2134.4229,238.43804 2139.6981,247.43955 C 2143.4053,253.76548 2142.3853,256.35383 2135.238,258.75693 C 2124.9768,262.20702 2117.8081,272.23765 2117.6954,283.30312 C 2117.6223,290.4774 2119.6388,295.14132 2125.2321,300.73463 C 2137.5078,313.01037 2153.6855,312.60209 2163.9117,299.75848 C 2172.0476,289.5403 2174.7722,289.33583 2179.8273,298.56409 C 2182.1954,302.88725 2183.4199,306.62218 2183.7834,310.63146 C 2184.3099,316.43761 2184.3098,316.43801 2180.1622,319.98812 C 2172.4517,326.58804 2157.2604,329.89092 2146.7102,327.26119 z M 2021.5586,297.38734 C 2018.6039,294.43271 2018.3992,291.84729 2020.8773,288.78687 C 2023.0834,286.06249 2026.3194,286.73512 2028.7338,290.41993 C 2030.6347,293.3211 2029.4883,296.97114 2026.1081,298.78018 C 2024.4015,299.69356 2023.628,299.45678 2021.5586,297.38734 z M 2047.3746,280.11436 C 2044.3087,276.97729 2041.3095,274.80312 2040.0479,274.80312 C 2038.189,274.80312 2037.9539,275.28941 2038.2351,278.55312 C 2038.6023,282.81466 2038.5163,282.8384 2031.1338,280.51356 C 2023.5998,278.14103 2020.3664,278.34929 2010.8579,281.81947 C 2002.0759,285.02449 2000.0653,285.04253 2000.0653,281.91629 C 2000.0653,278.04059 2001.4707,276.53758 2007.7139,273.73644 C 2012.3199,271.66987 2014.0653,270.35931 2014.0653,268.96739 C 2014.0653,266.15445 2015.9163,265.04081 2023.5243,263.27639 C 2029.5949,261.86853 2030.979,261.85559 2036.1139,263.15874 C 2044.2731,265.22937 2048.5813,267.48787 2052.171,271.57628 C 2054.9134,274.69979 2055.2288,275.66009 2054.7901,279.55219 C 2054.5158,281.98586 2053.903,284.30297 2053.4283,284.70132 C 2052.9536,285.09967 2050.2295,283.03554 2047.3746,280.11436 z M 2120.3824,205.85493 C 2115.8581,203.09625 2110.1304,195.47018 2104.0536,184.11409 C 2097.2156,171.33545 2093.5516,166.58112 2084.5121,158.75711 C 2074.9106,150.44665 2074.4147,146.67534 2083.0653,147.75304 C 2083.8903,147.85582 2089.041,149.30568 2094.5113,150.97495 C 2103.8276,153.81785 2104.8465,154.39914 2110.6036,160.15656 C 2120.9361,170.4895 2128.8001,190.08417 2128.2208,204.05313 C 2128.089,207.2305 2127.7217,207.80256 2125.8153,207.79939 C 2124.5778,207.79734 2122.133,206.92233 2120.3824,205.85493 z M 1778.828,159.23781 C 1773.412,156.29916 1774.1435,149.63379 1781.0554,138.93969 C 1793.1526,120.22297 1826.8136,93.485839 1842.366,90.240359 C 1848.8022,88.897259 1857.1051,83.799629 1862.0737,78.140749 C 1865.8497,73.840159 1865.8231,72.618579 1861.8815,69.301929 L 1858.6977,66.622939 L 1846.3959,67.332479 C 1835.1009,67.983949 1834.0377,67.894869 1833.4042,66.243869 C 1832.4227,63.686329 1838.6704,58.548929 1848.5653,53.777029 C 1866.3297,45.209949 1875.4565,46.034449 1893.6219,57.847409 C 1900.1449,62.089329 1912.3879,65.835739 1919.4752,65.758629 C 1921.7248,65.734149 1928.0299,64.881299 1933.4866,63.863409 C 1945.6354,61.597179 1948.8709,62.309799 1960.1897,69.744799 C 1973.38,78.409109 1975.7023,82.457269 1974.8811,95.353919 C 1974.5234,100.97193 1974.0543,102.27562 1971.4554,104.87452 C 1969.4483,106.8816 1967.8787,107.66875 1966.7484,107.23501 C 1965.205,106.64275 1958.0653,93.196529 1958.0653,90.882099 C 1958.0653,89.412729 1946.5135,81.511229 1938.5056,77.503129 C 1922.1297,69.306769 1908.0653,68.721779 1908.0653,76.237009 C 1908.0653,79.366089 1910.8295,81.934189 1920.1373,87.452499 C 1929.7378,93.144349 1931.7322,96.034909 1928.0925,98.982129 C 1924.8611,101.5988 1922.6205,100.90095 1911.6379,93.857199 C 1902.1191,87.752229 1897.3087,85.832199 1885.2499,83.324429 C 1871.2296,80.408769 1864.8532,81.758479 1853.7236,89.997749 C 1845.7599,95.893239 1834.9203,109.30353 1833.5,115.01741 C 1832.5716,118.75236 1832.1218,119.26193 1830,118.98259 C 1828.6609,118.8063 1823.8932,118.5813 1819.4052,118.48259 C 1811.8065,118.31547 1810.9504,118.51013 1806.9599,121.31228 C 1801.196,125.35965 1798.3153,131.31613 1797.1988,141.49496 C 1796.1419,151.13096 1793.9,155.40365 1788.2285,158.59122 C 1783.6446,161.16753 1782.5262,161.24445 1778.828,159.23781 z M 2041.8261,136.33793 C 2037.2765,133.1839 2035.5903,130.09736 2034.1477,122.28295 C 2033.186,117.0731 2032.4154,115.70008 2028.1627,111.61972 C 2021.4668,105.19508 2019.3095,99.438109 2020.8484,92.101159 C 2022.5008,84.223369 2026.1679,76.875119 2030.6565,72.447429 C 2037.5465,65.651029 2059.9674,55.808789 2065.4342,57.180869 C 2068.5562,57.964439 2069.0422,61.358279 2066.1633,62.272009 C 2063.3404,63.167949 2050.2626,77.281719 2044.7788,85.350449 C 2037.6693,95.811259 2034.8975,108.53132 2038.9319,112.18241 C 2040.6891,113.77267 2041.2898,113.73037 2049.1819,111.46074 C 2060.4114,108.23132 2073.6877,106.36946 2079.3894,107.22448 C 2093.7327,109.37539 2109.131,123.21696 2106.4422,131.54219 C 2106.1293,132.5107 2105.6888,133.90977 2105.4631,134.65122 C 2105.1726,135.6057 2104.0593,135.12705 2101.6503,133.0119 C 2096.8203,128.77113 2089.1228,126.42946 2082.1045,127.06585 C 2076.1334,127.60729 2071.4034,129.6179 2063.4104,135.0123 C 2059.433,137.69666 2057.4543,138.32262 2052.0784,138.5973 C 2046.3912,138.88789 2045.0911,138.6014 2041.8261,136.33793 z"
       id="path2572" />
  </g>
</svg>
