<svg viewBox="0 0 83 60" fill="none" xmlns="http://www.w3.org/2000/svg">
	<path d="M6.4128 0C2.8656 0 0 2.88308 0 6.41262C0 9.94217 2.8656 12.8252 6.4128 12.8252C8.98137 12.8252 11.1481 11.4624 12.2139 9.43548L9.7678 8.10742C9.06891 9.36559 7.96799 10.1344 6.41297 10.1344C4.38603 10.1344 2.79589 8.42209 2.79589 6.41262C2.79589 4.40315 4.38603 2.69071 6.41297 2.69071C7.96799 2.69071 9.06891 3.45966 9.7678 4.71765L12.2139 3.38959C11.1481 1.36283 8.98137 0 6.4128 0ZM20.041 0.209656H17.5249L12.213 12.6156H15.1135L16.2143 9.99457H21.3516L22.4524 12.6156H25.3529L20.041 0.209656ZM20.3381 7.58324H17.2104L18.783 3.86133L20.3381 7.58324ZM25.4046 10.6061L27.5364 8.8063C28.1479 9.69756 29.1963 10.2217 30.105 10.2217C31.031 10.2217 31.6078 9.80257 31.6078 9.19087C31.6078 8.56187 31.136 8.12507 29.878 7.70573L29.0044 7.40871C26.9775 6.7273 25.8767 5.52154 25.8767 3.82675C25.8764 1.41542 27.6937 0 30.1574 0C31.6777 0 32.9881 0.454275 34.1589 1.71244L32.3416 3.63438C31.765 2.93549 30.9788 2.60352 30.1924 2.60352C29.441 2.60352 28.6896 2.90055 28.6896 3.54702C28.6896 4.22843 29.2836 4.50799 30.6117 4.97973L31.4853 5.29441C33.2851 5.94087 34.4557 7.12898 34.4383 8.99867C34.4383 11.2526 32.586 12.8252 30 12.8252C28.0256 12.8252 26.3831 12.0041 25.4046 10.6061ZM42.4928 0.209656H39.9766L34.6647 12.6156H37.5654L38.6662 9.99457H43.8033L44.9041 12.6156H47.8046L42.4928 0.209656ZM42.7898 7.58324H39.6621L41.2348 3.86133L42.7898 7.58324ZM0 22.1375C0 18.608 2.8656 15.7249 6.4128 15.7249C8.98137 15.7249 11.1481 17.0877 12.2139 19.1145L9.7678 20.4426C9.06891 19.1846 7.96799 18.4156 6.41297 18.4156C4.38603 18.4156 2.79589 20.1281 2.79589 22.1375C2.79589 24.147 4.38603 25.8593 6.41297 25.8593C7.96799 25.8593 9.06891 25.0905 9.7678 23.8323L12.2139 25.1604C11.1481 27.1873 8.98137 28.5502 6.4128 28.5502C2.8656 28.5502 0 25.6671 0 22.1375ZM19.5517 15.7249C16.0047 15.7249 13.1391 18.608 13.1391 22.1375C13.1391 25.6671 16.0047 28.5502 19.5517 28.5502C23.0812 28.5502 25.9643 25.6671 25.9643 22.1375C25.9643 18.608 23.0812 15.7249 19.5517 15.7249ZM19.5517 18.4156C21.561 18.4156 23.1511 20.1281 23.1511 22.1375C23.1511 24.147 21.5612 25.8593 19.5517 25.8593C17.5247 25.8593 15.9346 24.147 15.9346 22.1375C15.9346 20.1281 17.5247 18.4156 19.5517 18.4156ZM27.8854 15.9346H30.6636V25.6845H35.8008V28.3405H27.8854V15.9346ZM43.9248 21.2814L40.0633 15.9346H37.5298V28.3407H40.3081V20.6873L43.9424 25.7022L47.5592 20.7046V28.3405H50.3549V15.9346H47.8214L43.9248 21.2814ZM56.9588 15.9346H59.475L64.7868 28.3405H61.8863L60.7855 25.7195H55.6484L54.5476 28.3405H51.6471L56.9588 15.9346ZM56.6443 23.3082H59.772L58.217 19.5862L56.6443 23.3082ZM68.8572 20.6699L74.9029 28.3405H77.2967V15.9346H74.501V23.6052L68.4728 15.9346H66.0789V28.3405H68.8572V20.6699ZM79.9168 15.9346H82.6951V28.3405H79.9168V15.9346ZM6.4128 31.4498C2.8656 31.4498 0 34.3329 0 37.8624C0 41.392 2.8656 44.2751 6.4128 44.2751C8.98137 44.2751 11.1481 42.9122 12.2139 40.8853L9.7678 39.5572C9.06891 40.8154 7.96799 41.5842 6.41297 41.5842C4.38603 41.5842 2.79589 39.8719 2.79589 37.8624C2.79589 35.853 4.38603 34.1405 6.41297 34.1405C7.96799 34.1405 9.06891 34.9095 9.7678 36.1675L12.2139 34.8394C11.1481 32.8127 8.98137 31.4498 6.4128 31.4498ZM0 53.5874C0 50.0578 2.8656 47.1747 6.4128 47.1747C8.98137 47.1747 11.1481 48.5376 12.2139 50.5643L9.7678 51.8924C9.06891 50.6344 7.96799 49.8655 6.41297 49.8655C4.38603 49.8655 2.79589 51.5779 2.79589 53.5874C2.79589 55.5968 4.38603 57.3091 6.41297 57.3091C7.96799 57.3091 9.06891 56.5403 9.7678 55.2822L12.2139 56.6102C11.1481 58.6372 8.98137 60 6.4128 60C2.8656 60 0 57.1169 0 53.5874ZM16.6162 47.3844H13.8379V59.7903H16.6162V54.8803H21.6136V59.7903H24.3918V47.3844H21.6136V52.242H16.6162V47.3844ZM27.0119 47.3844H29.7902V59.7903H27.0119V47.3844ZM38.1245 47.1747C34.5773 47.1747 31.7117 50.0578 31.7117 53.5874C31.7117 57.1169 34.5773 60 38.1245 60C41.6541 60 44.5372 57.1169 44.5372 53.5874C44.5372 50.0578 41.6541 47.1747 38.1245 47.1747ZM38.1244 49.8655C40.1337 49.8655 41.7238 51.5779 41.7238 53.5874C41.7238 55.5968 40.1338 57.3091 38.1244 57.3091C36.0974 57.3091 34.5073 55.5968 34.5073 53.5874C34.5073 51.5779 36.0974 49.8655 38.1244 49.8655Z" fill="currentColor"></path>
</svg>