<svg xmlns="http://www.w3.org/2000/svg" width="16" height="16" viewBox="0 0 16 16"><g class="nc-icon-wrapper" fill="#000000"><path fill="#000000" d="M15,2h-2V0h-2v2H9V0H7v2H5V0H3v2H1C0.447,2,0,2.447,0,3v12c0,0.553,0.447,1,1,1h14c0.553,0,1-0.447,1-1V3 C16,2.447,15.553,2,15,2z M14,14H2V5h12V14z"></path> <rect data-color="color-2" x="4" y="7" width="2" height="2"></rect> <rect data-color="color-2" x="7" y="7" width="2" height="2"></rect> <rect data-color="color-2" x="4" y="10" width="2" height="2"></rect> <rect data-color="color-2" x="7" y="10" width="2" height="2"></rect> <rect data-color="color-2" x="10" y="7" width="2" height="2"></rect> <rect data-color="color-2" x="10" y="10" width="2" height="2"></rect> </g></svg>