<svg xmlns="http://www.w3.org/2000/svg" viewBox="0 0 24 24" width="18" height="18" fill="currentColor"><path d="M 20.380566 6.98424 C 20.119244 5.050461 18.421263 3.526289 16.408482 3.230936 C 16.068155 3.181103 14.78221 3 11.801931 3 L 11.778838 3 C 8.797343 3 8.158018 3.179888 7.818907 3.230936 C 5.862036 3.517782 4.075327 4.887592 3.641412 6.844463 C 3.432355 7.808313 3.410477 8.876694 3.449371 9.856344 C 3.504066 11.262618 3.515005 12.665245 3.643843 14.065441 C 3.73257 14.995259 3.886932 15.917785 4.108144 16.824509 C 4.520181 18.501827 6.187776 19.899593 7.822554 20.468424 C 9.5728 21.061562 11.454313 21.161228 13.258039 20.752838 C 13.456157 20.706652 13.653059 20.654387 13.846316 20.593615 C 14.283877 20.455053 14.798012 20.300692 15.1748 20.028431 C 15.1855 20.020786 15.192194 20.008738 15.193032 19.995613 L 15.193032 18.639174 C 15.19266 18.627041 15.186813 18.61573 15.177132 18.60841 C 15.16745 18.601089 15.154973 18.598545 15.143199 18.601494 C 13.987307 18.874971 12.80346 19.012318 11.615968 19.009886 C 9.571584 19.009886 9.022202 18.047249 8.864193 17.646152 C 8.738102 17.299969 8.658008 16.938732 8.625965 16.571695 C 8.625173 16.559242 8.630404 16.547165 8.640029 16.539223 C 8.649655 16.531281 8.662507 16.528442 8.674582 16.531586 C 9.811028 16.803846 10.975427 16.941193 12.144688 16.939978 C 12.425456 16.939978 12.705009 16.939978 12.986993 16.932684 C 14.162332 16.899868 15.400873 16.840309 16.557981 16.616667 L 16.639416 16.598436 C 18.463804 16.250818 20.20068 15.159346 20.376919 12.395416 C 20.382996 12.286025 20.398798 11.255324 20.398798 11.143504 C 20.400013 10.759422 20.523989 8.4209 20.380566 6.98424 Z M 17.57288 13.880693 L 15.654902 13.880693 L 15.654902 9.217018 C 15.654902 8.234937 15.242866 7.734171 14.405422 7.734171 C 13.484112 7.734171 13.022242 8.327311 13.022242 9.496572 L 13.022242 12.049013 L 11.115204 12.049013 L 11.115204 9.496572 C 11.115204 8.327311 10.653333 7.734171 9.732023 7.734171 C 8.898226 7.734171 8.481327 8.234937 8.480111 9.217018 L 8.480111 13.880693 L 6.56578 13.880693 L 6.56578 9.076027 C 6.56578 8.093944 6.818594 7.313625 7.323004 6.735073 C 7.844432 6.158951 8.527514 5.862381 9.375896 5.862381 C 10.357979 5.862381 11.099402 6.236738 11.59409 6.985455 L 12.071761 7.781574 L 12.549432 6.985455 C 13.044119 6.236738 13.785543 5.862381 14.765194 5.862381 C 15.613577 5.862381 16.296659 6.158951 16.819302 6.735073 C 17.323713 7.31241 17.576527 8.092729 17.576527 9.076027 L 17.574095 13.880693 Z"/></svg>