<svg xmlns="http://www.w3.org/2000/svg" viewBox="0 0 1600 858"><path fill="#000" d="M415.3 172v-2.6c2.3 0 4.7-.3 6.9-1 1.5-.5 2.6-1.6 3-3.1.5-2.2.6-4.5.4-6.7V94.7c0-2.3-.2-4.7-.7-7-.5-1.5-1.6-2.6-3-3.1-2.1-.6-4.4-.8-6.6-.6v-2.6h32.8V84c-2.3 0-4.5.3-6.7.9-1.4.5-2.5 1.7-3 3.1-.6 2.3-.9 4.6-.8 7v63.6c0 2.3.2 4.7.8 6.9.4 1.5 1.5 2.6 3 3.1 2.2.6 4.4 1 6.7 1v2.6c-2 0-4.5 0-7.4-.4h-18.5c-2.8 0-5.1 0-6.9.2zm17.8-44.5V125h50.7v2.5zm35.8 44.4v-2.6c2.3 0 4.5-.4 6.7-1 1.5-.5 2.6-1.6 3-3.1.6-2.2.9-4.4.8-6.7V94.6c.1-2.3-.2-4.7-.8-7-.4-1.5-1.6-2.6-3-3.1-2.2-.6-4.4-.8-6.7-.6v-2.6h32.8v2.6c-2.2 0-4.5.3-6.6.9-1.4.5-2.6 1.7-3 3.1-.6 2.3-.8 4.6-.7 7v63.6c0 2.3.2 4.6.7 6.9.4 1.5 1.6 2.6 3 3.1 2.1.6 4.4 1 6.6 1v2.6c-1.8 0-4.2-.1-7.1-.4h-18.2c-3 0-5.5 0-7.5.2zm71.3-67.8c5.1 0 10.2 1.1 14.7 3.6 4.5 2.7 8 6.6 10.1 11.3 2.8 6.3 4.2 13.1 3.9 20 .3 6.9-1.1 13.7-3.9 20-2.3 4.7-5.9 8.6-10.4 11.2-4.5 2.4-9.6 3.7-14.7 3.6-5.1 0-10.2-1.2-14.7-3.6-4.6-2.6-8.2-6.5-10.5-11.2-2.9-6.3-4.2-13.1-3.9-20-.3-6.9 1.1-13.7 3.9-20 2.2-4.8 5.9-8.7 10.5-11.3 4.6-2.5 9.8-3.7 15-3.6zm1.5-35.1c1.9 4.6 4.8 8.9 8.3 12.4 3.8 4 8.2 7.3 13.1 9.7l-1 1.8c-4.6-1.6-9.1-3.6-13.5-5.9-3.8-1.9-7.3-4.2-10.6-6.9-2.5 2.6-5.4 4.9-8.5 6.9-3.4 2.3-6.9 4.2-10.6 5.9l-1.1-1.8c4.9-2.4 9.4-5.7 13.2-9.7 3.5-3.6 6.3-7.8 8.3-12.4h2.3zm-1.5 37.6c-5.2 0-10.1 2.9-12.4 7.6-3.7 7.7-5.4 16.3-4.7 24.9-.7 8.6 1 17.1 4.7 24.9 2.5 4.5 7.3 7.2 12.4 7.1s9.7-3 12-7.5c3.7-7.7 5.3-16.3 4.7-24.9.6-8.6-1-17.1-4.7-24.9-2.4-4.4-7-7.1-12-7.1zm59.3-22.1v21.4h19v2.9h-19v49.7c-.3 3 .5 6 2.2 8.5 1.6 1.7 3.9 2.6 6.2 2.4 2.6 0 5-1.2 6.7-3.1 2.4-3.2 4-6.8 4.8-10.6l2.5.7c-.7 4.5-2.4 8.7-5 12.4-2.8 3.5-7.1 5.5-11.6 5.2-2.5 0-4.9-.3-7.2-1.1-1.8-.7-3.5-1.8-5-3.2-1.9-1.9-3.3-4.4-3.9-7-.8-3.6-1.2-7.3-1.1-10.9v-42.9h-12.4v-2.5h12.4v-20c2.1 0 4.2 0 6.2-.5 1.8-.2 3.5-.7 5.2-1.3zm55.9 19.6c6.6-.4 13.1 2.1 17.7 6.9 4.7 6.1 6.9 13.7 6.2 21.3H634v-2.4h33.1c.2-3.9-.1-7.8-1-11.6-.7-3.1-2.1-6-4-8.5-1.8-2.1-4.4-3.3-7.1-3.2-4.2.2-8.1 2.4-10.4 5.9-3.5 5.6-5.4 12-5.5 18.6l.4.5c0 1.3 0 2.7-.4 4.2s0 3.1 0 4.7c-.1 5.1.8 10.2 2.8 15 1.6 3.8 4.1 7.1 7.4 9.6 2.7 2.1 6 3.2 9.4 3.3 3.7 0 7.4-.9 10.6-2.9 3.7-2.4 6.6-5.9 8.3-10l2.5 1.1c-1 3-2.6 5.8-4.6 8.2-2.2 2.6-5 4.7-8.1 6.2-3.5 1.7-7.4 2.6-11.3 2.5-5.6.2-11.1-1.3-15.8-4.3-4.5-2.8-8-6.9-10.1-11.7-2.4-5.4-3.7-11.3-3.5-17.2-.2-6.7 1-13.3 3.5-19.5 2.1-5 5.7-9.3 10.2-12.4 4.5-2.9 9.8-4.4 15.2-4.2zm54.2-32.5v88.5c-.3 2.6.5 5.3 2.2 7.3 2.2 1.5 4.9 2.2 7.5 1.9v2.7l-6.6-.4h-17.8l-6.7.4v-2.7c2.7.3 5.3-.4 7.5-1.9 1.7-2 2.6-4.6 2.2-7.3V86.8c.2-3-.5-6-2.1-8.5-2-2.1-4.8-3.2-7.7-2.8v-2.7c2.7 0 5.4.4 8 .4 2.4 0 4.8-.1 7.1-.4 2.1-.2 4.2-.6 6.2-1.1zm84 10.3c2.7 0 5.5.3 8.1 1.1 1.9.6 3.7 1.6 5.3 2.8 1.5 1.2 2.8 2.7 3.7 4.4.7 1.4 1 2.9 1.1 4.4 0 1.9-.7 3.8-2.2 5-1.4 1.2-3.2 1.8-5 1.8-1.7 0-3.3-.6-4.6-1.7-1.4-1.2-2.2-3-2.1-4.8 0-1.8.6-3.5 1.9-4.8s3-2.1 4.8-2.2c-.6-1.4-1.7-2.4-3.1-2.9-2-.8-4.2-1.1-6.4-1-4-.2-7.8 1.2-10.8 3.9-2.9 3-4.5 7.1-4.2 11.3 0 2.5.5 5 1.4 7.3 1.1 2.8 2.9 5.3 5.2 7.3 1.5 0 3-.4 4.5-.6h3.4c3.4 0 5.2.9 5.2 2.9 0 .7-.4 1.4-1 1.8-.8.5-1.7.7-2.6.6-1.8 0-3.5-.4-5.2-1.1l-4.2-1.7c-4.6 1.2-8.8 3.7-12.1 7.1-3.3 3.9-4.9 8.9-4.6 14-.2 5.4 1.5 10.6 4.6 15 3.2 4.2 7.5 7.5 12.4 9.4 5.5 2.2 11.4 3.4 17.4 3.3 4.4 0 8.7-.5 12.9-1.6 3.8-.9 7.5-2.5 10.8-4.7 3-1.9 5.5-4.4 7.4-7.3 1.8-2.9 2.8-6.4 2.7-9.8 0-2.1-.4-4.2-1.1-6.2-.8-2.8-2.3-5.3-4.2-7.5-2.7-2.8-6.1-4.7-9.9-5.7l1.6-1.3c5.4 1.3 10.1 4.5 13.3 9.1 2.7 4.1 4.1 9 4 13.9 0 5.3-1.6 10.4-4.6 14.7-3.3 5-7.9 8.9-13.4 11.5-6.6 3.2-13.8 4.7-21.1 4.5-7 0-14-1.3-20.6-3.9-6-2.3-11.2-6.1-15.3-11.1-3.9-4.8-5.9-10.9-5.8-17.1-.1-4.1.8-8.2 2.7-11.9 1.5-3.2 3.5-6.1 6.2-8.5 2.4-2 5.1-3.6 8-4.9 2-1 4.1-1.8 6.2-2.4-3.8-1.5-7.1-4-9.7-7.3-2-2.7-3.2-5.9-3.2-9.3 0-2.2.4-4.3 1.4-6.2 1-2 2.5-3.8 4.2-5.2 2-1.7 4.3-2.9 6.7-3.6 3.2-.8 6.6-1.2 9.9-1zm46.7-2.6c4.8-.2 9.6 1.5 13.3 4.6 3.7 3.2 5.7 7.9 5.4 12.7.1 4-1.1 7.9-3.5 11-2.3 2.9-5.3 5.3-8.6 7-2.5 1.2-5.1 2.2-7.8 3.1l-10.3 3.4-10.4 3.2c-3.3 1.1-6.2 2-8.1 2.8-2.9 1-5.6 2.5-8 4.4-2.1 1.6-3.3 4.1-3.2 6.7 0 2.1.6 4.1 1.9 5.7 1.2 1.5 2.8 2.7 4.7 3.5 1.6.7 3.4 1.1 5.2 1.2 1.5 0 3.1-.3 4.5-.7 1.9-.4 2.9-1.2 3.2-2.1-1.5-.3-2.9-.9-4-1.9-1.4-1.1-2.2-2.9-2-4.7 0-1.9.7-3.7 2.1-4.9s3.1-1.8 5-1.8 3.6.6 5 1.9c1.3 1.4 1.9 3.2 1.9 5 0 2.3-.8 4.6-2.4 6.2-1.6 1.7-3.7 3-5.9 3.7-2.2.8-4.6 1.2-7 1.2-2.5 0-5-.6-7.3-1.6-5.6-2.1-9.2-7.6-8.8-13.6-.1-4.2 1.5-8.3 4.5-11.2 3.8-3.5 8.3-6.1 13.2-7.5 2.5-.8 5.7-1.8 9.4-2.8s7.5-2.1 11.3-3.4c3.6-1.1 7.2-2.4 10.6-4 3.4-1.3 6.3-3.5 8.7-6.2 1.4-1.8 2.2-3.9 2.3-6.2 0-3.6-1.6-7-4.4-9.3-2.9-2.5-6.6-3.8-10.4-3.7h-2.6c-.5 0-1 .4-1.2.9 1.1.6 2.1 1.4 2.7 2.5.6 1 .9 2.2.9 3.4 0 1.7-.8 3.4-2.1 4.5-1.4 1.2-3.2 1.9-5.1 1.8-1.7 0-3.3-.6-4.6-1.6-1.5-1.1-2.4-2.9-2.2-4.8 0-2 .8-4 2.3-5.3 1.6-1.3 3.5-2.2 5.5-2.7 2.2-.4 4.4-.6 6.6-.5zm96.9 24.8c2.2 0 4.3.4 6.2 1.4 1.7.9 3.1 2.1 4.1 3.7 1 1.5 1.5 3.2 1.5 5 0 2.1-.7 4.1-2 5.7s-3.3 2.5-5.3 2.4c-1.7 0-3.4-.6-4.7-1.7-1.4-1.2-2.1-3-2.1-4.9 0-1.5.4-3 1.3-4.2.8-1.1 1.9-2.1 3-2.8-.6-.8-1.6-1.3-2.7-1.2-3.6 0-7 1.4-9.4 4-5.1 5.5-8.1 12.6-8.5 20.1v27c-.4 3.2.9 6.5 3.6 8.4 3.1 1.6 6.5 2.3 10 2.1v2.7l-8.4-.4h-20.1l-6.2.4v-2.7c2.7.2 5.3-.4 7.5-1.9 1.7-2 2.6-4.6 2.2-7.3v-40c.2-3-.5-6-2.1-8.5-2-2.1-4.8-3.1-7.7-2.8v-2.7c2.7 0 5.4.4 8 .4 2.4 0 4.7-.1 7.1-.4 2.1-.3 4.2-.7 6.2-1.4v16c1-2.7 2.4-5.2 4-7.5 1.7-2.4 3.8-4.5 6.2-6.2 2.3-1.7 5.1-2.7 8-2.7zm45.8 0c6.6-.4 13.1 2.1 17.7 6.9 4.7 6.1 6.9 13.7 6.2 21.3h-45.3v-2.4h33.1c.2-3.9-.1-7.8-1-11.6-.7-3.1-2.1-6-4-8.5-1.8-2.1-4.4-3.3-7.1-3.2-4.2.2-8.1 2.4-10.4 5.9-3.5 5.6-5.4 12-5.5 18.6l.4.5c0 1.3 0 2.7-.4 4.2s0 3.1 0 4.7c-.1 5.1.8 10.2 2.8 15 1.6 3.8 4.1 7.1 7.4 9.6 2.7 2.1 6 3.2 9.4 3.3 3.7 0 7.4-.9 10.6-2.9 3.7-2.4 6.6-5.9 8.3-10l2.5 1.1c-1 3-2.6 5.8-4.6 8.2-2.2 2.6-5 4.7-8.1 6.2-3.5 1.7-7.4 2.6-11.3 2.5-5.6.2-11.1-1.3-15.8-4.3-4.5-2.8-8-6.9-10.1-11.7-2.4-5.4-3.7-11.3-3.5-17.2-.2-6.7 1-13.3 3.5-19.5 2.1-5 5.7-9.3 10.2-12.4 4.5-2.9 9.8-4.4 15.2-4.2zm56.8 0c3 0 6 .5 8.8 1.7 1.9.8 3.6 1.8 5.3 3 2.8 2.4 4.5.8 5.1-4.6h3c0 2.4-.3 5.2-.4 8.5s0 7.8 0 13.3h-2.9c-.5-3.2-1.4-6.3-2.7-9.2-1.1-2.9-3-5.4-5.4-7.4-2.7-2-6-3.1-9.4-2.9-2.7 0-5.4.8-7.5 2.5-2.1 1.8-3.2 4.6-3 7.3 0 2.4.7 4.8 2.3 6.7 1.8 2 3.9 3.7 6.2 5.1l8.1 5.2c4.4 2.8 8.6 6.1 12.4 9.6 3.5 3.3 5.3 8 5.2 12.8.1 3.6-1 7-3.1 9.9-2 2.8-4.8 4.9-8 6.2-3.4 1.4-7.1 2.2-10.8 2.1-1.8 0-3.6-.2-5.3-.5-1.6-.3-3.2-.7-4.8-1.3-.9-.5-1.8-1-2.7-1.6l-2.6-1.9c-.5-.6-1.5-.7-2.1-.2l-.2.2c-.9 1.3-1.4 2.7-1.6 4.3h-3c0-2.7.3-6.2.4-10s0-9.1 0-15.7h2.9c.5 4.2 1.4 8.4 2.5 12.4.9 3.3 2.8 6.2 5.3 8.5 2.9 2.1 6.4 3.2 10 3 2.8 0 5.5-1 7.6-2.7 2.8-2.3 4.2-5.9 3.8-9.5.1-3.5-1.4-7-4.1-9.3-3.3-2.8-6.7-5.3-10.4-7.6-3.1-1.9-6.2-3.9-8.7-5.9-2.6-1.8-4.8-4.1-6.5-6.7-3.5-5.7-3.5-12.9 0-18.6 1.7-2.5 4.2-4.4 7-5.4 3-1.1 6.1-1.6 9.3-1.5zm55-19.6v21.4h19v2.9h-19v49.7c-.3 3 .5 6 2.2 8.5 1.6 1.7 3.9 2.6 6.2 2.4 2.6 0 5-1.1 6.7-3.1 2.4-3.2 4-6.8 4.9-10.6l2.5.7c-.7 4.5-2.5 8.7-5.1 12.4-2.8 3.6-7.1 5.5-11.6 5.2-2.4 0-4.9-.3-7.1-1.1-1.9-.7-3.6-1.8-5-3.2-1.9-2-3.2-4.4-3.9-7-.8-3.6-1.2-7.3-1.1-10.9v-42.9h-12.4v-2.5h12.4v-20c2.1 0 4.2 0 6.2-.5 1.7-.2 3.5-.7 5.1-1.3zm56.3 19.6c5.2 0 10.3 1.2 14.8 3.6 4.6 2.6 8.2 6.6 10.4 11.3 2.8 6.3 4.2 13.1 3.9 20 .3 6.9-1.1 13.7-3.9 20-2.3 4.7-5.9 8.6-10.4 11.2-4.6 2.4-9.6 3.6-14.8 3.6-5.1 0-10.2-1.2-14.7-3.6-4.6-2.6-8.3-6.5-10.6-11.2-2.9-6.3-4.2-13.1-3.9-20-.3-6.9 1.1-13.7 3.9-20 2.3-4.8 5.9-8.7 10.6-11.3 4.5-2.4 9.6-3.7 14.7-3.6zm0 2.5c-5.1.1-9.7 3-12 7.6-3.7 7.7-5.3 16.3-4.7 24.9-.7 8.6.9 17.1 4.7 24.9 3.2 6.6 11.1 9.4 17.7 6.2 2.7-1.3 4.9-3.5 6.2-6.2 3.7-7.7 5.4-16.3 4.7-24.9.6-8.6-1-17.1-4.7-24.9-2.3-4.5-6.9-7.5-12-7.6zm-648.8 574v2.6c-2.3 0-4.5.3-6.7.9-1.4.5-2.5 1.7-3 3.1-.6 2.3-.9 4.6-.8 7v63.7c0 2.3.2 4.7.8 6.9.4 1.5 1.5 2.6 3 3 2.2.5 4.4.8 6.7.7h9.4c4.3.3 8.5-.5 12.4-2.3 3-1.7 5.2-4.4 6.2-7.6 1.5-4.6 2.4-9.3 2.7-14.1h3c0 2.7-.4 6.2-.4 10.5v7c0 3 0 6.2.7 9.4h-66.6v-2.6c2.2 0 4.4-.4 6.6-1 1.5-.5 2.6-1.6 3-3.1.6-2.3.8-4.6.7-6.9v-63.9c0-2.3-.2-4.7-.7-7-.5-1.5-1.6-2.6-3-3.1-2.1-.7-4.4-1-6.6-.9v-2.4h32.6zm72.3 22.8c6.6-.4 13 2.2 17.7 6.9 4.7 6.1 6.9 13.7 6.2 21.3h-45.3v-2.4h33.1c.2-3.9-.2-7.8-1.1-11.6-.7-3.1-2.1-6-4-8.5-1.8-2.1-4.4-3.3-7.1-3.2-4.3.2-8.2 2.6-10.4 6.2-3.5 5.6-5.4 12-5.5 18.6l.4.5c0 1.3 0 2.7-.4 4.2s0 3.1 0 4.7c-.1 5.1.8 10.3 2.9 15 1.5 3.8 4.1 7.1 7.3 9.6 2.7 1.9 5.9 3 9.3 3 3.8 0 7.5-1 10.7-2.9 3.7-2.4 6.6-5.9 8.2-10l2.5 1.1c-1 3-2.6 5.8-4.6 8.2-2.2 2.6-5 4.7-8.1 6.2-3.5 1.7-7.4 2.6-11.3 2.5-5.6.2-11.1-1.3-15.8-4.3-4.5-2.8-8-6.9-10.1-11.7-2.4-5.4-3.7-11.3-3.5-17.2-.2-6.7 1-13.3 3.6-19.5 2.1-5 5.6-9.3 10.1-12.4 4.6-2.9 9.9-4.4 15.4-4.2zm56.6 0c3 0 6 .5 8.8 1.7 1.9.8 3.6 1.8 5.3 3 2.8 2.4 4.5.8 5.1-4.6h3c0 2.4 0 5.2-.4 8.5s0 7.8 0 13.3h-2.9c-.5-3.2-1.4-6.2-2.6-9.2-1.2-2.9-3.1-5.4-5.5-7.4-2.7-2-6-3.1-9.4-2.9-2.7 0-5.4.8-7.5 2.5-2.1 1.8-3.2 4.6-3 7.3 0 2.4.7 4.8 2.3 6.7 1.8 2 3.9 3.7 6.2 5.1l8.1 5.2c4.4 2.8 8.6 6 12.4 9.6 3.5 3.3 5.3 8 5.2 12.8.1 3.6-1 7-3.1 9.9-2.1 2.8-4.8 4.9-8 6.2-3.4 1.4-7.1 2.1-10.8 2.1-1.8 0-3.6-.2-5.3-.5-1.6-.3-3.2-.7-4.8-1.3-.9-.5-1.8-1-2.7-1.6l-2.6-1.9c-.5-.6-1.5-.7-2.1-.2l-.2.2c-.9 1.3-1.4 2.7-1.6 4.3h-3c0-2.7 0-6.2.4-10s0-9.1 0-15.7h2.9c.5 4.2 1.4 8.4 2.6 12.4.9 3.3 2.7 6.2 5.2 8.5 2.9 2.1 6.4 3.2 10 3 2.8 0 5.5-1 7.6-2.7 2.8-2.3 4.2-5.9 3.8-9.5.1-3.5-1.4-7-4.1-9.3-3.3-2.8-6.7-5.3-10.4-7.6-3.1-1.9-6.2-3.9-8.7-6.2-2.6-1.8-4.8-4.1-6.5-6.7-1.7-2.7-2.6-5.8-2.5-8.9-.1-3.3.8-6.7 2.6-9.4 1.8-2.5 4.2-4.3 7-5.4 2.9-1 6-1.5 9.1-1.4zm110.4-24.8c4.8-.1 9.5.7 13.9 2.5 3.4 1.6 6.7 3.5 9.7 5.8 1.7 1.2 3 1.4 3.9.4 1.2-2.1 1.9-4.6 1.9-7h2.9c0 3.2-.1 7-.4 11.6v18h-3.3c-.6-3.7-1.1-6.6-1.6-8.8-.5-1.9-1.1-3.8-1.9-5.6-.8-1.6-1.8-3.2-2.9-4.6-2.5-3.5-6-6.1-10-7.6-4-1.6-8.2-2.4-12.4-2.4-4 0-7.9 1-11.3 3.1-3.6 2.3-6.6 5.4-8.8 9.1-2.6 4.4-4.5 9.2-5.7 14.2-1.4 6.1-2 12.4-2 18.6 0 6.4.7 12.8 2.2 19 1.3 5 3.4 9.7 6.2 13.9 2.3 3.6 5.4 6.5 9 8.6 3.5 1.9 7.5 2.9 11.5 2.9 4.1 0 8.2-.8 12.1-2.3 4-1.4 7.5-4 9.9-7.5 1.9-2.4 3.2-5.1 3.9-8.1 1-4.1 1.6-8.2 2-12.4h3v18.6c0 4.6 0 8.7.4 12h-2.9c0-2.4-.6-4.8-1.7-7-.8-.9-2.2-.8-4 .4-3.2 2.2-6.6 4.2-10.1 5.8-4.3 1.8-9 2.7-13.7 2.5-7.5.2-14.9-1.8-21.4-5.5-6.2-3.8-11.2-9.3-14.3-15.9-6.8-16-6.8-34.2 0-50.2 3.2-6.8 8.2-12.7 14.5-16.8 6.4-3.9 13.9-5.9 21.4-5.5zm84.5 24.8c2.2 0 4.3.4 6.2 1.4 1.7.9 3.1 2.1 4.1 3.7 1 1.5 1.5 3.2 1.5 5 0 2.1-.7 4.1-2 5.7s-3.3 2.5-5.3 2.4c-1.7 0-3.4-.6-4.7-1.7-1.4-1.2-2.2-3-2.1-4.9 0-1.5.5-3 1.4-4.2.8-1.1 1.9-2.1 3-2.8-.7-.8-1.7-1.3-2.7-1.2-3.6 0-7 1.4-9.4 4-2.7 2.8-4.8 6.1-6.2 9.7-1.4 3.3-2.2 6.8-2.2 10.4v27.2c-.4 3.3 1 6.5 3.7 8.4 3.1 1.6 6.5 2.3 9.9 2.1v2.7h-34.9v-2.7c2.7.3 5.3-.4 7.5-1.9 1.7-2 2.6-4.6 2.2-7.3v-40.2c.2-3-.5-6-2.1-8.5-2-2.1-4.8-3.2-7.7-2.8v-2.4c2.7 0 5.4.4 8 .4 2.3 0 4.7 0 7-.4 2.1-.3 4.2-.7 6.2-1.4v16c1-2.6 2.4-5.1 4-7.5 1.7-2.4 3.8-4.5 6.2-6.2 2.4-1.9 5.3-2.9 8.4-3zm45.8 0c5.2 0 10.3 1.2 14.8 3.6 4.6 2.6 8.2 6.6 10.4 11.3 5.2 12.8 5.2 27.2 0 40-2.3 4.7-5.9 8.6-10.4 11.2-4.6 2.4-9.6 3.6-14.8 3.6-5.1 0-10.2-1.2-14.7-3.6-4.6-2.6-8.3-6.5-10.6-11.2-5.2-12.8-5.2-27.2 0-40 2.3-4.8 5.9-8.7 10.6-11.3 4.5-2.4 9.6-3.7 14.7-3.6zm0 2.6c-5.1.1-9.7 3-12 7.6-3.7 7.7-5.3 16.3-4.7 24.9-.7 8.6.9 17.1 4.7 24.9 3.2 6.6 11.1 9.4 17.7 6.2 2.7-1.3 4.9-3.5 6.2-6.2 3.8-7.7 5.4-16.3 4.7-24.9.7-8.6-1-17.1-4.7-24.9-2.3-4.5-6.9-7.5-12-7.6zm61.9-2.6c3 0 6 .5 8.7 1.7 1.9.8 3.7 1.8 5.3 3 2.8 2.4 4.5.8 5.1-4.6h3c0 2.4 0 5.2-.4 8.5s0 7.8 0 13.3h-3c-.5-3.2-1.4-6.2-2.6-9.2-1.1-2.9-3-5.5-5.5-7.4-2.7-2-6-3.1-9.4-2.9-2.7 0-5.4.8-7.5 2.5-2.1 1.8-3.2 4.6-3 7.3 0 2.4.7 4.8 2.3 6.7 1.8 2 3.9 3.7 6.2 5.1l8.1 5.2c4.4 2.8 8.6 6.1 12.4 9.6 3.5 3.3 5.3 8 5.1 12.8.1 3.5-.9 7-3 9.9-2.1 2.8-4.8 4.9-8 6.2-3.5 1.4-7.2 2.1-10.9 2.1-1.8 0-3.6-.2-5.3-.5-1.6-.3-3.2-.7-4.8-1.3-.9-.4-1.8-1-2.6-1.6l-2.7-1.9c-.5-.6-1.5-.7-2.1-.2l-.2.2c-.9 1.3-1.4 2.7-1.6 4.3h-2.9c0-2.7.3-6.2.4-10v-15.7h2.9c.5 4.2 1.4 8.4 2.6 12.4.8 3.3 2.6 6.3 5.1 8.6 2.9 2.1 6.4 3.2 10 3 2.8 0 5.4-1 7.6-2.7 2.7-2.4 4.1-5.9 3.7-9.5.1-3.5-1.4-7-4.1-9.3-3.3-2.8-6.7-5.3-10.4-7.6-3.1-1.9-6.2-3.9-8.6-6.2-2.6-1.8-4.8-4-6.6-6.7-1.7-2.7-2.6-5.8-2.5-8.9-.1-3.3.8-6.7 2.6-9.4 1.8-2.4 4.2-4.3 7-5.4 3-1.1 6.2-1.6 9.4-1.5zm65.6 0c6.6-.4 13 2.1 17.7 6.9 4.7 6.1 6.9 13.7 6.2 21.3H978v-2.4h33.1c.2-3.9-.1-7.8-1-11.6-.7-3.1-2.1-6-4.1-8.5-1.7-2.1-4.4-3.3-7.1-3.2-4.3.2-8.2 2.6-10.4 6.2-3.6 5.6-5.5 12-5.5 18.6l.4.5c0 1.3-.3 2.7-.4 4.2s0 3.1 0 4.7c-.1 5.1.8 10.2 2.8 15 1.6 3.8 4.1 7.1 7.4 9.6 2.7 2.1 6 3.2 9.4 3.3 3.7 0 7.4-.9 10.6-2.9 3.7-2.4 6.6-5.9 8.2-10l2.6 1.1c-1.1 3-2.6 5.8-4.7 8.2-4.7 5.8-11.9 9.1-19.4 9-5.6.2-11.1-1.3-15.8-4.3-4.4-2.8-8-6.9-10.1-11.7-2.4-5.4-3.7-11.3-3.5-17.2-.2-6.7 1.1-13.3 3.6-19.5 2.1-5 5.7-9.3 10.1-12.4 4.5-3.1 9.7-4.8 15.2-4.8zm54.5-19.5v21.6h19v2.5h-19v49.7c-.3 3 .5 6 2.2 8.5 1.6 1.7 3.9 2.6 6.2 2.4 2.6 0 5-1.1 6.7-3.1 2.4-3.1 4.1-6.8 4.9-10.6l2.5.7c-.7 4.5-2.4 8.7-5 12.4-2.8 3.5-7.1 5.5-11.6 5.2-2.5 0-4.9-.3-7.2-1.1-1.8-.7-3.5-1.8-5-3.2-1.9-1.9-3.3-4.4-3.9-7-.8-3.6-1.2-7.3-1.1-10.9v-43h-12.4v-2.4h12.4V686c2.1 0 4.2 0 6.2-.5 1.8-.3 3.5-.8 5.2-1.4zm47.7 19.5c3 0 6 .5 8.8 1.7 1.9.8 3.6 1.8 5.2 3 2.9 2.4 4.5.8 5.2-4.6h2.9c0 2.4 0 5.2-.4 8.5s0 7.8 0 13.3h-2.9c-.5-3.2-1.4-6.2-2.7-9.2-1.1-2.9-3-5.4-5.4-7.4-2.7-2-6-3.1-9.4-2.9-2.7 0-5.4.8-7.5 2.5-2.1 1.8-3.2 4.5-3 7.3 0 2.4.8 4.8 2.4 6.7 1.8 2 3.9 3.7 6.2 5.1l8.1 5.2c4.4 2.8 8.6 6.1 12.4 9.6 3.5 3.3 5.3 8 5.2 12.8.1 3.6-1 7-3.1 9.9-2.1 2.8-4.8 4.9-8 6.2-3.4 1.4-7.1 2.1-10.8 2.1-1.8 0-3.6-.2-5.3-.5s-3.3-.7-4.8-1.3c-.8-.4-1.7-.9-2.6-1.6s-1.8-1.2-2.6-1.9c-.5-.6-1.5-.7-2.1-.2l-.2.2c-.9 1.3-1.4 2.7-1.6 4.3h-3c0-2.7 0-6.2.4-10s0-9.1 0-15.7h2.9c.5 4.2 1.3 8.4 2.5 12.4.8 3.3 2.6 6.3 5.2 8.6 2.9 2.1 6.4 3.2 10 3 2.8 0 5.4-1 7.6-2.7 2.8-2.3 4.2-5.9 3.8-9.5.1-3.5-1.4-7-4.1-9.3-3.3-2.8-6.7-5.3-10.4-7.6-3.1-1.9-6.2-3.9-8.7-6.2-2.6-1.8-4.8-4.1-6.5-6.7-1.7-2.7-2.6-5.8-2.5-8.9-.1-3.3.8-6.7 2.6-9.4 1.7-2.4 4.2-4.3 7-5.4 3-1.1 6.2-1.6 9.4-1.5zM211.2 327.5c0-3.1 2.5-5.7 5.7-5.7h35.5c3.1 0 5.6 2.6 5.7 5.7v159.3h71c3.1 0 5.7 2.5 5.7 5.7v32.8c0 3.1-2.5 5.7-5.7 5.7H217.2c-3.1 0-5.7-2.5-5.7-5.7l-.2-197.8zM343 401.8c-1.8-1.7-1.9-4.5-.3-6.3l.3-.3c3.3-2.4 20.9-15.5 21.2-35.8-3.8 1.4-7.9 2.1-11.9 2.1-11.8 0-21.4-9.4-21.5-21.2.5-12.3 10.8-21.9 23.1-21.5h.4c11.4 0 27.2 8.6 27.2 34.6-.2 21.3-10.5 41.2-27.7 53.8-1.7 1.7-4.4 1.7-6.1 0-.2-.2-.4-.4-.5-.6zm69.5-74.3c0-3.1 2.5-5.7 5.7-5.7h123.5c3.1 0 5.7 2.5 5.7 5.7V360c0 3.1-2.5 5.7-5.7 5.7h-82.6V403h68c3.1 0 5.6 2.6 5.7 5.7v32.5c0 3.1-2.5 5.7-5.7 5.7h-68v40.3h82.6c3.1 0 5.7 2.5 5.7 5.7v32.6c0 3.1-2.5 5.7-5.7 5.7H418.2c-3.1 0-5.7-2.5-5.7-5.7V327.7zm39.7-26.9-6.2-12.4c-.9-2.1 0-4.5 1.8-5.7l50.7-31.1c1.8-1.2 6.2-1.8 7.8.9l10.1 17.6c2 2.8 1.4 6.7-1.4 8.7-.1 0-.3.2-.4.3l-54.3 24.5c-2.3 1.7-5.6 1.3-7.3-1.1-.4-.5-.7-1.1-.8-1.7zm162 65.1h-42.9c-3.1 0-5.7-2.5-5.7-5.7v-32.5c0-3.1 2.5-5.7 5.7-5.7h132.4c3.1 0 5.7 2.5 5.7 5.7V360c0 3.1-2.6 5.7-5.7 5.7h-42.6v159.6c0 3.1-2.6 5.6-5.7 5.7h-35.8c-3.1 0-5.6-2.6-5.7-5.7l.2-159.6zm87.6 157.2L795 322.1c1-1.9 3-3.1 5.1-3.2h3c2.1.1 4 1.4 5 3.2l93.2 200.8c1.4 2.6.4 5.8-2.1 7.2-.9.5-1.9.7-3 .6h-32.9c-5.3 0-7.7-1.8-10.4-7.5l-10.7-23.6h-81l-10.8 23.9c-1.7 4.4-6 7.3-10.8 7.1h-32.8c-2.9.2-5.5-1.9-5.7-4.8 0-1 .1-2 .6-2.9zm122.7-63.8-22.7-49.2h-.5l-22.4 49.2zm101.7-131.6c0-3.1 2.5-5.7 5.7-5.7h69.5c35.2 0 64.1 24.1 64.1 55.4s-20.6 39.7-34.6 47.2c15.8 6.6 40 21.2 40 48.6s-29.5 57.6-65 57.6h-74.1c-3.1 0-5.7-2.5-5.7-5.7V327.4zm69.8 79c11.7-.2 21-9.8 20.9-21.5 0-11.2-9-20.2-20.1-20.3h-24v41.8zm4.2 81.5c11.9 0 21.5-9.8 21.4-21.7 0-11.9-12.8-20.9-24.4-20.9H973V488zm108.6-160.5c0-3.1 2.5-5.7 5.7-5.7h35.5c3.1 0 5.6 2.6 5.7 5.7v159.3h71c3.1 0 5.7 2.5 5.7 5.7v32.8c0 3.1-2.5 5.7-5.7 5.7h-112.2c-3.1 0-5.7-2.5-5.7-5.7zm152.4 0c0-3.1 2.6-5.7 5.7-5.7h123.5c3.1 0 5.7 2.5 5.7 5.7V360c0 3.1-2.5 5.7-5.7 5.7h-82.7V403h68.1c3.1 0 5.6 2.6 5.7 5.7v32.5c0 3.1-2.5 5.7-5.7 5.7h-68.1v40.3h82.7c3.1 0 5.7 2.5 5.7 5.7v32.6c0 3.1-2.5 5.7-5.7 5.7h-123.5c-3.1 0-5.7-2.5-5.7-5.7V327.7z"/></svg>